<?xml version="1.0" encoding="utf-8"?>
<svg width="174px" height="49px" xmlns="http://www.w3.org/2000/svg" xmlns:xlink="http://www.w3.org/1999/xlink" viewBox="0 0 174 49">
<path fill="#1F417C" d="M31,24l10.5,17.6c1.1,1.9,1.7,3.3,1.7,4.2c0,2-1.9,3-5.5,2.9c-4.1,0-7.2-1.5-9-4.4l-4.8-7.9
	C22,33.5,20.2,32,18.3,32c-1.5,0-2.7,0.7-3.9,2.1c-1.2,1.4-1.8,3.8-1.9,7.2c0.1,2.5-0.3,4.4-1.1,5.7c-0.8,1.3-2.4,2-5,2
	c-2.5,0-4.1-0.5-5.1-1.6c-1-1-1.4-2.6-1.4-4.7v-36c0-2,0.4-3.4,1.4-4.4s2.5-1.5,4.8-1.5c4.2-0.1,6.4,1.9,6.3,5.9
	c0,1.7,0.4,4.5,0.9,5.5s1.3,1.5,2.4,1.4c0.5,0,1.2-0.1,2.1-0.6c0.9-0.4,2.1-1.5,3.6-3c0,0,1-1.1,2.9-3.3c2.1-2,3.3-3.1,3.9-3.3
	C29.9,2.4,32.1,2,35.1,2h1.3c2.7,0,4.1,0.9,4,2.5c0,0.9-0.6,2.1-1.9,3.5L32,15.4c-0.8,1.1-1.4,2-1.7,2.9c-0.3,0.9-0.4,1.5-0.4,1.9
	C30.1,21.9,30.5,23.1,31,24L31,24z M68.1,2.1c1.3,0,2.4-0.3,3.1-0.6C72,1.2,73.1,1,74.4,1c3,0,4.6,1.8,4.6,5.3
	c0.1,2.2-0.3,3.8-1.2,5c-0.9,1.2-2.5,2.1-4.9,2.7c-2.4,0.8-4.2,2-5.4,3.4c-1.2,1.6-1.8,3.4-1.8,5.6v19c0,4.7-1.9,7-5.7,7h-3.7
	c-3.5,0-5.3-2.5-5.4-7.3V7.2c0-2.4,0.4-4,1.4-5.3S55.2,0,57.9,0c2.7,0.1,4.9,0.4,6.4,1C65.9,1.7,67.1,2,68.1,2.1L68.1,2.1z
	 M118.6,1.3c1.7,0,3,0.4,4.1,1.3c1.1,0.9,1.6,2.2,1.7,3.9c0,2.7-0.3,4.8-1,6.2s-1.7,2.6-3,3.9l-11.3,11.3c-3.8,3.8-5.7,6.4-5.7,7.4
	c0,2.5,1.7,3.8,5.2,3.8h10.1c1.9,0,3.2,0.6,4.1,1.5c1,1,1.4,2.2,1.4,3.6c0,3.2-2.3,4.9-6.7,4.8H87.2c-1.7,0-3-0.4-4.1-1.3
	c-1-0.9-1.6-2.2-1.6-3.9v-2.5c0-2.4,1.4-4.8,4-7.5l15.1-15.3c0.7-0.6,1.2-1.2,1.5-1.8c0.3-0.6,0.5-1.4,0.6-2.3
	c0-1.1-0.6-1.9-1.7-2.4c-1.1-0.5-2.4-0.7-4.2-0.7H90c-1.4,0-2.6-0.3-3.8-1.1c-1.2-0.7-1.9-2.1-2-3.8c0-1.5,0.5-2.6,1.4-3.6
	c0.9-0.9,2.3-1.4,4-1.4L118.6,1.3L118.6,1.3z M158.6,0.4c4.3,0,7.7,1.1,10.2,3.3c2.5,2.4,3.7,6.1,3.8,11.4v28.6c0,1.8-0.7,3-1.7,3.9
	c-1.1,0.9-2.4,1.3-4,1.3h-2.1c-1.5,0-2.6-0.4-3.7-1.3c-1-0.9-1.5-2.2-1.5-3.9V23.9c-0.1-8.4-2.7-12.6-7.9-12.6
	c-5.5,0-8.1,4.4-8,13.2v19.3c0,1.8-0.7,3-1.7,3.9c-1.1,0.9-2.4,1.3-4,1.3h-2.1c-1.6,0-2.8-0.4-3.7-1.4c-1-1-1.4-2.4-1.4-4.3V6.9
	c-0.1-3.5,2.1-5.3,6.5-5.3c1.9,0,3.5,0.3,5,0.7s2.8,0.6,4,0.7c1.4,0,2.6-0.2,3.7-0.6s2.3-0.8,3.5-1.2C154.6,0.7,156.4,0.4,158.6,0.4
	L158.6,0.4z"/>
</svg>