<?xml version="1.0" encoding="iso-8859-1"?>
<!-- Generator: Adobe Illustrator 16.0.0, SVG Export Plug-In . SVG Version: 6.00 Build 0)  -->
<!DOCTYPE svg PUBLIC "-//W3C//DTD SVG 1.1//EN" "http://www.w3.org/Graphics/SVG/1.1/DTD/svg11.dtd">
<svg xmlns="http://www.w3.org/2000/svg" xmlns:xlink="http://www.w3.org/1999/xlink" version="1.1" id="Capa_1" x="0px" y="0px" width="512px" height="512px" viewBox="0 0 482.781 482.781" style="enable-background:new 0 0 482.781 482.781;" xml:space="preserve">
<g>
	<g>
		<g>
			<path d="M71.895,248.373c-18.191,0-32.934,14.763-32.934,32.953s14.742,32.948,32.934,32.948     c49.859,0,90.402,40.56,90.402,90.402c0,18.189,14.758,32.948,32.949,32.948s32.934-14.759,32.934-32.948     C228.18,318.498,158.075,248.373,71.895,248.373z" fill="#c73243"/>
			<path d="M89.832,126.759c-18.191,0-32.934,14.762-32.934,32.953s14.742,32.949,32.934,32.949     c107.012,0,194.094,87.066,194.094,194.094c0,18.189,14.742,32.934,32.935,32.934s32.948-14.742,32.948-32.934     C349.809,243.408,233.18,126.759,89.832,126.759z" fill="#c73243"/>
			<path d="M96.383,0.15c-18.191,0-32.938,14.742-32.938,32.934s14.746,32.949,32.938,32.949     c176.723,0,320.516,143.809,320.516,320.563c0,18.19,14.741,32.934,32.936,32.934c18.207,0,32.947-14.741,32.947-32.934     C482.781,173.505,309.441,0.15,96.383,0.15z" fill="#c73243"/>
			<path d="M58.211,366.205C26.051,366.205,0,392.259,0,424.419c0,32.142,26.051,58.212,58.211,58.212     c32.145,0,58.227-26.07,58.227-58.212C116.438,392.259,90.356,366.205,58.211,366.205z" fill="#c73243"/>
		</g>
	</g>
</g>
<g>
</g>
<g>
</g>
<g>
</g>
<g>
</g>
<g>
</g>
<g>
</g>
<g>
</g>
<g>
</g>
<g>
</g>
<g>
</g>
<g>
</g>
<g>
</g>
<g>
</g>
<g>
</g>
<g>
</g>
</svg>
