<?xml version="1.0" encoding="UTF-8" standalone="no"?>
<!-- Created with Inkscape (http://www.inkscape.org/) -->

<svg
   xmlns:dc="http://purl.org/dc/elements/1.1/"
   xmlns:cc="http://creativecommons.org/ns#"
   xmlns:rdf="http://www.w3.org/1999/02/22-rdf-syntax-ns#"
   xmlns:svg="http://www.w3.org/2000/svg"
   xmlns="http://www.w3.org/2000/svg"
   version="1.1"
   width="752.09454"
   height="1005.9689"
   viewbox="0 0 752.09454 1005.9689"
   id="svg3910">
  <defs
     id="defs3912">
    <symbol
       id="*Paper_Space0" />
    <symbol
       id="*Paper_Space" />
    <symbol
       id="*Model_Space" />
    <pattern
       height="8"
       id="Hatch"
       patternUnits="userSpaceOnUse"
       width="8"
       x="0"
       y="0">
      <path
         d="M8 4 l-4,4"
         linecap="square"
         stroke="#000000"
         stroke-width="0.25"
         id="path3947" />
      <path
         d="M6 2 l-4,4"
         linecap="square"
         stroke="#000000"
         stroke-width="0.25"
         id="path3949" />
      <path
         d="M4 0 l-4,4"
         linecap="square"
         stroke="#000000"
         stroke-width="0.25"
         id="path3951" />
    </pattern>
    <marker
       refX="0"
       refY="0"
       orient="auto"
       id="DistanceX"
       style="overflow:visible">
      <path
         d="M 3,-3 -3,3 M 0,-5 0,5"
         id="path3944"
         style="stroke:#000000;stroke-width:0.5" />
    </marker>
  </defs>
  <metadata
     id="metadata3915">
    <rdf:RDF>
      <cc:Work
         rdf:about="">
        <dc:format>image/svg+xml</dc:format>
        <dc:type
           rdf:resource="http://purl.org/dc/dcmitype/StillImage" />
        <dc:title></dc:title>
      </cc:Work>
    </rdf:RDF>
  </metadata>
  <g
     transform="translate(-6.809886,-20.806257)"
     id="layer1">
    <g
       transform="translate(10.809886,-29.58709)"
       id="g3979">
      <g
         id="g3956" />
      <g
         id="g5035">
        <path
           d="m 206.72186,54.393757 0.25819,11.591029 5.01259,3.999029 6.25768,-0.988006 9.4628,-0.593381 6.58615,-0.489412 6.60876,-2.180951 7.41044,1.340234 8.37402,3.172796 6.75685,0.530431 7.37561,2.579391 9.74799,6.482875 4.19796,-4.733918 8.06204,0.682866 4.81505,-4.051238 8.0063,5.624536 6.1314,2.226769 6.6741,5.790596 9.11496,-0.787839 2.10325,9.613266 2.12232,10.72282 0.0926,6.9969 -4.87239,5.94373 -7.09336,4.19054 7.7784,0.53184 8.75772,-1.59684 7.59628,2.68475 0.34096,6.36844 -2.63883,5.30251 -1.6759,6.66243 5.91989,-10.34867 7.08795,-4.99093 6.55214,1.08525 7.56336,4.81231 7.77907,2.54164 5.72365,5.1414 6.63948,2.15194 6.98887,-4.64091 6.24345,-5.40283 8.347,1.34433 5.17525,-3.24669 -2.40873,8.56491 1.0455,6.59804 1.08799,10.14991 -5.20863,4.33988 -7.4367,6.75865 -5.22462,3.86582 -7.70398,6.77947 10.02619,6.51491 -4.84148,11.80694 7.14352,-2.80259 1.88005,-6.60003 7.2689,-5.04792 6.26491,-1.08403 6.49937,1.97041 3.48932,4.86825 9.64779,2.41982 8.32798,0.10159 0.61858,-7.94102 7.1075,-7.59916 0.76098,-6.78267 4.9006,-5.91964 6.06441,-1.29888 9.98173,0.11897 5.35697,-2.3566 8.14404,-1.6818 5.20259,10.6811 -2.14508,-6.1228 2.8274,-6.78137 3.40011,-6.17293 9.04631,-6.30252 3.74819,-5.13272 2.64746,-6.57449 4.47749,-6.70371 2.27262,-7.09388 8.4682,2.40728 13.07004,0.61778 7.96746,-0.68575 -10.93371,4.17958 -6.49888,0.99446 -9.49303,4.42753 -7.71274,4.15307 -3.72557,8.26455 4.42199,5.42695 2.41529,-6.88308 6.82578,-8.20372 7.43429,-3.71828 11.33912,1.2479 5.93402,0.17324 2.92812,-6.27744 8.1537,-2.01272 3.98527,11.48062 2.43968,6.64166 8.69855,3.77571 5.73455,2.03117 3.02157,5.94947 6.53058,3.58208 4.38858,8.37059 6.96309,-5.71944 5.97255,-2.10692 4.435,-4.16493 8.16805,7.9942 -1.15144,6.15588 -0.52468,5.93716 7.25442,5.83759 4.69131,4.48981 -5.47231,11.39171 5.77497,4.8484 5.46079,3.44703 7.21497,2.10639 8.45181,1.28268 6.35216,2.31805 2.10899,6.37846 4.01222,7.84464 -0.36751,6.83346 3.80177,6.89201 2.35011,9.07383 2.29474,5.75392 2.12522,6.71734 3.5585,7.9634 -5.00079,8.42284 0.82898,11.52156 -1.33828,6.51144 -7.1559,8.1822 -5.79342,3.95323 -1.46418,7.78167 -1.32883,9.237 7.0949,3.34591 5.44775,5.07644 5.90852,2.42334 6.62646,7.3342 4.51461,4.60621 7.67239,3.89779 4.97927,6.9926 0.53443,8.16782 -5.41032,9.00331 0.56326,8.70955 2.21962,6.0367 2.54343,5.7469 7.4749,1.52359 0.50567,7.04174 -0.24288,7.31587 1.81651,5.71699 4.24269,5.75844 -2.55744,11.48815 0.43142,6.47703 -4.22972,6.90114 -3.9474,4.35986 3.92789,4.32703 2.53171,7.48801 4.72603,5.35959 5.14618,10.14708 -3.71631,7.47918 4.35555,4.84558 7.26578,3.56956 6.10772,0.71794 4.35663,4.81683 0.0178,6.31752 1.8313,7.05411 5.36581,8.64505 -1.68038,8.57902 -0.0861,6.75896 -1.38542,5.65149 -0.67949,7.74883 -1.96867,6.31552 -2.2016,8.11674 -4.01985,5.59929 -2.41795,7.42721 -11.06872,-0.1042 -3.62926,-11.05137 -5.87947,1.56813 1.97481,-7.49922 -5.5073,-3.84454 -6.90554,-1.66381 -11.15248,-2.14908 -2.38736,5.52929 5.38233,7.93046 1.82293,7.19978 -6.34016,0.22029 -3.89312,4.41539 -6.68537,3.79546 -6.09917,3.99168 -10.50079,3.76654 -5.93921,8.46986 -7.16623,-0.75368 -6.66042,2.07653 -6.93081,2.21631 -6.42767,8.03834 -3.61271,6.90962 -5.72268,-4.39345 -8.56326,8.27812 -6.75838,9.21093 -5.89071,-0.77399 -6.49203,1.48834 -1.82545,8.44314 -6.48736,5.21931 -7.28414,-4.48816 -10.21974,3.4109 -6.03023,2.04063 -6.48297,1.25129 -6.13417,3.39414 -3.93349,4.91223 -6.81079,9.11595 -2.3514,5.37456 0.31051,6.2851 -5.81547,-6.04011 -6.81437,-11.1027 -6.17788,0.99484 1.41717,5.87467 5.87768,8.85364 0.66982,7.09455 4.13461,5.89959 3.54964,4.72674 6.27339,3.59772 6.49717,3.04237 3.79967,8.10981 6.31067,3.33349 -4,7.03863 -2.11339,9.10962 -5.00675,3.27729 4.87166,7.78762 5.2001,2.88477 4.02694,10.21782 2.10505,6.42875 5.06754,3.3254 1.10073,7.34445 5.07534,4.95342 4.73363,6.42303 7.48617,3.4326 8.49449,-0.44173 7.06893,8.24429 4.93046,3.88596 5.192,6.82405 3.37889,6.20403 9.29772,2.19125 5.25412,3.89741 4.76028,5.48011 1.27234,7.35088 5.19224,3.03801 8.44245,-1.56226 6.40945,4.70608 3.939,6.16548 6.52498,2.017 4.30879,4.75765 1.55517,5.8221 0.94003,12.01709 1.17725,8.32485 -5.68702,11.32448 -7.32568,-0.0333 -6.69889,-3.85853 -6.14337,-2.7743 -5.72532,8.95499 -0.82688,8.19691 -0.34181,7.79775 -5.48697,8.90105 -13.61348,6.38658 -5.6625,2.5356 -5.60601,1.70945 -5.45282,5.20404 -8.21267,3.84234 -7.87841,8.13957 -4.17939,5.12588 6.34949,8.09863 4.29393,5.16946 5.36978,5.32614 4.46429,6.67643 4.20485,6.71337 -5.30884,9.62058 -0.66822,8.53548 9.40632,-0.8034 4.03895,5.7095 -0.58179,7.43964 -0.88322,6.2365 -2.6097,10.96 -7.42944,-1.2968 -6.75537,-4.5979 -7.41049,-4.7873 0.87381,-7.62453 -3.77085,-4.68301 -6.02789,-1.9858 -7.56483,2.10667 -5.54362,4.56351 -8.53737,-7.09046 -9.72293,-0.02 -7.87886,-4.80386 -6.50907,5.10498 3.20668,7.0368 -6.98181,4.4652 -8.26997,0.142 -6.14712,-0.035 -8.60501,1.865 -9.18547,2.2349 -7.9875,0.6945 -6.07693,5.6354 -4.38244,3.9038 -8.22636,-0.4538 -4.52481,6.2419 -7.74418,5.2361 -5.90664,4.3876 -8.12263,-2.0547 -5.98504,2.6153 -6.87492,0.3341 -3.84762,-7.8161 -5.51879,-3.0428 1.40066,-6.0372 -6.95416,0.6315 -7.8821,-0.9109 -6.76299,-3.2159 -7.02835,3.3207 -7.27671,-0.396 -5.29744,-4.7635 0.98348,5.7937 2.1051,7.952 -2.44074,8.0733 -4.25217,5.5503 -3.60232,6.6565 -9.78622,5.2241 -2.69206,-6.7557 2.20128,-7.1501 -12.30167,-0.5016 0.77883,-6.2263 -4.37763,-5.7639 -6.31212,-4.1181 -9.2942,-1.8825 -9.04553,-7.0004 -3.03923,7.109 -12.5519,0.7723 -8.18022,-4.4849 -6.86635,-5.0799 -5.42627,-3.1089 -7.07046,-3.8935 -7.71071,-0.1559 -7.59348,-2.4626 -8.92174,-0.1845 -6.27076,2.995 -5.36484,-3.0817 -4.26874,-5.23742 -7.0622,3.22237 -0.4885,-6.36738 -7.35734,-5.98601 -10.01848,1.90617 -6.35033,5.68366 -3.88692,7.36441 4.8728,3.5096 5.56223,-1.8833 5.68964,-1.502 0.28958,5.8196 -6.83674,-0.899 -5.08912,5.3865 -7.88149,2.9775 -6.50663,-3.3032 -9.06569,-2.9572 -6.09395,3.9305 -5.34013,2.3094 -5.71843,1.2848 -7.67142,-0.2365 -10.06811,-0.5956 -9.47527,2.9478 -9.5808,-5.7027 -3.94074,-9.3361 0.91782,-9.41537 -1.05849,-7.05614 2.06863,-6.07112 0.8296,-7.37155 2.82633,-7.68215 1.23905,-8.22135 -2.22548,-5.95274 0.6309,-8.53304 4.9482,-9.03978 5.02348,-10.84657 4.81723,-6.56622 0.0403,-11.75555 2.15683,-8.38673 3.26633,-9.28511 1.41115,-6.77025 5.65051,-6.72107 6.96951,-8.45611 5.10885,-5.2889 4.67673,-3.58711 3.37643,-6.58059 2.04913,-5.64207 3.77528,-5.97957 4.4825,-3.97762 -6.39349,-1.36836 -9.07165,-4.69788 -11.48042,-4.08704 -7.32816,-0.71517 -11.14422,-0.41112 -5.69706,-3.06126 -7.7684,-2.88444 -3.78567,-5.93265 -4.98157,-5.40598 -5.94686,3.5836 -5.77463,4.80103 -6.35899,-1.63093 -8.003927,-1.84418 -6.786632,2.09387 -3.844605,-9.32729 -6.930244,-3.39099 -4.934919,5.38883 -12.280624,-2.1232 -2.340232,-6.00996 -2.276316,-6.18593 -5.35697,-4.79473 -1.834238,-9.30909 -1.753736,-5.87602 -5.605067,-3.35336 -8.471885,-5.38691 1.715671,-12.67107 4.698931,-6.37397 2.292033,-5.85096 4.230421,-4.40535 -0.636126,-10.90509 -7.91287,-1.17267 -7.010827,-4.87475 -4.851962,-3.9257 -2.750259,-7.20902 -4.795131,-4.90104 -2.25315,-9.11906 0.58875,-11.37658 1.300872,-6.26609 5.444578,-9.60977 7.050496,-2.69783 3.318726,-5.498 5.568474,-2.53235 -2.212,-8.40987 -1.722005,-6.94542 -9.526842,-4.77361 -3.538651,-6.46559 5.803613,-5.5452 -2.414651,-5.45706 -4.932336,-6.29911 -9.582421,-6.9973 -1.028202,-6.39404 0.854189,-9.15274 5.73472,-3.08995 -2.77334,-7.36285 -2.519688,-5.90571 L 5.679237,568.21093 0,564.22682 l 2.668136,-6.40645 6.089793,-3.9e-4 5.896398,-4.56515 6.12504,-4.29228 3.600561,-6.94108 -6.533292,-4.06902 4.247798,-7.83993 3.175057,-5.50273 4.691434,-4.77744 -0.458937,-7.59265 0.460317,-7.68428 -4.320479,-9.98627 -4.298128,-7.70627 -5.416902,-6.85109 0.166002,-6.68701 -5.660622,-3.57204 3.60748,-10.10903 8.195301,-2.21511 7.82047,-3.55888 8.424196,2.08763 5.287061,4.1504 8.810227,-2.04855 6.605204,-3.47612 6.122314,-2.12756 7.306817,0.80815 8.839107,-11.10569 -6.225793,-6.40145 -4.034373,-5.53688 5.140153,-5.91637 8.9723,-1.53861 5.228131,-5.9142 4.310559,-5.85143 3.508962,-6.73334 2.208008,-6.71326 0.90038,-8.46829 -8.485153,-5.90669 -8.135172,-2.75873 -6.40996,-0.13193 -5.391249,-3.59501 -1.224159,-8.56202 3.5401,-10.72861 6.302526,-1.23249 7.596223,-0.01 6.971155,1.12589 5.963569,-5.58715 0.75797,-6.79187 0.7273,-9.56802 3.32347,-7.4182 4.02256,-6.3687 3.81109,-9.6159 -0.39934,-11.40623 -1.20796,-6.07373 3.21708,-9.78765 1.19577,-6.9254 1.55029,-9.06732 -6.00301,-0.80934 -9.0815,-0.63903 -3.26893,-8.00461 1.94368,-11.24465 5.63462,-1.97791 1.35439,-7.1253 1.48565,-5.99058 7.04523,-7.11799 8.66283,-3.07201 11.11134,0.85064 9.64157,-0.34976 8.78708,-1.38252 9.55759,-1.4772 8.90314,-0.37355 9.06063,8.92111 4.15715,7.97004 0.96742,6.98372 -6.33442,3.2948 0.49468,6.02209 6.06075,1.78624 6.06879,6.34294 5.05651,-5.93894 1.51531,-8.00117 -7.11373,-3.09106 1.16119,-7.21912 7.38214,-3.58182 3.7627,4.46626 7.9765,3.34205 5.19138,3.66333 -5.3931,6.34298 -0.11025,6.5061 1.72171,6.50402 -0.52612,-8.89342 5.05309,-8.74989 -1.10319,-7.40128 -3.46381,-8.45087 -0.82754,-8.77263 2.72278,-7.03443 2.09611,-7.50143 2.77926,-5.88967 7.05086,-3.59838 4.25691,4.71686 6.38301,2.80057 9.13259,-0.19139 6.11625,-0.0781 9.1141,-3.47661 6.23885,-0.22193 6.63815,3.16225 5.35321,9.51293 5.30354,6.97677 5.68847,9.48433 3.98232,5.06342 5.94913,3.52524 7.25059,2.50032 7.19335,-0.49015 -6.15949,-1.4606 -8.06175,-3.02801 -7.16811,-4.24363 -1.30473,-8.61982 -4.57767,-4.90357 -5.43063,-7.94739 -2.8712,-5.64974 -5.79675,-4.61553 -9.91,-2.40469 -8.73234,-1.30452 -6.30221,0.36799 -5.43697,-6.70516 -3.84115,-8.66722 6.11086,-2.82884 5.90448,1.03993 -0.15411,-8.5236 -2.22684,-6.39825 -7.80644,2.27316 -4.02442,-5.53671 1.29494,-9.54279 6.72429,-3.60781 2.03347,-6.00232 -7.30053,1.5218 -11.13195,1.93309 -9.76665,-4.14524 7.63904,-4.49704 3.46234,-7.01981 7.04477,-0.58054 7.95486,-2.35721 6.09769,-4.39573 -8.4923,0.62547 -5.60452,-3.07082 3.50322,-5.48059 7.98062,-0.31561 -8.68981,-9.34567 -2.68843,-6.706062 -5.07385,-4.946446 -6.4044,3.822815 -6.00049,3.154833 5.1675,-2.944445 4.02723,-4.369319 -0.0353,-6.475611 -2.19793,-6.306238 -5.20745,-6.33984 -7.69675,-5.02819 -8.02753,3.8303 -9.07635,9.118636 0.83629,-14.696561 5.17361,-13.550165 z"
           id="path3960"
           style="fill:none;stroke:#65b32e;stroke-width:8;stroke-linecap:round;stroke-miterlimit:4;stroke-opacity:1;stroke-dasharray:none" />
        <g
           id="g3962">
          <path
             d="m 682.04039,575.31794 -4.2021,-6.45307 -7.95915,-0.69714 -7.36225,-3.23741 -8.18736,-1.13394 -5.01821,-7.9481 -6.1464,-4.37305 -11.44867,-3.98057 -7.27731,-2.38208 -6.10698,-5.89969 -5.98287,-4.86942 -0.5264,-7.96368 -6.39354,-4.29086 -5.09846,-5.00021 -2.58655,-5.79162 -4.39341,-5.47879 -1.1272,-6.88273 -6.25654,-0.44535 -4.56882,-4.40523 -2.72593,-6.32436 -4.07858,-4.71778 -6.31694,-2.88068 -4.87435,-4.21818 -3.30006,-7.06633 -2.28458,-12.20379 -7.30229,-2.61121 -7.53881,-0.24479 -6.3688,-0.9724 -9.01276,0.52359 -10.57669,-0.11874 -11.48181,0.80434 -9.21072,-0.3227 -6.57444,-7.46338 -4.42558,-8.17705 -6.61975,-1.46889 -9.3935,-4.314 -4.28777,-9.98456 2.85666,-6.37602 1.84076,-9.08048 5.00672,-9.21635 8.61602,-4.49053 4.03954,-6.435 4.36833,-8.37487 -2.51045,-9.23789 1.94777,-11.0172 1.04773,-10.43899 0.14474,-10.06879 -1.00633,-10.35741 -9.33098,-4.41231 -5.57985,-5.4216 -6.54549,-6.10517 -7.61352,-2.8398 -7.52724,-3.72227 -6.51768,-2.4229 -8.29466,-0.049 -7.71915,-3.40775 -5.20554,-6.76276 -5.47119,-2.94158 -6.27906,3.03384 -7.66732,-6.51955 -8.90774,-6.61364 -7.2301,-5.11976 -3.12937,-8.15518 -9.31972,-1.38615 -10.48551,-1.68347 -10.66963,-6.14297 -5.85321,1.82136 -8.50204,1.48281 -4.88548,-4.92931 -27.69318,-14.48801 -7.95306,-2.23627 -5.58151,-4.24453 -2.82714,-5.16486 -2.66898,-6.43617 -5.05901,-5.11148 -3.29959,-5.9702 -2.68589,-5.48576 -8.26976,-5.39582 -6.75704,-0.69242 -7.3153,1.25863 -7.01568,2.09632 -12.94581,0.0338 -7.04973,-6.47904"
             id="path3964"
             style="fill:none;stroke:#2c63b1;stroke-width:15;stroke-linecap:round;stroke-miterlimit:4;stroke-opacity:1;stroke-dasharray:none" />
        </g>
      </g>
    </g>
  </g>
</svg>
