<?xml version="1.0" encoding="UTF-8" standalone="no"?>
<!-- Created with Inkscape (http://www.inkscape.org/) -->

<svg
   id="svg2910"
   width="24"
   height="24"
   version="1.1"
   sodipodi:docname="opendata.svg"
   xml:space="preserve"
   inkscape:version="1.2.1 (9c6d41e410, 2022-07-14)"
   xmlns:inkscape="http://www.inkscape.org/namespaces/inkscape"
   xmlns:sodipodi="http://sodipodi.sourceforge.net/DTD/sodipodi-0.dtd"
   xmlns="http://www.w3.org/2000/svg"
   xmlns:svg="http://www.w3.org/2000/svg"
   xmlns:rdf="http://www.w3.org/1999/02/22-rdf-syntax-ns#"
   xmlns:cc="http://creativecommons.org/ns#"
   xmlns:dc="http://purl.org/dc/elements/1.1/"><defs
     id="defs230"><inkscape:path-effect
       effect="powerclip"
       id="path-effect2422"
       is_visible="true"
       lpeversion="1"
       inverse="true"
       flatten="false"
       hide_clip="false"
       message="F端llregel Gerade-Ungerade im &lt;b&gt;F端llung und Kontur&lt;/b&gt;-Dialog verwenden, wenn das Anwenden des Ausschnitts mit nachfolgendem Umwandeln in Pfade kein Ergebnis bringt" /><inkscape:path-effect
       effect="powerclip"
       id="path-effect2147"
       is_visible="true"
       lpeversion="1"
       inverse="true"
       flatten="false"
       hide_clip="false"
       message="F端llregel Gerade-Ungerade im &lt;b&gt;F端llung und Kontur&lt;/b&gt;-Dialog verwenden, wenn das Anwenden des Ausschnitts mit nachfolgendem Umwandeln in Pfade kein Ergebnis bringt" /><clipPath
       clipPathUnits="userSpaceOnUse"
       id="clipPath2143"><rect
         style="display:block;fill:#ff00ff;fill-opacity:1;fill-rule:evenodd;stroke-width:2.51339;stroke-linecap:square;paint-order:markers fill stroke"
         id="rect2145"
         width="3.01267"
         height="1.6139309"
         x="38.378853"
         y="7.9763551" /></clipPath><clipPath
       clipPathUnits="userSpaceOnUse"
       id="clipPath2418"><path
         style="display:none;fill:none;stroke:#000000;stroke-width:0.0377953;stroke-linecap:butt;stroke-linejoin:miter;stroke-dasharray:none;stroke-opacity:1"
         d="m 14.58084,16.218391 c -0.707255,-0.148782 -1.471707,-1.191987 -1.445825,-2.549286 -0.003,-1.315338 1.167703,-2.122383 2.283001,-2.131256 1.768435,-0.06469 2.428693,1.293398 2.43572,2.435025 0.01988,1.483197 -0.986217,2.166235 -1.363323,2.236091 l 0.0153,2.845056 c 0.01905,0.476686 -0.339845,0.600176 -0.583627,0.588732 l -0.890904,-0.0019 c -0.178581,-0.09686 -0.445857,-0.09085 -0.438653,-0.607008 z"
         id="path2420"
         sodipodi:nodetypes="cccccccccc" /><path
         id="lpe_path-effect2422"
         style="fill:none;stroke:#000000;stroke-width:0.0377953;stroke-linecap:butt;stroke-linejoin:miter;stroke-dasharray:none;stroke-opacity:1"
         class="powerclip"
         d="M 2.1154027,2.4383774 H 29.000445 V 29.000001 H 2.1154027 Z M 14.58084,16.218391 l 0.01169,2.815454 c -0.0072,0.516158 0.260072,0.510148 0.438653,0.607008 l 0.890904,0.0019 c 0.243782,0.01144 0.602677,-0.112046 0.583627,-0.588732 l -0.0153,-2.845056 c 0.377106,-0.06986 1.383203,-0.752894 1.363323,-2.236091 -0.007,-1.141627 -0.667285,-2.499715 -2.43572,-2.435025 -1.115298,0.0089 -2.286001,0.815918 -2.283001,2.131256 -0.02588,1.357299 0.73857,2.400504 1.445825,2.549286 z" /></clipPath></defs><sodipodi:namedview
     id="namedview228"
     pagecolor="#ffffff"
     bordercolor="#666666"
     borderopacity="1.0"
     inkscape:showpageshadow="2"
     inkscape:pageopacity="0.0"
     inkscape:pagecheckerboard="0"
     inkscape:deskcolor="#d1d1d1"
     showgrid="false"
     showguides="true"
     inkscape:zoom="27.797235"
     inkscape:cx="12.753067"
     inkscape:cy="11.439987"
     inkscape:window-width="1849"
     inkscape:window-height="957"
     inkscape:window-x="1923"
     inkscape:window-y="49"
     inkscape:window-maximized="0"
     inkscape:current-layer="layer2"><sodipodi:guide
       position="7.896861,17.071749"
       orientation="0,-1"
       id="guide2333"
       inkscape:locked="false" /></sodipodi:namedview><metadata
     id="metadata2916"><rdf:RDF><cc:Work
         rdf:about=""><dc:format>image/svg+xml</dc:format><dc:type
           rdf:resource="http://purl.org/dc/dcmitype/StillImage" /></cc:Work></rdf:RDF></metadata><g
     inkscape:groupmode="layer"
     id="layer2"
     inkscape:label="Icon"><path
       id="rect461"
       style="fill:#0077b6;fill-opacity:1;fill-rule:evenodd;stroke:#000000;stroke-width:0;stroke-linecap:square;stroke-dasharray:none;stroke-opacity:1;paint-order:markers fill stroke"
       d="m 8.451476,7.4383779 h 14.171788 c 1.166492,0.0136 1.357784,0.5670592 1.376735,1.5817066 V 22.730224 C 24.018363,23.59878 23.467138,23.993226 22.595738,24 H 8.5306646 C 7.4690709,24.000339 7.1087947,23.424275 7.1154947,22.548587 V 8.8011881 C 7.1225725,7.8358019 7.6690195,7.4835345 8.451476,7.4383779 Z"
       sodipodi:nodetypes="ccccccccc"
       clip-path="url(#clipPath2418)"
       inkscape:path-effect="#path-effect2422"
       inkscape:original-d="m 8.451476,7.4383779 h 14.171788 c 1.166492,0.0136 1.357784,0.5670592 1.376735,1.5817066 V 22.730224 C 24.018363,23.59878 23.467138,23.993226 22.595738,24 H 8.5306646 C 7.4690709,24.000339 7.1087947,23.424275 7.1154947,22.548587 V 8.8011881 C 7.1225725,7.8358019 7.6690195,7.4835345 8.451476,7.4383779 Z" /><path
       style="fill:#0077b6;fill-opacity:1;stroke:#000000;stroke-width:0;stroke-linecap:butt;stroke-linejoin:miter;stroke-dasharray:none;stroke-opacity:1"
       d="M 9.9662081,6.9399838 11.89071,6.9271738 C 11.903194,1.9451538 8.9611628,0.20557774 5.9166565,0.20598586 2.2650003,0.23986916 0.17874938,3.4287392 0.17305848,6.1465665 0.14030121,6.6148947 0.78625784,6.9305183 1.1961993,6.8993385 1.4406691,6.9065615 2.1329068,6.5951189 2.1641621,6.2539632 2.121228,3.1950388 4.7604685,2.0852131 5.9166565,2.0889055 8.3374809,1.9939499 9.9401644,4.0921869 9.9662081,6.9399838 Z"
       id="path2331"
       sodipodi:nodetypes="cccccccc" /></g></svg>
