<svg xmlns="http://www.w3.org/2000/svg" width="844" height="210" viewBox="0 0 844 210" opacity="0.1"><defs><clipPath id="b"><path fill="none" d="M0 0h844v210H0z"/></clipPath><clipPath id="c"><path fill="none" d="M0 0h700.812v360H0z"/></clipPath><clipPath id="a"><path d="M0 0h844v210H0z"/></clipPath></defs><g clip-path="url(#a)"><path fill="rgba(255,255,255,0)" d="M0 0h844v210H0z"/><path data-name="Mask" fill="none" d="M0 0h844v210H0z"/><g data-name="footer-wappen" clip-path="url(#b)"><path fill="none" d="M49.364 43h700.812v360H49.364z"/><path data-name="Rectangle" fill="none" d="M49.364 43h700.812v360H49.364z"/><g data-name="Clipped" clip-path="url(#c)" transform="translate(49.364 43)"><path fill="none" d="M0 0h701.553v362.6H0z"/><g data-name="Group" fill="#bf0044"><path d="M563.158 77.261c3.683-16.655 7.041-31.807 10.767-48.633l18.9 49.077 18.884-49.051c3.733 16.84 7.093 32 10.867 49.018 5.024-9.138 9.151-16.592 13.227-24.076 4.04-7.419 7.952-14.909 12.106-22.262.77-1.365 2.41-3.165 3.67-3.184 15.817-.217 31.637-.143 48.316-.143 0 13.423.137 26.264-.2 39.093-.035 1.374-2.594 3.2-4.348 3.932-16.654 6.977-33.388 13.756-50.092 20.614-1.788.734-3.517 1.615-6.46 2.976l60.233 26.647-62.152 21.577c19.856 10.324 38.249 19.89 58.212 30.272l-62.9 15.726 53.934 35.675-61.981 6.85c15.357 14.416 29.6 27.784 45.016 42.258h-60.1l31.593 44.019c-15.222 11.873-30.236 23.653-45.39 35.25-1.041.8-3.658.932-4.636.184-15.151-11.581-30.153-23.359-45.636-35.439l31.123-43.31h-57.825l-.82-1.59 43.993-41.356-61.9-6.869 53.842-35.666-62.878-15.722 58.211-30.259-62.134-21.613 60.115-26.561c-2.917-1.4-4.688-2.349-6.537-3.11-16.697-6.869-33.447-13.616-50.061-20.676-1.92-.816-4.371-3.308-4.436-5.1-.394-11.072-.201-22.167-.127-33.253a29.005 29.005 0 0 1 .822-4.56c15.78 0 31.412-.133 47.035.192 1.685.035 3.866 2.419 4.885 4.238 7.171 12.811 14.091 25.765 21.117 38.658.912 1.673 1.973 3.265 3.745 6.176M378.333 355.627c0-2.074 0-3.978-.008-5.657-.009-3.723-.016-6.939.022-10.152.027-2.294.058-4.894-1.365-6.333a4.956 4.956 0 0 0-3.7-1.222c-.267 0-.55.01-.841.031l.289-3.264.049-.553c.36-4.064.715-8.088 1.143-12.91l-12.685 9.574-1.9-2.2-2.065-2.384-4.9 2.615-2.317 1.237-7.472 3.99-.743-.368-.027-.013-.52-.258c.6-1.337 1.129-2.763 1.643-4.142 1.171-3.142 2.38-6.388 4.461-8.811 2.117-2.464 5.136-4.248 8.333-6.136 1.526-.9 3.1-1.832 4.7-2.9-1.838-.736-3.573-1.423-5.251-2.087-3.43-1.358-6.669-2.641-9.849-3.969-25.615-10.7-51.52-21.563-74.376-31.146h-.007c-.688-.288-1.37-.619-2.03-.938a45.872 45.872 0 0 0-1.793-.837c-3.509-1.519-7.026-3.3-8.985-5.993-2.135-2.939-2.208-6.68-.222-11.436-1.006 0-1.9-.03-2.759-.059-.726-.024-1.409-.047-2.055-.047a15.407 15.407 0 0 0-2.339.151 37.792 37.792 0 0 1-5.656.432c-7.187 0-14.369-2.12-21.954-6.483-6.622-3.809-13.41-7.586-19.974-11.239-10-5.567-20.347-11.323-30.326-17.312-4.565-2.74-8.714-4.072-12.684-4.072-4.734 0-9.181 1.9-13.595 5.813-5.642 5-11.387 10.073-16.943 14.979l-.1.092c-14.249 12.583-28.984 25.595-43.337 38.555-7.734 6.982-15.173 14.127-23.048 21.692l-.01.009c-3.57 3.429-7.261 6.975-11.031 10.552 2.291.885 4.477 1.807 6.592 2.7a87.512 87.512 0 0 0 13.156 4.761c5.558 1.35 9.634 4.082 12.46 8.353 2.776 4.194 4.061 9.434 4.951 14.006a7.976 7.976 0 0 1-1.036.067c-2.522 0-4.9-1.19-7.2-2.341l-.019-.01c-2.308-1.156-4.694-2.351-7.243-2.351a9.132 9.132 0 0 0-5.529 2.005l-4.139-2.883-9.056-6.307c5.247 5.474 8.285 10.71 9.288 16 1.138 6.006-.279 12.178-4.332 18.869-.761-1.194-1.456-2.305-2.129-3.38-1.443-2.3-2.687-4.294-4.046-6.255a24.7 24.7 0 0 1-1.369-2.331c-1.4-2.6-2.857-5.3-6.905-5.4-.87-.021-1.831-2.213-2.533-3.814l-.2-.456c-1.181-2.663-2.294-5.418-3.583-8.609l-.012-.024c-.582-1.44-1.183-2.929-1.863-4.589-.269 2.577-.411 5-.548 7.339-.294 5.016-.547 9.348-1.925 13.368a20.336 20.336 0 0 1-14.228 13.522c.094-1.224.151-2.36.206-3.457v-.01a43.654 43.654 0 0 1 .6-6.245c.733-3.719 1.114-7.619-2.878-10.839a3.389 3.389 0 0 1-.813-2.328 7.611 7.611 0 0 1 .338-2.9c1.384-3.791 2.993-7.457 4.7-11.338l.005-.012c.647-1.474 1.316-3 1.977-4.541H1.291c-.392-2.731.9-6.365 3.46-9.721 2.831-3.715 6.5-6.184 9.811-6.6.119-.015.241-.034.36-.051h.009a6.652 6.652 0 0 1 .968-.1 2.339 2.339 0 0 1 .462.042 22.564 22.564 0 0 0 4.387.471c8.611 0 12.221-6.606 14.84-13.745 3.578-9.756 7.944-19.4 12.166-28.735 2.464-5.445 5.011-11.075 7.377-16.671a14.941 14.941 0 0 1 3.564-5.459 7.731 7.731 0 0 1 5.372-2 12.727 12.727 0 0 1 2.952.379 9.418 9.418 0 0 0 2.179.286c2.643 0 4.413-1.5 5.92-5.011 4.5-10.5 9.24-21.1 13.823-31.354l.008-.017c2.028-4.538 4.126-9.231 6.181-13.867.48-1.083.9-2.22 1.353-3.424.229-.614.465-1.249.728-1.927-3.839-.531-7.692-1.033-11.419-1.518h-.024c-8.7-1.132-16.926-2.2-25.257-3.653a63.892 63.892 0 0 1-17.463-5.413 42.52 42.52 0 0 1-14.4-11.3 34.864 34.864 0 0 1-7.134-14.347 33.711 33.711 0 0 1-.029-15.092 32.866 32.866 0 0 1 2.406-6.868 32.433 32.433 0 0 1 3.916-6.219 33.15 33.15 0 0 1 12.163-9.419c6.457-2.968 13.8-4.271 20.907-5.531l.03-.005c.9-.16 1.84-.326 2.754-.493 4.081-.742 6.54-1.742 8.66-5.146 2.544-4.088 5.353-8.1 8.069-11.988 2.5-3.571 5.079-7.264 7.449-11a24.851 24.851 0 0 1 9.207-8.968 24.539 24.539 0 0 1 11.891-2.729 47.153 47.153 0 0 1 9.532 1.078c-13.617 6.369-16.691 18.164-19.663 29.564-.666 2.556-1.355 5.2-2.152 7.744a42.806 42.806 0 0 0 9.131 1.405c4.953 0 7.452-2.29 12.008-8.74 1.528-2.163 3.207-4.274 4.83-6.315 1.581-1.987 3.214-4.04 4.707-6.14a15.916 15.916 0 0 1 6.589-5.582 20 20 0 0 1 8.2-1.5 58.75 58.75 0 0 1 8.3.721c-11.234 6.3-14.119 16.13-16.3 26.5.553.083 1.062.178 1.554.27h.006a15.085 15.085 0 0 0 2.713.348c3.372.011 6.774.032 10.064.052h.024c4.861.029 9.887.06 14.83.06 5.878 0 10.792-.042 15.465-.131 9.2-.177 15.815-2.477 20.218-7.032 4.385-4.536 6.521-11.251 6.53-20.527.01-11-2.76-19.653-8.469-26.449-5.1-6.066-11.126-9.014-18.435-9.014h-.426c-2.224.035-4.635.052-7.37.052s-5.514-.017-8.2-.033h-.011c-2.693-.016-5.478-.033-8.218-.033-5.075 0-9.193.061-12.962.191-.28.01-.561.015-.838.015a17.116 17.116 0 0 1-7.863-1.724 14.715 14.715 0 0 1-5.694-5.293c-3.329-5.2-6.367-10.713-9.3-16.043-1.253-2.263-2.545-4.602-3.846-6.902h2.412c2.23.642 4.488 1.419 6.672 2.169 4.854 1.668 9.871 3.393 14.9 3.764 6.661.49 13.5.739 20.316.739 6.421 0 12.955-.22 19.42-.655.888-.06 1.77-.09 2.622-.09a27.4 27.4 0 0 1 15.795 4.526c4.176 2.806 7.739 6.9 10.893 12.519 1.9 3.392 3.524 6.866 5.091 10.225.673 1.443 1.308 2.8 1.943 4.111a426.424 426.424 0 0 0 3.942-6.541v-.006c2.986-5.021 6.073-10.213 9.573-15.022 4.655-6.4 11.2-9.642 19.452-9.642.29 0 .585 0 .879.012l1.605.044c6.919.189 14.074.384 21.108.384 7.012 0 13.175-.2 18.842-.6 5.463-.389 10.924-2.108 16.2-3.772 2.388-.749 4.844-1.523 7.266-2.165h1.206a53.034 53.034 0 0 1-15.988 26.407 15.305 15.305 0 0 1-9.191 3.269c-7.523.231-14.1.343-20.1.343-5.71 0-10.96-.1-16.052-.3a36.054 36.054 0 0 0-1.387-.028c-10.964 0-18.871 5.289-22.865 15.3-3.406 8.537-4.728 18.36-5.79 26.252a59.508 59.508 0 0 1-4.56 16.757 35.986 35.986 0 0 1-8.619 11.973 35.176 35.176 0 0 1-12.815 7.2 56.844 56.844 0 0 1-17.149 2.446c-9.571.035-19.788.051-33.13.051-5.768 0-11.768 0-17.061-.005h-1.234c-5.6 0-11.383-.006-17.073-.006-10.278 0-23.838.008-37.584.07a107.318 107.318 0 0 0-19.735 1.695c-9.312 1.784-14.534 7.189-15.52 16.063a17.45 17.45 0 0 0 11.364 18.751 105.974 105.974 0 0 0 24.983 5.948c33.691 4.01 67.98 7.805 101.139 11.476h.046c9 1 18.3 2.026 27.447 3.044 2.7.3 5.453.354 7.82.38h.416c7.891 0 11.316-2.6 13.574-10.3.652-2.22 1.257-4.486 1.843-6.677l.005-.02c.266-.994.54-2.021.814-3.024-1.5-.21-2.963-.382-4.381-.549a70.916 70.916 0 0 1-9.6-1.566c-2.113-.551-3.8-2.7-5.356-4.853 11.912-1.661 19.771-5.848 25.483-13.577a50.762 50.762 0 0 0-5.378-.648c-5.927-.5-11.525-.973-14.453-8.062a37.216 37.216 0 0 1 2.31-.053h.835a16.159 16.159 0 0 0 5.07-.561c9.025-3.005 17.367-6.733 20.278-19.179 2.665-11.4 1.632-21.543.118-30.8-.278-1.7-.465-3.4-.664-5.213v-.022c-.094-.859-.192-1.747-.3-2.663 5.608 1 9.7 2.371 12.893 4.3a17.157 17.157 0 0 1 7.725 9.65c8.608-1.783 18.732-3.606 28.551-3.606a66.008 66.008 0 0 1 16.565 1.973 57.332 57.332 0 0 1 16.178 6.918c4.029 2.494 8.866 3.836 13.544 5.133.923.256 1.878.521 2.809.79 3.54 1.023 4.727 2.71 4.536 6.447a78.343 78.343 0 0 1-1.566 13.711c-.861 3.611-2.131 6.137-4 7.95s-4.409 2.984-7.992 3.68a73.733 73.733 0 0 1-13.546.9h-.312c-1.313 0-2.684-.005-3.893-.01h-.033c-1.189 0-2.537-.01-3.827-.01-3.327 0-7.262.029-11.216.245-4.763.261-9.547 1.1-11.149 8.114h16.229c2.541 0 5.123.011 7.619.022h.036c2.545.011 5.177.023 7.769.023 3.935 0 7.173-.027 10.19-.084 11.136-.215 17.153-4.838 20.118-15.458l.079-.283c.756-2.718 1.471-5.285 4.279-5.285a5.946 5.946 0 0 1 1.239.143 3.594 3.594 0 0 1 3.157 2.871 12.148 12.148 0 0 1-.328 4.408l-.027.137c-2.638 13.568-12.94 22.031-26.886 22.085-8.181.033-16.5.048-24.537.062-5.773.01-11.742.02-17.652.037a2.685 2.685 0 0 0-.821.2 14.7 14.7 0 0 1-.736.232v7.967h44.506c-3.42 12.6-13.038 13.745-23.22 14.955l-.679.081c.3.438.557.866.781 1.244a5.515 5.515 0 0 0 1.336 1.735 58.8 58.8 0 0 1 9.312 8.25 55.466 55.466 0 0 1 6.989 9.6 68.317 68.317 0 0 1 7.914 23.012c.132.774.263 1.563.391 2.327l.007.042c1.8 10.788 3.659 21.944 11.923 31.5l-13.695 3.847-.077.022-7.736 2.174c.361.381.689.752 1.007 1.112a14.978 14.978 0 0 0 1.907 1.922q4.343 3.4 8.683 6.806c15.668 12.286 31.87 24.991 47.976 37.268a9.668 9.668 0 0 0 5.569 1.565 9.523 9.523 0 0 0 2.345-.273 91.953 91.953 0 0 0 10.89-3.828 205.08 205.08 0 0 1 4.926-1.918 23.008 23.008 0 0 1 7.976-1.486 20.95 20.95 0 0 1 9.689 2.4 29.023 29.023 0 0 1 8.72 7.169c-.912.087-1.787.165-2.633.24-1.824.162-3.545.314-5.252.531-.522.066-1.057.119-1.575.169a13.272 13.272 0 0 0-5.261 1.22c-1.645.952-2.531 2.654-2.711 5.206-.064.919-2.479 2.135-4.022 2.442-.868.172-1.733.28-2.648.4a23.016 23.016 0 0 0-6.012 1.34c1.034.471 2.072 1.009 3.075 1.529a30.542 30.542 0 0 0 6.831 2.869c5.874 1.382 9.928 4.182 12.4 8.561 2.082 3.694 3.083 8.556 3.152 15.3-.751-.332-1.479-.646-2.182-.95-1.5-.65-2.924-1.264-4.314-1.933l-.05-.024c-3.406-1.638-5.282-2.541-6.933-2.541-2.01 0-3.7 1.341-7.4 4.279l-14.846-12.885-1.772-1.539-.648-.563c1.086 8.187.758 14.7-1.029 20.506-2 6.48-5.875 12.046-11.858 17.015zM286.956 99.854c2.007 3.579 5.067 5.55 8.616 5.55a11.366 11.366 0 0 0 3.024-.432c5.127-1.419 7.656-5.413 7.514-11.872.568.248 1.092.51 1.6.763a10.509 10.509 0 0 0 3.081 1.179 3.936 3.936 0 0 0 .566.039 10.149 10.149 0 0 0 2.351-.391c.429-.106.872-.215 1.3-.29a13.063 13.063 0 0 1-.428-1.348 4.756 4.756 0 0 0-1.219-2.512c-5.239-4.012-10.212-6.046-14.78-6.046-6.1 0-11.74 3.633-16.776 10.8a13.7 13.7 0 0 0-1.757 5.169c-.171.851-.348 1.73-.585 2.552l7.487-3.158z"/><path data-name="Path" d="M380.414 78.589l5.952.8v18.44l1.541.32q4.267-10.421 8.537-20.837c4.166-10.136 10.669-14.26 22.488-13.876-2.511 3.7-4.848 7.147-7.354 10.844l5.287 6.756-14.241 17.187c14.377-2.106 28.939-6.5 32.6 14.17-3.142-.392-5.783-.815-8.441-1.031-3.242-.263-6.515-1.582-9.15 2.308-.853 1.259-4.39.791-6.71.921-2.341.133-4.694.029-7.624.029.54 4.89-.2 10.341 1.951 14.133 2.036 3.582 7.121 5.419 11.044 8.149-2.706 9.231-7.936 11.32-16.376 5.974-2.356-1.493-4.761-2.91-7.946-4.851l-48.311 75.787c-1.527-6.757-2.4-12.568-4.193-18.08a173.237 173.237 0 0 0-8.5-21.734c-1.5-3.1-1.413-4.8.612-7.362 14.335-18.145 28.418-36.485 42.844-54.55 2.613-3.271 2.84-5.714.633-9.043-1.991-3-3.548-6.3-5.3-9.464-5.156-9.318-1.109-22.2 8.89-27.7.58 4.176 1.15 8.279 1.767 12.707m-77.102 16.322c-3.515 2.549-5.492 5.082-7.149 4.887-1.806-.213-4.188-2.751-4.633-4.669-.27-1.163 2.554-4.202 4.172-4.349 1.832-.166 3.87 1.962 7.61 4.131"/></g></g></g></g></svg>