<?xml version="1.0" encoding="utf-8"?>
<!-- Generator: Adobe Illustrator 16.0.3, SVG Export Plug-In . SVG Version: 6.00 Build 0)  -->
<!DOCTYPE svg PUBLIC "-//W3C//DTD SVG 1.1//EN" "http://www.w3.org/Graphics/SVG/1.1/DTD/svg11.dtd" [
	<!ENTITY ns_extend "http://ns.adobe.com/Extensibility/1.0/">
	<!ENTITY ns_ai "http://ns.adobe.com/AdobeIllustrator/10.0/">
	<!ENTITY ns_graphs "http://ns.adobe.com/Graphs/1.0/">
	<!ENTITY ns_vars "http://ns.adobe.com/Variables/1.0/">
	<!ENTITY ns_imrep "http://ns.adobe.com/ImageReplacement/1.0/">
	<!ENTITY ns_sfw "http://ns.adobe.com/SaveForWeb/1.0/">
	<!ENTITY ns_custom "http://ns.adobe.com/GenericCustomNamespace/1.0/">
	<!ENTITY ns_adobe_xpath "http://ns.adobe.com/XPath/1.0/">
]>
<svg version="1.1" xmlns:x="&ns_extend;" xmlns:i="&ns_ai;" xmlns:graph="&ns_graphs;"
	 xmlns="http://www.w3.org/2000/svg" xmlns:xlink="http://www.w3.org/1999/xlink" x="0px" y="0px" width="263.819px"
	 height="65.811px" viewBox="0 0 263.819 65.811" enable-background="new 0 0 263.819 65.811" xml:space="preserve">
<metadata><?xpacket begin="﻿" id="W5M0MpCehiHzreSzNTczkc9d"?>
<x:xmpmeta xmlns:x="adobe:ns:meta/" x:xmptk="Adobe XMP Core 5.3-c011 66.145661, 2012/02/06-14:56:27        ">
   <rdf:RDF xmlns:rdf="http://www.w3.org/1999/02/22-rdf-syntax-ns#">
      <rdf:Description rdf:about=""
            xmlns:dc="http://purl.org/dc/elements/1.1/">
         <dc:format>image/svg+xml</dc:format>
         <dc:title>
            <rdf:Alt>
               <rdf:li xml:lang="x-default">HMDK_Footer_Logo_HH</rdf:li>
            </rdf:Alt>
         </dc:title>
      </rdf:Description>
      <rdf:Description rdf:about=""
            xmlns:xmp="http://ns.adobe.com/xap/1.0/"
            xmlns:xmpGImg="http://ns.adobe.com/xap/1.0/g/img/">
         <xmp:CreatorTool>Adobe Illustrator CS6 (Windows)</xmp:CreatorTool>
         <xmp:CreateDate>2017-01-30T09:17:02+01:00</xmp:CreateDate>
         <xmp:ModifyDate>2017-01-30T09:17:02+01:00</xmp:ModifyDate>
         <xmp:MetadataDate>2017-01-30T09:17:02+01:00</xmp:MetadataDate>
         <xmp:Thumbnails>
            <rdf:Alt>
               <rdf:li rdf:parseType="Resource">
                  <xmpGImg:width>256</xmpGImg:width>
                  <xmpGImg:height>64</xmpGImg:height>
                  <xmpGImg:format>JPEG</xmpGImg:format>
                  <xmpGImg:image>/9j/4AAQSkZJRgABAgEASABIAAD/7QAsUGhvdG9zaG9wIDMuMAA4QklNA+0AAAAAABAASAAAAAEA&#xA;AQBIAAAAAQAB/+4ADkFkb2JlAGTAAAAAAf/bAIQABgQEBAUEBgUFBgkGBQYJCwgGBggLDAoKCwoK&#xA;DBAMDAwMDAwQDA4PEA8ODBMTFBQTExwbGxscHx8fHx8fHx8fHwEHBwcNDA0YEBAYGhURFRofHx8f&#xA;Hx8fHx8fHx8fHx8fHx8fHx8fHx8fHx8fHx8fHx8fHx8fHx8fHx8fHx8fHx8f/8AAEQgAQAEAAwER&#xA;AAIRAQMRAf/EAaIAAAAHAQEBAQEAAAAAAAAAAAQFAwIGAQAHCAkKCwEAAgIDAQEBAQEAAAAAAAAA&#xA;AQACAwQFBgcICQoLEAACAQMDAgQCBgcDBAIGAnMBAgMRBAAFIRIxQVEGE2EicYEUMpGhBxWxQiPB&#xA;UtHhMxZi8CRygvElQzRTkqKyY3PCNUQnk6OzNhdUZHTD0uIIJoMJChgZhJRFRqS0VtNVKBry4/PE&#xA;1OT0ZXWFlaW1xdXl9WZ2hpamtsbW5vY3R1dnd4eXp7fH1+f3OEhYaHiImKi4yNjo+Ck5SVlpeYmZ&#xA;qbnJ2en5KjpKWmp6ipqqusra6voRAAICAQIDBQUEBQYECAMDbQEAAhEDBCESMUEFURNhIgZxgZEy&#xA;obHwFMHR4SNCFVJicvEzJDRDghaSUyWiY7LCB3PSNeJEgxdUkwgJChgZJjZFGidkdFU38qOzwygp&#xA;0+PzhJSktMTU5PRldYWVpbXF1eX1RlZmdoaWprbG1ub2R1dnd4eXp7fH1+f3OEhYaHiImKi4yNjo&#xA;+DlJWWl5iZmpucnZ6fkqOkpaanqKmqq6ytrq+v/aAAwDAQACEQMRAD8A9U4q7FXYqtkkSONpHNEQ&#xA;FmPgAKnpimIJNB4l5m/NS4v/AMtdckhmtdUmkuzZGW0S6t44LW55GIyesIXZyEYDht05d66rLqic&#xA;UuR3rryfQdB7PRx9oYgRLGBDiqRhIylHnXDxCtxz866K+g/mw1h5H8qzXk9tpPqTNBP9ajurgXFl&#xA;aH03kgMPrMrV+H94ftA/s5LHq6xxvb58g1az2cGTWZxASyULHCYR4Zy3AlxcIrr6enm9ozZvBOxV&#xA;2KuxV2KuxV2KuxV2KuxV2KuxV2KuxV2KuxV2KuxV2KuxV2KuxV2KuxV2KuxV2KuxV2KoDX57iDRL&#xA;6a2iWeaOB2WJ39JTRd6vxelBv0yGQkRNOTo4RlmiJGgZDpf2bPkiy1KztfKmp6B9ctX/AEjPb3H1&#xA;mt0OH1fn8PD6ueXLn15Cmc7GQEDGxv7/ANT7ZlwTnqYZ+GXojIV6N+KuvH5dztW1Kz1Dy7oOjfXL&#xA;WL9CJcp69bpvV+szmavH6uOHGtOprjOQMYxsem+/r8F02CeLPly8Mj4vDt6NuGPD/P3v4PsCyluJ&#xA;bOCW5iWC4kjRpoFf1FRyoLKHovIKduVBXOkiTW74dljGMyIm4g7Gqsd9dPcrYWt2KuxV2KuxV2Ku&#xA;xV2Koe71HT7IKby5itg9QhmdY60605EVyUYE8haCQEN/iTy7/wBXS0/5Hxf81ZLwp9x+SOMd7v8A&#xA;Enl3/q6Wn/I+L/mrHwp9x+S8Y73f4k8u/wDV0tP+R8X/ADVj4U+4/JeMd7v8SeXf+rpaf8j4v+as&#xA;fCn3H5LxjvV7TVdLvHMdpeQXLqOTLFIjkDpUhScjKEhzCRIFXmnhgiaWeRYol+1I5CqO25O2RJpn&#xA;CBkaAsrba7tbqP1LaZJ4605xsHWo7VUnACCnJjlA1IEHzWHUtOFz9VN1CLmtPQ9RfUqRWnGtceIc&#xA;mXgZOHi4Tw99bKVxrejW0zQXN/bQzJTnFJMiMKioqpIPQ5YMcjuAWkyCLimimiWWF1kicBkkQhlY&#xA;HoQRsciRSUHNruiQStDPqFtFKho8bzRqwPgQTUZIY5HkCjiHeq3OqaZarG11dwwLMCYmlkRA4FKl&#xA;eRFeo6YBCR5BSQFODW9FuJRFb39tNK32Y45o2Y/IAk4TjkOYKiQRjMqqWYhVUVZjsAB3OQSoWepa&#xA;de8/qd1Dc+nT1PRkWTjyrSvEmlaZKUCOYpAIKybV9JhuPq017bxXNQPQeVFerdBxJrvXbCMciLor&#xA;xBItT/M/yDps/wBXuNbt3ua8TBbcrqQN4FLdZWB+jLoaPLIWIn7vvYHNEdUMPzW8sFOa2+qMlKhx&#xA;pl7Qjxr6WS/JT74/6YfrY+NHz+S6D83Py7klEUmsJaSn9i8jmtD0r/x8JGMToc382/dv9yfHh3qn&#xA;nHX4LvyNrU3l6VdXuXtXigj09hcuWmHpBlWIsTx58vozB1UJwgdjddzt+xBjnq8fHKMYCQJJNDbf&#xA;n51T55/KnyRDqvnu20zzFYTLarFLM9tKskPNkX4Vb7LUrvt4ZodJg4sgEg+r+0Xaxw6OWTBOPFYF&#xA;ijVpZ+amg6boHn7VtK0yMxWMDRNDEWLcfVgjlKgnegZzSvbIarGIZCBycv2e1mTU6LHlyG5m7+Ei&#xA;P0PqXyDrUeteTNG1JW5NNaxrMev72MenKPodTm+08+KAPk+O9saU6fV5MZ6SNe47j7E+DKSQCCV2&#xA;YeHffLnWt4q7FXYq7FXYq7FXYqwzzbp2n6h558qW9/bRXduYtSYwzosiVEcNDxcEbZmYJmOKZBr6&#xA;f0tUwDIX5p1/gnyb/wBWHTv+kSD/AJoyn8xk/nS+ZZeHHuDTeS/JaqWbQtNCgVJNpAAAP9hj+Yyf&#xA;zpfMr4ce4Mav9T/JmzuDaLZaZfXw2+o6dYpfT17KY7aOVlJ/yqZkRhqCLuQHeTX3tZOMdyG+onUd&#xA;tG/Lixt4mHw3etJaWij39CFLmc/JguS4uH6sp/zbP27BFXyj81hsH8nXEOs6tf2VpJM3pW+heX9M&#xA;hhkvHI+GBWf1riXeh+HgO5oMPF4o4YgnzlLl59w+1a4Nz8gER+Y11rF1+UOsXGr2aafeyxqzWccv&#xA;remhuE4K7gKC/GnLjtXoc1WuERGQibD03soSe0MV95/3JSP8gde0Ox8jSQX2o2trMb2ZhFPNHG3E&#xA;pHQ8WINNsxdHOIhuervPbPR5smtBhCUhwDlEnqWHSXVtdf8AORUVxazJPBJfRFJomDowECjZlqDl&#xA;Fg59u93wxyh2CYyBjIYzsdv4iw/869JuNV/O3XrK2FZ2ijlRepb0NMjm4j3b06DPQez5iOmiT+PU&#xA;+J6iN5CPxyey/wDOP/nC3l/KVpL2Sg8uG4iuWPUQRj6wrfII/Ef6uajtPARn2/jr9Tlaafo36PmX&#xA;Xk1HVIrnzdeCg1bUbhR4GWizygey+soGdHiqNYx/DEfq/Q6+Vn1d5et/85Lf8o7+X/8AzCXP/Jq0&#xA;zVdkfXk94/3zlavlH8dya3v/ADi/otz5Vh1DQdTvE1h7VLmOK6MUkLyGMOIxwSJkq2wapplUe2JC&#xA;dSA4bZHSDhsHd35F/mNq+teV/MflnWLh7ufT9PmuLCeUlpPQ4GN42Y7kIzLxr406AY9paSMJxnEV&#xA;Z3XT5SYkHuYT+TP5jWPkXy15vv5OMupXP1GLS7Q/7smpc/Ew68I6gt93U5m6/SHNOA6b39jTgyiA&#xA;JZ7+RX5ZX+qai35jebw1ze3bm40uKbcs7Gv1p16f8Yh260+zmD2lrBEeDj5Dn+r9bfp8RJ45PcdL&#xA;0TRtJh9DS7G3sYf9928SRA/MIBXNLPJKRuRJcwRA5I3IJU57e3uIzFcRJNEeqSKGU/QcIJHJSGNX&#xA;/wCV35fX0gll0K2imU1E1qptJK+PO3MTfjmRHWZY/wAR+O/3tRwwPRCD8sYIBTTvMevWCAUSKO+a&#xA;aMdeiXCzeOT/ADhPOMD8P1I8HuJUpfy11GWYTS+atQlnAAErwaez0HT4jbk5A5sZN+HH7f1t0Z5Y&#xA;jhGSQHda+P8AK6B14X/mPXL2I/bt/rn1eE71PwWqQ9fnkhq6+mEB8P1tUsZkblKR+LIvL3lfQfLt&#xA;o9po1otpBK5llAZ3Z3IA5M8jO7Gg7nKcuaWQ3I2zjAR5JplTJ2KuxV2KuxV2KuxVimv/APkwPKf/&#xA;ABh1P/k3DmVi/up/5v6WqX1D4qeu3XmbUPN48vaXqiaRax6el9PcpbJcXDM8zxcEaVjEgAWu8bYc&#xA;cYRx8chxG657LIkyoGtm1/LHy7cEPrk175hkH/V0uXli61/3mT07b/kng/OTH01H3D9PP7V8Edd2&#xA;TWGnafp9uLawtYbS3X7MMEaxIPkqADMeUzI2TbYABySHzF5xa1vv0FoNsNV8yyqGFoG4wWyN0mvJ&#xA;RX008F+0/RR3F+LBY4pHhh9/kGEp0aG5XeW/Jy6fdvrWr3B1XzNcJwn1GReKxJ19C1j3EMQ8Bu3V&#xA;icGXPxDhiOGHd+k95WEK3O5QH5yf+S01z/jFH/yeTNfqv7svR+y3/Gji95/3JeW/lJ+UnlXzZ5Vf&#xA;VNUe6W5W6kgAgkVF4oqEbFG3+LMPTaaM42Xs/aX2l1Oi1Ph4+Hh4Qdx7/NLLLy5p/lv8+7LRdPMh&#xA;s7W6t/SMrBn/AHlssjVIC/tOe2QEBDOAHLy66er7ElmyVxSjLly2kR+hW1FVb/nLUKwBUywgg7gg&#xA;6UudxD/EPx/OfEz/AH/47mC61qt95Bu/PnkiIMLfU3SCFv5IklEiNQ/78tpCpzNxwGcY8vd+PvaJ&#xA;Ew4o96efm55YHlv8rPIOmsnG5YXNzd7UPrXCxSuG905cPoynQ5vEz5D02+xnmhwwiE2/5yW/5R38&#xA;v/8AmEuf+TVplXZH15PeP98z1fKP47nub+adE8teR7PU9Wukt4ILCFwrMA8hES0SNSaszHYAZpfB&#xA;lkymMR1czjEY2Xz3/wA49adeXN75x10oVtk0i4tnah4+rcsJQo+QhOb7tSYAhHrxD7HB0w+o+TEP&#xA;Iv5c3Hm7yr5ovNPVpNX0T6nPawLv6sUgn9eMDu5EasvuKd8ytTqxinAH6ZX+imrHi4omuYe7f848&#xA;fmkPMGjjyxqsv+5vS4wLZ263FquwPu8Wyt4ih3+LNL2po/Dlxx+mX2FzNLm4hR5hkX5AeZNb8y/l&#xA;HoOt65dNe6pd/W/rFy4VS/p3s0SVCBV2RAOmahy0D+WP5gSN5T81a75v1VEstI1/UbQXlxwjSK2h&#xA;lRIY/hC13fivck03xVknlf8ANbyD5p1N9K0TVRPqKR+v9UlhuLaRogaepGtxHF6i+6VxVLtQ/Pf8&#xA;ptPuJLe68wxJLDM1vcBYbiQQyJIYiJmSNliHMUDOQD2OKo3TPze/LjVPMcflzT9ciudWmaRLeNEl&#xA;9KVoRWRYbgp6EhWm4RzirD9G/OrQNE8xec7Hzhrnp/UdYkh0y2EMk8kVolvExJS2jkdYw7H43298&#xA;VejN518qjT9I1EalE9jr08VppFwnJ0uJ51Zo0UqDQsI2+1SlN8VRUvmDR4tdg0GS5VdXubd7uC0o&#xA;3JoImCO9acdmYDrirH9N/N78ttT1fTNHsNdguNS1j1jp9siy8n+rmRZOXwUj3genqFeVPhrtiqEu&#xA;vz0/Ke0vLq0uPMMKPZM8dxN6U5txJGpZ41uRGYHcAfYVy3tirN7W5guraK5t39SCdFlicVAZHHJT&#xA;v4g4qqYq7FXYq7FWP+ZfK95q2oabqNjqkml3umCdYpUiimDLcKqsCsoI/Yy/DmEQQRxA/oYThZBB&#xA;pI9AsNWsvzMuo9T1RtVlbRYmSZ4YoCq/W5Bx4xAA771OX5ZROEcI4fV+hhEET3N7M8zBbmNefNQ1&#xA;W3sdOs9MuRZXGr6hDp7XoQSPDHKrs7xKx486R0UtUCtaHMnTRiSTIXwi6a8hNCuqY+XfLWkeXrD6&#xA;npsRUOxkuLiRjJPPK32pZpW+J3bxP6sry5pZDZZRgIjZNMqZJR5r8vweZPL17os0zQRXihHmjAZl&#xA;4OG2B26rTIZIcUSHO7N1x0ueOYDiMOnwpB+QvJVr5P0NtJtrl7qNpnn9WQBWq4UUov8Aq5HDiEBT&#xA;kds9rS12bxZRETwgbeVpTd/lTp9z+YS+dWv5Vulkil+qBV9OsUKwgcuu4SuVnTA5OO3Nxe0eSGh/&#xA;J8A4aI4uu8jL9KjP+UGmy/mgPzAOoTC8Do/1LgvpfBbC2+19roK5txriMHhVt3/G3lfAHHxIXzv+&#xA;Rvl7zb5vt/Ml5dzQvGsK3NoioUnELE/ETuOSUQ+wyen7RnixmACMmnEpWmP5oflXp/5gQafDeX0t&#xA;kNPaV0MKq3L1QoNeXhwyvR604CaF2yzYRNCfmF+TWmedLDQ7O61Ga0XQ4pIYmiRGMgkWJSW5dKei&#xA;OnjktLr5YTIgXxIy4BMDfkxC1/5xP8ppMrXWs300I6xosUZP+yKv+rMuXbeStohqGjj3vVdI8l6B&#xA;onlqTy9o9uLKxljkjYr8Ts0q8Wkdm3d/c/Lpmsyaic58cjZcmOMAUEg/K78pdO/L79J/U7+a+/Sf&#xA;oep6yqvD6v6lKcfH1cv1muOerFUww4RC/NJ738gdI/xq3m3RtWuNHvfX+tRwQIjRpKf7ygb9mSp5&#xA;L03I6ZbHtOXh+HICQ5MDphxcQNMP/wCce/yh/LTzB+UGgavrXl60vtSufrf1i6lVi7+nezxpWhHR&#xA;EAzWOSgPKvmdfIP5K+ctR03SobyPT/Nd7b2lrMjPbQAXESRSyqtW4Q8VIpvUDcdcVRWh+aP09+eX&#xA;kWUeZrfzQUs9VL3djZC0tIjLbK3oI/KR5GXYsruSnw1ALHFV+m2FlH+Qn5pzpAgmudR1+S4koCXa&#xA;OVlQkn+UKKeGKsg8y2NnaWv5MQWsCQxQ6naJEiKFCqdPkJAp4kVOKpV5K8/eQPK35ifmfH5ku4NL&#xA;u7jVBIl1cii3EEcCgwxtQ8mjZqlOp5igxVjtgkugfk5+XOr6rFJp+j2vnOHVCkiN/oemzy3fpNJS&#xA;tE/eq1f8oYqzTS/O/l/zV/zkRpr6DcC/sbHy9eRNqEQJt5JWuYWZIpKcX4Lx5FSRvTFXf8446JAn&#xA;5QXs+mxpb6tql1qXqXgFHaVZpIYSzdaIFFB2+nFXntx5x8rWn/ONd55AubSVPN+nWstve6CbaT1o&#xA;Z4ZzLJdSHhwVFUer6nKnbrir6W8p/wDKLaN/zA23/JlcVTXFXYq7FXYq7FWKR/8Ak1J/+2FD/wBR&#xA;kmZR/uP8/wDQ1fx/BE6v+YHlXTLk2LXf13VBsNLsEe8u6+BhgDsnzegyMNLOQuqj3nYfamWWI26s&#xA;X8waz5n1LVPLD3WhnSNJGtW5jku50a8kb0peP7iESJGtK15S19sycWOEYzqXFLhPIbdOv7GuUiSN&#xA;qFvSs1zkMS8zeY7+71I+VPLMgGuSIHv9Q484tNt3/wB2SDo0zj+6jPX7R+Eb5WHEAPEn9PQfzv2d&#xA;5apyJPCOf3J35d8v6foGlRabY82jQs8k0zGSWWWQ8pJZXO7O7EknKcuUzlZZxiIigmWVsnYq7FXY&#xA;q7FXYq7FXYq7FXYqtihihjEcSLHGv2UQBQKmuwGKrRb26xvGsSCOSpkQKKMW+1Ud698VajtLWPh6&#xA;cMaenX0+KgceX2uNBtXvirf1e3EbReknpvUunEcWLdajvXFWzDC3DlGp9M1jqB8JApVfDFVj2VnJ&#xA;XnBG9W5nkimrUpy3HX3xVUkjjkQpIodG2ZWAII9wcVWx2ttGVMcSIUBVCqgUUmpAp0FcVXRQxRJw&#xA;iRY03PFQFFTudhiryzWfyq/MbW9Pn8u6r5+a48rXIEd0n6OhXUZbfkCYGulcLuooZPTqe464q9Rt&#xA;baG1toraBeEECLHEg6BEHFR9AGKqmKuxV2KuxV2Ksb17yBoeu6ymqahLdki3W0ktIbiSCCWNZGkH&#xA;qiIo7/E3Qtx9syMWqlCPCK53ya5YwTZTfSND0bRrYWuk2MFhbin7q3jWJTTueIFT7nKp5JTNyNs4&#xA;xA5JD59/v/K//bdtv+TM2X6blP8AqH9DXk6e9vzV5l1Jb6Py15aRJvMV0nqSzyDlBYW5NPrM/iTv&#xA;6Uf7R9gccOEVxz+gfae4fpKZzN0Of3Jr5a8tad5f076pZhnkldp7y7lPKe4nfeSaZ/2nY/QOg2yr&#xA;NmOQ2f7GUICITXKmTsVdirsVdirsVdirsVdirsVdirsVdirsVdirsVdirsVdirsVdirsVdirsVdi&#xA;rsVdirsVdirEfzI0zzJqFjo6+XUjbUrfU4Z1ln/uYlWKUGWQChKpy6Dqdsy9JOETLj5cP6mrKCQK&#xA;7018reWLXy/YNCkr3d9cuZ9S1KahmubhvtSOR08FUbKtAMqzZjkN8gOQ7mUIcITnKWbsVdirsVdi&#xA;rsVdirsVdirsVdirsVf/2Q==</xmpGImg:image>
               </rdf:li>
            </rdf:Alt>
         </xmp:Thumbnails>
      </rdf:Description>
      <rdf:Description rdf:about=""
            xmlns:xmpMM="http://ns.adobe.com/xap/1.0/mm/"
            xmlns:stRef="http://ns.adobe.com/xap/1.0/sType/ResourceRef#"
            xmlns:stEvt="http://ns.adobe.com/xap/1.0/sType/ResourceEvent#"
            xmlns:stMfs="http://ns.adobe.com/xap/1.0/sType/ManifestItem#">
         <xmpMM:RenditionClass>default</xmpMM:RenditionClass>
         <xmpMM:OriginalDocumentID>uuid:65E6390686CF11DBA6E2D887CEACB407</xmpMM:OriginalDocumentID>
         <xmpMM:DocumentID>xmp.did:5550BB51C0E6E611AA659860ADDA4847</xmpMM:DocumentID>
         <xmpMM:InstanceID>xmp.iid:5550BB51C0E6E611AA659860ADDA4847</xmpMM:InstanceID>
         <xmpMM:DerivedFrom rdf:parseType="Resource">
            <stRef:instanceID>xmp.iid:5450BB51C0E6E611AA659860ADDA4847</stRef:instanceID>
            <stRef:documentID>xmp.did:5450BB51C0E6E611AA659860ADDA4847</stRef:documentID>
            <stRef:originalDocumentID>uuid:65E6390686CF11DBA6E2D887CEACB407</stRef:originalDocumentID>
            <stRef:renditionClass>default</stRef:renditionClass>
         </xmpMM:DerivedFrom>
         <xmpMM:History>
            <rdf:Seq>
               <rdf:li rdf:parseType="Resource">
                  <stEvt:action>saved</stEvt:action>
                  <stEvt:instanceID>xmp.iid:70450AE0C5DBE611B1EFECCB1ED5C2AE</stEvt:instanceID>
                  <stEvt:when>2017-01-16T09:29:19+01:00</stEvt:when>
                  <stEvt:softwareAgent>Adobe Illustrator CS6 (Windows)</stEvt:softwareAgent>
                  <stEvt:changed>/</stEvt:changed>
               </rdf:li>
               <rdf:li rdf:parseType="Resource">
                  <stEvt:action>saved</stEvt:action>
                  <stEvt:instanceID>xmp.iid:5550BB51C0E6E611AA659860ADDA4847</stEvt:instanceID>
                  <stEvt:when>2017-01-30T09:17:02+01:00</stEvt:when>
                  <stEvt:softwareAgent>Adobe Illustrator CS6 (Windows)</stEvt:softwareAgent>
                  <stEvt:changed>/</stEvt:changed>
               </rdf:li>
            </rdf:Seq>
         </xmpMM:History>
         <xmpMM:Manifest>
            <rdf:Seq>
               <rdf:li rdf:parseType="Resource">
                  <stMfs:linkForm>EmbedByReference</stMfs:linkForm>
                  <stMfs:reference rdf:parseType="Resource">
                     <stRef:filePath>D:\Gestaltungsrichtlinien_2016\Hamburg-Logo\Hamburg-Logo\RGB\Titel-Logo\eps\HH_RGB_positiv.eps</stRef:filePath>
                  </stMfs:reference>
               </rdf:li>
            </rdf:Seq>
         </xmpMM:Manifest>
      </rdf:Description>
      <rdf:Description rdf:about=""
            xmlns:illustrator="http://ns.adobe.com/illustrator/1.0/">
         <illustrator:StartupProfile>Web</illustrator:StartupProfile>
      </rdf:Description>
      <rdf:Description rdf:about=""
            xmlns:xmpTPg="http://ns.adobe.com/xap/1.0/t/pg/"
            xmlns:stDim="http://ns.adobe.com/xap/1.0/sType/Dimensions#"
            xmlns:xmpG="http://ns.adobe.com/xap/1.0/g/">
         <xmpTPg:NPages>1</xmpTPg:NPages>
         <xmpTPg:HasVisibleTransparency>False</xmpTPg:HasVisibleTransparency>
         <xmpTPg:HasVisibleOverprint>False</xmpTPg:HasVisibleOverprint>
         <xmpTPg:MaxPageSize rdf:parseType="Resource">
            <stDim:w>263.819336</stDim:w>
            <stDim:h>65.810547</stDim:h>
            <stDim:unit>Pixels</stDim:unit>
         </xmpTPg:MaxPageSize>
         <xmpTPg:PlateNames>
            <rdf:Seq>
               <rdf:li>Cyan</rdf:li>
               <rdf:li>Magenta</rdf:li>
               <rdf:li>Yellow</rdf:li>
               <rdf:li>Black</rdf:li>
            </rdf:Seq>
         </xmpTPg:PlateNames>
         <xmpTPg:SwatchGroups>
            <rdf:Seq>
               <rdf:li rdf:parseType="Resource">
                  <xmpG:groupName>Standard-Farbfeldgruppe</xmpG:groupName>
                  <xmpG:groupType>0</xmpG:groupType>
                  <xmpG:Colorants>
                     <rdf:Seq>
                        <rdf:li rdf:parseType="Resource">
                           <xmpG:swatchName>Weiß</xmpG:swatchName>
                           <xmpG:mode>RGB</xmpG:mode>
                           <xmpG:type>PROCESS</xmpG:type>
                           <xmpG:red>255</xmpG:red>
                           <xmpG:green>255</xmpG:green>
                           <xmpG:blue>255</xmpG:blue>
                        </rdf:li>
                        <rdf:li rdf:parseType="Resource">
                           <xmpG:swatchName>Schwarz</xmpG:swatchName>
                           <xmpG:mode>RGB</xmpG:mode>
                           <xmpG:type>PROCESS</xmpG:type>
                           <xmpG:red>0</xmpG:red>
                           <xmpG:green>0</xmpG:green>
                           <xmpG:blue>0</xmpG:blue>
                        </rdf:li>
                        <rdf:li rdf:parseType="Resource">
                           <xmpG:swatchName>R=14 G=49 B=146</xmpG:swatchName>
                           <xmpG:type>PROCESS</xmpG:type>
                           <xmpG:tint>100.000000</xmpG:tint>
                           <xmpG:mode>RGB</xmpG:mode>
                           <xmpG:red>14</xmpG:red>
                           <xmpG:green>49</xmpG:green>
                           <xmpG:blue>145</xmpG:blue>
                        </rdf:li>
                        <rdf:li rdf:parseType="Resource">
                           <xmpG:swatchName>R=255 G=0 B=25</xmpG:swatchName>
                           <xmpG:type>PROCESS</xmpG:type>
                           <xmpG:tint>100.000000</xmpG:tint>
                           <xmpG:mode>RGB</xmpG:mode>
                           <xmpG:red>255</xmpG:red>
                           <xmpG:green>0</xmpG:green>
                           <xmpG:blue>24</xmpG:blue>
                        </rdf:li>
                     </rdf:Seq>
                  </xmpG:Colorants>
               </rdf:li>
               <rdf:li rdf:parseType="Resource">
                  <xmpG:groupName>Graustufen</xmpG:groupName>
                  <xmpG:groupType>1</xmpG:groupType>
                  <xmpG:Colorants>
                     <rdf:Seq>
                        <rdf:li rdf:parseType="Resource">
                           <xmpG:swatchName>R=0 G=0 B=0</xmpG:swatchName>
                           <xmpG:mode>RGB</xmpG:mode>
                           <xmpG:type>PROCESS</xmpG:type>
                           <xmpG:red>0</xmpG:red>
                           <xmpG:green>0</xmpG:green>
                           <xmpG:blue>0</xmpG:blue>
                        </rdf:li>
                     </rdf:Seq>
                  </xmpG:Colorants>
               </rdf:li>
            </rdf:Seq>
         </xmpTPg:SwatchGroups>
      </rdf:Description>
      <rdf:Description rdf:about=""
            xmlns:pdf="http://ns.adobe.com/pdf/1.3/">
         <pdf:Producer>Adobe PDF library 10.01</pdf:Producer>
      </rdf:Description>
   </rdf:RDF>
</x:xmpmeta>
                                                                                                    
                                                                                                    
                                                                                                    
                                                                                                    
                                                                                                    
                                                                                                    
                                                                                                    
                                                                                                    
                                                                                                    
                                                                                                    
                                                                                                    
                                                                                                    
                                                                                                    
                                                                                                    
                                                                                                    
                                                                                                    
                                                                                                    
                                                                                                    
                                                                                                    
                                                                                                    
                           
<?xpacket end="w"?>
	</metadata>
<g id="Ebene_1">
	<g>
		<g>
			<path fill="#FF0019" d="M179.499,37.067V16.758h4.361v8.017h7.681v-8.017h4.415v20.309h-4.36V28.15h-7.735v8.917H179.499z"/>
		</g>
		<g>
			<path fill="#0E3192" d="M212.978,37.067h-3.627l-5.374-17.44l-0.058,0.056v17.384h-4.077V16.758h7.145l4.246,14.768h0.058
				l4.611-14.768h6.894v20.309h-4.078V19.683l-0.056-0.056L212.978,37.067z"/>
			<path fill="#0E3192" d="M226.677,16.758h6.92c6.33-0.057,10.269,3.094,10.269,10.156c0,7.06-3.938,10.21-10.269,10.153h-6.92
				V16.758z M231.037,33.692h2.251c5.175,0.056,5.937-3.545,5.937-6.778c0-3.236-0.762-6.837-5.937-6.78h-2.251V33.692z"/>
		</g>
		<g>
			<path fill="#0E3192" d="M250.99,25.534h0.056l6.752-8.775h5.09l-7.453,9.086l8.102,11.223h-5.428l-7.063-10.351h-0.056v10.351
				h-4.359V16.758h4.359V25.534z"/>
		</g>
		<path fill="none" stroke="#0E3192" stroke-width="1.3289" stroke-miterlimit="3.8637" d="M169.658,17.325h-41.016v19.273h7.061
			 M171.202,19.618l-35.328,9.519l0.047,23.271l18.207-6.457 M175.156,21.253l-20.718,16.295l-0.055,26.291l20.765-21.713"/>
	</g>
</g>
<g id="HH_Logo">
	<g>
		<path fill="#1E409A" d="M60.938,25.223l0.139-0.04v1.41c-11.866,3.293-20.434,2.387-32.282,0.031
			c-10.231-2.034-18.013-3.521-28.255-0.017v-1.434c10.269-3.42,18.281-1.915,28.521,0.121
			C40.635,27.595,49.141,28.551,60.938,25.223L60.938,25.223L60.938,25.223z"/>
		<path fill="#FA0008" d="M43.713,25.628l-0.046-4.456c0-1.338-1.085-2.424-2.424-2.424s-2.424,1.086-2.424,2.424l-0.043,4.041
			c-2.611-0.312-5.145-0.744-7.639-1.202c1.071-2.958,1.613-5.318,1.837-8.68h16.547c0.236,3.5,1.023,6.8,2.212,10.081
			C48.95,25.701,46.288,25.745,43.713,25.628L43.713,25.628L43.713,25.628z"/>
		<polygon fill="#FA0008" points="36.337,5.482 35.458,5.482 35.019,6.244 34.58,5.482 33.701,5.482 34.141,4.722 33.701,3.96 
			34.58,3.96 35.019,3.199 35.458,3.96 36.337,3.96 35.898,4.721 36.337,5.482 36.337,5.482 		"/>
		<polygon fill="#FA0008" points="48.794,5.482 47.916,5.482 47.477,6.244 47.036,5.482 46.158,5.482 46.598,4.722 46.158,3.96 
			47.036,3.96 47.477,3.199 47.916,3.96 48.794,3.96 48.355,4.721 48.794,5.482 48.794,5.482 		"/>
		<path fill="#FA0008" d="M38.988,5.807V5.729c0-1.066,0.746-1.958,1.742-2.189V2.567h-0.817V1.66l0.817,0V0.727h1.036V1.66l0.817,0
			v0.907h-0.817v0.97c1.06,0.235,1.684,1.184,1.738,2.27h0.875v1.16h-0.982v6.218h2.121V6.967h3.917v6.218h1.234v1.199H31.827
			v-1.199h1.234V6.967h3.917v6.218h2.121V6.967h-0.981v-1.16H38.988L38.988,5.807L38.988,5.807z"/>
		<polygon fill="#010102" points="0.284,35.449 2.09,35.449 2.09,42.06 9.501,42.06 9.501,35.449 11.309,35.449 11.309,50.128 
			9.501,50.128 9.501,43.188 2.09,43.188 2.09,50.128 0.284,50.128 0.284,35.449 		"/>
		<path fill="#010102" d="M20.897,46.104v-0.82l-0.082,0.021c-2.71,0.246-4.701,0.657-4.701,2.34c0,0.944,0.534,1.438,1.539,1.438
			C19.748,49.081,20.897,47.746,20.897,46.104L20.897,46.104z M22.519,43.291v6.837h-1.581v-1.54
			c-0.698,1.026-1.909,1.745-3.757,1.745c-1.806,0-2.853-1.047-2.853-2.525c0-2.607,2.935-3.202,6.446-3.49h0.123v-1.006
			c0-1.272-0.677-2.012-2.217-2.012c-2.299,0-3.921,1.272-3.921,1.272l0.185-1.457c0,0,1.478-1.171,3.88-1.171
			C21.821,39.944,22.519,41.587,22.519,43.291L22.519,43.291z"/>
		<path fill="#010102" d="M39.766,43.106v7.021h-1.622v-6.795c0-1.212-0.451-2.033-1.683-2.033c-1.581,0-2.854,1.253-2.854,3.264
			v5.564h-1.622v-6.795c0-1.212-0.431-2.033-1.684-2.033c-1.581,0-2.833,1.253-2.833,3.264v5.564h-1.643V40.15h1.54v1.725
			c0.698-1.17,1.889-1.931,3.388-1.931c1.56,0,2.422,0.739,2.73,2.013c0.677-1.232,1.889-2.013,3.428-2.013
			C38.883,39.944,39.766,41.136,39.766,43.106L39.766,43.106z"/>
		<path fill="#010102" d="M50.238,45.159c0-2.648-0.862-3.9-2.628-3.9c-1.622,0-2.936,1.294-2.936,3.9
			c0,2.607,1.252,3.859,2.874,3.859C49.314,49.019,50.238,47.869,50.238,45.159L50.238,45.159z M51.983,45.139
			c0,3.531-1.95,5.174-4.147,5.174c-1.54,0-2.587-0.698-3.224-1.725v1.54h-1.539V35.449h1.601v6.344
			c0.677-1.109,1.806-1.849,3.367-1.849C50.382,39.944,51.983,41.648,51.983,45.139L51.983,45.139z"/>
		<path fill="#010102" d="M63.132,40.15v9.978h-1.539v-1.745c-0.739,1.19-2.033,1.95-3.654,1.95c-2.095,0-3.039-1.19-3.039-3.161
			V40.15h1.643v6.795c0,1.212,0.472,2.032,1.848,2.032c1.663,0,3.1-1.252,3.1-3.264V40.15H63.132L63.132,40.15z"/>
		<path fill="#010102" d="M72.352,41.793c0,0-0.391-0.124-1.047-0.124c-1.704,0-3.121,1.499-3.121,3.983v4.476h-1.643V40.15h1.58
			v2.463c0.72-1.601,2.013-2.669,3.449-2.669c0.329,0,0.616,0.063,0.616,0.063L72.352,41.793L72.352,41.793z"/>
		<path fill="#010102" d="M81.282,44.913c0-2.505-1.252-3.675-2.874-3.675c-1.766,0-2.689,1.108-2.689,3.675
			c0,2.505,0.862,3.716,2.628,3.716C79.969,48.629,81.282,47.418,81.282,44.913L81.282,44.913z M82.884,40.15v10.347
			c0,1.889-1.067,3.777-4.619,3.777c-2.32,0-3.613-1.231-3.613-1.231l-0.205-1.52c0,0,1.498,1.335,3.9,1.335
			c1.909,0,2.936-0.821,2.936-2.341v-2.381c-0.698,1.067-1.807,1.786-3.367,1.786c-2.34,0-3.941-1.622-3.941-4.989
			c0-3.408,1.95-4.989,4.146-4.989c1.541,0,2.567,0.657,3.204,1.663V40.15H82.884L82.884,40.15z"/>
	</g>
</g>
</svg>
