<svg id="opendata" xmlns="http://www.w3.org/2000/svg" viewBox="0 0 17.78 18.04">
    <defs>
        <style>.cls-1{fill:#4879b5;}</style>
    </defs>
    <path class="cls-1"
        d="M265.58,328h-11a.83.83,0,0,0-.83.83v11a.83.83,0,0,0,.83.83h11a.83.83,0,0,0,.83-.83v-11A.83.83,0,0,0,265.58,328ZM261,334.58a.18.18,0,0,0-.1.16v1.86a.8.8,0,0,1-.8.8.79.79,0,0,1-.79-.8v-1.86a.18.18,0,0,0-.1-.16A1.86,1.86,0,1,1,262,333,1.88,1.88,0,0,1,261,334.58Z"
        transform="translate(-248.63 -322.6)" />
    <path class="cls-1"
        d="M255.91,327v.59h1.5V327a4.39,4.39,0,0,0-8.78,0,.75.75,0,0,0,1.5,0,2.89,2.89,0,0,1,5.78,0Z"
        transform="translate(-248.63 -322.6)" />
</svg>