<svg width="400px" height="100px" viewBox="0 0 400 100" xmlns="http://www.w3.org/2000/svg" xmlns:xlink="http://www.w3.org/1999/xlink"><defs><path d="M11.37 5.954l-3.21.507 7.866 22.837.797 2.776h.144l.797-2.776 7.842-22.86-3.161-.484V2.89H33.52v3.065l-2.823.387-11.775 31.696h-4.078L3.069 6.34.27 5.954V2.89h11.1v3.065zm32.724 32.59c-3.635 0-6.527-1.211-8.674-3.633-2.148-2.423-3.222-5.565-3.222-9.427v-1.062c0-3.718 1.106-6.812 3.318-9.282 2.212-2.47 4.83-3.706 7.854-3.706 3.507 0 6.165 1.062 7.975 3.187 1.81 2.124 2.714 4.957 2.714 8.497v2.97H37.121l-.073.12c.049 2.51.684 4.575 1.907 6.192 1.222 1.617 2.935 2.426 5.139 2.426 1.609 0 3.02-.23 4.235-.688 1.214-.459 2.264-1.09 3.149-1.895l1.858 3.09c-.933.901-2.168 1.662-3.704 2.281-1.537.62-3.382.93-5.538.93zm-.724-23.368c-1.592 0-2.952.672-4.078 2.016-1.126 1.343-1.817 3.03-2.075 5.057l.048.12h12.04v-.627c0-1.867-.498-3.428-1.495-4.683-.997-1.255-2.477-1.883-4.44-1.883zm14.087-.193v-3.066h8.18l.458 3.79c.74-1.336 1.653-2.382 2.739-3.138 1.086-.757 2.328-1.135 3.728-1.135a8.1 8.1 0 0 1 1.146.085c.394.056.696.116.905.18l-.627 4.418-2.703-.144c-1.255 0-2.308.293-3.16.88-.853.588-1.513 1.413-1.98 2.475V34.32l3.934.676v3.042h-12.62v-3.042l3.933-.676V15.66l-3.933-.676zm43.33 10.984c0 3.766-.905 6.803-2.715 9.113-1.81 2.309-4.299 3.464-7.468 3.464-1.705 0-3.185-.326-4.44-.978-1.254-.652-2.3-1.613-3.136-2.885l-.435 3.356h-4.102V4.12l-3.933-.676V.378h8.687v14.629c.82-1.159 1.838-2.044 3.052-2.655 1.215-.612 2.634-.918 4.259-.918 3.217 0 5.727 1.288 7.528 3.863 1.802 2.575 2.703 5.962 2.703 10.163v.507zm-4.778-.507c0-3.01-.547-5.456-1.64-7.339-1.094-1.883-2.767-2.824-5.02-2.824-1.463 0-2.698.354-3.703 1.062-1.006.708-1.806 1.657-2.401 2.848v11.54c.595 1.206 1.403 2.164 2.425 2.872 1.021.708 2.264 1.062 3.728 1.062 2.236 0 3.897-.796 4.982-2.39 1.086-1.593 1.63-3.701 1.63-6.324v-.507zm26.845 8.714c-.82 1.4-1.878 2.479-3.173 3.235-1.295.756-2.787 1.135-4.476 1.135-2.831 0-5.043-.91-6.636-2.728-1.592-1.819-2.388-4.651-2.388-8.498v-11.66l-2.993-.675v-3.066h7.746v15.45c0 2.784.41 4.7 1.23 5.745.821 1.046 2.1 1.57 3.837 1.57 1.69 0 3.085-.343 4.187-1.027 1.101-.684 1.934-1.653 2.497-2.909V15.66l-3.499-.676v-3.066h8.252v22.402l2.992.676v3.042h-7.263l-.313-3.863zm10.608.821l3.933-.676V15.66l-3.933-.676v-3.066h8.18l.337 3.887c.869-1.384 1.959-2.459 3.27-3.223 1.31-.765 2.803-1.147 4.476-1.147 2.815 0 4.994.825 6.539 2.475 1.544 1.65 2.316 4.196 2.316 7.64v12.77l3.933.676v3.042h-12.62v-3.042l3.934-.676V21.646c0-2.302-.455-3.935-1.364-4.9-.909-.967-2.296-1.45-4.162-1.45-1.367 0-2.578.33-3.631.99-1.054.66-1.895 1.561-2.522 2.704v15.33l3.933.675v3.042h-12.62v-3.042zm48.783-.072c-.853 1.19-1.894 2.092-3.125 2.703-1.23.612-2.658.918-4.283.918-3.185 0-5.674-1.155-7.468-3.464-1.793-2.31-2.69-5.347-2.69-9.113v-.507c0-4.2.897-7.588 2.69-10.163 1.794-2.575 4.3-3.863 7.516-3.863 1.545 0 2.908.286 4.09.857a8.451 8.451 0 0 1 3.028 2.475V4.12l-3.933-.676V.378h8.687v33.941l3.933.676v3.042h-8.06l-.385-3.114zm-12.813-8.956c0 2.623.539 4.731 1.617 6.324 1.078 1.594 2.742 2.39 4.995 2.39 1.415 0 2.606-.322 3.57-.965.966-.644 1.762-1.553 2.39-2.728V18.869c-.612-1.094-1.408-1.963-2.39-2.607-.98-.643-2.155-.965-3.522-.965-2.268 0-3.945.941-5.031 2.824-1.086 1.883-1.629 4.33-1.629 7.339v.507z" id="a"/><linearGradient x1="0.00945548899%" y1="50.4089723%" x2="100.056502%" y2="50.4089723%" id="b"><stop stop-color="#349980" offset="0%"/><stop stop-color="#45A965" offset="100%"/></linearGradient><linearGradient x1="0%" y1="50%" x2="100.886843%" y2="50%" id="c"><stop stop-color="#349980" offset="0%"/><stop stop-color="#45A965" offset="100%"/></linearGradient><linearGradient x1="-0.00420800856%" y1="50.000327%" x2="100.006616%" y2="50.000327%" id="d"><stop stop-color="#75B843" offset="0%"/><stop stop-color="#95C11F" offset="100%"/></linearGradient><linearGradient x1="0.00680391866%" y1="49.9941272%" x2="99.9954546%" y2="49.9941272%" id="e"><stop stop-color="#75B843" offset="0%"/><stop stop-color="#95C11F" offset="100%"/></linearGradient></defs><g fill="none" fill-rule="evenodd"><path d="M171.996 72.607l3.038-8.773h1.534l-3.944 10.636h-1.242l-3.937-10.636h1.527l3.024 8.773zm5.087-2.162c0-.774.153-1.47.457-2.09.304-.618.728-1.095 1.27-1.43.544-.337 1.163-.505 1.86-.505 1.076 0 1.946.373 2.611 1.118.665.745.997 1.736.997 2.973v.095c0 .769-.147 1.46-.442 2.07a3.356 3.356 0 0 1-1.263 1.428c-.548.341-1.178.512-1.889.512-1.07 0-1.939-.373-2.604-1.118-.664-.745-.997-1.731-.997-2.958v-.095zm1.359.16c0 .877.203 1.58.61 2.112.407.53.95.796 1.632.796.687 0 1.232-.27 1.637-.807.404-.538.606-1.292.606-2.261 0-.867-.206-1.57-.617-2.107-.412-.539-.958-.808-1.64-.808-.667 0-1.205.266-1.614.797-.41.53-.614 1.29-.614 2.279zm11.351-2.826a4.05 4.05 0 0 0-.665-.051c-.886 0-1.487.377-1.804 1.132v5.61h-1.351v-7.904h1.315l.022.913c.443-.706 1.07-1.059 1.884-1.059.263 0 .463.034.6.102v1.257zm2.593-.256c.6-.735 1.378-1.103 2.338-1.103 1.67 0 2.512.942 2.527 2.827v5.223H195.9v-5.23c-.005-.57-.135-.991-.391-1.264s-.654-.409-1.194-.409a1.95 1.95 0 0 0-1.154.35 2.38 2.38 0 0 0-.775.92v5.633h-1.351V63.25h1.351v4.273zm11.768 6.947c-.078-.156-.141-.434-.19-.833-.628.653-1.378.979-2.25.979-.78 0-1.418-.22-1.917-.661-.5-.441-.75-1-.75-1.677 0-.823.314-1.462.94-1.917.625-.455 1.505-.683 2.64-.683h1.315v-.62c0-.473-.141-.85-.424-1.13-.282-.28-.699-.42-1.249-.42-.482 0-.886.122-1.212.366-.327.243-.49.538-.49.884h-1.358c0-.395.14-.776.42-1.144.28-.367.66-.658 1.14-.872a3.833 3.833 0 0 1 1.58-.322c.911 0 1.625.228 2.14.683.517.455.785 1.082.804 1.881v3.638c0 .725.093 1.302.278 1.73v.118h-1.417zm-2.243-1.03c.424 0 .826-.11 1.206-.329.38-.22.655-.504.825-.855v-1.621h-1.06c-1.655 0-2.483.484-2.483 1.453 0 .424.141.755.424.994.282.238.645.358 1.088.358zm12.191-2.834c0 1.207-.277 2.178-.832 2.91-.555.733-1.3 1.1-2.235 1.1-.999 0-1.77-.353-2.316-1.06l-.066.914h-1.241V63.25h1.35v4.185c.546-.676 1.299-1.015 2.258-1.015.96 0 1.713.363 2.26 1.089.549.725.822 1.718.822 2.98v.117zm-1.35-.154c0-.92-.179-1.631-.534-2.133-.356-.501-.867-.752-1.534-.752-.891 0-1.532.414-1.921 1.242v3.418c.414.828 1.06 1.242 1.936 1.242.647 0 1.151-.25 1.512-.752.36-.502.54-1.257.54-2.265zm6.332 4.164c-1.071 0-1.943-.352-2.615-1.056-.672-.703-1.008-1.644-1.008-2.823v-.248c0-.784.15-1.484.45-2.1.299-.616.718-1.098 1.256-1.447a3.159 3.159 0 0 1 1.75-.522c1.027 0 1.825.339 2.395 1.015.57.677.855 1.646.855 2.908v.562h-5.355c.02.78.248 1.409.683 1.888.436.48.99.72 1.662.72.477 0 .882-.098 1.213-.292.33-.195.62-.453.869-.775l.825.643c-.662 1.018-1.655 1.527-2.98 1.527zm-.168-7.086c-.545 0-1.003.199-1.373.596-.37.397-.6.953-.687 1.669h3.96v-.102c-.04-.687-.225-1.22-.556-1.596-.331-.378-.779-.567-1.344-.567zm6.092-.964l.044.994c.604-.76 1.393-1.14 2.367-1.14 1.67 0 2.512.942 2.527 2.827v5.223h-1.351v-5.23c-.005-.57-.136-.991-.391-1.264-.256-.273-.654-.409-1.194-.409a1.95 1.95 0 0 0-1.155.35 2.38 2.38 0 0 0-.774.92v5.633h-1.351v-7.904h1.278zm12.147 7.904h-1.35v-7.904h1.35v7.904zm-1.46-10c0-.22.067-.404.2-.555.134-.151.333-.227.596-.227.263 0 .462.076.599.227a.798.798 0 0 1 .204.555c0 .219-.068.402-.204.548-.137.146-.336.219-.6.219-.262 0-.46-.073-.595-.22a.78.78 0 0 1-.2-.547zm4.894 2.096l.036.877c.58-.682 1.361-1.023 2.345-1.023 1.105 0 1.858.424 2.257 1.271.263-.38.605-.686 1.026-.92.421-.234.92-.35 1.494-.35 1.734 0 2.615.917 2.644 2.753v5.296h-1.351v-5.216c0-.565-.13-.987-.387-1.267-.258-.28-.692-.42-1.3-.42-.502 0-.918.15-1.25.45-.33.299-.523.702-.577 1.208v5.245h-1.358v-5.18c0-1.148-.563-1.723-1.688-1.723-.886 0-1.492.377-1.818 1.132v5.77h-1.352v-7.903h1.279zm19.656 3.601h-2.498v4.303h-1.41V63.834h3.52c1.199 0 2.12.273 2.766.818.645.546.967 1.34.967 2.382 0 .662-.179 1.24-.536 1.73-.358.493-.856.86-1.494 1.104l2.498 4.514v.088h-1.505l-2.308-4.303zm-2.498-1.146h2.155c.696 0 1.25-.18 1.661-.541.412-.36.618-.842.618-1.446 0-.658-.196-1.162-.588-1.512-.392-.35-.958-.529-1.699-.534h-2.147v4.033zm12.476 5.449c-.078-.156-.141-.434-.19-.833-.628.653-1.378.979-2.25.979-.779 0-1.418-.22-1.917-.661-.5-.441-.749-1-.749-1.677 0-.823.313-1.462.939-1.917.625-.455 1.506-.683 2.64-.683h1.315v-.62c0-.473-.141-.85-.424-1.13-.282-.28-.698-.42-1.249-.42-.482 0-.886.122-1.212.366-.327.243-.49.538-.49.884h-1.358c0-.395.14-.776.42-1.144.28-.367.66-.658 1.14-.872a3.833 3.833 0 0 1 1.58-.322c.911 0 1.625.228 2.14.683.517.455.785 1.082.804 1.881v3.638c0 .725.093 1.302.278 1.73v.118h-1.417zm-2.243-1.03c.424 0 .826-.11 1.206-.329.38-.22.655-.504.825-.855v-1.621h-1.06c-1.655 0-2.483.484-2.483 1.453 0 .424.142.755.424.994.282.238.645.358 1.088.358zm6.852-5.917c.599-.735 1.378-1.103 2.337-1.103 1.67 0 2.513.942 2.528 2.827v5.223h-1.352v-5.23c-.004-.57-.135-.991-.39-1.264-.256-.273-.654-.409-1.195-.409a1.95 1.95 0 0 0-1.154.35 2.38 2.38 0 0 0-.774.92v5.633h-1.351V63.25h1.351v4.273zm8.16-.957l.036.877c.58-.682 1.36-1.023 2.344-1.023 1.106 0 1.858.424 2.257 1.271.263-.38.606-.686 1.027-.92.421-.234.919-.35 1.494-.35 1.733 0 2.615.917 2.644 2.753v5.296h-1.352v-5.216c0-.565-.129-.987-.387-1.267-.258-.28-.691-.42-1.3-.42-.502 0-.918.15-1.249.45-.331.299-.523.702-.577 1.208v5.245h-1.359v-5.18c0-1.148-.562-1.723-1.687-1.723-.886 0-1.493.377-1.819 1.132v5.77h-1.351v-7.903h1.278zm15.12 8.05c-1.072 0-1.944-.352-2.616-1.056-.672-.703-1.008-1.644-1.008-2.823v-.248c0-.784.15-1.484.45-2.1.3-.616.718-1.098 1.256-1.447a3.159 3.159 0 0 1 1.75-.522c1.027 0 1.826.339 2.395 1.015.57.677.855 1.646.855 2.908v.562h-5.354c.02.78.247 1.409.683 1.888.436.48.99.72 1.661.72.478 0 .882-.098 1.213-.292.331-.195.62-.453.87-.775l.825.643c-.663 1.018-1.656 1.527-2.98 1.527zm-.169-7.086c-.545 0-1.003.199-1.373.596-.37.397-.599.953-.686 1.669h3.959v-.102c-.04-.687-.224-1.22-.556-1.596-.33-.378-.779-.567-1.344-.567zm6.092-.964l.044.994c.604-.76 1.393-1.14 2.367-1.14 1.67 0 2.513.942 2.527 2.827v5.223h-1.351v-5.23c-.005-.57-.135-.991-.39-1.264-.257-.273-.655-.409-1.195-.409a1.95 1.95 0 0 0-1.154.35 2.38 2.38 0 0 0-.775.92v5.633h-1.35v-7.904h1.277zm13.29 6.07l1.958-6.07h1.38l-2.834 7.904h-1.03l-2.863-7.904h1.38l2.01 6.07zm4.171-2.191c0-.774.152-1.47.457-2.09.304-.618.728-1.095 1.27-1.43.544-.337 1.163-.505 1.86-.505 1.076 0 1.946.373 2.611 1.118.665.745.997 1.736.997 2.973v.095c0 .769-.147 1.46-.442 2.07a3.356 3.356 0 0 1-1.263 1.428c-.548.341-1.178.512-1.889.512-1.071 0-1.939-.373-2.604-1.118-.664-.745-.997-1.731-.997-2.958v-.095zm1.359.16c0 .877.203 1.58.61 2.112.406.53.95.796 1.632.796.687 0 1.232-.27 1.637-.807.404-.538.606-1.292.606-2.261 0-.867-.206-1.57-.617-2.107-.412-.539-.959-.808-1.64-.808-.667 0-1.206.266-1.615.797-.409.53-.613 1.29-.613 2.279zm8.809-4.039l.044.994c.604-.76 1.393-1.14 2.367-1.14 1.67 0 2.512.942 2.527 2.827v5.223h-1.351v-5.23c-.005-.57-.136-.991-.391-1.264-.256-.273-.654-.409-1.195-.409a1.95 1.95 0 0 0-1.154.35 2.38 2.38 0 0 0-.774.92v5.633h-1.351v-7.904h1.278zm-155.702 15.22v7.231c-.005 1.003-.32 1.824-.946 2.462-.626.638-1.474.996-2.546 1.074l-.372.014c-1.164 0-2.092-.314-2.783-.942-.692-.628-1.042-1.493-1.052-2.593v-7.246h1.388v7.202c0 .77.212 1.367.635 1.793.424.426 1.028.64 1.812.64.794 0 1.401-.212 1.822-.636.422-.424.632-1.02.632-1.79v-7.21h1.41zm3.272 2.732l.037.876c.58-.681 1.361-1.022 2.345-1.022 1.105 0 1.857.423 2.257 1.27.263-.38.605-.686 1.026-.92.421-.233.92-.35 1.494-.35 1.733 0 2.615.918 2.644 2.753v5.296h-1.351v-5.215c0-.565-.13-.988-.387-1.268-.258-.28-.692-.42-1.3-.42-.502 0-.919.15-1.25.45-.33.3-.523.702-.577 1.209v5.244h-1.358v-5.179c0-1.149-.563-1.724-1.688-1.724-.886 0-1.492.378-1.819 1.133v5.77h-1.35v-7.903h1.277zm18.839 6.04l1.52-6.04h1.35l-2.3 7.903h-1.096l-1.921-5.99-1.87 5.99h-1.096l-2.294-7.903h1.345l1.555 5.916 1.841-5.916h1.088l1.878 6.04zm7.523 2.01c-1.071 0-1.943-.353-2.615-1.056-.672-.704-1.008-1.645-1.008-2.823v-.249c0-.784.15-1.484.45-2.1.299-.616.718-1.098 1.256-1.446a3.159 3.159 0 0 1 1.75-.522c1.027 0 1.825.338 2.395 1.015.57.677.855 1.646.855 2.907v.563h-5.354c.02.779.247 1.408.683 1.888.435.48.99.72 1.661.72.478 0 .882-.098 1.213-.293.331-.195.62-.453.87-.774l.825.643c-.663 1.017-1.656 1.526-2.98 1.526zm-.168-7.086c-.545 0-1.003.198-1.373.595-.37.397-.599.953-.687 1.67h3.96v-.103c-.04-.687-.224-1.219-.556-1.596-.33-.377-.779-.566-1.344-.566zm6.282 6.94h-1.351v-11.22h1.351v11.22zm3.996-9.818v1.914h1.475v1.044h-1.475v4.902c0 .316.066.554.197.712.131.158.355.237.672.237.156 0 .37-.029.643-.087v1.095a3.918 3.918 0 0 1-1.037.146c-.604 0-1.06-.182-1.366-.548-.307-.365-.46-.883-.46-1.555v-4.902h-1.44v-1.044h1.44v-1.914h1.35zm5.658 7.984l1.957-6.07h1.381l-2.834 7.903h-1.03l-2.863-7.903h1.38l2.009 6.07zm7.826 1.98c-1.071 0-1.943-.353-2.615-1.056-.672-.704-1.008-1.645-1.008-2.823v-.249c0-.784.15-1.484.45-2.1.299-.616.718-1.098 1.256-1.446a3.159 3.159 0 0 1 1.749-.522c1.028 0 1.826.338 2.396 1.015.57.677.855 1.646.855 2.907v.563h-5.355c.02.779.247 1.408.683 1.888.436.48.99.72 1.662.72.477 0 .882-.098 1.213-.293.33-.195.62-.453.869-.774l.825.643c-.662 1.017-1.655 1.526-2.98 1.526zm-.168-7.086c-.545 0-1.003.198-1.373.595-.37.397-.6.953-.687 1.67h3.96v-.103c-.04-.687-.225-1.219-.556-1.596-.331-.377-.78-.566-1.344-.566zm8.637.248a4.05 4.05 0 0 0-.665-.05c-.886 0-1.487.377-1.804 1.131v5.61h-1.351v-7.903h1.315l.022.913c.443-.706 1.071-1.06 1.884-1.06.263 0 .463.035.6.103v1.256zm3.434-3.126v1.914h1.476v1.044h-1.476v4.902c0 .316.066.554.197.712.132.158.356.237.672.237.156 0 .37-.029.643-.087v1.095a3.918 3.918 0 0 1-1.037.146c-.604 0-1.06-.182-1.366-.548-.307-.365-.46-.883-.46-1.555v-4.902h-1.44v-1.044h1.44v-1.914h1.351zm6.87 3.126a4.05 4.05 0 0 0-.664-.05c-.886 0-1.488.377-1.804 1.131v5.61h-1.352v-7.903h1.315l.022.913c.443-.706 1.071-1.06 1.885-1.06.263 0 .462.035.599.103v1.256zm5.83 6.691c-.079-.156-.142-.433-.19-.833-.629.653-1.379.98-2.25.98-.78 0-1.419-.221-1.918-.662-.499-.44-.749-1-.749-1.676 0-.823.313-1.462.94-1.918.625-.455 1.505-.683 2.64-.683h1.314v-.62c0-.473-.14-.849-.423-1.129s-.699-.42-1.25-.42c-.481 0-.886.122-1.212.365-.326.244-.49.538-.49.884h-1.358c0-.394.14-.775.42-1.143.28-.368.66-.659 1.14-.873a3.833 3.833 0 0 1 1.581-.321c.91 0 1.624.227 2.14.683.517.455.784 1.082.804 1.88v3.638c0 .726.092 1.303.277 1.731v.117h-1.417zm-2.243-1.03c.423 0 .825-.11 1.205-.328.38-.22.655-.504.825-.855v-1.622h-1.059c-1.655 0-2.483.485-2.483 1.454 0 .424.141.755.423.993.283.239.646.358 1.089.358zm-1.76-8.984c0-.22.066-.403.2-.552.134-.148.333-.223.596-.223.263 0 .462.075.599.223a.785.785 0 0 1 .204.552c0 .219-.068.401-.204.548-.137.146-.336.219-.6.219-.262 0-.46-.073-.595-.22a.78.78 0 0 1-.2-.547zm3.14.014c0-.219.067-.404.201-.555.134-.15.333-.226.596-.226.263 0 .462.075.599.226a.798.798 0 0 1 .204.555c0 .22-.068.402-.204.548-.137.146-.336.22-.6.22-.262 0-.46-.074-.595-.22a.78.78 0 0 1-.2-.548zm3.799 5.983c0-1.232.285-2.212.854-2.94.57-.728 1.325-1.092 2.265-1.092.964 0 1.716.34 2.257 1.022l.066-.876h1.234v7.713c0 1.023-.303 1.829-.91 2.418-.606.59-1.42.884-2.443.884-.57 0-1.127-.122-1.672-.365-.546-.244-.962-.577-1.25-1.001l.702-.81c.58.715 1.288 1.073 2.125 1.073.658 0 1.17-.185 1.538-.555.368-.37.551-.891.551-1.563v-.68c-.54.624-1.278.935-2.213.935-.925 0-1.674-.372-2.246-1.117-.572-.745-.858-1.76-.858-3.046zm1.358.153c0 .891.183 1.591.548 2.1.365.51.877.763 1.534.763.852 0 1.478-.387 1.877-1.16v-3.61c-.414-.754-1.034-1.132-1.862-1.132-.658 0-1.171.256-1.542.767-.37.512-.555 1.269-.555 2.272zm8.824 3.864h-1.351v-11.22h1.351v11.22zm3.63 0h-1.35v-7.903h1.35v7.903zm-1.46-10c0-.219.067-.404.2-.555.134-.15.333-.226.596-.226.263 0 .462.075.599.226a.798.798 0 0 1 .204.555c0 .22-.068.402-.204.548-.137.146-.336.22-.6.22-.262 0-.46-.074-.595-.22a.78.78 0 0 1-.2-.548zm6.793 9.043c.482 0 .903-.146 1.263-.438.36-.292.56-.657.6-1.096h1.278a2.45 2.45 0 0 1-.468 1.293c-.287.41-.67.736-1.15.98a3.32 3.32 0 0 1-1.523.364c-1.076 0-1.932-.359-2.568-1.077-.635-.718-.953-1.7-.953-2.947v-.227c0-.77.141-1.454.424-2.052a3.227 3.227 0 0 1 1.216-1.396c.528-.33 1.153-.496 1.873-.496.887 0 1.623.265 2.21.796.587.53.9 1.22.939 2.067h-1.279c-.039-.511-.232-.931-.58-1.26-.348-.329-.778-.493-1.29-.493-.686 0-1.218.247-1.596.741-.377.495-.566 1.21-.566 2.144v.256c0 .91.188 1.612.563 2.104.375.491.91.737 1.607.737zm6.011-5.99c.6-.735 1.378-1.102 2.338-1.102 1.67 0 2.513.942 2.527 2.826v5.223H285.4v-5.23c-.005-.57-.135-.99-.391-1.263-.256-.273-.654-.41-1.194-.41a1.95 1.95 0 0 0-1.154.351 2.38 2.38 0 0 0-.775.92v5.632h-1.351v-11.22h1.351v4.274zm9.097 3.288l-.848.883v2.776h-1.35v-11.22h1.35v6.786l.724-.869 2.461-2.6h1.644l-3.075 3.301 3.433 4.602h-1.585l-2.754-3.66zm8.51 3.805c-1.072 0-1.944-.352-2.616-1.055-.672-.704-1.008-1.645-1.008-2.823v-.249c0-.784.15-1.484.45-2.1.299-.616.718-1.098 1.256-1.446a3.159 3.159 0 0 1 1.75-.522c1.027 0 1.825.338 2.395 1.015.57.677.855 1.646.855 2.907v.563h-5.354c.02.779.247 1.408.683 1.888.435.48.99.72 1.661.72.478 0 .882-.098 1.213-.293.331-.195.62-.453.87-.774l.825.643c-.663 1.017-1.656 1.526-2.98 1.526zm-.169-7.085c-.545 0-1.003.198-1.373.595-.37.397-.599.953-.687 1.67h3.96v-.103c-.04-.687-.225-1.219-.556-1.596-.33-.377-.779-.566-1.344-.566zm6.282 6.94h-1.351v-7.904h1.351v7.903zm-1.46-10c0-.22.066-.405.2-.556.134-.15.333-.226.595-.226.263 0 .463.075.6.226a.798.798 0 0 1 .204.555c0 .22-.068.402-.205.548-.136.146-.336.22-.599.22-.262 0-.46-.074-.595-.22a.78.78 0 0 1-.2-.548zm5.456.182v1.914h1.475v1.044h-1.475v4.902c0 .316.065.554.197.712.131.158.355.237.672.237.156 0 .37-.029.643-.087v1.095a3.918 3.918 0 0 1-1.037.146c-.604 0-1.06-.182-1.366-.548-.307-.365-.46-.883-.46-1.555v-4.902h-1.44v-1.044h1.44v-1.914h1.35zm7.655 7.72c0-.364-.138-.648-.413-.85-.275-.202-.755-.376-1.439-.522-.684-.147-1.227-.322-1.629-.526-.401-.205-.699-.448-.89-.73a1.747 1.747 0 0 1-.29-1.009c0-.647.275-1.195.822-1.643.548-.448 1.248-.672 2.1-.672.896 0 1.623.231 2.18.694.558.462.837 1.054.837 1.775h-1.358c0-.37-.158-.69-.472-.957-.314-.268-.71-.402-1.187-.402-.491 0-.876.107-1.154.321a1.012 1.012 0 0 0-.416.84c0 .327.129.573.387.738.258.166.724.324 1.399.475.674.15 1.22.331 1.64.54.419.21.729.462.931.756.202.295.303.654.303 1.078 0 .706-.282 1.272-.847 1.698-.565.426-1.298.64-2.199.64-.633 0-1.193-.113-1.68-.337a2.732 2.732 0 0 1-1.143-.938 2.262 2.262 0 0 1-.413-1.304h1.352c.024.453.205.812.544 1.077.338.266.785.398 1.34.398.512 0 .922-.103 1.231-.31.31-.207.464-.483.464-.83zm9.788-1.767c0 1.203-.275 2.172-.826 2.907-.55.736-1.295 1.103-2.235 1.103-.959 0-1.714-.304-2.264-.913v3.806h-1.351V84.518h1.234l.066.876c.55-.681 1.315-1.022 2.293-1.022.95 0 1.701.358 2.254 1.073.553.716.829 1.712.829 2.988v.124zm-1.351-.153c0-.891-.19-1.595-.57-2.111-.38-.516-.901-.775-1.563-.775-.818 0-1.432.363-1.841 1.089v3.776c.404.721 1.023 1.081 1.855 1.081.648 0 1.163-.257 1.545-.77.382-.514.574-1.277.574-2.29zm6.888-2.674a4.05 4.05 0 0 0-.665-.05c-.886 0-1.488.377-1.804 1.131v5.61h-1.352v-7.903h1.315l.022.913c.443-.706 1.071-1.06 1.885-1.06.263 0 .462.035.599.103v1.256zm6.12 5.91c-.525.618-1.297.927-2.315.927-.842 0-1.484-.244-1.924-.734-.441-.49-.664-1.214-.669-2.173v-5.142h1.352v5.106c0 1.198.487 1.796 1.46 1.796 1.033 0 1.72-.384 2.06-1.154v-5.748h1.352v7.903h-1.286l-.03-.781zm-4.104-9.233c0-.22.067-.403.2-.552.134-.148.333-.223.596-.223.263 0 .463.075.599.223a.785.785 0 0 1 .204.552c0 .219-.068.401-.204.548-.136.146-.336.219-.6.219-.262 0-.46-.073-.594-.22a.78.78 0 0 1-.201-.547zm3.14.014c0-.219.068-.404.202-.555.133-.15.332-.226.595-.226.263 0 .462.075.599.226a.798.798 0 0 1 .204.555c0 .22-.068.402-.204.548-.137.146-.336.22-.6.22-.262 0-.46-.074-.594-.22a.78.78 0 0 1-.201-.548zm4.995 10v-6.859h-1.25v-1.044h1.25v-.811c0-.847.226-1.502.68-1.965.452-.463 1.092-.694 1.92-.694.312 0 .621.042.928.124l-.073 1.096a3.881 3.881 0 0 0-.73-.066c-.439 0-.777.128-1.016.384-.238.255-.358.622-.358 1.099v.833h1.688v1.044h-1.688v6.86h-1.351zm7.63.146c-1.07 0-1.942-.352-2.614-1.055-.672-.704-1.008-1.645-1.008-2.823v-.249c0-.784.15-1.484.449-2.1.3-.616.718-1.098 1.256-1.446a3.159 3.159 0 0 1 1.75-.522c1.027 0 1.826.338 2.396 1.015.57.677.854 1.646.854 2.907v.563h-5.354c.02.779.247 1.408.683 1.888.436.48.99.72 1.662.72.477 0 .881-.098 1.212-.293.331-.195.621-.453.87-.774l.825.643c-.662 1.017-1.656 1.526-2.98 1.526zm-.167-7.085c-.546 0-1.003.198-1.373.595-.37.397-.6.953-.687 1.67h3.959v-.103c-.039-.687-.224-1.219-.555-1.596-.331-.377-.78-.566-1.344-.566zm6.092-.964l.044.993c.603-.76 1.392-1.14 2.366-1.14 1.67 0 2.513.943 2.528 2.827v5.223h-1.352v-5.23c-.005-.57-.135-.99-.39-1.263-.256-.273-.654-.41-1.195-.41a1.95 1.95 0 0 0-1.154.351 2.38 2.38 0 0 0-.774.92v5.632h-1.352v-7.903h1.279z" fill="#203564"/><g transform="translate(164.431 10.692)"><use fill="#000000" xlink:href="#a"/><use fill="#1D4B7B" xlink:href="#a"/></g><path d="M38.071.83a8.051 8.051 0 0 0-8.079 8.143V37.12a6.733 6.733 0 0 1-6.727 6.493 6.733 6.733 0 0 1-6.727-6.493V8.947a8.118 8.118 0 0 0-3.976-7.25 8.11 8.11 0 0 0-8.266 0A8.118 8.118 0 0 0 .32 8.947V38.582c.012.257.038.514.077.769.945 12.246 11.36 21.575 23.63 21.165 12.27-.41 22.041-10.414 22.167-22.695V8.973A8.15 8.15 0 0 0 38.07.83z" fill="url(#b)" transform="translate(.127 -1.324)"/><path d="M121.774.64H106.74c-4.82 0-8.728 3.909-8.728 8.73v42.948a8.435 8.435 0 0 0 8.434 8.437 8.435 8.435 0 0 0 8.433-8.437V46.18h6.922c12.39-.242 22.307-10.36 22.307-22.757 0-12.398-9.918-22.516-22.308-22.757l-.026-.026zm1.495 28.64h-8.39V17.514h8.39a5.898 5.898 0 0 1 0 11.791v-.025z" fill="url(#c)" fill-rule="nonzero" transform="translate(.127 -1.324)"/><path d="M75.235 60.133a8.421 8.421 0 0 1-10.974-4.66L46.807 12.25a8.439 8.439 0 0 1 4.657-10.97 8.43 8.43 0 0 1 10.983 4.659L79.9 49.162a8.432 8.432 0 0 1-4.666 10.97z" fill="url(#d)" transform="translate(.127 -1.324)"/><path d="M92.681 1.314a8.43 8.43 0 0 0-10.982 4.66L64.26 49.153A8.44 8.44 0 0 0 68.92 60.14 8.44 8.44 0 0 0 79.9 55.473l17.437-43.18a8.439 8.439 0 0 0-4.657-10.979z" fill="url(#e)" transform="translate(.127 -1.324)"/><path d="M72.234 59.431a8.441 8.441 0 0 1-7.069-3.741 8.45 8.45 0 0 1-.777-7.964c1.729-4.166 7.777-19.208 7.777-19.208s5.772 14.022 7.82 19.208a8.432 8.432 0 0 1-.739 7.932 8.424 8.424 0 0 1-7.012 3.773zM23.397 59.431a8.468 8.468 0 0 1-7.83-5.223 8.475 8.475 0 0 1 1.83-9.236 8.465 8.465 0 0 1 9.23-1.84 8.472 8.472 0 0 1 5.229 7.828c0 4.675-3.786 8.467-8.46 8.471zM115.006 27.982a8.435 8.435 0 0 0-8.433 8.437 8.435 8.435 0 0 0 8.433 8.437V27.982z" fill="#01383A"/></g></svg>