<?xml version="1.0" encoding="UTF-8"?>
<svg width="400px" height="88px" viewBox="0 0 400 88" version="1.1" xmlns="http://www.w3.org/2000/svg" xmlns:xlink="http://www.w3.org/1999/xlink">
    <!-- Generator: Sketch 53.2 (72643) - https://sketchapp.com -->
    <title>assets/images/svg/logos/logo</title>
    <desc>Created with Sketch.</desc>
    <defs>
        <path d="M11.3694268,5.95442065 L8.16024319,6.46136459 L16.0263624,29.2979822 L16.8226261,32.0741038 L16.9674013,32.0741038 L17.7636649,29.2979822 L25.6056549,6.4372244 L22.4447297,5.95442065 L22.4447297,2.8886168 L33.5200326,2.8886168 L33.5200326,5.95442065 L30.6969161,6.34066365 L18.9218665,38.0367301 L14.8440316,38.0367301 L3.06898196,6.34066365 L0.269994738,5.95442065 L0.269994738,2.8886168 L11.3694268,2.8886168 L11.3694268,5.95442065 Z M44.0940227,38.5436741 C40.4585384,38.5436741 37.5670848,37.3326534 35.4195753,34.9105758 C33.2720657,32.4884982 32.198327,29.3462819 32.198327,25.4838325 L32.198327,24.4216643 C32.198327,20.7040568 33.3042377,17.6101203 35.5160921,15.1397621 C37.7279465,12.6694038 40.3459385,11.4342433 43.3701467,11.4342433 C46.8769413,11.4342433 49.5351483,12.4964009 51.3448474,14.620748 C53.1545464,16.7450952 54.0593824,19.5775155 54.0593824,23.1180941 L54.0593824,26.0873372 L37.1206839,26.0873372 L37.0482963,26.2080381 C37.0965549,28.7186302 37.7319508,30.7825956 38.9545031,32.3999963 C40.1770553,34.017397 41.8902114,34.8260852 44.0940227,34.8260852 C45.7026441,34.8260852 47.1141882,34.5967557 48.3286974,34.1380898 C49.5432065,33.679424 50.5928162,33.047762 51.477558,32.2430851 L53.3355064,35.3330291 C52.402506,36.2342673 51.1679076,36.9946756 49.6316742,37.6142768 C48.0954407,38.2338781 46.2495754,38.5436741 44.0940227,38.5436741 Z M43.3701467,15.1759724 C41.7776115,15.1759724 40.4183469,15.8478675 39.2923119,17.191678 C38.1662769,18.5354885 37.4745801,20.2212614 37.2172007,22.2490474 L37.2654591,22.3697483 L49.30593,22.3697483 L49.30593,21.7421034 C49.30593,19.8752529 48.8072648,18.314203 47.8099196,17.058907 C46.8125743,15.803611 45.3326648,15.1759724 43.3701467,15.1759724 Z M57.4571105,14.9828509 L57.4571105,11.917047 L65.6369093,11.917047 L66.0953641,15.7070565 C66.83533,14.3712928 67.7482089,13.3252284 68.8340283,12.5688321 C69.9198478,11.8124358 71.1624892,11.4342433 72.5619898,11.4342433 C72.9319727,11.4342433 73.3140145,11.4624065 73.7081268,11.5187339 C74.102239,11.5750613 74.403851,11.6354112 74.6129718,11.6997853 L73.9856126,16.1174397 L71.2831422,15.9725985 C70.0284175,15.9725985 68.9747863,16.2663012 68.1222169,16.8537154 C67.2696476,17.4411296 66.6101227,18.2659111 66.1436225,19.3280846 L66.1436225,34.3191412 L70.0766822,34.9950665 L70.0766822,38.0367301 L57.4571105,38.0367301 L57.4571105,34.9950665 L61.3901701,34.3191412 L61.3901701,15.6587761 L57.4571105,14.9828509 Z M100.786766,25.9666363 C100.786766,29.7325244 99.8819302,32.7701343 98.0722312,35.0795571 C96.2625321,37.38898 93.7732279,38.5436741 90.6042437,38.5436741 C88.8991051,38.5436741 87.4191956,38.2177848 86.1644709,37.5659965 C84.9097462,36.9142081 83.864158,35.9526336 83.0276749,34.681244 L82.5933493,38.0367301 L78.4913852,38.0367301 L78.4913852,4.11976638 L74.5583256,3.44384112 L74.5583256,0.378037281 L83.2448377,0.378037281 L83.2448377,15.006991 C84.0652346,13.8482562 85.0826724,12.9631249 86.2971815,12.3515704 C87.5116907,11.7400159 88.9312777,11.4342433 90.5559853,11.4342433 C93.7732281,11.4342433 96.2826398,12.7217071 98.0842958,15.2966733 C99.8859517,17.8716395 100.786766,21.2592787 100.786766,25.4596923 L100.786766,25.9666363 Z M96.0091846,25.4596923 C96.0091846,22.4502005 95.4622615,20.0040193 94.368399,18.1210753 C93.2745364,16.2381312 91.6015953,15.2966733 89.3495253,15.2966733 C87.8856799,15.2966733 86.6510815,15.6507258 85.6456931,16.3588416 C84.6403047,17.0669573 83.8400276,18.0164618 83.2448377,19.2073837 L83.2448377,30.7463934 C83.8400276,31.9534089 84.6483477,32.9109601 85.6698223,33.6190758 C86.6912969,34.3271915 87.9339383,34.681244 89.3977837,34.681244 C91.6337675,34.681244 93.2946441,33.8846258 94.3804636,32.2913654 C95.466283,30.6981051 96.0091846,28.5898831 96.0091846,25.9666363 L96.0091846,25.4596923 Z M122.853791,34.1743001 C122.033394,35.574438 120.975741,36.6526889 119.680801,37.4090852 C118.385861,38.1654816 116.893887,38.5436741 115.204835,38.5436741 C112.373661,38.5436741 110.16184,37.6344028 108.569305,35.8158329 C106.976769,33.997263 106.180514,31.1648426 106.180514,27.3184868 L106.180514,15.6587761 L103.188493,14.9828509 L103.188493,11.917047 L110.933966,11.917047 L110.933966,27.3667672 C110.933966,30.1509494 111.344158,32.0660518 112.164555,33.1121318 C112.984952,34.1582119 114.263787,34.681244 116.001098,34.681244 C117.690151,34.681244 119.085609,34.3392615 120.187514,33.6552861 C121.28942,32.9713107 122.121869,32.0016895 122.684887,30.7463934 L122.684887,15.6587761 L119.186153,14.9828509 L119.186153,11.917047 L127.438339,11.917047 L127.438339,34.3191412 L130.43036,34.9950665 L130.43036,38.0367301 L123.167471,38.0367301 L122.853791,34.1743001 Z M133.461538,34.9950665 L137.394598,34.3191412 L137.394598,15.6587761 L133.461538,14.9828509 L133.461538,11.917047 L141.641337,11.917047 L141.979146,15.8036172 C142.847802,14.4195729 143.937626,13.3453453 145.248653,12.5809022 C146.559679,11.8164591 148.051653,11.4342433 149.724619,11.4342433 C152.539707,11.4342433 154.719356,12.2590248 156.263633,13.9086125 C157.807909,15.5582002 158.580036,18.1049646 158.580036,21.5489819 L158.580036,34.3191412 L162.513095,34.9950665 L162.513095,38.0367301 L149.893524,38.0367301 L149.893524,34.9950665 L153.826583,34.3191412 L153.826583,21.6455427 C153.826583,19.3441666 153.372155,17.7106969 152.463284,16.7450846 C151.554412,15.7794722 150.166997,15.2966733 148.300997,15.2966733 C146.933668,15.2966733 145.723199,15.6265859 144.669552,16.286421 C143.615905,16.9462561 142.775413,17.8474807 142.14805,18.990122 L142.14805,34.3191412 L146.08111,34.9950665 L146.08111,38.0367301 L133.461538,38.0367301 L133.461538,34.9950665 Z M182.244773,34.9226459 C181.392204,36.1135678 180.350637,37.0147925 179.120042,37.6263469 C177.889446,38.2379014 176.461816,38.5436741 174.837109,38.5436741 C171.652038,38.5436741 169.162734,37.38898 167.369121,35.0795571 C165.575508,32.7701343 164.678715,29.7325244 164.678715,25.9666363 L164.678715,25.4596923 C164.678715,21.2592787 165.575508,17.8716395 167.369121,15.2966733 C169.162734,12.7217071 171.668124,11.4342433 174.885367,11.4342433 C176.429644,11.4342433 177.79293,11.7198993 178.975266,12.2912199 C180.157603,12.8625406 181.166998,13.6873221 182.003481,14.7655892 L182.003481,4.11976638 L178.070421,3.44384112 L178.070421,0.378037281 L186.756934,0.378037281 L186.756934,34.3191412 L190.689993,34.9950665 L190.689993,38.0367301 L182.63084,38.0367301 L182.244773,34.9226459 Z M169.432168,25.9666363 C169.432168,28.5898831 169.971048,30.6981051 171.048824,32.2913654 C172.126601,33.8846258 173.791499,34.681244 176.043569,34.681244 C177.459155,34.681244 178.649517,34.3593781 179.61469,33.7156365 C180.579863,33.071895 181.376119,32.1626237 182.003481,30.9877953 L182.003481,18.8694211 C181.392205,17.7750604 180.595949,16.9060224 179.61469,16.2622808 C178.633431,15.6185392 177.459155,15.2966733 176.091827,15.2966733 C173.823671,15.2966733 172.146708,16.2381312 171.060889,18.1210753 C169.975069,20.0040193 169.432168,22.4502005 169.432168,25.4596923 L169.432168,25.9666363 Z" id="path-1"></path>
        <linearGradient x1="0.00945548899%" y1="50.4089723%" x2="100.056502%" y2="50.4089723%" id="linearGradient-2">
            <stop stop-color="#349980" offset="0%"></stop>
            <stop stop-color="#45A965" offset="100%"></stop>
        </linearGradient>
        <linearGradient x1="0%" y1="50%" x2="100.886843%" y2="50%" id="linearGradient-3">
            <stop stop-color="#349980" offset="0%"></stop>
            <stop stop-color="#45A965" offset="100%"></stop>
        </linearGradient>
        <linearGradient x1="-0.00420800856%" y1="50.000327%" x2="100.006616%" y2="50.000327%" id="linearGradient-4">
            <stop stop-color="#75B843" offset="0%"></stop>
            <stop stop-color="#95C11F" offset="100%"></stop>
        </linearGradient>
        <linearGradient x1="0.00680391866%" y1="49.9941272%" x2="99.9954546%" y2="49.9941272%" id="linearGradient-5">
            <stop stop-color="#75B843" offset="0%"></stop>
            <stop stop-color="#95C11F" offset="100%"></stop>
        </linearGradient>
    </defs>
    <g id="assets/images/svg/logos/logo" stroke="none" stroke-width="1" fill="none" fill-rule="evenodd">
        <g id="UVP-logo-RGB_ohne-claim" transform="translate(0.000000, 13.814999)">
            <g id="Verbund" transform="translate(164.304369, 12.016149)">
                <g id="Combined-Shape">
                    <use fill="#000000" xlink:href="#path-1"></use>
                    <use fill="#1D4B7B" xlink:href="#path-1"></use>
                </g>
            </g>
            <g id="logo">
                <path d="M38.0712621,0.829892294 C35.9158738,0.822826898 33.8476071,1.68047003 32.3292037,3.21093779 C30.8108003,4.74140555 29.9689977,6.81695328 29.9921359,8.97321043 L29.9921359,37.1203907 L29.9921359,37.1203907 C29.862325,40.743392 26.8889693,43.6133808 23.2652913,43.6133808 C19.6416132,43.6133808 16.6682575,40.743392 16.5384466,37.1203907 L16.5384466,37.1203907 L16.5384466,8.94727629 C16.6350918,5.98560337 15.1109402,3.20657106 12.5621196,1.69711716 C10.0132991,0.187663271 6.84485627,0.187663271 4.29603569,1.69711716 C1.74721511,3.20657106 0.223063585,5.98560337 0.319708738,8.94727629 L0.319708738,37.8119676 L0.319708738,37.8119676 L0.319708738,38.5813469 C0.33235,38.838977 0.35830703,39.09578 0.397475728,39.3507263 C1.34168792,51.596507 11.7578738,60.9263655 24.0276048,60.5164162 C36.2973358,60.1064669 46.0681265,50.1021326 46.1935922,37.8206123 L46.1935922,37.8206123 L46.1935922,8.97321043 C46.188857,4.48448828 42.557921,0.844169936 38.0712621,0.829892294 Z" id="Path" fill="url(#linearGradient-2)"></path>
                <path d="M121.774466,0.639708643 C121.60165,0.639708643 121.437476,0.639708643 121.26466,0.639708643 L121.26466,0.639708643 L106.739515,0.639708643 C101.919624,0.639708643 98.0123301,4.54878146 98.0123301,9.37086715 L98.0123301,37.561271 L98.0123301,37.561271 L98.0123301,52.3177933 C98.0123301,56.9775514 101.788091,60.7550317 106.445728,60.7550317 C111.103365,60.7550317 114.879126,56.9775514 114.879126,52.3177933 L114.879126,46.1800483 L121.290583,46.1800483 L121.290583,46.1800483 C121.463398,46.1800483 121.627573,46.1800483 121.800388,46.1800483 C134.19035,45.9384443 144.108192,35.8208032 144.108192,23.4228455 C144.108192,11.0248879 134.19035,0.907246766 121.800388,0.665642777 L121.774466,0.639708643 Z M123.26932,29.2796375 L114.879126,29.2796375 L114.879126,17.5141853 L123.26932,17.5141853 C125.37469,17.5141852 127.320132,18.637898 128.372817,20.4620318 C129.425501,22.2861657 129.425501,24.5335912 128.372817,26.3577251 C127.320132,28.1818589 125.37469,29.3055717 123.26932,29.3055716 L123.26932,29.2796375 Z" id="Shape" fill="url(#linearGradient-3)" fill-rule="nonzero"></path>
                <path d="M75.2352427,60.1326124 L75.2352427,60.1326124 C73.162537,60.9719324 70.8413404,60.952458 68.7829959,60.0784794 C66.7246514,59.2045007 65.0980269,57.5477196 64.2614563,55.473113 L46.8070874,12.249556 C45.0708867,7.93360275 47.1543793,3.02607751 51.464466,1.27941729 L51.464466,1.27941729 C53.53839,0.439785969 55.8608054,0.459029367 57.9205443,1.33291197 C59.9802832,2.20679458 61.6085259,3.86369152 62.4468932,5.93891673 L79.9012621,49.1624737 C80.7370137,51.2362015 80.7149075,53.557185 79.839809,55.614603 C78.9647104,57.6720211 77.3083391,59.2972559 75.2352427,60.1326124 Z" id="Path" fill="url(#linearGradient-4)"></path>
                <path d="M92.6809709,1.31399613 L92.6809709,1.31399613 C90.6070469,0.474364814 88.2846315,0.493608213 86.2248926,1.36749082 C84.1651537,2.24137343 82.536911,3.89827037 81.6985437,5.97349557 L64.2614563,49.153829 C63.4222072,51.2286974 63.4414418,53.5521703 64.3149267,55.6128471 C65.1884115,57.6735239 66.8445543,59.3025081 68.918835,60.1412572 L68.918835,60.1412572 C73.2400097,61.8836141 78.1551338,59.7944122 79.9012621,55.473113 L97.3383495,12.2927796 C99.0802885,7.97440713 96.9957933,3.06065127 92.6809709,1.31399613 Z" id="Path" fill="url(#linearGradient-5)"></path>
                <path d="M72.1072816,60.7550317 C69.2724218,60.7744155 66.6171059,59.368974 65.0381571,57.0133901 C63.4592083,54.6578062 63.1674627,51.6666195 64.2614563,49.0500924 C65.9896117,44.8833416 72.0381553,29.8415437 72.0381553,29.8415437 C72.0381553,29.8415437 77.8101942,43.8632656 79.8580583,49.0500924 C80.9548135,51.6508476 80.6774561,54.6282077 79.1192126,56.9814099 C77.5609692,59.3346121 74.9287402,60.7512029 72.1072816,60.7550317 Z" id="Path" fill="#01383A"></path>
                <path d="M23.2696117,60.7550317 C19.8438569,60.7585289 16.7534801,58.6966558 15.4400776,55.5312331 C14.1266751,52.3658104 14.8490235,48.7205138 17.2701624,46.2957983 C19.6913012,43.8710827 23.3341992,43.1446842 26.4995204,44.4554524 C29.6648416,45.7662206 31.7289303,48.855898 31.728932,52.2832145 C31.7289345,56.958696 27.9429627,60.7502608 23.2696117,60.7550317 L23.2696117,60.7550317 Z" id="Path" fill="#01383A"></path>
                <path d="M114.879126,29.3055716 C110.221489,29.3055718 106.445728,33.083052 106.445728,37.7428099 C106.445728,42.4025679 110.221489,46.1800481 114.879126,46.1800483 L114.879126,29.3055716 Z" id="Path" fill="#01383A"></path>
            </g>
        </g>
    </g>
</svg>