<?xml version="1.0" encoding="utf-8"?>
<!-- Generator: Adobe Illustrator 23.0.0, SVG Export Plug-In . SVG Version: 6.00 Build 0)  -->
<svg version="1.1" id="Ebene_1" xmlns="http://www.w3.org/2000/svg" xmlns:xlink="http://www.w3.org/1999/xlink" x="0px" y="0px"
	 viewBox="0 0 400 100" style="enable-background:new 0 0 400 100;" xml:space="preserve">
<style type="text/css">
	.st0{fill:#203564;}
	.st1{fill:url(#SVGID_1_);}
	.st2{fill:url(#SVGID_2_);}
	.st3{fill:url(#SVGID_3_);}
	.st4{fill:url(#SVGID_4_);}
	.st5{fill:#01383A;}
	.st6{enable-background:new    ;}
	.st7{fill:#1D4B7B;}
</style>
<path class="st0" d="M172.018,72.632l3.047-8.796h1.538L172.648,74.5h-1.245l-3.948-10.664h1.53
	C168.985,63.836,172.018,72.632,172.018,72.632z M177.123,70.464c0-0.776,0.153-1.474,0.458-2.094s0.73-1.099,1.274-1.436
	c0.545-0.337,1.166-0.505,1.864-0.505c1.08,0,1.952,0.373,2.619,1.12c0.666,0.747,1,1.741,1,2.981v0.095
	c0,0.772-0.148,1.464-0.444,2.077c-0.275,0.59-0.715,1.087-1.267,1.432c-0.55,0.342-1.18,0.512-1.893,0.512
	c-1.074,0-1.945-0.373-2.611-1.12c-0.667-0.747-1-1.736-1-2.966L177.123,70.464L177.123,70.464z M178.485,70.625
	c0,0.88,0.204,1.585,0.612,2.117s0.953,0.799,1.637,0.799c0.688,0,1.235-0.27,1.64-0.81c0.406-0.54,0.608-1.295,0.608-2.267
	c0-0.869-0.206-1.573-0.618-2.113c-0.413-0.54-0.961-0.809-1.645-0.809c-0.669,0-1.208,0.266-1.618,0.798
	C178.691,68.873,178.485,69.634,178.485,70.625z M189.867,67.791c-0.22-0.035-0.443-0.052-0.666-0.051
	c-0.889,0-1.492,0.378-1.81,1.135V74.5h-1.354v-7.925h1.318l0.022,0.916c0.444-0.708,1.074-1.062,1.89-1.062
	c0.263,0,0.463,0.034,0.6,0.102C189.867,66.531,189.867,67.791,189.867,67.791z M192.467,67.535c0.6-0.738,1.382-1.106,2.344-1.106
	c1.675,0,2.52,0.945,2.534,2.834V74.5h-1.355v-5.244c-0.005-0.571-0.135-0.994-0.392-1.267c-0.256-0.274-0.655-0.41-1.197-0.41
	c-0.44,0-0.825,0.117-1.157,0.351c-0.332,0.235-0.591,0.542-0.777,0.923V74.5h-1.355V63.25h1.355
	C192.467,63.25,192.467,67.535,192.467,67.535z M204.267,74.5c-0.079-0.156-0.142-0.435-0.19-0.835
	c-0.63,0.654-1.383,0.981-2.257,0.981c-0.78,0-1.422-0.22-1.922-0.662s-0.751-1.003-0.751-1.681c0-0.825,0.314-1.466,0.941-1.923
	c0.628-0.456,1.51-0.685,2.648-0.685h1.318v-0.622c0-0.474-0.141-0.851-0.425-1.132c-0.283-0.28-0.7-0.421-1.252-0.421
	c-0.483,0-0.889,0.122-1.216,0.366c-0.327,0.244-0.49,0.54-0.49,0.886h-1.363c0-0.395,0.14-0.777,0.421-1.146
	c0.281-0.368,0.662-0.66,1.143-0.875c0.5-0.219,1.04-0.328,1.586-0.322c0.913,0,1.628,0.228,2.146,0.685
	c0.517,0.456,0.786,1.085,0.805,1.886v3.647c0,0.728,0.093,1.306,0.279,1.736V74.5L204.267,74.5L204.267,74.5z M202.018,73.467
	c0.425,0,0.828-0.11,1.209-0.33c0.38-0.219,0.656-0.505,0.827-0.856v-1.626h-1.062c-1.66,0-2.49,0.486-2.49,1.457
	c0,0.425,0.142,0.757,0.425,0.996C201.21,73.348,201.574,73.468,202.018,73.467L202.018,73.467z M214.242,70.625
	c0,1.211-0.278,2.184-0.835,2.92c-0.556,0.734-1.303,1.101-2.241,1.101c-1.001,0-1.775-0.354-2.322-1.062l-0.066,0.916h-1.245V63.25
	h1.355v4.197c0.547-0.679,1.301-1.018,2.263-1.018s1.718,0.363,2.267,1.091c0.55,0.728,0.824,1.724,0.824,2.988V70.625
	L214.242,70.625z M212.887,70.472c0-0.923-0.178-1.636-0.534-2.139c-0.357-0.503-0.87-0.754-1.539-0.754
	c-0.893,0-1.535,0.415-1.926,1.245v3.427c0.415,0.83,1.062,1.246,1.941,1.246c0.65,0,1.155-0.252,1.516-0.755
	C212.707,72.239,212.887,71.482,212.887,70.472L212.887,70.472z M219.237,74.646c-1.074,0-1.948-0.352-2.622-1.058
	c-0.674-0.705-1.01-1.649-1.01-2.83v-0.25c0-0.786,0.15-1.488,0.45-2.105c0.3-0.618,0.72-1.101,1.26-1.45
	c0.52-0.344,1.13-0.526,1.754-0.524c1.03,0,1.83,0.34,2.402,1.018c0.571,0.678,0.857,1.65,0.857,2.915v0.564h-5.369
	c0.02,0.781,0.248,1.412,0.685,1.893c0.437,0.481,0.993,0.722,1.667,0.722c0.478,0,0.883-0.098,1.215-0.293
	c0.332-0.196,0.623-0.455,0.872-0.777l0.828,0.645C221.562,74.136,220.566,74.646,219.237,74.646L219.237,74.646z M219.069,67.542
	c-0.547,0-1.006,0.199-1.377,0.597s-0.6,0.956-0.689,1.674h3.97V69.71c-0.039-0.689-0.224-1.222-0.556-1.6
	C220.084,67.731,219.635,67.542,219.069,67.542z M225.177,66.575l0.044,0.996c0.606-0.761,1.397-1.142,2.373-1.142
	c1.675,0,2.52,0.945,2.534,2.834V74.5h-1.355v-5.244c-0.004-0.571-0.135-0.994-0.391-1.267c-0.257-0.274-0.656-0.41-1.198-0.41
	c-0.44,0-0.825,0.117-1.157,0.351c-0.332,0.235-0.591,0.542-0.777,0.923V74.5h-1.354v-7.925L225.177,66.575L225.177,66.575z
	 M237.357,74.5h-1.355v-7.925h1.355C237.357,66.575,237.357,74.5,237.357,74.5z M235.893,64.473c0-0.22,0.067-0.405,0.201-0.556
	c0.134-0.152,0.333-0.228,0.597-0.228s0.464,0.076,0.6,0.228c0.137,0.152,0.211,0.351,0.206,0.556c0,0.22-0.069,0.403-0.205,0.55
	c-0.137,0.146-0.337,0.22-0.601,0.22c-0.264,0-0.463-0.074-0.597-0.22C235.958,64.873,235.886,64.675,235.893,64.473z M240.8,66.575
	l0.036,0.88c0.581-0.684,1.365-1.026,2.351-1.026c1.109,0,1.863,0.425,2.264,1.274c0.263-0.38,0.606-0.688,1.029-0.923
	c0.422-0.234,0.921-0.351,1.498-0.351c1.738,0,2.622,0.92,2.65,2.76V74.5h-1.354v-5.23c0-0.566-0.13-0.99-0.388-1.27
	c-0.259-0.281-0.694-0.421-1.304-0.421c-0.503,0-0.92,0.15-1.252,0.45c-0.332,0.3-0.525,0.704-0.579,1.212V74.5h-1.362v-5.193
	c0-1.152-0.564-1.728-1.692-1.728c-0.889,0-1.497,0.378-1.824,1.135V74.5h-1.355v-7.925C239.518,66.575,240.8,66.575,240.8,66.575z
	 M260.51,70.186h-2.506V74.5h-1.413V63.836h3.53c1.201,0,2.125,0.273,2.772,0.82s0.97,1.343,0.97,2.388
	c0,0.664-0.179,1.243-0.538,1.736c-0.358,0.493-0.858,0.862-1.497,1.106l2.505,4.526V74.5h-1.51l-2.314-4.314L260.51,70.186z
	 M258.004,69.036h2.161c0.698,0,1.254-0.18,1.666-0.542c0.413-0.361,0.62-0.845,0.62-1.45c0-0.66-0.197-1.165-0.59-1.516
	c-0.393-0.352-0.961-0.53-1.703-0.535h-2.154V69.036z M270.514,74.5c-0.078-0.156-0.141-0.435-0.19-0.835
	c-0.63,0.654-1.382,0.981-2.256,0.981c-0.781,0-1.422-0.22-1.923-0.662c-0.5-0.442-0.75-1.003-0.75-1.681
	c0-0.825,0.313-1.466,0.94-1.923c0.628-0.456,1.51-0.685,2.648-0.685h1.319v-0.622c0-0.474-0.142-0.851-0.425-1.132
	c-0.283-0.28-0.7-0.421-1.252-0.421c-0.484,0-0.89,0.122-1.216,0.366c-0.327,0.244-0.491,0.54-0.491,0.886h-1.362
	c0-0.395,0.14-0.777,0.42-1.146c0.282-0.368,0.662-0.66,1.143-0.875c0.5-0.219,1.04-0.328,1.586-0.322
	c0.913,0,1.628,0.228,2.146,0.685c0.518,0.456,0.786,1.085,0.806,1.886v3.647c0,0.728,0.093,1.306,0.278,1.736V74.5h-1.42
	L270.514,74.5z M268.266,73.467c0.424,0,0.827-0.11,1.208-0.33c0.381-0.219,0.657-0.505,0.828-0.856v-1.626h-1.062
	c-1.66,0-2.49,0.486-2.49,1.457c0,0.425,0.141,0.757,0.424,0.996C267.458,73.348,267.821,73.468,268.266,73.467L268.266,73.467z
	 M275.136,67.535c0.6-0.738,1.382-1.106,2.343-1.106c1.675,0,2.52,0.945,2.535,2.834V74.5h-1.355v-5.244
	c-0.005-0.571-0.136-0.994-0.392-1.267c-0.257-0.274-0.656-0.41-1.198-0.41c-0.44,0-0.825,0.117-1.157,0.351
	c-0.332,0.235-0.59,0.542-0.776,0.923V74.5h-1.355V63.25h1.355L275.136,67.535L275.136,67.535z M283.316,66.575l0.038,0.88
	c0.58-0.684,1.364-1.026,2.35-1.026c1.109,0,1.863,0.425,2.264,1.274c0.263-0.38,0.606-0.688,1.029-0.923
	c0.422-0.234,0.921-0.351,1.498-0.351c1.738,0,2.622,0.92,2.651,2.76V74.5h-1.355v-5.23c0-0.566-0.13-0.99-0.388-1.27
	c-0.259-0.281-0.694-0.421-1.304-0.421c-0.503,0-0.92,0.15-1.252,0.45c-0.332,0.3-0.525,0.704-0.579,1.212V74.5h-1.362v-5.193
	c0-1.152-0.564-1.728-1.692-1.728c-0.889,0-1.497,0.378-1.824,1.135V74.5h-1.355v-7.925L283.316,66.575L283.316,66.575z
	 M298.478,74.646c-1.074,0-1.948-0.352-2.622-1.058c-0.674-0.705-1.01-1.649-1.01-2.83v-0.25c0-0.786,0.15-1.488,0.45-2.105
	c0.3-0.618,0.72-1.101,1.26-1.45c0.52-0.344,1.13-0.526,1.754-0.524c1.03,0,1.83,0.34,2.402,1.018
	c0.571,0.678,0.857,1.65,0.857,2.915v0.564H296.2c0.02,0.781,0.248,1.412,0.685,1.893c0.437,0.481,0.992,0.722,1.666,0.722
	c0.479,0,0.884-0.098,1.216-0.293c0.332-0.196,0.623-0.455,0.872-0.777l0.827,0.645C300.802,74.136,299.806,74.646,298.478,74.646z
	 M298.31,67.542c-0.547,0-1.006,0.199-1.377,0.597s-0.601,0.956-0.689,1.674h3.97V69.71c-0.04-0.689-0.225-1.222-0.557-1.6
	C299.325,67.731,298.876,67.542,298.31,67.542z M304.418,66.575l0.044,0.996c0.605-0.761,1.396-1.142,2.373-1.142
	c1.675,0,2.52,0.945,2.534,2.834V74.5h-1.355v-5.244c-0.005-0.571-0.135-0.994-0.392-1.267c-0.256-0.274-0.655-0.41-1.197-0.41
	c-0.44,0-0.825,0.117-1.157,0.351c-0.332,0.235-0.591,0.542-0.777,0.923V74.5h-1.355v-7.925L304.418,66.575L304.418,66.575z
	 M317.741,72.662l1.963-6.087h1.384l-2.842,7.925h-1.033l-2.87-7.925h1.384L317.741,72.662L317.741,72.662z M321.923,70.464
	c0-0.776,0.152-1.474,0.458-2.094c0.305-0.62,0.73-1.099,1.274-1.436c0.544-0.337,1.166-0.505,1.864-0.505
	c1.08,0,1.952,0.373,2.618,1.12c0.667,0.747,1,1.741,1,2.981v0.095c0,0.772-0.147,1.464-0.443,2.077
	c-0.275,0.59-0.715,1.087-1.267,1.432c-0.55,0.342-1.18,0.512-1.893,0.512c-1.075,0-1.945-0.373-2.611-1.12
	c-0.667-0.747-1-1.736-1-2.966L321.923,70.464L321.923,70.464z M323.285,70.625c0,0.88,0.204,1.585,0.612,2.117
	c0.407,0.532,0.953,0.799,1.637,0.799c0.688,0,1.235-0.27,1.64-0.81c0.406-0.54,0.608-1.295,0.608-2.267
	c0-0.869-0.206-1.573-0.619-2.113c-0.412-0.54-0.96-0.809-1.644-0.809c-0.669,0-1.208,0.266-1.619,0.798
	C323.49,68.873,323.285,69.634,323.285,70.625L323.285,70.625z M332.118,66.575l0.044,0.996c0.606-0.761,1.397-1.142,2.373-1.142
	c1.675,0,2.52,0.945,2.534,2.834V74.5h-1.355v-5.244c-0.005-0.571-0.135-0.994-0.391-1.267c-0.257-0.274-0.656-0.41-1.198-0.41
	c-0.44,0-0.825,0.117-1.157,0.351c-0.332,0.235-0.591,0.542-0.777,0.923V74.5h-1.355v-7.925L332.118,66.575L332.118,66.575z
	 M175.995,81.835v7.252c-0.005,1.006-0.32,1.829-0.948,2.468c-0.628,0.64-1.479,0.999-2.553,1.077l-0.373,0.014
	c-1.167,0-2.098-0.314-2.79-0.944c-0.694-0.63-1.046-1.497-1.056-2.6v-7.266h1.392v7.222c0,0.771,0.212,1.37,0.637,1.798
	c0.425,0.427,1.03,0.64,1.817,0.64c0.796,0,1.405-0.212,1.827-0.637c0.422-0.424,0.634-1.023,0.634-1.794v-7.23H175.995z
	 M179.276,84.575l0.037,0.88c0.581-0.684,1.365-1.026,2.351-1.026c1.108,0,1.863,0.425,2.263,1.274
	c0.264-0.38,0.607-0.688,1.03-0.923c0.422-0.234,0.92-0.351,1.497-0.351c1.738,0,2.622,0.92,2.651,2.76V92.5h-1.355v-5.23
	c0-0.566-0.129-0.99-0.388-1.27c-0.258-0.281-0.693-0.421-1.303-0.421c-0.503,0-0.92,0.15-1.253,0.45
	c-0.332,0.3-0.525,0.704-0.578,1.212V92.5h-1.363v-5.193c0-1.152-0.564-1.728-1.692-1.728c-0.888,0-1.496,0.378-1.823,1.135V92.5
	h-1.355v-7.925C177.995,84.575,179.276,84.575,179.276,84.575z M198.166,90.632l1.523-6.057h1.355l-2.307,7.925h-1.099l-1.926-6.006
	l-1.875,6.006h-1.099l-2.3-7.925h1.348l1.56,5.933l1.846-5.933h1.091L198.166,90.632L198.166,90.632z M205.709,92.646
	c-1.074,0-1.948-0.352-2.622-1.058c-0.673-0.705-1.01-1.649-1.01-2.83v-0.25c0-0.786,0.15-1.488,0.45-2.105
	c0.3-0.618,0.72-1.101,1.26-1.45c0.52-0.344,1.13-0.526,1.754-0.524c1.03,0,1.831,0.34,2.402,1.018
	c0.572,0.678,0.857,1.65,0.857,2.915v0.564h-5.368c0.02,0.781,0.247,1.412,0.684,1.893c0.437,0.481,0.993,0.722,1.667,0.722
	c0.478,0,0.884-0.098,1.216-0.293c0.332-0.196,0.622-0.455,0.871-0.777l0.828,0.645C208.034,92.136,207.038,92.646,205.709,92.646
	L205.709,92.646z M205.541,85.542c-0.547,0-1.006,0.199-1.377,0.597s-0.6,0.956-0.688,1.674h3.97V87.71
	c-0.04-0.689-0.225-1.222-0.557-1.6C206.557,85.731,206.107,85.542,205.541,85.542L205.541,85.542z M211.84,92.5h-1.355V81.25h1.355
	C211.84,81.25,211.84,92.5,211.84,92.5z M215.846,82.656v1.92h1.48v1.047h-1.48v4.914c0,0.317,0.066,0.556,0.198,0.714
	c0.132,0.159,0.356,0.238,0.674,0.238c0.156,0,0.37-0.029,0.644-0.088V92.5c-0.339,0.095-0.688,0.144-1.04,0.146
	c-0.605,0-1.062-0.183-1.37-0.549c-0.307-0.366-0.46-0.886-0.46-1.56v-4.914h-1.444v-1.048h1.443v-1.919H215.846L215.846,82.656z
	 M221.522,90.662l1.963-6.087h1.385l-2.842,7.925h-1.033l-2.871-7.925h1.384L221.522,90.662z M229.367,92.646
	c-1.075,0-1.949-0.352-2.622-1.058c-0.674-0.705-1.011-1.649-1.011-2.83v-0.25c0-0.786,0.15-1.488,0.45-2.105
	c0.3-0.618,0.72-1.101,1.26-1.45c0.52-0.344,1.13-0.526,1.754-0.524c1.03,0,1.831,0.34,2.403,1.018
	c0.57,0.678,0.857,1.65,0.857,2.915v0.564h-5.37c0.02,0.781,0.249,1.412,0.686,1.893c0.437,0.481,0.992,0.722,1.666,0.722
	c0.478,0,0.884-0.098,1.216-0.293c0.332-0.196,0.622-0.455,0.871-0.777l0.828,0.645C231.691,92.136,230.695,92.646,229.367,92.646z
	 M229.198,85.542c-0.547,0-1.006,0.199-1.377,0.597c-0.37,0.398-0.6,0.956-0.688,1.674h3.97V87.71
	c-0.04-0.689-0.225-1.222-0.557-1.6C230.214,85.731,229.765,85.542,229.198,85.542L229.198,85.542z M237.855,85.791
	c-0.22-0.035-0.443-0.052-0.666-0.051c-0.889,0-1.492,0.378-1.81,1.135V92.5h-1.354v-7.925h1.318l0.022,0.916
	c0.445-0.708,1.074-1.062,1.89-1.062c0.264,0,0.464,0.034,0.6,0.102C237.855,84.531,237.855,85.791,237.855,85.791z M241.305,82.656
	v1.92h1.48v1.047h-1.48v4.914c0,0.317,0.066,0.556,0.198,0.714c0.132,0.159,0.356,0.238,0.674,0.238c0.156,0,0.37-0.029,0.644-0.088
	V92.5c-0.339,0.095-0.688,0.144-1.04,0.146c-0.605,0-1.062-0.183-1.37-0.549c-0.307-0.366-0.46-0.886-0.46-1.56v-4.914h-1.444
	v-1.048h1.443v-1.919H241.305L241.305,82.656z M248.197,85.791c-0.22-0.035-0.443-0.052-0.666-0.051
	c-0.889,0-1.492,0.378-1.81,1.135V92.5h-1.354v-7.925h1.318l0.022,0.916c0.444-0.708,1.074-1.062,1.89-1.062
	c0.263,0,0.464,0.034,0.6,0.102C248.197,84.531,248.197,85.791,248.197,85.791z M254.042,92.5c-0.078-0.156-0.142-0.435-0.19-0.835
	c-0.63,0.654-1.382,0.981-2.256,0.981c-0.782,0-1.422-0.22-1.923-0.662c-0.5-0.442-0.75-1.003-0.75-1.681
	c0-0.825,0.313-1.466,0.94-1.923c0.628-0.456,1.51-0.685,2.648-0.685h1.319v-0.622c0-0.474-0.142-0.851-0.425-1.132
	c-0.283-0.28-0.7-0.421-1.253-0.421c-0.483,0-0.888,0.122-1.215,0.366c-0.328,0.244-0.491,0.54-0.491,0.886h-1.363
	c0-0.395,0.14-0.777,0.422-1.146c0.28-0.368,0.661-0.66,1.142-0.875c0.5-0.219,1.04-0.328,1.586-0.322
	c0.913,0,1.628,0.228,2.146,0.685c0.517,0.456,0.786,1.085,0.806,1.886v3.647c0,0.728,0.092,1.306,0.278,1.736V92.5H254.042
	L254.042,92.5z M251.793,91.467c0.425,0,0.828-0.11,1.209-0.33c0.38-0.219,0.657-0.505,0.828-0.856v-1.626h-1.062
	c-1.66,0-2.49,0.486-2.49,1.457c0,0.425,0.14,0.757,0.424,0.996C250.985,91.348,251.349,91.468,251.793,91.467L251.793,91.467z
	 M250.021,82.458c0-0.22,0.067-0.404,0.201-0.552c0.135-0.15,0.334-0.224,0.597-0.224c0.264,0,0.464,0.075,0.6,0.224
	c0.138,0.15,0.211,0.348,0.206,0.552c0,0.22-0.068,0.403-0.205,0.55c-0.137,0.146-0.337,0.22-0.6,0.22
	c-0.264,0-0.463-0.074-0.598-0.22C250.086,82.858,250.014,82.66,250.021,82.458L250.021,82.458z M253.171,82.473
	c0-0.22,0.067-0.405,0.2-0.556c0.135-0.152,0.334-0.228,0.598-0.228c0.263,0,0.464,0.076,0.6,0.228
	c0.137,0.152,0.21,0.351,0.205,0.556c0,0.22-0.068,0.403-0.205,0.55c-0.136,0.146-0.337,0.22-0.6,0.22
	c-0.264,0-0.463-0.074-0.597-0.22C253.236,82.873,253.164,82.676,253.171,82.473L253.171,82.473z M256.986,88.472
	c0-1.236,0.286-2.218,0.857-2.948c0.572-0.73,1.328-1.095,2.27-1.095c0.968,0,1.722,0.342,2.264,1.025l0.066-0.879h1.238v7.735
	c0,1.025-0.304,1.833-0.912,2.424c-0.608,0.59-1.425,0.886-2.45,0.886c-0.571,0-1.13-0.122-1.677-0.366
	c-0.547-0.244-0.965-0.579-1.253-1.004l0.703-0.813c0.581,0.718,1.292,1.077,2.132,1.077c0.659,0,1.173-0.185,1.541-0.556
	c0.369-0.372,0.553-0.894,0.553-1.568v-0.681c-0.542,0.625-1.281,0.937-2.219,0.937c-0.928,0-1.678-0.373-2.252-1.12
	s-0.86-1.765-0.86-3.054L256.986,88.472z M258.349,88.625c0,0.894,0.183,1.596,0.549,2.106s0.879,0.766,1.538,0.766
	c0.855,0,1.482-0.389,1.882-1.165v-3.618c-0.415-0.757-1.037-1.135-1.867-1.135c-0.66,0-1.175,0.256-1.546,0.769
	C258.535,86.86,258.349,87.62,258.349,88.625z M267.196,92.5h-1.355V81.25h1.355C267.196,81.25,267.196,92.5,267.196,92.5z
	 M270.836,92.5h-1.355v-7.925h1.355C270.836,84.575,270.836,92.5,270.836,92.5z M269.372,82.473c0-0.22,0.067-0.405,0.201-0.556
	c0.134-0.152,0.333-0.228,0.597-0.228c0.264,0,0.464,0.076,0.6,0.228c0.137,0.152,0.211,0.351,0.206,0.556
	c0,0.22-0.069,0.403-0.205,0.55c-0.137,0.146-0.337,0.22-0.601,0.22s-0.463-0.074-0.597-0.22
	C269.437,82.873,269.365,82.675,269.372,82.473z M276.183,91.541c0.484,0,0.906-0.147,1.267-0.44c0.362-0.293,0.562-0.66,0.6-1.099
	h1.283c-0.025,0.455-0.181,0.887-0.47,1.297c-0.287,0.41-0.672,0.737-1.153,0.981c-0.48,0.244-0.99,0.366-1.527,0.366
	c-1.079,0-1.937-0.36-2.574-1.08c-0.638-0.72-0.956-1.705-0.956-2.955v-0.227c0-0.772,0.141-1.458,0.425-2.058
	c0.283-0.6,0.69-1.067,1.22-1.4c0.529-0.331,1.155-0.497,1.878-0.497c0.888,0,1.627,0.266,2.215,0.798
	c0.589,0.532,0.902,1.223,0.942,2.073h-1.282c-0.04-0.513-0.233-0.934-0.582-1.264c-0.35-0.33-0.78-0.494-1.293-0.494
	c-0.689,0-1.222,0.248-1.6,0.743c-0.379,0.496-0.568,1.213-0.568,2.15v0.256c0,0.913,0.188,1.617,0.564,2.11
	C274.948,91.294,275.485,91.541,276.183,91.541L276.183,91.541z M282.211,85.535c0.6-0.738,1.382-1.106,2.344-1.106
	c1.675,0,2.52,0.945,2.534,2.834V92.5h-1.355v-5.244c-0.005-0.571-0.136-0.994-0.392-1.267c-0.256-0.274-0.655-0.41-1.197-0.41
	c-0.44,0-0.826,0.117-1.158,0.351c-0.332,0.235-0.59,0.542-0.776,0.923V92.5h-1.355V81.25h1.355
	C282.211,81.25,282.211,85.535,282.211,85.535z M291.33,88.831l-0.85,0.886V92.5h-1.355V81.25h1.355v6.804l0.725-0.871l2.468-2.608
	h1.648l-3.083,3.31l3.442,4.615h-1.59l-2.76-3.67L291.33,88.831z M299.862,92.646c-1.074,0-1.948-0.352-2.622-1.058
	c-0.674-0.705-1.01-1.649-1.01-2.83v-0.25c0-0.786,0.15-1.488,0.45-2.105c0.3-0.618,0.72-1.101,1.26-1.45
	c0.52-0.344,1.13-0.526,1.754-0.524c1.03,0,1.83,0.34,2.402,1.018c0.571,0.678,0.857,1.65,0.857,2.915v0.564h-5.369
	c0.02,0.781,0.248,1.412,0.685,1.893c0.437,0.481,0.993,0.722,1.667,0.722c0.478,0,0.883-0.098,1.215-0.293
	c0.332-0.196,0.623-0.455,0.872-0.777l0.828,0.645C302.187,92.136,301.191,92.646,299.862,92.646z M299.694,85.542
	c-0.547,0-1.006,0.199-1.377,0.597s-0.6,0.956-0.689,1.674h3.97V87.71c-0.039-0.689-0.224-1.222-0.556-1.6
	C300.709,85.731,300.26,85.542,299.694,85.542z M305.993,92.5h-1.355v-7.925h1.355C305.993,84.575,305.993,92.5,305.993,92.5z
	 M304.528,82.473c0-0.22,0.067-0.405,0.201-0.556c0.135-0.152,0.333-0.228,0.597-0.228c0.264,0,0.464,0.076,0.6,0.228
	c0.137,0.152,0.211,0.351,0.206,0.556c0,0.22-0.069,0.403-0.205,0.55c-0.137,0.146-0.337,0.22-0.6,0.22
	c-0.265,0-0.463-0.074-0.598-0.22C304.593,82.873,304.521,82.675,304.528,82.473z M309.999,82.656v1.92h1.48v1.047h-1.48v4.914
	c0,0.317,0.066,0.556,0.198,0.714c0.132,0.159,0.356,0.238,0.674,0.238c0.156,0,0.37-0.029,0.644-0.088V92.5
	c-0.339,0.095-0.688,0.144-1.04,0.146c-0.605,0-1.062-0.183-1.37-0.549c-0.307-0.366-0.461-0.886-0.461-1.56v-4.914h-1.443v-1.048
	h1.443v-1.919H309.999L309.999,82.656z M317.675,90.398c0-0.366-0.138-0.65-0.414-0.853c-0.276-0.203-0.757-0.378-1.443-0.524
	s-1.23-0.322-1.633-0.527c-0.403-0.205-0.7-0.45-0.894-0.733c-0.197-0.299-0.298-0.652-0.289-1.01c0-0.65,0.275-1.2,0.824-1.648
	c0.55-0.45,1.251-0.674,2.106-0.674c0.898,0,1.627,0.232,2.186,0.696c0.559,0.463,0.839,1.057,0.839,1.78h-1.363
	c0-0.372-0.157-0.692-0.472-0.96c-0.315-0.269-0.712-0.403-1.19-0.403c-0.494,0-0.88,0.107-1.158,0.322
	c-0.269,0.196-0.425,0.511-0.417,0.843c0,0.327,0.13,0.573,0.388,0.74c0.259,0.165,0.726,0.324,1.403,0.475
	c0.676,0.152,1.224,0.332,1.644,0.542s0.731,0.463,0.934,0.758c0.202,0.296,0.304,0.656,0.304,1.08c0,0.709-0.283,1.276-0.85,1.704
	c-0.566,0.427-1.301,0.64-2.204,0.64c-0.635,0-1.197-0.112-1.685-0.336c-0.461-0.203-0.858-0.529-1.146-0.942
	c-0.27-0.383-0.414-0.839-0.414-1.307h1.355c0.024,0.454,0.206,0.814,0.546,1.08c0.339,0.266,0.787,0.4,1.344,0.4
	c0.512,0,0.924-0.104,1.234-0.312C317.52,91.022,317.675,90.745,317.675,90.398z M327.489,88.625c0,1.207-0.276,2.178-0.827,2.916
	c-0.552,0.737-1.3,1.105-2.242,1.105c-0.962,0-1.718-0.305-2.27-0.915v3.816h-1.355V84.575h1.238l0.066,0.88
	c0.551-0.684,1.318-1.026,2.3-1.026c0.952,0,1.705,0.359,2.259,1.076c0.554,0.718,0.831,1.717,0.831,2.996
	C327.489,88.501,327.489,88.625,327.489,88.625z M326.134,88.472c0-0.894-0.19-1.6-0.571-2.117c-0.38-0.518-0.903-0.776-1.567-0.776
	c-0.82,0-1.436,0.363-1.846,1.09v3.788c0.405,0.722,1.025,1.084,1.86,1.084c0.65,0,1.166-0.258,1.55-0.773
	C325.943,90.253,326.134,89.488,326.134,88.472L326.134,88.472z M333.041,85.791c-0.22-0.035-0.443-0.052-0.666-0.051
	c-0.89,0-1.492,0.378-1.81,1.135V92.5h-1.355v-7.925h1.319l0.022,0.916c0.444-0.708,1.074-1.062,1.89-1.062
	c0.263,0,0.463,0.034,0.6,0.102L333.041,85.791L333.041,85.791z M339.179,91.716c-0.528,0.62-1.302,0.93-2.322,0.93
	c-0.845,0-1.488-0.245-1.93-0.736c-0.442-0.49-0.665-1.217-0.67-2.179v-5.156h1.355v5.12c0,1.201,0.488,1.802,1.465,1.802
	c1.035,0,1.723-0.386,2.065-1.158v-5.764h1.355V92.5h-1.289L339.179,91.716L339.179,91.716z M335.055,82.458
	c0-0.22,0.067-0.404,0.202-0.552c0.134-0.15,0.333-0.224,0.597-0.224c0.263,0,0.463,0.075,0.6,0.224
	c0.137,0.151,0.211,0.348,0.205,0.552c0,0.22-0.068,0.403-0.205,0.55c-0.137,0.146-0.337,0.22-0.6,0.22
	c-0.264,0-0.463-0.074-0.597-0.22C335.121,82.858,335.049,82.661,335.055,82.458z M338.205,82.473c0-0.22,0.067-0.405,0.201-0.556
	c0.134-0.152,0.333-0.228,0.597-0.228c0.264,0,0.464,0.076,0.6,0.228c0.137,0.152,0.211,0.351,0.206,0.556
	c0,0.22-0.069,0.403-0.205,0.55c-0.137,0.146-0.337,0.22-0.601,0.22s-0.463-0.074-0.597-0.22
	C338.27,82.873,338.198,82.675,338.205,82.473z M343.222,92.5v-6.877h-1.253v-1.048h1.253v-0.813c0-0.85,0.227-1.506,0.68-1.97
	c0.455-0.464,1.097-0.696,1.927-0.696c0.313,0,0.623,0.042,0.93,0.125l-0.073,1.098c-0.241-0.045-0.486-0.067-0.732-0.066
	c-0.44,0-0.78,0.129-1.018,0.385c-0.24,0.256-0.36,0.624-0.36,1.102v0.835h1.693v1.048h-1.692V92.5H343.222z M352.655,91.716
	c-0.527,0.62-1.301,0.93-2.322,0.93c-0.844,0-1.488-0.245-1.93-0.736c-0.441-0.49-0.665-1.217-0.67-2.179v-5.156h1.355v5.12
	c0,1.201,0.489,1.802,1.465,1.802c1.035,0,1.724-0.386,2.066-1.158v-5.764h1.355V92.5h-1.29L352.655,91.716L352.655,91.716z
	 M357.313,84.576l0.044,0.995c0.606-0.761,1.397-1.142,2.373-1.142c1.675,0,2.52,0.945,2.535,2.834V92.5h-1.355v-5.244
	c-0.005-0.571-0.136-0.994-0.392-1.267c-0.257-0.274-0.656-0.41-1.198-0.41c-0.44,0-0.825,0.117-1.157,0.351
	c-0.332,0.235-0.59,0.542-0.776,0.923V92.5h-1.355v-7.925h1.281L357.313,84.576z M363.986,88.472c0-1.236,0.285-2.218,0.857-2.948
	c0.571-0.73,1.328-1.095,2.27-1.095c0.967,0,1.721,0.342,2.263,1.025l0.066-0.879h1.238v7.735c0,1.025-0.304,1.833-0.912,2.424
	c-0.608,0.59-1.424,0.886-2.45,0.886c-0.57,0-1.13-0.122-1.677-0.366c-0.547-0.244-0.964-0.579-1.252-1.004l0.703-0.813
	c0.58,0.718,1.291,1.077,2.131,1.077c0.66,0,1.173-0.185,1.542-0.556c0.369-0.372,0.553-0.894,0.553-1.568v-0.681
	c-0.542,0.625-1.282,0.937-2.22,0.937c-0.927,0-1.678-0.373-2.252-1.12C364.273,90.779,363.986,89.761,363.986,88.472z
	 M365.348,88.625c0,0.894,0.183,1.596,0.55,2.106c0.366,0.51,0.878,0.766,1.538,0.766c0.854,0,1.481-0.389,1.882-1.165v-3.618
	c-0.415-0.757-1.038-1.135-1.868-1.135c-0.659,0-1.174,0.256-1.545,0.769C365.534,86.86,365.348,87.62,365.348,88.625
	L365.348,88.625z M376.012,92.646c-1.074,0-1.948-0.352-2.622-1.058c-0.674-0.705-1.01-1.649-1.01-2.83v-0.25
	c0-0.786,0.15-1.488,0.45-2.105c0.3-0.618,0.72-1.101,1.26-1.45c0.52-0.344,1.13-0.526,1.754-0.524c1.03,0,1.83,0.34,2.402,1.018
	c0.571,0.678,0.857,1.65,0.857,2.915v0.564h-5.369c0.02,0.781,0.248,1.412,0.685,1.893c0.437,0.481,0.993,0.722,1.666,0.722
	c0.479,0,0.884-0.098,1.216-0.293c0.332-0.196,0.623-0.455,0.872-0.777L379,91.116C378.336,92.136,377.34,92.646,376.012,92.646z
	 M375.844,85.542c-0.547,0-1.006,0.199-1.377,0.597s-0.6,0.956-0.689,1.674h3.97V87.71c-0.039-0.689-0.225-1.222-0.557-1.6
	C376.859,85.731,376.411,85.542,375.844,85.542z M381.952,84.575l0.044,0.996c0.606-0.761,1.397-1.142,2.373-1.142
	c1.675,0,2.52,0.945,2.534,2.834V92.5h-1.355v-5.244c-0.005-0.571-0.135-0.994-0.392-1.267c-0.256-0.274-0.655-0.41-1.197-0.41
	c-0.44,0-0.825,0.117-1.157,0.351c-0.332,0.235-0.591,0.542-0.777,0.923V92.5h-1.355v-7.925L381.952,84.575L381.952,84.575z"/>
<g id="Logo_x5F_1_3">
	
		<linearGradient id="SVGID_1_" gradientUnits="userSpaceOnUse" x1="0.5452" y1="71.7943" x2="46.3019" y2="71.7943" gradientTransform="matrix(1 0 0 -1 0 102)">
		<stop  offset="0" style="stop-color:#349980"/>
		<stop  offset="1" style="stop-color:#45A965"/>
	</linearGradient>
	<path class="st1" d="M38.203,0.291c-4.483,0-8.104,3.621-8.104,8.104v28.104c0,3.707-3.017,6.724-6.724,6.724
		s-6.724-3.017-6.724-6.724V8.395c0-4.483-3.621-8.104-8.104-8.104S0.443,3.912,0.443,8.395v29.57c0,0.259,0.086,0.517,0.086,0.776
		c0.776,11.897,10.69,21.38,22.846,21.38c12.673,0,22.932-10.259,22.932-22.846V8.567C46.306,3.912,42.685,0.291,38.203,0.291z"/>
	
		<linearGradient id="SVGID_2_" gradientUnits="userSpaceOnUse" x1="97.9459" y1="71.9236" x2="144.306" y2="71.9236" gradientTransform="matrix(1 0 0 -1 0 102)">
		<stop  offset="0" style="stop-color:#349980"/>
		<stop  offset="1" style="stop-color:#45A965"/>
	</linearGradient>
	<path class="st2" d="M121.654,0.119h-0.517V0.032h-14.483c-4.828,0-8.707,3.879-8.707,8.707v42.932
		c0,4.655,3.793,8.449,8.449,8.449s8.449-3.793,8.449-8.449v-6.121h6.897c12.5,0,22.673-10.173,22.673-22.673
		C144.327,10.291,134.154,0.119,121.654,0.119z M123.119,28.74h-8.362V17.016h8.362c3.276,0,5.862,2.673,5.862,5.862
		C128.981,26.068,126.395,28.74,123.119,28.74z"/>
	
		<linearGradient id="SVGID_3_" gradientUnits="userSpaceOnUse" x1="46.3023" y1="71.9236" x2="80.4889" y2="71.9236" gradientTransform="matrix(1 0 0 -1 0 102)">
		<stop  offset="0" style="stop-color:#75B843"/>
		<stop  offset="1" style="stop-color:#95C11F"/>
	</linearGradient>
	<path class="st3" d="M75.273,59.431c-4.31,1.724-9.224-0.345-10.949-4.655L46.91,11.671c-1.724-4.31,0.345-9.224,4.655-10.949
		c4.31-1.724,9.224,0.345,10.949,4.655l17.414,43.105C81.566,52.793,79.497,57.707,75.273,59.431L75.273,59.431z"/>
	
		<linearGradient id="SVGID_4_" gradientUnits="userSpaceOnUse" x1="63.6827" y1="71.8805" x2="97.9158" y2="71.8805" gradientTransform="matrix(1 0 0 -1 0 102)">
		<stop  offset="0" style="stop-color:#75B843"/>
		<stop  offset="1" style="stop-color:#95C11F"/>
	</linearGradient>
	<path class="st4" d="M92.601,0.808c-4.31-1.724-9.224,0.345-10.949,4.655L64.238,48.482c-1.724,4.31,0.345,9.224,4.655,10.949
		c4.31,1.724,9.224-0.345,10.949-4.655l17.414-43.019C98.98,7.446,96.911,2.532,92.601,0.808L92.601,0.808z"/>
	<path class="st5" d="M72.169,60.034c-6.035,0-10.087-6.121-7.759-11.638c1.724-4.138,7.759-19.139,7.759-19.139
		s5.69,13.966,7.759,19.139C82.256,54.603,77.514,60.034,72.169,60.034z M23.461,60.034c-4.655,0-8.449-3.793-8.449-8.449
		s3.793-8.449,8.449-8.449s8.449,3.793,8.449,8.449C31.909,56.241,28.116,60.034,23.461,60.034z M114.757,28.74
		c-4.655,0-8.449,3.793-8.449,8.449s3.793,8.449,8.449,8.449V28.74z"/>
	<g class="st6">
		<path class="st7" d="M175.362,17.447l-3.19,0.517l7.845,22.759l0.776,2.759h0.172l0.776-2.759l7.845-22.759l-3.19-0.517v-3.017
			h11.035v3.017l-2.845,0.345l-11.725,31.639h-4.052l-11.725-31.553l-2.759-0.345v-3.017h11.035L175.362,17.447L175.362,17.447z
			 M209.484,49.862c-3.621,0-6.466-1.207-8.621-3.621c-2.155-2.414-3.19-5.517-3.19-9.397v-1.035c0-3.707,1.121-6.811,3.276-9.224
			c2.241-2.5,4.828-3.707,7.845-3.707c3.535,0,6.121,1.035,7.931,3.19s2.673,4.914,2.673,8.449v2.931h-16.811l-0.086,0.086
			c0.086,2.5,0.69,4.569,1.897,6.207c1.207,1.638,2.931,2.414,5.086,2.414c1.638,0,3.017-0.259,4.224-0.69
			c1.207-0.431,2.241-1.121,3.104-1.897l1.81,3.104c-0.948,0.862-2.155,1.638-3.707,2.241
			C213.364,49.517,211.639,49.862,209.484,49.862L209.484,49.862z M208.794,26.585c-1.552,0-2.931,0.69-4.052,1.983
			c-1.121,1.379-1.81,3.017-2.069,5l0.086,0.086h11.897v-0.603c0-1.897-0.517-3.448-1.466-4.655
			C212.243,27.275,210.777,26.585,208.794,26.585L208.794,26.585z M224.14,26.413v-3.017h8.19l0.431,3.793
			c0.776-1.293,1.638-2.414,2.759-3.104c1.121-0.776,2.328-1.121,3.707-1.121c0.345,0,0.776,0,1.121,0.086
			c0.431,0.086,0.69,0.086,0.862,0.172l-0.603,4.397l-2.673-0.172c-1.293,0-2.328,0.259-3.19,0.862
			c-0.862,0.603-1.466,1.379-1.983,2.5v14.914l3.879,0.69v3.017h-12.5v-3.017l3.879-0.69V27.102
			C228.019,27.102,224.14,26.413,224.14,26.413z M268.279,37.361c0,3.793-0.862,6.811-2.673,9.052
			c-1.81,2.328-4.31,3.448-7.414,3.448c-1.724,0-3.19-0.345-4.397-0.948c-1.293-0.69-2.328-1.638-3.104-2.845l-0.431,3.362h-4.052
			V15.55l-3.879-0.69v-3.017h8.621v14.569c0.776-1.121,1.81-2.069,3.017-2.673c1.207-0.603,2.586-0.948,4.224-0.948
			c3.19,0,5.69,1.293,7.5,3.879c1.81,2.586,2.673,5.948,2.673,10.087v0.603L268.279,37.361z M263.538,36.844
			c0-3.017-0.517-5.431-1.638-7.328c-1.121-1.897-2.759-2.845-5-2.845c-1.466,0-2.673,0.345-3.707,1.035
			c-1.035,0.69-1.81,1.638-2.414,2.845v11.466c0.603,1.207,1.379,2.155,2.414,2.845s2.241,1.035,3.707,1.035
			c2.241,0,3.879-0.776,5-2.414c1.121-1.638,1.638-3.707,1.638-6.293C263.538,37.189,263.538,36.844,263.538,36.844z
			 M291.642,45.551c-0.776,1.379-1.897,2.5-3.19,3.19c-1.293,0.776-2.759,1.121-4.483,1.121c-2.845,0-5-0.948-6.638-2.759
			c-1.552-1.81-2.414-4.655-2.414-8.449V27.016l-3.017-0.69v-3.017h7.759v15.432c0,2.759,0.431,4.655,1.207,5.69
			c0.776,1.035,2.069,1.552,3.793,1.552c1.724,0,3.104-0.345,4.138-1.035c1.121-0.69,1.897-1.638,2.5-2.931v-15l-3.448-0.69v-3.017
			h8.19v22.328l3.017,0.69v3.017h-7.242L291.642,45.551L291.642,45.551z M302.246,46.327l3.879-0.69V27.016l-3.879-0.69v-3.017h8.19
			l0.345,3.879c0.862-1.379,1.983-2.414,3.276-3.19c1.293-0.776,2.759-1.121,4.483-1.121c2.845,0,5,0.862,6.552,2.5
			c1.552,1.638,2.328,4.224,2.328,7.586v12.759l3.879,0.69v3.017h-12.587v-3.017l3.879-0.69V33.051c0-2.328-0.431-3.879-1.379-4.914
			c-0.948-0.948-2.328-1.466-4.138-1.466c-1.379,0-2.586,0.345-3.621,0.948c-1.035,0.69-1.897,1.552-2.5,2.673v15.259l3.879,0.69
			v3.017h-12.587V46.327z M351.903,46.327c-0.862,1.207-1.897,2.069-3.104,2.673s-2.673,0.948-4.31,0.948
			c-3.19,0-5.69-1.121-7.414-3.448c-1.81-2.328-2.672-5.345-2.672-9.052V36.93c0-4.224,0.862-7.586,2.672-10.087
			c1.81-2.586,4.311-3.879,7.5-3.879c1.552,0,2.931,0.259,4.052,0.862c1.207,0.603,2.155,1.379,3.017,2.5V15.55l-3.879-0.69v-3.017
			h8.621v33.794l3.879,0.69v3.017h-8.017L351.903,46.327L351.903,46.327z M339.144,37.361c0,2.586,0.517,4.742,1.638,6.293
			c1.035,1.552,2.759,2.414,5,2.414c1.379,0,2.586-0.345,3.535-0.948c0.948-0.603,1.724-1.552,2.414-2.759V30.292
			c-0.603-1.121-1.379-1.983-2.414-2.586c-0.948-0.603-2.155-0.948-3.535-0.948c-2.241,0-3.966,0.948-5,2.845
			c-1.121,1.897-1.638,4.31-1.638,7.328V37.361L339.144,37.361z"/>
	</g>
</g>
</svg>
