<svg width="400px" height="100px" viewBox="0 0 400 100" xmlns="http://www.w3.org/2000/svg" xmlns:xlink="http://www.w3.org/1999/xlink"><defs><path d="M11.37 5.954l-3.21.507 7.866 22.837.797 2.776h.144l.797-2.776 7.842-22.86-3.161-.484V2.89H33.52v3.065l-2.823.387-11.775 31.696h-4.078L3.069 6.34.27 5.954V2.89h11.1v3.065zm32.724 32.59c-3.635 0-6.527-1.211-8.674-3.633-2.148-2.423-3.222-5.565-3.222-9.427v-1.062c0-3.718 1.106-6.812 3.318-9.282 2.212-2.47 4.83-3.706 7.854-3.706 3.507 0 6.165 1.062 7.975 3.187 1.81 2.124 2.714 4.957 2.714 8.497v2.97H37.121l-.073.12c.049 2.51.684 4.575 1.907 6.192 1.222 1.617 2.935 2.426 5.139 2.426 1.609 0 3.02-.23 4.235-.688 1.214-.459 2.264-1.09 3.149-1.895l1.858 3.09c-.933.901-2.168 1.662-3.704 2.281-1.537.62-3.382.93-5.538.93zm-.724-23.368c-1.592 0-2.952.672-4.078 2.016-1.126 1.343-1.817 3.03-2.075 5.057l.048.12h12.04v-.627c0-1.867-.498-3.428-1.495-4.683-.997-1.255-2.477-1.883-4.44-1.883zm14.087-.193v-3.066h8.18l.458 3.79c.74-1.336 1.653-2.382 2.739-3.138 1.086-.757 2.328-1.135 3.728-1.135a8.1 8.1 0 0 1 1.146.085c.394.056.696.116.905.18l-.627 4.418-2.703-.144c-1.255 0-2.308.293-3.16.88-.853.588-1.513 1.413-1.98 2.475V34.32l3.934.676v3.042h-12.62v-3.042l3.933-.676V15.66l-3.933-.676zm43.33 10.984c0 3.766-.905 6.803-2.715 9.113-1.81 2.309-4.299 3.464-7.468 3.464-1.705 0-3.185-.326-4.44-.978-1.254-.652-2.3-1.613-3.136-2.885l-.435 3.356h-4.102V4.12l-3.933-.676V.378h8.687v14.629c.82-1.159 1.838-2.044 3.052-2.655 1.215-.612 2.634-.918 4.259-.918 3.217 0 5.727 1.288 7.528 3.863 1.802 2.575 2.703 5.962 2.703 10.163v.507zm-4.778-.507c0-3.01-.547-5.456-1.64-7.339-1.094-1.883-2.767-2.824-5.02-2.824-1.463 0-2.698.354-3.703 1.062-1.006.708-1.806 1.657-2.401 2.848v11.54c.595 1.206 1.403 2.164 2.425 2.872 1.021.708 2.264 1.062 3.728 1.062 2.236 0 3.897-.796 4.982-2.39 1.086-1.593 1.63-3.701 1.63-6.324v-.507zm26.845 8.714c-.82 1.4-1.878 2.479-3.173 3.235-1.295.756-2.787 1.135-4.476 1.135-2.831 0-5.043-.91-6.636-2.728-1.592-1.819-2.388-4.651-2.388-8.498v-11.66l-2.993-.675v-3.066h7.746v15.45c0 2.784.41 4.7 1.23 5.745.821 1.046 2.1 1.57 3.837 1.57 1.69 0 3.085-.343 4.187-1.027 1.101-.684 1.934-1.653 2.497-2.909V15.66l-3.499-.676v-3.066h8.252v22.402l2.992.676v3.042h-7.263l-.313-3.863zm10.608.821l3.933-.676V15.66l-3.933-.676v-3.066h8.18l.337 3.887c.869-1.384 1.959-2.459 3.27-3.223 1.31-.765 2.803-1.147 4.476-1.147 2.815 0 4.994.825 6.539 2.475 1.544 1.65 2.316 4.196 2.316 7.64v12.77l3.933.676v3.042h-12.62v-3.042l3.934-.676V21.646c0-2.302-.455-3.935-1.364-4.9-.909-.967-2.296-1.45-4.162-1.45-1.367 0-2.578.33-3.631.99-1.054.66-1.895 1.561-2.522 2.704v15.33l3.933.675v3.042h-12.62v-3.042zm48.783-.072c-.853 1.19-1.894 2.092-3.125 2.703-1.23.612-2.658.918-4.283.918-3.185 0-5.674-1.155-7.468-3.464-1.793-2.31-2.69-5.347-2.69-9.113v-.507c0-4.2.897-7.588 2.69-10.163 1.794-2.575 4.3-3.863 7.516-3.863 1.545 0 2.908.286 4.09.857a8.451 8.451 0 0 1 3.028 2.475V4.12l-3.933-.676V.378h8.687v33.941l3.933.676v3.042h-8.06l-.385-3.114zm-12.813-8.956c0 2.623.539 4.731 1.617 6.324 1.078 1.594 2.742 2.39 4.995 2.39 1.415 0 2.606-.322 3.57-.965.966-.644 1.762-1.553 2.39-2.728V18.869c-.612-1.094-1.408-1.963-2.39-2.607-.98-.643-2.155-.965-3.522-.965-2.268 0-3.945.941-5.031 2.824-1.086 1.883-1.629 4.33-1.629 7.339v.507z" id="a"/><linearGradient x1=".009%" y1="50.409%" x2="100.057%" y2="50.409%" id="b"><stop stop-color="#349980" offset="0%"/><stop stop-color="#45A965" offset="100%"/></linearGradient><linearGradient x1="0%" y1="50%" x2="100.887%" y2="50%" id="c"><stop stop-color="#349980" offset="0%"/><stop stop-color="#45A965" offset="100%"/></linearGradient><linearGradient x1="-.004%" y1="50%" x2="100.007%" y2="50%" id="d"><stop stop-color="#75B843" offset="0%"/><stop stop-color="#95C11F" offset="100%"/></linearGradient><linearGradient x1=".007%" y1="49.994%" x2="99.995%" y2="49.994%" id="e"><stop stop-color="#75B843" offset="0%"/><stop stop-color="#95C11F" offset="100%"/></linearGradient></defs><g fill="none" fill-rule="evenodd"><g transform="translate(164.431 10.692)"><use fill="#000" xlink:href="#a"/><use fill="#1D4B7B" xlink:href="#a"/></g><path d="M38.071.83a8.051 8.051 0 0 0-8.079 8.143V37.12a6.733 6.733 0 0 1-6.727 6.493 6.733 6.733 0 0 1-6.727-6.493V8.947a8.118 8.118 0 0 0-3.976-7.25 8.11 8.11 0 0 0-8.266 0A8.118 8.118 0 0 0 .32 8.947V38.582c.012.257.038.514.077.769.945 12.246 11.36 21.575 23.63 21.165 12.27-.41 22.041-10.414 22.167-22.695V8.973A8.15 8.15 0 0 0 38.07.83z" fill="url(#b)" transform="translate(.127 -1.324)"/><path d="M121.774.64H106.74c-4.82 0-8.728 3.909-8.728 8.73v42.948a8.435 8.435 0 0 0 8.434 8.437 8.435 8.435 0 0 0 8.433-8.437V46.18h6.922c12.39-.242 22.307-10.36 22.307-22.757 0-12.398-9.918-22.516-22.308-22.757l-.026-.026zm1.495 28.64h-8.39V17.514h8.39a5.898 5.898 0 0 1 0 11.791v-.025z" fill="url(#c)" fill-rule="nonzero" transform="translate(.127 -1.324)"/><path d="M75.235 60.133a8.421 8.421 0 0 1-10.974-4.66L46.807 12.25a8.439 8.439 0 0 1 4.657-10.97 8.43 8.43 0 0 1 10.983 4.659L79.9 49.162a8.432 8.432 0 0 1-4.666 10.97z" fill="url(#d)" transform="translate(.127 -1.324)"/><path d="M92.681 1.314a8.43 8.43 0 0 0-10.982 4.66L64.26 49.153A8.44 8.44 0 0 0 68.92 60.14 8.44 8.44 0 0 0 79.9 55.473l17.437-43.18a8.439 8.439 0 0 0-4.657-10.979z" fill="url(#e)" transform="translate(.127 -1.324)"/><path d="M72.234 59.432a8.442 8.442 0 0 1-7.069-3.742 8.45 8.45 0 0 1-.777-7.964c1.729-4.166 7.777-19.208 7.777-19.208s5.772 14.022 7.82 19.208a8.432 8.432 0 0 1-.739 7.932 8.424 8.424 0 0 1-7.012 3.774zM23.397 59.431a8.468 8.468 0 0 1-7.83-5.223 8.475 8.475 0 0 1 1.83-9.236 8.465 8.465 0 0 1 9.23-1.84 8.472 8.472 0 0 1 5.229 7.828c0 4.675-3.786 8.467-8.46 8.471zM115.006 27.982a8.435 8.435 0 0 0-8.433 8.437 8.435 8.435 0 0 0 8.433 8.437V27.982z" fill="#01383A"/><path d="M172.018 72.632l3.047-8.796h1.538L172.648 74.5h-1.245l-3.948-10.664h1.53l3.033 8.796zm5.105-2.168c0-.776.153-1.474.458-2.094.305-.62.73-1.099 1.274-1.436.545-.337 1.166-.505 1.864-.505 1.08 0 1.952.373 2.619 1.12.666.747 1 1.741 1 2.981v.095c0 .772-.148 1.464-.444 2.077a3.365 3.365 0 0 1-1.267 1.432c-.55.342-1.18.512-1.893.512-1.074 0-1.945-.373-2.611-1.12-.667-.747-1-1.736-1-2.966v-.096zm1.362.161c0 .88.204 1.585.612 2.117.408.532.953.799 1.637.799.688 0 1.235-.27 1.64-.81.406-.54.608-1.295.608-2.267 0-.869-.206-1.573-.618-2.113-.413-.54-.961-.809-1.645-.809-.669 0-1.208.266-1.618.798-.41.533-.616 1.294-.616 2.285zm11.382-2.834a4.06 4.06 0 0 0-.666-.051c-.889 0-1.492.378-1.81 1.135V74.5h-1.354v-7.925h1.318l.022.916c.444-.708 1.074-1.062 1.89-1.062.263 0 .463.034.6.102v1.26zm2.6-.256c.6-.738 1.382-1.106 2.344-1.106 1.675 0 2.52.945 2.534 2.834V74.5h-1.355v-5.244c-.005-.571-.135-.994-.392-1.267-.256-.274-.655-.41-1.197-.41-.44 0-.825.117-1.157.351-.332.235-.591.542-.777.923V74.5h-1.355V63.25h1.355v4.285zm11.8 6.965c-.079-.156-.142-.435-.19-.835-.63.654-1.383.981-2.257.981-.78 0-1.422-.22-1.922-.662-.5-.442-.751-1.003-.751-1.681 0-.825.314-1.466.941-1.923.628-.456 1.51-.685 2.648-.685h1.318v-.622c0-.474-.141-.851-.425-1.132-.283-.28-.7-.421-1.252-.421-.483 0-.889.122-1.216.366-.327.244-.49.54-.49.886h-1.363c0-.395.14-.777.421-1.146.281-.368.662-.66 1.143-.875a3.844 3.844 0 0 1 1.586-.322c.913 0 1.628.228 2.146.685.517.456.786 1.085.805 1.886v3.647c0 .728.093 1.306.279 1.736v.117h-1.421zm-2.249-1.033c.425 0 .828-.11 1.209-.33.38-.219.656-.505.827-.856v-1.626h-1.062c-1.66 0-2.49.486-2.49 1.457 0 .425.142.757.425.996.283.24.647.36 1.091.36zm12.224-2.842c0 1.211-.278 2.184-.835 2.92-.556.734-1.303 1.101-2.241 1.101-1.001 0-1.775-.354-2.322-1.062l-.066.916h-1.245V63.25h1.355v4.197c.547-.679 1.301-1.018 2.263-1.018s1.718.363 2.267 1.091c.55.728.824 1.724.824 2.988v.117zm-1.355-.153c0-.923-.178-1.636-.534-2.139-.357-.503-.87-.754-1.539-.754-.893 0-1.535.415-1.926 1.245v3.427c.415.83 1.062 1.246 1.941 1.246.65 0 1.155-.252 1.516-.755.362-.503.542-1.26.542-2.27zm6.35 4.174c-1.074 0-1.948-.352-2.622-1.058-.674-.705-1.01-1.649-1.01-2.83v-.25c0-.786.15-1.488.45-2.105.3-.618.72-1.101 1.26-1.45a3.167 3.167 0 0 1 1.754-.524c1.03 0 1.83.34 2.402 1.018.571.678.857 1.65.857 2.915v.564h-5.369c.02.781.248 1.412.685 1.893.437.481.993.722 1.667.722.478 0 .883-.098 1.215-.293.332-.196.623-.455.872-.777l.828.645c-.664 1.02-1.66 1.53-2.989 1.53zm-.168-7.104c-.547 0-1.006.199-1.377.597-.371.398-.6.956-.689 1.674h3.97v-.103c-.039-.689-.224-1.222-.556-1.6-.333-.379-.782-.568-1.348-.568zm6.108-.967l.044.996c.606-.761 1.397-1.142 2.373-1.142 1.675 0 2.52.945 2.534 2.834V74.5h-1.355v-5.244c-.004-.571-.135-.994-.391-1.267-.257-.274-.656-.41-1.198-.41-.44 0-.825.117-1.157.351-.332.235-.591.542-.777.923V74.5h-1.354v-7.925h1.281zm12.18 7.925h-1.355v-7.925h1.355V74.5zm-1.464-10.027c0-.22.067-.405.201-.556.134-.152.333-.228.597-.228.264 0 .464.076.6.228a.8.8 0 0 1 .206.556c0 .22-.069.403-.205.55-.137.146-.337.22-.601.22-.264 0-.463-.074-.597-.22a.782.782 0 0 1-.201-.55zm4.907 2.102l.036.88c.581-.684 1.365-1.026 2.351-1.026 1.109 0 1.863.425 2.264 1.274.263-.38.606-.688 1.029-.923.422-.234.921-.351 1.498-.351 1.738 0 2.622.92 2.65 2.76V74.5h-1.354v-5.23c0-.566-.13-.99-.388-1.27-.259-.281-.694-.421-1.304-.421-.503 0-.92.15-1.252.45-.332.3-.525.704-.579 1.212V74.5h-1.362v-5.193c0-1.152-.564-1.728-1.692-1.728-.889 0-1.497.378-1.824 1.135V74.5h-1.355v-7.925h1.282zm19.71 3.611h-2.506V74.5h-1.413V63.836h3.53c1.201 0 2.125.273 2.772.82.647.547.97 1.343.97 2.388 0 .664-.179 1.243-.538 1.736-.358.493-.858.862-1.497 1.106l2.505 4.526v.088h-1.51l-2.314-4.314zm-2.506-1.15h2.161c.698 0 1.254-.18 1.666-.542.413-.361.62-.845.62-1.45 0-.66-.197-1.165-.59-1.516-.393-.352-.961-.53-1.703-.535h-2.154v4.043zm12.51 5.464c-.078-.156-.141-.435-.19-.835-.63.654-1.382.981-2.256.981-.781 0-1.422-.22-1.923-.662-.5-.442-.75-1.003-.75-1.681 0-.825.313-1.466.94-1.923.628-.456 1.51-.685 2.648-.685h1.319v-.622c0-.474-.142-.851-.425-1.132-.283-.28-.7-.421-1.252-.421-.484 0-.89.122-1.216.366-.327.244-.491.54-.491.886h-1.362c0-.395.14-.777.42-1.146.282-.368.662-.66 1.143-.875a3.844 3.844 0 0 1 1.586-.322c.913 0 1.628.228 2.146.685.518.456.786 1.085.806 1.886v3.647c0 .728.093 1.306.278 1.736v.117h-1.42zm-2.248-1.033c.424 0 .827-.11 1.208-.33.381-.219.657-.505.828-.856v-1.626h-1.062c-1.66 0-2.49.486-2.49 1.457 0 .425.141.757.424.996.284.24.647.36 1.092.36zm6.87-5.932c.6-.738 1.382-1.106 2.343-1.106 1.675 0 2.52.945 2.535 2.834V74.5h-1.355v-5.244c-.005-.571-.136-.994-.392-1.267-.257-.274-.656-.41-1.198-.41-.44 0-.825.117-1.157.351-.332.235-.59.542-.776.923V74.5h-1.355V63.25h1.355v4.285zm8.18-.96l.038.88c.58-.684 1.364-1.026 2.35-1.026 1.109 0 1.863.425 2.264 1.274.263-.38.606-.688 1.029-.923.422-.234.921-.351 1.498-.351 1.738 0 2.622.92 2.651 2.76V74.5h-1.355v-5.23c0-.566-.13-.99-.388-1.27-.259-.281-.694-.421-1.304-.421-.503 0-.92.15-1.252.45-.332.3-.525.704-.579 1.212V74.5h-1.362v-5.193c0-1.152-.564-1.728-1.692-1.728-.889 0-1.497.378-1.824 1.135V74.5h-1.355v-7.925h1.282zm15.162 8.071c-1.074 0-1.948-.352-2.622-1.058-.674-.705-1.01-1.649-1.01-2.83v-.25c0-.786.15-1.488.45-2.105.3-.618.72-1.101 1.26-1.45a3.167 3.167 0 0 1 1.754-.524c1.03 0 1.83.34 2.402 1.018.571.678.857 1.65.857 2.915v.564H296.2c.02.781.248 1.412.685 1.893.437.481.992.722 1.666.722.479 0 .884-.098 1.216-.293.332-.196.623-.455.872-.777l.827.645c-.664 1.02-1.66 1.53-2.988 1.53zm-.168-7.104c-.547 0-1.006.199-1.377.597-.371.398-.601.956-.689 1.674h3.97v-.103c-.04-.689-.225-1.222-.557-1.6-.332-.379-.781-.568-1.347-.568zm6.108-.967l.044.996c.605-.761 1.396-1.142 2.373-1.142 1.675 0 2.52.945 2.534 2.834V74.5h-1.355v-5.244c-.005-.571-.135-.994-.392-1.267-.256-.274-.655-.41-1.197-.41-.44 0-.825.117-1.157.351-.332.235-.591.542-.777.923V74.5h-1.355v-7.925h1.282zm13.323 6.087l1.963-6.087h1.384l-2.842 7.925h-1.033l-2.87-7.925h1.384l2.014 6.087zm4.182-2.198c0-.776.152-1.474.458-2.094.305-.62.73-1.099 1.274-1.436.544-.337 1.166-.505 1.864-.505 1.08 0 1.952.373 2.618 1.12.667.747 1 1.741 1 2.981v.095c0 .772-.147 1.464-.443 2.077a3.365 3.365 0 0 1-1.267 1.432c-.55.342-1.18.512-1.893.512-1.075 0-1.945-.373-2.611-1.12-.667-.747-1-1.736-1-2.966v-.096zm1.362.161c0 .88.204 1.585.612 2.117.407.532.953.799 1.637.799.688 0 1.235-.27 1.64-.81.406-.54.608-1.295.608-2.267 0-.869-.206-1.573-.619-2.113-.412-.54-.96-.809-1.644-.809-.669 0-1.208.266-1.619.798-.41.533-.615 1.294-.615 2.285zm8.833-4.05l.044.996c.606-.761 1.397-1.142 2.373-1.142 1.675 0 2.52.945 2.534 2.834V74.5h-1.355v-5.244c-.005-.571-.135-.994-.391-1.267-.257-.274-.656-.41-1.198-.41-.44 0-.825.117-1.157.351-.332.235-.591.542-.777.923V74.5h-1.355v-7.925h1.282zm-156.123 15.26v7.252c-.005 1.006-.32 1.829-.948 2.468-.628.64-1.479.999-2.553 1.077l-.373.014c-1.167 0-2.098-.314-2.79-.944-.694-.63-1.046-1.497-1.056-2.6v-7.266h1.392v7.222c0 .771.212 1.37.637 1.798.425.427 1.03.64 1.817.64.796 0 1.405-.212 1.827-.637.422-.424.634-1.023.634-1.794v-7.23h1.413zm3.281 2.74l.037.88c.581-.684 1.365-1.026 2.351-1.026 1.108 0 1.863.425 2.263 1.274.264-.38.607-.688 1.03-.923.422-.234.92-.351 1.497-.351 1.738 0 2.622.92 2.651 2.76V92.5h-1.355v-5.23c0-.566-.129-.99-.388-1.27-.258-.281-.693-.421-1.303-.421-.503 0-.92.15-1.253.45-.332.3-.525.704-.578 1.212V92.5h-1.363v-5.193c0-1.152-.564-1.728-1.692-1.728-.888 0-1.496.378-1.823 1.135V92.5h-1.355v-7.925h1.281zm18.89 6.057l1.523-6.057h1.355l-2.307 7.925h-1.099l-1.926-6.006-1.875 6.006h-1.099l-2.3-7.925h1.348l1.56 5.933 1.846-5.933h1.091l1.883 6.057zm7.543 2.014c-1.074 0-1.948-.352-2.622-1.058-.673-.705-1.01-1.649-1.01-2.83v-.25c0-.786.15-1.488.45-2.105.3-.618.72-1.101 1.26-1.45a3.167 3.167 0 0 1 1.754-.524c1.03 0 1.831.34 2.402 1.018.572.678.857 1.65.857 2.915v.564h-5.368c.02.781.247 1.412.684 1.893.437.481.993.722 1.667.722.478 0 .884-.098 1.216-.293.332-.196.622-.455.871-.777l.828.645c-.664 1.02-1.66 1.53-2.989 1.53zm-.168-7.104c-.547 0-1.006.199-1.377.597-.371.398-.6.956-.688 1.674h3.97v-.103c-.04-.689-.225-1.222-.557-1.6-.332-.379-.782-.568-1.348-.568zm6.299 6.958h-1.355V81.25h1.355V92.5zm4.006-9.844v1.92h1.48v1.047h-1.48v4.914c0 .317.066.556.198.714.132.159.356.238.674.238.156 0 .37-.029.644-.088V92.5a3.928 3.928 0 0 1-1.04.146c-.605 0-1.062-.183-1.37-.549-.307-.366-.46-.886-.46-1.56v-4.914h-1.444v-1.048h1.443v-1.919h1.355zm5.676 8.006l1.963-6.087h1.385l-2.842 7.925h-1.033l-2.871-7.925h1.384l2.014 6.087zm7.845 1.984c-1.075 0-1.949-.352-2.622-1.058-.674-.705-1.011-1.649-1.011-2.83v-.25c0-.786.15-1.488.45-2.105.3-.618.72-1.101 1.26-1.45a3.167 3.167 0 0 1 1.754-.524c1.03 0 1.831.34 2.403 1.018.57.678.857 1.65.857 2.915v.564h-5.37c.02.781.249 1.412.686 1.893.437.481.992.722 1.666.722.478 0 .884-.098 1.216-.293.332-.196.622-.455.871-.777l.828.645c-.664 1.02-1.66 1.53-2.988 1.53zm-.169-7.104c-.547 0-1.006.199-1.377.597-.37.398-.6.956-.688 1.674h3.97v-.103c-.04-.689-.225-1.222-.557-1.6-.332-.379-.781-.568-1.348-.568zm8.657.249a4.06 4.06 0 0 0-.666-.051c-.889 0-1.492.378-1.81 1.135V92.5h-1.354v-7.925h1.318l.022.916c.445-.708 1.074-1.062 1.89-1.062.264 0 .464.034.6.102v1.26zm3.45-3.135v1.92h1.48v1.047h-1.48v4.914c0 .317.066.556.198.714.132.159.356.238.674.238.156 0 .37-.029.644-.088V92.5a3.928 3.928 0 0 1-1.04.146c-.605 0-1.062-.183-1.37-.549-.307-.366-.46-.886-.46-1.56v-4.914h-1.444v-1.048h1.443v-1.919h1.355zm6.892 3.135a4.06 4.06 0 0 0-.666-.051c-.889 0-1.492.378-1.81 1.135V92.5h-1.354v-7.925h1.318l.022.916c.444-.708 1.074-1.062 1.89-1.062.263 0 .464.034.6.102v1.26zm5.845 6.709c-.078-.156-.142-.435-.19-.835-.63.654-1.382.981-2.256.981-.782 0-1.422-.22-1.923-.662-.5-.442-.75-1.003-.75-1.681 0-.825.313-1.466.94-1.923.628-.456 1.51-.685 2.648-.685h1.319v-.622c0-.474-.142-.851-.425-1.132-.283-.28-.7-.421-1.253-.421-.483 0-.888.122-1.215.366-.328.244-.491.54-.491.886h-1.363c0-.395.14-.777.422-1.146.28-.368.661-.66 1.142-.875a3.844 3.844 0 0 1 1.586-.322c.913 0 1.628.228 2.146.685.517.456.786 1.085.806 1.886v3.647c0 .728.092 1.306.278 1.736v.117h-1.421zm-2.249-1.033c.425 0 .828-.11 1.209-.33.38-.219.657-.505.828-.856v-1.626h-1.062c-1.66 0-2.49.486-2.49 1.457 0 .425.14.757.424.996.283.24.647.36 1.091.36zm-1.772-9.009c0-.22.067-.404.201-.552.135-.15.334-.224.597-.224.264 0 .464.075.6.224a.787.787 0 0 1 .206.552c0 .22-.068.403-.205.55-.137.146-.337.22-.6.22-.264 0-.463-.074-.598-.22a.782.782 0 0 1-.201-.55zm3.15.015c0-.22.067-.405.2-.556.135-.152.334-.228.598-.228.263 0 .464.076.6.228a.8.8 0 0 1 .205.556c0 .22-.068.403-.205.55-.136.146-.337.22-.6.22-.264 0-.463-.074-.597-.22a.782.782 0 0 1-.202-.55zm3.815 5.999c0-1.236.286-2.218.857-2.948.572-.73 1.328-1.095 2.27-1.095.968 0 1.722.342 2.264 1.025l.066-.879h1.238v7.735c0 1.025-.304 1.833-.912 2.424-.608.59-1.425.886-2.45.886-.571 0-1.13-.122-1.677-.366-.547-.244-.965-.579-1.253-1.004l.703-.813c.581.718 1.292 1.077 2.132 1.077.659 0 1.173-.185 1.541-.556.369-.372.553-.894.553-1.568v-.681c-.542.625-1.281.937-2.219.937-.928 0-1.678-.373-2.252-1.12-.574-.747-.86-1.765-.86-3.054zm1.363.153c0 .894.183 1.596.549 2.106.366.51.879.766 1.538.766.855 0 1.482-.389 1.882-1.165v-3.618c-.415-.757-1.037-1.135-1.867-1.135-.66 0-1.175.256-1.546.769-.37.512-.556 1.272-.556 2.277zm8.847 3.875h-1.355V81.25h1.355V92.5zm3.64 0h-1.355v-7.925h1.355V92.5zm-1.464-10.027c0-.22.067-.405.201-.556.134-.152.333-.228.597-.228.264 0 .464.076.6.228a.8.8 0 0 1 .206.556c0 .22-.069.403-.205.55-.137.146-.337.22-.601.22-.264 0-.463-.074-.597-.22a.782.782 0 0 1-.201-.55zm6.811 9.068c.484 0 .906-.147 1.267-.44.362-.293.562-.66.6-1.099h1.283c-.025.455-.181.887-.47 1.297-.287.41-.672.737-1.153.981-.48.244-.99.366-1.527.366-1.079 0-1.937-.36-2.574-1.08-.638-.72-.956-1.705-.956-2.955v-.227c0-.772.141-1.458.425-2.058.283-.6.69-1.067 1.22-1.4.529-.331 1.155-.497 1.878-.497.888 0 1.627.266 2.215.798.589.532.902 1.223.942 2.073h-1.282c-.04-.513-.233-.934-.582-1.264-.35-.33-.78-.494-1.293-.494-.689 0-1.222.248-1.6.743-.379.496-.568 1.213-.568 2.15v.256c0 .913.188 1.617.564 2.11.376.493.913.74 1.611.74zm6.028-6.006c.6-.738 1.382-1.106 2.344-1.106 1.675 0 2.52.945 2.534 2.834V92.5h-1.355v-5.244c-.005-.571-.136-.994-.392-1.267-.256-.274-.655-.41-1.197-.41-.44 0-.826.117-1.158.351-.332.235-.59.542-.776.923V92.5h-1.355V81.25h1.355v4.285zm9.119 3.296l-.85.886V92.5h-1.355V81.25h1.355v6.804l.725-.871 2.468-2.608h1.648l-3.083 3.31 3.442 4.615h-1.59l-2.76-3.67zm8.532 3.815c-1.074 0-1.948-.352-2.622-1.058-.674-.705-1.01-1.649-1.01-2.83v-.25c0-.786.15-1.488.45-2.105.3-.618.72-1.101 1.26-1.45a3.167 3.167 0 0 1 1.754-.524c1.03 0 1.83.34 2.402 1.018.571.678.857 1.65.857 2.915v.564h-5.369c.02.781.248 1.412.685 1.893.437.481.993.722 1.667.722.478 0 .883-.098 1.215-.293.332-.196.623-.455.872-.777l.828.645c-.664 1.02-1.66 1.53-2.989 1.53zm-.168-7.104c-.547 0-1.006.199-1.377.597-.371.398-.6.956-.689 1.674h3.97v-.103c-.039-.689-.224-1.222-.556-1.6-.333-.379-.782-.568-1.348-.568zm6.299 6.958h-1.355v-7.925h1.355V92.5zm-1.465-10.027c0-.22.067-.405.201-.556.135-.152.333-.228.597-.228.264 0 .464.076.6.228a.8.8 0 0 1 .206.556c0 .22-.069.403-.205.55-.137.146-.337.22-.6.22-.265 0-.463-.074-.598-.22a.782.782 0 0 1-.201-.55zm5.471.183v1.92h1.48v1.047h-1.48v4.914c0 .317.066.556.198.714.132.159.356.238.674.238.156 0 .37-.029.644-.088V92.5a3.928 3.928 0 0 1-1.04.146c-.605 0-1.062-.183-1.37-.549-.307-.366-.461-.886-.461-1.56v-4.914h-1.443v-1.048h1.443v-1.919h1.355zm7.676 7.742c0-.366-.138-.65-.414-.853-.276-.203-.757-.378-1.443-.524-.686-.146-1.23-.322-1.633-.527-.403-.205-.7-.45-.894-.733a1.752 1.752 0 0 1-.289-1.01c0-.65.275-1.2.824-1.648.55-.45 1.251-.674 2.106-.674.898 0 1.627.232 2.186.696.559.463.839 1.057.839 1.78h-1.363c0-.372-.157-.692-.472-.96-.315-.269-.712-.403-1.19-.403-.494 0-.88.107-1.158.322a1.014 1.014 0 0 0-.417.843c0 .327.13.573.388.74.259.165.726.324 1.403.475.676.152 1.224.332 1.644.542.42.21.731.463.934.758.202.296.304.656.304 1.08 0 .709-.283 1.276-.85 1.704-.566.427-1.301.64-2.204.64-.635 0-1.197-.112-1.685-.336a2.74 2.74 0 0 1-1.146-.942 2.268 2.268 0 0 1-.414-1.307h1.355c.024.454.206.814.546 1.08.339.266.787.4 1.344.4.512 0 .924-.104 1.234-.312.31-.207.465-.484.465-.831zm9.814-1.773c0 1.207-.276 2.178-.827 2.916-.552.737-1.3 1.105-2.242 1.105-.962 0-1.718-.305-2.27-.915v3.816h-1.355V84.575h1.238l.066.88c.551-.684 1.318-1.026 2.3-1.026.952 0 1.705.359 2.259 1.076.554.718.831 1.717.831 2.996v.124zm-1.355-.153c0-.894-.19-1.6-.571-2.117-.38-.518-.903-.776-1.567-.776-.82 0-1.436.363-1.846 1.09v3.788c.405.722 1.025 1.084 1.86 1.084.65 0 1.166-.258 1.55-.773.383-.515.574-1.28.574-2.296zm6.907-2.681a4.06 4.06 0 0 0-.666-.051c-.89 0-1.492.378-1.81 1.135V92.5h-1.355v-7.925h1.319l.022.916c.444-.708 1.074-1.062 1.89-1.062.263 0 .463.034.6.102v1.26zm6.138 5.925c-.528.62-1.302.93-2.322.93-.845 0-1.488-.245-1.93-.736-.442-.49-.665-1.217-.67-2.179v-5.156h1.355v5.12c0 1.201.488 1.802 1.465 1.802 1.035 0 1.723-.386 2.065-1.158v-5.764h1.355V92.5h-1.289l-.03-.784zm-4.124-9.258c0-.22.067-.404.202-.552.134-.15.333-.224.597-.224.263 0 .463.075.6.224a.787.787 0 0 1 .205.552c0 .22-.068.403-.205.55-.137.146-.337.22-.6.22-.264 0-.463-.074-.597-.22a.782.782 0 0 1-.202-.55zm3.15.015c0-.22.067-.405.201-.556.134-.152.333-.228.597-.228.264 0 .464.076.6.228a.8.8 0 0 1 .206.556c0 .22-.069.403-.205.55-.137.146-.337.22-.601.22-.264 0-.463-.074-.597-.22a.782.782 0 0 1-.201-.55zm5.017 10.027v-6.877h-1.253v-1.048h1.253v-.813c0-.85.227-1.506.68-1.97.455-.464 1.097-.696 1.927-.696.313 0 .623.042.93.125l-.073 1.098a3.892 3.892 0 0 0-.732-.066c-.44 0-.78.129-1.018.385-.24.256-.36.624-.36 1.102v.835h1.693v1.048h-1.692V92.5h-1.355zm9.433-.784c-.527.62-1.301.93-2.322.93-.844 0-1.488-.245-1.93-.736-.441-.49-.665-1.217-.67-2.179v-5.156h1.355v5.12c0 1.201.489 1.802 1.465 1.802 1.035 0 1.724-.386 2.066-1.158v-5.764h1.355V92.5h-1.29l-.029-.784zm4.658-7.14l.044.995c.606-.761 1.397-1.142 2.373-1.142 1.675 0 2.52.945 2.535 2.834V92.5h-1.355v-5.244c-.005-.571-.136-.994-.392-1.267-.257-.274-.656-.41-1.198-.41-.44 0-.825.117-1.157.351-.332.235-.59.542-.776.923V92.5h-1.355v-7.925h1.281zm6.673 3.896c0-1.236.285-2.218.857-2.948.571-.73 1.328-1.095 2.27-1.095.967 0 1.721.342 2.263 1.025l.066-.879h1.238v7.735c0 1.025-.304 1.833-.912 2.424-.608.59-1.424.886-2.45.886-.57 0-1.13-.122-1.677-.366-.547-.244-.964-.579-1.252-1.004l.703-.813c.58.718 1.291 1.077 2.131 1.077.66 0 1.173-.185 1.542-.556.369-.372.553-.894.553-1.568v-.681c-.542.625-1.282.937-2.22.937-.927 0-1.678-.373-2.252-1.12-.573-.747-.86-1.765-.86-3.054zm1.362.153c0 .894.183 1.596.55 2.106.366.51.878.766 1.538.766.854 0 1.481-.389 1.882-1.165v-3.618c-.415-.757-1.038-1.135-1.868-1.135-.659 0-1.174.256-1.545.769-.371.512-.557 1.272-.557 2.277zm10.664 4.021c-1.074 0-1.948-.352-2.622-1.058-.674-.705-1.01-1.649-1.01-2.83v-.25c0-.786.15-1.488.45-2.105.3-.618.72-1.101 1.26-1.45a3.167 3.167 0 0 1 1.754-.524c1.03 0 1.83.34 2.402 1.018.571.678.857 1.65.857 2.915v.564h-5.369c.02.781.248 1.412.685 1.893.437.481.993.722 1.666.722.479 0 .884-.098 1.216-.293.332-.196.623-.455.872-.777l.827.645c-.664 1.02-1.66 1.53-2.988 1.53zm-.168-7.104c-.547 0-1.006.199-1.377.597-.371.398-.6.956-.689 1.674h3.97v-.103c-.039-.689-.225-1.222-.557-1.6-.332-.379-.78-.568-1.347-.568zm6.108-.967l.044.996c.606-.761 1.397-1.142 2.373-1.142 1.675 0 2.52.945 2.534 2.834V92.5h-1.355v-5.244c-.005-.571-.135-.994-.392-1.267-.256-.274-.655-.41-1.197-.41-.44 0-.825.117-1.157.351-.332.235-.591.542-.777.923V92.5h-1.355v-7.925h1.282z" fill="#203564" fill-rule="nonzero"/></g></svg>