<?xml version="1.0" encoding="UTF-8" standalone="no"?>
<svg
   xmlns:dc="http://purl.org/dc/elements/1.1/"
   xmlns:cc="http://creativecommons.org/ns#"
   xmlns:rdf="http://www.w3.org/1999/02/22-rdf-syntax-ns#"
   xmlns:svg="http://www.w3.org/2000/svg"
   xmlns="http://www.w3.org/2000/svg"
   xml:space="preserve"
   style="enable-background:new 0 0 774 394.4;"
   viewBox="0 0 774 394.4"
   y="0px"
   x="0px"
   height="394.437842px"
   width="774px"
   id="Ebene_1"
   version="1.1"><metadata
   id="metadata19134"><rdf:RDF><cc:Work
       rdf:about=""><dc:format>image/svg+xml</dc:format><dc:type
         rdf:resource="http://purl.org/dc/dcmitype/StillImage" /><dc:title></dc:title></cc:Work></rdf:RDF></metadata><defs
   id="defs19132"><clipPath
     id="clipPath19093"
     clipPathUnits="userSpaceOnUse"><rect
       clip-path="none"
       y="-5.3809891"
       x="-155.80646"
       height="615.05841"
       width="155.80646"
       id="rect19095"
       style="display:none;opacity:0.8;fill:#ff00ff;fill-opacity:0.6;stroke-width:3.40805" /></clipPath><clipPath
     id="clipPath19926"
     clipPathUnits="userSpaceOnUse"><rect
       transform="scale(-1,1)"
       y="-0.98065168"
       x="-861.12756"
       height="399.21191"
       width="861.25"
       id="rect19928"
       style="opacity:0.8;fill:#ff00ff;fill-opacity:0.6;stroke-width:4.26924" /></clipPath><clipPath
     id="clipPath19944"
     clipPathUnits="userSpaceOnUse"><rect
       y="-0.018917849"
       x="0"
       height="394.96838"
       width="775.05096"
       id="rect19946"
       style="opacity:0.3;fill:#ff00ff;fill-opacity:1;stroke-width:3.57921" /></clipPath></defs>
<style
   id="style19120"
   type="text/css">
	.st0{opacity:0.25;fill-rule:evenodd;clip-rule:evenodd;fill:#133268;enable-background:new    ;}
</style>
<g
   id="Rectangle">
</g>



<g
   id="layer4"><g
     clip-path="url(#clipPath19944)"
     id="g19938"><path
       clip-path="none"
       style="display:inline;opacity:0.15;fill:#003380;fill-opacity:1;fill-rule:nonzero;stroke:none;stroke-width:0.910626px;stroke-linecap:butt;stroke-linejoin:miter;stroke-opacity:1"
       d="m 890.71023,587.07319 c 0.0163,-0.83454 0.0327,-1.66923 0.049,-2.74954 0.0164,-1.08031 0.0326,-2.39662 -22.05003,-10.32207 -22.08267,-7.92545 -66.17501,-22.42829 -109.12148,-41.7104 C 716.6413,513.00906 674.93908,488.98778 636.10121,464.73085 597.26334,440.47392 561.29144,415.98224 528.75807,381.94545 496.22469,347.90866 467.16059,304.36794 463.58954,258.71032 460.0185,213.0527 481.94892,165.35313 525.55925,129.38518 569.16958,93.417217 634.4522,69.197551 694.95955,53.984435 755.4669,38.771318 811.4812,32.534404 839.18964,29.180408 c 27.70844,-3.353996 27.68111,-3.887012 27.65372,-4.421217 -0.0274,-0.534206 -0.0549,-1.070776 -0.0823,-1.60472 -0.0273,-0.533944 -0.0547,-1.068358 -0.082,-1.601307 -0.0273,-0.532949 -0.0548,-1.066283 -0.0821,-1.600232 -0.0274,-0.533949 -0.0548,-1.069424 -0.0821,-1.60217 -0.0273,-0.532747 -0.0548,-1.068265 -0.0822,-1.601415 -0.0274,-0.533149 -0.0547,-1.066549 -0.082,-1.598541 -0.0273,-0.531992 -0.0548,-1.064332 -0.0821,-1.629923 -0.0274,-0.565591 -0.0547,-1.164016 -0.082,-1.761368 -0.0273,-0.597352 -0.0548,-1.194718 -0.0822,-1.792827 -0.0274,-0.598109 -0.0547,-1.1936764 -0.082,-1.7897983 -0.0273,-0.596122 -0.0548,-1.1921365 -0.0822,-1.7896901 -0.0274,-0.5975536 -0.0547,-1.1942816 -0.082,-1.7906124 -0.0273,-0.5963308 -0.0548,-1.1932288 -0.0822,-1.7906925 -0.0274,-0.5974638 -0.0547,-1.1921463 -0.082,-1.7871578 -0.0273,-0.59501152 -0.0546,-1.18793526 -32.96337,1.1723234 -32.90878,2.3602586 -97.75969,7.60196 -178.82889,23.7617957 -81.0692,16.159836 -177.88361,43.198248 -251.12247,80.788144 -73.23886,37.5899 -122.8916,85.72654 -153.2483,129.33409 -30.3567,43.60755 -41.41922,82.6862 -46.76584,118.42991 -5.34662,35.74371 -4.97632,68.14042 -3.25621,89.23597 1.72012,21.09556 4.78778,30.85951 7.97814,42.30216 3.19037,11.44266 6.49799,24.54561 10.36741,37.12264 3.86942,12.57702 8.2988,24.621 12.51112,35.37539 4.21233,10.75438 8.19992,20.19955 11.58385,24.90836 3.38394,4.70881 6.15798,4.66449 9.11651,4.63452 2.95854,-0.03 6.10127,-0.0456 15.07567,-0.31329 8.97439,-0.26773 23.80294,-0.78839 128.8313,-0.94927 105.02836,-0.16087 300.35782,0.0377 495.64298,0.23618 -0.85276,0.18235 -0.002,4.8e-4 -0.002,4.2e-4 4e-5,-7e-5 -0.85089,0.18193 0.002,-4.2e-4 0,0 0.0949,0.0155 0.0949,0.0155 z"
       id="path27534-7" /><path
       style="display:inline;opacity:0.2;fill:#003380;fill-opacity:1;fill-rule:nonzero;stroke:none;stroke-width:0.978752px;stroke-linecap:butt;stroke-linejoin:miter;stroke-opacity:1"
       d="m 830.85025,591.86824 c 0.0187,-0.84132 0.0375,-1.6828 0.0562,-2.77192 0.0188,-1.08912 0.0375,-2.41607 -25.26761,-10.4059 -25.30506,-7.98984 -75.83159,-22.61052 -125.04504,-42.04929 -49.21344,-19.43878 -97.00106,-43.65524 -141.50637,-68.10928 -44.5053,-24.45404 -85.7264,-49.14473 -123.00729,-83.45815 -37.2809,-34.31343 -70.58617,-78.20794 -74.67841,-124.23633 -4.09224,-46.0284 21.03837,-94.11557 71.01247,-130.37592 49.9741,-36.260349 124.78311,-60.67682 194.12011,-76.013595 69.337,-15.336776 133.5252,-21.624369 165.27702,-25.005678 31.75183,-3.381309 31.72051,-3.918709 31.68912,-4.457229 -0.0314,-0.538519 -0.0629,-1.079499 -0.0943,-1.617756 -0.0313,-0.538258 -0.0627,-1.077067 -0.094,-1.614321 -0.0313,-0.537254 -0.0627,-1.074728 -0.0941,-1.613116 -0.0314,-0.538388 -0.0628,-1.078256 -0.0941,-1.615306 -0.0313,-0.537051 -0.0628,-1.076971 -0.0942,-1.614427 -0.0314,-0.537455 -0.0627,-1.074996 -0.094,-1.611408 -0.0313,-0.536412 -0.0628,-1.072881 -0.0941,-1.643161 -0.0314,-0.570279 -0.0626,-1.173396 -0.094,-1.775687 -0.0313,-0.602292 -0.0627,-1.204336 -0.0942,-1.807392 -0.0314,-0.6030553 -0.0627,-1.2032887 -0.094,-1.8043423 -0.0313,-0.6010535 -0.0627,-1.201735 -0.0942,-1.8042311 -0.0314,-0.6024961 -0.0627,-1.2038993 -0.094,-1.8051642 -0.0313,-0.601265 -0.0627,-1.2028396 -0.0941,-1.8052431 -0.0314,-0.6024035 -0.0627,-1.2017444 -0.094,-1.801679 -0.0313,-0.59993467 -0.0626,-1.19750195 -37.77368,1.1819039 C 726.69859,4.6130241 652.38428,9.8973149 559.48497,26.188482 466.58566,42.47965 355.64357,69.737769 271.71723,107.63325 187.79089,145.52874 130.89256,194.05652 96.106225,238.01836 c -34.78634,43.96184 -47.463144,83.35805 -53.58992,119.39207 -6.126776,36.03401 -5.702448,68.69395 -3.731357,89.96087 1.971092,21.26691 5.486368,31.11017 9.142283,42.64581 3.655916,11.53565 7.446207,24.74508 11.880259,37.42429 4.434052,12.67922 9.509802,24.82106 14.336813,35.66283 4.82701,10.84177 9.396486,20.36368 13.274251,25.11082 3.877766,4.74714 7.05662,4.70247 10.446884,4.67224 3.390262,-0.0302 6.991592,-0.046 17.275562,-0.31592 10.28397,-0.26993 27.27638,-0.79481 147.63104,-0.957 120.35467,-0.16218 344.18761,0.038 567.9698,0.2381 -0.9772,0.18383 -0.002,4.4e-4 -0.003,4.2e-4 -1.8e-4,-2e-5 -0.97506,0.18341 0.002,-4.2e-4 0,0 0.10901,0.0158 0.10901,0.0158 z"
       id="path27534-2" /><path
       style="display:inline;opacity:0.3;fill:#003380;fill-opacity:1;fill-rule:nonzero;stroke:none;stroke-width:0.876177px;stroke-linecap:butt;stroke-linejoin:miter;stroke-opacity:1"
       d="m 799.1299,588.99453 c 0.0151,-0.83454 0.0303,-1.66923 0.0454,-2.74952 0.0152,-1.08029 0.0303,-2.39665 -20.41334,-10.32212 -20.4436,-7.92546 -61.26306,-22.42829 -101.02171,-41.71041 -39.75866,-19.28211 -78.36542,-43.30339 -114.32044,-67.56033 -35.95502,-24.25693 -69.25681,-48.7486 -99.37528,-82.78536 -30.11847,-34.03676 -57.0252,-77.57747 -60.33117,-123.23519 -3.30597,-45.65772 16.9966,-93.35729 57.36987,-129.3252 40.37327,-35.967908 100.81011,-60.187572 156.8261,-75.40066 56.01599,-15.213089 107.87248,-21.450001 133.52416,-24.803971 25.65168,-3.353969 25.62639,-3.886951 25.60103,-4.42117 -0.0254,-0.534219 -0.0508,-1.070766 -0.0761,-1.60472 -0.0253,-0.533955 -0.0506,-1.068346 -0.0759,-1.601308 -0.0253,-0.532963 -0.0507,-1.06639 -0.076,-1.600296 -0.0254,-0.533906 -0.0507,-1.069346 -0.076,-1.602103 -0.0253,-0.532756 -0.0507,-1.068255 -0.0761,-1.60142 -0.0253,-0.533165 -0.0506,-1.066655 -0.0759,-1.598602 -0.0253,-0.531946 -0.0507,-1.064377 -0.076,-1.629922 -0.0253,-0.565545 -0.0506,-1.164055 -0.076,-1.761367 -0.0253,-0.597313 -0.0507,-1.194763 -0.0761,-1.792832 -0.0254,-0.59807 -0.0506,-1.193711 -0.0759,-1.78979 -0.0253,-0.5960786 -0.0507,-1.1921801 -0.0761,-1.7896938 -0.0254,-0.5975137 -0.0506,-1.1943295 -0.0759,-1.7906158 -0.0253,-0.5962864 -0.0507,-1.1932664 -0.0761,-1.7906897 -0.0254,-0.5974232 -0.0506,-1.1921844 -0.0759,-1.7871538 -0.0253,-0.5949694 -0.0505,-1.1879761 -30.51692,1.172317 -30.46639,2.360293 -90.50359,7.6019751 -165.55518,23.7617851 -75.05159,16.15981 -164.67971,43.198222 -232.48218,80.788042 -67.80247,37.58981 -113.7696,85.72644 -141.87308,129.33404 -28.10348,43.60759 -38.34485,82.68624 -43.29462,118.43001 -4.94977,35.74378 -4.60696,68.14047 -3.01452,89.23606 1.59245,21.09559 4.4324,30.85954 7.38595,42.3022 2.95354,11.44266 6.01565,24.54561 9.59786,37.12264 3.58221,12.57703 7.6828,24.621 11.58246,35.37538 3.89966,10.75438 7.59125,20.19955 10.724,24.90833 3.13274,4.70878 5.70088,4.66446 8.4398,4.63449 2.73892,-0.03 5.64837,-0.0456 13.95663,-0.31329 8.30826,-0.26773 22.03614,-0.78839 119.26848,-0.94927 97.23235,-0.16087 278.06298,0.0377 458.8526,0.23618 -0.78946,0.18235 -0.001,2.9e-4 -0.002,3e-4 -3.2e-4,2e-5 -0.78823,0.18205 0.001,-3e-4 0,0 0.0886,0.0155 0.0886,0.0155 z"
       id="path27534" /></g></g></svg>