<?xml version="1.0" encoding="UTF-8" standalone="no"?>
<svg
   xmlns:dc="http://purl.org/dc/elements/1.1/"
   xmlns:cc="http://creativecommons.org/ns#"
   xmlns:rdf="http://www.w3.org/1999/02/22-rdf-syntax-ns#"
   xmlns:svg="http://www.w3.org/2000/svg"
   xmlns="http://www.w3.org/2000/svg"
   xml:space="preserve"
   style="enable-background:new 0 0 1080 592;"
   viewBox="0 0 1080 592"
   y="0px"
   x="0px"
   height="592px"
   width="1080px"
   id="Ebene_1"
   version="1.1"><metadata
   id="metadata861"><rdf:RDF><cc:Work
       rdf:about=""><dc:format>image/svg+xml</dc:format><dc:type
         rdf:resource="http://purl.org/dc/dcmitype/StillImage" /><dc:title></dc:title></cc:Work></rdf:RDF></metadata><defs
   id="defs859"><clipPath
     id="clipPath19093"
     clipPathUnits="userSpaceOnUse"><rect
       clip-path="none"
       y="-5.3809891"
       x="-155.80646"
       height="615.05841"
       width="155.80646"
       id="rect19095"
       style="display:block;opacity:0.8;fill:#ff00ff;fill-opacity:0.6;stroke-width:3.40805" /></clipPath><clipPath
     id="clipPath1624"
     clipPathUnits="userSpaceOnUse"><rect
       y="0"
       x="0.52075708"
       height="590.32257"
       width="891.73737"
       id="rect1626"
       style="opacity:0.2;fill:#ff00ff;fill-opacity:1;stroke-width:14.0266" /></clipPath></defs>
<style
   id="style848"
   type="text/css">
	.st0{opacity:0.25;fill:#133268;enable-background:new    ;}
</style>



<g
   style="display:inline;opacity:1"
   id="layer2"><g
     transform="matrix(1,0,0,1.0057419,0,0.00462714)"
     clip-path="url(#clipPath1624)"
     id="g1622"><path
       clip-path="none"
       style="display:inline;opacity:0.3;fill:#003380;fill-opacity:1;fill-rule:nonzero;stroke:none;stroke-width:0.96347px;stroke-linecap:butt;stroke-linejoin:miter;stroke-opacity:1"
       d="m -128.65601,590.10505 c -0.0182,-0.84069 -0.0363,-1.68154 -0.0545,-2.76983 -0.0182,-1.08829 -0.0363,-2.41427 24.5028,-10.39812 24.539113,-7.98385 73.53626,-22.59358 121.260057,-42.01779 47.723797,-19.42422 94.064933,-43.62254 137.223093,-68.05826 43.15816,-24.43571 83.13154,-49.1079 119.28396,-83.39561 36.15241,-34.2877 68.44957,-78.14933 72.4179,-124.1433 C 349.9456,213.32817 325.57565,165.27703 277.1142,129.04389 228.65275,92.810742 156.10814,68.412567 88.869931,53.087291 21.631721,37.762014 -40.61356,31.479132 -71.404292,28.10037 c -30.790728,-3.378761 -30.760378,-3.915744 -30.729948,-4.453867 0.0304,-0.538124 0.061,-1.078685 0.0914,-1.616545 0.0304,-0.53786 0.0607,-1.076252 0.0911,-1.613111 0.0304,-0.536858 0.0608,-1.073978 0.0912,-1.611934 0.0304,-0.537956 0.0608,-1.077415 0.0912,-1.61407 0.0303,-0.536655 0.0609,-1.076157 0.0913,-1.613217 0.0304,-0.53706 0.0607,-1.074249 0.0911,-1.610233 0.0304,-0.535985 0.0608,-1.072104 0.0912,-1.641931 0.0304,-0.569828 0.0608,-1.172535 0.0911,-1.774355 0.0304,-0.6018191 0.0608,-1.2034579 0.0913,-1.806039 0.0305,-0.602581 0.0607,-1.2024104 0.0911,-1.8029905 0.0304,-0.6005802 0.0608,-1.2008581 0.0913,-1.8028799 0.0305,-0.6020217 0.0608,-1.20302 0.0911,-1.8038107 0.0304,-0.6007907 0.0608,-1.2019585 0.0913,-1.8038897 0.0305,-0.60193109 0.0607,-1.20086885 0.0911,-1.80033075 0.0304,-0.5994619 0.0606,-1.19662745 36.630445,1.18101531 C -27.657173,3.2898245 44.407694,8.5701465 134.49501,24.849099 c 90.08732,16.278952 197.67129,43.516647 279.05724,81.383711 81.38594,37.86706 136.56201,86.35847 170.29544,130.28739 33.73343,43.92891 46.02653,83.29559 51.96787,119.30265 5.94135,36.00705 5.52986,68.64253 3.61842,89.89352 -1.91144,21.251 -5.32034,31.08691 -8.8656,42.6139 -3.54526,11.527 -7.22083,24.72653 -11.52067,37.39624 -4.29983,12.66971 -9.22194,24.80247 -13.90284,35.63612 -4.6809,10.83364 -9.11206,20.34843 -12.87244,25.09199 -3.76039,4.74357 -6.84302,4.69893 -10.13066,4.66873 -3.28764,-0.0302 -6.77996,-0.0459 -16.75265,-0.31564 -9.97268,-0.26971 -26.45074,-0.7942 -143.16238,-0.95627 -116.71163,-0.16206 -333.76936,0.038 -550.77786,0.23792 0.94762,0.1837 0.002,4.5e-4 0.002,4.2e-4 1.3e-4,-3e-5 0.94554,0.18328 -0.002,-4.2e-4 0,0 -0.10546,0.0157 -0.10546,0.0157 z"
       id="path27534-7" /><path
       style="display:inline;opacity:0.2;fill:#003380;fill-opacity:1;fill-rule:nonzero;stroke:none;stroke-width:1.03555px;stroke-linecap:butt;stroke-linejoin:miter;stroke-opacity:1"
       d="m -62.137269,594.93544 c -0.02081,-0.84752 -0.04163,-1.69521 -0.06249,-2.79238 -0.02086,-1.09717 -0.0416,-2.43385 28.078322,-10.48255 28.1199274,-8.04871 84.266993,-22.77715 138.954906,-42.35919 54.68791,-19.58205 107.79137,-43.97699 157.24741,-68.61126 49.45604,-24.63427 95.26255,-49.50694 136.69058,-84.07332 41.42804,-34.56637 78.43818,-78.78441 82.98569,-125.15186 4.54752,-46.36745 -23.3786,-94.80905 -78.91176,-131.33677 C 347.31223,93.600385 264.18154,69.003959 187.13148,53.554119 110.08142,38.104278 38.752992,31.770344 3.4690853,28.364058 -31.814821,24.957772 -31.780027,24.416358 -31.745159,23.873896 c 0.03487,-0.542462 0.0699,-1.087479 0.104715,-1.629677 0.03481,-0.542199 0.06962,-1.085032 0.104413,-1.62622 0.0348,-0.541188 0.06968,-1.082434 0.104553,-1.624885 0.03487,-0.542451 0.06973,-1.086348 0.104486,-1.627333 0.03476,-0.540984 0.06978,-1.084933 0.1046,-1.626324 0.03482,-0.541391 0.06959,-1.082708 0.104405,-1.623167 0.03481,-0.540459 0.0697,-1.080695 0.104561,-1.655265 0.03486,-0.574569 0.06963,-1.181963 0.104457,-1.788779 0.03482,-0.606816 0.06971,-1.2131298 0.104615,-1.8207129 0.03491,-0.607583 0.06959,-1.2120756 0.104423,-1.8176423 0.03483,-0.6055667 0.0697,-1.2105085 0.104594,-1.8175277 0.0349,-0.6070192 0.06962,-1.2126904 0.104428,-1.8184699 0.03481,-0.6057795 0.0697,-1.2116178 0.104615,-1.8185458 0.03492,-0.60692786 0.06961,-1.21052107 0.104409,-1.8149613 0.03479,-0.60444024 0.06949,-1.2062461 41.97577,1.19067202 C 53.600165,3.3519763 136.18112,8.6752052 239.41453,25.086455 c 103.2334,16.41125 226.51658,43.870269 319.7789,82.045165 93.26232,38.1749 156.48997,87.06035 195.14578,131.34619 38.65582,44.28583 52.74278,83.97242 59.55105,120.2719 6.80827,36.29947 6.33674,69.20013 4.14641,90.62374 -2.19033,21.4236 -6.09664,31.33939 -10.15924,42.96006 -4.0626,11.62067 -8.27452,24.92747 -13.2018,37.70012 -4.92728,12.77265 -10.56766,25.00401 -15.93162,35.92569 -5.36396,10.92168 -10.44174,20.51377 -14.75089,25.29596 -4.30915,4.78218 -7.84163,4.73718 -11.60902,4.70673 -3.76739,-0.0304 -7.76934,-0.0463 -19.19728,-0.31821 -11.42793,-0.27191 -30.31054,-0.80066 -164.05337,-0.96404 -133.74282,-0.16338 -382.47473,0.0383 -631.150242,0.23985 1.085902,0.18519 0.0031,5.3e-4 0.0031,4.8e-4 4.4e-5,-5e-5 1.083202,0.18471 -0.0025,-4.8e-4 0,0 -0.121139,0.0158 -0.121139,0.0158 z"
       id="path27534-2" /><path
       style="display:inline;opacity:0.5;fill:#003380;fill-opacity:1;fill-rule:nonzero;stroke:none;stroke-width:0.927022px;stroke-linecap:butt;stroke-linejoin:miter;stroke-opacity:1"
       d="m -26.888376,592.04055 c -0.01683,-0.84069 -0.03366,-1.68153 -0.05053,-2.7698 -0.01687,-1.08828 -0.03364,-2.4143 22.6840222,-10.39816 C 18.462783,570.88873 63.822978,556.279 108.00435,536.85478 c 44.18138,-19.42422 87.08272,-43.62255 127.03735,-68.05826 39.95464,-24.43572 76.96089,-49.10791 110.42976,-83.39557 33.46887,-34.28767 63.36868,-78.1493 67.04244,-124.14338 3.67376,-45.99409 -18.88725,-94.04523 -63.75154,-130.27831 C 303.89807,94.746188 236.73827,70.348012 174.49104,55.022761 112.24381,39.69751 54.618847,33.414629 26.113668,30.035902 -2.3915101,26.657175 -2.3633916,26.120227 -2.3352067,25.58209 c 0.028185,-0.538137 0.0565,-1.078675 0.084639,-1.616548 0.028139,-0.537874 0.056269,-1.076237 0.084395,-1.613109 0.028126,-0.536873 0.056345,-1.074106 0.084519,-1.612009 0.028174,-0.537903 0.056348,-1.077327 0.084442,-1.613995 0.028094,-0.536667 0.0564,-1.076144 0.084547,-1.61322 0.028147,-0.537076 0.056272,-1.074374 0.0844,-1.610304 0.028128,-0.53593 0.056345,-1.072159 0.084515,-1.641933 0.028171,-0.569775 0.05629,-1.172585 0.08443,-1.774354 0.02814,-0.601768 0.056349,-1.203509 0.084558,-1.806042 0.028209,-0.602532 0.056259,-1.2024534 0.084402,-1.8029836 0.028143,-0.6005302 0.056344,-1.2009131 0.084542,-1.802886 0.028198,-0.6019729 0.05628,-1.2030728 0.084407,-1.80381 0.028127,-0.6007372 0.056341,-1.202005 0.084558,-1.8038889 0.028217,-0.6018839 0.056274,-1.2009181 0.084391,-1.8003288 0.028117,-0.5994106 0.056175,-1.19667291 33.9114754,1.1809845 33.8553,2.3776573 100.570987,7.6579808 183.971297,23.9369198 83.40031,16.278938 182.99858,43.516633 258.3434,81.383607 75.34481,37.86698 126.42528,86.35839 157.65485,130.28733 31.22957,43.92895 42.61018,83.29562 48.11054,119.30276 5.50035,36.00713 5.11941,68.64261 3.34983,89.89363 -1.76957,21.25103 -4.92543,31.08695 -8.20753,42.61394 -3.2821,11.527 -6.68484,24.72653 -10.66552,37.39625 -3.98068,12.66972 -8.53743,24.80246 -12.87088,35.63611 -4.33344,10.83364 -8.43569,20.34842 -11.91694,25.09195 -3.48124,4.74353 -6.33506,4.69889 -9.37866,4.66869 -3.0436,-0.0302 -6.27669,-0.0459 -15.50914,-0.31564 -9.23245,-0.26971 -24.48739,-0.79421 -132.53579,-0.95627 -108.0484,-0.16206 -308.99447,0.038 -509.894958,0.23792 0.877283,0.1837 0.002,4.2e-4 0.0021,3.9e-4 1.44e-4,-3e-5 0.875511,0.18331 -0.0016,-3.9e-4 0,0 -0.09842,0.0157 -0.09842,0.0157 z"
       id="path27534" /></g></g></svg>