<?xml version="1.0" standalone="no"?>
<!DOCTYPE svg PUBLIC "-//W3C//DTD SVG 20010904//EN"
 "http://www.w3.org/TR/2001/REC-SVG-20010904/DTD/svg10.dtd">
<svg version="1.0" xmlns="http://www.w3.org/2000/svg"
 width="500.000000pt" height="109.000000pt" viewBox="0 0 500.000000 109.000000"
 preserveAspectRatio="xMidYMid meet">
<metadata>
Created by potrace 1.16, written by Peter Selinger 2001-2019
</metadata>
<g transform="translate(0.000000,109.000000) scale(0.100000,-0.100000)"
fill="#2C63B1" stroke="none">
<path d="M40 1061 c0 -33 5 -35 115 -46 176 -18 398 -76 516 -135 69 -35 143
-99 166 -144 9 -18 16 -55 16 -86 0 -137 -132 -279 -373 -400 -84 -42 -303
-130 -402 -161 -59 -18 -78 -28 -78 -41 0 -17 35 -18 654 -18 l654 0 20 33
c54 93 76 169 80 279 3 91 0 118 -18 174 -95 284 -444 467 -1055 551 -60 8
-152 17 -202 20 l-93 4 0 -30z"/>
<path d="M1775 1011 l-50 -6 -3 -466 -2 -466 52 -7 c99 -11 400 -6 469 8 126
27 216 93 239 176 18 65 12 146 -15 200 -26 51 -88 105 -131 116 -22 6 -21 8
18 37 62 48 81 79 86 142 10 118 -43 202 -154 246 -54 21 -77 23 -259 25 -110
1 -222 -1 -250 -5z m392 -187 c39 -30 51 -76 29 -120 -21 -45 -60 -61 -165
-70 l-81 -7 0 113 0 112 95 -4 c76 -3 100 -8 122 -24z m33 -380 c24 -13 39
-33 49 -60 13 -37 12 -44 -5 -80 -27 -55 -60 -68 -186 -72 l-108 -4 0 122 0
122 108 -3 c85 -3 114 -8 142 -25z"/>
<path d="M2811 885 c-100 -242 -253 -677 -276 -782 l-7 -33 120 0 120 0 6 28
c4 15 18 64 32 110 l25 82 163 0 163 0 27 -92 c16 -51 30 -101 33 -110 4 -16
19 -18 124 -18 l119 0 -6 28 c-29 121 -217 652 -300 844 l-29 68 -131 0 -132
0 -51 -125z m243 -253 c31 -90 56 -165 56 -168 0 -2 -52 -4 -116 -4 -115 0
-115 0 -109 23 10 37 108 317 110 314 2 -1 28 -75 59 -165z"/>
<path d="M3400 998 c0 -55 140 -514 232 -760 l62 -168 107 0 107 0 50 153 c27
83 66 215 87 293 l39 141 53 -186 c29 -102 69 -234 89 -293 l36 -108 104 0
105 0 26 57 c62 141 273 814 273 873 0 6 -50 10 -119 10 l-119 0 -7 -47 c-9
-60 -106 -444 -135 -538 l-23 -70 -23 80 c-13 43 -52 191 -86 327 l-63 248
-111 0 -111 0 -47 -192 c-26 -106 -64 -254 -85 -328 l-38 -135 -27 85 c-33
108 -122 460 -131 523 l-7 47 -119 0 c-89 0 -119 -3 -119 -12z"/>
</g>
</svg>
