<?xml version="1.0" encoding="utf-8"?>
<!-- Generator: Adobe Illustrator 16.0.3, SVG Export Plug-In . SVG Version: 6.00 Build 0)  -->
<!DOCTYPE svg PUBLIC "-//W3C//DTD SVG 1.1//EN" "http://www.w3.org/Graphics/SVG/1.1/DTD/svg11.dtd">
<svg version="1.1" id="Ebene_1" xmlns="http://www.w3.org/2000/svg" xmlns:xlink="http://www.w3.org/1999/xlink" x="0px" y="0px"
	 width="110" height="90.708px" viewBox="0 0 110 90.708" enable-background="new 0 0 110 90.708" xml:space="preserve">
<polygon points="39.919,88.476 39.907,88.476 39.919,88.476 39.922,88.476 39.935,88.476 "/>
<g>
	<defs>
		<rect id="SVGID_1_" y="0" width="110" height="140"/>
	</defs>
	<clipPath id="SVGID_2_">
		<use xlink:href="#SVGID_1_"  overflow="visible"/>
	</clipPath>
	<path clip-path="url(#SVGID_2_)" d="M27.161,16.579c-0.001-0.021-0.021,0.003-0.021,0.003l-0.023-0.019
		c0.001-0.027-0.047-0.027-0.068-0.021c-0.088,0.021-0.136,0.064-0.199,0.091c-0.114,0.043-0.339,0.064-0.407,0.024
		c-0.111-0.046-0.205-0.158-0.293-0.18c-0.089-0.021-0.087,0-0.066,0.113c0.093,0.313,0.696,0.268,0.945,0.198
		C27.117,16.74,27.208,16.676,27.161,16.579"/>
	<path clip-path="url(#SVGID_2_)" d="M30.156,15.37c0.004-0.046,0.004-0.046-0.045-0.046h-0.043h-0.023v0.025h-0.022
		c-0.021,0-0.024,0.021-0.019,0.09c0,0.177-0.132,0.471-0.203,0.562c-0.041,0.043-0.508,0.407-0.421,0.519
		c0.094,0.112,0.469-0.275,0.535-0.342c0.046-0.065,0.268-0.562,0.265-0.717C30.179,15.434,30.18,15.391,30.156,15.37"/>
	<path clip-path="url(#SVGID_2_)" d="M27.964,16.306c-0.109,0.003-0.289-0.064-0.358-0.131c-0.158-0.177-0.249-0.49-0.431-0.648
		c-0.138-0.136-0.52-0.243-0.697-0.219c-0.403,0.045-0.734,0.564-1.002,0.971c-0.024,0.027-0.024,0.113,0,0.158
		c0.048,0.067,0.337-0.088,0.383-0.136c0.175-0.16,0.263-0.474,0.441-0.608c0.111-0.067,0.313-0.093,0.383,0.038
		c0,0.051,0.002,0.07,0,0.115c-0.11,0.224-0.356,0.246-0.306,0.382c0.11,0.204,0.358,0.201,0.536,0.11
		c0.111-0.07,0.176-0.182,0.242-0.182c0.071,0,0.182,0.112,0.317,0.222c0.273,0.198,0.542,0.263,0.788,0.083
		c0.067-0.045,0.108-0.136,0.067-0.2C28.28,16.215,28.104,16.285,27.964,16.306"/>
	<path clip-path="url(#SVGID_2_)" d="M29.705,14.877c-0.042-0.043-0.086,0.005-0.129,0.07c-0.159,0.203-0.201,0.604-0.312,0.832
		c-0.067,0.136-0.156,0.206-0.313,0.291c-0.088,0.051-0.179,0.097-0.225,0.142c0.003,0.019,0.028,0.088,0.048,0.137
		c0.136,0.149,0.629-0.258,0.692-0.348C29.466,15.979,29.794,14.969,29.705,14.877"/>
	<path clip-path="url(#SVGID_2_)" d="M25.608,15.721c0.02-0.003,0.042-0.003,0.087-0.116c0.199-0.358,0.221-0.428,0.58-0.519
		c0.602-0.163,0.961-0.251,1.435,0.011c0.227,0.112,0.383,0.268,0.43,0.493c0.001,0.09,0.024,0.085,0.046,0.11
		c0.045,0.002,0.069,0.023,0.09-0.004c0.044-0.021,0.067-0.176,0.043-0.288c-0.071-0.316-0.676-0.578-0.995-0.621
		c-0.154-0.043-0.31-0.043-0.448,0.002c-0.11,0.024-0.2,0.067-0.312,0.116c-0.133,0.048-0.29,0.048-0.448,0.093
		c-0.336,0.094-0.49,0.292-0.6,0.635C25.493,15.721,25.516,15.745,25.608,15.721"/>
	<path clip-path="url(#SVGID_2_)" d="M32.027,13.759c-0.135-0.331-0.407-0.781-0.455-1.116c-0.023-0.088-0.052-0.85-0.034-1.008
		c0-0.115,0-0.115-0.062-0.022c-0.091,0.134-0.133,0.338-0.157,0.471c-0.019,0.268,0.073,0.581,0.008,0.851
		c-0.044,0.182-0.155,0.316-0.198,0.497c-0.086,0.269-0.086,0.653,0.097,0.83c0.067,0.07,0.136,0.088,0.226,0.085
		c0.022-0.023,0.044-0.021,0.021-0.155l-0.048-0.428c-0.027-0.133-0.004-0.133,0.041-0.155c0.135,0,0.18,0.022,0.224,0.089
		c0.209,0.313,0.073,0.401-0.103,0.74c-0.021,0.092-0.067,0.204-0.021,0.225c0.042,0.043,0.156,0,0.225-0.024
		C32.124,14.413,32.145,14.075,32.027,13.759"/>
	<path clip-path="url(#SVGID_2_)" fill="#E4032E" d="M4.889,51.24c0,19.279,15.623,34.903,34.899,34.903
		c19.274,0,34.901-15.75,34.901-35.026V5.53h-69.8V51.24z M8.658,39.857c-0.001-0.091-0.004-0.107,0.021-0.107l0.025-0.003
		c0.02-0.003,0.02-0.003,0.087-0.112c0.043-0.115,0.109-0.228,0.132-0.34c0.045-0.088,0.042-0.198,0.04-0.289
		c0.047-0.133,0.111-0.272,0.202-0.385c0.285-0.407,0.444-0.43,0.823-0.613c0.177-0.088,1.317-1.022,1.559-1.292
		c0.401-0.428,0.736-0.835,1.18-1.29c0.315-0.336,0.756-0.853,0.868-1.035c0.044-0.091,0.066-0.179,0.134-0.248
		c0.088-0.134,0.288-0.201,0.399-0.338c0.113-0.157,0.109-0.43,0.175-0.634c0.172-0.54,1.043-1.104,1.381-1.107
		c0.271-0.003,0.562,0.173,0.944,0.219c0.473,0.064,1.078-0.102,1.458-0.059c0.317,0.022,0.696,0.262,1.105,0.685
		c0.159,0.182,0.254,0.338,0.409,0.45c0.225,0.176,0.83,0.304,1.302,0.484c0.385,0.128,0.881,0.417,1.308,0.658
		c0.112,0.048,0.114,0.064,0.179,0.064l0.069,0.006c0.067,0,0.069-0.025,0.069-0.14c-0.005-0.088-0.007-0.181,0.02-0.245
		c0.124-0.833,0.698-2.269,1.387-2.657c0.094-0.067,0.204-0.097,0.296-0.14c0.646-0.363,0.481-1.326,0.654-2.113
		c0.042-0.179,0.66-1.329,0.817-1.509c0.404-0.497,0.867-0.973,1.288-1.471c0.315-0.337,0.824-1.062,0.956-1.327
		c0.157-0.337,0.482-1.217,0.548-1.597c0.022-0.182-0.028-0.698-0.095-0.832c-0.091-0.156-0.203-0.313-0.299-0.447
		c-0.086-0.088-0.112-0.088-0.244-0.04c-0.221,0.091-0.47,0.273-0.694,0.358c-0.513,0.166-1.099-0.123-1.705-0.117
		c-0.606,0.002-0.649,0.476-1.003,1.086c-0.174,0.337-0.574,0.674-0.867,0.701c-0.292,0.027-0.628-0.129-0.895-0.059
		c-0.137,0.024-0.271,0.112-0.406,0.139c-0.111,0.021-0.382-0.067-0.607-0.177c-0.47-0.219-0.563-0.286-0.525-0.872
		c0.003-0.109,0-0.136-0.133-0.134c-0.177,0.027-0.403,0.054-0.538,0.006c-0.116-0.043-0.16-0.112-0.246-0.155
		c-0.206-0.086-0.632-0.064-0.836-0.15c-0.113-0.065-0.406-0.489-0.475-0.69c-0.047-0.177-0.026-0.498-0.03-0.72
		c-0.001-0.134-0.001-0.134,0.021-0.134c0.026-0.003,0.024-0.018,0.047-0.136c0.042-0.246,0.105-0.583,0.08-0.739
		c-0.046-0.203-0.222-0.337-0.293-0.54c-0.136-0.31,0.037-0.875,0.282-1.118c0.177-0.182,0.448-0.3,0.647-0.503
		c0.222-0.228,0.401-0.541,0.578-0.632c0.134-0.066,0.291-0.069,0.449-0.09c0.092-0.027,0.18-0.052,0.268-0.094
		c0.178-0.091,1.849-1.453,2.767-2.175c0.086-0.07,0.11-0.091,0.129-0.206c0.022-0.156,0.022-0.334,0.087-0.425
		c0.09-0.201,0.758-0.544,0.96-0.568c0.272-0.048,0.472,0.064,0.717-0.005c0.161-0.069,0.313-0.182,0.471-0.3
		c0.09-0.064,0.086-0.091,0-0.155c-0.091-0.064-0.16-0.11-0.206-0.2c-0.224-0.289-0.252-0.715-0.163-0.967
		c0.374-0.986,0.955-1.147,2.122-1.112c0.113,0.021,0.134,0,0.156-0.115c0.021-0.132,0.045-0.247,0.108-0.359
		c0.068-0.158,0.557-0.719,0.69-0.837c0.113-0.067,0.268-0.089,0.561-0.113c0.111-0.002,0.131,0.019,0.135,0.132l0.005,0.628
		c-0.001,0.134,0.024,0.134,0.134,0.11c0.34-0.067,0.606-0.158,0.807-0.027c0.183,0.113,0.161,0.265-0.083,0.404
		c-0.204,0.112-0.269,0.07-0.29,0.252c-0.023,0.198,0.048,0.358,0.227,0.422c0.29,0.11,0.268-0.112,0.265-0.361
		c0-0.158,0.155-0.471,0.266-0.698c0.265-0.543,0.328-0.765,0.935-0.929c0.222-0.069,0.402-0.024,0.494,0.268
		c0.045,0.134,0.028,0.425,0.005,0.647c0.002,0.206,0.556,2.352,0.943,2.821c0.383,0.446,1.212,0.307,1.933,0.435
		c0.222,0.017,0.425,0.108,0.559,0.196c0.025,0.021,0.637,0.602,0.705,0.799c0.023,0.092,0.023,0.182,0.048,0.273
		c0.066,0.201,0.248,0.199,0.45,0.287c0.136,0.088,0.269,0.243,0.386,0.377c0.363,0.45,0.272,0.514,0.345,1.343
		c0,0.115,0.026,0.136,0.14,0.158c0.809,0.152,1.436,0.618,1.713,1.238c0.429,0.921,0.323,1.1,0.261,1.841
		c-0.023,0.161,0.045,0.493,0.092,0.605c0.138,0.182,0.362,0.291,0.587,0.465c0.093,0.113,0.549,0.872,0.594,1.054
		c0.046,0.134,0.068,0.292,0.114,0.401c0.045,0.113,0.088,0.201,0.139,0.316c0.045,0.134,0.048,0.757,0.005,0.961
		c-0.063,0.339-0.175,0.676-0.237,0.923c-0.045,0.088-0.065,0.176-0.043,0.246c0.022,0.091,0.112,0.136,0.2,0.225
		c0.093,0.069,0.433,0.711,0.48,0.914c0.047,0.225,0.123,1.146,0.079,1.349c-0.021,0.131-0.066,0.243-0.109,0.38
		c-0.133,0.294-0.426,0.588-0.466,0.808c0,0.117,0.186,0.631,0.256,0.965c0.069,0.201,0.069,0.56,0.05,0.827
		c-0.043,0.252-0.241,0.926-0.329,1.038c-0.017,0.043-0.058,0.08-0.1,0.107l-0.334,0.305h-0.001
		c-0.053,0.053-0.155,0.107-0.255,0.219c-0.087,0.092-0.111,0.23-0.176,0.364c-0.088,0.204-0.355,0.535-0.556,0.701
		c-0.112,0.089-0.112,0.089,0,0.156c0.295,0.13,0.475,0.4,0.66,0.553c0.109,0.113,0.809,0.444,1.214,0.575
		c1.572,0.57,3.285,1.098,4.899,1.038c1.055-0.029,2.913-0.2,3.205-0.136c0.337,0.064,0.742,0.196,0.946,0.196
		c0.155-0.028,0.334-0.049,0.45-0.009c0.086,0.024,0.157,0.115,0.224,0.134c0.111,0.045,0.269,0.022,0.448-0.006
		c0.091,0,2.143,0.974,2.342,1.13c0.611,0.422,1.176,0.842,1.691,1.15c0.269,0.158,1.599,0.664,1.756,0.682
		c0.247,0,0.696-0.072,0.942-0.184c0.13-0.048,0.712-0.632,0.778-0.746c0.065-0.116,0.197-0.453,0.196-0.586
		c0-0.18-0.25-0.782-0.32-0.895c-0.178-0.246-0.789-0.625-1.107-1c-0.478-0.583-0.553-1.881-0.4-2.598
		c0.041-0.205,0.571-1.439,0.705-1.624c0.441-0.655,1.09-1.2,1.915-1.586c1.005-0.455,2.598-0.669,3.746-0.166
		c0.315,0.134,0.878,0.49,1.06,0.803c0.094,0.133,0.159,0.313,0.207,0.422c0.135,0.247,0.38,0.086,1.1,0.084
		c0.178,0,0.741,0.152,1.076,0.259c0.498,0.198,0.587,0.243,0.993,0.645c0.769,0.709,1.108,1.136,1.316,1.961
		c0.049,0.246,0.131,1.816,0.084,1.95c-0.13,0.428-0.329,0.632-0.212,1.215c0.067,0.315,0.25,0.428,0.52,0.711
		c0.339,0.362,0.659,1.252,0.732,1.59c0.042,0.203,0.03,1.548-0.033,1.819c-0.151,0.898-0.237,0.987-0.504,1.599
		c-0.154,0.313-0.302,0.83-0.327,1.121c-0.128,0.9,0.331,1.793,1.316,1.739c0.289,0,0.2-0.112,0.423-0.406
		c0.11-0.158,0.266-0.161,0.335-0.027c0.161,0.473-0.616,1.418-0.951,1.532c-0.133,0.069-0.742,0.076-0.854,0.029
		c-0.404-0.152-0.517-0.42-0.877-0.374c-0.087,0.024-0.087,0.024-0.043,0.137c0.453,0.76,0.843,1.431,0.96,2.276
		c0.046,0.497-0.083,0.884-0.392,1.646c-0.417,1.014-0.659,1.506-1.35,2.074c-0.157,0.138-1.318,0.729-1.498,0.774
		c-0.202,0.046-1.052,0.055-1.213,0.011c-0.247-0.063-0.694-0.355-0.834-0.647c-0.09-0.176-0.049-0.47,0.131-0.534
		c0.179-0.073,0.156,0.04,0.182,0.176c0.024,0.064,0.042,0.113,0.09,0.178c0.228,0.267,0.562,0.289,0.855,0.24
		c0.983-0.209,1.563-0.823,1.873-1.63c0.04-0.136,0.163-1.929,0.139-2.132c-0.047-0.201-0.119-0.401-0.184-0.447
		c-0.047-0.046-0.113-0.046-0.136-0.003c-0.021,0.07,0.002,0.249,0.006,0.43c-0.023,0.224-0.087,0.473-0.174,0.699
		c-0.087,0.244-0.155,0.515-0.353,0.493c-0.048,0-0.048-0.021-0.048-0.134c0.017-0.626-0.004-0.808-0.149-1.348
		c-0.044-0.131-0.044-0.131-0.065-0.135l-0.044,0.006c-0.026,0-0.022,0.019-0.022,0.134c0.024,0.313,0.048,0.649,0.05,0.941
		c-0.021,0.155-0.306,0.99-0.395,1.123c-0.085,0.161-0.891,0.838-1.002,0.884c-0.269,0.094-0.559,0.074-0.584-0.22
		c-0.004-0.337,0.176-0.154,0.426-0.272c0.087-0.048,0.351-0.563,0.42-0.744c0.107-0.492,0.125-1.011-0.128-1.546
		c-0.043-0.112-0.07-0.112-0.086,0c-0.11,0.626-0.151,1.014-0.462,1.396c-0.243,0.295-1.141,0.681-1.563,0.643
		c-0.36-0.021-0.771-0.379-0.657-0.714c0.064-0.248,0.201,0.019,0.516,0.083c0.113,0.023,0.2,0,0.292-0.067
		c0.399-0.206,0.464-0.719,0.368-1.214c-0.16-0.764-0.657-1.094-1.406-1.876c-1.152-1.246-1.594-3.331-0.863-4.679
		c0.331-0.631,1.153-1.557,1.262-1.875c0.043-0.131,0.083-0.715,0.038-0.848c-0.116-0.386-0.342-0.495-0.834-0.602
		c-0.385-0.064-0.652,0.05-0.898,0.479c-0.061,0.133-0.087,0.246-0.151,0.379c-0.176,0.343-0.602,0.659-0.845,0.819
		c-0.199,0.134-1.028,0.476-1.208,0.498c-0.316,0.048-0.72,0.032-1.077,0.014c-0.115,0-0.114,0.021-0.045,0.111
		c0.07,0.132,0.137,0.244,0.184,0.38c0.526,1.071,0.963,2.799,0.882,3.807c-0.039,0.447-0.102,1.078-0.058,1.209
		c0.045,0.158,0.137,0.273,0.206,0.426c0.251,0.559,0.284,1.612,0.267,2.241c-0.004,0.092,0,0.203-0.024,0.294
		c-0.018,0.107-0.021,0.13-0.043,0.13c-0.022,0.005-0.019,0.005-0.019,0.116c0.023,0.067,0.001,0.156-0.022,0.221
		c-0.044,0.251-0.131,0.473-0.196,0.722c-0.172,0.853,0.274,0.872,0.978,1.632c0.203,0.246,0.932,1.38,1.339,1.985
		c0.159,0.249,0.588,0.714,0.743,0.803c0.343,0.219,0.748,0.331,1.128,0.55c0.295,0.177,1.309,0.911,1.469,1.135
		c0.069,0.153,0.205,0.578,0.166,0.761c-0.026,0.134-0.113,0.225-0.16,0.36c-0.021,0.09,0.074,0.607,0.187,0.918
		c0.417,1.188,0.673,2.734,1.02,3.649c0.135,0.401,0.298,0.759,0.501,1.139c0.66,1.184,0.978,1.521,1.053,2.617
		c0.048,0.425-0.011,1.395-0.459,1.506c-0.133,0.027-0.337-0.043-0.471,0.005c-0.133,0.022-0.223,0.181-0.383,0.226
		c-0.153,0.026-0.379-0.017-0.513,0.006c-0.182,0.002-0.179,0.112-0.266,0.342c-0.132,0.287-0.669,0.812-0.89,1.193
		c-0.354,0.586-0.195,0.744,0.013,1.368c0.045,0.181,0.071,0.379,0.025,0.47c-0.044,0.112-0.133,0.203-0.155,0.272
		c0.004,0.107,0.139,0.198,0.158,0.334c0.025,0.07-0.173,0.472-0.308,0.633c-0.267,0.313-0.601,0.564-1.294,0.772
		c-0.135,0.048-0.271,0.069-0.402,0.112c-0.29,0.097-0.562,0.279-0.874,0.369c-0.268,0.069-0.826,0.094-1.234,0.145
		c-0.11,0.003-0.133,0-0.133-0.021l0.002-0.024c-0.002-0.021-0.023-0.021-0.114-0.021l-1.235,0.008
		c-0.112,0.005-0.135,0-0.246-0.043c-0.295-0.131-0.404-0.176-0.405-0.375c-0.008-0.474,1.256-2.793,1.3-2.862
		c0.132-0.158,0.266-0.27,0.309-0.425c0.065-0.161,0.043-0.359,0.086-0.541c0.066-0.251,0.355-0.52,0.623-0.61
		c0.07-0.005,0.135-0.022,0.202-0.047c0.379-0.137,1.134-1.311,1.246-1.558c0.397-0.769,0.631-2.271,0.624-3.036
		c-0.001-0.337-0.145-1.341-0.258-1.729c-0.116-0.397-0.671-2.3-0.831-2.547c-0.226-0.31-0.52-0.556-0.723-0.872
		c-0.114-0.154-0.181-0.31-0.296-0.467c-0.117-0.202-0.928-1.068-1.176-1.245c-0.162-0.111-0.272-0.181-0.496-0.219
		c-0.135-0.048-0.136-0.022-0.11,0.091c0.21,1.141,0.352,2.129,0.805,2.954c0.229,0.379,0.549,0.759,0.728,1.139
		c0.252,0.535,0.516,2.511,0.043,2.579c-0.132,0.021-0.313-0.111-0.582-0.133c-0.111-0.021-0.785,0.165-0.828,0.232
		c-0.047,0.093-0.024,0.203-0.111,0.34c-0.043,0.063-0.134,0.155-0.178,0.246c-0.044,0.088-0.065,0.177-0.11,0.272
		c-0.157,0.313-0.644,0.723-0.773,1.018c-0.047,0.106-0.068,0.197-0.068,0.313c0.001,0.337,0.07,0.355,0.227,0.604
		c0.341,0.443,0.164,0.535,0.078,1.054c-0.021,0.155-0.02,0.311-0.041,0.449c-0.109,0.401-0.978,1.107-1.381,1.221
		c-0.225,0.069-0.718,0.117-0.92,0.278c-0.042,0.043-0.066,0.063-0.179,0.091l-1.322,0.257C54.578,70.476,54.467,70.5,54.4,70.5
		l-1.773,0.016c-0.133,0.003-0.133,0.003-0.203-0.021c-0.042-0.021-0.066-0.064-0.113-0.089c-0.202-0.179-0.224-0.222-0.182-0.425
		c0.088-0.449,0.855-2.273,1.191-2.565c0.09-0.092,0.18-0.157,0.202-0.228c0.021-0.088-0.07-0.225-0.07-0.38
		c-0.003-0.157,0.263-0.607,0.397-0.741c0.159-0.139,0.444-0.251,0.689-0.391c0.763-0.43,1.049-1.038,1.512-1.921
		c0.467-0.829,0.42-0.896,0.525-1.95c0-0.136,0-0.136,0.021-0.136c0.021-0.003,0.022-0.024,0.02-0.138
		c-0.026-0.36-0.031-0.875-0.074-1.056c-0.05-0.153-0.139-0.289-0.163-0.423c-0.02-0.112-0.002-0.204-0.003-0.316
		c-0.021-0.154-0.227-0.535-0.342-0.823c-0.138-0.338-0.205-0.647-0.298-0.987c-0.092-0.289-0.639-1.383-0.982-1.961
		c-0.89-1.568-1.658-2.504-3.718-2.307c-0.113,0-0.203,0.021-0.293,0.021c-0.113,0.003-0.832-0.328-0.967-0.441
		c-0.25-0.194-0.432-0.446-0.656-0.688c-0.068-0.09-0.092-0.112-0.205-0.112c-0.536,0.026-1.347,0.056-1.592,0.017
		c-0.337-0.067-1.053-0.399-1.306-0.686c-0.159-0.224-0.275-0.537-0.436-0.786c-0.223-0.311-0.563-0.578-0.877-0.732
		c-1.484-0.726-2.628-0.246-4.309,0.013c-0.243,0.048-2.646-0.003-2.805-0.045c-0.29-0.086-0.671-0.22-0.83-0.214
		c-0.133-0.006-0.247,0.021-0.359,0c-0.114-0.024-0.203-0.107-0.316-0.156c-0.068-0.021-0.155,0-0.27,0
		c-0.114,0.027-2.25-0.698-2.452-0.808c-0.451-0.266-0.79-0.509-1.243-0.775c-0.334-0.22-1.688-0.816-1.955-0.905
		c-0.249-0.063-0.494-0.104-0.628-0.059c-0.314,0.046-0.221,0.201-0.357,0.54c-0.217,0.541-0.824,0.477-1.32,0.37
		c-0.179-0.048-1.283-0.669-1.371-0.776c-0.095-0.07-0.138-0.158-0.232-0.198c-0.063-0.021-0.179,0-0.288,0.003
		c-0.113,0.019-1.846-0.46-2.092-0.569c-0.314-0.153-0.586-0.309-0.857-0.463c-0.36-0.246-1.986-1.469-2.255-1.712
		c-0.679-0.666-1.521-1.626-1.9-1.913c-0.248-0.176-0.541-0.355-0.789-0.377c-0.698-0.061-1.187,0.123-1.321,0.417
		c-0.042,0.11-0.098,1.346-0.053,1.707c0.024,0.243,0.026,0.447,0.093,0.672c0.234,0.96,1.235,2.525,0.971,3.218
		c-0.135,0.34-0.291,0.16-0.694,0.212c-0.113,0.021-0.38,0.205-0.468,0.315c-0.246,0.294-0.218,0.589-0.039,0.944
		c0.068,0.152,0.364,0.532,0.428,0.532c0.182,0.043,0.471-0.139,0.631-0.07c0.092,0.022,0.158,0.131,0.271,0.156
		c0.088,0,0.179-0.028,0.291-0.006c0.112,0,0.223,0.091,0.314,0.155c0.476,0.358,0.431,0.602,0.755,1.701
		c0.043,0.11,0.047,0.155,0.046,0.268l0.152,2.646c0.027,0.115,0.027,0.138-0.018,0.249c-0.041,0.198-0.244,0.402-0.287,0.429
		c-0.313,0.134-1.594-0.166-2.065-0.412c-0.205-0.086-0.428-0.22-0.586-0.241c-0.115-0.021-0.248,0.024-0.36,0
		c-0.313-0.058-0.833-0.663-0.858-0.888c-0.025-0.178,0.041-0.404-0.008-0.583c-0.021-0.113-0.247-0.359-0.429-0.578
		c-0.115-0.134-0.409-0.806-0.457-0.984c-0.023-0.113-0.026-0.225-0.026-0.338c0-0.112-0.001-0.134-0.023-0.134
		c-0.021,0-0.021,0-0.044-0.133c-0.025-0.226-0.049-0.498-0.141-0.718c-0.091-0.292-0.32-0.513-0.412-0.78
		c-0.043-0.113-0.05-0.632-0.006-0.899c0.151-0.808,0.411-1.846,0.472-2.673c0.085-0.787-0.014-1.661-0.021-2.603
		c-0.004-0.559-0.077-1.394-0.122-1.501c-0.071-0.158-0.163-0.267-0.227-0.426c-0.047-0.109-0.052-0.783-0.01-0.965
		c0.045-0.182,0.131-0.359,0.244-0.476c0.242-0.268,0.845-0.653,1.003-0.856c0.131-0.204,0.155-0.45,0.263-0.632
		c0.155-0.273,0.489-0.519,0.693-0.588c0.109-0.025,0.784,0.014,0.941,0.085c0.474,0.15,0.924,0.487,1.484,0.702
		c0.226,0.088,1.667,0.368,1.936,0.39c0.064,0,0.158,0,0.221-0.024c0.112-0.027,0.112-0.027,0.112-0.046
		c0.023-0.021,0.003-0.048,0-0.064c-0.021-0.139-1.22-1.209-1.74-1.851c-0.206-0.246-0.341-0.514-0.501-0.781
		c-0.179-0.294-0.431-0.581-0.657-0.805c-0.745-0.664-1.686-0.635-2.312,0.112c-0.218,0.248-1.477,2.881-1.676,3.13
		c-0.202,0.227-0.801,0.725-1.027,0.613c-0.135-0.089-0.185-0.38-0.368-0.536c-0.087-0.067-0.29-0.085-0.354-0.064
		c-0.336,0.118-0.555,0.859-0.419,1.129c0.136,0.22,0.246,0.083,0.517,0.241c0.181,0.107,0.16,0.31,0.273,0.466
		c0.116,0.154,0.383,0.224,0.518,0.353c0.09,0.069,0.251,0.449,0.251,0.61c0.026,0.243,0.026,0.468,0.004,0.714
		c-0.079,0.72-0.693,3.101-0.958,3.439c-0.155,0.229-0.311,0.294-0.581,0.231c-0.132-0.022-1.125-0.669-1.238-0.798
		c-0.248-0.291-0.659-0.669-0.726-0.69c-0.088,0-0.202,0-0.291-0.022c-0.11-0.042-0.316-0.219-0.43-0.337
		C8.919,44.456,8.92,44.434,8.916,44.3l-0.021-2.849c0.001-0.133,0.001-0.133,0.02-0.181c0.067-0.113,0.041-0.402-0.049-0.583
		c-0.046-0.065-0.093-0.108-0.114-0.175c-0.023-0.179-0.003-0.205-0.07-0.227c-0.022,0-0.02-0.021-0.024-0.134V39.857z"/>
	<path clip-path="url(#SVGID_2_)" d="M3.165,3.808v47.31v0.123c0,20.228,16.395,36.625,36.623,36.625
		c20.227,0,36.624-16.397,36.624-36.625v-0.123V3.808H3.165z M74.689,51.118c0,19.275-15.626,35.024-34.901,35.024
		c-19.276,0-34.899-15.624-34.899-34.901V5.53h69.8V51.118z"/>
	<path clip-path="url(#SVGID_2_)" d="M71.788,45.125c-0.224,0.295-0.134,0.407-0.424,0.407c-0.985,0.054-1.444-0.84-1.315-1.739
		c0.024-0.292,0.173-0.808,0.326-1.121c0.268-0.613,0.354-0.701,0.505-1.6c0.062-0.27,0.075-1.616,0.033-1.819
		c-0.074-0.337-0.393-1.228-0.732-1.589c-0.27-0.284-0.453-0.396-0.52-0.712c-0.118-0.583,0.082-0.786,0.212-1.215
		c0.046-0.133-0.035-1.704-0.084-1.95c-0.208-0.824-0.547-1.252-1.316-1.961c-0.407-0.401-0.495-0.446-0.993-0.644
		c-0.335-0.108-0.898-0.26-1.076-0.26c-0.72,0.002-0.966,0.163-1.101-0.083c-0.047-0.109-0.112-0.289-0.206-0.423
		c-0.182-0.313-0.746-0.668-1.06-0.802c-1.148-0.503-2.742-0.289-3.746,0.165c-0.826,0.386-1.474,0.932-1.916,1.587
		c-0.133,0.184-0.663,1.418-0.705,1.624c-0.152,0.717-0.077,2.015,0.4,2.598c0.319,0.375,0.93,0.754,1.108,1
		c0.07,0.113,0.32,0.714,0.32,0.894c0.001,0.134-0.131,0.471-0.197,0.586c-0.066,0.115-0.647,0.698-0.777,0.746
		c-0.247,0.112-0.695,0.185-0.942,0.185c-0.158-0.019-1.487-0.525-1.756-0.682c-0.515-0.308-1.08-0.728-1.691-1.151
		c-0.2-0.155-2.251-1.129-2.342-1.129c-0.179,0.027-0.337,0.051-0.448,0.006c-0.067-0.019-0.138-0.11-0.224-0.134
		c-0.116-0.041-0.295-0.019-0.45,0.008c-0.204,0-0.609-0.131-0.946-0.196c-0.292-0.064-2.151,0.108-3.206,0.137
		c-1.614,0.059-3.326-0.468-4.898-1.038c-0.405-0.131-1.105-0.463-1.214-0.575c-0.185-0.153-0.365-0.423-0.66-0.554
		c-0.112-0.067-0.112-0.067,0-0.155c0.201-0.166,0.467-0.498,0.556-0.701c0.065-0.134,0.089-0.273,0.176-0.364
		c0.1-0.112,0.202-0.166,0.254-0.219h0.001l0.334-0.305c0.042-0.027,0.084-0.065,0.101-0.108c0.087-0.112,0.286-0.786,0.329-1.038
		c0.019-0.267,0.019-0.626-0.051-0.826c-0.069-0.334-0.255-0.848-0.255-0.966c0.04-0.219,0.333-0.514,0.465-0.808
		c0.044-0.136,0.089-0.249,0.11-0.38c0.044-0.203-0.032-1.124-0.079-1.348c-0.047-0.204-0.388-0.845-0.48-0.915
		c-0.088-0.088-0.178-0.134-0.201-0.224c-0.021-0.071-0.001-0.159,0.043-0.247c0.063-0.246,0.175-0.583,0.238-0.923
		c0.043-0.203,0.04-0.826-0.005-0.96c-0.051-0.115-0.094-0.204-0.139-0.316c-0.046-0.11-0.068-0.267-0.114-0.401
		c-0.046-0.182-0.502-0.942-0.594-1.054c-0.225-0.175-0.449-0.284-0.587-0.466c-0.047-0.112-0.115-0.444-0.093-0.605
		c0.062-0.74,0.169-0.919-0.26-1.84c-0.277-0.621-0.905-1.086-1.714-1.239c-0.113-0.021-0.139-0.043-0.139-0.157
		c-0.073-0.83,0.018-0.894-0.345-1.344c-0.117-0.133-0.25-0.289-0.386-0.377c-0.203-0.088-0.384-0.086-0.45-0.286
		c-0.025-0.091-0.025-0.182-0.048-0.273c-0.068-0.198-0.68-0.778-0.705-0.8c-0.134-0.088-0.337-0.179-0.559-0.195
		c-0.721-0.128-1.55,0.01-1.933-0.436c-0.387-0.469-0.942-2.614-0.944-2.82c0.023-0.222,0.041-0.513-0.004-0.648
		c-0.093-0.291-0.272-0.337-0.495-0.267c-0.607,0.163-0.669,0.385-0.934,0.928c-0.111,0.228-0.267,0.541-0.267,0.699
		c0.004,0.248,0.026,0.47-0.264,0.361c-0.18-0.064-0.25-0.225-0.227-0.423c0.021-0.181,0.086-0.139,0.29-0.252
		c0.243-0.138,0.266-0.291,0.083-0.403c-0.201-0.131-0.468-0.041-0.807,0.026c-0.11,0.024-0.135,0.024-0.134-0.11l-0.005-0.628
		c-0.004-0.112-0.024-0.134-0.135-0.131c-0.293,0.024-0.449,0.045-0.561,0.112c-0.133,0.118-0.622,0.68-0.69,0.837
		c-0.063,0.113-0.087,0.228-0.108,0.359c-0.022,0.115-0.043,0.137-0.157,0.115c-1.166-0.035-1.747,0.126-2.122,1.113
		c-0.088,0.252-0.061,0.677,0.164,0.966c0.045,0.091,0.115,0.136,0.206,0.201c0.086,0.064,0.089,0.091,0,0.155
		c-0.158,0.118-0.31,0.23-0.471,0.299c-0.245,0.07-0.446-0.043-0.717,0.005c-0.202,0.025-0.871,0.367-0.96,0.568
		c-0.065,0.091-0.065,0.27-0.087,0.425c-0.019,0.115-0.043,0.137-0.129,0.206c-0.919,0.723-2.59,2.085-2.767,2.175
		c-0.089,0.043-0.177,0.067-0.268,0.094c-0.158,0.022-0.315,0.024-0.449,0.091c-0.177,0.091-0.357,0.404-0.578,0.631
		c-0.2,0.203-0.47,0.321-0.648,0.503c-0.244,0.244-0.417,0.808-0.281,1.118c0.07,0.204,0.247,0.338,0.293,0.541
		c0.025,0.155-0.039,0.493-0.08,0.738c-0.023,0.118-0.022,0.134-0.047,0.136c-0.023,0-0.023,0-0.021,0.134
		c0.004,0.223-0.018,0.544,0.029,0.72c0.07,0.201,0.363,0.626,0.475,0.69c0.205,0.086,0.63,0.065,0.836,0.15
		c0.087,0.043,0.131,0.113,0.246,0.156c0.136,0.047,0.362,0.021,0.539-0.006c0.133-0.003,0.135,0.025,0.133,0.133
		c-0.039,0.586,0.055,0.654,0.524,0.873c0.226,0.109,0.496,0.198,0.608,0.177c0.134-0.027,0.268-0.115,0.406-0.139
		c0.267-0.07,0.603,0.085,0.895,0.058c0.293-0.026,0.693-0.364,0.867-0.7c0.354-0.611,0.397-1.084,1.003-1.087
		c0.606-0.005,1.192,0.284,1.705,0.118c0.224-0.086,0.473-0.267,0.693-0.359c0.133-0.048,0.159-0.048,0.245,0.04
		c0.095,0.134,0.208,0.292,0.298,0.447c0.068,0.134,0.118,0.65,0.096,0.832c-0.066,0.38-0.391,1.26-0.549,1.597
		c-0.131,0.266-0.641,0.99-0.955,1.328c-0.421,0.497-0.884,0.973-1.288,1.471c-0.157,0.179-0.776,1.33-0.818,1.508
		c-0.172,0.787-0.008,1.75-0.654,2.114c-0.091,0.043-0.202,0.073-0.295,0.139c-0.689,0.388-1.263,1.825-1.388,2.657
		c-0.026,0.064-0.025,0.158-0.02,0.246c0,0.115-0.001,0.139-0.068,0.139l-0.069-0.005c-0.066,0-0.067-0.016-0.18-0.064
		c-0.426-0.241-0.922-0.53-1.308-0.659c-0.471-0.179-1.077-0.307-1.301-0.484c-0.155-0.112-0.25-0.267-0.41-0.449
		c-0.409-0.423-0.787-0.664-1.104-0.685c-0.38-0.043-0.985,0.123-1.459,0.058c-0.381-0.045-0.672-0.221-0.943-0.218
		c-0.338,0.002-1.209,0.566-1.381,1.107c-0.066,0.203-0.063,0.476-0.176,0.634c-0.111,0.137-0.31,0.203-0.398,0.337
		c-0.068,0.07-0.09,0.158-0.134,0.249c-0.112,0.182-0.554,0.698-0.868,1.035c-0.444,0.455-0.78,0.862-1.18,1.289
		c-0.242,0.271-1.382,1.205-1.56,1.293c-0.378,0.182-0.537,0.206-0.822,0.613c-0.091,0.112-0.155,0.251-0.202,0.385
		c0.001,0.091,0.005,0.201-0.041,0.289c-0.022,0.112-0.088,0.224-0.131,0.34c-0.067,0.109-0.067,0.109-0.088,0.112L8.679,39.75
		c-0.024,0-0.021,0.015-0.02,0.107v0.293c0.004,0.113,0.002,0.135,0.024,0.135c0.067,0.021,0.047,0.048,0.069,0.227
		c0.022,0.067,0.068,0.11,0.114,0.174c0.091,0.182,0.117,0.47,0.05,0.583c-0.019,0.048-0.019,0.048-0.02,0.182l0.021,2.849
		c0.004,0.134,0.002,0.155,0.091,0.241c0.114,0.118,0.32,0.295,0.43,0.337C9.526,44.9,9.641,44.9,9.729,44.9
		c0.066,0.021,0.478,0.398,0.725,0.689c0.114,0.129,1.107,0.777,1.238,0.798c0.271,0.064,0.427-0.003,0.581-0.229
		c0.266-0.34,0.88-2.721,0.959-3.441c0.021-0.246,0.021-0.47-0.004-0.714c0-0.16-0.162-0.54-0.252-0.61
		c-0.134-0.128-0.402-0.198-0.517-0.353c-0.114-0.155-0.092-0.359-0.273-0.465c-0.271-0.158-0.381-0.022-0.518-0.241
		c-0.136-0.271,0.083-1.012,0.419-1.129c0.064-0.021,0.268-0.003,0.354,0.064c0.184,0.155,0.233,0.447,0.369,0.535
		c0.226,0.112,0.825-0.385,1.027-0.613c0.199-0.248,1.458-2.881,1.676-3.13c0.626-0.746,1.567-0.776,2.312-0.112
		c0.226,0.224,0.477,0.511,0.656,0.806c0.161,0.267,0.296,0.534,0.502,0.78c0.52,0.642,1.719,1.713,1.74,1.852
		c0.003,0.016,0.023,0.042,0,0.064c0,0.019,0,0.019-0.112,0.045c-0.063,0.024-0.157,0.024-0.221,0.024
		c-0.269-0.021-1.71-0.302-1.936-0.39c-0.56-0.214-1.011-0.551-1.484-0.701c-0.157-0.072-0.833-0.11-0.942-0.086
		c-0.203,0.07-0.538,0.316-0.692,0.589c-0.108,0.181-0.132,0.428-0.263,0.631c-0.158,0.203-0.761,0.588-1.004,0.857
		c-0.112,0.117-0.198,0.294-0.243,0.476c-0.043,0.181-0.037,0.856,0.009,0.965c0.064,0.158,0.157,0.268,0.228,0.426
		c0.044,0.106,0.118,0.941,0.122,1.501c0.006,0.941,0.106,1.816,0.021,2.603c-0.062,0.826-0.321,1.865-0.472,2.673
		c-0.044,0.268-0.038,0.786,0.005,0.898c0.093,0.269,0.321,0.49,0.412,0.781c0.093,0.22,0.116,0.493,0.142,0.717
		c0.022,0.134,0.022,0.134,0.044,0.134c0.021,0,0.023,0.021,0.023,0.135c0,0.111,0.002,0.225,0.025,0.337
		c0.049,0.179,0.343,0.851,0.458,0.983c0.182,0.221,0.408,0.466,0.429,0.579c0.048,0.179-0.018,0.406,0.008,0.583
		c0.025,0.225,0.545,0.829,0.857,0.888c0.113,0.024,0.245-0.021,0.361,0c0.157,0.021,0.381,0.155,0.586,0.24
		c0.47,0.247,1.752,0.546,2.065,0.413c0.042-0.027,0.245-0.229,0.287-0.429c0.044-0.112,0.044-0.133,0.018-0.248L19.3,52.428
		c0.001-0.111-0.003-0.157-0.046-0.268c-0.323-1.099-0.278-1.343-0.754-1.701c-0.091-0.063-0.202-0.156-0.314-0.156
		c-0.112-0.021-0.203,0.007-0.291,0.007c-0.113-0.024-0.18-0.135-0.271-0.155c-0.16-0.07-0.45,0.111-0.631,0.068
		c-0.065,0-0.36-0.38-0.429-0.531c-0.179-0.355-0.207-0.65,0.04-0.945c0.087-0.109,0.355-0.294,0.468-0.315
		c0.403-0.051,0.558,0.129,0.694-0.212c0.264-0.691-0.737-2.257-0.971-3.218c-0.067-0.225-0.069-0.428-0.093-0.671
		c-0.045-0.362,0.011-1.597,0.053-1.707c0.134-0.294,0.623-0.479,1.321-0.417c0.248,0.021,0.541,0.2,0.788,0.377
		c0.38,0.286,1.221,1.247,1.901,1.913c0.269,0.243,1.895,1.466,2.255,1.712c0.271,0.155,0.543,0.311,0.856,0.463
		c0.247,0.109,1.98,0.588,2.092,0.569c0.11-0.003,0.225-0.024,0.289-0.003c0.094,0.041,0.136,0.129,0.232,0.198
		c0.088,0.107,1.192,0.728,1.371,0.776c0.496,0.106,1.102,0.17,1.32-0.37c0.135-0.339,0.043-0.494,0.357-0.54
		c0.134-0.046,0.379-0.006,0.628,0.06c0.267,0.088,1.621,0.685,1.955,0.903c0.452,0.269,0.792,0.512,1.243,0.776
		c0.202,0.109,2.338,0.835,2.452,0.808c0.115,0,0.202-0.021,0.27,0c0.113,0.049,0.202,0.132,0.316,0.155
		c0.112,0.021,0.226-0.005,0.358,0C36.918,50,37.3,50.132,37.59,50.218c0.159,0.042,2.561,0.095,2.805,0.046
		c1.681-0.26,2.824-0.738,4.309-0.014c0.314,0.155,0.654,0.423,0.877,0.733c0.161,0.249,0.277,0.562,0.436,0.787
		c0.253,0.285,0.969,0.616,1.305,0.684c0.245,0.041,1.056,0.011,1.593-0.015c0.113,0,0.137,0.021,0.205,0.111
		c0.224,0.241,0.405,0.493,0.656,0.688c0.135,0.113,0.853,0.444,0.967,0.441c0.09,0,0.179-0.021,0.293-0.021
		c2.06-0.198,2.828,0.739,3.717,2.306c0.344,0.579,0.891,1.673,0.982,1.961c0.094,0.34,0.161,0.651,0.299,0.988
		c0.114,0.289,0.32,0.669,0.342,0.823c0.001,0.112-0.017,0.204,0.002,0.315c0.025,0.135,0.114,0.271,0.164,0.424
		c0.043,0.182,0.048,0.695,0.073,1.057c0.003,0.112,0.002,0.134-0.019,0.136c-0.022,0-0.022,0-0.022,0.137
		c-0.105,1.055-0.058,1.12-0.525,1.95c-0.463,0.883-0.749,1.49-1.511,1.921c-0.245,0.14-0.531,0.251-0.689,0.392
		c-0.135,0.133-0.4,0.583-0.397,0.74c0,0.155,0.091,0.291,0.069,0.38c-0.021,0.069-0.111,0.137-0.202,0.228
		c-0.336,0.291-1.102,2.116-1.19,2.565c-0.043,0.204-0.02,0.247,0.182,0.426c0.047,0.023,0.071,0.066,0.112,0.088
		c0.071,0.024,0.071,0.024,0.203,0.021L54.4,70.5c0.067,0,0.178-0.023,0.243-0.021l1.322-0.258c0.114-0.026,0.138-0.048,0.18-0.091
		c0.202-0.161,0.695-0.209,0.92-0.277c0.403-0.113,1.272-0.819,1.38-1.221c0.022-0.139,0.02-0.294,0.042-0.449
		c0.085-0.519,0.263-0.609-0.078-1.054c-0.158-0.249-0.226-0.268-0.227-0.604c0-0.115,0.021-0.206,0.068-0.313
		c0.128-0.294,0.616-0.704,0.773-1.017c0.044-0.097,0.066-0.185,0.11-0.273c0.044-0.09,0.135-0.182,0.178-0.246
		c0.086-0.136,0.063-0.246,0.111-0.339c0.042-0.066,0.717-0.254,0.828-0.232c0.269,0.021,0.449,0.154,0.582,0.133
		c0.473-0.069,0.209-2.043-0.043-2.579c-0.179-0.379-0.499-0.759-0.728-1.139c-0.454-0.824-0.595-1.814-0.805-2.954
		c-0.027-0.112-0.026-0.14,0.11-0.092c0.224,0.038,0.334,0.108,0.495,0.221c0.248,0.176,1.06,1.043,1.177,1.244
		c0.115,0.157,0.182,0.313,0.295,0.468c0.204,0.315,0.498,0.562,0.724,0.872c0.159,0.246,0.714,2.147,0.831,2.547
		c0.113,0.388,0.257,1.391,0.258,1.728c0.007,0.766-0.228,2.27-0.625,3.037c-0.111,0.246-0.867,1.42-1.246,1.558
		c-0.066,0.023-0.132,0.043-0.201,0.048c-0.268,0.091-0.557,0.358-0.623,0.609c-0.043,0.183-0.021,0.381-0.086,0.54
		c-0.043,0.155-0.177,0.269-0.309,0.427c-0.044,0.068-1.308,2.389-1.3,2.861c0.001,0.198,0.11,0.244,0.405,0.374
		c0.111,0.043,0.133,0.049,0.246,0.043l1.235-0.007c0.09,0,0.112,0,0.114,0.021l-0.002,0.024c0,0.021,0.023,0.023,0.132,0.021
		c0.408-0.051,0.966-0.074,1.235-0.145c0.312-0.091,0.584-0.271,0.874-0.369c0.13-0.043,0.267-0.064,0.402-0.111
		c0.693-0.209,1.026-0.461,1.294-0.773c0.135-0.161,0.333-0.562,0.308-0.632c-0.02-0.136-0.155-0.227-0.158-0.335
		c0.021-0.069,0.111-0.16,0.155-0.273c0.045-0.09,0.02-0.288-0.026-0.47c-0.207-0.624-0.366-0.782-0.012-1.367
		c0.221-0.383,0.757-0.906,0.89-1.192c0.087-0.23,0.084-0.34,0.266-0.344c0.134-0.021,0.36,0.022,0.512-0.006
		c0.161-0.045,0.25-0.203,0.383-0.224c0.135-0.049,0.339,0.021,0.472-0.006c0.448-0.112,0.507-1.081,0.459-1.505
		c-0.075-1.098-0.394-1.436-1.053-2.617c-0.203-0.38-0.367-0.738-0.502-1.141c-0.346-0.913-0.603-2.461-1.019-3.648
		c-0.114-0.311-0.208-0.829-0.187-0.917c0.047-0.137,0.134-0.229,0.159-0.362c0.04-0.181-0.096-0.606-0.166-0.759
		c-0.159-0.225-1.173-0.958-1.468-1.135c-0.38-0.22-0.786-0.332-1.128-0.551c-0.155-0.089-0.584-0.555-0.743-0.803
		c-0.407-0.604-1.137-1.738-1.339-1.984c-0.704-0.761-1.151-0.779-0.978-1.633c0.065-0.249,0.151-0.471,0.196-0.723
		c0.023-0.063,0.044-0.152,0.021-0.219c0-0.113-0.002-0.113,0.019-0.118c0.023,0,0.025-0.021,0.043-0.128
		c0.024-0.091,0.021-0.203,0.024-0.294c0.017-0.629-0.015-1.683-0.266-2.243c-0.07-0.152-0.161-0.267-0.206-0.425
		c-0.044-0.131,0.019-0.762,0.057-1.209c0.082-1.009-0.355-2.737-0.881-3.807c-0.047-0.136-0.114-0.249-0.185-0.38
		c-0.068-0.091-0.069-0.112,0.046-0.112c0.357,0.019,0.761,0.035,1.076-0.014c0.181-0.021,1.009-0.363,1.208-0.497
		c0.244-0.161,0.669-0.477,0.846-0.819c0.064-0.134,0.09-0.246,0.151-0.38c0.246-0.428,0.512-0.543,0.897-0.479
		c0.493,0.107,0.719,0.217,0.835,0.602c0.044,0.134,0.004,0.717-0.039,0.848c-0.108,0.319-0.931,1.244-1.261,1.876
		c-0.732,1.348-0.289,3.432,0.862,4.679c0.75,0.781,1.247,1.113,1.407,1.875c0.096,0.496,0.03,1.009-0.368,1.215
		c-0.093,0.067-0.18,0.092-0.292,0.067c-0.315-0.065-0.452-0.332-0.516-0.083c-0.114,0.334,0.297,0.693,0.657,0.714
		c0.422,0.037,1.32-0.348,1.563-0.642c0.311-0.383,0.352-0.771,0.462-1.397c0.016-0.111,0.043-0.111,0.086,0
		c0.252,0.536,0.235,1.056,0.128,1.546c-0.069,0.183-0.334,0.697-0.42,0.745c-0.25,0.117-0.431-0.064-0.427,0.272
		c0.026,0.294,0.316,0.313,0.585,0.22c0.111-0.046,0.917-0.722,1.002-0.883c0.089-0.134,0.374-0.968,0.395-1.124
		c-0.002-0.292-0.026-0.628-0.05-0.942c0-0.113-0.004-0.133,0.021-0.133l0.044-0.005c0.022,0.002,0.022,0.002,0.066,0.134
		c0.144,0.54,0.166,0.721,0.149,1.349c0,0.111,0,0.133,0.048,0.133c0.197,0.021,0.266-0.248,0.353-0.492
		c0.086-0.228,0.15-0.477,0.173-0.701c-0.004-0.179-0.026-0.359-0.005-0.428c0.023-0.043,0.088-0.043,0.135,0.003
		c0.066,0.045,0.138,0.246,0.185,0.447c0.024,0.202-0.099,1.994-0.139,2.132c-0.31,0.805-0.89,1.42-1.873,1.629
		c-0.293,0.048-0.627,0.027-0.855-0.241c-0.048-0.063-0.066-0.112-0.091-0.176c-0.026-0.136-0.003-0.249-0.181-0.177
		c-0.18,0.064-0.222,0.358-0.132,0.534c0.14,0.292,0.588,0.583,0.835,0.648c0.16,0.042,1.011,0.034,1.213-0.011
		c0.179-0.045,1.341-0.638,1.497-0.776c0.692-0.566,0.934-1.059,1.351-2.073c0.309-0.763,0.438-1.147,0.392-1.646
		c-0.118-0.845-0.507-1.518-0.961-2.276c-0.043-0.112-0.043-0.112,0.043-0.137c0.36-0.045,0.474,0.222,0.878,0.375
		c0.112,0.045,0.721,0.04,0.853-0.03c0.336-0.115,1.113-1.059,0.952-1.532C72.053,44.963,71.897,44.967,71.788,45.125 M28.86,10.352
		c0.269-0.158,0.226,0.139,0.228,0.449c0.025,0.315,0.002,0.358-0.197,0.674c-0.107,0.182-0.378,0.118-0.494-0.128
		C28.264,11.053,28.661,10.469,28.86,10.352 M21.355,22.936c-0.067-0.091-0.068-0.112,0.065-0.115
		c0.161-0.003,0.36,0.021,0.498-0.024c0.018-0.005,0.065-0.027,0.087-0.027c0.065-0.021,0.135-0.021,0.203-0.042
		c0.088-0.049,0.196-0.252,0.287-0.389c0.11-0.133,0.2-0.227,0.377-0.317c0.137-0.089,0.314-0.159,0.337-0.113
		c0,0.021-0.001,0.043,0.002,0.067C23.21,22,23.21,22.021,23.124,22.112c-0.469,0.632-0.734,1.014-1.406,1.065
		C21.539,23.177,21.47,23.112,21.355,22.936 M19.403,37.305c-0.905-1.201-0.862-1.562-1.807-2.028
		c-0.697-0.329-1.305-0.412-1.951-0.005c-0.136,0.091-0.248,0.182-0.403,0.252c-0.18,0.088-0.384,0.114-0.56,0.184
		c-0.405,0.16-1.139,0.998-1.269,1.378c0,0.064-0.021,0.112,0.002,0.134c0.136,0.112,0.331-0.383,0.401-0.498
		c0.175-0.289,0.643-0.565,1.026-0.792c0.109-0.045,0.109-0.045,0.066,0.067c-0.354,0.741-0.925,2.004-1.08,2.25
		c-0.223,0.316-0.444,0.562-0.692,0.862c-0.089,0.085-0.089,0.085-0.177-0.022c-0.071-0.088-0.163-0.204-0.275-0.289
		c-0.086-0.07-0.448-0.131-0.579-0.107c-0.429,0.045-0.895,0.744-0.981,1.193c-0.022,0.113,0.01,1.014,0.19,1.076
		c0.09,0.046,0.313-0.043,0.447-0.024c0.158,0.018,0.702,0.602,0.745,0.666c0.43,0.58,0.149,1.525-0.046,2.426
		c-0.133,0.583-0.259,1.258-0.617,1.643c-0.067,0.085-0.086,0.085-0.202,0.045c-0.289-0.133-1.711-0.821-1.894-1.217
		c-0.022-0.067-0.024-0.094,0.09-0.136c0.494-0.276,0.561-0.297,0.755-0.704c0,0,0.66-1.643,0.908-1.824
		c0.111-0.089,0.266-0.137,0.333-0.228c0.046-0.067,0.044-0.134,0.026-0.155c-0.161-0.134-0.741,0.476-0.829,0.61
		c-0.065,0.091-0.133,0.203-0.176,0.316c-0.156,0.337-0.24,0.813-0.42,1.032c-0.244,0.346-0.778,0.704-0.844,0.884
		c-0.024,0.071-0.023,0.114-0.132,0.093c-0.161-0.046-0.249-0.289-0.144-0.407c0.114-0.134,0.271-0.091,0.204-0.38
		c-0.094-0.27-0.205-0.243-0.206-0.559c0.021-0.134,0.039-0.246,0.084-0.358c0.023-0.179,0.056-1.638-0.082-1.999
		c-0.137-0.38-0.34-0.513-0.143-0.853c0.044-0.086,0.114-0.177,0.154-0.289c0.069-0.134,0.113-0.337,0.154-0.495
		c0.023-0.07,0.044-0.137,0.091-0.206c0.065-0.113,1.205-0.926,1.804-1.38c0.356-0.273,0.624-0.544,0.892-0.835
		c0.446-0.433,1.981-2.282,2.089-2.485c0.373-0.68,0.461-1.306,1.019-1.536c0.112-0.049,0.226-0.07,0.36-0.091
		c0.334-0.027,1.166,0.26,1.459,0.208c0.424-0.048,0.515-0.291,1.029-0.138c0.383,0.085,0.609,0.443,0.928,0.89
		c0.069,0.113,0.093,0.134,0.205,0.177c0.946,0.396,2.677,1.1,2.834,1.23c0.136,0.113,0.269,0.225,0.387,0.337
		c0.087,0.089,0.112,0.113,0.115,0.244l0.008,1.057c-0.001,0.112,0.002,0.133-0.021,0.246c-0.022,0.113-0.113,0.249-0.179,0.316
		c-0.067,0.064-0.177,0.133-0.244,0.206c-0.023,0.061-0.089,0.221-0.11,0.334c0,0.091,0,0.112-0.112,0.069l-0.09-0.045
		c-0.088-0.021-0.089-0.04-0.045-0.088c0.111-0.113,0.2-0.316,0.133-0.38c-0.116-0.115-0.627,0.431-0.76,0.521
		c-0.159,0.089-0.311,0.134-0.538,0.116c-0.11-0.021-0.134-0.021-0.111,0.064c0.069,0.246,0.159,0.225,0.363,0.406
		c0.112,0.108,0.177,0.289,0.272,0.42c0.179,0.338,0.34,0.383,0.721,0.469c0.111,0.018,0.134,0.042,0.135,0.133l0.002,0.086
		c0,0.091-0.022,0.115-0.133,0.093c-0.134,0.003-0.27-0.023-0.408-0.066C21.237,39.312,19.519,37.462,19.403,37.305 M48.89,51.832
		c-0.133,0.16-1.347,0.126-1.525,0.104c-0.133-0.021-0.63-0.263-0.653-0.354c-0.091-0.203,0.309-0.476,0.467-0.519
		c0.18-0.042,0.357-0.026,0.539-0.072c0.266-0.091,0.309-0.136,0.534-0.115c0.317,0.043,0.656,0.262,0.724,0.643
		C49,51.61,48.956,51.768,48.89,51.832 M59.481,60.636c0.227,0.422,0.611,0.803,0.795,1.226c0.091,0.179,0.297,0.983,0.233,1.254
		c-0.087,0.386-0.442,0.564-0.824,0.659c-0.158,0.021-0.428,0.002-0.496-0.04c-0.084-0.089-0.181-0.313-0.336-0.224
		c-0.068,0.046-0.177,0.338-0.202,0.452c0.006,0.11,0.05,0.22,0.049,0.356c0.004,0.112-0.084,0.401-0.219,0.587
		c-0.175,0.294-0.422,0.539-0.549,0.879c-0.114,0.201-0.157,0.45-0.223,0.675c-0.044,0.109-0.043,0.136-0.178,0.112l-0.246-0.021
		c-0.135,0.002-0.135,0.002-0.161,0.048c0.004,0.135,0.049,0.112,0.362,0.177c0.225,0.043,0.501,0.423,0.459,0.735
		c-0.004,0.067-0.022,0.092-0.071,0.092c-0.042,0-0.087-0.002-0.111,0.003c-0.314-0.064-0.606-0.241-0.969-0.33
		c-0.179-0.066-1.365-0.059-2.061-0.074c-0.113,0-0.136-0.003-0.136,0.048c0.001,0.04,0.023,0.067,0.046,0.089
		c0.362,0.219,1.147,0.123,1.524,0.099c0.651-0.027,1.283,0.12,1.667,0.634c0.317,0.428,0.226,0.54-0.196,0.883
		c-0.442,0.359-0.557,0.449-1.07,0.613c-0.384,0.136-2.42,0.556-2.667,0.556c-0.402,0.024-0.761-0.018-1.144-0.056
		c-0.111-0.002-0.136-0.024-0.114-0.135c0.108-0.519,0.174-0.835,0.396-1.235c0.199-0.337,0.532-0.878,0.596-1.086
		c0.044-0.155,0.043-0.311,0.108-0.423c0.047-0.069,0.091-0.112,0.136-0.203c0.041-0.118-0.003-0.315,0.016-0.449
		c0.021-0.356,0.358-0.343,0.849-0.613c0.134-0.091,0.245-0.179,0.379-0.294c0.046-0.048,0.091-0.07,0.157-0.115
		c0.067-0.021,0.09-0.046,0.156-0.134l1.262-1.938c0.02-0.046,0.067-0.141,0.088-0.156l0.047-0.096
		c-0.005-0.02,0.019-0.043,0.066-0.049l0.135,0.006c0.066,0,0.088,0.023,0.066,0.111l-0.063,0.316
		c-0.023,0.134-0.023,0.134,0.046,0.106c0.045-0.021,0.134-0.069,0.155-0.043c0,0,0.002,0.043,0.025,0.043
		c0.065,0.092,0.242-0.182,0.264-0.202c0.291-0.226,0.494-0.073,0.628-0.362c0.132-0.248-0.203-0.045-0.384-0.045
		c-0.223,0.006-0.787-0.375-0.856-0.646c-0.068-0.267,0.041-0.4,0.105-0.606c0.156-0.492-0.236-1.975-0.353-2.37
		c-0.092-0.428-0.849-2.464-0.941-2.595c-0.066-0.118-0.137-0.183-0.14-0.338c0.026-0.069,0.022-0.092,0.158-0.115
		c0.182-0.023,0.406-0.069,0.585-0.047c0.09,0.023,0.788,0.574,0.857,0.709c0.093,0.111,0.25,0.448,0.409,0.513
		c0.067,0.043,0.156,0.023,0.222,0.063c0.072,0.027,0.138,0.161,0.162,0.316c0.088,0.246,0.075,0.537,0.25,0.535
		c0.047,0.021,0.046,0,0.022-0.112l-0.211-1.03c-0.042-0.112-0.046-0.134,0-0.18c0.067-0.085,0.222-0.203,0.265-0.203
		c0.247-0.005,0.366,0.444,0.433,0.714c0.116,0.513,0.163,1.01,0.261,1.501C59.113,59.625,59.277,60.253,59.481,60.636
		 M71.122,46.138c-0.021,0.047-0.424,0.047-0.582,0.006c-0.967-0.263-1.647-1.041-1.835-1.982c-0.067-0.251-0.092-0.514-0.07-0.805
		c0.011-0.835,0.275-2.157,0.225-2.584c-0.027-0.316-0.28-1.301-0.709-1.52c-0.046-0.045-0.087-0.045-0.112,0
		c-0.046,0.045,0.025,0.225,0.069,0.379c0.091,0.159,0.161,0.316,0.207,0.493c0.094,0.338,0.057,1.659,0.038,1.819
		c-0.043,0.337-0.174,0.653-0.24,1.012c-0.065,0.291-0.17,1.211-0.125,1.479c0.048,0.182,0.14,0.359,0.164,0.492
		c0.023,0.113-0.001,0.204,0,0.295c0.003,0.133,0.183,0.534,0.32,0.76c0.841,1.294,1.09,1.357,1.148,2.906
		c0.052,1.031-0.014,1.256-0.41,2.066c-0.313,0.632-0.489,0.856-1.178,1.244c-0.093,0.066-0.116,0.048-0.047-0.043
		c0.154-0.252,0.31-0.498,0.419-0.769c0.091-0.179,0.368-1.752,0.366-1.998c-0.028-0.72-0.238-1.525-0.69-2.151
		c-0.75-1.003-1.219-1.243-1.565-2.228c-0.068-0.227-0.19-1.099-0.166-1.254c0.019-0.156,0.087-0.292,0.153-0.472
		c0.063-0.227,0.191-1.147,0.166-1.369c0-0.206-0.045-0.362-0.092-0.562c-0.001-0.046-0.025-0.115-0.049-0.158
		c-0.021-0.064-0.044-0.069-0.064-0.064h-0.025c-0.043-0.005-0.043-0.005,0.003,0.134c0.046,0.225,0.115,0.449,0.115,0.693
		c0.004,0.339-0.282,1.19-0.366,1.755c-0.063,0.471,0.079,1.455,0.263,1.856c0.224,0.496,0.792,1.14,1.087,1.678
		c0.045,0.131,0.113,0.243,0.14,0.377c0.043,0.112,0.044,0.136,0.043,0.246l0.007,0.495c0,0.115,0,0.115-0.021,0.115H67.64
		c-0.023,0-0.046,0-0.09-0.112c-0.09-0.225-0.201-0.426-0.342-0.626c-0.293-0.492-1.539-1.785-2.017-2.496
		c-0.295-0.402-0.36-0.715-0.341-1.231c-0.005-0.136-0.005-0.136-0.074-0.136h-0.066c-0.068,0-0.09,0-0.066,0.136
		c0.123,1.345,0.505,1.452,1.457,2.769c0.522,0.689,0.956,1.856,0.719,2.798c-0.063,0.295-0.134,0.385-0.244,0.364
		c-0.021,0-0.021,0-0.022-0.094c0-0.062-0.003-0.131-0.003-0.198c-0.117-0.784-0.372-1.634-0.712-2.081
		c-0.27-0.356-0.973-0.8-1.401-1.269c-0.274-0.313-0.75-1.024-0.839-1.383c-0.092-0.271-0.139-0.829-0.17-1.257
		c-0.024-0.11-0.024-0.11-0.044-0.065c-0.024,0.022-0.044,0.067-0.043,0.086c-0.155,0.61,0.007,1.26,0.305,1.774
		c0.707,1.34,1.786,2.207,1.553,3.485c-0.044,0.177-0.132,0.584-0.357,0.564c-0.022-0.003-0.022-0.003-0.024-0.136l-0.003-0.472
		c0-0.112,0-0.133-0.045-0.246c-0.094-0.358-0.388-0.914-0.503-1.072c-0.18-0.222-0.562-0.554-0.881-0.822
		c-0.632-0.583-1.041-1.54-1.142-2.415c-0.044-0.313,0.015-1.145,0.055-1.729c0-0.107-0.004-0.133,0.09-0.225
		c0.955-1.123,1.533-1.559,1.414-2.659c-0.076-0.848-0.523-1.048-1.472-1.241c-0.131-0.021-0.131-0.021-0.131-0.043l-0.004-0.048
		c0.001-0.021,0.001-0.021,0.113-0.064c0.85-0.369,1.075-0.3,1.777,0.321c0.064,0.064,0.134,0.112,0.157,0.177
		c0.114,0.157,0.182,0.4,0.274,0.292c0.176-0.207-0.526-0.988-0.73-1.143c-0.27-0.222-0.899-0.326-1.235-0.235
		c-0.246,0.069-0.625,0.339-0.759,0.545c-0.2,0.268-0.352,0.854-0.529,1.214c-0.353,0.653-1.024,0.926-1.697,1.114
		c-0.311,0.091-0.736,0.139-0.917,0.123c-0.383-0.024-0.764-0.246-1.193-0.287c-0.155-0.024-0.314-0.018-0.473-0.018
		c-0.108,0.024-0.108,0.024-0.02,0.112c0.635,0.626,0.835,0.781,1.066,1.249c0.158,0.313,0.55,1.362,0.618,1.654
		c0.07,0.383,0.24,1.993,0.199,2.354c-0.065,0.406-0.175,0.583-0.103,0.944c0.045,0.336,0.273,0.762,0.345,1.14
		c0.045,0.157,0.045,0.315,0.068,0.494c0.029,0.648,0.126,1.259,0.037,1.704c-0.063,0.335-0.262,0.812-0.416,1.219
		c-0.044,0.111-0.044,0.133,0.094,0.154c0.355,0.085,0.471,0.195,0.765,0.508c0.25,0.269,0.498,0.535,0.748,0.866
		c1.11,1.542,1.138,2.146,1.973,2.728c0.449,0.308,1.105,0.614,1.643,0.991c0.183,0.113,0.703,0.67,0.727,0.761
		c0.09,0.222,0.004,0.535-0.334,0.606c-0.356,0.067-0.291-0.267-0.97-0.799c-0.157-0.113-0.34-0.201-0.475-0.22
		c-0.046-0.021-0.065-0.021-0.065,0.07c0.021,0.039,0.021,0.063,0.114,0.131c0.522,0.465,0.565,0.44,0.679,0.76
		c0.069,0.243,0.275,0.872,0.031,1.008c-0.18,0.091-0.519-0.331-0.72-0.422c-0.07-0.049-0.138-0.043-0.203-0.043
		c-0.114,0-0.114,0,0,0.063c0.836,0.514,1.173,0.892,1.629,1.922c0.069,0.111,0.069,0.111,0.048-0.003
		c-0.166-0.826-0.328-1.389,0.074-2.041c0.064-0.113,0.064-0.092,0.086,0.023c0.347,1.389,1.135,4.387,1.588,5.235
		c0.619,1.183,0.909,1.313,1.032,2.259c0.068,0.331,0.093,0.762,0.117,1.142c0.004,0.11,0.002,0.135-0.132,0.155
		c-0.136,0.027-0.313,0.053-0.427,0.118c-0.178,0.069-0.242,0.181-0.355,0.206c-0.225,0.021-0.654-0.195-0.827-0.152
		c-0.05,0.021-0.095,0.069-0.138,0.154c-0.044,0.049-0.067,0.097-0.067,0.161c0.003,0.026,0.003,0.026,0.024,0.021
		c0.024,0.003,0.024,0.003,0.024,0.027c-0.024,0.043-0.003,0.021,0.044,0.043c0.043,0,0.045,0.091,0.023,0.155
		c-0.086,0.385-0.576,0.813-0.844,1.155c-0.244,0.291-0.394,0.562-0.506,0.942C64.134,70.11,64.132,70.13,64,70.133l-0.405,0.002
		c-0.091,0-0.114,0-0.11,0.05l-0.001,0.088c0.004,0.045,0.025,0.066,0.112,0.136c0.406,0.22,0.904,0.396,0.882,0.822
		c-0.002,0.088-0.02,0.091-0.064,0.088c-0.25,0.003-0.745-0.354-0.857-0.396c-0.159-0.088-0.294-0.108-0.426-0.106
		c-0.316-0.024-0.718,0.068-1.032,0.005c-0.069-0.021-0.698-0.332-0.81-0.261c-0.024,0.021-0.024,0.042,0.001,0.091
		c0.111,0.133,0.671,0.286,0.854,0.307c0.336,0.04,0.674,0.013,0.967,0.08c0.314,0.043,1.44,0.594,1.329,1.022
		c-0.149,0.517-1.964,1.273-2.321,1.3c-0.136-0.005-0.271,0-0.428,0c-0.404,0.026-0.984,0.187-1.386,0.235
		c-0.316,0.024-0.901-0.016-0.945-0.262c-0.027-0.156,0.06-0.447,0.127-0.584c0.262-0.631,1.398-2.343,1.394-2.477
		c0.024-0.292-0.114-0.45,0.131-0.586c0.337-0.183,0.449-0.092,0.67-0.321c0.091-0.067,0.11-0.086,0.176-0.197l1.268-1.676
		c0.042-0.042,0.108-0.157,0.133-0.203l0.044-0.113c0.021-0.09,0.045-0.111,0.066-0.111h0.044c0.048,0,0.048,0,0.047,0.091
		c0,0.046,0,0.112,0.024,0.155c0.023,0.024,0.067,0.021,0.091,0c0.085-0.069,0.131-0.137,0.156-0.094
		c0.041,0.048-0.199,0.452-0.178,0.564c0.003,0.023,0.046,0.021,0.09,0c0.111-0.112,0.199-0.449,0.333-0.545
		c0.114-0.043,0.248,0.048,0.407,0.023c0.108-0.023,0.401-0.228,0.467-0.34c0.018-0.068,0.023-0.115-0.005-0.136
		c-0.065-0.02-0.244,0.136-0.354,0.117c-0.071-0.024-0.114-0.137-0.206-0.249c-0.202-0.2-0.314-0.085-0.583-0.106
		c-0.089-0.021-0.27-0.177-0.317-0.266c-0.044-0.09-0.023-0.203-0.001-0.337c0.065-0.246,0.219-0.498,0.283-0.813
		c0.045-0.106-0.216-2.06-0.308-2.418c-0.234-0.941-0.674-2.349-0.786-2.595c-0.343-0.691-1.495-2.168-2.24-2.788
		c-0.227-0.182-0.952-0.599-1.175-0.687c-0.224-0.063-0.425-0.133-0.676-0.17c-0.402-0.112-2.563-0.903-2.832-1.057
		c-0.879-0.49-1.942-1.511-3.075-2.512c-0.088-0.091-0.108-0.088-0.224-0.131c-1.305-0.437-2.362-0.681-2.838-1.415
		c-0.34-0.536-0.639-1.522-0.933-1.942c-0.294-0.402-1.108-1.006-1.762-1.199c-0.316-0.091-0.651-0.129-0.943-0.24
		c-0.206-0.064-0.38-0.177-0.608-0.22c-0.224-0.041-0.494,0.002-0.739,0.008c-0.112-0.003-0.136,0-0.134,0.046l0.003,0.043
		c-0.003,0.045-0.003,0.045,0.086,0.066c0.072,0.023,0.136,0.023,0.204,0.043c0.224-0.003,0.401-0.003,0.584-0.003
		c0.2,0.02,1.438,0.37,1.66,0.477c0.926,0.443,1.265,0.776,1.809,1.718c0.07,0.111,0.07,0.111-0.064,0.134l-1.279,0.074
		c-0.111,0.006-0.134,0.003-0.247-0.064c-0.226-0.085-0.361-0.151-0.451-0.262c-0.113-0.16-0.205-0.428-0.34-0.583
		c-0.274-0.268-0.654-0.283-0.342-0.514c0.067-0.064,0.136-0.092,0.223-0.092c0.115,0.043,0.449,0.289,0.519,0.244
		c0.111-0.094-0.136-0.247-0.229-0.268c-0.29-0.11-0.74-0.131-1.008-0.126c-0.45,0-3.585,0.653-5.107,0.889
		c-0.493,0.074-1.055,0.123-1.483,0.106c-1.256-0.057-3.797-0.6-5.035-1.128c-0.919-0.418-1.844-1.061-2.746-1.456
		c-0.293-0.133-0.584-0.22-0.876-0.332c-0.114-0.042-0.137-0.042-0.137-0.109l-0.002-0.066c0.002-0.05,0.025-0.07,0.135-0.07
		c0.336-0.029,1.1-0.007,1.326,0.192c0.156,0.155,0.341,0.487,0.452,0.354c0.108-0.112-0.432-0.829-0.501-1.006
		c-0.048-0.133-0.072-0.401-0.051-0.647c-0.005-0.249,0.128-0.771,0.193-0.814c0.069-0.087,0.159-0.109,0.247-0.155
		c0.112-0.048,0.135-0.048,0.133-0.091c0-0.117-0.023-0.136-0.156-0.09c-0.314,0.114-0.916,0.636-1.116,0.861
		c-0.175,0.246-0.289,0.543-0.51,0.723c-0.443,0.384-0.806,0.319-1.072,0.724c-0.508,0.816-0.327,1.309-1.089,1.065
		c-0.361-0.109-0.856-0.352-1.174-0.575c-0.474-0.375-0.628-0.466-1.348-0.572c-0.248-0.043-0.47-0.041-0.698-0.081
		c-0.178-0.048-1.442-0.666-1.802-0.886c-0.765-0.489-1.577-0.976-2.209-1.575c-1.223-1.18-1.949-2.499-3.474-2.395
		c-0.697,0.027-0.944,0.252-1.182,0.904c-0.133,0.381-0.308,0.835-0.325,1.236c0.001,0.137,0.001,0.137,0.043,0.137
		c0.023,0.021,0.07,0.021,0.09-0.005c0.067-0.04-0.002-0.31,0.132-0.241c0.182,0.059,0.071,0.621,0.071,0.738
		c-0.017,0.155,0.169,1.097,0.238,1.3c0.025,0.022,0.725,1.363,0.8,1.854c0.002,0.134,0.004,0.225-0.044,0.268
		c-0.134,0.158-0.69,0.275-0.894,0.437c-0.244,0.179-0.331,0.697-0.282,1.032c0.026,0.295,0.074,0.65,0.208,0.829
		c0.136,0.181,0.405,0.332,0.431,0.49c0.048,0.179-0.108,0.425-0.064,0.516c0.023,0.047,0.067,0.044,0.158,0
		c0.11-0.069,0.269-0.272,0.424-0.363c0.087-0.048,0.222-0.064,0.289-0.048c0.091,0.021,0.134,0.182,0.204,0.202
		c0.091,0.022,0.2-0.159,0.315-0.182c0.112-0.026,0.358,0.226,0.474,0.399c0.227,0.355,0.37,1.479,0.42,1.835
		c0.043,0.36,0.056,1.904,0.013,2.087c-0.066,0.228-0.09,0.27-0.313,0.248c-0.382-0.063-1.998-0.454-2.313-0.588
		c-0.452-0.175-1.012-0.46-0.636-0.892c0.068-0.068,0.067-0.088,0-0.179c-0.524-0.688-0.685-0.845-0.799-1.316
		c-0.113-0.471-0.258-1.3-0.349-1.947c-0.025-0.14-0.025-0.14,0.088-0.115c0.423,0.11,0.403,0.019,0.625-0.454
		c0.087-0.206,0.239-0.608,0.152-0.736c-0.046-0.051-0.138,0.017-0.224,0.155c-0.135,0.291-0.065,0.449-0.401,0.588
		c-0.068,0.043-0.155,0.065-0.204,0.134c-0.107,0.14-0.037,0.472-0.198,0.183c-0.114-0.203-0.204-0.492-0.207-0.628
		c-0.045-0.29,0.238-1.48,0.365-2.25c0.171-1.028,0.06-3.249,0.057-4.124c-0.002-0.385-0.032-0.854-0.097-0.969
		c-0.047-0.085-0.114-0.128-0.157-0.219c-0.048-0.112-0.053-0.784-0.009-0.965c0.041-0.201,0.13-0.426,0.332-0.587
		c0.134-0.134,0.287-0.181,0.447-0.315c0.243-0.206,0.576-0.814,0.839-1.087c0.626-0.631,1.753,0.279,2.724,0.654
		c0.695,0.24,3.95,0.283,4.854,1.08c0.111,0.113,0.204,0.225,0.339,0.289c0.112,0.07,0.27,0.089,0.403,0.158
		c0.226,0.109,0.637,0.709,0.972,0.958c0.044,0.04,0.204,0.131,0.226,0.109c0.021-0.026,0.023-0.048-0.001-0.069
		c0-0.022,0.001-0.043-0.091-0.134l-0.95-1.046c-0.066-0.091-0.066-0.091,0.043-0.115c0.294-0.048,0.698,0.04,0.921,0.219
		c0.114,0.091,0.181,0.177,0.296,0.289c0.249,0.22,0.835,0.508,1.239,0.46c0.11-0.002,0.11-0.002,0.11-0.069l-0.001-0.064
		c0-0.067,0-0.067-0.136-0.092c-0.2-0.043-0.403-0.085-0.608-0.171c-0.314-0.13-0.586-0.401-0.897-0.578
		c-0.317-0.224-0.725-0.353-1.174-0.46c-0.113-0.021-0.133-0.043-0.09-0.16c0.153-0.447,0.636-1.889,0.678-2.311
		c0.018-0.407-0.099-0.854-0.076-1.261c-0.007-0.58,0.364-1.661,0.745-2.159c0.064-0.085,0.866-0.971,1.203-1.11
		c0.109-0.046,0.246-0.043,0.379-0.112c0.224-0.113,0.447-0.431,0.669-0.632c0.402-0.342,1.341-0.684,1.896-0.915
		c0.112-0.069,0.135-0.067,0.136-0.134l-0.001-0.047c0-0.064,0-0.064-0.135-0.04c-0.179,0.043-0.356,0.066-0.539,0.136
		c-0.13,0.07-0.265,0.136-0.4,0.203c-0.402,0.161-0.468,0.096-0.894,0.412c-0.292,0.228-0.536,0.546-0.821,0.725
		c-0.29,0.185-0.627,0.207-0.92,0.391c-0.56,0.337-1.243,1.56-1.464,2.231c-0.088,0.268-0.217,0.925-0.191,1.148
		c0.001,0.403,0.117,0.848,0.057,1.188c-0.025,0.2-0.134,0.425-0.247,0.65c-0.086,0.16-0.176,0.297-0.241,0.476
		c-0.112,0.246-0.197,0.829-0.284,1.257c-0.018,0.112-0.042,0.112-0.153,0.064c-0.341-0.128-0.858-0.414-0.903-0.46
		c-0.182-0.224-0.14-1.254-0.058-1.658c0.238-1.014,0.574-1.13,0.59-2.001c-0.005-0.562-0.191-1.258-0.148-1.796
		c0.019-0.807,0.392-1.664,0.97-2.228c0.045-0.046,0.107-0.112,0.2-0.115c0.021,0.003,0.021,0.003-0.024,0.112
		c-0.107,0.337-0.238,0.723-0.302,1.038c-0.025,0.201-0.105,1.057-0.012,1.212c0.022,0.043,0.089,0.085,0.112,0.155
		c0.043,0.086,0,0.268,0.022,0.332c0.025,0.048,0.069,0.048,0.113,0.024c0.112-0.088,0.133-0.38,0.087-0.626
		c-0.071-0.538-0.184-0.655,0.015-1.215c0.196-0.543,0.639-1.123,0.814-1.642c0.153-0.519,0.172-1.194,0.299-1.734
		c0.153-0.648,0.662-1.552,1.15-2.07c0.225-0.225,0.493-0.428,0.716-0.653c0.175-0.182,1.02-1.426,1.173-1.745
		c0.421-0.759,0.729-1.573,0.566-2.558c-0.05-0.294-0.095-0.427,0.063-0.47c0.111-0.048,0.311-0.073,0.379-0.027
		c0.043,0.021,0.046,0.07,0.094,0.137c0.065,0.083,0.248,0.219,0.335,0.219c0.046-0.002,0.07-0.024,0.112-0.067
		c0.178-0.206,0.511-0.658,0.625-0.567c0.159,0.131-0.601,0.701-0.734,0.926c-0.021,0.066-0.043,0.139,0,0.155
		c0.161,0.133,0.917-0.856,0.935-0.905c0.11-0.181,0.156-0.334,0.265-0.495c0.201-0.269,0.697-0.521,0.938-0.791
		c0.089-0.088,0.198-0.388,0.265-0.632c0.086-0.36,0.274-2.089,0.25-2.132c-0.044-0.043-0.133-0.045-0.245,0.112
		c-0.046,0.07-0.045,0.092-0.068,0.204c-0.233,1.503-0.186,2.001-0.985,2.654c-0.47,0.39-1.053,0.572-1.725,0.529
		c-0.132-0.021-0.269-0.042-0.402-0.085c-0.473-0.153-0.612-0.353-1.058-0.193c-0.247,0.07-0.491,0.246-0.759,0.343
		c-0.157,0.069-0.336,0.118-0.515,0.139c-0.117,0.021-0.137,0.027-0.273,0.021l-0.848-0.037c-0.114,0-0.138-0.019-0.114-0.113
		c-0.001-0.107-0.024-0.221-0.071-0.31c-0.047-0.067-0.047-0.067-0.114-0.064H25.18c-0.064,0-0.064,0-0.047,0.112
		c0.095,0.423-0.15,0.471-0.575,0.787c-0.224,0.16-0.401,0.366-0.424,0.522c-0.02,0.13,0.048,0.264,0.027,0.403
		c-0.023,0.067-0.376,0.428-0.467,0.474c-0.155,0.043-0.492,0.024-0.54-0.177c-0.046-0.198,0.176-0.492-0.133-0.356
		c-0.186,0.091-0.361,0.316-0.583,0.429c-0.112,0.069-0.448,0.144-0.538,0.123c-0.092-0.027-0.158-0.07-0.225-0.091
		c-0.069-0.067-0.069-0.067,0.043-0.094c0.562-0.07,0.786-0.137,1.072-0.5c0.27-0.338,0.647-0.905,0.758-0.972
		c0.203-0.114,0.516-0.114,0.399-0.361c-0.114-0.289-0.631-0.265-0.967-0.216c-0.178,0.024-0.511,0.163-0.625,0.276
		c-0.202,0.154-0.38,0.358-0.557,0.519c-0.331,0.272-0.872,0.481-1.233,0.368c-0.178-0.064-0.358-0.197-0.515-0.197
		c-0.135,0-0.246,0.09-0.356,0.069c-0.116-0.019-0.318-0.24-0.388-0.401c-0.089-0.204-0.136-0.647-0.095-0.76
		c0.044-0.134,0.2-0.249,0.291-0.385c0.044-0.091,0.041-0.45-0.006-0.562c-0.182-0.471-0.318-0.578-0.209-1.049
		c0.041-0.16,0.085-0.272,0.152-0.406c0.088-0.134,0.778-0.819,0.894-0.861c0.599-0.252,0.959-0.119,1.202-0.48
		c0.091-0.115,0.157-0.254,0.225-0.382c0.356-0.498,1.338-0.979,1.784-1.204c0.202-0.091,0.781-0.546,0.825-0.637
		c0.11-0.225-0.005-0.444,0.109-0.652c0.043-0.065,0.488-0.316,0.602-0.34c0.202-0.024,0.379,0.039,0.581-0.006
		c0.25-0.046,1.519-0.907,1.812-0.976c0.269-0.072,0.359,0.064,0.765,0.195c0.247,0.083,0.651,0.152,0.784-0.051
		c0.02-0.043,0.019-0.136-0.003-0.161c-0.041-0.042-0.203,0.006-0.334,0.006c-0.089,0-0.676-0.222-0.768-0.308
		c-0.452-0.447-0.455-0.759-1.058-0.618c-0.134,0.022-0.223,0.065-0.312,0.177c-0.2,0.206-0.355,0.433-0.447,0.187
		c-0.069-0.155,0.085-0.519,0.173-0.674c0.04-0.112,0.111-0.16,0.176-0.227c0.113-0.07,0.718-0.255,0.876-0.255
		c0.089,0,1.1,0.215,1.258,0.394c0.225,0.224,0.253,0.468,0.407,0.425c0.18-0.07,0.041-0.203,0.041-0.428
		c0.003-0.134,0.176-0.492,0.242-0.588c0.111-0.177,0.245-0.292,0.38-0.268c0.043-0.002,0.046,0.016,0.047,0.107
		c-0.02,0.248,0.14,0.653,0.185,0.722c0.091,0.112,0.269,0.198,0.43,0.287c0.087,0.066,0.113,0.088,0.09,0.2
		c-0.174,0.717-0.238,1.282,0.059,1.975c0.07,0.112,0.136,0.219,0.227,0.267c0.047,0.022,0.111,0.022,0.135,0
		c0.02-0.048-0.024-0.158-0.048-0.246C30.666,14.15,30.53,14,30.48,13.775c-0.022-0.115,0.344-2.18,0.451-2.518
		c0.111-0.289,0.396-1.126,0.847-1.083c0.041,0,0.041,0.021,0.045,0.134c-0.003,0.2-0.022,0.383,0.003,0.583
		c0.05,0.428,0.943,2.844,0.967,3.224c0.051,0.425-0.039,0.784-0.281,1.056c-0.135,0.113-0.313,0.225-0.424,0.252
		c-0.158-0.005-0.382-0.088-0.334,0.112c0.045,0.134,0.58,0.175,0.782,0.059c0.109-0.043,0.182-0.133,0.269-0.182
		c0.066-0.021,0.132-0.042,0.158,0.003c0.025,0.043-0.202,0.249-0.265,0.447c-0.046,0.139-0.047,0.251,0,0.294
		c0.044,0.043,0.133-0.003,0.268-0.155c0.068-0.097,0.091-0.097,0.135,0.016c0.206,0.337,0.386,0.693,0.345,0.987
		c-0.019,0.356-0.241,0.875-0.013,0.762c0.198-0.117,0.239-0.831,0.168-1.059c-0.118-0.423-0.455-0.781-0.142-0.717
		c0.09,0.021,0.364,0.27,0.407,0.38c0.024,0.003,0.348,1.3,0.259,1.549c-0.042,0.179-0.354,0.495-0.238,0.629
		c0.11,0.133,0.353-0.316,0.397-0.476c0.065-0.314-0.029-0.851-0.141-1.276c-0.05-0.116-0.027-0.113,0.063-0.041
		c0.519,0.439,0.749,1.132,0.955,1.737c0.117,0.291,0.441,1.926,0.423,2.041c-0.154,0.631-0.355,0.832-0.107,0.808
		c0.043,0,0.045-0.024,0.09-0.136c0.217-0.768,0.26-0.924,0.031-1.438c-0.089-0.224-0.461-1.768-0.417-1.792
		c0.11-0.091,0.361,0.134,0.431,0.401c0.113,0.359,0.274,1.006,0.343,1.07c0.023,0.027,0.067,0.07,0.09,0.049
		c0.022-0.022,0.022-0.064,0.002-0.113c-0.026-0.155-0.094-0.289-0.118-0.422c0-0.115,0-0.227,0.001-0.316
		c-0.003-0.134,0.016-0.137,0.066-0.024c0.179,0.426,0.385,0.848,0.545,1.255c0.184,0.422,0.783,2.504,0.854,2.865
		c0.188,1.163,0.248,2.999,0.164,4.147c0.004,0.246-0.407,1.977-0.517,2.204c-0.329,0.787-0.724,1.822-0.682,1.843h0.069
		c0.021-0.002,0.045-0.024,0.089-0.112l0.529-1.129c0.047-0.112,0.064-0.112,0.068-0.043c-0.004,0.043,0.002,0.091-0.003,0.134
		c-0.081,0.495-0.722,1.913-0.655,1.937c0,0,0.021,0,0.042-0.003c0.046,0.003,0.047-0.021,0.091-0.11
		c0.378-0.743,0.988-2.771,0.985-2.993c0.02-0.158-0.003-0.292-0.003-0.446c0.021-0.519,0.219-1.151,0.299-1.777
		c0.02-0.246-0.111-2.649-0.181-3.055c-0.068-0.445-0.139-0.87-0.256-1.338c-0.093-0.45-0.67-2.239-0.782-2.462
		c-0.071-0.112-0.137-0.203-0.181-0.315c-0.138-0.267-0.232-0.535-0.345-0.829c-0.116-0.22-1.272-1.921-1.815-2.633
		c-0.156-0.219-0.406-0.487-0.541-0.578c-0.475-0.24-0.586-0.219-0.593-0.936c-0.003-0.113-0.003-0.113,0.114-0.067
		c0.133,0.062,0.314,0.155,0.448,0.174c0.269,0.043,0.492-0.097,0.785-0.073c0.179,0,1.123,0.284,1.307,0.437
		c0.178,0.182,0.182,0.449,0.136,0.495c-0.069,0.067-0.514,0.136-0.693,0.136c-0.137-0.016-0.274-0.04-0.449-0.129
		c-0.159-0.069-0.317-0.155-0.34-0.133c-0.046,0.07,0.046,0.157,0.113,0.203c0.16,0.107,0.541,0.241,0.676,0.241
		c0.136,0,0.201-0.024,0.315-0.048c0.58-0.075,1.458,0.417,1.598,0.888c0.024,0.107,0.048,0.489-0.173,0.675
		c-0.047,0.02-0.047,0.02-0.136-0.067c-0.294-0.292-0.362-0.357-0.567-0.4c-0.04,0-0.062-0.024-0.087-0.002
		c-0.112,0.067,0.182,0.222,0.226,0.268c0.226,0.13,0.339,0.468,0.522,0.644c0.089,0.094,0.293,0.18,0.451,0.22
		c0.495,0.09,0.698-0.003,1.17,0.422c0.067,0.064,0.228,0.244,0.228,0.401c-0.002,0.046-0.026,0.043-0.135-0.024
		c-0.067-0.018-0.16-0.04-0.248-0.061c-0.203-0.021-0.427,0.021-0.651-0.019c-0.269-0.045-0.584-0.216-0.65-0.173
		c-0.026,0.021-0.025,0.042-0.003,0.087c0.048,0.067,0.433,0.244,0.541,0.244c0.338,0.019,0.381-0.16,0.808,0.083
		c0.161,0.11,0.839,0.757,0.683,0.912c-0.023,0.022-0.07,0.027-0.133,0.006c-0.253-0.049-0.656-0.311-0.992-0.377
		c-0.201-0.04-0.381-0.019-0.583-0.083c-0.091-0.022-0.317-0.156-0.362-0.132c-0.022,0.022-0.022,0.067-0.001,0.089
		c0.022,0.067,0.253,0.2,0.385,0.219c0.157,0.043,0.292,0,0.449,0.024c0.291,0.04,0.923,0.436,1.06,0.639
		c0.068,0.089,0.203,0.381,0.185,0.605c0.001,0.091-0.023,0.088-0.136,0.088l-0.314,0.003c-0.11,0.006-0.132,0.003-0.245-0.043
		c-0.068-0.042-0.138-0.085-0.206-0.128c0,0-0.609-0.562-0.675-0.444c-0.024,0.021-0.026,0.042,0,0.064c0,0.021,0,0.021,0.09,0.113
		c0.249,0.2,0.476,0.444,0.723,0.577c0.36,0.198,0.764,0.241,1.103,0.394c0.338,0.179,0.679,0.602,0.84,1.003
		c0.02,0.048,0.042,0.112,0.023,0.134c-0.023,0.048-0.114,0.027-0.181,0.002c-0.135-0.045-0.272-0.152-0.426-0.198
		c-0.229-0.067-0.495,0.024-0.698-0.062c-0.203-0.085-0.361-0.358-0.539-0.443c-0.047-0.022-0.095-0.043-0.117-0.022
		c-0.064,0.043,0.093,0.222,0.207,0.313c0.159,0.152,0.381,0.311,0.565,0.372c0.178,0.069,0.4,0.043,0.582,0.134
		c0.316,0.112,0.811,0.641,0.883,0.803c0.07,0.109,0.209,1.054,0.189,1.188c-0.046,0.224-0.11,0.379-0.242,0.582
		c-0.068,0.113-0.115,0.134-0.269,0.091c-0.068-0.021-0.09-0.042-0.093-0.133l-0.001-0.155c0.003-0.07,0.003-0.07,0.023-0.07
		c0.023,0,0.024-0.021,0.043-0.134c0.108-0.428,0.017-0.647-0.209-1.032c-0.092-0.153-0.206-0.289-0.319-0.354
		c-0.246-0.109-0.718-0.133-0.944-0.262c-0.223-0.155-0.408-0.422-0.472-0.401c-0.02,0-0.02,0.064,0,0.155
		c0.048,0.112,0.227,0.294,0.383,0.38c0.296,0.176,0.676,0.195,0.901,0.375c0.112,0.09,0.386,0.556,0.41,0.695
		c0.025,0.177-0.018,0.359-0.15,0.739c-0.046,0.112-0.066,0.112-0.178,0.069c-0.204-0.086-0.475-0.241-0.567-0.353
		c-0.135-0.155-0.318-0.605-0.407-0.492c-0.134,0.134,0.253,0.604,0.365,0.711c0.431,0.405,0.609,0.38,1.128,0.554
		c0.338,0.11,0.472,0.31,0.79,0.779c0.226,0.31,0.249,0.428,0.3,0.984c0.048,0.674,0.027,0.744-0.326,1.327
		c-0.131,0.203-0.178,0.273-0.311,0.252c-0.048,0.002-0.048,0.002-0.004-0.113c0.335-0.813,0.444-0.923,0.216-1.53
		c-0.209-0.49-0.412-0.806-0.885-1c-0.136-0.065-0.294-0.108-0.336-0.065c-0.112,0.091,0.271,0.244,0.427,0.356
		c0.226,0.152,0.727,1.046,0.64,1.228c-0.087,0.155-0.226-0.043-0.384-0.198c-0.091-0.112-0.225-0.177-0.359-0.225
		c-0.384-0.128-0.563-0.037-0.767-0.486c0-0.022-0.254-0.894-0.411-0.712c-0.088,0.09,0.318,0.872,0.344,0.915
		c0.09,0.112,0.159,0.203,0.271,0.27c0.498,0.308,0.925,0.308,0.972,0.821c0.022,0.155-0.066,0.404-0.176,0.45
		c-0.178,0.069-0.761-0.15-0.787-0.172c-0.204-0.112-0.52-0.583-0.635-0.915c-0.025-0.136-0.045-0.134-0.068-0.136
		c-0.089-0.019-0.112,0.027-0.067,0.201c0.114,0.428,0.434,0.899,0.772,1.072c0.182,0.11,0.404,0.153,0.606,0.244
		c0.858,0.399,1.202,1.514,0.893,2.37c-0.069,0.172-0.138,0.297-0.168,0.407l-0.256,0.321c-0.05-0.139-0.158-0.883-0.135-0.948
		c0.064-0.09,0.156-0.136,0.2-0.224c0.062-0.182-0.006-0.61-0.098-0.765c-0.139-0.225-0.677-0.669-0.993-0.776
		c-0.091-0.022-0.114-0.022-0.089,0.07c0.001,0.021,0.001,0.021,0.114,0.107c0.362,0.292,0.901,0.621,0.658,0.942
		c-0.023,0.021-0.046,0.042-0.09,0.064c-0.02,0.045-0.045,0.024-0.155-0.043c-0.34-0.219-0.951-0.6-1.062-0.91
		c-0.094-0.224-0.073-0.428-0.275-0.446c0,0-0.022-0.003-0.044-0.003l0.024,0.091c0.024,0.203,0.295,0.599,0.34,0.647
		c0.249,0.311,0.653,0.578,0.86,0.915c0.294,0.402,0.411,0.848,0.325,1.295c-0.087,0.343-0.129,0.765-0.375,0.813
		c-0.225,0.07-0.047-0.358-0.03-0.918c0-0.114-0.254-0.74-0.344-0.783c-0.27-0.244-0.876-0.487-1.017-0.934
		c-0.025-0.137-0.025-0.431-0.116-0.495c-0.021-0.021-0.089-0.021-0.115,0c-0.152,0.161,0.214,0.787,0.326,0.896
		c0.498,0.539,0.79,0.511,0.929,1.046c0.161,0.519,0.076,1.322-0.326,1.509c-0.134,0.068-0.315,0.091-0.381,0.07
		c-0.177-0.088,0.086-0.34,0.196-0.61c0.178-0.426-0.028-0.985-0.412-1.183c-0.09-0.042-0.201-0.066-0.292-0.133
		c-0.069-0.043-0.294-0.354-0.366-0.535c-0.019-0.113-0.019-0.113-0.067-0.113c-0.093-0.021-0.088,0.027-0.044,0.182
		c0.048,0.177,0.23,0.535,0.343,0.62c0.089,0.095,0.225,0.134,0.315,0.247c0.273,0.27,0.321,0.696,0.141,0.92
		c-0.195,0.295-0.4,0.273-0.558,0.048c-0.114-0.179-0.298-0.513-0.387-0.401c-0.111,0.091,0.408,0.739,0.591,0.915
		c0.568,0.626,1.286,1.137,2.169,1.622c1.236,0.666,2.858,1.169,4.159,1.404c0.314,0.043,3.814,0.15,3.972,0.123
		c0.698-0.182,1.389-0.075,2.717,0.206c0.834,0.195,1.643,0.506,2.406,0.923c0.794,0.466,1.604,1.062,2.367,1.461
		c0.725,0.353,1.716,0.725,2.298,0.61c0.893-0.14,1.496-0.64,1.645-1.45c0.111-0.45-0.075-1.189-0.392-1.589
		c-0.229-0.268-0.655-0.487-0.907-0.776c-0.54-0.578-0.707-1.836-0.575-2.443c0.044-0.203,0.615-1.463,0.724-1.6
		c0.335-0.407,1.138-1.038,1.581-1.268c0.161-0.069,1.862-0.463,2.062-0.466c0.632-0.026,2.002,0.231,2.386,0.862
		c0.342,0.508,0.254,0.712,0.773,0.797c0.984,0.145,1.184-0.074,2.039,0.273c0.588,0.246,1.427,1.18,1.677,1.854
		c0.16,0.468,0.304,1.632,0.198,2.172c-0.152,0.787-0.394,1.282,0.171,1.953c0.113,0.108,0.226,0.177,0.317,0.29
		c0.497,0.578,0.62,1.765,0.601,2.525c-0.018,0.294-0.04,0.524-0.083,0.829c-0.04,0.273-0.653,2.119-0.699,2.141h-0.068
		c-0.021,0-0.024-0.022-0.044-0.113c-0.004-0.088-0.004-0.176,0.02-0.246c0.191-1.549,0.528-1.664,0.337-2.806
		c-0.049-0.18-0.069-0.383-0.142-0.562c-0.021-0.11-0.021-0.131-0.066-0.134l-0.02,0.003c-0.026,0-0.024,0.021-0.024,0.133
		c0.05,0.493,0.145,1.188,0.124,1.437c-0.064,0.45-0.264,0.875-0.35,1.325c-0.153,0.674-0.168,1.366,0.039,1.885
		c0.276,0.76,0.71,1.654,1.446,1.646c0.115,0,0.138,0,0.137,0.045C71.123,46.093,71.123,46.115,71.122,46.138 M26.705,12.796
		c0.09-0.073,0.179-0.091,0.407-0.03c0.041,0.024,0.177,0.091,0.134,0.158c-0.003,0.021-0.022,0.021-0.022,0.048
		c-0.178,0.089-0.514,0.268-0.606,0.203C26.502,13.085,26.593,12.927,26.705,12.796"/>
	<path clip-path="url(#SVGID_2_)" d="M35.679,24.212c-0.024,0.021-0.021,0.066,0.004,0.109c0.018,0.048,0.089,0.046,0.134,0
		c0.129-0.114,0.504-1.035,0.528-1.171c0.023-0.112,0.02-0.225-0.002-0.246c-0.139-0.204-0.266,0.61-0.487,0.989
		C35.791,24.005,35.723,24.121,35.679,24.212"/>
	<path clip-path="url(#SVGID_2_)" d="M29.206,25.183c0.732-0.749,2.133-2.148,2.178-2.285c0.068-0.09,0.047-0.133-0.046-0.109
		c-0.023-0.003-0.023-0.003-0.111,0.088c-0.646,0.68-1.177,1.245-1.911,2.057c-0.157,0.18-0.336,0.359-0.292,0.383
		c0.023,0,0.043-0.022,0.067-0.022C29.115,25.295,29.112,25.271,29.206,25.183"/>
	<path clip-path="url(#SVGID_2_)" d="M29.908,23.674c0.448-0.519,1.248-1.404,1.311-1.562c0.089-0.134,0.064-0.177-0.043-0.155
		c-0.048,0-0.066,0.021-0.137,0.112c-0.198,0.294-0.397,0.588-0.666,0.883c-0.22,0.222-0.51,0.473-0.622,0.7
		c-0.065,0.108-0.045,0.135,0.046,0.11C29.823,23.762,29.823,23.762,29.908,23.674"/>
	<path clip-path="url(#SVGID_2_)" d="M21.55,21.742c-0.093,0.067-0.204,0.112-0.314,0.161c-0.181,0.043-0.404,0.067-0.54,0.139
		c-0.021,0-0.021,0.066,0.004,0.109c0.088,0.137,0.738-0.16,0.871-0.248c0.113-0.07,0.449-0.321,0.355-0.433
		C21.861,21.378,21.661,21.651,21.55,21.742"/>
	<path clip-path="url(#SVGID_2_)" d="M35.934,22.123c0.11-0.225,0.129-0.497,0.103-0.814c0-0.107,0.001-0.131-0.045-0.133
		l-0.046,0.005c-0.021-0.003-0.021-0.003-0.023,0.021l0.002,0.022c-0.002,0.021-0.002,0.021-0.02,0.021
		c-0.023,0-0.024,0.024-0.024,0.139c0.001,0.134,0.027,0.268-0.019,0.402c-0.041,0.133-0.286,0.54-0.24,0.583
		C35.733,22.48,35.888,22.257,35.934,22.123"/>
	<path clip-path="url(#SVGID_2_)" d="M27.497,19.179c-0.048-0.064-0.068-0.155-0.092-0.246c-0.024-0.107-0.024-0.107-0.071-0.112
		h-0.063c-0.047,0.005-0.047,0.005-0.047,0.069v0.158c0.002,0.094,0,0.115,0.026,0.158c0.003,0.046,0.023,0.091,0.067,0.113
		c0.386,0.604,0.749,0.823,0.462,1.294c-0.2,0.343-0.448,0.409-1.007,0.64c-0.111,0.045-0.134,0.067-0.132,0.109
		c0,0.027,0,0.048,0.002,0.07c0.088,0.2,0.915-0.231,0.958-0.255c0.336-0.206,0.515-0.43,0.532-0.813
		c0.023-0.155-0.071-0.559-0.137-0.647C27.856,19.517,27.608,19.404,27.497,19.179"/>
	<path clip-path="url(#SVGID_2_)" d="M31.352,18.749H31.28c-0.043,0-0.064-0.002-0.04,0.134c0.068,0.292,0.051,0.607-0.037,0.762
		c-0.133,0.295-0.513,0.702-0.489,0.793c0,0.021,0.043,0.018,0.088,0c0.202-0.119,0.667-0.926,0.687-1.065
		c0.023-0.155-0.026-0.332-0.051-0.493C31.418,18.749,31.395,18.747,31.352,18.749"/>
	<path clip-path="url(#SVGID_2_)" d="M31.013,18.815c-0.023-0.064-0.023-0.064-0.064-0.064h-0.047c-0.044,0-0.044,0-0.041,0.113
		c0.002,0.312-0.288,0.81-0.466,1.016c-0.155,0.155-0.246,0.198-0.312,0.38c-0.021,0.069-0.021,0.069,0.046,0.064
		c0.045,0.005,0.048-0.019,0.137-0.088c0.487-0.522,0.664-0.747,0.727-1.239C31.016,18.928,31.016,18.885,31.013,18.815"/>
	<path clip-path="url(#SVGID_2_)" d="M21.55,19.34c0.204-0.228,0.288-0.514,0.087-0.784c-0.16-0.201-0.385-0.18-0.654-0.089
		c-0.111,0.049-0.202,0.092-0.267,0.164c-0.112,0.093-0.177,0.246-0.29,0.361c-0.247,0.203-0.421,0.182-0.445,0.497
		c-0.021,0.067,0,0.198,0.027,0.247c0.019,0.021,0.066,0.021,0.086,0c0.092-0.07,0.133-0.225,0.2-0.273
		c0.113-0.049,0.32,0.088,0.475,0.086c0.157-0.022,0.377-0.273,0.42-0.45c0.046-0.228-0.002-0.471,0.223-0.385
		c0.247,0.112,0.05,0.516-0.13,0.652c-0.357,0.273-0.714,0.295-0.96,0.768c-0.021,0.089-0.041,0.158,0.006,0.201
		C20.349,20.361,21.418,19.522,21.55,19.34"/>
	<path clip-path="url(#SVGID_2_)" d="M34.43,19.575c0.16-0.069,0.311-0.543,0.332-0.947c0.022-0.112,0.021-0.131-0.003-0.267
		l-0.048-0.584c-0.024-0.091-0.026-0.112-0.069-0.109l-0.065-0.003c-0.072,0-0.071,0.027-0.048,0.094
		c0.021,0.067,0.021,0.13,0.024,0.201c0.025,0.315,0.075,0.674,0.029,0.85c-0.088,0.316-0.333,0.61-0.285,0.744
		C34.322,19.6,34.363,19.596,34.43,19.575"/>
	<path clip-path="url(#SVGID_2_)" d="M23.063,17.422c-0.38,0.318-0.848,0.655-0.893,1.041c-0.02,0.106,0.006,0.267,0.003,0.401
		c-0.016,0.631-0.327,0.853-0.862,1.15c-0.18,0.113-0.245,0.185-0.29,0.337c-0.023,0.091,0.022,0.118,0.09,0.094
		c0.582-0.228,1.338-0.861,1.36-1.377c0.018-0.225-0.117-0.517-0.074-0.72c0.065-0.271,1.044-1.041,1.448-1.223
		c0.112-0.048,0.221-0.094,0.267-0.14c0.067-0.042,0.09-0.2,0.042-0.224C24.112,16.74,23.333,17.197,23.063,17.422"/>
	<path clip-path="url(#SVGID_2_)" d="M20.371,37.232l0.02-0.003l0.022,0.003c0.002,0.067,0.024,0.067,0.138,0.043
		c0.11-0.046,0.446-0.275,0.49-0.388c0.021-0.043,0.022-0.088-0.003-0.112c-0.046-0.043-0.535,0.256-0.626,0.299
		c-0.066,0.046-0.086,0.048-0.062,0.134C20.347,37.229,20.347,37.229,20.371,37.232"/>
	<path clip-path="url(#SVGID_2_)" d="M20.686,37.479v0.067c0.002,0.043,0.003,0.064,0.071,0.064c0.356,0.04,0.959-0.46,1.092-0.685
		c0.043-0.064,0.091-0.155,0.067-0.198c-0.093-0.133-0.425,0.313-0.56,0.431c-0.155,0.091-0.359,0.136-0.558,0.203
		C20.686,37.388,20.684,37.41,20.686,37.479"/>
	<path clip-path="url(#SVGID_2_)" d="M22.365,37.035c0.134-0.182,0.222-0.383,0.178-0.45c-0.048-0.067-0.226,0.027-0.313,0.252
		c-0.044,0.067-0.089,0.249-0.064,0.313C22.21,37.22,22.298,37.107,22.365,37.035"/>
	<path clip-path="url(#SVGID_2_)" d="M40.532,36.331h0.024l-0.003,0.043c0.003,0.021,0.024,0.021,0.047,0.024l0.07-0.003
		c0.042,0,0.042,0,0.042-0.064l-0.001-0.158c-0.001-0.066-0.001-0.066-0.045-0.066h-0.092c-0.044,0-0.044,0-0.044,0.066l0.002,0.091
		C40.529,36.31,40.532,36.331,40.532,36.331"/>
	<path clip-path="url(#SVGID_2_)" d="M39.659,36.451c0.336,0.019,0.107-0.695-0.006-0.898c-0.048-0.113-0.048-0.113-0.091-0.11
		h-0.026c-0.019,0-0.019,0-0.019,0.11l0.098,0.764C39.635,36.43,39.636,36.449,39.659,36.451"/>
	<path clip-path="url(#SVGID_2_)" d="M27.178,35.45c-0.025-0.024-0.068,0.003-0.092,0c-0.312,0.094-0.911,0.747-1.047,0.953
		c-0.091,0.112-0.31,0.565-0.353,0.808v0.024c0.002,0.019,0.002,0.019,0.046,0.043l0.046,0.002c0.02,0.019,0.043-0.002,0.09-0.115
		c0.151-0.497,0.307-0.832,0.731-1.102c0.358-0.254,0.425-0.209,0.556-0.524C27.153,35.493,27.175,35.471,27.178,35.45"/>
	<path clip-path="url(#SVGID_2_)" d="M38.752,35.539c0.003,0.042-0.017,0.535-0.039,0.671c-0.023,0.116-0.021,0.134,0.024,0.137
		l0.043-0.003c0.022,0.003,0.047-0.018,0.066-0.137c0.135-0.357,0.108-0.896-0.032-1.166c-0.042-0.112-0.045-0.134-0.068-0.134
		c-0.091,0-0.091,0-0.063,0.158C38.705,35.202,38.752,35.384,38.752,35.539"/>
	<path clip-path="url(#SVGID_2_)" d="M38.078,34.779c-0.004,0.048-0.176,0.99-0.131,1.081c0.045,0.064,0.114,0.064,0.181-0.027
		c0.022-0.022,0.022-0.022,0.046-0.158c0.148-0.762,0.235-0.966-0.128-1.613c-0.067-0.112-0.067-0.112-0.094-0.112h-0.041
		c-0.023,0-0.023,0,0.026,0.139C37.981,34.309,38.074,34.533,38.078,34.779"/>
	<path clip-path="url(#SVGID_2_)" d="M26.343,35.48c0.333-0.701,0.8-1.15,1.72-1.34c0.134-0.019,0.134-0.019,0.157-0.067
		c0.02-0.203-0.272-0.134-0.586,0.027c-0.758,0.366-1.205,0.639-1.446,1.404c-0.02,0.115-0.02,0.115,0.069,0.11
		C26.279,35.614,26.303,35.592,26.343,35.48"/>
	<path clip-path="url(#SVGID_2_)" d="M15.542,34.084c0.226-0.113,0.472-0.204,0.651-0.14c0.181,0.07,0.363,0.289,0.565,0.332
		c0.089,0.022,0.18,0.022,0.271,0.043c0.111,0.043,0.248,0.177,0.359,0.198c0.2,0.064,0.738-0.228,0.915-0.37
		c0.068-0.042,0.156-0.127,0.112-0.197c-0.091-0.089-0.314,0.113-0.427,0.182c-0.065,0.021-0.132,0.043-0.223,0.045
		c-0.087,0.024-0.09,0.006-0.022-0.088c0.088-0.112,0.486-0.632,0.33-0.768c-0.112-0.085-0.245,0.185-0.331,0.276
		c-0.182,0.176-0.628,0.294-0.874,0.251c-0.448-0.037-0.519-0.22-0.947-0.128c-0.131,0.024-0.267,0.072-0.376,0.117
		c-0.115,0.043-0.137,0.07-0.137,0.134C15.387,34.11,15.408,34.126,15.542,34.084"/>
	<path clip-path="url(#SVGID_2_)" d="M37.263,34.046c-0.001,0.14,0.023,0.359,0.004,0.562c-0.043,0.179-0.111,0.361-0.087,0.407
		c0.044,0.019,0.112-0.005,0.131-0.046c0.157-0.206,0.086-0.789,0.06-1.014c-0.046-0.379-0.093-0.628-0.323-1.03
		c-0.043-0.091-0.111-0.203-0.176-0.128c-0.089,0.085,0.156,0.331,0.203,0.444C37.165,33.396,37.237,33.846,37.263,34.046"/>
	<path clip-path="url(#SVGID_2_)" d="M25.74,32.588c0.132-0.085,0.246-0.291,0.175-0.379c-0.066-0.046-0.201,0-0.268,0.181
		c-0.017,0.043-0.021,0.156,0.003,0.198C25.67,32.615,25.697,32.609,25.74,32.588"/>
	<path clip-path="url(#SVGID_2_)" d="M26.826,30.967c0.023,0,0.042,0,0.135-0.069l0.845-0.568c0.069-0.045,0.112-0.069,0.113-0.091
		v-0.067c-0.001-0.023-0.019-0.023-0.136,0c-0.402,0.073-0.534,0.183-0.915,0.501c-0.064,0.069-0.22,0.227-0.107,0.294
		C26.782,30.988,26.804,30.967,26.826,30.967"/>
	<path clip-path="url(#SVGID_2_)" d="M27.891,29.477c0.021-0.045,0.02-0.067,0.021-0.088c-0.067-0.07-0.358,0.112-0.536,0.252
		c0.001,0.021,0,0.064,0.001,0.085C27.424,29.795,27.826,29.543,27.891,29.477"/>
	<path clip-path="url(#SVGID_2_)" d="M35.458,27.467c0.133-0.185,0.38-0.364,0.534-0.591c0.024-0.021,0.353-0.586,0.313-0.608
		c-0.048-0.024-0.117-0.042-0.137,0c-0.113,0.14-0.199,0.386-0.356,0.608c-0.11,0.158-0.865,0.752-0.733,0.885
		C35.166,27.87,35.348,27.621,35.458,27.467"/>
	<path clip-path="url(#SVGID_2_)" d="M29.054,25.991h0.044c0.023,0,0.068-0.043,0.135-0.091l0.845-0.773
		c0.064-0.04,0.109-0.088,0.109-0.088l0.004-0.043c-0.002-0.024-0.002-0.024-0.024-0.024H30.1c-0.023,0-0.066,0.024-0.133,0.067
		l-0.869,0.773c-0.068,0.045-0.091,0.088-0.088,0.112v0.024C29.009,25.97,29.01,25.991,29.054,25.991"/>
	<path clip-path="url(#SVGID_2_)" d="M36.289,24.787c-0.021,0.024-0.021,0.024-0.107,0.112c-0.138,0.14-0.494,0.519-0.337,0.589
		c0,0,0.028,0,0.046-0.003c0.047,0.003,0.047-0.018,0.134-0.109c0.109-0.139,0.446-0.522,0.335-0.568
		C36.334,24.793,36.312,24.787,36.289,24.787"/>
	<path clip-path="url(#SVGID_2_)" d="M57.788,50.577c-0.092,0.091-0.202,0.179-0.246,0.246c-0.023,0.043-0.023,0.115,0.001,0.134
		c0.043,0.091,0.268-0.16,0.336-0.246c0.262-0.295,0.531-0.838,0.662-1.22c0.023-0.088,0.043-0.198-0.004-0.225
		c-0.158-0.131-0.266,0.434-0.329,0.609C58.141,50.058,57.919,50.464,57.788,50.577"/>
	<path clip-path="url(#SVGID_2_)" d="M58.043,46.468c-0.04-0.021-0.09-0.021-0.088,0c0.024,0.31,0.141,0.853,0.164,1.235
		c0.03,0.401-0.099,1.209-0.301,1.589c-0.085,0.206-0.417,0.61-0.349,0.723c0.067,0.134,0.33-0.203,0.444-0.358
		c0.132-0.251,0.216-0.519,0.306-0.835c0.066-0.291,0.197-1.257,0.147-1.37c-0.024-0.111-0.068-0.176-0.068-0.292
		c-0.003-0.093,0.021-0.179-0.005-0.27C58.271,46.753,58.158,46.511,58.043,46.468"/>
	<path clip-path="url(#SVGID_2_)" d="M63.491,42.992h-0.065c-0.047,0-0.047,0-0.046,0.046v0.088
		c-0.001,0.048-0.001,0.048,0.046,0.043l0.044,0.002c0.021,0,0.021,0,0.021-0.024c0.003-0.021,0.003-0.021,0.024-0.021h0.023
		l-0.002-0.024l0.002-0.067C63.536,42.992,63.536,42.992,63.491,42.992"/>
	<path clip-path="url(#SVGID_2_)" d="M65.954,33.843c0.61,0.241,0.654,0.216,0.879,0.597c0.227,0.358,0.297,0.467,0.412,0.896
		c0.022,0.133,0.022,0.133,0.065,0.133l0.025-0.004c0.023,0.004,0.023,0.004,0.02-0.017l-0.001-0.026
		c0.004-0.043,0.004-0.043-0.043-0.156c-0.208-0.647-0.436-1.319-0.932-1.517c0,0-0.515-0.155-0.562-0.086
		c-0.024-0.002,0.002,0.043,0,0.065C65.82,33.774,65.843,33.774,65.954,33.843"/>
	<path clip-path="url(#SVGID_2_)" d="M66.916,33.61c0.181,0.085,0.59,0.487,0.657,0.597c0.044,0.09,0.297,0.674,0.385,0.58
		c0.068-0.067-0.139-0.42-0.23-0.535c-0.252-0.426-0.657-0.846-1.152-1.089c-0.089-0.043-0.179-0.043-0.203,0
		c-0.022,0.045-0.017,0.115,0.001,0.115C66.492,33.388,66.736,33.496,66.916,33.61"/>
	<path clip-path="url(#SVGID_2_)" d="M67.155,32.706c0.767,0.401,0.927,0.578,1.292,1.477c0.046,0.109,0.047,0.128,0.069,0.13
		c0.066,0,0.068-0.021,0.043-0.136c-0.16-0.669-0.683-1.45-1.36-1.621c-0.153-0.027-0.176-0.027-0.156,0.064
		C67.042,32.642,67.067,32.663,67.155,32.706"/>
	<path clip-path="url(#SVGID_2_)" d="M63.83,32.018c0.026,0.024,0.112,0.024,0.134-0.002c0.068-0.022,0.002-0.11-0.067-0.156
		c-0.206-0.155-0.562-0.219-0.629-0.173c-0.048,0.021-0.042,0.066-0.002,0.087C63.358,31.866,63.676,31.975,63.83,32.018"/>
	<path clip-path="url(#SVGID_2_)" d="M63.577,31.167h0.065l0.091-0.003l-0.001,0.024c0.001,0.019,0.001,0.019,0.024,0.019
		c0.026,0.003,0.047,0.006,0.066,0c0.023-0.019,0.003-0.064-0.02-0.085c-0.023-0.046-0.182-0.113-0.269-0.113
		c-0.048,0.003-0.048,0.003-0.046,0.043v0.07C63.487,31.17,63.487,31.17,63.577,31.167"/>
	<path clip-path="url(#SVGID_2_)" d="M60.371,53.897c0.111-0.066-0.478-0.784-0.635-0.956c-0.113-0.16-0.208-0.25-0.318-0.16
		c-0.112,0.092,0.413,0.627,0.862,1.119C60.3,53.897,60.35,53.897,60.371,53.897"/>
	<path clip-path="url(#SVGID_2_)" d="M35.946,47.024h-0.017c-0.023,0-0.023,0-0.024,0.024l0.001,0.066
		c0.001,0.043,0,0.064,0.047,0.178c0.318,0.694,0.477,1.054,1.178,1.249c0.068,0.019,0.085-0.003,0.043-0.115
		c-0.048-0.203-0.203-0.153-0.475-0.329c-0.204-0.137-0.499-0.736-0.634-0.961C35.996,47.024,35.996,47.024,35.946,47.024"/>
	<path clip-path="url(#SVGID_2_)" d="M35.891,48.148c-0.268-0.268-0.702-0.69-0.746-0.824c-0.047-0.043-0.043-0.091-0.066-0.134
		c-0.073-0.137-0.184-0.246-0.251-0.383c-0.07-0.152-0.118-0.355-0.118-0.532c-0.002-0.16,0.022-0.339-0.048-0.358
		c-0.021-0.051-0.112-0.023-0.109,0.02c-0.023,0.023-0.024,0.068-0.023,0.088c0.023,0.026,0.02,0.048,0.047,0.161
		c0.186,0.823,0.369,1.343,0.956,1.941c0.068,0.064,0.384,0.332,0.452,0.246c0-0.021,0-0.07-0.002-0.091
		C35.985,48.236,35.985,48.236,35.891,48.148"/>
	<path clip-path="url(#SVGID_2_)" d="M34.655,48.089c-0.27-0.241-0.679-1.05-0.862-1.45c-0.023-0.091-0.07-0.183-0.066-0.249
		c-0.048-0.136-0.05-0.158-0.05-0.271l-0.028-0.447c0.003-0.109-0.001-0.137-0.044-0.131c-0.314-0.043-0.083,0.829,0.055,1.164
		c0.206,0.58,0.499,0.939,1.066,1.63c0.07,0.091,0.091,0.111,0.115,0.111c0.019,0,0.046-0.002,0.067-0.002
		C35.042,48.372,34.726,48.158,34.655,48.089"/>
	<path clip-path="url(#SVGID_2_)" d="M33.445,47.696c0.11,0.134,0.204,0.222,0.249,0.152c0.107-0.111-0.273-0.465-0.502-0.803
		c-0.203-0.315-0.275-0.583-0.278-0.936c0.022-0.249,0.039-0.565,0.016-0.744c0-0.043-0.089-0.022-0.133,0.003
		c-0.114,0.091-0.014,1.097-0.011,1.212C32.854,46.89,33.128,47.319,33.445,47.696"/>
	<path clip-path="url(#SVGID_2_)" d="M31.985,45.103c-0.02,0.067-0.042,0.158-0.02,0.246c0,0.115,0.002,0.134-0.022,0.137
		c-0.021,0.002-0.021,0.002-0.018,0.136c0.048,0.579,0.119,0.937,0.411,1.322c0.115,0.155,0.273,0.311,0.385,0.24
		c0.155-0.09-0.069-0.246-0.225-0.401c-0.228-0.245-0.412-0.808-0.391-1.097c0.019-0.09,0.194-0.701,0.084-0.808
		C32.098,44.814,32.008,44.948,31.985,45.103"/>
	<path clip-path="url(#SVGID_2_)" d="M33.134,42.562c0.357-0.206,1.448-1.137,1.491-1.581c0-0.051-0.026-0.094-0.047-0.118
		c-0.111-0.085-0.156,0.139-0.287,0.364c-0.09,0.136-0.225,0.27-0.313,0.364c-0.221,0.22-0.735,0.696-0.957,0.835
		c-0.133,0.07-0.335,0.181-0.222,0.273C32.845,42.741,33,42.65,33.134,42.562"/>
	<path clip-path="url(#SVGID_2_)" d="M33.149,41.663c0.736-0.5,0.891-0.615,1.356-1.316c0.111-0.153,0.247-0.356,0.18-0.426
		c-0.09-0.109-0.269,0.273-0.402,0.498c-0.108,0.203-0.267,0.407-0.422,0.541c-0.269,0.208-0.693,0.433-0.805,0.615
		c-0.019,0.021-0.045,0.064,0.003,0.085C33.083,41.66,33.125,41.66,33.149,41.663"/>
	<path clip-path="url(#SVGID_2_)" d="M33.299,40.788c0.447-0.14,1.178-1.226,1.332-1.584c0.09-0.182,0.158-0.385,0.221-0.562
		c0.041-0.136,0.02-0.16-0.05-0.155c-0.044,0.021-0.044,0.021-0.085,0.131c-0.44,0.992-0.664,1.308-1.463,1.988
		c-0.092,0.091-0.092,0.091-0.092,0.136C33.143,40.809,33.164,40.83,33.299,40.788"/>
	<path clip-path="url(#SVGID_2_)" d="M56.097,50.072c-0.017,0.023-0.016,0.114-0.02,0.158c0,0.023,0.046,0.021,0.091,0
		c0.248-0.161,0.492-0.545,0.42-0.61C56.497,49.507,56.252,49.828,56.097,50.072"/>
	<path clip-path="url(#SVGID_2_)" d="M55.625,49.582c0.042,0,0.065,0,0.137-0.091c0.152-0.161,0.308-0.34,0.421-0.497
		c0.066-0.113,0.109-0.223,0.173-0.316c0.267-0.423,0.359-0.386,0.552-0.989c0.048-0.135,0.024-0.135-0.067-0.135
		c-0.044,0-0.066,0.022-0.111,0.135c-0.218,0.406-0.508,1.014-0.665,1.195c-0.017,0.047-0.642,0.635-0.508,0.698
		C55.583,49.606,55.601,49.603,55.625,49.582"/>
	<path clip-path="url(#SVGID_2_)" d="M56.082,47.833c0.198-0.273,0.773-1.178,0.863-1.584c0.022-0.085,0.018-0.155-0.004-0.177
		c-0.022-0.046-0.066-0.043-0.088,0c-0.067,0.043-0.11,0.225-0.175,0.406c-0.065,0.204-0.534,1.015-0.667,1.151
		c-0.111,0.133-0.267,0.249-0.333,0.364c-0.023,0.021-0.044,0.111-0.02,0.128C55.704,48.233,56.034,47.875,56.082,47.833"/>
	<path clip-path="url(#SVGID_2_)" d="M56.097,46.819c0.244-0.292,0.797-1.331,0.795-1.893c-0.001-0.128-0.001-0.128-0.049-0.133
		l-0.046,0.005c-0.064,0-0.064,0-0.088,0.134c-0.065,0.428-0.372,1.327-0.614,1.637c-0.112,0.117-0.266,0.277-0.2,0.36
		C55.963,46.976,56.029,46.912,56.097,46.819"/>
	<path clip-path="url(#SVGID_2_)" d="M57.046,42.032c0.291,0.267,0.799,1.969,0.83,2.664c-0.005,0.11,0.002,0.316-0.042,0.493
		c-0.044,0.227-0.355,0.633-0.264,0.786c0.069,0.112,0.156,0.048,0.202-0.021c0.62-0.792,0.457-1.709,0.16-2.533
		c-0.16-0.428-0.368-0.968-0.549-1.255c-0.113-0.178-0.612-0.693-0.701-0.736c-0.067-0.021-0.115-0.021-0.16,0.003
		c-0.042,0.068,0.049,0.223,0.207,0.356C56.84,41.877,56.954,41.944,57.046,42.032"/>
	<path clip-path="url(#SVGID_2_)" d="M53.292,52.45c-0.023,0.021-0.021,0.064-0.001,0.091c0.024,0.043,0.094,0.064,0.159,0.067
		c0.473,0.13,0.697,0.264,1.078,0.144c0.134-0.019,0.292-0.091,0.36-0.179c0.043-0.063,0.064-0.155,0.017-0.182
		c-0.112-0.043-0.449,0.118-0.715,0.163c-0.069,0.002-0.134,0.002-0.201,0.002C53.941,52.556,53.425,52.316,53.292,52.45"/>
	<path clip-path="url(#SVGID_2_)" d="M50.342,51.198c0.157,0.129,0.295,0.268,0.471,0.396c0.159,0.112,1.042,0.465,1.287,0.508
		c0.293,0.065,1.054,0.15,1.39,0.076c0.205-0.021,0.269-0.091,0.246-0.177c0.003-0.046-0.021-0.048-0.136-0.048l-0.964,0.011
		c-0.112,0.002-0.157,0-0.267-0.019c-0.203-0.047-0.382-0.09-0.586-0.132c-0.268-0.086-1.035-0.441-1.129-0.529
		c-0.018-0.024-0.313-0.45-0.403-0.313c0,0.024,0,0.072,0.002,0.091C50.25,51.106,50.25,51.106,50.342,51.198"/>
	<path clip-path="url(#SVGID_2_)" d="M16.266,54.429c0.671-0.342,1.047-1.109,1.015-2.027c0.002-0.112-0.025-0.226-0.003-0.338
		c0.025-0.134,0.311-0.855,0.262-0.946c-0.066-0.065-0.176,0.068-0.241,0.206c-0.09,0.136-0.157,0.313-0.2,0.468
		c-0.129,0.521-0.104,1.348-0.214,1.574c-0.129,0.314-0.531,0.724-0.709,0.973c-0.021,0.022,0.004,0.067,0.003,0.091
		C16.199,54.451,16.219,54.451,16.266,54.429"/>
	<path clip-path="url(#SVGID_2_)" d="M17.208,40.06c-0.155,0.003-0.158,0.024-0.224,0.204c-0.153,0.406-0.469,0.36-0.939,0.454
		c-0.114,0.024-0.131,0.027-0.131,0.003C15.912,40.59,16,40.587,16.11,40.405c0.044-0.045,0.044-0.088,0.023-0.11
		c-0.072-0.16-0.43,0.139-0.491,0.273c-0.047,0.067-0.067,0.134-0.07,0.222c0.006,0.447,0.166,0.741-0.059,1.012
		c-0.11,0.136-0.311,0.316-0.171,0.449c0.157,0.158,0.595-0.522,0.69-0.725c0.108-0.203,0.13-0.313,0.306-0.383
		c0.136-0.066,0.315-0.066,0.449-0.13c0.156-0.075,0.511-0.616,0.485-0.883C17.251,40.06,17.251,40.06,17.208,40.06"/>
	<path clip-path="url(#SVGID_2_)" d="M10.008,40.387c0.155-0.064,0.513-0.455,0.555-0.564c0.02-0.067,0.023-0.116-0.002-0.11
		c-0.023-0.006-0.023-0.006-0.04,0v-0.021c-0.072-0.091-0.203,0.085-0.291,0.178c-0.068,0.089-0.071,0.11-0.071,0.137
		c0,0.088-0.154,0.182-0.332,0.225c-0.086,0.048-0.179,0.027-0.269,0.027c-0.114,0-0.137,0-0.155,0.042
		c-0.069,0.118-0.045,0.203,0.113,0.225C9.651,40.547,9.874,40.478,10.008,40.387"/>
	<path clip-path="url(#SVGID_2_)" d="M29.721,44.988c-0.29,0.184-0.67,0.364-0.874,0.521c-0.512,0.455-0.62,0.879-1.113,0.817
		c-0.134,0.002-0.247-0.041-0.358-0.11c-0.162-0.086-0.276-0.267-0.431-0.401c-0.364-0.332-0.587-0.239-1.058-0.214
		c-0.586,0.028-1.843-0.454-2.318-0.81c-0.317-0.222-0.653-0.581-0.921-0.709c-0.161-0.07-0.185-0.048-0.157,0.064
		c-0.001,0.021-0.004,0.049,0.111,0.112c0.248,0.225,0.541,0.445,0.724,0.648c0.204,0.176,0.269,0.241,0.674,0.396
		c0.182,0.069,0.384,0.133,0.542,0.198c0.18,0.088,0.336,0.198,0.517,0.267c0.315,0.086,0.875,0.038,1.259,0.103
		c0.428,0.085,0.449,0.265,0.903,0.6c0.088,0.063,0.155,0.106,0.267,0.149c0.159,0.069,0.653,0.154,0.74,0.134
		c0.137-0.048,0.363-0.273,0.491-0.479c0.18-0.291,0.178-0.426,0.354-0.581c0.181-0.165,0.827-0.417,0.938-0.663
		c0.046-0.112,0-0.107-0.111-0.112C29.856,44.942,29.83,44.942,29.721,44.988"/>
</g>
</svg>
