<?xml version="1.0" encoding="UTF-8"?>
<svg width="143px" height="40px" viewBox="0 0 143 40" version="1.1" xmlns="http://www.w3.org/2000/svg" xmlns:xlink="http://www.w3.org/1999/xlink">
    <!-- Generator: Sketch 57.1 (83088) - https://sketch.com -->
    <title>assets/images/uvp-n/svg-raw/logos/logo-uvp-n-mobile</title>
    <desc>Created with Sketch.</desc>
    <defs>
        <linearGradient x1="-0.00198198198%" y1="49.9990336%" x2="99.9978378%" y2="49.9990336%" id="linearGradient-1">
            <stop stop-color="#256394" offset="0%"></stop>
            <stop stop-color="#0089C6" offset="100%"></stop>
        </linearGradient>
        <linearGradient x1="-0.00071135139%" y1="50.0002753%" x2="99.9996443%" y2="50.0002753%" id="linearGradient-2">
            <stop stop-color="#256394" offset="0%"></stop>
            <stop stop-color="#0089C6" offset="100%"></stop>
        </linearGradient>
        <linearGradient x1="-0.000110135827%" y1="49.9994493%" x2="100.00011%" y2="49.9994493%" id="linearGradient-3">
            <stop stop-color="#0484D8" offset="0%"></stop>
            <stop stop-color="#40B9EC" offset="100%"></stop>
        </linearGradient>
        <linearGradient x1="0.000612924779%" y1="50.0009643%" x2="99.9998691%" y2="50.0009643%" id="linearGradient-4">
            <stop stop-color="#0484D8" offset="0%"></stop>
            <stop stop-color="#40B9EC" offset="100%"></stop>
        </linearGradient>
    </defs>
    <g id="assets/images/uvp-n/svg-raw/logos/logo-uvp-n-mobile" stroke="none" stroke-width="1" fill="none" fill-rule="evenodd">
        <g id="Logo_UVP-NI_RGB">
            <g id="UVP_x5F_Logo_1_" fill-rule="nonzero">
                <path d="M25.0284932,0.270684932 C22.0487671,0.270684932 19.6334247,2.6860274 19.6750685,5.66575342 L19.6750685,24.3035616 L19.6750685,24.3035616 C19.6750685,26.7649315 17.6794521,28.7605479 15.2180822,28.7605479 C12.7567123,28.7605479 10.7610959,26.7649315 10.7610959,24.3035616 L10.7605479,24.3035616 L10.7605479,5.64493151 C10.7605479,2.67671233 8.35452055,0.271232877 5.38684932,0.271232877 C2.41863014,0.271232877 0.0131506849,2.67726027 0.0131506849,5.64493151 L0.0131506849,24.7512329 C0.0131506849,24.7517808 0.0131506849,24.7523288 0.0131506849,24.7523288 C0.0131506849,24.7534247 0.0131506849,24.7539726 0.0131506849,24.7539726 L0.0131506849,25.2630137 C0.0131506849,25.4378082 0.0482191781,25.6027397 0.0646575342,25.7731507 C0.591232877,33.6931507 7.16493151,39.9589041 15.2186301,39.9589041 C23.6136986,39.9589041 30.419726,33.1550685 30.4235616,24.7605479 L30.4241096,24.7605479 L30.4241096,5.66575342 C30.4235616,2.6860274 28.0082192,0.270684932 25.0284932,0.270684932 Z" id="XMLID_224_" fill="url(#linearGradient-1)"></path>
                <path d="M80.4871233,0.163287671 C80.3736986,0.163287671 80.2641096,0.177534247 80.1512329,0.180273973 L80.1512329,0.144109589 L70.5271233,0.144109589 C67.3342466,0.144109589 64.7457534,2.73260274 64.7457534,5.92547945 L64.7457534,24.5945205 L64.7457534,24.5950685 L64.7457534,34.369863 C64.7457534,37.4558904 67.2476712,39.9578082 70.3336986,39.9578082 C73.419726,39.9578082 75.9216438,37.4558904 75.9216438,34.369863 L75.9216438,30.3024658 L80.1517808,30.3024658 L80.1517808,30.2854795 C80.2646575,30.2882192 80.3742466,30.3024658 80.4876712,30.3024658 C88.810411,30.3024658 95.5572603,23.5556164 95.5572603,15.2328767 C95.5572603,6.91013699 88.810411,0.163287671 80.4871233,0.163287671 Z M81.4821918,19.1276712 L75.9205479,19.1276712 L75.9205479,11.32 L81.4821918,11.32 C83.6383562,11.32 85.3863014,13.0679452 85.3863014,15.2241096 C85.3863014,17.380274 83.6383562,19.1276712 81.4821918,19.1276712 Z" id="XMLID_203_" fill="url(#linearGradient-2)"></path>
                <path d="M49.6542466,39.549589 L49.6542466,39.549589 C46.7928767,40.7057534 43.5364384,39.3232877 42.380274,36.4619178 L30.8164384,7.84 C29.660274,4.97863014 31.0427397,1.72219178 33.9041096,0.566027397 L33.9041096,0.566027397 C36.7654795,-0.590136986 40.0219178,0.792328767 41.1780822,3.65369863 L52.7419178,32.2756164 C53.8980822,35.1364384 52.5156164,38.3934247 49.6542466,39.549589 Z" id="Path" fill="url(#linearGradient-3)"></path>
                <path d="M61.2087671,0.589589041 L61.2087671,0.589589041 C58.3473973,-0.566575342 55.0909589,0.815890411 53.9347945,3.67726027 L42.380274,32.2750685 C41.2241096,35.1364384 42.6065753,38.3928767 45.4679452,39.5490411 L45.4679452,39.5490411 C48.3293151,40.7052055 51.5857534,39.3227397 52.7419178,36.4613699 L64.2964384,7.86356164 C65.4526027,5.00273973 64.070137,1.74575342 61.2087671,0.589589041 Z" id="XMLID_202_" fill="url(#linearGradient-4)"></path>
                <g id="XMLID_200_" opacity="0.8" transform="translate(41.643836, 19.178082)" fill="#270739">
                    <path d="M5.93369863,20.779726 C1.95287671,20.779726 -0.789589041,16.7282192 0.760547945,13.0394521 C1.92109589,10.2783562 5.93369863,0.315068493 5.93369863,0.315068493 C5.93369863,0.315068493 9.71232877,9.56219178 11.0723288,13.0317808 C12.6915068,17.1621918 9.53643836,20.779726 5.93369863,20.779726 Z" id="XMLID_201_"></path>
                </g>
                <g id="XMLID_198_" opacity="0.8" transform="translate(9.315068, 28.493151)" fill="#270739">
                    <path d="M5.9030137,11.4646575 C2.80547945,11.4646575 0.294246575,8.95342466 0.294246575,5.85589041 C0.294246575,2.75835616 2.80547945,0.247123288 5.9030137,0.247123288 C9.00054795,0.247123288 11.5117808,2.75835616 11.5117808,5.85589041 C11.5117808,8.95342466 9.00054795,11.4646575 5.9030137,11.4646575 Z" id="XMLID_199_"></path>
                </g>
                <g id="XMLID_5_" opacity="0.8" transform="translate(70.136986, 18.630137)" fill="#270739">
                    <path d="M5.78410959,0.497534247 C2.69808219,0.497534247 0.196164384,2.99945205 0.196164384,6.08547945 C0.196164384,9.17150685 2.69808219,11.6734247 5.78410959,11.6734247 L5.78410959,0.497534247 Z" id="XMLID_197_"></path>
                </g>
            </g>
      </g>
    </g>
</svg>