<?xml version="1.0" encoding="UTF-8" standalone="no"?>
<!-- Generator: Adobe Illustrator 16.0.3, SVG Export Plug-In . SVG Version: 6.00 Build 0)  -->

<svg
   xmlns:dc="http://purl.org/dc/elements/1.1/"
   xmlns:cc="http://creativecommons.org/ns#"
   xmlns:rdf="http://www.w3.org/1999/02/22-rdf-syntax-ns#"
   xmlns:svg="http://www.w3.org/2000/svg"
   xmlns="http://www.w3.org/2000/svg"
   xmlns:xlink="http://www.w3.org/1999/xlink"
   xmlns:sodipodi="http://sodipodi.sourceforge.net/DTD/sodipodi-0.dtd"
   xmlns:inkscape="http://www.inkscape.org/namespaces/inkscape"
   version="1.1"
   id="Ebene_1"
   x="0px"
   y="0px"
   width="628.26px"
   height="90.708px"
   viewBox="0 0 628.26 90.708"
   enable-background="new 0 0 628.26 90.708"
   xml:space="preserve"
   inkscape:version="0.91 r13725"
   sodipodi:docname="mobile-logo.svg"><metadata
     id="metadata3493"><rdf:RDF><cc:Work
         rdf:about=""><dc:format>image/svg+xml</dc:format><dc:type
           rdf:resource="http://purl.org/dc/dcmitype/StillImage" /></cc:Work></rdf:RDF></metadata><defs
     id="defs3491" /><sodipodi:namedview
     pagecolor="#ffffff"
     bordercolor="#666666"
     borderopacity="1"
     objecttolerance="10"
     gridtolerance="10"
     guidetolerance="10"
     inkscape:pageopacity="0"
     inkscape:pageshadow="2"
     inkscape:window-width="1600"
     inkscape:window-height="816"
     id="namedview3489"
     showgrid="false"
     inkscape:zoom="2.3000031"
     inkscape:cx="314.13"
     inkscape:cy="45.354"
     inkscape:window-x="-8"
     inkscape:window-y="-8"
     inkscape:window-maximized="1"
     inkscape:current-layer="Ebene_1" /><polygon
     points="39.919,88.476 39.907,88.476 39.919,88.476 39.922,88.476 39.935,88.476 "
     id="polygon3337" /><g
     id="g3477"
     transform="translate(-98,0)"
     style="fill:#ffffff"><defs
       id="defs3479"><rect
         id="SVGID_3_"
         x="98.043999"
         y="14.11"
         width="526.25299"
         height="59.658001" /></defs><clipPath
       id="SVGID_4_"><use
         xlink:href="#SVGID_3_"
         overflow="visible"
         id="use3483"
         style="overflow:visible"
         x="0"
         y="0"
         width="100%"
         height="100%" /></clipPath><path
       clip-path="url(#SVGID_4_)"
       d="m 611.419,54.783 7.513,0 -7.843,9.082 0,3.273 12.861,0 0,-3.124 -7.965,0 7.696,-9.051 0,-3.305 -12.263,0 0,3.125 z m -9.71,7.699 c 0,3.064 1.74,5.017 4.896,5.017 1.203,0 2.133,-0.119 2.976,-0.36 l -0.12,-3.185 c -0.421,0.272 -1.111,0.421 -1.832,0.421 -1.535,0 -1.896,-1.23 -1.896,-2.557 l 0,-7.216 3.579,0 0,-2.943 -3.579,0 0,-4.39 -4.022,1.292 0,3.098 -2.979,0 0,2.943 2.979,0 0,7.88 z m -5.479,-10.823 -4.022,0 0,7.576 c 0,1.984 -0.633,5.14 -3.551,5.14 -2.589,0 -2.616,-2.554 -2.616,-4.449 l 0,-8.267 -4.026,0 0,9.77 c 0,3.487 1.592,6.07 5.26,6.07 2.104,0 3.849,-0.962 5.082,-2.463 l 0.061,0 0,2.103 3.813,0 0,-15.48 z m -32.584,15.479 4.023,0 0,-7.576 c 0,-1.985 0.633,-5.14 3.551,-5.14 2.588,0 2.617,2.554 2.617,4.448 l 0,8.268 4.025,0 0,-9.771 c 0,-3.486 -1.592,-6.069 -5.26,-6.069 -2.104,0 -3.848,0.959 -4.874,2.462 l -0.06,0 0,-9.168 -4.023,0 0,22.546 z m -2.95,-15.333 c -1.113,-0.327 -2.285,-0.507 -3.907,-0.507 -4.841,0 -7.485,3.545 -7.485,8.025 0,4.723 2.554,8.175 7.633,8.175 1.655,0 2.858,-0.148 4.029,-0.51 l -0.181,-3.336 c -0.689,0.301 -1.952,0.722 -3.095,0.722 -2.827,0 -4.181,-2.192 -4.181,-5.051 0,-2.918 1.595,-4.901 4.089,-4.901 1.234,0 2.016,0.239 2.737,0.569 l 0.361,-3.186 z m -14.281,0.06 c -1.261,-0.266 -2.491,-0.566 -4.388,-0.566 -3.158,0 -6.069,1.472 -6.069,4.807 0,5.593 7.003,3.52 7.003,6.558 0,1.503 -1.626,1.893 -2.648,1.893 -1.383,0 -2.703,-0.39 -3.966,-1.022 l -0.24,3.305 c 1.471,0.393 3.035,0.661 4.567,0.661 3.277,0 6.494,-1.439 6.494,-5.048 0,-5.595 -7.008,-4.028 -7.008,-6.497 0,-1.322 1.295,-1.713 2.381,-1.713 1.471,0 2.373,0.241 3.604,0.662 l 0.27,-3.04 z M 523.084,62.66 c 0,-2.377 2.677,-2.678 4.483,-2.678 l 1.744,0 c 0,1.203 -0.181,2.317 -0.842,3.19 -0.633,0.842 -1.595,1.383 -2.829,1.383 -1.443,0 -2.556,-0.57 -2.556,-1.895 m -2.042,-6.735 c 1.352,-1.022 3.063,-1.685 4.778,-1.685 2.377,0 3.491,0.842 3.491,3.339 l -2.225,0 c -1.688,0 -3.671,0.152 -5.203,0.902 -1.532,0.75 -2.644,2.103 -2.644,4.418 0,2.947 2.672,4.599 5.409,4.599 1.833,0 3.85,-0.962 4.782,-2.672 l 0.06,0 c 0.032,0.479 0.032,1.501 0.182,2.312 l 3.544,0 c -0.091,-1.2 -0.151,-2.282 -0.181,-3.453 -0.03,-1.143 -0.06,-2.317 -0.06,-3.88 l 0,-1.987 c 0,-4.57 -1.953,-6.52 -6.675,-6.52 -1.712,0 -3.819,0.448 -5.38,1.171 l 0.122,3.456 z m -27.598,11.213 4.023,0 0,-7.517 c 0,-2.013 0.333,-5.199 3.01,-5.199 2.316,0 2.316,2.044 2.316,3.486 l 0,9.229 4.025,0 0,-7.517 c 0,-2.013 0.329,-5.199 3.011,-5.199 2.315,0 2.315,2.044 2.315,3.486 l 0,9.229 4.023,0 0,-9.771 c 0,-3.459 -1.08,-6.069 -4.896,-6.069 -1.896,0 -3.912,0.87 -4.845,2.731 -0.871,-1.922 -2.403,-2.731 -4.567,-2.731 -1.503,0 -3.339,0.63 -4.602,2.522 l -0.061,0 0,-2.162 -3.754,0 0,15.482 z m -8.209,-18.308 4.026,0 0,-3.845 -4.026,0 0,3.845 z m 0,18.308 4.026,0 0,-15.479 -4.026,0 0,15.479 z m -8.357,0 4.025,0 0,-22.546 -4.025,0 0,22.546 z m -19.783,0 4.206,0 0,-9.738 0.061,0 7.544,9.738 5.504,0 -8.99,-11.093 8.63,-9.891 -5.171,0 -7.577,9.021 0,-9.021 -4.206,0 0,20.984 z m -16.777,0 3.905,0 0,-22.546 -4.026,0 0,8.872 -0.06,0 c -1.202,-1.476 -2.617,-2.165 -4.633,-2.165 -4.747,0 -6.491,3.784 -6.491,8.055 0,4.24 1.744,8.146 6.491,8.146 1.896,0 3.551,-0.602 4.754,-2.102 l 0.06,0 0,1.74 z m -7.098,-7.785 c 0,-2.076 0.722,-4.931 3.339,-4.931 2.589,0 3.611,2.766 3.611,4.931 0,2.196 -0.873,5.021 -3.552,5.021 -2.644,0.001 -3.398,-2.885 -3.398,-5.021 m -21.584,7.785 4.025,0 0,-7.576 c 0,-1.985 0.634,-5.14 3.552,-5.14 2.586,0 2.617,2.554 2.617,4.448 l 0,8.268 4.025,0 0,-9.771 c 0,-3.486 -1.592,-6.069 -5.26,-6.069 -2.105,0 -3.82,0.689 -5.083,2.462 l -0.061,0 0,-2.102 -3.816,0 0,15.48 z m -4.152,-15.479 -4.022,0 0,7.576 c 0,1.984 -0.634,5.14 -3.552,5.14 -2.588,0 -2.616,-2.554 -2.616,-4.449 l 0,-8.267 -4.026,0 0,9.77 c 0,3.487 1.592,6.07 5.257,6.07 2.108,0 3.852,-0.962 5.085,-2.463 l 0.062,0 0,2.103 3.813,0 0,-15.48 z m -26.876,11.333 c -1.503,0.843 -3.187,1.563 -5.14,1.563 -2.496,0 -4.243,-1.414 -4.423,-3.911 l 10.703,0 c 0,-5.412 -1.621,-9.346 -7.365,-9.346 -4.811,0 -7.182,3.693 -7.182,8.175 0,5.082 2.973,8.025 8.087,8.025 2.164,0 3.848,-0.421 5.319,-1.23 l 0,-3.276 z m -9.562,-5.111 c 0.18,-2.076 1.321,-3.641 3.579,-3.641 2.256,0 3.16,1.685 3.28,3.641 l -6.859,0 z m -11.119,-9.051 4.025,0 0,-3.845 -4.025,0 0,3.845 z m 0,18.308 4.025,0 0,-15.479 -4.025,0 0,15.479 z m -8.089,-15.479 0,2.104 -0.061,0 c -1.113,-1.775 -2.706,-2.465 -4.753,-2.465 -4.627,0 -6.552,4.295 -6.552,8.025 0,4.149 1.744,7.814 6.311,7.814 2.258,0 4.062,-1.143 4.814,-2.462 l 0.06,0 c 0,2.674 -0.209,6.013 -4.661,6.013 -1.266,0 -3.278,-0.69 -4.511,-1.354 l -0.329,3.428 c 1.921,0.81 1.758,1.05 3.35,1.05 6.494,0 10.178,-3.965 10.178,-8.174 l 0,-13.979 -3.846,0 z m -3.732,12.355 c -2.313,0 -3.427,-2.586 -3.427,-4.69 0,-2.377 0.87,-4.901 3.607,-4.901 2.349,0 3.37,2.165 3.37,4.81 10e-4,2.588 -1.02,4.781 -3.55,4.781 m -18.245,3.124 4.023,0 0,-5.682 c 0,-2.225 0,-6.313 3.277,-6.313 0.723,0 1.444,0.121 1.805,0.33 l 0,-4.055 c -0.421,-0.12 -0.841,-0.12 -1.234,-0.12 -2.405,0 -4.057,2.431 -4.238,3.874 l -0.06,0 0,-3.514 -3.573,0 0,15.48 z m -4.391,-4.146 c -1.504,0.843 -3.186,1.563 -5.14,1.563 -2.497,0 -4.244,-1.414 -4.425,-3.911 l 10.703,0 c 0,-5.412 -1.621,-9.346 -7.362,-9.346 -4.813,0 -7.184,3.693 -7.184,8.175 0,5.082 2.972,8.025 8.086,8.025 2.165,0 3.85,-0.421 5.321,-1.23 l 0,-3.276 z m -9.565,-5.111 c 0.181,-2.076 1.326,-3.641 3.582,-3.641 2.256,0 3.158,1.685 3.278,3.641 l -6.86,0 z m -21.219,9.257 4.023,0 0,-7.576 c 0,-1.985 0.632,-5.14 3.55,-5.14 2.589,0 2.617,2.554 2.617,4.448 l 0,8.268 4.026,0 0,-9.771 c 0,-3.486 -1.592,-6.069 -5.257,-6.069 -2.107,0 -3.823,0.689 -5.085,2.462 l -0.06,0 0,-2.102 -3.814,0 0,15.48 z m -16.356,0 12.441,0 0,-3.304 -8.238,0 0,-5.896 7.488,0 0,-3.304 -7.488,0 0,-5.174 8.178,0 0,-3.306 -12.381,0 0,20.984 z m -18.46,3.307 3.545,0 2.734,-7.513 -4.358,0 -1.921,7.513 z m -8.992,-7.963 c 0,3.064 1.744,5.017 4.899,5.017 1.203,0 2.133,-0.119 2.975,-0.36 l -0.12,-3.185 c -0.421,0.272 -1.111,0.421 -1.833,0.421 -1.534,0 -1.895,-1.23 -1.895,-2.557 l 0,-7.216 3.579,0 0,-2.943 -3.579,0 0,-4.39 -4.026,1.292 0,3.098 -2.975,0 0,2.943 2.975,0 0,7.88 z m -9.588,4.656 4.026,0 0,-22.546 -4.026,0 0,22.546 z m -4.394,-4.146 c -1.503,0.843 -3.184,1.563 -5.139,1.563 -2.497,0 -4.241,-1.414 -4.421,-3.911 l 10.703,0 c 0,-5.412 -1.624,-9.346 -7.365,-9.346 -4.81,0 -7.184,3.693 -7.184,8.175 0,5.082 2.972,8.025 8.086,8.025 2.165,0 3.849,-0.421 5.32,-1.23 l 0,-3.276 z m -9.56,-5.111 c 0.18,-2.076 1.322,-3.641 3.579,-3.641 2.256,0 3.158,1.685 3.278,3.641 l -6.857,0 z m -26.093,9.257 4.598,0 3.308,-11.814 0.06,0 3.367,11.814 4.75,0 4.751,-15.479 -3.849,0 -3.218,11.453 -0.06,0 -3.368,-11.453 -4.69,0 -3.127,11.453 -0.06,0 -3.427,-11.453 -4.269,0 5.234,15.479 z m -30.274,0 4.023,0 0,-7.517 c 0,-2.013 0.332,-5.199 3.009,-5.199 2.316,0 2.316,2.044 2.316,3.486 l 0,9.229 4.026,0 0,-7.517 c 0,-2.013 0.33,-5.199 3.01,-5.199 2.316,0 2.316,2.044 2.316,3.486 l 0,9.229 4.023,0 0,-9.771 c 0,-3.459 -1.079,-6.069 -4.896,-6.069 -1.896,0 -3.912,0.87 -4.845,2.731 -0.87,-1.922 -2.402,-2.731 -4.567,-2.731 -1.503,0 -3.339,0.63 -4.601,2.522 l -0.061,0 0,-2.162 -3.753,0 0,15.482 z m -21.438,-7.574 c 0,5.621 3.184,7.935 8.567,7.935 5.383,0 8.567,-2.313 8.567,-7.935 l 0,-13.409 -4.206,0 0,12.118 c 0,3.576 -1.143,5.921 -4.361,5.921 -3.219,0 -4.361,-2.345 -4.361,-5.921 l 0,-12.118 -4.206,0 0,13.409 z m -20.174,7.574 4.026,0 0,-5.682 c 0,-2.225 0,-6.313 3.276,-6.313 0.721,0 1.443,0.121 1.804,0.33 l 0,-4.055 c -0.421,-0.12 -0.842,-0.12 -1.232,-0.12 -2.405,0 -4.06,2.431 -4.24,3.874 l -0.06,0 0,-3.514 -3.574,0 0,15.48 z m -4.242,-15.479 -4.026,0 0,7.576 c 0,1.984 -0.63,5.14 -3.548,5.14 -2.588,0 -2.617,-2.554 -2.617,-4.449 l 0,-8.267 -4.026,0 0,9.77 c 0,3.487 1.592,6.07 5.257,6.07 2.108,0 3.852,-0.962 5.086,-2.463 l 0.06,0 0,2.103 3.814,0 0,-15.48 z m -8.448,-6.314 -3.485,0 0,3.484 3.485,0 0,-3.484 z m 2.709,3.485 3.485,0 0,-3.484 -3.485,0 0,3.484 z m -18.7,18.308 4.026,0 0,-12.536 3.516,0 0,-2.943 -3.516,0 0,-1.927 c 0,-1.203 0.421,-2.377 1.772,-2.377 0.874,0 1.383,0.332 1.744,0.541 l 0.332,-3.333 c -0.781,-0.18 -1.924,-0.332 -2.946,-0.332 -3.187,0 -4.928,2.162 -4.928,5.26 l 0,2.168 -2.978,0 0,2.943 2.978,0 0,12.536 z"
       id="path3485"
       inkscape:connector-curvature="0" /><path
       clip-path="url(#SVGID_4_)"
       d="m 501.677,36.657 4.026,0 0,-7.516 c 0,-2.016 0.333,-5.2 3.01,-5.2 2.316,0 2.316,2.041 2.316,3.487 l 0,9.229 4.022,0 0,-7.516 c 0,-2.016 0.332,-5.2 3.01,-5.2 2.316,0 2.316,2.041 2.316,3.487 l 0,9.229 4.026,0 0,-9.773 c 0,-3.456 -1.082,-6.067 -4.896,-6.067 -1.896,0 -3.912,0.87 -4.845,2.732 -0.871,-1.922 -2.403,-2.732 -4.567,-2.732 -1.503,0 -3.339,0.63 -4.602,2.523 l -0.061,0 0,-2.162 -3.757,0 0,15.479 z m -4.091,-15.479 -4.026,0 0,7.576 c 0,1.984 -0.63,5.14 -3.548,5.14 -2.588,0 -2.617,-2.554 -2.617,-4.45 l 0,-8.266 -4.025,0 0,9.769 c 0,3.488 1.592,6.071 5.257,6.071 2.108,0 3.852,-0.962 5.086,-2.463 l 0.06,0 0,2.102 3.814,0 0,-15.479 z m -22.486,-2.832 4.026,0 0,-3.845 -4.026,0 0,3.845 z m 0,18.311 4.026,0 0,-15.479 -4.026,0 0,15.479 z m -11.694,0 4.025,0 0,-5.681 c 0,-2.228 0,-6.314 3.275,-6.314 0.722,0 1.443,0.118 1.804,0.33 l 0,-4.055 c -0.421,-0.12 -0.842,-0.12 -1.23,-0.12 -2.405,0 -4.061,2.431 -4.241,3.874 l -0.061,0 0,-3.513 -3.572,0 0,15.479 z m -4.393,-4.146 c -1.5,0.842 -3.184,1.563 -5.139,1.563 -2.497,0 -4.241,-1.414 -4.421,-3.911 l 10.703,0 c 0,-5.412 -1.624,-9.346 -7.365,-9.346 -4.811,0 -7.185,3.694 -7.185,8.175 0,5.082 2.973,8.026 8.087,8.026 2.164,0 3.849,-0.421 5.319,-1.231 l 0,-3.276 z m -9.56,-5.111 c 0.18,-2.076 1.322,-3.642 3.579,-3.642 2.256,0 3.157,1.686 3.277,3.642 l -6.856,0 z m -13.226,4.601 c 0,3.064 1.744,5.017 4.896,5.017 1.203,0 2.136,-0.12 2.978,-0.361 l -0.12,-3.184 c -0.421,0.272 -1.113,0.421 -1.836,0.421 -1.53,0 -1.892,-1.231 -1.892,-2.557 l 0,-7.216 3.576,0 0,-2.943 -3.576,0 0,-4.39 -4.026,1.292 0,3.098 -2.975,0 0,2.943 2.975,0 0,7.88 z m -5.204,-10.617 c -1.263,-0.266 -2.493,-0.567 -4.389,-0.567 -3.159,0 -6.071,1.472 -6.071,4.807 0,5.593 7.005,3.52 7.005,6.558 0,1.503 -1.627,1.892 -2.649,1.892 -1.382,0 -2.703,-0.389 -3.965,-1.022 l -0.241,3.304 c 1.472,0.393 3.035,0.662 4.567,0.662 3.278,0 6.493,-1.44 6.493,-5.048 0,-5.595 -7.006,-4.029 -7.006,-6.497 0,-1.323 1.297,-1.715 2.379,-1.715 1.473,0 2.374,0.243 3.605,0.664 l 0.272,-3.038 z m -17.734,-3.038 4.025,0 0,-3.845 -4.025,0 0,3.845 z m 0,18.311 4.025,0 0,-15.479 -4.025,0 0,15.479 z m -18.461,0 4.025,0 0,-7.576 c 0,-1.985 0.631,-5.14 3.549,-5.14 2.589,0 2.616,2.554 2.616,4.449 l 0,8.267 4.026,0 0,-9.773 c 0,-3.484 -1.592,-6.067 -5.257,-6.067 -2.108,0 -3.823,0.69 -5.085,2.462 l -0.062,0 0,-2.101 -3.813,0 0,15.479 z m -8.269,-18.311 4.026,0 0,-3.845 -4.026,0 0,3.845 z m 0,18.311 4.026,0 0,-15.479 -4.026,0 0,15.479 z m -28.109,0 4.024,0 0,-17.257 0.062,-0.061 5.651,17.318 4.031,0 5.653,-17.318 0.06,0 0,17.318 4.026,0 0,-20.983 -6.732,0 -4.994,15.901 -0.06,0 -4.991,-15.901 -6.73,0 0,20.983 z M 345.851,21.384 c -1.263,-0.266 -2.494,-0.567 -4.39,-0.567 -3.158,0 -6.07,1.472 -6.07,4.807 0,5.593 7.004,3.52 7.004,6.558 0,1.503 -1.627,1.892 -2.648,1.892 -1.383,0 -2.703,-0.389 -3.966,-1.022 l -0.24,3.304 c 1.472,0.393 3.035,0.662 4.566,0.662 3.278,0 6.494,-1.44 6.494,-5.048 0,-5.595 -7.007,-4.029 -7.007,-6.497 0,-1.323 1.295,-1.715 2.38,-1.715 1.473,0 2.373,0.243 3.605,0.664 l 0.272,-3.038 z m -13.77,11.127 c -1.503,0.842 -3.185,1.563 -5.141,1.563 -2.496,0 -4.242,-1.414 -4.424,-3.911 l 10.704,0 c 0,-5.412 -1.621,-9.346 -7.365,-9.346 -4.81,0 -7.181,3.694 -7.181,8.175 0,5.082 2.972,8.026 8.086,8.026 2.164,0 3.849,-0.421 5.32,-1.231 l 0,-3.276 z M 322.517,27.4 c 0.182,-2.076 1.326,-3.642 3.582,-3.642 2.254,0 3.159,1.686 3.279,3.642 l -6.861,0 z m -21.22,9.257 4.023,0 0,-7.576 c 0,-1.985 0.633,-5.14 3.551,-5.14 2.588,0 2.617,2.554 2.617,4.449 l 0,8.267 4.026,0 0,-9.773 c 0,-3.484 -1.593,-6.067 -5.26,-6.067 -2.105,0 -3.849,0.959 -4.874,2.462 l -0.06,0 0,-9.168 -4.023,0 0,22.546 z m -2.949,-15.333 c -1.114,-0.327 -2.285,-0.507 -3.909,-0.507 -4.839,0 -7.485,3.545 -7.485,8.026 0,4.722 2.555,8.175 7.634,8.175 1.655,0 2.858,-0.149 4.029,-0.51 l -0.181,-3.336 c -0.69,0.301 -1.952,0.722 -3.095,0.722 -2.826,0 -4.18,-2.193 -4.18,-5.051 0,-2.918 1.595,-4.902 4.089,-4.902 1.234,0 2.015,0.24 2.737,0.57 l 0.361,-3.187 z m -14.283,0.06 c -1.26,-0.266 -2.491,-0.567 -4.386,-0.567 -3.159,0 -6.071,1.472 -6.071,4.807 0,5.593 7.004,3.52 7.004,6.558 0,1.503 -1.626,1.892 -2.649,1.892 -1.383,0 -2.703,-0.389 -3.965,-1.022 l -0.241,3.304 c 1.472,0.393 3.035,0.662 4.567,0.662 3.279,0 6.494,-1.44 6.494,-5.048 0,-5.595 -7.006,-4.029 -7.006,-6.497 0,-1.323 1.294,-1.715 2.379,-1.715 1.472,0 2.374,0.243 3.605,0.664 l 0.269,-3.038 z m -17.732,-3.038 4.026,0 0,-3.845 -4.026,0 0,3.845 z m 0,18.311 4.026,0 0,-15.479 -4.026,0 0,15.479 z m -3.972,-15.273 c -1.263,-0.266 -2.494,-0.567 -4.39,-0.567 -3.158,0 -6.07,1.472 -6.07,4.807 0,5.593 7.004,3.52 7.004,6.558 0,1.503 -1.626,1.892 -2.649,1.892 -1.383,0 -2.703,-0.389 -3.965,-1.022 l -0.241,3.304 c 1.472,0.393 3.035,0.662 4.567,0.662 3.279,0 6.494,-1.44 6.494,-5.048 0,-5.595 -7.006,-4.029 -7.006,-6.497 0,-1.323 1.297,-1.715 2.379,-1.715 1.472,0 2.374,0.243 3.605,0.664 l 0.272,-3.038 z m -27.838,15.273 4.026,0 0,-7.576 c 0,-1.985 0.63,-5.14 3.548,-5.14 2.589,0 2.617,2.554 2.617,4.449 l 0,8.267 4.026,0 0,-9.773 c 0,-3.484 -1.592,-6.067 -5.257,-6.067 -2.108,0 -3.851,0.959 -4.874,2.462 l -0.06,0 0,-9.168 -4.026,0 0,22.546 z m -2.949,-15.333 c -1.114,-0.327 -2.285,-0.507 -3.908,-0.507 -4.839,0 -7.482,3.545 -7.482,8.026 0,4.722 2.551,8.175 7.631,8.175 1.655,0 2.857,-0.149 4.028,-0.51 l -0.18,-3.336 c -0.69,0.301 -1.953,0.722 -3.095,0.722 -2.826,0 -4.181,-2.193 -4.181,-5.051 0,-2.918 1.595,-4.902 4.089,-4.902 1.234,0 2.016,0.24 2.737,0.57 l 0.361,-3.187 z M 207.31,32.179 c 0,-2.377 2.677,-2.678 4.484,-2.678 l 1.744,0 c 0,1.203 -0.18,2.317 -0.842,3.19 -0.633,0.842 -1.595,1.383 -2.829,1.383 -1.443,0 -2.557,-0.57 -2.557,-1.895 m -2.041,-6.735 c 1.351,-1.022 3.063,-1.686 4.779,-1.686 2.376,0 3.49,0.844 3.49,3.341 l -2.225,0 c -1.686,0 -3.671,0.152 -5.203,0.902 -1.532,0.75 -2.642,2.102 -2.642,4.418 0,2.947 2.671,4.599 5.406,4.599 1.835,0 3.851,-0.962 4.784,-2.672 l 0.06,0 c 0.032,0.478 0.032,1.501 0.181,2.311 l 3.545,0 c -0.092,-1.2 -0.152,-2.282 -0.181,-3.453 -0.031,-1.143 -0.06,-2.317 -0.06,-3.88 l 0,-1.987 c 0,-4.57 -1.953,-6.52 -6.674,-6.52 -1.713,0 -3.82,0.449 -5.381,1.171 l 0.121,3.456 z m 4.117,-10.58 -3.485,0 0,3.485 3.485,0 0,-3.485 z m 2.709,3.482 3.485,0 0,-3.485 -3.485,0 0,3.485 z m -11.517,3.038 c -1.262,-0.266 -2.494,-0.567 -4.389,-0.567 -3.158,0 -6.07,1.472 -6.07,4.807 0,5.593 7.003,3.52 7.003,6.558 0,1.503 -1.626,1.892 -2.648,1.892 -1.383,0 -2.703,-0.389 -3.966,-1.022 l -0.241,3.304 c 1.472,0.393 3.036,0.662 4.567,0.662 3.279,0 6.495,-1.44 6.495,-5.048 0,-5.595 -7.007,-4.029 -7.007,-6.497 0,-1.323 1.294,-1.715 2.379,-1.715 1.472,0 2.374,0.243 3.605,0.664 l 0.272,-3.038 z m -21.074,15.273 4.026,0 0,-5.681 c 0,-2.228 0,-6.314 3.276,-6.314 0.721,0 1.443,0.118 1.804,0.33 l 0,-4.055 c -0.421,-0.12 -0.842,-0.12 -1.232,-0.12 -2.405,0 -4.057,2.431 -4.237,3.874 l -0.061,0 0,-3.513 -3.576,0 0,15.479 z m -4.392,-4.146 c -1.501,0.842 -3.184,1.563 -5.14,1.563 -2.497,0 -4.241,-1.414 -4.421,-3.911 l 10.703,0 c 0,-5.412 -1.623,-9.346 -7.364,-9.346 -4.811,0 -7.185,3.694 -7.185,8.175 0,5.082 2.975,8.026 8.087,8.026 2.167,0 3.848,-0.421 5.32,-1.231 l 0,-3.276 z M 165.551,27.4 c 0.18,-2.076 1.323,-3.642 3.579,-3.642 2.256,0 3.158,1.686 3.279,3.642 l -6.858,0 z m -10.909,9.257 3.905,0 0,-22.546 -4.026,0 0,8.871 -0.06,0 c -1.202,-1.475 -2.617,-2.165 -4.633,-2.165 -4.75,0 -6.491,3.785 -6.491,8.055 0,4.24 1.741,8.146 6.491,8.146 1.896,0 3.551,-0.602 4.753,-2.102 l 0.061,0 0,1.741 z m -7.099,-7.785 c 0,-2.076 0.722,-4.931 3.339,-4.931 2.586,0 3.608,2.766 3.608,4.931 0,2.196 -0.871,5.022 -3.548,5.022 -2.648,0 -3.399,-2.886 -3.399,-5.022 m -7.516,3.639 c -1.503,0.842 -3.184,1.563 -5.14,1.563 -2.497,0 -4.24,-1.414 -4.421,-3.911 l 10.703,0 c 0,-5.412 -1.623,-9.346 -7.364,-9.346 -4.811,0 -7.184,3.694 -7.184,8.175 0,5.082 2.972,8.026 8.086,8.026 2.165,0 3.848,-0.421 5.32,-1.231 l 0,-3.276 z M 130.466,27.4 c 0.181,-2.076 1.323,-3.642 3.579,-3.642 2.257,0 3.159,1.686 3.279,3.642 l -6.858,0 z m -11.121,-9.054 4.026,0 0,-3.845 -4.026,0 0,3.845 z m 0,18.311 4.026,0 0,-15.479 -4.026,0 0,15.479 z m -21.647,0 4.026,0 0,-15.691 0.06,0 8.029,15.691 5.14,0 0,-20.983 -4.026,0 0,15.692 -0.06,0 -8.001,-15.692 -5.168,0 0,20.983 z"
       id="path3487"
       inkscape:connector-curvature="0"
       transform="matrix(1.2569784,0,0,1.60737,-25.195193,-22.483622)" /></g></svg>