<?xml version="1.0" encoding="utf-8"?>
<!-- Generator: Adobe Illustrator 22.0.0, SVG Export Plug-In . SVG Version: 6.00 Build 0)  -->
<svg version="1.1" id="Layer_1" xmlns="http://www.w3.org/2000/svg" xmlns:xlink="http://www.w3.org/1999/xlink" x="0px" y="0px"
	 viewBox="0 0 32 32" style="enable-background:new 0 0 32 32;" xml:space="preserve">
<path id="a_1_" d="M29.3,30.7c0.4,0,0.6,0.3,0.6,0.7c0,0.3-0.3,0.6-0.6,0.6c-1.1,0-2-0.6-2.7-1.4C26.1,31.4,25.1,32,24,32
	s-2-0.6-2.7-1.4c-0.6,0.8-1.6,1.4-2.7,1.4c-1.1,0-2-0.6-2.7-1.4c-0.6,0.8-1.6,1.4-2.7,1.4c-1.1,0-2-0.6-2.7-1.4
	C10.1,31.4,9.1,32,8,32s-2-0.6-2.7-1.4C4.7,31.4,3.7,32,2.7,32C2.3,32,2,31.7,2,31.3c0-0.3,0.3-0.6,0.6-0.6c0.9,0,2-0.9,2-2
	C4.7,28.3,5,28,5.4,28C5.7,28,6,28.3,6,28.7c0,1.1,1.1,2,2,2c0.9,0,2-0.9,2-2c0-0.4,0.3-0.7,0.7-0.6c0.3,0,0.6,0.3,0.6,0.6
	c0,1.1,1.1,2,2,2c0.9,0,2-0.9,2-2c0-0.4,0.3-0.7,0.7-0.7s0.7,0.3,0.7,0.7l0,0c0,1.1,1.1,2,2,2c0.9,0,2-0.9,2-2
	c0-0.4,0.3-0.7,0.7-0.6c0.3,0,0.6,0.3,0.6,0.6c0,1.1,1.1,2,2,2c0.9,0,2-0.9,2-2c0-0.4,0.3-0.7,0.7-0.6c0.3,0,0.6,0.3,0.6,0.6
	C27.3,29.8,28.4,30.7,29.3,30.7z M2.7,26.7C2.3,26.7,2,26.3,2,26c0-0.3,0.3-0.6,0.6-0.6c0.9,0,2-0.9,2-2c0-0.4,0.3-0.7,0.7-0.6
	C5.7,22.7,6,23,6,23.3c0,1.1,1.1,2,2,2c0.9,0,2-0.9,2-2c0-0.4,0.3-0.7,0.7-0.6c0.3,0,0.6,0.3,0.6,0.6c0,1.1,1.1,2,2,2
	c0.9,0,2-0.9,2-2c0-0.4,0.3-0.7,0.7-0.7c0.4,0,0.7,0.3,0.7,0.7c0,1.1,1.1,2,2,2c0.9,0,2-0.9,2-2c0-0.4,0.3-0.7,0.7-0.6
	c0.3,0,0.6,0.3,0.6,0.6c0,1.1,1.1,2,2,2c0.9,0,2-0.9,2-2c0-0.4,0.3-0.7,0.7-0.6c0.3,0,0.6,0.3,0.6,0.6c0,1.1,1.1,2,2,2
	c0.4,0,0.6,0.3,0.6,0.7c0,0.3-0.3,0.6-0.6,0.6c-1.1,0-2-0.6-2.7-1.4c-0.6,0.8-1.6,1.4-2.7,1.4s-2-0.6-2.7-1.4
	c-0.6,0.8-1.6,1.4-2.7,1.4c-1.1,0-2-0.6-2.7-1.4c-0.6,0.8-1.6,1.4-2.7,1.4c-1.1,0-2-0.6-2.7-1.4c-0.6,0.8-1.6,1.4-2.7,1.4
	s-2-0.6-2.7-1.4C4.7,26.1,3.7,26.7,2.7,26.7z M6.7,21.3C4.8,20.5,4,18.4,4,16.7C4,16.3,4.3,16,4.7,16H14V0.7C14,0.3,14.3,0,14.7,0
	s0.7,0.3,0.7,0.7v0.4l9,10.9h1c0.4,0,0.7,0.3,0.6,0.7c0,0.3-0.3,0.6-0.6,0.6h-10V16H26c0.4,0,0.7,0.3,0.7,0.7c0,1.7-0.8,3.8-2.4,4.6
	c-0.1,0-0.2,0.1-0.3,0.1H6.9C6.8,21.3,6.7,21.3,6.7,21.3z"/>
</svg>
