<?xml version="1.0" encoding="utf-8"?>
<svg version="1.1" id="Ebene_1" xmlns="http://www.w3.org/2000/svg" xmlns:xlink="http://www.w3.org/1999/xlink" x="0px" y="0px"
	 viewBox="0 0 400 100" style="enable-background:new 0 0 400 100;" xml:space="preserve">
<style type="text/css">
	.st0{fill:url(#SVGID_1_);}
	.st1{fill:url(#SVGID_2_);}
	.st2{fill:url(#SVGID_3_);}
	.st3{fill:url(#SVGID_4_);}
	.st4{fill:#01383A;}
	.st5{enable-background:new    ;}
	.st6{fill:#1D4B7B;}
	.st7{fill:#203564;}
</style>
<g id="Logo_x5F_1_3">
	
		<linearGradient id="SVGID_1_" gradientUnits="userSpaceOnUse" x1="0.5452" y1="1008.206" x2="46.3019" y2="1008.206" gradientTransform="matrix(1 0 0 1 0 -978)">
		<stop  offset="0" style="stop-color:#349980"/>
		<stop  offset="1" style="stop-color:#45A965"/>
	</linearGradient>
	<path class="st0" d="M38.203,0.291c-4.483,0-8.104,3.621-8.104,8.104v28.104c0,3.707-3.017,6.724-6.724,6.724
		s-6.724-3.017-6.724-6.724V8.395c0-4.483-3.621-8.104-8.104-8.104S0.443,3.912,0.443,8.395v29.57c0,0.259,0.086,0.517,0.086,0.776
		c0.776,11.897,10.69,21.38,22.846,21.38c12.673,0,22.932-10.259,22.932-22.846V8.567C46.306,3.912,42.685,0.291,38.203,0.291z"/>
	
		<linearGradient id="SVGID_2_" gradientUnits="userSpaceOnUse" x1="97.947" y1="1008.076" x2="144.3071" y2="1008.076" gradientTransform="matrix(1 0 0 1 0 -978)">
		<stop  offset="0" style="stop-color:#349980"/>
		<stop  offset="1" style="stop-color:#45A965"/>
	</linearGradient>
	<path class="st1" d="M121.654,0.119h-0.517V0.032h-14.483c-4.828,0-8.707,3.879-8.707,8.707v42.932
		c0,4.655,3.793,8.449,8.449,8.449s8.449-3.793,8.449-8.449V45.55h6.897c12.5,0,22.673-10.173,22.673-22.673
		C144.327,10.291,134.154,0.119,121.654,0.119z M123.119,28.74h-8.362V17.016h8.362c3.276,0,5.862,2.673,5.862,5.862
		C128.981,26.068,126.395,28.74,123.119,28.74z"/>
	
		<linearGradient id="SVGID_3_" gradientUnits="userSpaceOnUse" x1="46.3027" y1="1008.0765" x2="80.4889" y2="1008.0765" gradientTransform="matrix(1 0 0 1 0 -978)">
		<stop  offset="0" style="stop-color:#75B843"/>
		<stop  offset="1" style="stop-color:#95C11F"/>
	</linearGradient>
	<path class="st2" d="M75.273,59.431c-4.31,1.724-9.224-0.345-10.949-4.655L46.91,11.671c-1.724-4.31,0.345-9.224,4.655-10.949
		c4.31-1.724,9.224,0.345,10.949,4.655l17.414,43.105C81.566,52.793,79.497,57.707,75.273,59.431L75.273,59.431z"/>
	
		<linearGradient id="SVGID_4_" gradientUnits="userSpaceOnUse" x1="63.6827" y1="1008.1195" x2="97.9153" y2="1008.1195" gradientTransform="matrix(1 0 0 1 0 -978)">
		<stop  offset="0" style="stop-color:#75B843"/>
		<stop  offset="1" style="stop-color:#95C11F"/>
	</linearGradient>
	<path class="st3" d="M92.601,0.808c-4.31-1.724-9.224,0.345-10.949,4.655L64.238,48.482c-1.724,4.31,0.345,9.224,4.655,10.949
		c4.31,1.724,9.224-0.345,10.949-4.655l17.414-43.019C98.98,7.446,96.911,2.532,92.601,0.808L92.601,0.808z"/>
	<path class="st4" d="M72.169,60.034c-6.035,0-10.087-6.121-7.759-11.638c1.724-4.138,7.759-19.139,7.759-19.139
		s5.69,13.966,7.759,19.139C82.256,54.603,77.514,60.034,72.169,60.034z M23.461,60.034c-4.655,0-8.449-3.793-8.449-8.449
		s3.793-8.449,8.449-8.449s8.449,3.793,8.449,8.449C31.909,56.241,28.116,60.034,23.461,60.034z M114.757,28.74
		c-4.655,0-8.449,3.793-8.449,8.449s3.793,8.449,8.449,8.449V28.74z"/>
	<g class="st5">
		<path class="st6" d="M175.362,17.447l-3.19,0.517l7.845,22.759l0.776,2.759h0.172l0.776-2.759l7.845-22.759l-3.19-0.517V14.43
			h11.035v3.017l-2.845,0.345l-11.725,31.639h-4.052l-11.725-31.553l-2.759-0.345v-3.017h11.035L175.362,17.447L175.362,17.447z
			 M209.484,49.862c-3.621,0-6.466-1.207-8.621-3.621c-2.155-2.414-3.19-5.517-3.19-9.397v-1.035c0-3.707,1.121-6.811,3.276-9.224
			c2.241-2.5,4.828-3.707,7.845-3.707c3.535,0,6.121,1.035,7.931,3.19s2.673,4.914,2.673,8.449v2.931h-16.811l-0.086,0.086
			c0.086,2.5,0.69,4.569,1.897,6.207s2.931,2.414,5.086,2.414c1.638,0,3.017-0.259,4.224-0.69s2.241-1.121,3.104-1.897l1.81,3.104
			c-0.948,0.862-2.155,1.638-3.707,2.241C213.364,49.517,211.639,49.862,209.484,49.862L209.484,49.862z M208.794,26.585
			c-1.552,0-2.931,0.69-4.052,1.983c-1.121,1.379-1.81,3.017-2.069,5l0.086,0.086h11.897v-0.603c0-1.897-0.517-3.448-1.466-4.655
			C212.243,27.275,210.777,26.585,208.794,26.585L208.794,26.585z M224.14,26.413v-3.017h8.19l0.431,3.793
			c0.776-1.293,1.638-2.414,2.759-3.104c1.121-0.776,2.328-1.121,3.707-1.121c0.345,0,0.776,0,1.121,0.086
			c0.431,0.086,0.69,0.086,0.862,0.172l-0.603,4.397l-2.673-0.172c-1.293,0-2.328,0.259-3.19,0.862
			c-0.862,0.603-1.466,1.379-1.983,2.5v14.914l3.879,0.69v3.017h-12.5v-3.017l3.879-0.69V27.102L224.14,26.413z M268.279,37.361
			c0,3.793-0.862,6.811-2.673,9.052c-1.81,2.328-4.31,3.448-7.414,3.448c-1.724,0-3.19-0.345-4.397-0.948
			c-1.293-0.69-2.328-1.638-3.104-2.845l-0.431,3.362h-4.052V15.55l-3.879-0.69v-3.017h8.621v14.569
			c0.776-1.121,1.81-2.069,3.017-2.673c1.207-0.603,2.586-0.948,4.224-0.948c3.19,0,5.69,1.293,7.5,3.879s2.673,5.948,2.673,10.087
			v0.603L268.279,37.361z M263.538,36.844c0-3.017-0.517-5.431-1.638-7.328s-2.759-2.845-5-2.845c-1.466,0-2.673,0.345-3.707,1.035
			c-1.035,0.69-1.81,1.638-2.414,2.845v11.466c0.603,1.207,1.379,2.155,2.414,2.845s2.241,1.035,3.707,1.035
			c2.241,0,3.879-0.776,5-2.414s1.638-3.707,1.638-6.293C263.538,37.189,263.538,36.844,263.538,36.844z M291.642,45.551
			c-0.776,1.379-1.897,2.5-3.19,3.19c-1.293,0.776-2.759,1.121-4.483,1.121c-2.845,0-5-0.948-6.638-2.759
			c-1.552-1.81-2.414-4.655-2.414-8.449V27.016l-3.017-0.69v-3.017h7.759v15.432c0,2.759,0.431,4.655,1.207,5.69
			s2.069,1.552,3.793,1.552s3.104-0.345,4.138-1.035c1.121-0.69,1.897-1.638,2.5-2.931v-15l-3.448-0.69V23.31h8.19v22.328
			l3.017,0.69v3.017h-7.242L291.642,45.551L291.642,45.551z M302.246,46.327l3.879-0.69V27.016l-3.879-0.69v-3.017h8.19l0.345,3.879
			c0.862-1.379,1.983-2.414,3.276-3.19c1.293-0.776,2.759-1.121,4.483-1.121c2.845,0,5,0.862,6.552,2.5s2.328,4.224,2.328,7.586
			v12.759l3.879,0.69v3.017h-12.587v-3.017l3.879-0.69V33.051c0-2.328-0.431-3.879-1.379-4.914
			c-0.948-0.948-2.328-1.466-4.138-1.466c-1.379,0-2.586,0.345-3.621,0.948c-1.035,0.69-1.897,1.552-2.5,2.673v15.259l3.879,0.69
			v3.017h-12.587v-2.931H302.246z M351.903,46.327c-0.862,1.207-1.897,2.069-3.104,2.673s-2.673,0.948-4.31,0.948
			c-3.19,0-5.69-1.121-7.414-3.448c-1.81-2.328-2.672-5.345-2.672-9.052V36.93c0-4.224,0.862-7.586,2.672-10.087
			c1.81-2.586,4.311-3.879,7.5-3.879c1.552,0,2.931,0.259,4.052,0.862c1.207,0.603,2.155,1.379,3.017,2.5V15.55l-3.879-0.69v-3.017
			h8.621v33.794l3.879,0.69v3.017h-8.017L351.903,46.327L351.903,46.327z M339.144,37.361c0,2.586,0.517,4.742,1.638,6.293
			c1.035,1.552,2.759,2.414,5,2.414c1.379,0,2.586-0.345,3.535-0.948c0.948-0.603,1.724-1.552,2.414-2.759V30.292
			c-0.603-1.121-1.379-1.983-2.414-2.586c-0.948-0.603-2.155-0.948-3.535-0.948c-2.241,0-3.966,0.948-5,2.845
			c-1.121,1.897-1.638,4.31-1.638,7.328V37.361L339.144,37.361z"/>
	</g>
</g>
<g>
	<path class="st7" d="M175.996,63.83v7.251c-0.005,1.006-0.321,1.829-0.948,2.468c-0.628,0.641-1.479,0.999-2.553,1.077
		l-0.374,0.015c-1.167,0-2.097-0.314-2.791-0.945c-0.693-0.629-1.045-1.496-1.055-2.6V63.83h1.392v7.222
		c0,0.771,0.212,1.371,0.637,1.798c0.425,0.428,1.03,0.641,1.816,0.641c0.796,0,1.405-0.212,1.828-0.637
		c0.422-0.425,0.633-1.022,0.633-1.795V63.83H175.996z"/>
	<path class="st7" d="M179.277,66.569l0.037,0.879c0.581-0.684,1.365-1.025,2.351-1.025c1.108,0,1.863,0.425,2.263,1.274
		c0.264-0.381,0.606-0.688,1.029-0.923s0.922-0.352,1.498-0.352c1.738,0,2.622,0.921,2.651,2.761v5.311h-1.355v-5.229
		c0-0.566-0.129-0.99-0.388-1.271c-0.259-0.281-0.693-0.422-1.304-0.422c-0.503,0-0.92,0.15-1.252,0.451
		c-0.332,0.3-0.525,0.704-0.579,1.212v5.259h-1.362v-5.193c0-1.151-0.564-1.729-1.692-1.729c-0.889,0-1.497,0.379-1.824,1.136v5.786
		h-1.355v-7.925H179.277z"/>
	<path class="st7" d="M198.167,72.627l1.523-6.058h1.355l-2.307,7.925h-1.099l-1.926-6.006l-1.875,6.006h-1.099l-2.3-7.925h1.348
		l1.56,5.933l1.846-5.933h1.091L198.167,72.627z"/>
	<path class="st7" d="M205.711,74.641c-1.075,0-1.949-0.353-2.623-1.059c-0.674-0.705-1.01-1.648-1.01-2.83v-0.25
		c0-0.785,0.149-1.487,0.45-2.105c0.3-0.617,0.72-1.101,1.26-1.45c0.539-0.349,1.124-0.523,1.754-0.523
		c1.03,0,1.831,0.34,2.402,1.019s0.856,1.65,0.856,2.914v0.564h-5.368c0.02,0.781,0.248,1.412,0.685,1.894
		c0.438,0.48,0.992,0.722,1.666,0.722c0.479,0,0.884-0.098,1.217-0.293c0.331-0.195,0.622-0.455,0.871-0.777l0.828,0.645
		C208.034,74.131,207.038,74.641,205.711,74.641z M205.542,67.536c-0.547,0-1.006,0.199-1.377,0.597
		c-0.371,0.398-0.601,0.956-0.688,1.674h3.97v-0.103c-0.039-0.688-0.225-1.222-0.557-1.601
		C206.558,67.726,206.108,67.536,205.542,67.536z"/>
	<path class="st7" d="M211.842,74.494h-1.355v-11.25h1.355V74.494z"/>
	<path class="st7" d="M215.847,64.65v1.919h1.48v1.048h-1.48v4.92c0,0.318,0.066,0.557,0.198,0.716
		c0.132,0.158,0.356,0.237,0.674,0.237c0.156,0,0.371-0.029,0.645-0.088v1.093c-0.356,0.097-0.703,0.146-1.04,0.146
		c-0.605,0-1.063-0.184-1.369-0.549c-0.309-0.367-0.462-0.887-0.462-1.561v-4.914h-1.442v-1.048h1.442V64.65H215.847z"/>
	<path class="st7" d="M221.523,72.656l1.963-6.087h1.384l-2.842,7.925h-1.032l-2.871-7.925h1.384L221.523,72.656z"/>
	<path class="st7" d="M229.368,74.641c-1.075,0-1.949-0.353-2.623-1.059c-0.674-0.705-1.01-1.648-1.01-2.83v-0.25
		c0-0.785,0.149-1.487,0.45-2.105c0.3-0.617,0.72-1.101,1.26-1.45c0.539-0.349,1.124-0.523,1.754-0.523
		c1.03,0,1.831,0.34,2.402,1.019s0.856,1.65,0.856,2.914v0.564h-5.368c0.02,0.781,0.248,1.412,0.685,1.894
		c0.438,0.48,0.992,0.722,1.666,0.722c0.479,0,0.884-0.098,1.217-0.293c0.331-0.195,0.622-0.455,0.871-0.777l0.828,0.645
		C231.691,74.131,230.695,74.641,229.368,74.641z M229.199,67.536c-0.547,0-1.006,0.199-1.377,0.597
		c-0.371,0.398-0.601,0.956-0.688,1.674h3.97v-0.103c-0.039-0.688-0.225-1.222-0.557-1.601
		C230.215,67.726,229.766,67.536,229.199,67.536z"/>
	<path class="st7" d="M237.855,67.785c-0.205-0.034-0.427-0.051-0.666-0.051c-0.889,0-1.492,0.378-1.809,1.135v5.625h-1.355v-7.925
		h1.318l0.021,0.915c0.444-0.707,1.074-1.062,1.891-1.062c0.264,0,0.463,0.034,0.6,0.103V67.785z"/>
	<path class="st7" d="M241.306,64.65v1.919h1.48v1.048h-1.48v4.92c0,0.318,0.066,0.557,0.198,0.716
		c0.132,0.158,0.356,0.237,0.674,0.237c0.156,0,0.371-0.029,0.645-0.088v1.093c-0.356,0.097-0.703,0.146-1.04,0.146
		c-0.605,0-1.063-0.184-1.369-0.549c-0.309-0.367-0.462-0.887-0.462-1.561v-4.914h-1.442v-1.048h1.442V64.65H241.306z"/>
	<path class="st7" d="M248.197,67.785c-0.205-0.034-0.427-0.051-0.666-0.051c-0.889,0-1.492,0.378-1.809,1.135v5.625h-1.355v-7.925
		h1.318l0.021,0.915c0.444-0.707,1.074-1.062,1.891-1.062c0.264,0,0.463,0.034,0.6,0.103V67.785z"/>
	<path class="st7" d="M254.043,74.494c-0.078-0.156-0.142-0.435-0.19-0.835c-0.63,0.654-1.382,0.981-2.256,0.981
		c-0.781,0-1.422-0.221-1.923-0.663c-0.5-0.441-0.75-1.002-0.75-1.681c0-0.825,0.313-1.466,0.94-1.923
		c0.628-0.456,1.51-0.685,2.647-0.685h1.318v-0.623c0-0.473-0.142-0.851-0.424-1.131c-0.284-0.281-0.701-0.422-1.253-0.422
		c-0.483,0-0.889,0.123-1.216,0.367s-0.49,0.539-0.49,0.886h-1.363c0-0.396,0.141-0.777,0.422-1.146
		c0.28-0.368,0.661-0.66,1.143-0.875c0.48-0.215,1.009-0.322,1.586-0.322c0.912,0,1.628,0.229,2.146,0.685
		c0.518,0.457,0.786,1.086,0.806,1.887v3.646c0,0.729,0.093,1.307,0.278,1.736v0.117H254.043z M250.021,64.449
		c0-0.221,0.067-0.406,0.202-0.556c0.134-0.149,0.333-0.225,0.597-0.225s0.464,0.075,0.601,0.225s0.205,0.335,0.205,0.556
		s-0.068,0.404-0.205,0.552s-0.337,0.221-0.601,0.221s-0.463-0.073-0.597-0.221C250.089,64.854,250.021,64.67,250.021,64.449z
		 M251.795,73.461c0.424,0,0.827-0.109,1.208-0.329s0.656-0.505,0.827-0.856v-1.627h-1.062c-1.66,0-2.49,0.486-2.49,1.458
		c0,0.425,0.142,0.757,0.425,0.996S251.35,73.461,251.795,73.461z M253.172,64.464c0-0.221,0.066-0.407,0.201-0.56
		c0.134-0.152,0.333-0.229,0.597-0.229s0.464,0.076,0.601,0.229s0.205,0.339,0.205,0.56s-0.068,0.404-0.205,0.552
		s-0.337,0.221-0.601,0.221s-0.463-0.073-0.597-0.221C253.238,64.868,253.172,64.685,253.172,64.464z"/>
	<path class="st7" d="M256.987,70.466c0-1.235,0.285-2.218,0.857-2.948c0.57-0.729,1.327-1.095,2.27-1.095
		c0.967,0,1.722,0.342,2.264,1.025l0.066-0.879h1.237v7.734c0,1.025-0.304,1.833-0.912,2.425c-0.607,0.59-1.425,0.886-2.45,0.886
		c-0.57,0-1.13-0.122-1.677-0.366s-0.965-0.578-1.253-1.004l0.703-0.813c0.581,0.718,1.292,1.076,2.132,1.076
		c0.659,0,1.173-0.186,1.542-0.557c0.368-0.371,0.553-0.893,0.553-1.566v-0.682c-0.542,0.625-1.281,0.938-2.219,0.938
		c-0.929,0-1.679-0.373-2.253-1.121C257.274,72.773,256.987,71.755,256.987,70.466z M258.35,70.619c0,0.895,0.183,1.596,0.55,2.106
		c0.365,0.51,0.879,0.765,1.537,0.765c0.854,0,1.482-0.388,1.883-1.164v-3.618c-0.415-0.757-1.038-1.136-1.867-1.136
		c-0.66,0-1.175,0.257-1.546,0.77S258.35,69.614,258.35,70.619z"/>
	<path class="st7" d="M267.197,74.494h-1.355v-11.25h1.355V74.494z"/>
	<path class="st7" d="M269.373,64.467c0-0.219,0.066-0.404,0.201-0.557c0.134-0.15,0.333-0.227,0.597-0.227s0.464,0.076,0.601,0.227
		c0.137,0.152,0.205,0.338,0.205,0.557c0,0.221-0.068,0.403-0.205,0.55s-0.337,0.22-0.601,0.22s-0.463-0.073-0.597-0.22
		C269.439,64.87,269.373,64.688,269.373,64.467z M270.838,74.494h-1.355v-7.925h1.355V74.494z"/>
	<path class="st7" d="M276.185,73.535c0.483,0,0.905-0.146,1.267-0.439s0.562-0.66,0.602-1.1h1.281
		c-0.024,0.455-0.181,0.887-0.469,1.297s-0.673,0.737-1.153,0.981c-0.481,0.244-0.99,0.366-1.527,0.366
		c-1.079,0-1.938-0.36-2.574-1.08c-0.638-0.721-0.956-1.705-0.956-2.955v-0.228c0-0.771,0.142-1.458,0.425-2.058
		c0.283-0.602,0.689-1.067,1.22-1.399c0.529-0.332,1.155-0.498,1.879-0.498c0.888,0,1.627,0.267,2.215,0.798
		c0.589,0.533,0.902,1.224,0.941,2.073h-1.281c-0.04-0.513-0.233-0.934-0.583-1.264c-0.349-0.329-0.78-0.494-1.292-0.494
		c-0.689,0-1.223,0.248-1.601,0.743c-0.379,0.496-0.567,1.213-0.567,2.15v0.256c0,0.913,0.188,1.616,0.563,2.109
		S275.486,73.535,276.185,73.535z"/>
	<path class="st7" d="M282.213,67.529c0.6-0.737,1.381-1.106,2.344-1.106c1.674,0,2.52,0.944,2.533,2.835v5.236h-1.354V69.25
		c-0.005-0.571-0.136-0.993-0.392-1.268c-0.257-0.272-0.656-0.41-1.197-0.41c-0.439,0-0.826,0.117-1.158,0.352
		s-0.591,0.543-0.775,0.924v5.646h-1.355v-11.25h1.355V67.529z"/>
	<path class="st7" d="M291.331,70.824l-0.85,0.887v2.783h-1.354v-11.25h1.354v6.805l0.726-0.872l2.468-2.607h1.647l-3.083,3.311
		l3.442,4.614h-1.59L291.331,70.824z"/>
	<path class="st7" d="M299.863,74.641c-1.075,0-1.949-0.353-2.623-1.059c-0.674-0.705-1.01-1.648-1.01-2.83v-0.25
		c0-0.785,0.149-1.487,0.45-2.105c0.3-0.617,0.72-1.101,1.26-1.45c0.539-0.349,1.124-0.523,1.754-0.523
		c1.03,0,1.831,0.34,2.402,1.019s0.856,1.65,0.856,2.914v0.564h-5.368c0.02,0.781,0.248,1.412,0.685,1.894
		c0.438,0.48,0.992,0.722,1.666,0.722c0.479,0,0.884-0.098,1.217-0.293c0.331-0.195,0.622-0.455,0.871-0.777l0.828,0.645
		C302.187,74.131,301.19,74.641,299.863,74.641z M299.694,67.536c-0.547,0-1.006,0.199-1.377,0.597
		c-0.371,0.398-0.601,0.956-0.688,1.674h3.97v-0.103c-0.039-0.688-0.225-1.222-0.557-1.601
		C300.71,67.726,300.261,67.536,299.694,67.536z"/>
	<path class="st7" d="M304.529,64.467c0-0.219,0.066-0.404,0.201-0.557c0.134-0.15,0.333-0.227,0.597-0.227s0.464,0.076,0.601,0.227
		c0.137,0.152,0.205,0.338,0.205,0.557c0,0.221-0.068,0.403-0.205,0.55s-0.337,0.22-0.601,0.22s-0.463-0.073-0.597-0.22
		C304.596,64.87,304.529,64.688,304.529,64.467z M305.994,74.494h-1.355v-7.925h1.355V74.494z"/>
	<path class="st7" d="M310,64.65v1.919h1.48v1.048H310v4.92c0,0.318,0.066,0.557,0.198,0.716c0.132,0.158,0.356,0.237,0.674,0.237
		c0.156,0,0.371-0.029,0.645-0.088v1.093c-0.356,0.097-0.703,0.146-1.04,0.146c-0.605,0-1.063-0.184-1.369-0.549
		c-0.309-0.367-0.462-0.887-0.462-1.561v-4.914h-1.442v-1.048h1.442V64.65H310z"/>
	<path class="st7" d="M317.676,72.393c0-0.367-0.138-0.651-0.414-0.854c-0.275-0.203-0.757-0.377-1.442-0.523
		c-0.687-0.146-1.23-0.322-1.634-0.527c-0.402-0.205-0.7-0.449-0.894-0.732c-0.192-0.283-0.289-0.62-0.289-1.012
		c0-0.648,0.274-1.198,0.824-1.647c0.549-0.449,1.251-0.674,2.105-0.674c0.898,0,1.627,0.232,2.187,0.696
		c0.559,0.464,0.839,1.057,0.839,1.779h-1.363c0-0.371-0.157-0.69-0.472-0.959c-0.315-0.269-0.712-0.403-1.19-0.403
		c-0.493,0-0.879,0.107-1.157,0.322s-0.417,0.496-0.417,0.843c0,0.327,0.129,0.573,0.388,0.739s0.727,0.325,1.402,0.476
		c0.677,0.152,1.225,0.333,1.645,0.543s0.731,0.462,0.934,0.758c0.203,0.295,0.304,0.655,0.304,1.08c0,0.708-0.283,1.275-0.85,1.703
		c-0.566,0.427-1.301,0.641-2.204,0.641c-0.635,0-1.196-0.112-1.685-0.337s-0.87-0.538-1.146-0.941
		c-0.275-0.402-0.414-0.839-0.414-1.308h1.355c0.024,0.455,0.206,0.814,0.546,1.081c0.339,0.266,0.787,0.399,1.344,0.399
		c0.513,0,0.924-0.104,1.234-0.312C317.521,73.016,317.676,72.739,317.676,72.393z"/>
	<path class="st7" d="M327.49,70.619c0,1.207-0.276,2.179-0.827,2.916c-0.553,0.737-1.3,1.105-2.242,1.105
		c-0.962,0-1.719-0.305-2.27-0.916v3.816h-1.355V66.569h1.238l0.065,0.879c0.552-0.684,1.318-1.025,2.3-1.025
		c0.952,0,1.705,0.358,2.26,1.077c0.554,0.717,0.831,1.716,0.831,2.995V70.619z M326.136,70.466c0-0.894-0.191-1.599-0.572-2.116
		s-0.903-0.777-1.566-0.777c-0.82,0-1.436,0.364-1.846,1.092v3.787c0.404,0.723,1.025,1.084,1.859,1.084
		c0.649,0,1.166-0.258,1.55-0.773C325.943,72.247,326.136,71.481,326.136,70.466z"/>
	<path class="st7" d="M333.041,67.785c-0.205-0.034-0.427-0.051-0.666-0.051c-0.889,0-1.492,0.378-1.809,1.135v5.625h-1.355v-7.925
		h1.318l0.021,0.915c0.444-0.707,1.074-1.062,1.891-1.062c0.264,0,0.463,0.034,0.6,0.103V67.785z"/>
	<path class="st7" d="M339.18,73.711c-0.527,0.62-1.302,0.93-2.322,0.93c-0.845,0-1.487-0.245-1.93-0.736
		c-0.441-0.49-0.665-1.217-0.67-2.179v-5.156h1.355v5.12c0,1.201,0.487,1.801,1.465,1.801c1.034,0,1.723-0.385,2.064-1.156v-5.765
		h1.355v7.925h-1.289L339.18,73.711z M335.057,64.449c0-0.221,0.066-0.406,0.201-0.556c0.134-0.149,0.333-0.225,0.597-0.225
		s0.464,0.075,0.601,0.225s0.205,0.335,0.205,0.556s-0.068,0.404-0.205,0.552s-0.337,0.221-0.601,0.221s-0.463-0.073-0.597-0.221
		C335.123,64.854,335.057,64.67,335.057,64.449z M338.205,64.464c0-0.221,0.067-0.407,0.202-0.56
		c0.134-0.152,0.333-0.229,0.597-0.229s0.464,0.076,0.601,0.229s0.205,0.339,0.205,0.56s-0.068,0.404-0.205,0.552
		s-0.337,0.221-0.601,0.221s-0.463-0.073-0.597-0.221C338.272,64.868,338.205,64.685,338.205,64.464z"/>
	<path class="st7" d="M343.223,74.494v-6.877h-1.252v-1.048h1.252v-0.813c0-0.85,0.228-1.506,0.682-1.97S345,63.09,345.83,63.09
		c0.313,0,0.623,0.042,0.931,0.124l-0.073,1.093c-0.229-0.045-0.474-0.066-0.732-0.066c-0.439,0-0.779,0.129-1.018,0.386
		c-0.24,0.257-0.359,0.626-0.359,1.105v0.838h1.691v1.048h-1.691v6.877H343.223z"/>
	<path class="st7" d="M352.656,73.711c-0.527,0.62-1.302,0.93-2.322,0.93c-0.845,0-1.487-0.245-1.93-0.736
		c-0.441-0.49-0.665-1.217-0.67-2.179v-5.156h1.355v5.12c0,1.201,0.487,1.801,1.465,1.801c1.034,0,1.723-0.385,2.064-1.156v-5.765
		h1.355v7.925h-1.289L352.656,73.711z"/>
	<path class="st7" d="M357.314,66.569l0.045,0.996c0.604-0.762,1.396-1.143,2.373-1.143c1.674,0,2.52,0.944,2.533,2.835v5.236
		h-1.354V69.25c-0.005-0.571-0.136-0.993-0.392-1.268c-0.257-0.272-0.656-0.41-1.197-0.41c-0.439,0-0.826,0.117-1.158,0.352
		s-0.591,0.543-0.775,0.924v5.646h-1.355v-7.925H357.314z"/>
	<path class="st7" d="M363.986,70.466c0-1.235,0.285-2.218,0.857-2.948c0.57-0.729,1.327-1.095,2.27-1.095
		c0.967,0,1.722,0.342,2.264,1.025l0.066-0.879h1.237v7.734c0,1.025-0.304,1.833-0.912,2.425c-0.607,0.59-1.425,0.886-2.45,0.886
		c-0.57,0-1.13-0.122-1.677-0.366s-0.965-0.578-1.253-1.004l0.703-0.813c0.581,0.718,1.292,1.076,2.132,1.076
		c0.659,0,1.173-0.186,1.542-0.557c0.368-0.371,0.553-0.893,0.553-1.566v-0.682c-0.542,0.625-1.281,0.938-2.219,0.938
		c-0.929,0-1.679-0.373-2.253-1.121C364.273,72.773,363.986,71.755,363.986,70.466z M365.349,70.619c0,0.895,0.183,1.596,0.55,2.106
		c0.365,0.51,0.879,0.765,1.537,0.765c0.854,0,1.482-0.388,1.883-1.164v-3.618c-0.415-0.757-1.038-1.136-1.867-1.136
		c-0.66,0-1.175,0.257-1.546,0.77S365.349,69.614,365.349,70.619z"/>
	<path class="st7" d="M376.014,74.641c-1.075,0-1.949-0.353-2.623-1.059c-0.674-0.705-1.01-1.648-1.01-2.83v-0.25
		c0-0.785,0.149-1.487,0.45-2.105c0.3-0.617,0.72-1.101,1.26-1.45c0.539-0.349,1.124-0.523,1.754-0.523
		c1.03,0,1.831,0.34,2.402,1.019s0.856,1.65,0.856,2.914v0.564h-5.368c0.02,0.781,0.248,1.412,0.685,1.894
		c0.438,0.48,0.992,0.722,1.666,0.722c0.479,0,0.884-0.098,1.217-0.293c0.331-0.195,0.622-0.455,0.871-0.777l0.828,0.645
		C378.337,74.131,377.341,74.641,376.014,74.641z M375.845,67.536c-0.547,0-1.006,0.199-1.377,0.597
		c-0.371,0.398-0.601,0.956-0.688,1.674h3.97v-0.103c-0.039-0.688-0.225-1.222-0.557-1.601
		C376.86,67.726,376.411,67.536,375.845,67.536z"/>
	<path class="st7" d="M381.953,66.569l0.045,0.996c0.604-0.762,1.396-1.143,2.373-1.143c1.674,0,2.52,0.944,2.533,2.835v5.236
		h-1.354V69.25c-0.005-0.571-0.136-0.993-0.392-1.268c-0.257-0.272-0.656-0.41-1.197-0.41c-0.439,0-0.826,0.117-1.158,0.352
		s-0.591,0.543-0.775,0.924v5.646h-1.355v-7.925H381.953z"/>
	<path class="st7" d="M167.947,88.466c0-1.216,0.288-2.193,0.864-2.934c0.576-0.739,1.331-1.109,2.263-1.109
		c0.928,0,1.663,0.317,2.205,0.952v-4.131h1.355v11.25h-1.245l-0.066-0.85c-0.542,0.664-1.296,0.996-2.263,0.996
		c-0.918,0-1.666-0.376-2.245-1.128c-0.578-0.752-0.868-1.733-0.868-2.944V88.466z M169.302,88.619c0,0.899,0.186,1.603,0.557,2.109
		c0.371,0.509,0.884,0.762,1.538,0.762c0.859,0,1.487-0.385,1.882-1.156v-3.641c-0.405-0.747-1.028-1.121-1.868-1.121
		c-0.664,0-1.182,0.257-1.553,0.77S169.302,87.614,169.302,88.619z"/>
	<path class="st7" d="M180.024,92.641c-1.074,0-1.948-0.353-2.622-1.059c-0.674-0.705-1.011-1.648-1.011-2.83v-0.25
		c0-0.785,0.15-1.487,0.451-2.105c0.3-0.617,0.72-1.101,1.26-1.45c0.539-0.349,1.124-0.523,1.754-0.523
		c1.03,0,1.831,0.34,2.402,1.019s0.857,1.65,0.857,2.914v0.564h-5.369c0.02,0.781,0.248,1.412,0.685,1.894
		c0.437,0.48,0.993,0.722,1.667,0.722c0.479,0,0.884-0.098,1.216-0.293s0.623-0.455,0.872-0.777l0.828,0.645
		C182.349,92.131,181.353,92.641,180.024,92.641z M179.856,85.536c-0.547,0-1.006,0.199-1.377,0.597
		c-0.371,0.398-0.601,0.956-0.688,1.674h3.97v-0.103c-0.039-0.688-0.225-1.222-0.557-1.601
		C180.872,85.726,180.422,85.536,179.856,85.536z"/>
	<path class="st7" d="M188.513,85.785c-0.205-0.034-0.427-0.051-0.667-0.051c-0.889,0-1.492,0.378-1.809,1.135v5.625h-1.355v-7.925
		h1.318l0.022,0.915c0.444-0.707,1.074-1.062,1.89-1.062c0.264,0,0.464,0.034,0.601,0.103V85.785z"/>
	<path class="st7" d="M195.098,91.344h5.054v1.15h-6.467V81.83h1.414V91.344z"/>
	<path class="st7" d="M206.436,92.494c-0.078-0.156-0.142-0.435-0.19-0.835c-0.63,0.654-1.382,0.981-2.256,0.981
		c-0.781,0-1.422-0.221-1.923-0.663c-0.5-0.441-0.75-1.002-0.75-1.681c0-0.825,0.313-1.466,0.94-1.923
		c0.628-0.456,1.51-0.685,2.647-0.685h1.318v-0.623c0-0.473-0.142-0.851-0.424-1.131c-0.284-0.281-0.701-0.422-1.253-0.422
		c-0.483,0-0.889,0.123-1.216,0.367s-0.49,0.539-0.49,0.886h-1.363c0-0.396,0.141-0.777,0.422-1.146
		c0.28-0.368,0.661-0.66,1.143-0.875c0.48-0.215,1.009-0.322,1.586-0.322c0.912,0,1.628,0.229,2.146,0.685
		c0.518,0.457,0.786,1.086,0.806,1.887v3.646c0,0.729,0.093,1.307,0.278,1.736v0.117H206.436z M202.414,82.449
		c0-0.221,0.067-0.406,0.202-0.556c0.134-0.149,0.333-0.225,0.597-0.225s0.464,0.075,0.601,0.225s0.205,0.335,0.205,0.556
		s-0.068,0.404-0.205,0.552s-0.337,0.221-0.601,0.221s-0.463-0.073-0.597-0.221C202.481,82.854,202.414,82.67,202.414,82.449z
		 M204.188,91.461c0.424,0,0.827-0.109,1.208-0.329s0.656-0.505,0.827-0.856v-1.627h-1.062c-1.66,0-2.49,0.486-2.49,1.458
		c0,0.425,0.142,0.757,0.425,0.996S203.742,91.461,204.188,91.461z M205.564,82.464c0-0.221,0.066-0.407,0.201-0.56
		c0.134-0.152,0.333-0.229,0.597-0.229s0.464,0.076,0.601,0.229s0.205,0.339,0.205,0.56s-0.068,0.404-0.205,0.552
		s-0.337,0.221-0.601,0.221s-0.463-0.073-0.597-0.221C205.631,82.868,205.564,82.685,205.564,82.464z"/>
	<path class="st7" d="M210.983,84.569l0.045,0.996c0.604-0.762,1.396-1.143,2.373-1.143c1.674,0,2.52,0.944,2.533,2.835v5.236
		h-1.354V87.25c-0.005-0.571-0.136-0.993-0.392-1.268c-0.257-0.272-0.656-0.41-1.197-0.41c-0.439,0-0.826,0.117-1.158,0.352
		s-0.591,0.543-0.775,0.924v5.646h-1.355v-7.925H210.983z"/>
	<path class="st7" d="M217.648,88.466c0-1.216,0.288-2.193,0.865-2.934c0.575-0.739,1.33-1.109,2.263-1.109
		c0.928,0,1.663,0.317,2.204,0.952v-4.131h1.355v11.25h-1.245l-0.065-0.85c-0.543,0.664-1.297,0.996-2.264,0.996
		c-0.918,0-1.666-0.376-2.245-1.128c-0.578-0.752-0.868-1.733-0.868-2.944V88.466z M219.004,88.619c0,0.899,0.186,1.603,0.557,2.109
		c0.371,0.509,0.884,0.762,1.538,0.762c0.859,0,1.487-0.385,1.882-1.156v-3.641c-0.405-0.747-1.027-1.121-1.867-1.121
		c-0.664,0-1.182,0.257-1.553,0.77S219.004,87.614,219.004,88.619z"/>
	<path class="st7" d="M229.727,92.641c-1.075,0-1.949-0.353-2.623-1.059c-0.674-0.705-1.01-1.648-1.01-2.83v-0.25
		c0-0.785,0.149-1.487,0.45-2.105c0.3-0.617,0.72-1.101,1.26-1.45c0.539-0.349,1.124-0.523,1.754-0.523
		c1.03,0,1.831,0.34,2.402,1.019s0.856,1.65,0.856,2.914v0.564h-5.368c0.02,0.781,0.248,1.412,0.685,1.894
		c0.438,0.48,0.992,0.722,1.666,0.722c0.479,0,0.884-0.098,1.217-0.293c0.331-0.195,0.622-0.455,0.871-0.777l0.828,0.645
		C232.05,92.131,231.054,92.641,229.727,92.641z M229.558,85.536c-0.547,0-1.006,0.199-1.377,0.597
		c-0.371,0.398-0.601,0.956-0.688,1.674h3.97v-0.103c-0.039-0.688-0.225-1.222-0.557-1.601
		C230.573,85.726,230.124,85.536,229.558,85.536z"/>
	<path class="st7" d="M238.215,85.785c-0.205-0.034-0.427-0.051-0.666-0.051c-0.889,0-1.492,0.378-1.809,1.135v5.625h-1.355v-7.925
		h1.318l0.021,0.915c0.444-0.707,1.074-1.062,1.891-1.062c0.264,0,0.463,0.034,0.6,0.103V85.785z"/>
</g>
</svg>
