<?xml version="1.0" encoding="UTF-8"?>
<svg width="208px" height="40px" viewBox="0 0 208 40" version="1.1" xmlns="http://www.w3.org/2000/svg" xmlns:xlink="http://www.w3.org/1999/xlink">
    <!-- Generator: Sketch 57.1 (83088) - https://sketch.com -->
    <title>assets/images/numis/svg-raw/logos/logo-numis-mobile</title>
    <desc>Created with Sketch.</desc>
    <defs>
        <linearGradient x1="0.00102118969%" y1="50.0001384%" x2="100.000511%" y2="50.0001384%" id="linearGradient-1">
            <stop stop-color="#256394" offset="0%"></stop>
            <stop stop-color="#0089C6" offset="100%"></stop>
        </linearGradient>
        <linearGradient x1="50.0010212%" y1="99.3887696%" x2="50.0010212%" y2="33.6232085%" id="linearGradient-2">
            <stop stop-color="#256394" offset="0%"></stop>
            <stop stop-color="#0089C6" offset="100%"></stop>
        </linearGradient>
        <linearGradient x1="50.0005106%" y1="99.390146%" x2="50.0005106%" y2="30.4413272%" id="linearGradient-3">
            <stop stop-color="#256394" offset="0%"></stop>
            <stop stop-color="#0089C6" offset="100%"></stop>
        </linearGradient>
        <linearGradient x1="7.25598913e-14%" y1="49.9995845%" x2="100%" y2="49.9995845%" id="linearGradient-4">
            <stop stop-color="#256394" offset="0%"></stop>
            <stop stop-color="#0089C6" offset="100%"></stop>
        </linearGradient>
        <linearGradient x1="50.0005579%" y1="100.000633%" x2="50.0005579%" y2="0.000258846568%" id="linearGradient-5">
            <stop stop-color="#256394" offset="0%"></stop>
            <stop stop-color="#0089C6" offset="100%"></stop>
        </linearGradient>
        <linearGradient x1="20.4756685%" y1="48.7446279%" x2="79.5201926%" y2="51.2470137%" id="linearGradient-6">
            <stop stop-color="#256394" offset="0%"></stop>
            <stop stop-color="#0089C6" offset="100%"></stop>
        </linearGradient>
        <linearGradient x1="0.00102118969%" y1="49.9997225%" x2="100.001021%" y2="49.9997225%" id="linearGradient-7">
            <stop stop-color="#0484D8" offset="0%"></stop>
            <stop stop-color="#40B9EC" offset="100%"></stop>
        </linearGradient>
        <linearGradient x1="-0.00337442635%" y1="50.0008198%" x2="99.9903266%" y2="50.0008198%" id="linearGradient-8">
            <stop stop-color="#256394" offset="0%"></stop>
            <stop stop-color="#0089C6" offset="100%"></stop>
        </linearGradient>
        <linearGradient x1="-0.0018018018%" y1="49.9988955%" x2="99.998018%" y2="49.9988955%" id="linearGradient-9">
            <stop stop-color="#0484D8" offset="0%"></stop>
            <stop stop-color="#40B9EC" offset="100%"></stop>
        </linearGradient>
    </defs>
    <g id="assets/images/numis/svg-raw/logos/logo-numis-mobile" stroke="none" stroke-width="1" fill="none" fill-rule="evenodd">
        <g id="Logo_NUMIS_RGB" transform="translate(-0.168345, -0.515259)">
            <g id="NUMIS_x5F_Logo_1_">
                <path d="M5.9004167,40.4999567 L5.82214587,40.4999567 C2.88343183,40.4999567 0.501371215,38.117896 0.501371215,35.179182 L0.501371215,6.26111935 C0.501371215,3.32240532 2.88343183,0.940344702 5.82214587,0.940344702 L5.9004167,0.940344702 C8.83913073,0.940344702 11.2211914,3.40505494 11.2211914,6.26111935 L11.2211914,35.1786347 C11.2211914,38.1173487 8.83913073,40.4999567 5.9004167,40.4999567 Z" id="XMLID_263_" fill="url(#linearGradient-1)" fill-rule="nonzero"></path>
                <path d="M105.214063,0.986321975 L105.292334,0.986321975 C108.231048,0.986321975 110.613109,3.36838259 110.613109,6.30709663 L110.613109,35.1923184 C110.613109,38.1310324 108.231048,40.513093 105.292334,40.513093 L105.214063,40.513093 C102.275349,40.513093 99.8932884,38.1310324 99.8932884,35.1923184 L99.8932884,6.30709663 C99.8932884,3.36838259 102.275349,0.986321975 105.214063,0.986321975 Z" id="XMLID_262_" fill="url(#linearGradient-2)" fill-rule="nonzero"></path>
                <path d="M79.1285289,40.5125457 L79.050258,40.5125457 C76.111544,40.5125457 73.7294834,38.1304851 73.7294834,35.191771 L73.7294834,6.30709663 C73.7294834,3.36838259 76.111544,0.986321975 79.050258,0.986321975 L79.1285289,0.986321975 C82.0672429,0.986321975 84.4493035,3.36838259 84.4493035,6.30709663 L84.4493035,35.1923184 C84.4493035,38.1304851 82.0672429,40.5125457 79.1285289,40.5125457 Z" id="XMLID_261_" fill="url(#linearGradient-3)" fill-rule="nonzero"></path>
                <path d="M25.3925911,40.4999567 L25.3143202,40.4999567 C22.3756062,40.4999567 19.9935456,38.117896 19.9935456,35.179182 L19.9935456,6.29833905 C19.9935456,3.35962502 22.3756062,0.977564399 25.3143202,0.977564399 L25.3925911,0.977564399 C28.3313051,0.977564399 30.7133657,3.35962502 30.7133657,6.29833905 L30.7133657,35.179182 C30.7133657,38.1173487 28.3313051,40.4999567 25.3925911,40.4999567 Z" id="XMLID_260_" fill="url(#linearGradient-4)" fill-rule="nonzero"></path>
                <path d="M108.942601,2.45485797 C106.795353,0.417079548 103.402887,0.506297351 101.365109,2.65299812 L92.1942846,12.316983 L83.0234607,2.65299812 C80.9856823,0.505750003 77.5932163,0.417079548 75.4459682,2.45485797 C73.2987201,4.49263639 73.2100497,7.88510232 75.2472807,10.0323504 L88.3595611,23.8496157 C90.3973395,25.9968638 93.7898054,26.0855342 95.9370536,24.0477558 C96.2244115,23.7751763 109.140741,10.0318031 109.140741,10.0318031 C111.179067,7.88510232 111.089849,4.49263639 108.942601,2.45485797 Z" id="XMLID_259_" fill="url(#linearGradient-5)" fill-rule="nonzero"></path>
                <path d="M28.4265437,39.5355286 L28.3614092,39.5793165 C25.9289926,41.2279302 22.6208183,40.5924586 20.9722047,38.1600419 L1.40559092,9.29124058 C-0.243022729,6.8588239 0.392448866,3.55064964 2.82486555,1.902036 L2.89000002,1.85824812 C5.3224167,0.209634471 8.63059096,0.845106065 10.2792046,3.27752275 L29.8458183,32.1468714 C31.494432,34.5781934 30.8589604,37.886915 28.4265437,39.5355286 Z" id="XMLID_258_" fill="url(#linearGradient-6)" fill-rule="nonzero"></path>
                <path d="M5.65794132,0.951291672 C2.4619735,1.0689716 0.4887822,3.70828601 0.4887822,6.21952087 C0.4887822,6.21952087 0.403395836,7.75647542 1.11440152,8.80847922 C1.82485986,9.86048301 11.2217387,23.7740816 11.2217387,23.7740816 L11.2562217,6.74114398 C11.2562217,3.84950192 9.31149248,0.816643944 5.65794132,0.951291672 Z" id="XMLID_257_" fill="#270739" fill-rule="nonzero" opacity="0.8"></path>
                <path d="M28.4265437,39.5355286 L28.3614092,39.5793165 C25.9289926,41.2279302 22.6208183,40.5924586 20.9722047,38.1600419 L1.40559092,9.29124058 C-0.243022729,6.8588239 0.392448866,3.55064964 2.82486555,1.902036 L2.89000002,1.85824812 C5.3224167,0.209634471 8.63059096,0.845106065 10.2792046,3.27752275 L29.8458183,32.1468714 C31.494432,34.5781934 30.8589604,37.886915 28.4265437,39.5355286 Z" id="XMLID_256_"></path>
                <path d="M122.453351,40.4200438 L122.37508,40.4200438 C119.436366,40.4200438 117.054306,38.0379832 117.054306,35.0992691 L117.054306,6.29833905 C117.054306,3.35962502 119.436366,0.977564399 122.37508,0.977564399 L122.453351,0.977564399 C125.392065,0.977564399 127.774126,3.35962502 127.774126,6.29833905 L127.774126,35.0992691 C127.774126,38.0379832 125.392065,40.4200438 122.453351,40.4200438 Z" id="XMLID_255_" fill="url(#linearGradient-7)" fill-rule="nonzero"></path>
                <path d="M143.657631,24.8775361 C143.408588,24.8518107 143.155713,24.8337482 142.901196,24.8124017 C141.88477,24.72811 140.879291,24.5151914 139.916505,24.1785721 C138.047857,23.525038 136.350529,22.4062577 135.003505,20.9497634 C133.651006,19.4872482 132.66359,17.6957766 132.154556,15.7652785 C131.884713,14.7411895 131.749518,13.6820702 131.749518,12.6224035 C131.749518,5.86702844 137.195635,0.39080682 143.914338,0.39080682 C145.989883,0.39080682 148.051198,0.927755687 149.861827,1.94965531 C151.621552,2.94309282 153.125118,4.37933525 154.203942,6.09472541 C154.622116,6.75975383 154.976798,7.46583337 155.259777,8.1998277 C155.400993,8.56655118 155.524694,8.93984285 155.630332,9.31860801 C155.924806,10.3766326 156.077516,11.4932235 155.756222,12.568216 C155.468865,13.5299073 154.850908,14.3793921 154.026054,14.9458978 C153.514283,15.2972955 152.929168,15.5353921 152.318874,15.6437671 C150.230739,16.0148694 148.022736,14.7499471 147.396022,12.6820645 C147.136031,11.8243694 146.947743,11.0504186 146.262463,10.4231573 C145.675158,9.88511369 144.898471,9.58352467 144.104268,9.58352467 C142.333048,9.58352467 140.8979,11.0268826 140.8979,12.8079546 C140.8979,13.8265702 141.409671,14.8150815 142.226315,15.4144281 C143.119041,16.0696043 144.11412,15.9469982 145.151893,16.0520891 C147.146978,16.254608 149.078571,16.9606876 150.737584,18.0926043 C152.361567,19.2004376 153.710781,20.7029092 154.639084,22.441288 C155.58545,24.2125077 156.080253,26.210877 156.080253,28.221288 C156.080253,34.9766631 150.634135,40.4528847 143.915433,40.4528847 C141.844813,40.4528847 139.787878,39.9186726 137.980533,38.9006044 C136.223544,37.9115457 134.72162,36.4818714 133.641702,34.7730494 C132.434251,32.8622559 131.297408,30.1545229 132.193965,27.8983524 C132.752808,26.4922142 134.020467,25.4533467 135.503234,25.1895248 C137.552506,24.8244433 139.635167,26.0110948 140.369709,27.9716971 C140.543766,28.436396 140.593027,28.9388619 140.793357,29.3937085 C140.960845,29.7735683 141.201679,30.1200399 141.498889,30.4090399 C142.09331,30.9870399 142.900101,31.3143543 143.726597,31.3143543 C145.497817,31.3143543 146.933512,29.8709964 146.933512,28.0899244 C146.933512,27.233324 146.587588,26.4002596 145.982221,25.7976289 C145.31555,25.1375267 144.5104,24.9651119 143.657631,24.8775361 Z" id="XMLID_254_" fill="url(#linearGradient-8)" fill-rule="nonzero"></path>
                <path d="M143.913243,40.3893923 C141.420071,40.3893923 139.398713,38.3680343 139.398713,35.8748619 C139.398713,33.3816896 141.420071,31.3603316 143.913243,31.3603316 C146.406416,31.3603316 148.427774,33.3816896 148.427774,35.8748619 C148.427774,38.3680343 146.406963,40.3893923 143.913243,40.3893923 Z" id="XMLID_253_" fill="#270739" fill-rule="nonzero" opacity="0.8"></path>
                <path d="M96.1674873,16.5282823 L92.2035895,12.3509186 L88.3393092,16.4231914 C86.2900365,18.5830285 86.3792543,21.9946516 88.5390914,24.0439244 C90.6989285,26.0931971 94.1105517,26.0039793 96.1598244,23.8441422 L96.7175725,23.2568373 C98.106743,21.2064698 97.9425384,18.3991194 96.1674873,16.5282823 Z" id="XMLID_252_" fill="#270739" fill-rule="nonzero" opacity="0.8"></path>
                <path d="M61.9811954,0.912429929 C59.0047143,0.912429929 56.5920022,3.32514206 56.6336007,6.30162314 L56.6336007,24.9191346 L56.6336007,24.9191346 C56.6336007,27.377824 54.6401575,29.3712672 52.1814681,29.3712672 C49.7227787,29.3712672 47.7293355,27.377824 47.7293355,24.9191346 L47.7287881,24.9191346 L47.7287881,6.28027655 C47.7287881,3.31528979 45.3253809,0.912429929 42.3609415,0.912429929 C39.3965021,0.912429929 36.9930949,3.31583714 36.9930949,6.28027655 L36.9930949,25.365771 C36.9930949,25.3663183 36.9930949,25.3668657 36.9930949,25.3668657 C36.9930949,25.3679604 36.9930949,25.3685077 36.9930949,25.3685077 L36.9930949,25.8769945 C36.9930949,26.0515986 37.0281252,26.2163505 37.0445457,26.3865759 C37.5705476,34.2979509 44.1370874,40.5568809 52.1820154,40.5568809 C60.5679416,40.5568809 67.3665572,33.7604547 67.3703886,25.3750759 L67.370936,25.3750759 L67.370936,6.30107579 C67.3703886,3.32514206 64.9576765,0.912429929 61.9811954,0.912429929 Z" id="XMLID_251_" fill="url(#linearGradient-9)" fill-rule="nonzero"></path>
                <g id="XMLID_225_" opacity="0.8" transform="translate(46.524621, 29.009470)" fill="#270739" fill-rule="nonzero">
                    <path d="M5.65684662,11.5468637 C2.56268562,11.5468637 0.0541875003,9.03836558 0.0541875003,5.94420458 C0.0541875003,2.85004358 2.56268562,0.341545456 5.65684662,0.341545456 C8.75100762,0.341545456 11.2595057,2.85004358 11.2595057,5.94420458 C11.2595057,9.03836558 8.75100762,11.5468637 5.65684662,11.5468637 Z" id="XMLID_250_"></path>
                </g>
            </g>
        </g>
    </g>
</svg>