<?xml version="1.0" encoding="UTF-8"?>
<svg width="184px" height="49px" viewBox="0 0 184 49" version="1.1" xmlns="http://www.w3.org/2000/svg" xmlns:xlink="http://www.w3.org/1999/xlink">
    <title>assets/images/metaver/svg-raw/logos/logo-metaver-mono</title>
    <g id="assets/images/metaver/svg-raw/logos/logo-metaver-mono" stroke="none" stroke-width="1" fill="none" fill-rule="evenodd">
        <g id="Logo_Metaver_RGB_Farbig" fill-rule="nonzero">
            <path d="M45.8181818,29.7579545 L11.5113636,29.7579545 L11.5113636,32.6568182 L33.5670455,32.6568182 L45.8397727,29.7863636 C45.9375,29.7534091 45.9613636,29.7079545 45.9647727,29.6488636 C45.9515845,29.7177346 45.8879393,29.7650985 45.8181818,29.7579545 Z" id="Path" fill="#000000"></path>
            <path d="M46.1670455,0.636363636 C46.0464135,0.516023651 45.8828928,0.448862691 45.7125,0.448862691 L3.73409091,0.478409091 C3.56365899,0.479038016 3.40034248,0.546814367 3.27954545,0.667045455 L0.757954545,3.18863636 C0.637723458,3.30943339 0.569947107,3.4727499 0.569318182,3.64318182 L0.569318182,29.4909091 C0.56982415,29.6613657 0.637619133,29.8247271 0.757954545,29.9454545 L3.27954545,32.4670455 C3.40034248,32.5872765 3.56365899,32.6550529 3.73409091,32.6556818 L8.6125,32.6556818 L8.6125,29.7579545 L4.11136364,29.7579545 C3.75551653,29.7579545 3.46704545,29.4694835 3.46704545,29.1136364 L3.46704545,4.02159091 C3.46704545,3.6657438 3.75551653,3.37727273 4.11136364,3.37727273 L29.3647727,3.35909091 L45.65,0.505681818 C45.8571256,0.469398042 46.0689753,0.535918862 46.2181818,0.684090909 L46.6670455,1.12954545 L46.6670455,1.12954545 L46.1670455,0.636363636 Z" id="Path" fill="#000000"></path>
            <path d="M45.9693182,29.6670455 L45.9693182,29.6488636 C45.9665675,29.6656721 45.9607923,29.6818427 45.9522727,29.6965909 C45.9556818,29.6852273 45.9693182,29.6795455 45.9693182,29.6670455 Z" id="Path" fill="#00829B"></path>
            <path d="M19.5647727,35.9295455 L19.5647727,38.9011364 L38.1147727,34.5454545 L45.8920455,29.8 C45.9170455,29.7852273 45.9181818,29.7534091 45.9318182,29.7295455 C45.9076879,29.7542752 45.8775307,29.7722912 45.8443182,29.7818182 L19.5647727,35.9295455 Z" id="Path" fill="#3A566D"></path>
            <path d="M46.2159091,0.681818182 C46.0667026,0.533646135 45.8548529,0.467125314 45.6477273,0.503409091 L11.2397727,6.53522727 C11.08999,6.56089791 10.9542359,6.63904715 10.8568182,6.75568182 L8.7625,9.25568182 C8.66568284,9.3717859 8.6125,9.51814375 8.6125,9.66931818 L8.6125,37.5454545 C8.6125,37.7159857 8.68048559,37.8794833 8.80113636,38 L11.3215909,40.5193182 C11.4789523,40.6771828 11.7069311,40.7421353 11.9238636,40.6909091 L16.6647727,39.5795455 L16.6647727,36.6068182 L12.3022727,37.6295455 C12.1101431,37.6759066 11.9073644,37.631523 11.7521689,37.5091402 C11.5969734,37.3867575 11.5065325,37.1999166 11.5068182,37.0022727 L11.5068182,9.97159091 C11.5069867,9.65864732 11.7316192,9.39090834 12.0397727,9.33636364 L35.5681818,5.19318182 L45.5681818,0.632954545 C45.8118842,0.521940595 46.0988718,0.573544034 46.2886364,0.7625 L46.2159091,0.681818182 Z" id="Path" fill="#3A566D"></path>
            <path d="M48.6875,3.14090909 L46.3011364,0.7625 C46.1108506,0.573651891 45.823638,0.522089311 45.5795455,0.632954545 L18.5125,12.9715909 C18.3991571,13.0230565 18.3032192,13.1063606 18.2363636,13.2113636 L16.7659091,15.5193182 C16.7009422,15.6212435 16.6659001,15.7393629 16.6647727,15.8602273 L16.6647727,45.6022727 C16.6647727,45.7728038 16.7327583,45.9363015 16.8534091,46.0568182 L19.5079545,48.7215909 C19.7184947,48.9348269 20.0483962,48.974415 20.3034091,48.8170455 L47.3488636,32.3397727 C47.4436908,32.28234 47.5219985,32.2012915 47.5761364,32.1045455 L48.8022727,29.9227273 C48.8567911,29.8263751 48.8852278,29.7175249 48.8852278,29.6068182 L48.8852278,3.59772727 C48.8830472,3.42514254 48.8118361,3.26062034 48.6875,3.14090909 Z M45.9693182,29.6670455 C45.9693182,29.7232023 45.9399743,29.7752806 45.8920455,29.8045455 L20.5443182,45.2704545 C20.3457403,45.3922939 20.0967999,45.3972229 19.8935547,45.2833396 C19.6903095,45.1694563 19.5647718,44.9545672 19.5647718,44.7215909 L19.5647718,16.0852273 C19.5643589,15.8347907 19.7093489,15.6068859 19.9363636,15.5011364 L45.7397727,3.46931818 C45.7895845,3.44702781 45.8472876,3.45142421 45.8931474,3.48100378 C45.9390073,3.51058336 45.9668094,3.56133787 45.9670455,3.61590909 L45.9693182,29.6670455 Z" id="Shape" fill="#ADC2D2"></path>
            <polygon id="Path" fill="#3A566D" points="72.9693182 10.4545455 72.8818182 10.4545455 71.3852273 13.4477273 67.3943182 20.6943182 63.4920455 13.4761364 61.9318182 10.2454545 61.8443182 10.2454545 61.8443182 23.8897727 57.6534091 23.8897727 57.6534091 3.40909091 62.3772727 3.40909091 67.3943182 13.0034091 67.4534091 13.0034091 72.4125 3.40909091 77.1647727 3.40909091 77.1647727 23.8897727 72.9693182 23.8897727"></polygon>
            <polygon id="Path" fill="#3A566D" points="81.2727273 23.8897727 81.2727273 3.40909091 95.2090909 3.40909091 95.2090909 7.36931818 85.7329545 7.36931818 85.7329545 11.5363636 93.8636364 11.5363636 93.8636364 15.4977273 85.7329545 15.4977273 85.7329545 19.9295455 95.2090909 19.9295455 95.2090909 23.8909091"></polygon>
            <polygon id="Path" fill="#3A566D" points="107.211364 7.36931818 107.211364 23.8897727 102.751136 23.8897727 102.751136 7.36931818 97.2056818 7.36931818 97.2056818 3.40909091 112.755682 3.40909091 112.755682 7.36931818"></polygon>
            <path d="M126.106818,23.8897727 L124.639773,19.0181818 L117.804545,19.0181818 L116.3375,23.8897727 L111.818182,23.8897727 L118.567045,3.40909091 L124.082955,3.40909091 L130.744318,23.8897727 L126.106818,23.8897727 Z M121.267045,7.45795455 L121.119318,7.45795455 L118.863636,15.2329545 L123.557955,15.2329545 L121.267045,7.45795455 Z" id="Shape" fill="#3A566D"></path>
            <polygon id="Path" fill="#3A566D" points="136.346591 23.8897727 129.745455 3.40909091 134.263636 3.40909091 137.315909 13.2375 138.929545 19.6636364 139.017045 19.6636364 140.572727 13.2375 143.623864 3.40909091 147.995455 3.40909091 141.335227 23.8897727"></polygon>
            <polygon id="Path" fill="#3A566D" points="150.254545 23.8897727 150.254545 3.40909091 164.192045 3.40909091 164.192045 7.36931818 154.714773 7.36931818 154.714773 11.5363636 162.840909 11.5363636 162.840909 15.4977273 154.7125 15.4977273 154.7125 19.9295455 164.189773 19.9295455 164.189773 23.8909091"></polygon>
            <path d="M172.114773,23.8897727 L167.654545,23.8897727 L167.654545,3.40909091 L177.367045,3.40909091 C178.240306,3.39714384 179.107431,3.55659293 179.919318,3.87840909 C180.659094,4.17623273 181.324963,4.63190961 181.870455,5.21363636 C182.422747,5.81136605 182.847995,6.51495846 183.120455,7.28181818 C183.423389,8.13909758 183.572648,9.0431138 183.561364,9.95227273 C183.590383,11.2259182 183.270931,12.4832949 182.6375,13.5886364 C181.995403,14.6453856 181.004161,15.4444893 179.835227,15.8477273 L183.854545,23.8875 L178.896591,23.8875 L175.315909,16.3761364 L172.118182,16.3761364 L172.114773,23.8897727 Z M176.809091,12.6215909 C177.378595,12.6543759 177.93948,12.4709315 178.379545,12.1079545 C178.781097,11.7121295 178.988792,11.1600747 178.947727,10.5977273 L178.947727,9.30568182 C178.987706,8.74349177 178.780176,8.19187701 178.379545,7.79545455 C177.939042,7.43327491 177.378477,7.24993543 176.809091,7.28181818 L172.114773,7.28181818 L172.114773,12.6227273 L176.809091,12.6215909 Z" id="Shape" fill="#3A566D"></path>
            <polygon id="Path" fill="#3A566D" points="63.9772727 33.8954545 63.9193182 33.8954545 63.2375 35.2522727 61.3056818 38.775 59.3738636 35.2522727 58.6920455 33.8954545 58.6340909 33.8954545 58.6340909 40.7136364 57.6840909 40.7136364 57.6840909 32.6204545 58.9818182 32.6204545 61.3011364 36.9806818 61.3590909 36.9806818 63.6897727 32.6204545 64.9397727 32.6204545 64.9397727 40.7147727 63.9772727 40.7147727"></polygon>
            <path d="M71.1965909,40.8534091 C70.8161973,40.8591937 70.4389196,40.7840481 70.0897727,40.6329545 C69.7635101,40.4883826 69.4738254,40.2724782 69.2420455,40.0011364 C68.9980993,39.7113617 68.8131884,39.3766691 68.6977273,39.0159091 C68.4431559,38.174516 68.4431559,37.2766204 68.6977273,36.4352273 C68.8121268,36.0722957 68.9971085,35.735544 69.2420455,35.4443182 C69.4741266,35.1730147 69.7637108,34.956797 70.0897727,34.8113636 C70.4389196,34.6602701 70.8161973,34.5851244 71.1965909,34.5909091 C71.5677693,34.5843214 71.9358792,34.6591847 72.275,34.8102273 C72.5858785,34.952424 72.862577,35.1597541 73.0863636,35.4181818 C73.3172324,35.6872036 73.4925712,35.9992603 73.6022727,36.3363636 C73.7258396,36.7117252 73.7868803,37.1048422 73.7829545,37.5 L73.7829545,37.9397727 L69.4806818,37.9397727 L69.4806818,38.2170455 C69.4787501,38.4602382 69.5199165,38.7018502 69.6022727,38.9306818 C69.6787388,39.1432512 69.796969,39.3383698 69.95,39.5045455 C70.1058525,39.6708175 70.2957927,39.8014498 70.5068182,39.8875 C70.7441888,39.9835687 70.9985123,40.0307229 71.2545455,40.0261364 C71.6038336,40.0340407 71.9480819,39.941768 72.2465909,39.7602273 C72.5350459,39.574505 72.7626367,39.3081922 72.9011364,38.9943182 L73.5625,39.4738636 C73.365317,39.889367 73.0488286,40.236713 72.6534091,40.4715909 C72.2129335,40.7322819 71.7083082,40.8645394 71.1965909,40.8534091 Z M71.1965909,35.3693182 C70.9582873,35.3662757 70.7217976,35.4111006 70.5011364,35.5011364 C70.296525,35.5862067 70.1124819,35.7140682 69.9613636,35.8761364 C69.8076282,36.040666 69.6875699,36.2336858 69.6079545,36.4443182 C69.520746,36.674369 69.4775717,36.9187665 69.4806818,37.1647727 L69.4806818,37.2454545 L72.7852273,37.2454545 L72.7852273,37.1181818 C72.8084768,36.6535156 72.6527145,36.1976158 72.35,35.8443182 C72.0545099,35.5234689 71.6323318,35.3496064 71.1965909,35.3693182 L71.1965909,35.3693182 Z" id="Shape" fill="#3A566D"></path>
            <path d="M78.5954545,40.7147727 C78.3221125,40.7346095 78.0535665,40.6351481 77.8590909,40.4420455 C77.687587,40.2458416 77.5984365,39.9910095 77.6102273,39.7306818 L77.6102273,35.5545455 L76.6238636,35.5545455 L76.6238636,34.7306818 L77.1806818,34.7306818 C77.3287005,34.748578 77.4775422,34.7045834 77.5920455,34.6090909 C77.6791778,34.4862675 77.7194861,34.3363205 77.7056818,34.1863636 L77.7056818,33.0681818 L78.5409091,33.0681818 L78.5409091,34.7261364 L79.8511364,34.7261364 L79.8511364,35.55 L78.5375,35.55 L78.5375,39.8863636 L79.7545455,39.8863636 L79.7545455,40.7102273 L78.5954545,40.7147727 Z" id="Path" fill="#3A566D"></path>
            <path d="M87.6522727,40.7147727 C87.3730627,40.742508 87.0966902,40.6397595 86.9034091,40.4363636 C86.7465754,40.2346405 86.648289,39.9936423 86.6193182,39.7397727 L86.5613636,39.7397727 C86.4494908,40.0858374 86.2199037,40.3817675 85.9125,40.5761364 C85.5860495,40.7676305 85.2124217,40.863695 84.8340909,40.8534091 C84.2976437,40.885746 83.7691337,40.7117443 83.3568182,40.3670455 C82.9979399,40.0232843 82.805968,39.5406594 82.8306818,39.0443182 C82.8043362,38.5345194 83.0373105,38.0459147 83.45,37.7454545 C84.0321585,37.3995893 84.7065167,37.2409167 85.3818182,37.2909091 L86.5647727,37.2909091 L86.5647727,36.7045455 C86.589443,36.3460186 86.4634102,35.9934564 86.2170455,35.7318182 C85.9194927,35.483266 85.5365442,35.3609182 85.15,35.3909091 C84.8294834,35.379358 84.5128517,35.4640569 84.2409091,35.6340909 C83.9920855,35.8019602 83.7842874,36.023741 83.6329545,36.2829545 L83.075,35.7613636 C83.2536898,35.4195066 83.5224785,35.1330346 83.8522727,34.9329545 C84.8190515,34.4142557 85.9961799,34.4877712 86.8909091,35.1227273 C87.3024112,35.5004376 87.5237022,36.0422046 87.4943182,36.6 L87.4943182,39.8863636 L88.1761364,39.8863636 L88.1761364,40.7102273 L87.6522727,40.7147727 Z M84.9840909,40.0647727 C85.1996366,40.0668456 85.4144694,40.0397048 85.6227273,39.9840909 C85.8005167,39.9376465 85.9689159,39.8607519 86.1204545,39.7568182 C86.2522393,39.6648216 86.3630105,39.5459168 86.4454545,39.4079545 C86.5215948,39.2781457 86.5608838,39.1300262 86.5590909,38.9795455 L86.5590909,37.9886364 L85.3329545,37.9886364 C84.9309928,37.9588665 84.5283964,38.0373453 84.1670455,38.2159091 C83.9315242,38.3566463 83.7913023,38.6144457 83.8011364,38.8886364 L83.8011364,39.1329545 C83.7893043,39.3988442 83.9086288,39.6536295 84.1204545,39.8147727 C84.3726811,39.9914958 84.6764639,40.079433 84.9840909,40.0647727 L84.9840909,40.0647727 Z" id="Shape" fill="#3A566D"></path>
            <path d="M95.2829545,39.7511364 L95.2352273,39.7511364 C94.9358142,40.4454963 94.2396477,40.8837063 93.4840909,40.8534091 C93.1356482,40.8581704 92.790777,40.782742 92.4761364,40.6329545 C92.1742766,40.4867639 91.9102278,40.2728805 91.7045455,40.0079545 C91.4802461,39.7130815 91.3147412,39.3778281 91.2170455,39.0204545 C90.9928124,38.1694473 90.9928124,37.2748709 91.2170455,36.4238636 C91.3145033,36.0667474 91.4800364,35.7318225 91.7045455,35.4375 C91.9108265,35.1728721 92.1747053,34.9587377 92.4761364,34.8113636 C92.790777,34.6615762 93.1356482,34.5861478 93.4840909,34.5909091 C93.8597665,34.5804015 94.2310287,34.6740037 94.5568182,34.8613636 C94.8692065,35.0568219 95.1087539,35.349469 95.2386364,35.6943182 L95.2863636,35.6943182 L95.2863636,32.1329545 L96.2136364,32.1329545 L96.2136364,40.7147727 L95.2863636,40.7147727 L95.2829545,39.7511364 Z M93.7397727,40.0295455 C93.9414419,40.0308551 94.1422866,40.0036932 94.3363636,39.9488636 C94.5138514,39.8998377 94.6809577,39.8189798 94.8295455,39.7102273 C94.9669379,39.6078884 95.0798848,39.476311 95.1602273,39.325 C95.2435826,39.165163 95.2857643,38.9870627 95.2829545,38.8068182 L95.2829545,36.5681818 C95.2826589,36.4067243 95.2403647,36.248121 95.1602273,36.1079545 C95.0781164,35.9632473 94.9652308,35.8383361 94.8295455,35.7420455 C94.6791696,35.6360277 94.5126209,35.5550558 94.3363636,35.5022727 C94.1429226,35.4438811 93.9418314,35.4147707 93.7397727,35.4159091 C93.2742129,35.3906929 92.8210247,35.5709712 92.5,35.9090909 C92.1871389,36.2679593 92.0243762,36.7334605 92.0454545,37.2090909 L92.0454545,38.2318182 C92.0243762,38.7074486 92.1871389,39.1729498 92.5,39.5318182 C92.8202014,39.8716105 93.2735009,40.0535951 93.7397727,40.0295455 Z" id="Shape" fill="#3A566D"></path>
            <path d="M104.489773,40.7147727 C104.210945,40.7421467 103.935071,40.6394277 103.742045,40.4363636 C103.584748,40.2349089 103.486406,39.9937748 103.457955,39.7397727 L103.4,39.7397727 C103.287752,40.0859657 103.057764,40.3818932 102.75,40.5761364 C102.424021,40.7677658 102.050716,40.8638484 101.672727,40.8534091 C101.13622,40.8862127 100.607541,40.7121556 100.195455,40.3670455 C99.8357745,40.0237467 99.6433041,39.5409115 99.6681818,39.0443182 C99.642306,38.5343504 99.8756828,38.0457978 100.288636,37.7454545 C100.870572,37.3990375 101.545107,37.2403235 102.220455,37.2909091 L103.403409,37.2909091 L103.403409,36.7045455 C103.428198,36.3457935 103.301686,35.9930441 103.054545,35.7318182 C102.757699,35.4827927 102.374898,35.3603616 101.988636,35.3909091 C101.668143,35.3795672 101.351572,35.4642501 101.079545,35.6340909 C100.831,35.8022864 100.623267,36.0239973 100.471591,36.2829545 L99.9147727,35.7613636 C100.093009,35.419552 100.361423,35.1330599 100.690909,34.9329545 C101.657747,34.4145272 102.834724,34.4880332 103.729545,35.1227273 C104.141048,35.5004376 104.362339,36.0422046 104.332955,36.6 L104.332955,39.8863636 L105.014773,39.8863636 L105.014773,40.7102273 L104.489773,40.7147727 Z M101.821591,40.0647727 C102.03713,40.0667342 102.251948,40.0395953 102.460227,39.9840909 C102.638134,39.9379752 102.806588,39.8610554 102.957955,39.7568182 C103.089814,39.6645563 103.200907,39.5457215 103.284091,39.4079545 C103.360231,39.2781457 103.39952,39.1300262 103.397727,38.9795455 L103.397727,37.9886364 L102.170455,37.9886364 C101.768854,37.9587927 101.366605,38.0372804 101.005682,38.2159091 C100.769793,38.3562928 100.629442,38.6143291 100.639773,38.8886364 L100.639773,39.1329545 C100.627346,39.3989624 100.746794,39.6540106 100.959091,39.8147727 C101.20988,39.9909185 101.512038,40.0788481 101.818182,40.0647727 L101.821591,40.0647727 Z" id="Shape" fill="#3A566D"></path>
            <path d="M109.614773,40.7147727 C109.341474,40.7343073 109.073049,40.6348907 108.878409,40.4420455 C108.706905,40.2458416 108.617755,39.9910095 108.629545,39.7306818 L108.629545,35.5545455 L107.643182,35.5545455 L107.643182,34.7306818 L108.201136,34.7306818 C108.34912,34.748168 108.497803,34.7042204 108.6125,34.6090909 C108.699085,34.4860106 108.739338,34.3362683 108.726136,34.1863636 L108.726136,33.0681818 L109.560227,33.0681818 L109.560227,34.7261364 L110.870455,34.7261364 L110.870455,35.55 L109.556818,35.55 L109.556818,39.8863636 L110.773864,39.8863636 L110.773864,40.7102273 L109.614773,40.7147727 Z" id="Path" fill="#3A566D"></path>
            <path d="M116.526136,40.8534091 C116.145743,40.8591937 115.768465,40.7840481 115.419318,40.6329545 C115.09309,40.4888792 114.803672,40.2728845 114.572727,40.0011364 C114.327946,39.7119366 114.142939,39.3770701 114.028409,39.0159091 C113.772405,38.1747285 113.772405,37.2764078 114.028409,36.4352273 C114.141885,36.0719017 114.326962,35.7349759 114.572727,35.4443182 C114.80406,35.1727003 115.093354,34.9564099 115.419318,34.8113636 C115.768465,34.6602701 116.145743,34.5851244 116.526136,34.5909091 C116.897325,34.5842105 117.265459,34.6590786 117.604545,34.8102273 C117.915706,34.9524988 118.192761,35.1598057 118.417045,35.4181818 C118.647498,35.6874949 118.822788,35.9994646 118.932955,36.3363636 C119.055618,36.7119136 119.116261,37.1049432 119.1125,37.5 L119.1125,37.9397727 L114.810227,37.9397727 L114.810227,38.2170455 C114.807552,38.460396 114.849137,38.7022059 114.932955,38.9306818 C115.006425,39.1431433 115.122421,39.3384039 115.273864,39.5045455 C115.429716,39.6708175 115.619656,39.8014498 115.830682,39.8875 C116.068423,39.983659 116.323136,40.0308137 116.579545,40.0261364 C116.928526,40.0344622 117.272527,39.9421501 117.570455,39.7602273 C117.858977,39.5742685 118.086876,39.3080573 118.226136,38.9943182 L118.886364,39.4738636 C118.688835,39.8891351 118.372429,40.2363905 117.977273,40.4715909 C117.538517,40.7314252 117.035955,40.8636577 116.526136,40.8534091 Z M116.526136,35.3693182 C116.287844,35.3663989 116.051378,35.4112192 115.830682,35.5011364 C115.626256,35.5859426 115.442531,35.7138521 115.292045,35.8761364 C115.137973,36.0406212 115.017534,36.2336331 114.9375,36.4443182 C114.850291,36.674369 114.807117,36.9187665 114.810227,37.1647727 L114.810227,37.2454545 L118.114773,37.2454545 L118.114773,37.1181818 C118.138022,36.6535156 117.98226,36.1976158 117.679545,35.8443182 C117.384055,35.5234689 116.961877,35.3496064 116.526136,35.3693182 L116.526136,35.3693182 Z" id="Shape" fill="#3A566D"></path>
            <path d="M122.603409,40.7147727 L122.603409,34.7306818 L123.530682,34.7306818 L123.530682,35.6943182 L123.577273,35.6943182 C123.708775,35.3759941 123.922988,35.0986146 124.197727,34.8909091 C124.512978,34.6765115 124.88972,34.5711513 125.270455,34.5909091 C125.823651,34.5642767 126.360433,34.7829814 126.7375,35.1886364 C127.121493,35.6639644 127.312562,36.2663822 127.272727,36.8761364 L127.272727,40.7147727 L126.344318,40.7147727 L126.344318,37.0295455 C126.344318,35.9537879 125.892424,35.4159091 124.988636,35.4159091 C124.806542,35.4155394 124.625147,35.4384525 124.448864,35.4840909 C124.281866,35.5277057 124.12327,35.5987476 123.979545,35.6943182 C123.842942,35.7843375 123.729618,35.9054503 123.648864,36.0477273 C123.565244,36.2033309 123.523353,36.3779403 123.527273,36.5545455 L123.527273,40.7147727 L122.603409,40.7147727 Z" id="Path" fill="#3A566D"></path>
            <polygon id="Path" fill="#3A566D" points="132.377273 40.7147727 130.278409 34.7306818 131.206818 34.7306818 132.251136 37.6988636 132.9 39.7443182 132.954545 39.7443182 133.603409 37.6988636 134.671591 34.7306818 135.563636 34.7306818 133.452273 40.7147727"></polygon>
            <path d="M140.878409,40.8534091 C140.498015,40.8591937 140.120738,40.7840481 139.771591,40.6329545 C139.445362,40.4888792 139.155945,40.2728845 138.925,40.0011364 C138.680283,39.7117088 138.49494,39.376934 138.379545,39.0159091 C138.123541,38.1747285 138.123541,37.2764078 138.379545,36.4352273 C138.493869,36.0720278 138.679284,35.7351914 138.925,35.4443182 C139.156333,35.1727003 139.445626,34.9564099 139.771591,34.8113636 C140.120738,34.6602701 140.498015,34.5851244 140.878409,34.5909091 C141.249587,34.5843214 141.617697,34.6591847 141.956818,34.8102273 C142.267798,34.9528018 142.544793,35.1600638 142.769318,35.4181818 C142.999312,35.687815 143.174548,35.9996898 143.285227,36.3363636 C143.40789,36.7119136 143.468534,37.1049432 143.464773,37.5 L143.464773,37.9397727 L139.1625,37.9397727 L139.1625,38.2170455 C139.160009,38.4602829 139.201192,38.7019931 139.284091,38.9306818 C139.359676,39.1436704 139.478008,39.338957 139.631818,39.5045455 C139.787671,39.6708175 139.977611,39.8014498 140.188636,39.8875 C140.425981,39.9836592 140.680323,40.0308168 140.936364,40.0261364 C141.285344,40.0344622 141.629345,39.9421501 141.927273,39.7602273 C142.216128,39.5743358 142.444411,39.3081373 142.584091,38.9943182 L143.244318,39.4738636 C143.04679,39.8891351 142.730384,40.2363905 142.335227,40.4715909 C141.894752,40.7322819 141.390126,40.8645394 140.878409,40.8534091 Z M140.878409,35.3693182 C140.639756,35.3664921 140.402937,35.411306 140.181818,35.5011364 C139.977731,35.5859589 139.79438,35.7138776 139.644318,35.8761364 C139.489846,36.0403132 139.369354,36.233409 139.289773,36.4443182 C139.202564,36.674369 139.15939,36.9187665 139.1625,37.1647727 L139.1625,37.2454545 L142.467045,37.2454545 L142.467045,37.1181818 C142.490295,36.6535156 142.334533,36.1976158 142.031818,35.8443182 C141.736328,35.5234689 141.31415,35.3496064 140.878409,35.3693182 L140.878409,35.3693182 Z" id="Shape" fill="#3A566D"></path>
            <path d="M146.954545,40.7147727 L146.954545,34.7306818 L147.882955,34.7306818 L147.882955,35.8329545 L147.939773,35.8329545 C148.061127,35.5301861 148.261696,35.2656391 148.520455,35.0670455 C148.852341,34.8245976 149.257759,34.7041764 149.668182,34.7261364 L150.027273,34.7261364 L150.027273,35.6534091 L149.482955,35.6534091 C149.071448,35.629782 148.662169,35.7286415 148.306818,35.9375 C148.049299,36.0837124 147.888139,36.3550499 147.882955,36.6511364 L147.882955,40.7102273 L146.954545,40.7147727 Z" id="Path" fill="#3A566D"></path>
            <path d="M153.170455,32.1329545 L154.097727,32.1329545 L154.097727,35.6943182 L154.144318,35.6943182 C154.274201,35.349469 154.513748,35.0568219 154.826136,34.8613636 C155.152082,34.6743894 155.523234,34.5808151 155.898864,34.5909091 C156.247668,34.5861763 156.592903,34.6615991 156.907955,34.8113636 C157.209192,34.9590407 157.473008,35.1731239 157.679545,35.4375 C157.9037,35.731883 158.068849,36.066812 158.165909,36.4238636 C158.390142,37.2748709 158.390142,38.1694473 158.165909,39.0204545 C158.068611,39.3777637 157.90349,39.7130212 157.679545,40.0079545 C157.4736,40.2726224 157.209616,40.4864527 156.907955,40.6329545 C156.592903,40.7827191 156.247668,40.8581419 155.898864,40.8534091 C155.142606,40.8863393 154.445069,40.4472665 154.147727,39.7511364 L154.101136,39.7511364 L154.101136,40.7147727 L153.173864,40.7147727 L153.170455,32.1329545 Z M155.640909,40.0295455 C156.107035,40.0548087 156.560737,39.8740762 156.881818,39.5352273 C157.194679,39.1763589 157.357442,38.7108577 157.336364,38.2352273 L157.336364,37.2125 C157.357442,36.7368696 157.194679,36.2713683 156.881818,35.9125 C156.560737,35.5736511 156.107035,35.3929185 155.640909,35.4181818 C155.438472,35.4169641 155.236995,35.4460749 155.043182,35.5045455 C154.867084,35.556833 154.700831,35.6378476 154.551136,35.7443182 C154.415451,35.8406088 154.302565,35.96552 154.220455,36.1102273 C154.139774,36.2501699 154.097441,36.4089207 154.097727,36.5704545 L154.097727,38.8090909 C154.094383,38.9893932 154.136596,39.1676236 154.220455,39.3272727 C154.300797,39.4785837 154.413744,39.6101611 154.551136,39.7125 C154.699049,39.82168 154.865865,39.9025841 155.043182,39.9511364 C155.237741,40.0052744 155.438969,40.0316713 155.640909,40.0295455 Z" id="Shape" fill="#3A566D"></path>
            <path d="M165.543182,39.7511364 L165.496591,39.7511364 C165.43213,39.893114 165.356117,40.0295575 165.269318,40.1590909 C165.178722,40.2944939 165.06709,40.4145655 164.938636,40.5147727 C164.795303,40.6240396 164.634243,40.7078371 164.4625,40.7625 C164.252301,40.8265652 164.033348,40.8572415 163.813636,40.8534091 C163.25728,40.8810613 162.716952,40.6624365 162.336364,40.2556818 C161.947472,39.7830167 161.752881,39.1801497 161.792045,38.5693182 L161.792045,34.7306818 L162.719318,34.7306818 L162.719318,38.4147727 C162.719318,39.4912879 163.173864,40.0295455 164.082955,40.0295455 C164.265088,40.0305542 164.446565,40.0076308 164.622727,39.9613636 C164.78819,39.9184074 164.945024,39.8472936 165.086364,39.7511364 C165.220201,39.6594956 165.331042,39.5381545 165.410227,39.3965909 C165.49598,39.238067 165.538319,39.0596971 165.532955,38.8795455 L165.532955,34.7306818 L166.460227,34.7306818 L166.460227,40.7147727 L165.532955,40.7147727 L165.543182,39.7511364 Z" id="Path" fill="#3A566D"></path>
            <path d="M170.402273,40.7147727 L170.402273,34.7306818 L171.329545,34.7306818 L171.329545,35.6943182 L171.376136,35.6943182 C171.508069,35.3762438 171.722203,35.0989685 171.996591,34.8909091 C172.312263,34.6765016 172.689365,34.5711523 173.070455,34.5909091 C173.623624,34.5644337 174.160343,34.7831124 174.5375,35.1886364 C174.921808,35.6639028 175.113636,36.2661543 175.075,36.8761364 L175.075,40.7147727 L174.147727,40.7147727 L174.147727,37.0295455 C174.147727,35.9537879 173.695833,35.4159091 172.792045,35.4159091 C172.609941,35.4153892 172.428528,35.4383047 172.252273,35.4840909 C172.085275,35.5277057 171.926679,35.5987476 171.782955,35.6943182 C171.490895,35.8813475 171.318355,36.2078786 171.328409,36.5545455 L171.328409,40.7147727 L170.402273,40.7147727 Z" id="Path" fill="#3A566D"></path>
            <path d="M182.776136,39.7511364 L182.727273,39.7511364 C182.427347,40.4450571 181.731519,40.8830539 180.976136,40.8534091 C180.627311,40.8583452 180.282031,40.7829124 179.967045,40.6329545 C179.665186,40.4867639 179.401137,40.2728805 179.195455,40.0079545 C178.971072,39.7132923 178.805907,39.3779459 178.709091,39.0204545 C178.483348,38.1696435 178.483348,37.2746747 178.709091,36.4238636 C178.805691,36.0666382 178.970883,35.7316242 179.195455,35.4375 C179.401736,35.1728721 179.665614,34.9587377 179.967045,34.8113636 C180.282031,34.6614057 180.627311,34.585973 180.976136,34.5909091 C181.351435,34.580553 181.722292,34.6741519 182.047727,34.8613636 C182.360003,35.0569497 182.599516,35.3495541 182.729545,35.6943182 L182.776136,35.6943182 L182.776136,32.1329545 L183.703409,32.1329545 L183.703409,40.7147727 L182.776136,40.7147727 L182.776136,39.7511364 Z M181.232955,40.0295455 C181.434997,40.030856 181.636217,40.0036951 181.830682,39.9488636 C182.007998,39.9003114 182.174815,39.8194073 182.322727,39.7102273 C182.459811,39.6075585 182.572694,39.4760563 182.653409,39.325 C182.737268,39.1653509 182.77948,38.9871205 182.776136,38.8068182 L182.776136,36.5681818 C182.776423,36.406648 182.734089,36.2478972 182.653409,36.1079545 C182.570882,35.9635482 182.458071,35.8387196 182.322727,35.7420455 C182.173032,35.6355748 182.00678,35.5545603 181.830682,35.5022727 C181.636851,35.4438857 181.435386,35.4147767 181.232955,35.4159091 C180.766828,35.3906458 180.313127,35.5713784 179.992045,35.9102273 C179.679184,36.2690956 179.516422,36.7345969 179.5375,37.2102273 L179.5375,38.2329545 C179.516422,38.7085849 179.679184,39.1740862 179.992045,39.5329545 C180.312715,39.8726397 180.766472,40.0542256 181.232955,40.0295455 L181.232955,40.0295455 Z" id="Shape" fill="#3A566D"></path>
        </g>
    </g>
</svg>