<?xml version="1.0" encoding="utf-8"?>
<!-- Generator: Adobe Illustrator 16.0.3, SVG Export Plug-In . SVG Version: 6.00 Build 0)  -->
<!DOCTYPE svg PUBLIC "-//W3C//DTD SVG 1.1//EN" "http://www.w3.org/Graphics/SVG/1.1/DTD/svg11.dtd" [
	<!ENTITY ns_extend "http://ns.adobe.com/Extensibility/1.0/">
	<!ENTITY ns_ai "http://ns.adobe.com/AdobeIllustrator/10.0/">
	<!ENTITY ns_graphs "http://ns.adobe.com/Graphs/1.0/">
	<!ENTITY ns_vars "http://ns.adobe.com/Variables/1.0/">
	<!ENTITY ns_imrep "http://ns.adobe.com/ImageReplacement/1.0/">
	<!ENTITY ns_sfw "http://ns.adobe.com/SaveForWeb/1.0/">
	<!ENTITY ns_custom "http://ns.adobe.com/GenericCustomNamespace/1.0/">
	<!ENTITY ns_adobe_xpath "http://ns.adobe.com/XPath/1.0/">
]>
<svg version="1.1" xmlns:x="&ns_extend;" xmlns:i="&ns_ai;" xmlns:graph="&ns_graphs;"
	 xmlns="http://www.w3.org/2000/svg" xmlns:xlink="http://www.w3.org/1999/xlink" x="0px" y="0px" width="130.819px"
	 height="65.811px" viewBox="0 0 130.819 65.811" enable-background="new 0 0 130.819 65.811" xml:space="preserve">
<metadata><?xpacket begin="﻿" id="W5M0MpCehiHzreSzNTczkc9d"?>
<x:xmpmeta xmlns:x="adobe:ns:meta/" x:xmptk="Adobe XMP Core 5.3-c011 66.145661, 2012/02/06-14:56:27        ">
   <rdf:RDF xmlns:rdf="http://www.w3.org/1999/02/22-rdf-syntax-ns#">
      <rdf:Description rdf:about=""
            xmlns:dc="http://purl.org/dc/elements/1.1/">
         <dc:format>image/svg+xml</dc:format>
         <dc:title>
            <rdf:Alt>
               <rdf:li xml:lang="x-default">HMDK_Footer_Logo_HH</rdf:li>
            </rdf:Alt>
         </dc:title>
      </rdf:Description>
      <rdf:Description rdf:about=""
            xmlns:xmp="http://ns.adobe.com/xap/1.0/"
            xmlns:xmpGImg="http://ns.adobe.com/xap/1.0/g/img/">
         <xmp:CreatorTool>Adobe Illustrator CS6 (Windows)</xmp:CreatorTool>
         <xmp:CreateDate>2017-03-03T07:55:44+01:00</xmp:CreateDate>
         <xmp:ModifyDate>2017-03-03T07:55:56+01:00</xmp:ModifyDate>
         <xmp:MetadataDate>2017-03-03T07:55:56+01:00</xmp:MetadataDate>
         <xmp:Thumbnails>
            <rdf:Alt>
               <rdf:li rdf:parseType="Resource">
                  <xmpGImg:width>256</xmpGImg:width>
                  <xmpGImg:height>88</xmpGImg:height>
                  <xmpGImg:format>JPEG</xmpGImg:format>
                  <xmpGImg:image>/9j/4AAQSkZJRgABAgEASABIAAD/7QAsUGhvdG9zaG9wIDMuMAA4QklNA+0AAAAAABAASAAAAAEA&#xA;AQBIAAAAAQAB/+4ADkFkb2JlAGTAAAAAAf/bAIQABgQEBAUEBgUFBgkGBQYJCwgGBggLDAoKCwoK&#xA;DBAMDAwMDAwQDA4PEA8ODBMTFBQTExwbGxscHx8fHx8fHx8fHwEHBwcNDA0YEBAYGhURFRofHx8f&#xA;Hx8fHx8fHx8fHx8fHx8fHx8fHx8fHx8fHx8fHx8fHx8fHx8fHx8fHx8fHx8f/8AAEQgAWAEAAwER&#xA;AAIRAQMRAf/EAaIAAAAHAQEBAQEAAAAAAAAAAAQFAwIGAQAHCAkKCwEAAgIDAQEBAQEAAAAAAAAA&#xA;AQACAwQFBgcICQoLEAACAQMDAgQCBgcDBAIGAnMBAgMRBAAFIRIxQVEGE2EicYEUMpGhBxWxQiPB&#xA;UtHhMxZi8CRygvElQzRTkqKyY3PCNUQnk6OzNhdUZHTD0uIIJoMJChgZhJRFRqS0VtNVKBry4/PE&#xA;1OT0ZXWFlaW1xdXl9WZ2hpamtsbW5vY3R1dnd4eXp7fH1+f3OEhYaHiImKi4yNjo+Ck5SVlpeYmZ&#xA;qbnJ2en5KjpKWmp6ipqqusra6voRAAICAQIDBQUEBQYECAMDbQEAAhEDBCESMUEFURNhIgZxgZEy&#xA;obHwFMHR4SNCFVJicvEzJDRDghaSUyWiY7LCB3PSNeJEgxdUkwgJChgZJjZFGidkdFU38qOzwygp&#xA;0+PzhJSktMTU5PRldYWVpbXF1eX1RlZmdoaWprbG1ub2R1dnd4eXp7fH1+f3OEhYaHiImKi4yNjo&#xA;+DlJWWl5iZmpucnZ6fkqOkpaanqKmqq6ytrq+v/aAAwDAQACEQMRAD8AQ/5UB+Z//Vui/wCkmD/m&#xA;vM/x4ul/J5O53/KgPzP/AOrdF/0kwf8ANePjxX8nk7nf8qA/M/8A6t0X/STB/wA14+PFfyeTud/y&#xA;oD8z/wDq3Rf9JMH/ADXj48V/J5O53/KgPzP/AOrdF/0kwf8ANePjxX8nk7nf8qA/M/8A6t0X/STB&#xA;/wA14+PFfyeTud/yoD8z/wDq3Rf9JMH/ADXj48V/J5O53/KgPzP/AOrdF/0kwf8ANePjxX8nk7nf&#xA;8qA/M/8A6t0X/STB/wA14+PFfyeTud/yoD8z/wDq3Rf9JMH/ADXj48V/J5O53/KgPzP/AOrdF/0k&#xA;wf8ANePjxX8nk7nf8qA/M/8A6t0X/STB/wA14+PFfyeTud/yoD8z/wDq3Rf9JMH/ADXj48V/J5O5&#xA;3/KgPzP/AOrdF/0kwf8ANePjxX8nk7nf8qA/M/8A6t0X/STB/wA14+PFfyeTud/yoD8z/wDq3Rf9&#xA;JMH/ADXj48V/J5O53/KgPzP/AOrdF/0kwf8ANePjxX8nk7nf8qA/M/8A6t0X/STB/wA14+PFfyeT&#xA;ud/yoD8z/wDq3Rf9JMH/ADXj48V/J5O53/KgPzP/AOrdF/0kwf8ANePjxX8nk7nf8qA/M/8A6t0X&#xA;/STB/wA14+PFfyeTud/yoD8z/wDq3Rf9JMH/ADXj48V/J5O5ivmvyd5g8qX8djrduLe4miE0YV1k&#xA;UoWK/aQkdVO2WQmJcmnJilA0X1N+TnmD9Ofl5pU7tyuLWP6lcb1PK3+Ba+7R8W+nMHNGpF3GlnxY&#xA;wzTKnIdirsVdirsVdirsVdir5g/6Hj0r/qUZ/wDpNT/qjirv+h49K/6lGf8A6TU/6o4q7/oePSv+&#xA;pRn/AOk1P+qOKu/6Hj0r/qUZ/wDpNT/qjirv+h49K/6lGf8A6TU/6o4q7/oePSv+pRn/AOk1P+qO&#xA;Ku/6Hj0r/qUZ/wDpNT/qjiqceTf+cwNN8y+a9J8vp5ZmtW1W6itVuWu1cRmVgvIqIlrSvjir6HBB&#xA;AINQehxVjvn/AM3/AOEfLFxrv1T679XeNPq/qelX1HCV58ZKU5V6ZPHDiNNWbLwR4nk//Q0//fsf&#xA;9P3/AGb5kflfNwv5Q/o/b+x7D5N8yw+ZvLNhrsUXoLeoWMHLnwZWKOvKi1oykdBmNOPCac7Fk44i&#xA;TEPzP/OWHyPqtppq6X+kpriD6w/+kehwUuUXb05a14nLMWHiFtGo1XhmqtIPLH/ORv6c8w6do/8A&#xA;h76v9fuI7f1/rnPh6jceXH0FrTwrk5aehdtePXcUgK5+bLvzS/M7/AkGnS/o39I/X3lTj6/ocPSC&#xA;mv8Ady1rzyvFi4m/Uajw62u3n3/Q0/8A37H/AE/f9m+XflfNxf5Q/o/b+xN/KX/OQ/8AiHzJp+i/&#xA;4f8Aqv16URfWPrnqcKgmvD0Er08cjPT0Ltnj1vFICufml+of85OfU7+5tP8ADXP6vK8XP67TlwYr&#xA;Wn1c0rTCNNfVjLX0a4ft/Yof9DT/APfsf9P3/Zvh/K+aP5Q/o/b+xF6P/wA5L/pHV7HT/wDDnpfX&#xA;LiK39X67y4+q4Tlx+ritK9K4DpqF2yjr7IHD9v7HpP5ied4PJnlt9Zlt/rb+rHBBa+p6XN5DUjnx&#xA;elEVm+yemUY4cRpys+Xw428ti/5yljaVFk8tFIywDuL3kQtdzT6uK0y/8r5uH/KH9H7f2Jl/zkpo&#xA;KX3ljTfMFvRzYTenI67gwXQFGr4B0Wn+tg00qNM9dC4iXckv/OMPmDhdav5fkbaVVvrZSf2kIjlp&#xA;8wyfdktTHkWvQT3MX0BmI7N4pq3/ADkmtnrt3pVr5dN4Le5ktYZxecPV4OUVgvoNTlTYVzJGn2u3&#xA;Xy11SoD7WQ/mX+cj+R9Ts7B9GF+91bC4Zxc+kEJdkKD9zJy+z12+WQx4eIc23PqvDIFWw/8A6Gn/&#xA;AO/Y/wCn7/s3y38r5tH8of0ft/Yyb8u/zz/xj5kTRf0J9R5xSS/WPrXrU9MVpw9GPr88ryYOEXbd&#xA;g1fiSqqQ/nv8/f8ACnmq+0D9BfXfqXpf6T9b9Ll6sKS/Y9GSlPUp9rDDBxC7Rm1nBIxpIf8Aoaf/&#xA;AL9j/p+/7N8n+V82r+UP6P2/sZ3+Xn5yeXvOd02npDJp+qqpkW0mYMsir9r0pBTkV6kEA038aU5M&#xA;Jju5ODVRyGuReAf84V6Vpeoap5rF/ZwXYjgszGJ40kCkvNWnMGlaZU5L6p/wn5V/6s1j/wBI0P8A&#xA;zTirv8J+Vf8AqzWP/SND/wA04q7/AAn5V/6s1j/0jQ/804qlWtD8sNEUnVodIsiBURyxW4kI/wAl&#xA;OPNvoGV5M0IfUQHN0vZ2o1H91CU/cNvnyYBrn5vfk9Zck07QotVlH2Wjs4YYj/spVD/8JmFk7Txj&#xA;lZem0nsNrMm+Qxxj32fs2+1h0v5h+ZPMcjQeVvJlhCp25QWC3kq/N2T0h9KZinX5sm0I/pd9H2S7&#xA;O0o4tTlv3kQHy5/aqWv5KfmZrkhudZkttKhIq4ldFovisNsDGPp45CWnzyBOSXDHzLIe0HZGj20+&#xA;Pil/Rj/vpb/e9l0HU7nTNP0rRIn/AEibGGO2lughRpRGvAFVq1KAdSd81R9pT40MWGPiRGxPWX9X&#xA;3d5+wPFazTxzZMmYjw+MmVXdXulf5/8A/ksNR/4y23/J9c7nB9Ty+s/uy+VYrSaW3muEFUt+Pq+w&#xA;c8QfvoPpzPt01PpL/nGnV/rXky801mrJp12xUeEU6hl/4dXzC1I9Vu10ErgR3PJPze1GbzB+aWow&#xA;237wxzx6dbJ/lRUiI+mXlmRiFQcLUy4sh+SUfll/5MLy7/zHwf8AExksv0lhg+se965/zlJ/vB5e&#xA;/wCMtz/xGPMfTdXN7Q5BLf8AnH3yZ5W8waPq02s6bDfSwXEaRPKCSqlKkChHfJaiZBFMdFijIGxb&#xA;2DTvy18iabfQ31jotvb3du3OGZAeSt4jfMY5JHq50cEAbAQU/wCTv5azzyTy6HE8srF5G9SbdmNS&#xA;dn8cPjS72J0uM9HydZWsEnmOC1dK273iRNHvQoZQpHj0zYE7OlA9Veb6ztfyg/Li0uobq30SKO4t&#xA;3WWGQSTEq6EMp3emxGa85Zd7uhpsYN08w/5yf13lc6NoKNtGj31wvu59KL7uL/fl+mjzLh9oT5Re&#xA;Pa35eutJtdJuJ+mq2YvY/AK0skaj/gUDfTmRGV24M4GIHmH0v5UCeefySisHIe4msXsTy/ZuLaqR&#xA;M3+yjR8wpembtsf7zDXk+ffyz15/Lvn7Sb2U+lGtwLe7DbUjm/dSch/k8uX0ZmZI3EuswT4Zgvrj&#xA;zRq40by5qeqkgGytZZ0r3dEJUfS1BmviLNO7yS4YkvlD8otFbW/zG0eGQc44ZvrlwW32twZfi/1n&#xA;UD6cz8sqiXTaaHFkDMf+cnf+Ut0r/mAH/J6TK9NyLfr/AKh7mS/kj5B8m635EivtV0mC8u2uJkM0&#xA;gJbipFBse2V5skhLYtukwwlCyHpujeQfJuiXwvtK0mCzu1UoJowQ3Fuo3J65SckjzLlxwwibAfM3&#xA;57f+TV1z/o1/6g4czcH0B1Or/vD+Oj1nRfyu8jan+VVpeT6bFFqE2lidtQUssizely9QkHs25FN8&#xA;xzlkJ/FzYaeBx3W9PEPywnuYPzD8uvb19Q38EbU/33I4ST/hGOZWX6S6/Tn94PenX/ODn/HV83f8&#xA;YLL/AInNmtd8+gPOf5t+UPKV2bHUHnm1AIshtLeIswVvsku5SPf/AFsxM+thjNHm9B2V7NarWx48&#xA;YiId5P6BZ+x5vqP/ADkdr2oTfVfLOgqJm2Rpi9zIfcRRBKH6TmBLtSUtoR/S9Zg9hcGIcWoy7eVR&#xA;HzN/oQv6H/5yF83/AO9c8+mWknUSutigHg0cQExH+spyPBqsvPYfJu/NdhaH6RHJIdw4z8z6fkU0&#xA;0X/nGaEkS6/rTyOxq8NmgXfv+9l5Vr/qZZj7K/nS+Th6r2+PLBiA85H/AHo/4p6Bon5P/l3pHFod&#xA;IiuZl39a8rcGo78ZKoPoXM7HosUenzeY1ftPr8/PIYjuj6fu3+1lM89lp1oC3GGCMcUjUAD2VVGD&#xA;V6zFpsfHkNRH4oOmhCeWXeSxqe71LXrj0LdTHaqdx2A8XPf5ZwmfV6rtbJ4eMcOIfL3yP6P7XbQx&#xA;49NHilvL8cmQaXpFrp8dIxylYfHKep9h4DOx7L7IxaONR3mecuv7B5Os1GpllO/LuYR+f/8A5LDU&#xA;f+Mtt/yfXN3g+p1ms/uy8H/LjRv0vpPnGzArIujtcRDvztp4pgB8/TpmVkNEe91uCPEJDyT7/nHv&#xA;zRDomua0ly1LWTTpbp96Vay/ef8AJtnyOojYDbosnCTfd9yTflPp83mD8xVvLn94YEudSum/y1Ul&#xA;W/5HOuSymotemjxZL+KUfll/5MLy7/zHwf8AExksv0lhg+se965/zlJ/vB5e/wCMtz/xGPMfTdXN&#xA;7Q5B5R5N/wCVl/Vrj/CP6R+rcx9a+oepx50258O9MyJ8PVwsXifw38HqP5Uf8rf/AMbWf+Jf0t+i&#xA;OE3rfXPV9Hl6TcOXLb7VKZj5eDh2pzNN4vGOK6e85iuyfEOn/wDKW23/ADHp/wAnhmzPJ56P1fF9&#xA;vZrHoXx/+bOsS+YPzJ1V4Kyqk4sbRBvUQUi+H/WcFvpzY4hUQ6PUy4shei/85DeVY9P8o+V54AOG&#xA;kgaYzDuphBT6B6B+/KdPKyXK1uOox8tkT/zjBrnOw1nQnbeGRL2Be5Eg9OT7iiffg1MeRToJ7GLz&#xA;L85PL36D/MPVIUThbXbi9tvArcfE1PYSc1+jL8MriHE1UOHIXp/5heef0j+Q2m3XqVutZMFnOa/E&#xA;ZLdiZz8i8H45RjhWT3OZmzXhB70t/wCcYND532s6467Qxx2UDe8h9SSnyCJ9+HUy5BhoIbmSA/5y&#xA;d/5S3Sv+YAf8npMlpuRY6/6h7mIeVf8Albf6IX/DH6V/RXNuP1L1fS51+OnHavjlkuC96aMfi16b&#xA;p65+Sf8Ays/9P33+Lf0l9S+qf6P9f9Th6vqJ9nnty41zHzcNbObpPE4jxW8r/Pb/AMmrrn/Rr/1B&#xA;w5fg+gOHq/7w/johrj80/Pf+E4vLnri30f6uLUcIQrvCFpwMhBO46064fCjd9UHUT4eHoyz/AJx4&#xA;0Xypc+ZFvry/Da7aq72GlshVehDShzs7Kp+yNx17ZXqJGvJu0UImVk7pB/zg5/x1fN3/ABgsv+Jz&#xA;ZhO2ZT+aNrb3f576RaXMazW1xPpsU8TCqujyqrKR4EGmaLVgHUgH+i+q+z2SUOxckompRjlIPmA+&#xA;gNO0jStMh9DTbOCyh/33bxpEv3IBm7jCMdgKfMc+py5jxZJSmfMk/ei8k0OxVL9V1q209KN8c5Hw&#xA;RDr8z4DNN2r21i0caPqyHlH9fcHK02kllPdHvSK10/Udbn+tXbFLbsem3gg/jnJ6Xs/U9qZPFzHh&#xA;x/jaI/T97ssmbHp48Mfq/HNlFtawWsIhgQIi9h39z453ul0uPBAQxjhiHTZMkpm5HdVzIYPOvz//&#xA;APJYaj/xltv+T65dg+pxdZ/dl5j/AM4zRpJ5p1eORQyPpxV1PQgzICMv1PIOHoPqPueZazZ3egeY&#xA;dS05HaOWzmuLNmHUoeULfQ6E/fl4Ni3EkDGRD2D/AJxv0WmmeZNbdesYsoG+SGWUfjHmNqJbgOdo&#xA;YbSLzD8sv/JheXf+Y+D/AImMvy/SXEwfWPe9c/5yk/3g8vf8Zbn/AIjHmPpurm9ocgiP+cX/APjg&#xA;63/zFR/8m8Gp5hPZ/wBJe15jOwdir4h0/wD5S22/5j0/5PDNmeTz0fq+L7K8060mieW9T1d6f6Db&#xA;SzID3dVJRf8AZNQZroizTvskuGJL4y0LR9f17WFttHhkutUctOojYK9U+IvyYqBTrWubKRAG7oYR&#xA;lI7c2Wav5A/OeTT5m1W2v57GBTNMs90sqARgsW4GVq0HtlYyQ6N8sOWt7p35F67+ifzH09WbjBqI&#xA;exl9/VFYx/yNRMc8bijST4cg83oX/OTvl71LLSfMMSfFA7WVyw/kcGSKvsGV/vynTS5hytfDYSeG&#xA;za3ezaFa6K7Vs7O4muYh35TrGpHyHpVHzOZXDvbrjM8NPqT8iND/AEV+XFg7Lxm1F5L2Uf8AGQ8Y&#xA;z9MSIcwc8rk7jRwrGPN5f/zk7/ylulf8wA/5PSZfpuRcTX/UPc9F/wCcd/8AyW0P/MVcf8SGU6j6&#xA;nK0X929Myhy3yP8Ant/5NXXP+jX/AKg4c2GD6A6TV/3h/HR9AeVdMsdU/J/TLG+hWe2n0mNXRgD/&#xA;ALqqCK9Cp3B7HMSRqfxdnjiDiAPc+avyvmaH8xPLrq/Am+hSvTZ24EfSGpmbl+kup05/eD3ojSv+&#xA;cSfzx0dpG0nzNpunNMAJmtL7UIC4WtA3p2y1pXvmtd8r6D5R82+U/wAy/Lukea9SXVdXTUbCV7tJ&#xA;5rkGN7hCi+pOsb7eFM0eq/xqPvi+pdhf8YeX+rl/3JfX2bx8tdiqC1m6mtdMnnhIEihQpIrTkwWv&#xA;45q+2tVPT6WeSH1Cq+JA/S5GlxieQRPJJNC0Vb0fX7xzKGY8UNTyINKsT+rOW7C7FGp/wjOeOzy7&#xA;/OX6nY6zVnH6IbfjoygAKAAKAbADoBneAAChydMS7CrsVYh+a/lnVPM3km80jS1RryaSFkEjcFpH&#xA;KrN8R9hlmKQjKy0anGZwoMK/JP8AK7zX5R1++vdZjhSC4tPRjMUokPP1EbcAeC5bmyiQ2cfSaeUJ&#xA;ElJvzR/JLzXrnnW+1fRI4Gsr0RyESSiMiQRhH2I7leX05LFmAjRYajSSlMkPSfyz8mXnljyDHo10&#xA;EGpSevJdcG5L6kpIWjeyBRlOSfFK3KwYjCFHm8l8lfkZ590jzdpGqXkVsLWyu4ppys4ZuCMCaCm+&#xA;XzzxIIcLFpJxkCWf/nh+X/mLzha6RHoqRO1m8zT+rII9pAgWlev2TlWHII3bk6vDKYFPKovyA/NG&#xA;EERCCMHqFugtfuy/x4OH+TyJv5V/Jb8zdO8z6PqF40X1Szvba4uaXXI+nFKrv8Pf4R0yMs0SCzx6&#xA;XIJAnvfRuYbtXzNafkJ+YUWvw3rw23oJdrMxE614CQMdqeGZpzxp1I0c+K3sv5ueXvMXmLydLo2h&#xA;JG093NF9Y9VxGBDGfUNCe/NFzHxSAlZc7UwlKFRYl+SX5Ua/5T1nUNT1xIVkkt1t7QRSCTZ35yE0&#xA;G392uTzZRIUGnSaaUCSXr8kaSRtHIoZHBV1PQgihGY7nPmVfyC/Maw1kXempbFbS4EtnK04DUjfl&#xA;GxFNjsMzvHiRu6j8nkBsPefP3lp/NHkvUdHCql1cwhrcOdlnjIkjBYdBzWhPhmJjlwyt2WbHxwIf&#xA;Pa/847fmOWAMVqATufXU0H3ZmfmIur/JZH0/ptjBp+nWthbikFpDHBEPBIlCL+AzBJsu4iKFPI/z&#xA;s/K7zX5u1+xvdGjheC3tPRkMsojPP1HbYEeDZkYcoiN3B1enlOQIYBH+QX5pxLxj9BF68VuqD7hl&#xA;vjwcb8nkZX+WX5S/mFoHnjTdW1Zozp9t6/rhbj1D+8t5I1+Hv8TjK8mWJjQbtPppxmCeSj+aP5M+&#xA;dvMfnrU9Z0yK3ayuvQ9IyTBG/d28cbVUj+ZDhxZoiNFdRpZymSHsPlDRbnTfJml6NfALcW1nHbXA&#xA;QhgGCcW4nMeZuRLnYoVAA9zwfy7+RH5h6T5m0zUmhtXhsL2C5J9cfEsMqv0p3C5lSzxIp1sNHkjI&#xA;HuL6VzCds+ffzKi4fn95datfVuNLanhS5C/8a5pNUP8ACY/5v3vqHYMr7DzeUcv+5fQWbt8vdiqT&#xA;+aLu0i0x7eWaNJ7gqIImYB3KsGIRSatRVJNO2aL2lkPyMx/V/wB1Fz+z8UjkEgCRHme73r/LH/HH&#xA;i/1n/wCJHIezH+JR98vvLHtD+9PwTXOgcJ2KpdrGtQafHQUe5YfBH4e7e2aTtjtrHo419WQ8h+k+&#xA;X3uXpdIcp/osc87+edQ0DyHN5itrVHuoniQQz8vTb1JFQsOJVqb7ZndjaqWrwxnKJgT+LHkXF7QH&#xA;gXRunldt/wA5Fef7qCa4tvL9tPb2w5XE0cdy6RrQmrsrkKKA9c3J08e91Q1szyCjD/zkv5znmSGD&#xA;RrKWaVgkcSLOzMzGgVVD1JJx/LR70DXzPQLrr/nJPzvaTvb3WiWdvcR7SQypcI6kiu6s4I2xGnj3&#xA;qddMcwFL/oZ3zb/1arD7pv8Aqph/LDvX8/LuDj/zk55uHXSrAd+k3f8A56Y/lh3r+fl3B3/Qzvm3&#xA;/q1WH3Tf9VMfyw71/Py7g5f+cnPN7EKuk2BJ2AAmqT/yMx/LDvX8/LuCrdf85J+d7Sd7e60Szt7i&#xA;PaSGVLhHUkV3VnBG2AaePep10xzAUv8AoZ3zb/1arD7pv+qmH8sO9fz8u4OP/OTnm4Gh0qwB8KTf&#xA;9VMfyw71/Py7g7/oZ3zb/wBWqw+6b/qpj+WHev5+XcHf9DO+bf8Aq1WH3Tf9VMfyw71/Py7grr/z&#xA;kd57aze+XQrRrKN/Te6EdwYlc0PEvz4g7jauD8vHvT+enV0stv8AnJPzvdTpb2uiWc9xIaRwxJcO&#xA;7HrsquScTpo96BrpnkAtk/5yZ84xyNHJpFikiEq6MJwwYGhBBfYjH8sO9fz8+4Lf+hnfNv8A1arD&#xA;7pv+qmH8sO9fz8u4Kk//ADkp52gKCfRbOIyKHQOs68kPRhV9wfHB+Wj3qddMdAp/9DO+bf8Aq1WH&#xA;3Tf9VMP5Yd6/n5dwd/0M75t/6tVh903/AFUx/LDvX8/LuDv+hnfNv/VqsPum/wCqmP5Yd6/n5dwd&#xA;/wBDO+bf+rVYfdN/1Ux/LDvX8/LuC+f/AJyV86wOEn0ayicgMFdZ1PE7g0L9Dg/LR71OvmOgfR2Y&#xA;btXz7+a9xBbfnn5cubiRYbeFtOkmmkIVERLolmZjsAAKk5pNYQNTEny+99Q9nISn2NmjEXI+IAB1&#xA;PAzTzJ/zkF5I0vnFp3q6xcrsBAPThr7yuPxVWzLy9pY48vU8/oPYrWZqOSsUfPc/IfpIYLJ+Zf5x&#xA;+d3aDyxp7WVmx4+paJ0Fej3U1EB/1eOYZ1WfL9AoeX63pI9gdk9ni9TPjl/SP3Qjv87TPy5+Tnmf&#xA;Sr9fNXmPVVmvoAT9XDPcSOZVMR9SZyKFedduXzzVdtaGcdJOczv6f90HD13tRps0Py2nx1A9dogV&#xA;vtEe7yeweWP+OPF/rP8A8SObH2Y/xKPvl95eE7Q/vT8E1zoHCSjW9ejsVMMNHuiOnUJ7t7+2c523&#xA;29HSjgh6sv8Auff+pztJozk3P0/el2jaHLdyfX9QqyueSo3Vz4t7Zpuxuw56iX5jU7g7gH+LzPl3&#xA;Dr7ueVqtYIDgx/2JF+fwA/K/UABQCW2oP+e6Z6DpxUgA87rf7svNvyK1az0zy1r8t8oaxuL3T7O7&#xA;DdPSuy8DE+w9Spy/OLIcTSSAib5WEo8jeW/8M+e9cv8AUkD2/k8SMnPpJcSt6NmO394X5j5ZKcuK&#xA;Irqww4+CZJ/h/ATXzF5FTzV+bfmyS6mlg0vSUS6vWt09W4cegnGKFO7vQ0wRnwwDOeHjyyvkEo1n&#xA;8uPLMegP5l09NatdM064ij1ex1OGOK79GVwglt2CrG25Gx/25DIbo0wlgjw8Q4qHO0Z+a+keVb/8&#xA;3JNOe9fSAfSXVbuZUNtFGlnCYRbolG3QcSG79NsjiJELTqIxOWrrv+SEm/LryjqXlrWdT0L9N2k2&#xA;jQm59TVYI1t7iNdyI2jVeLU3oT/Gh8QggGt0HBExJjxbd6nF5K8iaFPpNh5l1S+i8w6hHDc/6LHG&#xA;1paesaxCfnR37cuHTDxyN1yR4UI0JE8R+xMPO+ieWdQ/M3zVc69fTxR2skAt9NsUEl7dO8KCkQf4&#xA;AE6sTkYSIiKZZYROSXEf1tf4A8r6be+U/MEC6rFpOoaklpPp2oxRpdLMDWIj4VR4mcfFt9n32B8Q&#xA;mxsvgxBjLeiertW8j6Z5s/NnX7a0mubaxsPrF3rUzosknOOQh0tkT7Qaq8OW/Xr0wCZjALLEJ5TX&#xA;Ic0Br35a6FJ5W1HXfLyaxZvpBRryy1uBYmkikYr6kLoqKeNKsu/6qyjkN0a37mM8A4TKN7d6YXX5&#xA;c/ljYeaLXyteapqratqPoC2liS3EED3CL6aTFhycsx24U6ge+RGSRF0GZwYxLhJNlC/l/aFdU81/&#xA;llfyK41JZ7e1krRBqFgzGJhXoG4fgBhyHYSY4RvLGev3hT/KLTLrTm1nzMYv9N09RpmjxvsTqd83&#xA;oRgf6gb4vY4cpugjTRIuXUbD3lM5Pym8oHWm8sy6hq7+ZH+FtWNsp0w3DLz4E7yn4jQty65HxTV7&#xA;Uz/LRvhs8Xf0Suz/AC68oad5WGtebtQvbOZNQuNLmtbNI5D60JK/DyGwXgxav0ZI5CTQYDBERuRP&#xA;OmR/mJZ/lvPN5Y/xBqOoW91LollDbraRxskMQ5ss1xyqTyLEcU32rkMZlvXe25xjPDxE/SGHa5+W&#xA;KaJpnmuW7unku/L9xZxWzRgCKaK8+JXYHkQeBGwbY5ZHJZHm0T0/CJX/AA19qzQPy/03UtJ8r3kt&#xA;xMkmu6q+nXCrwokakfElVPxb98ZZCCfILDCCInvNJz/yrjyBe6rq/lnSNV1GXzHpkdzIs0sUQs5H&#xA;tj8UIC/veQoRy6dx4GPiSABI2Z+BAkxBPEPklNr5M8maXoOl6h5v1K8gutcQz2Nrp8Ucno29aLNO&#xA;ZDuG/lXfJGciSB0YDFARBkTv3L/zxjij85wRxSCaJNNsljmAoHURUDAe43xw/SnV/X8A+tM17unl&#xA;X5h/kzfec/OSapJqEdjpqW0UJ4o0s7MjOTRfgUD4hvy+jNbqdCcuTiuhT2nYntTDQaTwhAzycRPc&#xA;N695+z4pz5b/ACT/AC/0TjIbH9JXK/7vvyJt/aOgi/4Wvvl2LQYodL97ga/2s12o24/Dj3Q2+36v&#xA;tZ1HHHGixxqEjQAKigAADoABmYA83KRJs80v8yf8cW4/2H/Jxc0ftJ/iOT/N/wB1FytB/fR+P3FZ&#xA;5Y/448X+s/8AxI5X7Mf4lH3y+8su0P70/BD675hW35W1oeVx0eQdE+Xicwu3faEYbxYTeTqf5v7f&#xA;ubdHoeL1S+n71DQ/L7Mwvb8EsTySJupPXk9f1Zi9h+z5kRn1G5O4ifvl+r5tmr1teiHz/UyTO3dS&#xA;86/P/wD8lhqP/GW2/wCT65dg+pxdZ/dl886L5j020/L/AMxaJKzi/wBSnspLUBaqVt3LPVu2x2zM&#xA;MTxAurhMCBHU0yXzl+Zmkax5d0yC0SRdXvZbW480TstPUksolijAP7QO7ZXDGQfLo3Zc4lEVz6/B&#xA;GwfmloC+ffNN0Z7u20TzJHHEmpWnKK7tnijASVQCG2atQD/TB4R4R3hkNRHjkd6klnmnzXoa+VLn&#xA;SrbzNrHmbUr2VT9ZupbqC2hgRg3BoJJXWVmp3BHfam8oxN3QDDJkHDXEZH4pzd+fPy+b8z7Dzsks&#xA;08d6hGo2ksHx2UqW6Qwyx1qspqvbp1GREJcPCzOaHiCf4DTefvLsGk+YbK981an5iu9XsJ7e1mmg&#xA;eK1hYj4EETyMeTnqyqAAMfDNjal8aIBBkZWEuu/MH5deabjTNe8w395p2rWMEMOoWEEHrLdG3rxa&#xA;GXkBGXFOXL+3CIyjsGJnjnUpEghOF/Mzyvcax5xkttTn0KbW5LaTT9djtjLKI4UVZIWRTzUErsV/&#xA;pkfDNDrTPx4ky3q+qXa7+YPltvL+h2UOp6hrV9o+sxX9zeXyEPcxqKs0ZZ5CgH2VVmrko4zZ6WGM&#xA;80eECySDarF5/wDKOlefdX1Ox1C9n0jzPbTLfzQRtb3VlPM5ZWiJYcjH4jx74PDJiB1CfGjGZIJq&#xA;X2IDzF5r8vw+WNQsIPNWs+aNQv2VLc3Mt3b21vCDVvUjeVhMzDxFPl3lGBvkAwnkjwkcRkT70D5h&#xA;856JffmrpnmWBpDpdrPp0kzFCH42vp+rRf8AYGmGMCIUxnlByCXTZINW8yFfPt95k0pyK6pNf2Ts&#xA;OJo1w0qch7g7jJiPpo9zXKfrMh32zHzv+ZmhS3WkN5Uhkjt7fUm1/UI5hxEl+0isB7hApFffKoYz&#xA;vfub8ueNjh77+Kd3nnvyfe6u/mF/OuvW9nLWaXypE10jiQr/AHcdxHIsKx8vDtkRAgVQ97Yc0CeL&#xA;il7t2EeZPNmm6n5GstOjkk/SK6reX1xDKZJGCXBqhaZ/7xt9yTXuctjAiV+TjzyAwA62WSa9fflN&#xA;5nGi3Woa5dafdaZp1raXsCWkkq3AhQ1SJgPgcMSCzfDSlMhETjezbM4p0SaoOk/MXyv5muvN9hrc&#xA;kmjabr5szpt4sJn+riwIVPUjjPI81AJ49Nx4Y+GY1W9L48ZmQOwlX2NxebPIOkW3lDTdM1Ge8g0P&#xA;VzeX95LbvFzRqEyRx/EQvYLXltjwSNk9QoyQjwgHkUn8l+cNB0v8ytV1y8mZNNuvr/oyhHYn6wzG&#xA;P4QOQrXJTgTEBhiyxGQyPLdUGreQ/NPl/RLbzDqc+ianoUH1MvFbtcx3Nsh5IF4GqSbkVbbBUok1&#xA;va8UJxHEaISf8z9e0LW/McN1obOdOisra2iEqlXX0Y+PFge69KjbJYokDdhqJxlK48qfY+a53rsV&#xA;dirsVS3zJ/xxbj/Yf8nFzR+0n+I5P83/AHUXL0H99H4/cWNxa3NDpUdjbArKS3qSd6M2wX3zisXb&#xA;k8Wkjp8W0t7PvPKP6/k7aWkEspnLkm2heXvS43d6tZuscR34+7e+dD2F7PeHWbOPX0j3eZ8/u9/L&#xA;C1mu4vTDl3sgzsHVuxVKvNHlnS/M2jS6Rqiu1nMyM4jbg1Y2DL8Q9xkoyMTYYZMYmKLCP+hd/wAt&#xA;v983X/SQ39Mt/MScf8ljd/0Lv+W3++br/pIb+mP5iS/ksbv+hd/y2/3zdf8ASQ39MfzEl/JY3f8A&#xA;Qu/5bf75uv8ApIb+mP5iS/ksbv8AoXf8tv8AfN1/0kN/TH8xJfyWN3/Qu/5bf75uv+khv6Y/mJL+&#xA;Sxu/6F3/AC2/3zdf9JDf0x/MSX8ljd/0Lv8Alt/vm6/6SG/pj+Ykv5LG7/oXf8tv983X/SQ39Mfz&#xA;El/JY3f9C7/lt/vm6/6SG/pj+Ykv5LG7/oXf8tv983X/AEkN/TH8xJfyWN3/AELv+W3++br/AKSG&#xA;/pj+Ykv5LG7/AKF3/Lb/AHzdf9JDf0x/MSX8ljd/0Lv+W3++br/pIb+mP5iS/ksbv+hd/wAtv983&#xA;X/SQ39MfzEl/JY3f9C7/AJbf75uv+khv6Y/mJL+Sxu/6F3/Lb/fN1/0kN/TH8xJfyWN3/Qu/5bf7&#xA;5uv+khv6Y/mJL+Sxu/6F3/Lb/fN1/wBJDf0x/MSX8ljd/wBC7/lt/vm6/wCkhv6Y/mJL+Sxu/wCh&#xA;d/y2/wB83X/SQ39MfzEl/JY3f9C7/lt/vm6/6SG/pj+Ykv5LG9Myhy3Yq7FXYql3mJWbR51UFmYo&#xA;ABuSTIuaT2iiZaKYAsnh/wB3Fy9Caygnz+4oXQvL62oFxdANcndV6hP+bswOwvZ8aesuUXl6D+b+&#xA;37ujdrNbx+mP0/enedU652KuxV2KuxV2KuxV2KuxV2KuxV2KuxV2KuxV2KuxV2KuxV2KuxV2KuxV&#xA;2KuxV2Kv/9k=</xmpGImg:image>
               </rdf:li>
            </rdf:Alt>
         </xmp:Thumbnails>
      </rdf:Description>
      <rdf:Description rdf:about=""
            xmlns:xmpMM="http://ns.adobe.com/xap/1.0/mm/"
            xmlns:stRef="http://ns.adobe.com/xap/1.0/sType/ResourceRef#"
            xmlns:stEvt="http://ns.adobe.com/xap/1.0/sType/ResourceEvent#">
         <xmpMM:RenditionClass>default</xmpMM:RenditionClass>
         <xmpMM:OriginalDocumentID>uuid:65E6390686CF11DBA6E2D887CEACB407</xmpMM:OriginalDocumentID>
         <xmpMM:DocumentID>xmp.did:DF273173DEFFE611A30FFCBC9271F209</xmpMM:DocumentID>
         <xmpMM:InstanceID>xmp.iid:DF273173DEFFE611A30FFCBC9271F209</xmpMM:InstanceID>
         <xmpMM:DerivedFrom rdf:parseType="Resource">
            <stRef:instanceID>uuid:d8e50886-422a-498d-8a0e-fa9470ed23fe</stRef:instanceID>
            <stRef:documentID>xmp.did:5450BB51C0E6E611AA659860ADDA4847</stRef:documentID>
            <stRef:originalDocumentID>uuid:65E6390686CF11DBA6E2D887CEACB407</stRef:originalDocumentID>
            <stRef:renditionClass>default</stRef:renditionClass>
         </xmpMM:DerivedFrom>
         <xmpMM:History>
            <rdf:Seq>
               <rdf:li rdf:parseType="Resource">
                  <stEvt:action>saved</stEvt:action>
                  <stEvt:instanceID>xmp.iid:70450AE0C5DBE611B1EFECCB1ED5C2AE</stEvt:instanceID>
                  <stEvt:when>2017-01-16T09:29:19+01:00</stEvt:when>
                  <stEvt:softwareAgent>Adobe Illustrator CS6 (Windows)</stEvt:softwareAgent>
                  <stEvt:changed>/</stEvt:changed>
               </rdf:li>
               <rdf:li rdf:parseType="Resource">
                  <stEvt:action>saved</stEvt:action>
                  <stEvt:instanceID>xmp.iid:DF273173DEFFE611A30FFCBC9271F209</stEvt:instanceID>
                  <stEvt:when>2017-03-03T07:55:56+01:00</stEvt:when>
                  <stEvt:softwareAgent>Adobe Illustrator CS6 (Windows)</stEvt:softwareAgent>
                  <stEvt:changed>/</stEvt:changed>
               </rdf:li>
            </rdf:Seq>
         </xmpMM:History>
      </rdf:Description>
      <rdf:Description rdf:about=""
            xmlns:illustrator="http://ns.adobe.com/illustrator/1.0/">
         <illustrator:StartupProfile>Web</illustrator:StartupProfile>
      </rdf:Description>
      <rdf:Description rdf:about=""
            xmlns:xmpTPg="http://ns.adobe.com/xap/1.0/t/pg/"
            xmlns:stDim="http://ns.adobe.com/xap/1.0/sType/Dimensions#"
            xmlns:xmpG="http://ns.adobe.com/xap/1.0/g/">
         <xmpTPg:NPages>1</xmpTPg:NPages>
         <xmpTPg:HasVisibleTransparency>False</xmpTPg:HasVisibleTransparency>
         <xmpTPg:HasVisibleOverprint>False</xmpTPg:HasVisibleOverprint>
         <xmpTPg:MaxPageSize rdf:parseType="Resource">
            <stDim:w>130.819336</stDim:w>
            <stDim:h>65.810547</stDim:h>
            <stDim:unit>Pixels</stDim:unit>
         </xmpTPg:MaxPageSize>
         <xmpTPg:PlateNames>
            <rdf:Seq>
               <rdf:li>Cyan</rdf:li>
               <rdf:li>Magenta</rdf:li>
               <rdf:li>Yellow</rdf:li>
               <rdf:li>Black</rdf:li>
            </rdf:Seq>
         </xmpTPg:PlateNames>
         <xmpTPg:SwatchGroups>
            <rdf:Seq>
               <rdf:li rdf:parseType="Resource">
                  <xmpG:groupName>Standard-Farbfeldgruppe</xmpG:groupName>
                  <xmpG:groupType>0</xmpG:groupType>
                  <xmpG:Colorants>
                     <rdf:Seq>
                        <rdf:li rdf:parseType="Resource">
                           <xmpG:swatchName>Weiß</xmpG:swatchName>
                           <xmpG:mode>RGB</xmpG:mode>
                           <xmpG:type>PROCESS</xmpG:type>
                           <xmpG:red>255</xmpG:red>
                           <xmpG:green>255</xmpG:green>
                           <xmpG:blue>255</xmpG:blue>
                        </rdf:li>
                        <rdf:li rdf:parseType="Resource">
                           <xmpG:swatchName>Schwarz</xmpG:swatchName>
                           <xmpG:mode>RGB</xmpG:mode>
                           <xmpG:type>PROCESS</xmpG:type>
                           <xmpG:red>0</xmpG:red>
                           <xmpG:green>0</xmpG:green>
                           <xmpG:blue>0</xmpG:blue>
                        </rdf:li>
                        <rdf:li rdf:parseType="Resource">
                           <xmpG:swatchName>R=14 G=49 B=146</xmpG:swatchName>
                           <xmpG:type>PROCESS</xmpG:type>
                           <xmpG:tint>100.000000</xmpG:tint>
                           <xmpG:mode>RGB</xmpG:mode>
                           <xmpG:red>14</xmpG:red>
                           <xmpG:green>49</xmpG:green>
                           <xmpG:blue>145</xmpG:blue>
                        </rdf:li>
                        <rdf:li rdf:parseType="Resource">
                           <xmpG:swatchName>R=255 G=0 B=25</xmpG:swatchName>
                           <xmpG:type>PROCESS</xmpG:type>
                           <xmpG:tint>100.000000</xmpG:tint>
                           <xmpG:mode>RGB</xmpG:mode>
                           <xmpG:red>255</xmpG:red>
                           <xmpG:green>0</xmpG:green>
                           <xmpG:blue>24</xmpG:blue>
                        </rdf:li>
                     </rdf:Seq>
                  </xmpG:Colorants>
               </rdf:li>
               <rdf:li rdf:parseType="Resource">
                  <xmpG:groupName>Graustufen</xmpG:groupName>
                  <xmpG:groupType>1</xmpG:groupType>
                  <xmpG:Colorants>
                     <rdf:Seq>
                        <rdf:li rdf:parseType="Resource">
                           <xmpG:swatchName>R=0 G=0 B=0</xmpG:swatchName>
                           <xmpG:mode>RGB</xmpG:mode>
                           <xmpG:type>PROCESS</xmpG:type>
                           <xmpG:red>0</xmpG:red>
                           <xmpG:green>0</xmpG:green>
                           <xmpG:blue>0</xmpG:blue>
                        </rdf:li>
                     </rdf:Seq>
                  </xmpG:Colorants>
               </rdf:li>
            </rdf:Seq>
         </xmpTPg:SwatchGroups>
      </rdf:Description>
      <rdf:Description rdf:about=""
            xmlns:pdf="http://ns.adobe.com/pdf/1.3/">
         <pdf:Producer>Adobe PDF library 10.01</pdf:Producer>
      </rdf:Description>
   </rdf:RDF>
</x:xmpmeta>
                                                                                                    
                                                                                                    
                                                                                                    
                                                                                                    
                                                                                                    
                                                                                                    
                                                                                                    
                                                                                                    
                                                                                                    
                                                                                                    
                                                                                                    
                                                                                                    
                                                                                                    
                                                                                                    
                                                                                                    
                                                                                                    
                                                                                                    
                                                                                                    
                                                                                                    
                                                                                                    
                           
<?xpacket end="w"?>
	</metadata>
<g id="Ebene_1">
	<g>
		<path fill="#1B5768" d="M40.217,36.279v11.594h89.753c0-5.128,0-7.109,0-11.594H40.217z"/>
		<g>
			<polygon fill="#1B5768" points="48.539,27.908 48.491,27.908 45.877,16.544 40.254,16.544 40.254,33.252 43.656,33.252 
				43.656,20.364 43.703,20.364 46.756,33.252 50.091,33.252 53.304,20.364 53.352,20.364 53.352,33.252 56.752,33.252 
				56.752,16.544 51.314,16.544 			"/>
			<polygon fill="#1B5768" points="63.093,25.802 68.278,25.802 68.278,23.232 63.093,23.232 63.093,19.113 68.717,19.113 
				68.717,16.544 59.6,16.544 59.6,33.252 68.9,33.252 68.9,30.686 63.093,30.686 			"/>
			<polygon fill="#1B5768" points="81.118,16.544 69.852,16.544 69.852,19.321 73.738,19.321 73.738,33.252 77.232,33.252 
				77.232,19.321 81.118,19.321 			"/>
			<path fill="#1B5768" d="M84.707,16.544l-4.628,16.708h3.448l0.949-3.704h4.765l0.925,3.704h3.68l-4.534-16.708H84.707z
				 M85.168,26.982l1.599-7.22h0.046l1.689,7.22H85.168z"/>
			<polygon fill="#1B5768" points="99.562,28.694 99.516,28.694 93.854,10.402 90.221,10.402 90.222,10.408 0.993,10.408 
				0.993,13.212 91.103,13.212 97.41,33.252 101.506,33.252 105.925,16.544 102.479,16.544 			"/>
			<polygon fill="#1B5768" points="110.992,25.802 116.178,25.802 116.178,23.232 110.992,23.232 110.992,19.113 116.615,19.113 
				116.615,16.544 107.501,16.544 107.501,33.252 116.803,33.252 116.803,30.686 110.992,30.686 			"/>
			<path fill="#1B5768" d="M129.297,28.345c0-3.008-2.27-3.193-3.032-3.286v-0.046c2.268-0.37,3.1-1.966,3.1-4.096
				c0-2.846-1.525-4.373-3.91-4.373h-6.455v16.708h3.495v-6.917h0.901c2.685,0,2.499,1.688,2.499,3.677
				c0,1.089-0.093,2.222,0.37,3.24h3.425C129.364,32.559,129.297,29.41,129.297,28.345z M124.043,23.763h-1.549v-4.649h1.549
				c1.11,0,1.784,0.602,1.784,2.198C125.827,22.375,125.433,23.763,124.043,23.763z"/>
		</g>
		<g>
			<g>
				<polygon points="7.286,33.031 1.007,33.031 1.007,16.635 32.56,16.635 32.56,18.684 3.056,18.684 3.056,30.981 7.286,30.981 
									"/>
			</g>
		</g>
		<g>
			<polygon fill="#FF0000" points="6.427,45.22 6.387,25.669 33.443,18.379 33.977,20.356 8.438,27.239 8.471,42.325 20.658,38.004 
				21.344,39.936 			"/>
		</g>
		<g>
			<polygon fill="#FFCC17" points="20.161,54.841 20.208,32.216 36.02,19.778 37.285,21.39 22.255,33.21 22.221,49.725 
				37.273,36.096 38.754,37.512 			"/>
		</g>
		<g>
			<g>
				<g>
					<path fill="#FFFFFF" d="M43.231,45.414v-7.063h1.462l1.739,4.999c0.161,0.469,0.277,0.815,0.354,1.045
						c0.079-0.256,0.211-0.632,0.386-1.127l1.759-4.917h1.31v7.063h-0.938v-5.912l-2.132,5.912h-0.874l-2.13-6.014v6.014H43.231z"/>
					<path fill="#FFFFFF" d="M55.465,43.766l0.935,0.113c-0.15,0.521-0.423,0.932-0.818,1.217c-0.397,0.29-0.905,0.434-1.522,0.434
						c-0.777,0-1.398-0.226-1.852-0.688c-0.454-0.462-0.687-1.109-0.687-1.944c0-0.861,0.232-1.528,0.693-2.001
						c0.463-0.476,1.06-0.714,1.794-0.714c0.711,0,1.288,0.234,1.742,0.693c0.453,0.471,0.679,1.127,0.679,1.971
						c0,0.051-0.003,0.128-0.003,0.23h-3.969c0.033,0.561,0.195,0.991,0.496,1.292c0.294,0.296,0.665,0.448,1.108,0.448
						c0.334,0,0.614-0.086,0.845-0.254C55.146,44.4,55.328,44.131,55.465,43.766z M52.505,42.365h2.971
						c-0.042-0.433-0.155-0.751-0.344-0.97c-0.282-0.329-0.659-0.499-1.116-0.499c-0.41,0-0.763,0.132-1.042,0.399
						C52.691,41.562,52.536,41.921,52.505,42.365z"/>
					<path fill="#FFFFFF" d="M59.323,44.634l0.134,0.773c-0.255,0.047-0.485,0.075-0.685,0.075c-0.328,0-0.581-0.046-0.763-0.15
						c-0.184-0.104-0.307-0.233-0.378-0.397c-0.074-0.157-0.113-0.497-0.113-1.017v-2.942h-0.66v-0.681h0.66v-1.266l0.898-0.519
						v1.784h0.906v0.681h-0.906v2.987c0,0.247,0.016,0.406,0.051,0.477c0.028,0.073,0.078,0.129,0.153,0.166
						c0.069,0.051,0.175,0.064,0.308,0.064C59.03,44.67,59.16,44.663,59.323,44.634z"/>
					<path fill="#FFFFFF" d="M63.974,44.784c-0.335,0.274-0.654,0.464-0.963,0.577c-0.309,0.112-0.645,0.168-0.992,0.168
						c-0.586,0-1.035-0.138-1.35-0.411c-0.314-0.276-0.475-0.625-0.475-1.054c0-0.25,0.063-0.479,0.185-0.688
						c0.112-0.201,0.269-0.371,0.464-0.497c0.19-0.123,0.406-0.221,0.645-0.285c0.18-0.042,0.444-0.088,0.804-0.132
						c0.726-0.078,1.261-0.18,1.609-0.296c0-0.122,0.004-0.195,0.004-0.228c0-0.356-0.084-0.602-0.258-0.74
						c-0.229-0.201-0.569-0.299-1.022-0.299c-0.428,0-0.738,0.071-0.941,0.215c-0.204,0.141-0.352,0.396-0.449,0.753l-0.879-0.112
						c0.076-0.36,0.211-0.656,0.396-0.88c0.183-0.223,0.449-0.393,0.795-0.51c0.349-0.124,0.75-0.184,1.208-0.184
						c0.453,0,0.824,0.051,1.108,0.152c0.282,0.104,0.492,0.234,0.625,0.392c0.133,0.149,0.223,0.351,0.28,0.585
						c0.027,0.15,0.048,0.418,0.048,0.804v1.158c0,0.802,0.014,1.314,0.051,1.526c0.038,0.215,0.117,0.42,0.229,0.614h-0.945
						C64.061,45.233,64.002,45.025,63.974,44.784z M63.9,42.847c-0.328,0.128-0.819,0.239-1.477,0.329
						c-0.365,0.049-0.629,0.106-0.784,0.171c-0.152,0.065-0.271,0.161-0.355,0.284c-0.083,0.126-0.126,0.264-0.126,0.411
						c0,0.229,0.091,0.425,0.274,0.577c0.179,0.152,0.445,0.229,0.8,0.229c0.349,0,0.656-0.071,0.922-0.219
						c0.278-0.144,0.469-0.343,0.599-0.597c0.097-0.196,0.147-0.488,0.147-0.87V42.847z"/>
					<path fill="#FFFFFF" d="M69.485,45.414v-0.647c-0.34,0.508-0.835,0.763-1.492,0.763c-0.421,0-0.809-0.115-1.164-0.336
						c-0.356-0.228-0.632-0.537-0.827-0.945c-0.195-0.402-0.293-0.864-0.293-1.384c0-0.515,0.086-0.974,0.265-1.394
						c0.176-0.418,0.442-0.733,0.796-0.954c0.354-0.226,0.748-0.334,1.186-0.334c0.324,0,0.608,0.066,0.855,0.194
						c0.252,0.131,0.457,0.301,0.612,0.508v-2.533h0.897v7.063H69.485z M66.636,42.864c0,0.649,0.144,1.143,0.429,1.468
						c0.288,0.324,0.628,0.485,1.02,0.485c0.39,0,0.727-0.154,1-0.464c0.275-0.312,0.416-0.784,0.416-1.418
						c0-0.703-0.141-1.215-0.421-1.542s-0.63-0.493-1.034-0.493c-0.405,0-0.738,0.152-1.007,0.473
						C66.768,41.685,66.636,42.182,66.636,42.864z"/>
					<path fill="#FFFFFF" d="M75.031,44.784c-0.33,0.274-0.656,0.464-0.959,0.577c-0.314,0.112-0.646,0.168-0.993,0.168
						c-0.588,0-1.035-0.138-1.353-0.411c-0.313-0.276-0.472-0.625-0.472-1.054c0-0.25,0.063-0.479,0.18-0.688
						c0.116-0.201,0.273-0.371,0.469-0.497c0.191-0.123,0.405-0.221,0.648-0.285c0.175-0.042,0.438-0.088,0.796-0.132
						c0.731-0.078,1.27-0.18,1.613-0.296c0-0.122,0.004-0.195,0.004-0.228c0-0.356-0.091-0.602-0.26-0.74
						c-0.229-0.201-0.566-0.299-1.025-0.299c-0.422,0-0.734,0.071-0.937,0.215c-0.204,0.141-0.353,0.396-0.449,0.753l-0.883-0.112
						c0.086-0.36,0.215-0.656,0.397-0.88c0.184-0.223,0.449-0.393,0.794-0.51c0.351-0.124,0.754-0.184,1.211-0.184
						c0.452,0,0.818,0.051,1.109,0.152c0.277,0.104,0.491,0.234,0.624,0.392c0.132,0.149,0.226,0.351,0.277,0.585
						c0.03,0.15,0.046,0.418,0.046,0.804v1.158c0,0.802,0.021,1.314,0.056,1.526c0.043,0.215,0.118,0.42,0.231,0.614h-0.942
						C75.121,45.233,75.058,45.025,75.031,44.784z M74.961,42.847c-0.329,0.128-0.821,0.239-1.477,0.329
						c-0.368,0.049-0.633,0.106-0.784,0.171c-0.152,0.065-0.275,0.161-0.355,0.284c-0.083,0.126-0.125,0.264-0.125,0.411
						c0,0.229,0.089,0.425,0.271,0.577c0.182,0.152,0.447,0.229,0.799,0.229s0.656-0.071,0.925-0.219
						c0.273-0.144,0.473-0.343,0.599-0.597c0.102-0.196,0.147-0.488,0.147-0.87V42.847z"/>
					<path fill="#FFFFFF" d="M79.065,44.634l0.13,0.773c-0.254,0.047-0.485,0.075-0.684,0.075c-0.329,0-0.581-0.046-0.763-0.15
						c-0.18-0.104-0.309-0.233-0.378-0.397c-0.073-0.157-0.111-0.497-0.111-1.017v-2.942h-0.664v-0.681h0.664v-1.266l0.896-0.519
						v1.784h0.91v0.681h-0.91v2.987c0,0.247,0.016,0.406,0.051,0.477c0.027,0.073,0.078,0.129,0.153,0.166
						c0.069,0.051,0.175,0.064,0.308,0.064C78.769,44.67,78.896,44.663,79.065,44.634z"/>
					<path fill="#FFFFFF" d="M83.882,43.766l0.936,0.113c-0.152,0.521-0.421,0.932-0.818,1.217c-0.396,0.29-0.907,0.434-1.524,0.434
						c-0.777,0-1.395-0.226-1.852-0.688s-0.684-1.109-0.684-1.944c0-0.861,0.229-1.528,0.692-2.001
						c0.461-0.476,1.062-0.714,1.793-0.714c0.715,0,1.293,0.234,1.747,0.693c0.451,0.471,0.669,1.127,0.669,1.971
						c0,0.051,0,0.128-0.002,0.23h-3.965c0.035,0.561,0.199,0.991,0.495,1.292c0.299,0.296,0.668,0.448,1.113,0.448
						c0.328,0,0.609-0.086,0.844-0.254C83.56,44.4,83.744,44.131,83.882,43.766z M80.921,42.365h2.977
						c-0.046-0.433-0.158-0.751-0.345-0.97c-0.288-0.329-0.659-0.499-1.118-0.499c-0.413,0-0.761,0.132-1.046,0.399
						C81.107,41.562,80.951,41.921,80.921,42.365z"/>
					<path fill="#FFFFFF" d="M85.774,45.414v-5.119h0.807v0.733c0.393-0.569,0.956-0.846,1.697-0.846c0.32,0,0.608,0.06,0.883,0.163
						c0.27,0.113,0.468,0.259,0.602,0.438c0.134,0.184,0.23,0.396,0.281,0.646c0.03,0.154,0.051,0.438,0.051,0.84v3.146H89.19v-3.11
						c0-0.352-0.029-0.619-0.101-0.798c-0.073-0.172-0.194-0.307-0.373-0.413c-0.18-0.11-0.391-0.159-0.63-0.159
						c-0.388,0-0.718,0.115-0.995,0.354c-0.282,0.234-0.418,0.681-0.418,1.332v2.795H85.774z"/>
					<path fill="#FFFFFF" d="M94.138,45.414l-2.849-7.063h1.06l1.9,5.13c0.156,0.415,0.287,0.797,0.388,1.152
						c0.116-0.377,0.249-0.769,0.399-1.152l1.983-5.13h0.993l-2.88,7.063H94.138z"/>
					<path fill="#FFFFFF" d="M101.241,43.811l0.929,0.117c-0.145,0.523-0.418,0.928-0.815,1.215c-0.4,0.294-0.901,0.433-1.524,0.433
						c-0.777,0-1.39-0.229-1.846-0.691c-0.456-0.459-0.688-1.109-0.688-1.936c0-0.859,0.231-1.526,0.691-2.004
						c0.461-0.477,1.059-0.713,1.796-0.713c0.711,0,1.293,0.228,1.74,0.695c0.45,0.467,0.678,1.118,0.678,1.967
						c0,0.051,0,0.128-0.004,0.229h-3.969c0.031,0.562,0.2,0.992,0.498,1.288c0.299,0.305,0.67,0.45,1.111,0.45
						c0.327,0,0.614-0.077,0.847-0.247C100.916,44.451,101.103,44.177,101.241,43.811z M98.28,42.414h2.969
						c-0.039-0.431-0.152-0.756-0.336-0.97c-0.29-0.336-0.661-0.5-1.121-0.5c-0.414,0-0.76,0.133-1.043,0.398
						C98.464,41.607,98.311,41.968,98.28,42.414z"/>
					<path fill="#FFFFFF" d="M103.12,45.458v-5.112h0.811v0.778c0.209-0.367,0.4-0.605,0.571-0.718
						c0.176-0.117,0.37-0.175,0.582-0.175c0.304,0,0.608,0.093,0.926,0.278l-0.313,0.802c-0.219-0.126-0.442-0.188-0.661-0.188
						c-0.197,0-0.375,0.058-0.531,0.172c-0.155,0.113-0.269,0.271-0.33,0.476c-0.103,0.305-0.152,0.649-0.152,1.012v2.675H103.12z"
						/>
					<path fill="#FFFFFF" d="M107.123,45.458h-0.842v-7.061h0.907v2.519c0.38-0.457,0.863-0.685,1.453-0.685
						c0.328,0,0.639,0.06,0.93,0.189c0.292,0.124,0.531,0.306,0.723,0.53c0.188,0.23,0.336,0.511,0.441,0.835
						c0.109,0.323,0.161,0.67,0.161,1.041c0,0.879-0.225,1.553-0.674,2.03c-0.453,0.475-0.992,0.718-1.628,0.718
						c-0.624,0-1.117-0.249-1.472-0.753V45.458z M107.112,42.864c0,0.614,0.085,1.054,0.257,1.33c0.29,0.444,0.67,0.667,1.152,0.667
						c0.394,0,0.736-0.165,1.021-0.492c0.291-0.327,0.431-0.819,0.431-1.472c0-0.667-0.137-1.162-0.409-1.476
						c-0.274-0.322-0.61-0.478-1.006-0.478c-0.394,0-0.729,0.164-1.018,0.493C107.256,41.765,107.112,42.239,107.112,42.864z"/>
					<path fill="#FFFFFF" d="M115.306,45.458v-0.749c-0.414,0.577-0.973,0.866-1.688,0.866c-0.312,0-0.604-0.053-0.882-0.17
						c-0.271-0.119-0.468-0.263-0.603-0.439c-0.133-0.173-0.226-0.389-0.28-0.639c-0.035-0.168-0.051-0.446-0.051-0.813v-3.168
						h0.897v2.837c0,0.453,0.02,0.758,0.055,0.917c0.063,0.228,0.176,0.402,0.362,0.534c0.181,0.129,0.408,0.197,0.685,0.197
						c0.266,0,0.52-0.068,0.758-0.201c0.237-0.131,0.406-0.312,0.506-0.546c0.096-0.226,0.143-0.563,0.143-0.998v-2.74h0.906v5.112
						H115.306z"/>
					<path fill="#FFFFFF" d="M117.351,45.458v-5.112h0.808v0.728c0.391-0.563,0.958-0.842,1.696-0.842
						c0.321,0,0.613,0.053,0.886,0.161c0.271,0.115,0.471,0.259,0.603,0.441c0.132,0.175,0.227,0.392,0.277,0.637
						c0.035,0.166,0.054,0.441,0.054,0.844v3.144h-0.9V42.35c0-0.354-0.04-0.616-0.111-0.793c-0.065-0.175-0.188-0.315-0.371-0.422
						c-0.176-0.102-0.386-0.157-0.629-0.157c-0.386,0-0.713,0.122-0.99,0.356c-0.282,0.233-0.418,0.68-0.418,1.336v2.788H117.351z"
						/>
					<path fill="#FFFFFF" d="M126.333,45.458v-0.641c-0.338,0.506-0.836,0.758-1.491,0.758c-0.426,0-0.812-0.108-1.168-0.336
						c-0.355-0.221-0.629-0.543-0.824-0.94c-0.195-0.402-0.293-0.866-0.293-1.393c0-0.51,0.091-0.974,0.262-1.392
						c0.176-0.408,0.442-0.731,0.799-0.952c0.354-0.221,0.749-0.331,1.186-0.331c0.323,0,0.609,0.06,0.855,0.194
						c0.254,0.128,0.456,0.301,0.613,0.508v-2.536h0.894v7.061H126.333z M123.482,42.906c0,0.659,0.141,1.146,0.431,1.474
						c0.285,0.32,0.624,0.481,1.016,0.481c0.393,0,0.729-0.152,1.001-0.461c0.278-0.316,0.416-0.784,0.416-1.421
						c0-0.7-0.138-1.215-0.423-1.542c-0.276-0.327-0.625-0.49-1.034-0.49c-0.396,0-0.738,0.159-1.003,0.475
						C123.617,41.733,123.482,42.23,123.482,42.906z"/>
				</g>
			</g>
		</g>
	</g>
</g>
<g id="HH_Logo">
</g>
</svg>
