<?xml version="1.0" encoding="UTF-8"?>
<svg width="225px" height="60px" viewBox="0 0 225 60" version="1.1" xmlns="http://www.w3.org/2000/svg" xmlns:xlink="http://www.w3.org/1999/xlink">
    <title>assets/images/metaver/svg-raw/logos/logo-metaver</title>
    <g id="assets/images/metaver/svg-raw/logos/logo-metaver" stroke="none" stroke-width="1" fill="none" fill-rule="evenodd">
        <g id="Logo_Metaver_RGB_Farbig" fill-rule="nonzero">
            <path d="M55.8786601,36.2920256 L14.038959,36.2920256 L14.038959,39.8274041 L40.9374935,39.8274041 L55.9049918,36.3266726 C56.0241774,36.286482 56.0532809,36.2310469 56.0574385,36.1589811 C56.0413545,36.2429744 55.9637344,36.3007382 55.8786601,36.2920256 Z" id="Path" fill="#1C5868"></path>
            <path d="M56.3041251,0.776092501 C56.1570054,0.629328992 55.9575799,0.547421235 55.7497733,0.547421235 L4.55399992,0.583455255 C4.3461456,0.584222275 4.14696904,0.666880547 3.99964814,0.813511246 L0.924381604,3.88877778 C0.777750904,4.03609868 0.695092633,4.23527524 0.694325612,4.44312957 L0.694325612,35.9663439 C0.694942677,36.1742284 0.777623672,36.3734597 0.924381604,36.5206957 L3.99964814,39.5959622 C4.14696904,39.7425929 4.3461456,39.8252512 4.55399992,39.8260182 L10.5035805,39.8260182 L10.5035805,36.2920256 L5.01411191,36.2920256 C4.58013005,36.2920256 4.22831825,35.9402138 4.22831825,35.5062319 L4.22831825,4.90462743 C4.22831825,4.47064558 4.58013005,4.11883377 5.01411191,4.11883377 L35.8125113,4.0966597 L55.6735499,0.616716362 C55.9261549,0.572465614 56.1845213,0.653592673 56.3664896,0.834299438 L56.913912,1.37756419 L56.913912,1.37756419 L56.3041251,0.776092501 Z" id="Path" fill="#1C5868"></path>
            <path d="M56.062982,36.1811552 L56.062982,36.1589811 C56.0596274,36.1794804 56.0525841,36.1992016 56.0421938,36.2171881 C56.0463515,36.2033293 56.062982,36.1963999 56.062982,36.1811552 Z" id="Path" fill="#00829B"></path>
            <path d="M23.8606868,43.8187369 L23.8606868,47.4428117 L46.4837832,42.1307358 L55.9687422,36.3433031 C55.9992316,36.3252867 56.0006174,36.286482 56.017248,36.2573786 C55.9878193,36.2875384 55.9510404,36.3095102 55.9105353,36.321129 L23.8606868,43.8187369 Z" id="Path" fill="#067B9B"></path>
            <path d="M56.3637179,0.831527679 C56.1817495,0.650820914 55.9233831,0.569693855 55.6707781,0.613944603 L13.7077338,7.97019281 C13.5250627,8.00150004 13.3595005,8.09680882 13.2406924,8.23905342 L10.6865166,11.2879882 C10.5684409,11.4295858 10.5035805,11.60808 10.5035805,11.7924484 L10.5035805,45.7894575 C10.5035805,45.9974328 10.5864939,46.1968303 10.7336365,46.3438093 L13.8075171,49.4163041 C13.9994309,49.6088317 14.277468,49.688046 14.5420332,49.6255719 L20.3239224,48.2701818 L20.3239224,44.6447211 L15.0035311,45.8920126 C14.7692148,45.9485535 14.5219111,45.8944243 14.3326388,45.7451696 C14.1433664,45.5959148 14.033067,45.3680484 14.0334155,45.1270072 L14.0334155,12.1610923 C14.033621,11.7794345 14.3075769,11.452907 14.6833929,11.3863857 L43.3780273,6.33346916 L55.5737666,0.771934862 C55.8709797,0.636545142 56.2209822,0.699479351 56.4524142,0.929925121 L56.3637179,0.831527679 Z" id="Path" fill="#067B9B"></path>
            <path d="M59.3780057,3.83057084 L56.4676588,0.929925121 C56.2355913,0.699610891 55.8853143,0.636726513 55.5876254,0.771934862 L22.5773624,15.8198141 C22.4391324,15.8825802 22.322129,15.9841757 22.2405937,16.1122347 L20.4472656,18.9269559 C20.3680337,19.0512613 20.3252972,19.1953167 20.3239224,19.3427197 L20.3239224,55.615343 C20.3239224,55.8233182 20.4068358,56.0227158 20.5539784,56.1696947 L23.7913928,59.4195821 C24.0481621,59.6796391 24.4505014,59.7279198 24.7615084,59.535996 L57.7454397,39.4407437 C57.8610884,39.3707002 57.9565904,39.2718556 58.0226156,39.1538667 L59.5179795,36.4929781 C59.5844687,36.3754695 59.6191494,36.2427186 59.6191494,36.1077036 L59.6191494,4.38769439 C59.6164899,4.17721455 59.5296427,3.97656756 59.3780057,3.83057084 Z M56.062982,36.1811552 C56.062982,36.2496427 56.0271949,36.313156 55.9687422,36.3488466 L25.0553149,55.2106662 C24.8131344,55.3592583 24.5095332,55.3652696 24.2616607,55.2263804 C24.0137881,55.0874913 23.8606857,54.8254182 23.8606857,54.5412864 L23.8606857,19.6171238 C23.860182,19.3116979 24.0370081,19.0337511 24.3138693,18.9047818 L55.7830344,4.23109001 C55.8437835,4.20390525 55.9141568,4.20926698 55.9700862,4.24534146 C56.0260156,4.28141594 56.0599224,4.34331483 56.0602103,4.40986846 L56.062982,36.1811552 Z" id="Shape" fill="#33CC99"></path>
            <polygon id="Path" fill="#1C5868" points="88.9914781 12.7500911 88.8847654 12.7500911 87.0595622 16.4004976 82.1923535 25.2382509 77.4332434 16.4351446 75.5304309 12.4950893 75.4237182 12.4950893 75.4237182 29.135344 70.3125947 29.135344 70.3125947 4.1576384 76.0736956 4.1576384 82.1923535 15.8586187 82.2644192 15.8586187 88.3123972 4.1576384 94.1081451 4.1576384 94.1081451 29.135344 88.9914781 29.135344"></polygon>
            <polygon id="Path" fill="#1C5868" points="99.1180994 29.135344 99.1180994 4.1576384 116.114525 4.1576384 116.114525 8.98742833 104.557676 8.98742833 104.557676 14.0694483 114.473644 14.0694483 114.473644 18.9006242 104.557676 18.9006242 104.557676 24.3055541 116.114525 24.3055541 116.114525 29.1367299"></polygon>
            <polygon id="Path" fill="#1C5868" points="130.752184 8.98742833 130.752184 29.135344 125.312607 29.135344 125.312607 8.98742833 118.549515 8.98742833 118.549515 4.1576384 137.51389 4.1576384 137.51389 8.98742833"></polygon>
            <path d="M153.796588,29.135344 L152.007417,23.1940787 L143.671352,23.1940787 L141.882182,29.135344 L136.370539,29.135344 L144.601278,4.1576384 L151.328336,4.1576384 L159.452362,29.135344 L153.796588,29.135344 Z M147.894127,9.09552693 L147.713963,9.09552693 L144.962992,18.5777142 L150.68806,18.5777142 L147.894127,9.09552693 Z" id="Shape" fill="#1C5868"></path>
            <polygon id="Path" fill="#1C5868" points="166.284748 29.135344 158.234174 4.1576384 163.744431 4.1576384 167.466903 16.1441099 169.434852 23.9812583 169.541564 23.9812583 171.438833 16.1441099 175.15992 4.1576384 180.491398 4.1576384 172.368759 29.135344"></polygon>
            <polygon id="Path" fill="#1C5868" points="183.246526 29.135344 183.246526 4.1576384 200.244338 4.1576384 200.244338 8.98742833 188.686103 8.98742833 188.686103 14.0694483 198.596527 14.0694483 198.596527 18.9006242 188.683332 18.9006242 188.683332 24.3055541 200.241566 24.3055541 200.241566 29.1367299"></polygon>
            <path d="M209.90669,29.135344 L204.467113,29.135344 L204.467113,4.1576384 L216.312225,4.1576384 C217.37723,4.14306807 218.434753,4.33752801 219.42491,4.73000662 C220.327121,5.09322457 221.139198,5.6489562 221.804465,6.35841499 C222.478027,7.08739053 222.996648,7.94547349 223.328932,8.88071562 C223.698383,9.92623122 223.880416,11.0287458 223.866654,12.1375324 C223.902045,13.6908371 223.51245,15.224301 222.739934,16.5723467 C221.956849,17.8611305 220.747956,18.8356965 219.322355,19.327475 L224.224211,29.1325722 L218.177618,29.1325722 L213.810712,19.971909 L209.910847,19.971909 L209.90669,29.135344 Z M215.631758,15.3929632 C216.32631,15.4329469 217.010351,15.209223 217.547043,14.7665457 C218.036765,14.2838078 218.290065,13.6105362 218.239983,12.9247119 L218.239983,11.3489669 C218.288741,10.6633346 218.035642,9.99059964 217.547043,9.50713313 C217.009817,9.0654283 216.326167,8.84183225 215.631758,8.88071562 L209.90669,8.88071562 L209.90669,15.3943491 L215.631758,15.3929632 Z" id="Shape" fill="#1C5868"></path>
            <polygon id="Path" fill="#1C5868" points="78.0250139 41.3380127 77.9543341 41.3380127 77.1228064 42.9927528 74.7668113 47.2889791 72.4108162 42.9927528 71.5792885 41.3380127 71.5086087 41.3380127 71.5086087 49.6532895 70.3500134 49.6532895 70.3500134 39.7830559 71.9326878 39.7830559 74.7612678 45.1006755 74.8319476 45.1006755 77.6743864 39.7830559 79.1988538 39.7830559 79.1988538 49.6546754 78.0250139 49.6546754"></polygon>
            <path d="M86.8295062,49.8237527 C86.365588,49.8308075 85.9054699,49.7391618 85.4796596,49.5548921 C85.0817582,49.3785759 84.7284662,49.1152645 84.4457935,48.7843431 C84.1482831,48.4309415 83.9227706,48.0227591 83.7819572,47.5827856 C83.4714886,46.5566444 83.4714886,45.4615944 83.7819572,44.4354533 C83.9214759,43.9928314 84.1470747,43.5821378 84.4457935,43.2269664 C84.7288336,42.8960918 85.0820029,42.6323983 85.4796596,42.4550316 C85.9054699,42.2707618 86.365588,42.1791161 86.8295062,42.1861709 C87.2821856,42.1781368 87.7311229,42.269438 88.1447058,42.4536457 C88.5238451,42.6270651 88.8612993,42.8799195 89.1342237,43.1950912 C89.4157852,43.5231831 89.6296238,43.9037594 89.763413,44.3148818 C89.914112,44.772663 89.9885555,45.2520982 89.9837678,45.7340224 L89.9837678,46.2703577 L84.7368282,46.2703577 L84.7368282,46.6085123 C84.7344723,46.9051039 84.7846777,47.1997676 84.8851173,47.4788446 C84.9783732,47.7380887 85.1225638,47.9760503 85.3091964,48.1787137 C85.49927,48.3814948 85.7309161,48.5408106 85.9882773,48.6457551 C86.2777683,48.762918 86.5879347,48.820426 86.900186,48.8148324 C87.3261687,48.8244724 87.7460049,48.711939 88.1100588,48.4905366 C88.461851,48.2640346 88.7394148,47.9392465 88.9083254,47.5564539 L89.7149072,48.141295 C89.4744279,48.6480321 89.088447,49.0716462 88.6062036,49.3580972 C88.0690111,49.6760292 87.4535833,49.8373269 86.8295062,49.8237527 Z M86.8295062,43.1354984 C86.5388774,43.1317878 86.2504607,43.1864551 85.9813479,43.2962604 C85.7318092,43.40001 85.507355,43.5559465 85.3230552,43.7536006 C85.1355635,43.9542567 84.9891435,44.1896586 84.8920467,44.4465403 C84.7856894,44.7271043 84.7330351,45.0251652 84.7368282,45.3251879 L84.7368282,45.4235854 L88.7669657,45.4235854 L88.7669657,45.2683669 C88.7953202,44.7016721 88.6053565,44.1456685 88.2361738,43.714796 C87.8758017,43.3234966 87.3609244,43.1114584 86.8295062,43.1354984 L86.8295062,43.1354984 Z" id="Shape" fill="#1C5868"></path>
            <path d="M95.8529674,49.6546754 C95.5196065,49.6788678 95.1920948,49.5575672 94.9549175,49.3220643 C94.7457558,49.0827792 94.6370302,48.7719926 94.6514099,48.4545038 L94.6514099,43.3613967 L93.4484665,43.3613967 L93.4484665,42.3566341 L94.1275474,42.3566341 C94.3080672,42.3784598 94.4895906,42.3248051 94.6292358,42.208345 C94.7355001,42.0585528 94.7846591,41.8756813 94.7678237,41.6927978 L94.7678237,40.3290925 L95.7864451,40.3290925 L95.7864451,42.3510906 L97.3843642,42.3510906 L97.3843642,43.3558532 L95.7822875,43.3558532 L95.7822875,48.6443692 L97.2665644,48.6443692 L97.2665644,49.6491319 L95.8529674,49.6546754 Z" id="Path" fill="#1C5868"></path>
            <path d="M106.898427,49.6546754 C106.557909,49.6885006 106.220853,49.5631912 105.985132,49.3151349 C105.793862,49.0691186 105.673994,48.7752035 105.638662,48.4655908 L105.567982,48.4655908 C105.431545,48.8876423 105.151547,49.2485509 104.776645,49.4855981 C104.378515,49.7191394 103.922848,49.8362971 103.461446,49.8237527 C102.807209,49.86319 102.162652,49.650982 101.659802,49.2305963 C101.222124,48.8113541 100.988,48.2227574 101.01814,47.6174326 C100.98601,46.9956952 101.270139,46.3998057 101.773444,46.0333723 C102.48343,45.6115641 103.305859,45.4180512 104.12944,45.4790205 L105.57214,45.4790205 L105.57214,44.7639067 C105.602227,44.3266568 105.448521,43.896681 105.148061,43.5775939 C104.785173,43.2744661 104.318139,43.125254 103.84672,43.1618301 C103.455826,43.1477426 103.069671,43.2510393 102.738017,43.4584083 C102.434558,43.6631373 102.181133,43.9336154 101.996571,44.2497455 L101.316104,43.6136268 C101.53403,43.1967069 101.861837,42.847333 102.264046,42.6033207 C103.443104,41.9707291 104.878699,42.0603867 105.969887,42.8347625 C106.471745,43.2954082 106.741625,43.9561331 106.705789,44.6364058 L106.705789,48.6443692 L107.537317,48.6443692 L107.537317,49.6491319 L106.898427,49.6546754 Z M103.644382,48.8619523 C103.907256,48.8644804 104.16926,48.8313802 104.423246,48.7635549 C104.640073,48.7069125 104.845449,48.6131338 105.030261,48.486379 C105.190982,48.3741823 105.326076,48.2291691 105.426623,48.060914 C105.519481,47.9026025 105.567397,47.7219599 105.565211,47.5384374 L105.565211,46.3299505 L104.069847,46.3299505 C103.579625,46.293644 103.088629,46.3893547 102.647934,46.6071264 C102.360699,46.7787659 102.189688,47.0931713 102.201681,47.4275671 L102.201681,47.7255312 C102.187251,48.0498033 102.332776,48.3605327 102.591113,48.5570588 C102.898722,48.7725857 103.269208,48.8798316 103.644382,48.8619523 L103.644382,48.8619523 Z" id="Shape" fill="#1C5868"></path>
            <path d="M116.204607,48.4794496 L116.1464,48.4794496 C115.781244,49.3262729 114.932217,49.8607023 114.01076,49.8237527 C113.585808,49.8295595 113.165213,49.7375689 112.781485,49.5548921 C112.413345,49.3766018 112.091318,49.1157552 111.840473,48.7926583 C111.566923,48.4330389 111.365078,48.0241725 111.245931,47.5883291 C110.972462,46.5504628 110.972462,45.4594608 111.245931,44.4215945 C111.364788,43.9860648 111.566667,43.5775992 111.840473,43.2186511 C112.092048,42.8959178 112.413868,42.6347651 112.781485,42.4550316 C113.165213,42.2723547 113.585808,42.1803641 114.01076,42.1861709 C114.468924,42.1733562 114.921706,42.2875109 115.31903,42.5160102 C115.700011,42.7543861 115.992157,43.1112909 116.150558,43.5318599 L116.208765,43.5318599 L116.208765,39.1885136 L117.339643,39.1885136 L117.339643,49.6546754 L116.208765,49.6546754 L116.204607,48.4794496 Z M114.322583,48.8189901 C114.568534,48.8205872 114.813478,48.7874614 115.05017,48.7205926 C115.266629,48.6608019 115.470428,48.5621897 115.651641,48.4295579 C115.819202,48.3047481 115.956949,48.1442797 116.054932,47.9597448 C116.15659,47.7648117 116.208034,47.5476053 116.204607,47.3277838 L116.204607,44.5976012 C116.204247,44.4006918 116.152666,44.2072633 116.054932,44.03632 C115.954792,43.8598388 115.81712,43.7075003 115.651641,43.5900668 C115.468247,43.4607703 115.265128,43.3620191 115.05017,43.2976463 C114.814254,43.2264333 114.569009,43.1909311 114.322583,43.1923194 C113.754798,43.1615664 113.202102,43.3814292 112.810589,43.7937911 C112.429031,44.2314576 112.23053,44.7991708 112.256237,45.3792372 L112.256237,46.6265287 C112.23053,47.2065952 112.429031,47.7743084 112.810589,48.2119749 C113.201098,48.6263767 113.75393,48.8483204 114.322583,48.8189901 Z" id="Shape" fill="#1C5868"></path>
            <path d="M127.433003,49.6546754 C127.092952,49.68806 126.756503,49.5627865 126.521094,49.3151349 C126.329258,49.069446 126.209323,48.7753652 126.174624,48.4655908 L126.103944,48.4655908 C125.967049,48.8877988 125.686563,49.2487042 125.311221,49.4855981 C124.913665,49.7193044 124.458393,49.8364842 123.997408,49.8237527 C123.343097,49.8637591 122.698335,49.6514835 122.195764,49.2305963 C121.757108,48.811918 121.522376,48.2230648 121.552716,47.6174326 C121.521159,46.9954891 121.805779,46.3996632 122.309406,46.0333723 C123.01912,45.6108911 123.841765,45.4173276 124.665401,45.4790205 L126.108102,45.4790205 L126.108102,44.7639067 C126.138334,44.3263823 125.984043,43.8961782 125.682637,43.5775939 C125.320611,43.2738889 124.853757,43.1245752 124.382682,43.1618301 C123.991817,43.1479978 123.605735,43.2512748 123.273978,43.4584083 C122.970859,43.6635351 122.717514,43.933928 122.532533,44.2497455 L121.853452,43.6136268 C122.070824,43.1967622 122.398175,42.847364 122.800008,42.6033207 C123.979138,41.9710602 125.414548,42.0607062 126.505849,42.8347625 C127.007707,43.2954082 127.277587,43.9561331 127.241751,44.6364058 L127.241751,48.6443692 L128.073279,48.6443692 L128.073279,49.6491319 L127.433003,49.6546754 Z M124.178958,48.8619523 C124.441824,48.8643445 124.70381,48.8312466 124.957822,48.7635549 C125.174792,48.7073133 125.380234,48.613504 125.564837,48.486379 C125.72565,48.3738587 125.861136,48.228931 125.962585,48.060914 C126.055443,47.9026025 126.103359,47.7219599 126.101173,47.5384374 L126.101173,46.3299505 L124.604423,46.3299505 C124.114642,46.2935539 123.624068,46.3892756 123.183896,46.6071264 C122.896212,46.7783347 122.725044,47.0930291 122.737643,47.4275671 L122.737643,47.7255312 C122.722488,48.0499474 122.868163,48.3609976 123.127075,48.5570588 C123.432931,48.7718816 123.801435,48.8791183 124.1748,48.8619523 L124.178958,48.8619523 Z" id="Shape" fill="#1C5868"></path>
            <path d="M133.683319,49.6546754 C133.350011,49.6784993 133.022647,49.5572534 132.785269,49.3220643 C132.576108,49.0827792 132.467382,48.7719926 132.481762,48.4545038 L132.481762,43.3613967 L131.278818,43.3613967 L131.278818,42.3566341 L131.959285,42.3566341 C132.139763,42.3779598 132.321092,42.3243625 132.460973,42.208345 C132.56657,42.0582395 132.615662,41.8756177 132.599561,41.6927978 L132.599561,40.3290925 L133.616797,40.3290925 L133.616797,42.3510906 L135.214716,42.3510906 L135.214716,43.3558532 L133.612639,43.3558532 L133.612639,48.6443692 L135.096916,48.6443692 L135.096916,49.6491319 L133.683319,49.6546754 Z" id="Path" fill="#1C5868"></path>
            <path d="M142.112238,49.8237527 C141.64832,49.8308075 141.188202,49.7391618 140.762391,49.5548921 C140.364532,49.3791815 140.011566,49.11576 139.729911,48.7843431 C139.431382,48.4316426 139.205753,48.0232481 139.066075,47.5827856 C138.753859,46.5569037 138.753859,45.4613352 139.066075,44.4354533 C139.204467,43.9923509 139.430183,43.5814449 139.729911,43.2269664 C140.012039,42.8957083 140.364854,42.6319262 140.762391,42.4550316 C141.188202,42.2707618 141.64832,42.1791161 142.112238,42.1861709 C142.56493,42.1780015 143.013896,42.2693086 143.427438,42.4536457 C143.806921,42.6271563 144.14481,42.8799824 144.418341,43.1950912 C144.699395,43.5235384 144.913174,43.9040086 145.047531,44.3148818 C145.197127,44.7728928 145.271086,45.2522214 145.2665,45.7340224 L145.2665,46.2703577 L140.01956,46.2703577 L140.01956,46.6085123 C140.016297,46.9052963 140.067013,47.2002013 140.169235,47.4788446 C140.258838,47.737957 140.400304,47.9760919 140.584999,48.1787137 C140.775073,48.3814948 141.006719,48.5408106 141.26408,48.6457551 C141.554023,48.7630281 141.864664,48.8205368 142.177374,48.8148324 C142.602982,48.8249864 143.022516,48.712405 143.385861,48.4905366 C143.737736,48.2637462 144.015675,47.939082 144.185514,47.5564539 L144.99071,48.141295 C144.749809,48.6477492 144.363929,49.0712529 143.882006,49.3580972 C143.346912,49.6749843 142.734,49.8362517 142.112238,49.8237527 Z M142.112238,43.1354984 C141.821622,43.1319381 141.533235,43.1865997 141.26408,43.2962604 C141.014767,43.3996878 140.790701,43.555683 140.607173,43.7536006 C140.41927,43.954202 140.272385,44.1895943 140.174779,44.4465403 C140.068421,44.7271043 140.015767,45.0251652 140.01956,45.3251879 L140.01956,45.4235854 L144.049698,45.4235854 L144.049698,45.2683669 C144.078052,44.7016721 143.888088,44.1456685 143.518906,43.714796 C143.158534,43.3234966 142.643656,43.1114584 142.112238,43.1354984 L142.112238,43.1354984 Z" id="Shape" fill="#1C5868"></path>
            <path d="M149.523921,49.6546754 L149.523921,42.3566341 L150.654799,42.3566341 L150.654799,43.5318599 L150.71162,43.5318599 C150.871996,43.1436401 151.133246,42.8053553 151.46831,42.5520431 C151.852781,42.2905694 152.312247,42.1620748 152.776581,42.1861709 C153.451244,42.1536908 154.10589,42.4204173 154.565751,42.9151435 C155.034058,43.4948412 155.267082,44.2295342 155.2185,44.9731745 L155.2185,49.6546754 L154.086237,49.6546754 L154.086237,45.1602683 C154.086237,43.8483024 153.535119,43.1923194 152.432882,43.1923194 C152.210804,43.1918686 151.98958,43.2198128 151.77459,43.2754722 C151.570924,43.3286636 151.377504,43.4153045 151.202221,43.5318599 C151.035623,43.6416451 150.897416,43.7893511 150.798931,43.9628684 C150.69695,44.1526385 150.645861,44.3655876 150.650641,44.5809707 L150.650641,49.6546754 L149.523921,49.6546754 Z" id="Path" fill="#1C5868"></path>
            <polygon id="Path" fill="#1C5868" points="161.443871 49.6546754 158.884151 42.3566341 160.016415 42.3566341 161.290038 45.9765513 162.081375 48.4711343 162.147897 48.4711343 162.939235 45.9765513 164.241961 42.3566341 165.329877 42.3566341 162.754913 49.6546754"></polygon>
            <path d="M171.811635,49.8237527 C171.347717,49.8308075 170.887599,49.7391618 170.461788,49.5548921 C170.063929,49.3791815 169.710963,49.11576 169.429308,48.7843431 C169.130857,48.4313647 168.904818,48.0230822 168.764086,47.5827856 C168.45187,46.5569037 168.45187,45.4613352 168.764086,44.4354533 C168.903512,43.9925048 169.129639,43.5817078 169.429308,43.2269664 C169.711436,42.8957083 170.064251,42.6319262 170.461788,42.4550316 C170.887599,42.2707618 171.347717,42.1791161 171.811635,42.1861709 C172.264314,42.1781368 172.713252,42.269438 173.126835,42.4536457 C173.506098,42.6275259 173.843914,42.8802972 174.117738,43.1950912 C174.398233,43.5239288 174.611946,43.9042832 174.746928,44.3148818 C174.896524,44.7728928 174.970483,45.2522214 174.965897,45.7340224 L174.965897,46.2703577 L169.718957,46.2703577 L169.718957,46.6085123 C169.715919,46.9051584 169.766145,47.1999419 169.867246,47.4788446 C169.959427,47.7385999 170.103742,47.9767664 170.291325,48.1787137 C170.481399,48.3814948 170.713045,48.5408106 170.970406,48.6457551 C171.259865,48.7630283 171.570054,48.8205406 171.882315,48.8148324 C172.307923,48.8249864 172.727457,48.712405 173.090802,48.4905366 C173.443082,48.2638282 173.72149,47.9391794 173.89184,47.5564539 L174.697036,48.141295 C174.456135,48.6477492 174.070255,49.0712529 173.588332,49.3580972 C173.05114,49.6760292 172.435712,49.8373269 171.811635,49.8237527 Z M171.811635,43.1354984 C171.52058,43.1320517 171.231762,43.1867057 170.962091,43.2962604 C170.713191,43.3997077 170.489582,43.555714 170.30657,43.7536006 C170.118179,43.9538264 169.97123,44.1893209 169.874176,44.4465403 C169.767818,44.7271043 169.715164,45.0251652 169.718957,45.3251879 L169.718957,45.4235854 L173.749094,45.4235854 L173.749094,45.2683669 C173.777449,44.7016721 173.587485,44.1456685 173.218303,43.714796 C172.857931,43.3234966 172.343053,43.1114584 171.811635,43.1354984 L171.811635,43.1354984 Z" id="Shape" fill="#1C5868"></path>
            <path d="M179.221932,49.6546754 L179.221932,42.3566341 L180.354196,42.3566341 L180.354196,43.7009372 L180.42349,43.7009372 C180.57149,43.3316887 180.816099,43.0090541 181.131674,42.7668544 C181.536434,42.4711714 182.030871,42.3243088 182.531413,42.3510906 L182.969351,42.3510906 L182.969351,43.4819682 L182.305514,43.4819682 C181.803651,43.4531532 181.304506,43.5737198 180.871129,43.8284381 C180.557066,44.006755 180.360518,44.3376711 180.354196,44.6987704 L180.354196,49.6491319 L179.221932,49.6546754 Z" id="Path" fill="#1C5868"></path>
            <path d="M186.802693,39.1885136 L187.933571,39.1885136 L187.933571,43.5318599 L187.990392,43.5318599 C188.148793,43.1112909 188.440939,42.7543861 188.82192,42.5160102 C189.219434,42.2879814 189.672081,42.1738606 190.13019,42.1861709 C190.555583,42.180399 190.976621,42.2723826 191.360851,42.4550316 C191.728232,42.6351346 192.049975,42.8962249 192.301863,43.2186511 C192.575236,43.5776729 192.776648,43.9861436 192.895019,44.4215945 C193.168488,45.4594608 193.168488,46.5504628 192.895019,47.5883291 C192.776357,48.024094 192.57498,48.4329653 192.301863,48.7926583 C192.050697,49.1154403 191.72875,49.3762222 191.360851,49.5548921 C190.976621,49.737541 190.555583,49.8295246 190.13019,49.8237527 C189.207878,49.8639135 188.35718,49.3284318 187.99455,48.4794496 L187.937728,48.4794496 L187.937728,49.6546754 L186.806851,49.6546754 L186.802693,39.1885136 Z M189.815595,48.8189901 C190.384071,48.8498005 190.937393,48.6293838 191.328976,48.2161325 C191.710533,47.778466 191.909034,47.2107528 191.883327,46.6306864 L191.883327,45.3833949 C191.909034,44.8033284 191.710533,44.2356152 191.328976,43.7979488 C190.937393,43.3846975 190.384071,43.1642808 189.815595,43.1950912 C189.568708,43.1936061 189.322992,43.2291089 189.086623,43.300418 C188.871858,43.3641866 188.669101,43.4629898 188.486537,43.5928386 C188.321058,43.7102721 188.183386,43.8626106 188.083246,44.0390918 C187.98485,44.2097622 187.933221,44.4033705 187.933571,44.600373 L187.933571,47.3305555 C187.929493,47.5504475 187.980974,47.7678127 188.083246,47.9625165 C188.181229,48.1470515 188.318977,48.3075198 188.486537,48.4323297 C188.666927,48.5654828 188.870372,48.6641513 189.086623,48.7233644 C189.323902,48.7893897 189.569315,48.8215827 189.815595,48.8189901 Z" id="Shape" fill="#1C5868"></path>
            <path d="M201.892149,48.4794496 L201.835328,48.4794496 C201.756713,48.6526018 201.664009,48.8190047 201.558152,48.9769803 C201.447663,49.1421143 201.311519,49.2885504 201.154861,49.4107606 C200.980056,49.5440196 200.783631,49.6462169 200.574177,49.7128823 C200.317824,49.7910145 200.050795,49.8284266 199.78284,49.8237527 C199.104322,49.8574766 198.445353,49.5908475 197.981197,49.0947801 C197.506915,48.51833 197.269597,47.7830892 197.317361,47.0381349 L197.317361,42.3566341 L198.448238,42.3566341 L198.448238,46.8496553 C198.448238,48.1625451 199.00259,48.8189901 200.111294,48.8189901 C200.333419,48.8202203 200.554744,48.7922635 200.769586,48.7358373 C200.97138,48.683449 201.162652,48.5967205 201.335025,48.4794496 C201.49825,48.3676869 201.633428,48.2197025 201.730001,48.0470552 C201.834583,47.8537236 201.886218,47.6361883 201.879676,47.41648 L201.879676,42.3566341 L203.010554,42.3566341 L203.010554,49.6546754 L201.879676,49.6546754 L201.892149,48.4794496 Z" id="Path" fill="#1C5868"></path>
            <path d="M207.818169,49.6546754 L207.818169,42.3566341 L208.949047,42.3566341 L208.949047,43.5318599 L209.005868,43.5318599 C209.16677,43.1439446 209.427922,42.8057869 209.762558,42.5520431 C210.147543,42.2905573 210.607448,42.1620761 211.072214,42.1861709 C211.746845,42.1538822 212.401414,42.4205771 212.861385,42.9151435 C213.330077,43.4947661 213.564026,44.2292564 213.516906,44.9731745 L213.516906,49.6546754 L212.386028,49.6546754 L212.386028,45.1602683 C212.386028,43.8483024 211.83491,43.1923194 210.732674,43.1923194 C210.510585,43.1916854 210.289337,43.2196325 210.074381,43.2754722 C209.870715,43.3286636 209.677295,43.4153045 209.502013,43.5318599 C209.145824,43.7599559 208.935399,44.1581848 208.947661,44.5809707 L208.947661,49.6546754 L207.818169,49.6546754 Z" id="Path" fill="#1C5868"></path>
            <path d="M222.909011,48.4794496 L222.849418,48.4794496 C222.483636,49.3257372 221.635023,49.8599067 220.713778,49.8237527 C220.28836,49.8297726 219.867265,49.7377768 219.483117,49.5548921 C219.114977,49.3766018 218.79295,49.1157552 218.542105,48.7926583 C218.268453,48.433296 218.067023,48.0243163 217.948948,47.5883291 C217.673638,46.5507021 217.673638,45.4592215 217.948948,44.4215945 C218.06676,43.9859317 218.268223,43.5773573 218.542105,43.2186511 C218.79368,42.8959178 219.115499,42.6347651 219.483117,42.4550316 C219.867265,42.2721468 220.28836,42.180151 220.713778,42.1861709 C221.171483,42.1735409 221.623769,42.2876917 222.020662,42.5160102 C222.401506,42.7545419 222.693609,43.1113946 222.85219,43.5318599 L222.909011,43.5318599 L222.909011,39.1885136 L224.039889,39.1885136 L224.039889,49.6546754 L222.909011,49.6546754 L222.909011,48.4794496 Z M221.026987,48.8189901 C221.273393,48.8205883 221.518795,48.7874636 221.755959,48.7205926 C221.97221,48.6613795 222.175655,48.562711 222.356045,48.4295579 C222.523229,48.3043458 222.660898,48.1439691 222.759336,47.9597448 C222.861608,47.7650409 222.913089,47.5476758 222.909011,47.3277838 L222.909011,44.5976012 C222.90936,44.4005987 222.857732,44.2069905 222.759336,44.03632 C222.658688,43.8602058 222.521107,43.7079681 222.356045,43.5900668 C222.173481,43.460218 221.970724,43.3614148 221.755959,43.2976463 C221.519568,43.2264389 221.273866,43.1909383 221.026987,43.1923194 C220.458511,43.161509 219.905189,43.3819257 219.513606,43.795177 C219.132049,44.2328435 218.933548,44.8005567 218.959254,45.3806231 L218.959254,46.6279146 C218.933548,47.207981 219.132049,47.7756943 219.513606,48.2133607 C219.904687,48.6276319 220.458077,48.8490893 221.026987,48.8189901 L221.026987,48.8189901 Z" id="Shape" fill="#1C5868"></path>
        </g>
    </g>
</svg>