<?xml version="1.0" encoding="UTF-8"?>
<!DOCTYPE svg PUBLIC "-//W3C//DTD SVG 1.1//EN" "http://www.w3.org/Graphics/SVG/1.1/DTD/svg11.dtd">
<svg version="1.1" xmlns="http://www.w3.org/2000/svg" xmlns:xlink="http://www.w3.org/1999/xlink" x="0" y="0" width="182" height="104" viewBox="0, 0, 182, 104">
  <g id="Background">
    <rect x="0" y="0" width="182" height="104" fill="#FFFFFF"/>
  </g>
  <g id="Name" transform="scale(1,-1) translate(0,-104)">
    <path d="M 67.4028,81.3899 L 64.4754,81.3899 L 64.4754,78.5577 L 67.1648,78.5577 L 67.1648,77.7366 L 64.4754,77.7366 L 64.4754,74.8568 L 67.7003,74.8568 L 67.6408,74 L 63.4401,74 L 63.4401,82.211 L 67.4742,82.211 L 67.4028,81.3899 z
M 69.8423,74 L 68.8784,74 L 68.8784,79.712 L 69.8423,79.712 L 69.8423,74 z
M 69.3663,81.0924 C 69.168,81.0924 69.0093,81.1559 68.8903,81.2828 C 68.7713,81.4097 68.7118,81.5763 68.7118,81.7826 C 68.7118,81.9809 68.7713,82.1436 68.8903,82.2705 C 69.0093,82.3974 69.168,82.4609 69.3663,82.4609 C 69.5567,82.4609 69.7114,82.3974 69.8304,82.2705 C 69.9494,82.1436 70.0089,81.9809 70.0089,81.7826 C 70.0089,81.5763 69.9494,81.4097 69.8304,81.2828 C 69.7114,81.1559 69.5567,81.0924 69.3663,81.0924 z
M 73.7812,78.5577 C 73.7177,78.6291 73.6027,78.7263 73.4361,78.8493 C 73.2695,78.9722 73.0513,79.0337 72.7816,79.0337 C 72.5277,79.0337 72.3334,78.9742 72.1985,78.8552 C 72.0636,78.7362 71.9962,78.5934 71.9962,78.4268 C 71.9962,78.2126 72.0577,78.0361 72.1807,77.8973 C 72.3036,77.7584 72.492,77.6097 72.7459,77.451 L 73.1029,77.2368 C 73.4916,77.0067 73.7971,76.7588 74.0192,76.4931 C 74.2413,76.2273 74.3524,75.8842 74.3524,75.4637 C 74.3524,75.0115 74.1957,74.6307 73.8824,74.3213 C 73.569,74.0119 73.1188,73.8572 72.5317,73.8572 C 72.3016,73.8572 72.0993,73.881 71.9248,73.9286 C 71.7503,73.9762 71.5975,74.0317 71.4667,74.0952 C 71.3358,74.1587 71.2267,74.2281 71.1394,74.3034 C 71.0521,74.3788 70.9807,74.4482 70.9252,74.5117 L 71.3893,75.2733 C 71.4369,75.2257 71.4944,75.1702 71.5619,75.1067 C 71.6293,75.0432 71.7106,74.9818 71.8058,74.9223 C 71.901,74.8628 72.0081,74.8132 72.1271,74.7735 C 72.2461,74.7338 72.3849,74.714 72.5436,74.714 C 72.8292,74.714 73.0474,74.7775 73.1981,74.9044 C 73.3488,75.0313 73.4242,75.186 73.4242,75.3685 C 73.4242,75.5034 73.4064,75.6204 73.3707,75.7196 C 73.335,75.8187 73.2814,75.908 73.21,75.9873 C 73.1386,76.0666 73.0513,76.142 72.9482,76.2134 C 72.8451,76.2848 72.7261,76.3641 72.5912,76.4514 L 72.2342,76.6775 C 71.8772,76.9076 71.5975,77.1495 71.3953,77.4034 C 71.193,77.6573 71.0918,77.9825 71.0918,78.3792 C 71.0918,78.5934 71.1335,78.7898 71.2168,78.9683 C 71.3001,79.1467 71.4171,79.3014 71.5678,79.4324 C 71.7185,79.5633 71.8951,79.6664 72.0974,79.7418 C 72.2997,79.8171 72.5158,79.8548 72.7459,79.8548 C 72.968,79.8548 73.1584,79.833 73.3171,79.7894 C 73.4758,79.7457 73.6126,79.6902 73.7277,79.6228 C 73.8427,79.5553 73.9379,79.4879 74.0133,79.4205 C 74.0886,79.353 74.1501,79.2955 74.1977,79.2479 L 73.7812,78.5577 z
M 79.1481,77.7842 C 79.1481,77.5383 79.1402,77.3261 79.1243,77.1476 C 79.1084,76.9691 79.0926,76.8124 79.0767,76.6775 L 76.1612,76.6775 C 76.1929,76.0032 76.3377,75.5073 76.5956,75.19 C 76.8534,74.8727 77.2243,74.714 77.7082,74.714 C 77.8748,74.714 78.0255,74.7338 78.1604,74.7735 C 78.2953,74.8132 78.4123,74.8608 78.5115,74.9163 C 78.6106,74.9718 78.6939,75.0274 78.7614,75.0829 C 78.8288,75.1384 78.8784,75.1821 78.9101,75.2138 L 79.2671,74.5355 C 79.2274,74.4958 79.1679,74.4383 79.0886,74.363 C 79.0093,74.2876 78.9022,74.2122 78.7673,74.1368 C 78.6324,74.0615 78.4658,73.996 78.2675,73.9405 C 78.0692,73.885 77.8351,73.8572 77.5654,73.8572 C 77.2084,73.8572 76.8851,73.9167 76.5956,74.0357 C 76.306,74.1547 76.0601,74.3392 75.8578,74.5891 C 75.6555,74.839 75.4988,75.1563 75.3877,75.5411 C 75.2766,75.9258 75.2211,76.3879 75.2211,76.9274 C 75.2211,77.4351 75.2786,77.8735 75.3937,78.2424 C 75.5087,78.6113 75.6654,78.9147 75.8637,79.1527 C 76.062,79.3907 76.2921,79.5672 76.5539,79.6823 C 76.8157,79.7973 77.0973,79.8548 77.3988,79.8548 C 77.9462,79.8548 78.3746,79.6823 78.684,79.3372 C 78.9934,78.9921 79.1481,78.4744 79.1481,77.7842 z
M 77.3393,79.0694 C 76.9982,79.0694 76.7245,78.9266 76.5182,78.641 C 76.3119,78.3554 76.1929,77.9429 76.1612,77.4034 L 78.2437,77.4034 C 78.2516,77.4431 78.2576,77.5006 78.2616,77.576 C 78.2655,77.6513 78.2675,77.7326 78.2675,77.8199 C 78.2675,78.2166 78.1882,78.524 78.0295,78.7422 C 77.8708,78.9603 77.6408,79.0694 77.3393,79.0694 z
M 83.5511,74 L 83.5511,77.6771 C 83.5511,78.161 83.4698,78.5081 83.3072,78.7184 C 83.1445,78.9286 82.8966,79.0337 82.5634,79.0337 C 82.2778,79.0337 82.0398,78.9623 81.8494,78.8195 C 81.659,78.6767 81.5083,78.5379 81.3972,78.403 L 81.3972,74 L 80.4333,74 L 80.4333,79.712 L 81.3139,79.712 L 81.3139,79.0694 L 81.3377,79.0694 C 81.3615,79.117 81.4131,79.1864 81.4924,79.2777 C 81.5717,79.3689 81.6749,79.4562 81.8018,79.5395 C 81.9287,79.6228 82.0795,79.6961 82.254,79.7596 C 82.4285,79.8231 82.6269,79.8548 82.849,79.8548 C 83.1029,79.8548 83.3329,79.8171 83.5392,79.7418 C 83.7455,79.6664 83.92,79.5454 84.0628,79.3788 C 84.2056,79.2122 84.3167,78.996 84.396,78.7303 C 84.4753,78.4645 84.515,78.1372 84.515,77.7485 L 84.515,74 L 83.5511,74 z
M 90.2151,77.1178 C 90.2151,76.5069 90.1437,75.9952 90.0009,75.5827 C 89.8581,75.1702 89.6677,74.839 89.4297,74.5891 C 89.1917,74.3392 88.914,74.1607 88.5967,74.0536 C 88.2794,73.9464 87.9422,73.8929 87.5852,73.8929 C 87.3551,73.8929 87.1489,73.9147 86.9664,73.9583 C 86.7839,74.002 86.6253,74.0536 86.4904,74.1131 C 86.3555,74.1726 86.2425,74.234 86.1513,74.2975 C 86.06,74.361 85.9906,74.4125 85.943,74.4522 L 85.943,82.4133 L 86.9069,82.4966 L 86.9069,79.1646 L 86.9307,79.1646 C 86.9704,79.2281 87.0279,79.2995 87.1033,79.3788 C 87.1786,79.4581 87.2718,79.5335 87.3829,79.6049 C 87.494,79.6763 87.6269,79.7358 87.7816,79.7834 C 87.9363,79.831 88.1088,79.8548 88.2992,79.8548 C 88.8863,79.8548 89.3524,79.6347 89.6975,79.1944 C 90.0426,78.7541 90.2151,78.0619 90.2151,77.1178 z
M 89.2155,76.9988 C 89.2155,77.7128 89.1084,78.2305 88.8942,78.5518 C 88.68,78.8731 88.3865,79.0337 88.0136,79.0337 C 87.7121,79.0337 87.4801,78.9702 87.3175,78.8433 C 87.1548,78.7164 87.018,78.5855 86.9069,78.4506 L 86.9069,74.9401 C 86.9783,74.8925 87.0735,74.8429 87.1925,74.7914 C 87.3115,74.7398 87.4543,74.714 87.6209,74.714 C 87.851,74.714 88.0632,74.7517 88.2576,74.8271 C 88.4519,74.9024 88.6205,75.0293 88.7633,75.2079 C 88.9061,75.3864 89.0172,75.6224 89.0965,75.9159 C 89.1758,76.2094 89.2155,76.5704 89.2155,76.9988 z
M 91.1076,75.4518 C 91.1076,75.785 91.1711,76.0627 91.298,76.2848 C 91.4249,76.5069 91.5955,76.6874 91.8097,76.8263 C 92.0239,76.9651 92.2758,77.0643 92.5654,77.1238 C 92.8549,77.1833 93.1623,77.213 93.4876,77.213 L 93.7851,77.213 L 93.7851,77.7604 C 93.7851,78.2443 93.6998,78.5775 93.5293,78.76 C 93.3587,78.9425 93.1187,79.0337 92.8093,79.0337 C 92.5237,79.0337 92.2857,78.9722 92.0953,78.8493 C 91.9049,78.7263 91.7542,78.6172 91.6431,78.522 L 91.2385,79.1646 C 91.302,79.2281 91.3833,79.2995 91.4825,79.3788 C 91.5816,79.4581 91.7026,79.5335 91.8454,79.6049 C 91.9882,79.6763 92.1508,79.7358 92.3333,79.7834 C 92.5158,79.831 92.722,79.8548 92.9521,79.8548 C 93.5392,79.8548 93.9834,79.6922 94.2849,79.3669 C 94.5864,79.0416 94.7371,78.518 94.7371,77.7961 L 94.7371,75.19 C 94.7371,74.9441 94.745,74.7041 94.7609,74.4701 C 94.7768,74.236 94.7926,74.0793 94.8085,74 L 93.8922,74 L 93.8565,74.6307 L 93.8327,74.6307 C 93.801,74.5593 93.7534,74.478 93.6899,74.3868 C 93.6264,74.2955 93.5471,74.2122 93.4519,74.1368 C 93.3567,74.0615 93.2417,73.996 93.1068,73.9405 C 92.9719,73.885 92.8133,73.8572 92.6308,73.8572 C 92.4166,73.8572 92.2163,73.8969 92.0299,73.9762 C 91.8434,74.0555 91.6808,74.1666 91.542,74.3094 C 91.4031,74.4522 91.296,74.6208 91.2207,74.8152 C 91.1453,75.0095 91.1076,75.2217 91.1076,75.4518 z
M 92.8331,74.6783 C 92.968,74.6783 93.087,74.6981 93.1901,74.7378 C 93.2932,74.7775 93.3825,74.8251 93.4579,74.8806 C 93.5332,74.9361 93.5967,74.9976 93.6483,75.0651 C 93.6998,75.1325 93.7454,75.19 93.7851,75.2376 L 93.7851,76.499 L 93.4757,76.4871 C 93.0156,76.4712 92.6665,76.3919 92.4285,76.2491 C 92.1905,76.1063 92.0715,75.8762 92.0715,75.5589 C 92.0715,75.2654 92.1389,75.0452 92.2738,74.8985 C 92.4087,74.7517 92.5951,74.6783 92.8331,74.6783 z
M 99.3067,74 L 99.3067,77.6771 C 99.3067,78.161 99.2254,78.5081 99.0628,78.7184 C 98.9001,78.9286 98.6522,79.0337 98.319,79.0337 C 98.0334,79.0337 97.7954,78.9623 97.605,78.8195 C 97.4146,78.6767 97.2639,78.5379 97.1528,78.403 L 97.1528,74 L 96.1889,74 L 96.1889,82.4133 L 97.1528,82.5204 L 97.1528,79.1289 L 97.1766,79.1289 C 97.2083,79.1765 97.2579,79.24 97.3254,79.3193 C 97.3928,79.3986 97.486,79.478 97.605,79.5573 C 97.724,79.6366 97.8688,79.7061 98.0394,79.7656 C 98.2099,79.8251 98.4102,79.8548 98.6403,79.8548 C 99.1401,79.8548 99.5368,79.6922 99.8303,79.3669 C 100.1238,79.0416 100.2706,78.5022 100.2706,77.7485 L 100.2706,74 L 99.3067,74 z
M 104.8283,74 L 104.8283,77.6771 C 104.8283,78.161 104.747,78.5081 104.5844,78.7184 C 104.4217,78.9286 104.1738,79.0337 103.8406,79.0337 C 103.555,79.0337 103.317,78.9623 103.1266,78.8195 C 102.9362,78.6767 102.7855,78.5379 102.6744,78.403 L 102.6744,74 L 101.7105,74 L 101.7105,79.712 L 102.5911,79.712 L 102.5911,79.0694 L 102.6149,79.0694 C 102.6387,79.117 102.6903,79.1864 102.7696,79.2777 C 102.8489,79.3689 102.9521,79.4562 103.079,79.5395 C 103.2059,79.6228 103.3567,79.6961 103.5312,79.7596 C 103.7057,79.8231 103.9041,79.8548 104.1262,79.8548 C 104.3801,79.8548 104.6101,79.8171 104.8164,79.7418 C 105.0227,79.6664 105.1972,79.5454 105.34,79.3788 C 105.4828,79.2122 105.5939,78.996 105.6732,78.7303 C 105.7525,78.4645 105.7922,78.1372 105.7922,77.7485 L 105.7922,74 L 104.8283,74 z
M 110.0286,77.2368 L 107.1964,77.2368 L 107.1964,78.0222 L 110.0286,78.0222 L 110.0286,77.2368 z
M 115.9786,80.1166 C 115.9786,79.831 115.9429,79.5811 115.8715,79.3669 C 115.8001,79.1527 115.7029,78.9683 115.58,78.8136 C 115.457,78.6589 115.3142,78.5339 115.1516,78.4387 C 114.9889,78.3435 114.8203,78.2721 114.6458,78.2245 L 114.6458,78.2007 C 114.86,78.161 115.0603,78.0857 115.2467,77.9746 C 115.4332,77.8635 115.5958,77.7247 115.7347,77.5581 C 115.8735,77.3915 115.9846,77.1952 116.0679,76.9691 C 116.1512,76.7429 116.1928,76.495 116.1928,76.2253 C 116.1928,75.9 116.1373,75.6025 116.0262,75.3328 C 115.9151,75.0631 115.7426,74.829 115.5085,74.6307 C 115.2745,74.4324 114.979,74.2777 114.622,74.1666 C 114.265,74.0555 113.8406,74 113.3487,74 L 111.6708,74 L 111.6708,82.211 L 113.2535,82.211 C 113.7374,82.211 114.152,82.1614 114.4971,82.0623 C 114.8422,81.9631 115.1258,81.8223 115.3479,81.6398 C 115.57,81.4573 115.7307,81.2372 115.8299,80.9794 C 115.929,80.7215 115.9786,80.4339 115.9786,80.1166 z
M 114.9314,80.0809 C 114.9314,80.4617 114.7965,80.7751 114.5268,81.021 C 114.2571,81.2669 113.8326,81.3899 113.2535,81.3899 L 112.7061,81.3899 L 112.7061,78.5577 L 113.2416,78.5577 C 113.7969,78.5577 114.2174,78.6926 114.503,78.9623 C 114.7886,79.232 114.9314,79.6049 114.9314,80.0809 z
M 115.0861,76.2967 C 115.0861,76.741 114.9413,77.092 114.6518,77.3499 C 114.3622,77.6077 113.9477,77.7366 113.4082,77.7366 L 112.7061,77.7366 L 112.7061,74.8568 L 113.3487,74.8568 C 113.9596,74.8568 114.4019,74.9778 114.6756,75.2198 C 114.9493,75.4617 115.0861,75.8207 115.0861,76.2967 z
M 121.4645,74 L 120.5839,74 L 120.5839,74.6426 L 120.5601,74.6426 C 120.5363,74.595 120.4847,74.5256 120.4054,74.4344 C 120.3261,74.3431 120.2249,74.2559 120.102,74.1726 C 119.979,74.0893 119.8302,74.0159 119.6557,73.9524 C 119.4812,73.8889 119.2868,73.8572 119.0726,73.8572 C 118.8187,73.8572 118.5907,73.8949 118.3884,73.9702 C 118.1861,74.0456 118.0135,74.1666 117.8707,74.3332 C 117.7279,74.4998 117.6188,74.716 117.5435,74.9818 C 117.4681,75.2475 117.4304,75.5748 117.4304,75.9635 L 117.4304,79.712 L 118.3943,79.712 L 118.3943,76.0349 C 118.3943,75.5589 118.4717,75.2198 118.6264,75.0174 C 118.7811,74.8152 119.021,74.714 119.3463,74.714 C 119.624,74.714 119.858,74.7834 120.0484,74.9223 C 120.2388,75.0611 120.3895,75.1979 120.5006,75.3328 L 120.5006,79.712 L 121.4645,79.712 L 121.4645,74 z
M 126.0579,74 L 126.0579,77.6771 C 126.0579,78.161 125.9766,78.5081 125.814,78.7184 C 125.6513,78.9286 125.4034,79.0337 125.0702,79.0337 C 124.7846,79.0337 124.5466,78.9623 124.3562,78.8195 C 124.1658,78.6767 124.0151,78.5379 123.904,78.403 L 123.904,74 L 122.9401,74 L 122.9401,79.712 L 123.8207,79.712 L 123.8207,79.0694 L 123.8445,79.0694 C 123.8683,79.117 123.9199,79.1864 123.9992,79.2777 C 124.0785,79.3689 124.1817,79.4562 124.3086,79.5395 C 124.4355,79.6228 124.5863,79.6961 124.7608,79.7596 C 124.9353,79.8231 125.1337,79.8548 125.3558,79.8548 C 125.6097,79.8548 125.8397,79.8171 126.046,79.7418 C 126.2523,79.6664 126.4268,79.5454 126.5696,79.3788 C 126.7124,79.2122 126.8235,78.996 126.9028,78.7303 C 126.9821,78.4645 127.0218,78.1372 127.0218,77.7485 L 127.0218,74 L 126.0579,74 z
M 128.1999,76.7727 C 128.1999,77.3518 128.2753,77.8358 128.426,78.2245 C 128.5767,78.6132 128.7711,78.9266 129.0091,79.1646 C 129.2471,79.4026 129.5168,79.5712 129.8183,79.6704 C 130.1198,79.7695 130.4212,79.8191 130.7227,79.8191 C 130.9052,79.8191 131.0638,79.8052 131.1987,79.7774 C 131.3336,79.7497 131.4446,79.716 131.5319,79.6763 L 131.5319,82.4133 L 132.4958,82.5204 L 132.4958,74 L 131.6152,74 L 131.6152,74.6069 L 131.5914,74.6069 C 131.5676,74.5593 131.524,74.4939 131.4605,74.4106 C 131.397,74.3273 131.3098,74.244 131.1987,74.1607 C 131.0876,74.0774 130.9488,74.006 130.7822,73.9464 C 130.6156,73.8869 130.4212,73.8572 130.1991,73.8572 C 129.9294,73.8572 129.6735,73.9107 129.4316,74.0179 C 129.1896,74.125 128.9774,74.2955 128.7949,74.5296 C 128.6124,74.7636 128.4677,75.0651 128.3606,75.434 C 128.2535,75.8029 128.1999,76.2491 128.1999,76.7727 z
M 130.4609,74.714 C 130.6116,74.714 130.7465,74.7338 130.8655,74.7735 C 130.9845,74.8132 131.0876,74.8628 131.1749,74.9223 C 131.2622,74.9818 131.3356,75.0432 131.3951,75.1067 C 131.4546,75.1702 131.5002,75.2257 131.5319,75.2733 L 131.5319,78.7957 C 131.4446,78.8512 131.3435,78.8988 131.2285,78.9385 C 131.1134,78.9782 130.9686,78.998 130.7941,78.998 C 130.572,78.998 130.3637,78.9603 130.1694,78.885 C 129.975,78.8096 129.8064,78.6846 129.6636,78.5101 C 129.5208,78.3356 129.4078,78.1095 129.3245,77.8318 C 129.2412,77.5541 129.1995,77.213 129.1995,76.8084 C 129.1995,76.4117 129.2332,76.0805 129.3007,75.8148 C 129.3681,75.549 129.4613,75.3348 129.5803,75.1722 C 129.6993,75.0095 129.8342,74.8925 129.9849,74.8211 C 130.1356,74.7497 130.2943,74.714 130.4609,74.714 z
M 137.6366,77.7842 C 137.6366,77.5383 137.6287,77.3261 137.6128,77.1476 C 137.5969,76.9691 137.5811,76.8124 137.5652,76.6775 L 134.6497,76.6775 C 134.6814,76.0032 134.8262,75.5073 135.0841,75.19 C 135.3419,74.8727 135.7128,74.714 136.1967,74.714 C 136.3633,74.714 136.514,74.7338 136.6489,74.7735 C 136.7838,74.8132 136.9008,74.8608 137,74.9163 C 137.0991,74.9718 137.1824,75.0274 137.2499,75.0829 C 137.3173,75.1384 137.3669,75.1821 137.3986,75.2138 L 137.7556,74.5355 C 137.7159,74.4958 137.6564,74.4383 137.5771,74.363 C 137.4978,74.2876 137.3907,74.2122 137.2558,74.1368 C 137.1209,74.0615 136.9543,73.996 136.756,73.9405 C 136.5577,73.885 136.3236,73.8572 136.0539,73.8572 C 135.6969,73.8572 135.3736,73.9167 135.0841,74.0357 C 134.7945,74.1547 134.5486,74.3392 134.3463,74.5891 C 134.144,74.839 133.9873,75.1563 133.8762,75.5411 C 133.7651,75.9258 133.7096,76.3879 133.7096,76.9274 C 133.7096,77.4351 133.7671,77.8735 133.8822,78.2424 C 133.9972,78.6113 134.1539,78.9147 134.3522,79.1527 C 134.5505,79.3907 134.7806,79.5672 135.0424,79.6823 C 135.3042,79.7973 135.5858,79.8548 135.8873,79.8548 C 136.4347,79.8548 136.8631,79.6823 137.1725,79.3372 C 137.4819,78.9921 137.6366,78.4744 137.6366,77.7842 z
M 135.8278,79.0694 C 135.4867,79.0694 135.213,78.9266 135.0067,78.641 C 134.8004,78.3554 134.6814,77.9429 134.6497,77.4034 L 136.7322,77.4034 C 136.7401,77.4431 136.7461,77.5006 136.7501,77.576 C 136.754,77.6513 136.756,77.7326 136.756,77.8199 C 136.756,78.2166 136.6767,78.524 136.518,78.7422 C 136.3593,78.9603 136.1293,79.0694 135.8278,79.0694 z
M 141.3851,78.5577 C 141.3216,78.6291 141.2066,78.7263 141.04,78.8493 C 140.8734,78.9722 140.6552,79.0337 140.3855,79.0337 C 140.1316,79.0337 139.9373,78.9742 139.8024,78.8552 C 139.6675,78.7362 139.6001,78.5934 139.6001,78.4268 C 139.6001,78.2126 139.6616,78.0361 139.7846,77.8973 C 139.9075,77.7584 140.0959,77.6097 140.3498,77.451 L 140.7068,77.2368 C 141.0955,77.0067 141.401,76.7588 141.6231,76.4931 C 141.8452,76.2273 141.9563,75.8842 141.9563,75.4637 C 141.9563,75.0115 141.7996,74.6307 141.4863,74.3213 C 141.1729,74.0119 140.7227,73.8572 140.1356,73.8572 C 139.9055,73.8572 139.7032,73.881 139.5287,73.9286 C 139.3542,73.9762 139.2014,74.0317 139.0706,74.0952 C 138.9397,74.1587 138.8306,74.2281 138.7433,74.3034 C 138.656,74.3788 138.5846,74.4482 138.5291,74.5117 L 138.9932,75.2733 C 139.0408,75.2257 139.0983,75.1702 139.1658,75.1067 C 139.2332,75.0432 139.3145,74.9818 139.4097,74.9223 C 139.5049,74.8628 139.612,74.8132 139.731,74.7735 C 139.85,74.7338 139.9888,74.714 140.1475,74.714 C 140.4331,74.714 140.6513,74.7775 140.802,74.9044 C 140.9527,75.0313 141.0281,75.186 141.0281,75.3685 C 141.0281,75.5034 141.0103,75.6204 140.9746,75.7196 C 140.9389,75.8187 140.8853,75.908 140.8139,75.9873 C 140.7425,76.0666 140.6552,76.142 140.5521,76.2134 C 140.449,76.2848 140.33,76.3641 140.1951,76.4514 L 139.8381,76.6775 C 139.4811,76.9076 139.2014,77.1495 138.9992,77.4034 C 138.7969,77.6573 138.6957,77.9825 138.6957,78.3792 C 138.6957,78.5934 138.7374,78.7898 138.8207,78.9683 C 138.904,79.1467 139.021,79.3014 139.1717,79.4324 C 139.3224,79.5633 139.499,79.6664 139.7013,79.7418 C 139.9036,79.8171 140.1197,79.8548 140.3498,79.8548 C 140.5719,79.8548 140.7623,79.833 140.921,79.7894 C 141.0797,79.7457 141.2165,79.6902 141.3316,79.6228 C 141.4466,79.5553 141.5418,79.4879 141.6172,79.4205 C 141.6925,79.353 141.754,79.2955 141.8016,79.2479 L 141.3851,78.5577 z
M 142.7536,75.4518 C 142.7536,75.785 142.8171,76.0627 142.944,76.2848 C 143.0709,76.5069 143.2415,76.6874 143.4557,76.8263 C 143.6699,76.9651 143.9218,77.0643 144.2114,77.1238 C 144.5009,77.1833 144.8083,77.213 145.1336,77.213 L 145.4311,77.213 L 145.4311,77.7604 C 145.4311,78.2443 145.3458,78.5775 145.1753,78.76 C 145.0047,78.9425 144.7647,79.0337 144.4553,79.0337 C 144.1697,79.0337 143.9317,78.9722 143.7413,78.8493 C 143.5509,78.7263 143.4002,78.6172 143.2891,78.522 L 142.8845,79.1646 C 142.948,79.2281 143.0293,79.2995 143.1285,79.3788 C 143.2276,79.4581 143.3486,79.5335 143.4914,79.6049 C 143.6342,79.6763 143.7968,79.7358 143.9793,79.7834 C 144.1618,79.831 144.368,79.8548 144.5981,79.8548 C 145.1852,79.8548 145.6294,79.6922 145.9309,79.3669 C 146.2324,79.0416 146.3831,78.518 146.3831,77.7961 L 146.3831,75.19 C 146.3831,74.9441 146.391,74.7041 146.4069,74.4701 C 146.4228,74.236 146.4386,74.0793 146.4545,74 L 145.5382,74 L 145.5025,74.6307 L 145.4787,74.6307 C 145.447,74.5593 145.3994,74.478 145.3359,74.3868 C 145.2724,74.2955 145.1931,74.2122 145.0979,74.1368 C 145.0027,74.0615 144.8877,73.996 144.7528,73.9405 C 144.6179,73.885 144.4593,73.8572 144.2768,73.8572 C 144.0626,73.8572 143.8623,73.8969 143.6759,73.9762 C 143.4894,74.0555 143.3268,74.1666 143.188,74.3094 C 143.0491,74.4522 142.942,74.6208 142.8667,74.8152 C 142.7913,75.0095 142.7536,75.2217 142.7536,75.4518 z
M 144.4791,74.6783 C 144.614,74.6783 144.733,74.6981 144.8361,74.7378 C 144.9392,74.7775 145.0285,74.8251 145.1039,74.8806 C 145.1792,74.9361 145.2427,74.9976 145.2943,75.0651 C 145.3458,75.1325 145.3914,75.19 145.4311,75.2376 L 145.4311,76.499 L 145.1217,76.4871 C 144.6616,76.4712 144.3125,76.3919 144.0745,76.2491 C 143.8365,76.1063 143.7175,75.8762 143.7175,75.5589 C 143.7175,75.2654 143.7849,75.0452 143.9198,74.8985 C 144.0547,74.7517 144.2411,74.6783 144.4791,74.6783 z
M 150.8337,74 L 150.8337,77.6771 C 150.8337,78.1452 150.7663,78.4823 150.6314,78.6886 C 150.4965,78.8949 150.2784,78.998 149.9769,78.998 C 149.8182,78.998 149.6774,78.9782 149.5545,78.9385 C 149.4315,78.8988 149.3224,78.8493 149.2272,78.7898 C 149.132,78.7303 149.0487,78.6648 148.9773,78.5934 C 148.9059,78.522 148.8464,78.4585 148.7988,78.403 L 148.7988,74 L 147.8349,74 L 147.8349,79.712 L 148.7155,79.712 L 148.7155,79.0694 L 148.7393,79.0694 C 148.779,79.1329 148.8385,79.2102 148.9178,79.3014 C 148.9971,79.3927 149.0963,79.48 149.2153,79.5633 C 149.3343,79.6466 149.4731,79.716 149.6318,79.7715 C 149.7905,79.827 149.969,79.8548 150.1673,79.8548 C 150.8178,79.8548 151.278,79.6009 151.5477,79.0932 C 151.6032,79.1725 151.6786,79.2578 151.7738,79.3491 C 151.869,79.4403 151.9801,79.5236 152.107,79.599 C 152.2339,79.6743 152.3767,79.7358 152.5354,79.7834 C 152.6941,79.831 152.8686,79.8548 153.059,79.8548 C 154.2173,79.8548 154.7964,79.1805 154.7964,77.8318 L 154.7964,74 L 153.8325,74 L 153.8325,77.6771 C 153.8325,78.1452 153.7492,78.4823 153.5826,78.6886 C 153.416,78.8949 153.1701,78.998 152.8448,78.998 C 152.5751,78.998 152.351,78.9325 152.1725,78.8017 C 151.994,78.6707 151.8531,78.5458 151.75,78.4268 C 151.7659,78.3395 151.7778,78.2463 151.7857,78.1471 C 151.7936,78.048 151.7976,77.9429 151.7976,77.8318 L 151.7976,74 L 150.8337,74 z
M 158.6758,78.9266 L 157.4263,78.9266 L 157.4263,75.7612 C 157.4263,75.3566 157.4779,75.0809 157.581,74.9342 C 157.6841,74.7874 157.8587,74.714 158.1046,74.714 C 158.2474,74.714 158.3704,74.7338 158.4735,74.7735 C 158.5766,74.8132 158.652,74.8489 158.6996,74.8806 L 158.8305,74.1071 C 158.7908,74.0754 158.6956,74.0258 158.5449,73.9583 C 158.3942,73.8909 158.1919,73.8572 157.938,73.8572 C 157.4461,73.8572 157.0772,73.994 156.8313,74.2678 C 156.5854,74.5414 156.4624,74.9956 156.4624,75.6303 L 156.4624,78.9266 L 155.7722,78.9266 L 155.7722,79.5692 L 156.4624,79.712 L 156.5695,81.3066 L 157.4263,81.3066 L 157.4263,79.712 L 158.7948,79.712 L 158.6758,78.9266 z
" fill="#000000"/>
  </g>
  <g id="Adler-und-Saeulenelement">
    <path d="M37.173,29.339 C37.2,29.115 37.216,28.884 37.216,28.648 C37.216,28.519 37.217,28.369 37.201,28.199 C39.194,28.171 40.942,26.735 40.942,25.084 C40.942,24.244 40.394,23.61 40.085,23.231 C40.154,23.216 40.224,23.2 40.295,23.183 C40.587,23.437 41.415,24.339 41.415,25.478 C41.415,27.459 39.435,29.298 37.173,29.339 M35.165,22.44 C35.128,22.219 35.044,22.019 34.916,21.847 C34.923,21.645 35.006,21.452 35.331,21.611 C35.155,21.791 35.291,22.11 35.291,22.11 C35.291,22.11 35.651,21.943 35.576,21.705 C36.11,21.833 35.726,22.55 35.165,22.44 M34.702,23.457 C34.631,23.161 34.479,22.857 34.286,22.628 C34.11,22.42 33.819,22.173 33.427,22.173 C33.248,22.173 32.948,22.257 32.757,22.338 C32.686,22.208 32.547,21.895 32.547,21.754 C32.547,21.609 32.792,21.462 33.261,21.462 C34.293,21.462 34.909,21.928 34.909,22.71 C34.909,22.985 34.8,23.235 34.702,23.457 M37.352,36.757 C37.472,36.757 37.53,36.776 37.6,36.802 C37.897,37.61 39.042,39.135 39.09,39.2 L39.1,39.214 L39.117,39.21 C39.398,39.165 40.115,39.057 40.715,39.057 L40.729,39.057 C40.794,39.057 40.868,39.057 40.915,39.103 C40.954,39.142 40.973,39.21 40.973,39.307 C40.973,39.456 40.91,39.711 40.834,39.82 C40.624,39.591 40.283,39.488 39.737,39.488 C39.573,39.488 39.379,39.537 39.274,39.565 L39.231,39.574 L39.182,39.587 L39.497,39.902 C39.983,40.388 40.403,40.807 40.403,41.086 C40.403,41.254 40.239,41.473 40.089,41.57 C40.056,41.059 39.54,40.375 39.037,39.992 L38.994,39.96 L38.986,40.14 C38.979,40.262 38.968,40.445 38.968,40.641 C38.968,41.614 38.869,41.762 38.532,41.762 C38.48,41.762 38.401,41.747 38.352,41.729 C38.542,41.494 38.617,41.184 38.617,40.64 L38.614,40.389 L38.611,40.187 C38.611,39.964 38.634,39.799 38.652,39.666 L38.662,39.591 L38.609,39.584 C38.451,39.562 38.158,39.522 37.934,39.522 C37.453,39.522 37.127,39.566 36.891,39.788 C36.735,39.662 36.575,39.445 36.575,39.308 C36.575,39.105 36.701,39.089 36.867,39.089 C36.951,39.089 37.029,39.101 37.137,39.114 C37.344,39.145 37.655,39.191 38.296,39.191 L38.336,39.191 L38.323,39.152 C38.161,38.687 37.715,38.011 37,37.142 C37.064,36.909 37.127,36.757 37.352,36.757 M31.178,39.152 L31.165,39.191 L31.205,39.191 C31.845,39.191 32.157,39.145 32.364,39.114 C32.472,39.101 32.55,39.089 32.634,39.089 C32.799,39.089 32.926,39.105 32.926,39.308 C32.926,39.445 32.766,39.662 32.611,39.788 C32.374,39.566 32.048,39.522 31.568,39.522 C31.343,39.522 31.049,39.562 30.892,39.584 L30.867,39.587 L30.839,39.591 L30.848,39.666 C30.867,39.799 30.89,39.964 30.89,40.187 L30.887,40.389 L30.884,40.64 C30.884,41.184 30.959,41.494 31.15,41.729 C31.1,41.747 31.021,41.762 30.969,41.762 C30.631,41.762 30.533,41.614 30.533,40.641 C30.533,40.445 30.523,40.262 30.516,40.14 L30.506,39.959 L30.464,39.992 C29.962,40.375 29.444,41.059 29.413,41.57 C29.262,41.473 29.098,41.254 29.098,41.086 C29.098,40.807 29.518,40.388 30.004,39.902 L30.283,39.623 L30.319,39.587 L30.227,39.565 C30.122,39.537 29.928,39.488 29.763,39.488 C29.218,39.488 28.878,39.591 28.667,39.82 C28.591,39.711 28.528,39.456 28.528,39.307 C28.528,39.21 28.547,39.142 28.586,39.103 C28.633,39.057 28.707,39.057 28.772,39.057 L28.786,39.057 C29.386,39.057 30.104,39.165 30.384,39.21 L30.401,39.214 L30.411,39.2 C30.46,39.135 31.604,37.61 31.902,36.802 C31.97,36.776 32.029,36.757 32.149,36.757 C32.374,36.757 32.437,36.909 32.502,37.142 C31.786,38.011 31.34,38.687 31.178,39.152 M28.086,25.478 C28.086,24.339 28.915,23.437 29.207,23.183 C29.277,23.2 29.347,23.216 29.417,23.231 C29.107,23.61 28.559,24.244 28.559,25.084 C28.559,26.752 30.341,28.2 32.359,28.2 C32.346,28.343 32.339,28.493 32.339,28.648 C32.339,28.894 32.353,29.123 32.377,29.339 C30.095,29.325 28.086,27.473 28.086,25.478 M43.392,28.991 C44.416,30.61 45.217,30.583 46.427,30.583 C45.426,29.816 44.764,28.833 44.448,28.331 L42.578,25.339 C42.396,24.415 41.918,23.551 41.202,22.908 C41.443,22.817 41.643,22.721 41.763,22.63 C40.542,22.63 39.332,22.01 38.666,22.01 C38.238,22.01 37.963,22.266 37.963,22.604 C37.99,22.981 38.378,23.364 39.095,23.364 C39.257,23.364 39.465,23.343 39.693,23.305 C40.081,23.846 40.394,24.335 40.394,25.033 C40.394,26.343 38.828,27.364 37.247,27.364 C37.157,27.364 37.072,27.36 36.983,27.354 C36.84,27.029 36.363,26.484 36.363,25.864 C36.363,24.823 37.042,23.973 37.042,22.942 C37.042,22.301 36.73,21.904 36.61,21.739 C36.804,21.559 37.016,21.338 37.066,21.186 C36.953,21.235 36.819,21.241 36.624,21.241 C35.866,21.241 35.248,21.044 34.646,21.044 C34.302,21.044 34.21,21.15 34.21,21.251 C34.21,21.288 34.215,21.326 34.225,21.344 C34.097,21.294 33.977,21.261 33.834,21.235 C33.656,21.201 33.465,21.184 33.261,21.184 C32.529,21.184 32.269,21.491 32.269,21.754 C32.269,21.976 32.444,22.382 32.643,22.692 C32.928,22.548 33.271,22.451 33.427,22.451 C33.816,22.451 34.161,22.821 34.344,23.259 C34.083,23.291 34.033,23.302 33.769,23.302 C33.056,23.302 32.571,23.047 32.471,23.047 C32.462,23.047 32.443,23.052 32.443,23.068 C32.443,23.168 32.645,23.432 33.043,23.577 C33.568,23.769 34.354,23.849 34.485,23.871 C34.485,23.894 34.352,24.142 34.203,24.19 C34.172,24.2 34.147,24.201 34.11,24.193 C33.562,24.085 33.409,24.039 32.714,23.775 C32.693,23.767 32.68,23.78 32.68,23.802 C32.68,24.077 33.392,24.684 34.03,24.917 C33.497,25.597 32.832,26.293 32.518,27.354 C32.429,27.36 32.343,27.364 32.254,27.364 C30.673,27.364 29.107,26.343 29.107,25.033 C29.107,24.335 29.42,23.846 29.808,23.305 C30.036,23.343 30.243,23.364 30.406,23.364 C31.123,23.364 31.511,22.981 31.539,22.604 C31.539,22.266 31.264,22.01 30.835,22.01 C30.169,22.01 28.96,22.63 27.737,22.63 C27.858,22.721 28.058,22.817 28.298,22.908 C27.583,23.551 27.105,24.415 26.923,25.339 L25.053,28.331 C24.738,28.833 24.074,29.816 23.073,30.583 C24.283,30.583 25.085,30.61 26.109,28.991 L27.068,27.457 C27.139,27.656 27.226,27.85 27.329,28.04 L25.422,31.091 C25.105,31.597 24.447,32.571 23.442,33.343 C24.652,33.343 25.454,33.371 26.478,31.753 L28.119,29.125 C28.242,29.256 28.371,29.384 28.507,29.506 L26.191,33.214 C25.873,33.721 25.219,34.693 24.212,35.464 C25.422,35.464 26.224,35.493 27.247,33.874 L29.505,30.259 C29.654,30.353 29.806,30.444 29.964,30.53 L27.207,34.941 C26.889,35.448 26.235,36.417 25.228,37.191 C26.438,37.191 27.24,37.219 28.264,35.601 L31.102,31.058 C31.27,31.122 31.44,31.184 31.613,31.239 L28.406,36.372 C28.093,36.872 27.424,37.859 26.428,38.622 C27.637,38.622 28.44,38.65 29.463,37.032 L32.881,31.562 C32.916,31.568 32.95,31.573 32.984,31.58 C33.077,31.876 33.142,32.152 33.142,32.427 C33.142,34.146 32.014,35.664 30.66,36.836 C30.747,36.874 30.898,36.887 31.037,36.887 C31.317,36.887 31.497,36.872 31.624,36.85 C31.31,37.563 30.636,38.484 30.296,38.96 C29.853,38.88 29.208,38.818 28.786,38.818 C28.344,38.818 28.294,39.076 28.294,39.307 C28.294,39.708 28.482,40.027 28.7,40.205 C28.782,40 28.947,39.726 29.763,39.726 C29.779,39.726 29.807,39.728 29.845,39.731 C29.607,39.996 28.86,40.6 28.86,41.086 C28.86,41.408 29.213,41.891 29.678,41.891 C29.651,41.787 29.654,41.692 29.654,41.62 C29.654,41.226 30.003,40.765 30.298,40.443 C30.289,40.539 30.294,40.529 30.294,40.641 C30.294,41.572 30.378,42 30.969,42 C31.259,42 31.459,41.841 31.528,41.793 C31.144,41.44 31.124,41.162 31.124,40.64 C31.125,40.504 31.126,40.371 31.128,40.188 C31.129,40.068 31.127,39.91 31.108,39.796 C31.319,39.767 31.405,39.767 31.568,39.767 C31.568,39.767 32.407,39.7 32.61,40.137 C32.838,39.928 33.169,39.633 33.169,39.308 C33.169,39.093 33.067,38.85 32.634,38.85 C32.47,38.85 31.955,38.95 31.524,38.95 C31.64,38.693 32.155,37.939 32.602,37.392 C32.67,37.604 32.775,37.833 33.009,38.021 C33.042,37.669 33.248,36.556 33.798,35.905 C33.862,36.345 33.948,36.796 33.948,37.747 C33.948,40.061 33.392,41.77 32.211,42.096 C32.365,42.363 32.69,42.604 33.027,42.604 C33.459,42.604 33.694,42.115 33.934,41.654 C34.059,41.994 34.404,42.828 34.75,42.828 C35.096,42.828 35.442,41.994 35.567,41.654 C35.806,42.115 36.042,42.604 36.474,42.604 C36.811,42.604 37.136,42.363 37.29,42.096 C36.109,41.77 35.552,40.061 35.552,37.747 C35.552,36.796 35.638,36.345 35.702,35.905 C36.253,36.556 36.46,37.669 36.491,38.021 C36.726,37.833 36.832,37.604 36.899,37.392 C37.345,37.939 37.861,38.693 37.977,38.95 C37.546,38.95 37.03,38.85 36.867,38.85 C36.435,38.85 36.333,39.093 36.333,39.308 C36.333,39.633 36.664,39.928 36.892,40.137 C37.093,39.7 37.934,39.767 37.934,39.767 C38.096,39.767 38.182,39.767 38.394,39.796 C38.374,39.91 38.373,40.068 38.374,40.188 C38.376,40.371 38.376,40.504 38.377,40.64 C38.377,41.162 38.357,41.44 37.973,41.793 C38.042,41.841 38.242,42 38.532,42 C39.123,42 39.208,41.572 39.208,40.641 C39.208,40.529 39.211,40.539 39.203,40.443 C39.498,40.765 39.847,41.226 39.847,41.62 C39.847,41.692 39.851,41.787 39.822,41.891 C40.288,41.891 40.642,41.408 40.642,41.086 C40.642,40.6 39.895,39.996 39.655,39.731 C39.694,39.728 39.722,39.726 39.737,39.726 C40.554,39.726 40.719,40 40.801,40.205 C41.019,40.027 41.207,39.708 41.207,39.307 C41.207,39.076 41.157,38.818 40.715,38.818 C40.293,38.818 39.649,38.88 39.205,38.96 C38.864,38.484 38.192,37.563 37.877,36.85 C38.004,36.872 38.185,36.887 38.464,36.887 C38.604,36.887 38.754,36.874 38.841,36.836 C37.487,35.664 36.359,34.146 36.359,32.427 C36.359,32.152 36.424,31.876 36.517,31.58 C36.55,31.573 36.586,31.568 36.62,31.562 L40.038,37.032 C41.061,38.65 41.864,38.622 43.073,38.622 C42.077,37.859 41.408,36.872 41.095,36.372 L37.887,31.239 C38.061,31.184 38.232,31.122 38.4,31.058 L41.237,35.601 C42.261,37.219 43.063,37.191 44.273,37.191 C43.266,36.417 42.612,35.448 42.294,34.941 L39.538,30.53 C39.694,30.444 39.847,30.353 39.995,30.259 L42.254,33.874 C43.278,35.493 44.079,35.464 45.289,35.464 C44.282,34.693 43.629,33.721 43.31,33.214 L40.994,29.506 C41.13,29.384 41.26,29.256 41.381,29.125 L43.024,31.753 C44.047,33.371 44.849,33.343 46.059,33.343 C45.053,32.571 44.397,31.597 44.079,31.091 L42.173,28.04 C42.275,27.85 42.362,27.656 42.434,27.457 z" fill="#000000"/>
    <path d="M56,42 L52.5,42 L52.5,22 L56,22 z" fill="#000000"/>
    <path d="M56,62 L52.5,62 L52.5,42 L56,42 z" fill="#FF0000"/>
    <path d="M56,82 L52.5,82 L52.5,62 L56,62 z" fill="#FFCC00"/>
  </g>
</svg>
