<svg xmlns="http://www.w3.org/2000/svg" viewBox="0 0 361 146"><path fill="#296e4b" opacity="0.5" fill-rule="nonzero" d="M359.99,145.94 L314.99,145.94 C314.51,132.36 326.23,133.16 333.56,130.27 L284.21,101.65 C273.65,114.23 266.82,129.82 260.99,145.94 L207.99,145.94 C207.29,138.39 212.34,134.94 218.25,133.16 C224.304365,131.423599 230.502688,130.235475 236.77,129.61 C240.15,129.2 241.22,128.12 241.25,124.74 C241.32,116.6 241.86,108.46 242.13,100.31 C242.24,96.91 242.13,93.5 242.13,89.7 C240.56,89.95 239.13,89.86 238.04,90.4 C230.43,94.04 222.55,97.26 215.38,101.65 C195.67,113.72 175.03,122.79 151.54,123.65 C147.92,123.79 144.61,123.55 143.46,128.23 C143.19,129.33 140.97,130.23 139.46,130.69 C128.96,133.82 118.46,136.82 107.88,139.81 C100.62,141.94 93.3,143.94 85.99,145.94 L12.99,145.94 C12.99,139.71 16.28,135.94 21.99,134.32 C25.49,133.32 29.25,132.04 32.71,132.44 C44.03,133.73 53.29,130.25 61.71,122.84 C66.25,118.84 71.84,116.12 77.52,112.46 C75.41,111.31 73.93,110.59 72.52,109.74 C58.75,101.34 44.94,93 31.26,84.45 C27.58,82.15 24.66,79.23 24,74.3 C23.43,70.04 19.86,67.74 15.7,67.69 C11.94,67.64 8.16,68.51 4.39,69.05 C3.04,69.24 1.72,69.64 0.26,69.97 C-0.0901040574,62.9097429 4.12040276,56.4187128 10.71,53.86 C20.01,49.86 29.66,52.21 37.02,60.08 C38.2,61.34 39.64,62.96 41.15,63.2 C50.51,64.67 59.92,65.86 69.34,66.93 C70.43,67.05 72.47,66.05 72.69,65.21 C73.3525472,62.1250212 73.8267569,59.0025843 74.11,55.86 C69.65,57.49 65.41,60.59 61.81,59.97 C57.24,59.18 56.94,53.72 56.52,49.22 C62.52,51.42 64.52,50.33 65.18,44.73 C58.87,44.73 52.54,45.12 46.27,44.64 C33.4,43.64 26.46,30.85 32.9,20.44 C38.01,37.86 49.65,41.44 66.19,36.85 C64.31,34.93 63,32.49 61.19,32.05 C58.83,31.47 56.09,32.46 53.32,32.8 C52.5,28.8 51.32,24.64 50.92,20.36 C50.77,18.59 51.97,15.6 53.37,14.95 C69.82,7.45 86.84,3 105.18,6.23 C108.32,6.78 111.7,6.31 114.92,5.92 C118.73,5.46 122.5,4.58 127.77,3.61 L123.96,12.73 C132.24,22.95 136.58,29.22 138.58,42.15 C140.17,52.44 146.05,56.32 154.58,58.73 C154.9,58.82 155.21,58.93 155.53,59.04 C180.82,67.86 206.11,65.51 230.41,56.47 C252.94,48.08 275.46,43.95 299.34,46.94 C303.655877,47.2955129 308.000838,46.957909 312.21,45.94 C317.61,44.84 320.71,40.88 321.92,35.64 C323.02,30.85 321.39,26.86 317.74,23.55 C310.24,16.73 301.22,15.44 291.64,16.2 C276.51,17.4 262.42,22.47 248.54,28.2 C228.54,36.4 208.54,44.79 186.77,47.33 C176.94,48.48 168.3,45.82 161.12,38.91 C152.99,31.1 151.48,18.72 158.97,11.62 C163.97,6.88 170.82,4.01 176.91,0.45 C177.7,-0.01 178.99,0.38 181.09,0.38 C178.25,4.38 175.83,7.53 173.75,10.86 C167.7,20.57 169.61,28.92 179.17,35.29 C186.17,39.97 193.63,38.7 200.77,36.11 C218.77,29.61 236.57,22.65 254.5,16.03 C270.18,10.23 286.08,5.31 303.14,7.03 C314.52,8.2 324.64,12.3 331.14,22.21 C337.64,32.12 335.99,48.94 319.58,56.69 C327.68,70.69 332.27,85.85 335.58,101.53 C335.87,102.93 338.04,104.4 339.64,104.97 C346.69,107.47 353.84,109.65 360.96,111.97 L360.96,113.97 C360.653333,124.616667 360.33,135.273333 359.99,145.94 Z M83.15,14.23 L82.15,12.54 C79.77,13.02 77.15,13.09 75.15,14.16 C74.2,14.65 74.28,17.16 73.89,18.7 C75.17,18.93 76.89,19.78 77.63,19.27 C79.6092862,17.7492075 81.4559147,16.0631554 83.15,14.23 Z"/></svg>
