<?xml version="1.0" encoding="UTF-8"?>
<svg width="774px" height="520px" viewBox="0 0 774 520" version="1.1" xmlns="http://www.w3.org/2000/svg" xmlns:xlink="http://www.w3.org/1999/xlink">
    <!-- Generator: Sketch 57.1 (83088) - https://sketch.com -->
    <title>assets/images/numis/svg-raw/backgrounds/drops-zweck</title>
    <desc>Created with Sketch.</desc>
    <defs>
        <rect id="path-1" x="0" y="0" width="1900" height="522"></rect>
    </defs>
    <g id="assets/images/numis/svg-raw/backgrounds/drops-zweck" stroke="none" stroke-width="1" fill="none" fill-rule="evenodd">
        <mask id="mask-2" fill="white">
            <use xlink:href="#path-1"></use>
        </mask>
        <g id="Rectangle" fill-rule="nonzero"></g>
        <path d="M438.58474,129.22691 C507.287538,197.929708 507.287538,309.318952 438.58474,378.021749 C369.881942,446.724547 258.492698,446.724547 189.789901,378.021749 L-406.686823,-218.454974 C-475.389621,-287.157772 -475.389621,-398.547016 -406.686823,-467.249813 C-337.984025,-535.952611 -226.594781,-535.952611 -157.891983,-467.249813 L438.58474,129.22691 Z" id="Rectangle-Copy-4" fill="#133268" style="mix-blend-mode: multiply;" opacity="0.25" mask="url(#mask-2)"></path>
        <path d="M698.37341,89.7104961 C787.23575,178.572836 787.23575,322.647155 698.37341,411.509495 C609.51107,500.371835 465.436751,500.371835 376.574411,411.509495 L-394.927172,-359.992088 C-483.789512,-448.854428 -483.789512,-592.928747 -394.927172,-681.791087 C-306.064833,-770.653427 -161.990513,-770.653427 -73.1281734,-681.791087 L698.37341,89.7104961 Z" id="Rectangle-Copy-2" fill="#133268" style="mix-blend-mode: multiply;" opacity="0.25" mask="url(#mask-2)"></path>
        <path d="M643.597466,123.228195 C708.006996,187.637725 708.006996,292.066208 643.597466,356.475738 C579.187935,420.885269 474.759452,420.885269 410.349922,356.475738 L-148.852717,-202.7269 C-213.262247,-267.136431 -213.262247,-371.564913 -148.852717,-435.974444 C-84.443186,-500.383974 19.9852964,-500.383974 84.3948271,-435.974444 L643.597466,123.228195 Z" id="Rectangle-Copy-3" fill="#133268" style="mix-blend-mode: multiply;" opacity="0.25" mask="url(#mask-2)"></path>
    </g>
</svg>