<?xml version="1.0" encoding="utf-8"?>
<!-- Generator: Adobe Illustrator 23.0.0, SVG Export Plug-In . SVG Version: 6.00 Build 0)  -->
<svg version="1.1" id="Ebene_1" xmlns="http://www.w3.org/2000/svg" xmlns:xlink="http://www.w3.org/1999/xlink" x="0px" y="0px"
	 viewBox="0 0 24 24" style="enable-background:new 0 0 24 24;" xml:space="preserve">
<style type="text/css">
	.st0{fill-rule:evenodd;clip-rule:evenodd;}
</style>
<path class="st0" d="M12,0C5.4,0,0,5.4,0,12s5.4,12,12,12s12-5.4,12-12S18.6,0,12,0z M18.7,9.1l-8,8c0,0-0.1,0.1-0.2,0.1
	c-0.1,0-0.1,0-0.2-0.1L5.3,12c-0.1-0.1-0.1-0.3,0-0.4L7,9.9c0.1-0.1,0.3-0.1,0.4,0l3.1,3.1l6.1-6.1c0.1-0.1,0.3-0.1,0.4,0l1.8,1.8
	C18.8,8.8,18.8,9,18.7,9.1z"/>
</svg>
