<?xml version="1.0" encoding="utf-8"?>
<!-- Generator: Adobe Illustrator 23.0.0, SVG Export Plug-In . SVG Version: 6.00 Build 0)  -->
<svg version="1.1" id="Ebene_1" xmlns="http://www.w3.org/2000/svg" xmlns:xlink="http://www.w3.org/1999/xlink" x="0px" y="0px"
	 viewBox="0 0 24 24" style="enable-background:new 0 0 24 24;" xml:space="preserve">
<style type="text/css">
	.st0{fill-rule:evenodd;clip-rule:evenodd;}
</style>
<path class="st0" d="M17,9.5c-1.4,0-2.5-1.1-2.5-2.5s1.1-2.5,2.5-2.5s2.5,1.1,2.5,2.5S18.4,9.5,17,9.5 M7,19.5
	c-1.4,0-2.5-1.1-2.5-2.5s1.1-2.5,2.5-2.5c1.4,0,2.5,1.1,2.5,2.5S8.4,19.5,7,19.5 M23.7,8.5l-1.2-0.7c0.1-0.6,0.1-1.1,0-1.7l1.2-0.7
	C24,5.3,24.1,5,23.9,4.8l-1.5-2.6C22.3,2,22,1.9,21.8,2l-1.2,0.7c-0.4-0.3-0.8-0.7-1.5-0.9V0.5C19,0.2,18.8,0,18.5,0h-3
	C15.2,0,15,0.2,15,0.5v1.3c-0.7,0.2-1.1,0.5-1.5,0.9L12.2,2C12,1.9,11.7,2,11.6,2.2l-1.5,2.6C9.9,5,10,5.3,10.3,5.5l1.2,0.7
	c-0.1,0.6-0.1,1.1,0,1.7l-1.2,0.7C10,8.7,9.9,9,10.1,9.2l1.5,2.6c0.1,0.1,0.1,0.2,0.2,0.2c0,0,0,0-0.1,0l-1.3,0.7
	c-0.4-0.3-0.8-0.7-1.5-0.9v-1.3C9,10.2,8.8,10,8.5,10h-3C5.2,10,5,10.2,5,10.5v1.3c-0.7,0.2-1.1,0.5-1.5,0.9L2.2,12
	C2,11.9,1.7,12,1.6,12.2l-1.5,2.6C-0.1,15,0,15.3,0.3,15.5l1.2,0.7c-0.1,0.6-0.1,1.1,0,1.7l-1.2,0.7C0,18.7-0.1,19,0.1,19.2l1.5,2.6
	C1.7,22,2,22.1,2.3,22l1.2-0.7c0.4,0.4,0.8,0.7,1.5,0.9v1.3C5,23.8,5.2,24,5.5,24h3C8.8,24,9,23.8,9,23.5v-1.3
	c0.7-0.2,1.1-0.5,1.5-0.9l1.2,0.7c0.2,0.1,0.5,0.1,0.7-0.2l1.5-2.6c0.1-0.2,0.1-0.5-0.2-0.7l-1.2-0.7c0.1-0.6,0.1-1.1,0-1.7l1.2-0.7
	c0.2-0.1,0.3-0.4,0.2-0.7l-1.5-2.6c-0.1-0.1-0.1-0.2-0.2-0.2c0,0,0,0,0.1,0l1.2-0.7c0.4,0.4,0.8,0.7,1.5,0.9v1.3
	c0,0.3,0.2,0.5,0.5,0.5h3c0.3,0,0.5-0.2,0.5-0.5v-1.3c0.7-0.2,1.1-0.5,1.5-0.9l1.2,0.7c0.2,0.1,0.5,0.1,0.7-0.2l1.5-2.6
	C24.1,9,24,8.7,23.7,8.5"/>
</svg>
