<?xml version="1.0" encoding="utf-8"?>
<!-- Generator: Adobe Illustrator 23.0.0, SVG Export Plug-In . SVG Version: 6.00 Build 0)  -->
<svg version="1.1" id="Ebene_1" xmlns="http://www.w3.org/2000/svg" xmlns:xlink="http://www.w3.org/1999/xlink" x="0px" y="0px"
	 viewBox="0 0 24 24" style="enable-background:new 0 0 24 24;" xml:space="preserve">
<style type="text/css">
	.st0{fill-rule:evenodd;clip-rule:evenodd;}
</style>
<path class="st0" d="M10,0c0.7,0,1.3,0.6,1.3,1.3c0,0.7-0.6,1.3-1.3,1.3l0,0H2.7v18.7h18.7V14c0-0.7,0.6-1.3,1.3-1.3
	c0.7,0,1.3,0.6,1.3,1.3l0,0v8.7c0,0.7-0.6,1.3-1.3,1.3l0,0H1.3C0.6,24,0,23.4,0,22.7l0,0V1.3C0,0.6,0.6,0,1.3,0l0,0H10z M22.7,0
	C23.4,0,24,0.6,24,1.3l0,0v8c0,0.7-0.6,1.3-1.3,1.3c-0.7,0-1.3-0.6-1.3-1.3l0,0V4.6l-8,7.4c-0.5,0.5-1.4,0.5-1.9,0
	c-0.5-0.5-0.5-1.4,0-1.9l0,0l8-7.4h-4.8c-0.7,0-1.3-0.6-1.3-1.3S13.9,0,14.7,0l0,0H22.7z"/>
</svg>
