<?xml version="1.0" encoding="utf-8"?>
<!-- Generator: Adobe Illustrator 23.0.0, SVG Export Plug-In . SVG Version: 6.00 Build 0)  -->
<svg version="1.1" id="Ebene_1" xmlns="http://www.w3.org/2000/svg" xmlns:xlink="http://www.w3.org/1999/xlink" x="0px" y="0px"
	 viewBox="0 0 24 24" style="enable-background:new 0 0 24 24;" xml:space="preserve">
<path d="M12,1C5.9,1,1,5.9,1,12s4.9,11,11,11s11-4.9,11-11S18.1,1,12,1z M13.1,18.9h-2.8v-2.4h2.8V18.9z M15.7,11.2
	c-0.5,0.7-1.1,1.2-1.8,1.7c-0.4,0.3-0.6,0.6-0.8,0.9c-0.1,0.3-0.2,0.7-0.2,1.2h-2.7c0-0.9,0.1-1.5,0.4-1.9c0.3-0.4,0.8-0.9,1.5-1.5
	c0.4-0.4,0.8-0.8,1.1-1.2c0.3-0.4,0.4-0.9,0.4-1.4c0-0.6-0.2-1-0.5-1.4c-0.3-0.3-0.7-0.5-1.3-0.5c-0.5,0-0.9,0.1-1.2,0.4
	c-0.3,0.3-0.5,0.7-0.5,1.2H7.6l0-0.1c0-1.2,0.4-2.1,1.2-2.8c0.8-0.6,1.9-1,3.2-1c1.4,0,2.5,0.4,3.3,1.1C16,6.8,16.4,7.8,16.4,9
	C16.4,9.8,16.2,10.5,15.7,11.2z"/>
</svg>
