<?xml version="1.0" encoding="utf-8"?>
<!-- Generator: Adobe Illustrator 23.0.0, SVG Export Plug-In . SVG Version: 6.00 Build 0)  -->
<svg version="1.1" id="Ebene_1" xmlns="http://www.w3.org/2000/svg" xmlns:xlink="http://www.w3.org/1999/xlink" x="0px" y="0px"
	 viewBox="0 0 24 24" style="enable-background:new 0 0 24 24;" xml:space="preserve">
<style type="text/css">
	.st0{fill-rule:evenodd;clip-rule:evenodd;}
</style>
<path class="st0" d="M19.5,5C19.8,5,20,5.2,20,5.5l0,0V23h3.5c0.3,0,0.5,0.2,0.5,0.5c0,0.3-0.2,0.5-0.5,0.5l0,0h-23
	C0.2,24,0,23.8,0,23.5C0,23.2,0.2,23,0.5,23l0,0H4V5.5C4,5.2,4.2,5,4.5,5l0,0H19.5z M13.5,18h-3c-0.3,0-0.5,0.2-0.5,0.5l0,0V23h4
	v-4.5C14,18.2,13.8,18,13.5,18L13.5,18z M18,18h-2v2h2V18z M8,18H6v2h2V18z M18,14h-2v2h2V14z M14,14h-4v2h4V14z M8,14H6v2h2V14z
	 M18,10h-2v2h2V10z M14,10h-4v2h4V10z M8,10H6v2h2V10z M18,6h-2v2h2V6z M14,6h-4v2h4V6z M8,6H6v2h2V6z M12,0L12,0l8.6,2.5
	C20.9,2.6,21,2.8,21,3l0,0v0.5C21,3.8,20.8,4,20.5,4l0,0h-17C3.2,4,3,3.8,3,3.5l0,0V3c0-0.2,0.1-0.4,0.4-0.5l0,0L11.9,0
	C11.9,0,12,0,12,0L12,0z"/>
</svg>
