<?xml version="1.0" encoding="utf-8"?>
<!-- Generator: Adobe Illustrator 23.0.0, SVG Export Plug-In . SVG Version: 6.00 Build 0)  -->
<svg version="1.1" id="Ebene_1" xmlns="http://www.w3.org/2000/svg" xmlns:xlink="http://www.w3.org/1999/xlink" x="0px" y="0px"
	 viewBox="0 0 24 24" style="enable-background:new 0 0 24 24;" xml:space="preserve">
<style type="text/css">
	.st0{fill-rule:evenodd;clip-rule:evenodd;}
</style>
<path class="st0" d="M7.5,2C7.8,2,8,2.2,8,2.5l0,0V4h12.5C20.8,4,21,4.2,21,4.5l0,0V6h2.5C23.8,6,24,6.2,24,6.5l0,0v12
	c0,1.9-1.6,3.5-3.5,3.5l0,0H3c-1.7,0-3-1.3-3-3l0,0V2.5C0,2.2,0.2,2,0.5,2l0,0H7.5z M7,3H1v16c0,1.1,0.9,2,2,2s2-0.9,2-2l0,0V6.5
	C5,6.2,5.2,6,5.5,6l0,0H20V5H7.5C7.2,5,7,4.8,7,4.5l0,0V3z M17.4,8.6c-0.2-0.2-0.5-0.2-0.7,0l0,0l-6,6c-0.1,0.1-0.1,0.2-0.1,0.2l0,0
	l-1,3.5c-0.1,0.2,0,0.4,0.1,0.5C9.8,19,10,19,10.1,19l0,0l3.5-1c0.1,0,0.2-0.1,0.2-0.1l0,0l6-6c0.2-0.2,0.2-0.5,0-0.7l0,0L17.4,8.6z
	 M11.2,16l1.3,1.3l-1.8,0.5L11.2,16z M15.5,11.2l1.8,1.8l-3.8,3.8L11.7,15L15.5,11.2z M17,9.7l1.8,1.8L18,12.3l-1.8-1.8L17,9.7z"/>
</svg>
