<?xml version="1.0" encoding="utf-8"?>
<!-- Generator: Adobe Illustrator 16.0.0, SVG Export Plug-In . SVG Version: 6.00 Build 0)  -->
<!DOCTYPE svg PUBLIC "-//W3C//DTD SVG 1.1//EN" "http://www.w3.org/Graphics/SVG/1.1/DTD/svg11.dtd">
<svg version="1.1" id="Ebene_1" xmlns="http://www.w3.org/2000/svg" xmlns:xlink="http://www.w3.org/1999/xlink" x="0px" y="0px"
	 width="270px" height="64px" viewBox="0 0 270 64" enable-background="new 0 0 270 64" xml:space="preserve">
<g>
	<defs>
		<rect id="SVGID_1_" x="52.305" y="-1.45" width="165.479" height="66.935"/>
	</defs>
	<clipPath id="SVGID_2_">
		<use xlink:href="#SVGID_1_"  overflow="visible"/>
	</clipPath>
	<path clip-path="url(#SVGID_2_)" fill="#3CB5A1" d="M187.558,5.81c0.001,0.313-0.255,0.567-0.569,0.569
		c-0.313-0.001-0.569-0.253-0.566-0.567c-0.002-0.313,0.256-0.569,0.568-0.568C187.305,5.243,187.56,5.495,187.558,5.81"/>
	<path clip-path="url(#SVGID_2_)" fill="#69A546" d="M191.382,6.204c-0.002-0.351-0.287-0.638-0.638-0.636
		c-0.355,0-0.638,0.285-0.638,0.637c0.002,0.35,0.283,0.637,0.634,0.638C191.094,6.842,191.378,6.556,191.382,6.204"/>
	<path clip-path="url(#SVGID_2_)" fill="#00913C" d="M177.777,8.08c0-0.284-0.231-0.513-0.516-0.513
		c-0.282,0-0.512,0.231-0.512,0.515c0.003,0.282,0.23,0.512,0.514,0.513C177.548,8.594,177.777,8.363,177.777,8.08"/>
	<path clip-path="url(#SVGID_2_)" fill="#72A85E" d="M181.718,8.476c-0.001-0.388-0.316-0.7-0.699-0.7
		c-0.386,0-0.698,0.312-0.7,0.697c0,0.388,0.315,0.701,0.7,0.701C181.402,9.174,181.717,8.86,181.718,8.476"/>
	<path clip-path="url(#SVGID_2_)" fill="#4DB6B7" d="M185.763,8.87c0-0.548-0.443-0.991-0.99-0.99
		c-0.548-0.001-0.992,0.441-0.992,0.99c0,0.548,0.444,0.992,0.992,0.99C185.32,9.862,185.764,9.416,185.763,8.87"/>
	<path clip-path="url(#SVGID_2_)" fill="#6DB576" d="M189.875,9.264c-0.001-0.748-0.604-1.352-1.35-1.351
		c-0.749,0-1.352,0.604-1.353,1.351c-0.002,0.746,0.604,1.351,1.353,1.352C189.271,10.615,189.875,10.009,189.875,9.264"/>
	<path clip-path="url(#SVGID_2_)" fill="#69A546" d="M193.175,9.66c0.002-0.499-0.401-0.899-0.896-0.901
		c-0.499,0.001-0.9,0.401-0.901,0.901c0.002,0.497,0.404,0.899,0.9,0.897C192.773,10.558,193.176,10.156,193.175,9.66"/>
	<path clip-path="url(#SVGID_2_)" fill="#69A546" d="M196.742,10.052c0.003-0.391-0.316-0.713-0.712-0.711
		c-0.393-0.003-0.712,0.318-0.714,0.712c0.001,0.395,0.322,0.712,0.717,0.715C196.427,10.767,196.744,10.446,196.742,10.052"/>
	<path clip-path="url(#SVGID_2_)" fill="#00913C" d="M200.299,10.448c0.001-0.286-0.229-0.516-0.515-0.516
		c-0.285-0.001-0.516,0.231-0.516,0.515c-0.002,0.284,0.229,0.517,0.518,0.517C200.069,10.963,200.3,10.733,200.299,10.448"/>
	<path clip-path="url(#SVGID_2_)" fill="#69A546" d="M171.803,10.746c0.002-0.285-0.226-0.516-0.509-0.516
		c-0.285,0.002-0.516,0.231-0.513,0.514c-0.001,0.283,0.226,0.515,0.51,0.516C171.575,11.258,171.803,11.028,171.803,10.746"/>
	<path clip-path="url(#SVGID_2_)" fill="#72A85E" d="M175.826,11.139c0-0.429-0.352-0.776-0.781-0.78
		c-0.428,0.002-0.777,0.348-0.778,0.779c0,0.43,0.35,0.778,0.78,0.778C175.475,11.917,175.824,11.571,175.826,11.139"/>
	<path clip-path="url(#SVGID_2_)" fill="#95C11F" d="M180.106,11.534c-0.001-0.723-0.587-1.308-1.308-1.308
		c-0.722,0-1.309,0.586-1.308,1.309c0.001,0.72,0.587,1.305,1.306,1.305C179.52,12.84,180.106,12.256,180.106,11.534"/>
	<path clip-path="url(#SVGID_2_)" fill="#6DB576" d="M183.89,11.927c-0.001-0.737-0.6-1.337-1.337-1.337
		c-0.737,0.001-1.337,0.599-1.338,1.338s0.598,1.339,1.337,1.34C183.292,13.266,183.892,12.667,183.89,11.927"/>
	<path clip-path="url(#SVGID_2_)" fill="#31B7BC" d="M187.643,12.323c0-0.739-0.599-1.338-1.337-1.339
		c-0.737,0-1.339,0.6-1.338,1.338c-0.001,0.741,0.6,1.338,1.338,1.339C187.045,13.661,187.644,13.06,187.643,12.323"/>
	<path clip-path="url(#SVGID_2_)" fill="#95C11F" d="M191.391,12.716c-0.004-0.732-0.597-1.329-1.331-1.331
		c-0.736,0.002-1.329,0.598-1.33,1.332c0,0.734,0.594,1.33,1.33,1.331C190.794,14.046,191.391,13.451,191.391,12.716"/>
	<path clip-path="url(#SVGID_2_)" fill="#52AE32" d="M195.147,13.111c0-0.738-0.598-1.334-1.334-1.334
		c-0.738,0-1.337,0.598-1.337,1.334c0,0.739,0.599,1.334,1.336,1.334C194.551,14.447,195.148,13.848,195.147,13.111"/>
	<path clip-path="url(#SVGID_2_)" fill="#69A546" d="M198.673,13.506c0.001-0.611-0.496-1.106-1.108-1.109
		c-0.61,0-1.108,0.498-1.106,1.109c0,0.609,0.496,1.108,1.106,1.105C198.176,14.612,198.673,14.116,198.673,13.506"/>
	<path clip-path="url(#SVGID_2_)" fill="#6AB78A" d="M202.224,13.901c0-0.5-0.405-0.905-0.903-0.905
		c-0.502,0-0.906,0.406-0.908,0.904c0.002,0.5,0.407,0.904,0.905,0.906C201.818,14.805,202.224,14.4,202.224,13.901"/>
	<path clip-path="url(#SVGID_2_)" fill="#579A32" d="M205.642,14.293c-0.002-0.314-0.254-0.569-0.567-0.568
		c-0.317-0.001-0.571,0.253-0.571,0.569c0,0.315,0.256,0.569,0.568,0.57C205.389,14.866,205.644,14.607,205.642,14.293"/>
	<path clip-path="url(#SVGID_2_)" fill="#69A546" d="M150.881,11.832c0-0.318-0.256-0.576-0.576-0.576
		c-0.315,0-0.575,0.258-0.572,0.575c-0.002,0.318,0.257,0.576,0.571,0.577C150.624,12.406,150.879,12.15,150.881,11.832"/>
	<path clip-path="url(#SVGID_2_)" fill="#579A32" d="M150.196,18.36c0.002-0.318-0.257-0.576-0.575-0.574
		c-0.318-0.001-0.578,0.258-0.573,0.573c-0.001,0.318,0.257,0.575,0.573,0.577C149.938,18.937,150.196,18.678,150.196,18.36"/>
	<path clip-path="url(#SVGID_2_)" fill="#52AE32" d="M155.102,12.226c0-0.576-0.469-1.042-1.044-1.041
		c-0.573,0-1.036,0.467-1.04,1.041c-0.001,0.573,0.469,1.04,1.042,1.041C154.634,13.266,155.102,12.799,155.102,12.226"/>
	<path clip-path="url(#SVGID_2_)" fill="#6DB576" d="M158.853,12.62c0-0.573-0.463-1.04-1.037-1.04c-0.576,0-1.044,0.462-1.045,1.04
		c0,0.575,0.469,1.039,1.041,1.039C158.39,13.659,158.855,13.195,158.853,12.62"/>
	<path clip-path="url(#SVGID_2_)" fill="#00B0E3" d="M162.489,13.013c0.002-0.51-0.409-0.921-0.923-0.923
		c-0.51,0.001-0.927,0.414-0.923,0.923c-0.001,0.512,0.414,0.925,0.922,0.927C162.077,13.939,162.492,13.524,162.489,13.013"/>
	<path clip-path="url(#SVGID_2_)" fill="#72A85E" d="M166.023,13.409c0-0.389-0.313-0.706-0.703-0.706s-0.703,0.317-0.704,0.707
		c0,0.389,0.315,0.702,0.703,0.7C165.71,14.11,166.023,13.797,166.023,13.409"/>
	<path clip-path="url(#SVGID_2_)" fill="#8FB15D" d="M170.044,13.803c0.005-0.538-0.432-0.975-0.969-0.975
		c-0.54,0-0.977,0.436-0.979,0.976c0.002,0.538,0.44,0.975,0.978,0.974C169.61,14.779,170.051,14.34,170.044,13.803"/>
	<path clip-path="url(#SVGID_2_)" fill="#95C11F" d="M174.01,14.199c0-0.653-0.529-1.184-1.187-1.186
		c-0.648,0.002-1.18,0.531-1.18,1.186c-0.002,0.652,0.527,1.182,1.18,1.182C173.48,15.382,174.009,14.851,174.01,14.199"/>
	<path clip-path="url(#SVGID_2_)" fill="#6DB576" d="M177.955,14.593c-0.001-0.76-0.615-1.377-1.374-1.376
		c-0.763,0-1.375,0.616-1.378,1.375c0.003,0.762,0.615,1.377,1.378,1.376C177.339,15.967,177.956,15.35,177.955,14.593"/>
	<path clip-path="url(#SVGID_2_)" fill="#31B7BC" d="M181.865,14.988c0.001-0.846-0.685-1.534-1.532-1.535
		c-0.845,0.003-1.533,0.688-1.534,1.534c0.002,0.846,0.688,1.532,1.536,1.533C181.181,16.518,181.866,15.833,181.865,14.988"/>
	<path clip-path="url(#SVGID_2_)" fill="#76AE62" d="M185.616,15.381c0-0.846-0.686-1.531-1.529-1.529
		c-0.844,0.002-1.529,0.686-1.529,1.53c-0.001,0.843,0.686,1.529,1.531,1.527C184.93,16.911,185.617,16.225,185.616,15.381"/>
	<path clip-path="url(#SVGID_2_)" fill="#6DB576" d="M189.364,15.775c0-0.841-0.682-1.523-1.525-1.524
		c-0.842,0-1.522,0.683-1.521,1.524c-0.002,0.841,0.681,1.524,1.521,1.525C188.684,17.299,189.366,16.618,189.364,15.775"/>
	<path clip-path="url(#SVGID_2_)" fill="#8FB15D" d="M193.091,16.169c0-0.826-0.67-1.498-1.496-1.498
		c-0.827,0-1.497,0.673-1.497,1.498c-0.004,0.828,0.667,1.499,1.497,1.499C192.421,17.668,193.09,16.995,193.091,16.169"/>
	<path clip-path="url(#SVGID_2_)" fill="#51B4A6" d="M196.688,16.564c-0.001-0.74-0.6-1.34-1.341-1.341
		c-0.738,0-1.339,0.6-1.339,1.34c0,0.741,0.598,1.343,1.338,1.343C196.086,17.906,196.688,17.306,196.688,16.564"/>
	<path clip-path="url(#SVGID_2_)" fill="#6A9869" d="M200.438,16.959c-0.002-0.739-0.599-1.338-1.34-1.339
		c-0.736,0.001-1.336,0.601-1.336,1.338c-0.001,0.739,0.6,1.341,1.336,1.339C199.84,18.297,200.438,17.698,200.438,16.959"/>
	<path clip-path="url(#SVGID_2_)" fill="#76AE62" d="M203.971,17.354c0.002-0.618-0.5-1.119-1.118-1.12
		c-0.617,0-1.118,0.502-1.118,1.12c0,0.618,0.503,1.121,1.122,1.119C203.472,18.473,203.971,17.97,203.971,17.354"/>
	<path clip-path="url(#SVGID_2_)" fill="#579A32" d="M207.243,17.749c0-0.353-0.285-0.638-0.638-0.637
		c-0.351-0.001-0.637,0.286-0.636,0.636c0.002,0.353,0.285,0.637,0.637,0.637C206.958,18.387,207.243,18.099,207.243,17.749"/>
	<path clip-path="url(#SVGID_2_)" fill="#52AE32" d="M152.667,15.283c0.001-0.455-0.368-0.826-0.828-0.824
		c-0.455-0.001-0.825,0.371-0.824,0.827c-0.002,0.455,0.371,0.826,0.826,0.824C152.297,16.111,152.668,15.739,152.667,15.283"/>
	<path clip-path="url(#SVGID_2_)" fill="#95C11F" d="M156.944,15.678c-0.003-0.744-0.606-1.35-1.348-1.347
		c-0.747-0.001-1.35,0.602-1.352,1.347c0.002,0.746,0.604,1.352,1.35,1.351C156.338,17.03,156.942,16.425,156.944,15.678"/>
	<path clip-path="url(#SVGID_2_)" fill="#00B0E3" d="M160.76,16.075c-0.003-0.781-0.633-1.411-1.412-1.411
		c-0.778-0.001-1.411,0.631-1.407,1.411c-0.002,0.777,0.63,1.409,1.406,1.41C160.126,17.482,160.758,16.853,160.76,16.075"/>
	<path clip-path="url(#SVGID_2_)" fill="#00B0E3" d="M164.458,16.467c-0.001-0.749-0.608-1.355-1.358-1.355
		c-0.748,0-1.355,0.607-1.356,1.354c-0.001,0.751,0.609,1.359,1.358,1.358C163.851,17.825,164.458,17.218,164.458,16.467"/>
	<path clip-path="url(#SVGID_2_)" fill="#8CA88A" d="M168.189,16.862c0-0.738-0.598-1.336-1.337-1.335
		c-0.736,0-1.333,0.597-1.336,1.333c0.003,0.739,0.601,1.336,1.336,1.336C167.592,18.197,168.188,17.599,168.189,16.862"/>
	<path clip-path="url(#SVGID_2_)" fill="#8FB15D" d="M171.98,17.256c0-0.759-0.614-1.374-1.373-1.376
		c-0.759,0-1.373,0.617-1.377,1.377c0,0.758,0.618,1.374,1.377,1.374S171.98,18.015,171.98,17.256"/>
	<path clip-path="url(#SVGID_2_)" fill="#95C11F" d="M175.758,17.65c0-0.771-0.624-1.396-1.398-1.396
		c-0.769,0-1.395,0.625-1.395,1.397c-0.002,0.771,0.625,1.397,1.396,1.396C175.134,19.048,175.758,18.422,175.758,17.65"/>
	<path clip-path="url(#SVGID_2_)" fill="#4DB6B7" d="M179.586,18.044c-0.002-0.809-0.662-1.468-1.472-1.469
		c-0.811,0.001-1.469,0.66-1.47,1.469c0.001,0.812,0.66,1.47,1.47,1.47C178.925,19.516,179.585,18.857,179.586,18.044"/>
	<path clip-path="url(#SVGID_2_)" fill="#95C11F" d="M183.34,18.439c-0.002-0.812-0.661-1.473-1.474-1.472
		c-0.813-0.001-1.471,0.66-1.472,1.473c0.001,0.813,0.659,1.474,1.473,1.473C182.68,19.915,183.339,19.253,183.34,18.439"/>
	<path clip-path="url(#SVGID_2_)" fill="#95C11F" d="M187.074,18.835c0-0.804-0.649-1.453-1.453-1.451c-0.8,0-1.45,0.65-1.454,1.45
		c0.003,0.803,0.653,1.453,1.455,1.45C186.422,20.287,187.072,19.637,187.074,18.835"/>
	<path clip-path="url(#SVGID_2_)" fill="#72A85E" d="M190.849,19.229c0-0.812-0.661-1.474-1.474-1.475
		c-0.813,0-1.476,0.66-1.475,1.475s0.66,1.475,1.475,1.475C190.188,20.704,190.848,20.042,190.849,19.229"/>
	<path clip-path="url(#SVGID_2_)" fill="#929B9E" d="M194.652,19.625c0-0.841-0.681-1.527-1.525-1.525
		c-0.839,0.001-1.522,0.682-1.522,1.523c0,0.843,0.68,1.523,1.523,1.523C193.969,21.148,194.652,20.464,194.652,19.625"/>
	<path clip-path="url(#SVGID_2_)" fill="#9C88BF" d="M198.369,20.019c-0.004-0.824-0.662-1.491-1.489-1.491
		c-0.819,0-1.489,0.666-1.489,1.489c0.001,0.823,0.669,1.489,1.491,1.49C197.704,21.506,198.371,20.84,198.369,20.019"/>
	<path clip-path="url(#SVGID_2_)" fill="#72A85E" d="M201.972,20.412c0.001-0.736-0.599-1.333-1.338-1.334
		c-0.737-0.001-1.334,0.597-1.336,1.336c0.001,0.736,0.598,1.335,1.336,1.336C201.372,21.748,201.97,21.152,201.972,20.412"/>
	<path clip-path="url(#SVGID_2_)" fill="#72A85E" d="M205.275,20.807c-0.001-0.49-0.398-0.887-0.888-0.886
		c-0.487,0-0.887,0.395-0.885,0.886c0,0.49,0.396,0.885,0.885,0.884C204.876,21.694,205.275,21.295,205.275,20.807"/>
	<path clip-path="url(#SVGID_2_)" fill="#52AE32" d="M154.305,18.737c-0.002-0.513-0.416-0.93-0.929-0.931
		c-0.512,0.001-0.93,0.417-0.932,0.932c0.002,0.511,0.416,0.928,0.932,0.93C153.889,19.666,154.305,19.251,154.305,18.737"/>
	<path clip-path="url(#SVGID_2_)" fill="#6AB78A" d="M158.431,19.132c-0.003-0.719-0.582-1.302-1.301-1.301
		c-0.72,0-1.302,0.581-1.302,1.302c-0.001,0.719,0.584,1.302,1.3,1.3C157.848,20.433,158.431,19.852,158.431,19.132"/>
	<path clip-path="url(#SVGID_2_)" fill="#00B0E3" d="M162.236,19.528c0-0.749-0.604-1.356-1.354-1.357
		c-0.744,0-1.352,0.608-1.353,1.354c0,0.749,0.604,1.356,1.353,1.356C161.632,20.879,162.233,20.274,162.236,19.528"/>
	<path clip-path="url(#SVGID_2_)" fill="#9C88BF" d="M166.091,19.922c0.002-0.807-0.651-1.459-1.456-1.46
		c-0.803,0-1.457,0.654-1.458,1.459c0.001,0.803,0.652,1.457,1.458,1.457C165.439,21.378,166.096,20.724,166.091,19.922"/>
	<path clip-path="url(#SVGID_2_)" fill="#76A47C" d="M169.912,20.314c0.001-0.841-0.684-1.522-1.522-1.525
		c-0.841,0.002-1.525,0.685-1.525,1.526c0,0.842,0.681,1.524,1.523,1.525C169.229,21.839,169.915,21.157,169.912,20.314"/>
	<path clip-path="url(#SVGID_2_)" fill="#69A546" d="M173.614,20.71c-0.002-0.813-0.66-1.472-1.472-1.472s-1.473,0.66-1.473,1.474
		c-0.001,0.811,0.657,1.471,1.474,1.471C172.955,22.182,173.614,21.521,173.614,20.71"/>
	<path clip-path="url(#SVGID_2_)" fill="#95C11F" d="M177.388,21.104c0.004-0.826-0.665-1.496-1.492-1.496
		c-0.826-0.001-1.496,0.669-1.494,1.495c0,0.826,0.67,1.497,1.493,1.497C176.721,22.599,177.391,21.932,177.388,21.104"/>
	<path clip-path="url(#SVGID_2_)" fill="#54AB85" d="M181.125,21.499c0-0.814-0.659-1.475-1.478-1.474
		c-0.815-0.001-1.477,0.658-1.477,1.474c0,0.815,0.661,1.477,1.479,1.48C180.465,22.979,181.126,22.314,181.125,21.499"/>
	<path clip-path="url(#SVGID_2_)" fill="#76AE62" d="M184.876,21.894c0-0.815-0.66-1.475-1.475-1.475
		c-0.815,0-1.471,0.661-1.475,1.474c0.005,0.816,0.662,1.475,1.475,1.477C184.216,23.37,184.875,22.708,184.876,21.894"/>
	<path clip-path="url(#SVGID_2_)" fill="#71B783" d="M188.638,22.29c0.001-0.82-0.666-1.481-1.482-1.48s-1.48,0.66-1.48,1.48
		c0,0.817,0.665,1.481,1.481,1.481C187.971,23.771,188.637,23.109,188.638,22.29"/>
	<path clip-path="url(#SVGID_2_)" fill="#95C11F" d="M192.411,22.685c-0.001-0.831-0.673-1.508-1.503-1.505
		c-0.83-0.002-1.503,0.673-1.506,1.505c0.003,0.831,0.677,1.507,1.507,1.507C191.739,24.192,192.413,23.517,192.411,22.685"/>
	<path clip-path="url(#SVGID_2_)" fill="#72A85E" d="M196.143,23.08c-0.001-0.818-0.663-1.483-1.479-1.484
		c-0.817,0.001-1.481,0.664-1.481,1.484c0.001,0.818,0.661,1.483,1.482,1.483C195.478,24.563,196.143,23.9,196.143,23.08"/>
	<path clip-path="url(#SVGID_2_)" fill="#51B4A6" d="M199.817,23.475c0.002-0.773-0.628-1.401-1.401-1.402
		c-0.773,0.001-1.401,0.629-1.398,1.402c-0.003,0.774,0.627,1.401,1.398,1.401C199.189,24.876,199.813,24.249,199.817,23.475"/>
	<path clip-path="url(#SVGID_2_)" fill="#72A85E" d="M203.239,23.869c-0.001-0.592-0.478-1.073-1.069-1.071
		c-0.592-0.003-1.072,0.478-1.073,1.073c0.001,0.592,0.481,1.073,1.073,1.072C202.763,24.943,203.243,24.462,203.239,23.869"/>
	<path clip-path="url(#SVGID_2_)" fill="#6A9869" d="M159.224,22.585c0-0.309-0.25-0.56-0.562-0.56
		c-0.311,0.002-0.56,0.251-0.559,0.562c0,0.31,0.251,0.563,0.559,0.562C158.971,23.147,159.224,22.897,159.224,22.585"/>
	<path clip-path="url(#SVGID_2_)" fill="#00B0E3" d="M163.721,22.983c-0.001-0.723-0.584-1.309-1.303-1.309
		c-0.725,0-1.306,0.585-1.307,1.307c0,0.722,0.586,1.308,1.305,1.309C163.138,24.29,163.721,23.704,163.721,22.983"/>
	<path clip-path="url(#SVGID_2_)" fill="#6DB576" d="M167.702,23.378c-0.001-0.849-0.686-1.532-1.533-1.534
		c-0.845,0.002-1.534,0.687-1.531,1.534c-0.003,0.847,0.688,1.53,1.53,1.531C167.018,24.908,167.702,24.223,167.702,23.378"/>
	<path clip-path="url(#SVGID_2_)" fill="#6AB78A" d="M171.375,23.774c-0.002-0.803-0.651-1.453-1.452-1.454
		c-0.8-0.001-1.45,0.65-1.452,1.453c0.002,0.801,0.649,1.45,1.454,1.451C170.723,25.222,171.373,24.574,171.375,23.774"/>
	<path clip-path="url(#SVGID_2_)" fill="#52AE32" d="M175.158,24.167c0-0.816-0.665-1.48-1.48-1.479
		c-0.817,0-1.48,0.663-1.479,1.479c0,0.818,0.661,1.481,1.479,1.48C174.492,25.647,175.157,24.987,175.158,24.167"/>
	<path clip-path="url(#SVGID_2_)" fill="#51B4A6" d="M178.888,24.562c-0.004-0.805-0.654-1.458-1.459-1.459
		c-0.804,0.002-1.455,0.655-1.455,1.459c-0.001,0.804,0.652,1.458,1.457,1.457C178.235,26.019,178.891,25.365,178.888,24.562"/>
	<path clip-path="url(#SVGID_2_)" fill="#8FB15D" d="M182.658,24.958c0-0.815-0.661-1.476-1.477-1.476
		c-0.813,0-1.471,0.659-1.471,1.473c-0.001,0.816,0.659,1.476,1.472,1.476C181.996,26.433,182.657,25.769,182.658,24.958"/>
	<path clip-path="url(#SVGID_2_)" fill="#95C11F" d="M186.411,25.351c0-0.813-0.658-1.472-1.474-1.473
		c-0.815,0-1.475,0.661-1.475,1.475c0,0.813,0.661,1.471,1.471,1.471C185.752,26.824,186.411,26.166,186.411,25.351"/>
	<path clip-path="url(#SVGID_2_)" fill="#72B240" d="M190.161,25.748c0.001-0.814-0.659-1.475-1.47-1.476
		c-0.815,0-1.477,0.66-1.477,1.475c0.001,0.814,0.661,1.472,1.476,1.474C189.505,27.219,190.16,26.56,190.161,25.748"/>
	<path clip-path="url(#SVGID_2_)" fill="#52AE32" d="M193.927,26.14c0-0.819-0.666-1.482-1.482-1.481
		c-0.821-0.001-1.485,0.662-1.485,1.481c0,0.821,0.666,1.485,1.483,1.484C193.263,27.624,193.927,26.96,193.927,26.14"/>
	<path clip-path="url(#SVGID_2_)" fill="#72A85E" d="M197.655,26.536c0-0.804-0.653-1.458-1.46-1.457
		c-0.805,0-1.456,0.65-1.454,1.454c-0.001,0.806,0.649,1.461,1.454,1.461C197,27.992,197.655,27.341,197.655,26.536"/>
	<path clip-path="url(#SVGID_2_)" fill="#31B7BC" d="M201.356,26.93c0.002-0.776-0.631-1.404-1.404-1.406
		c-0.779,0.002-1.405,0.631-1.409,1.405c0.001,0.777,0.632,1.405,1.409,1.406C200.725,28.334,201.356,27.706,201.356,26.93"/>
	<path clip-path="url(#SVGID_2_)" fill="#69A546" d="M204.393,27.326c0.003-0.383-0.308-0.69-0.689-0.69
		c-0.383-0.002-0.688,0.308-0.688,0.688s0.306,0.69,0.688,0.69C204.085,28.015,204.393,27.706,204.393,27.326"/>
	<path clip-path="url(#SVGID_2_)" fill="#6A9869" d="M160.814,26.045c0.001-0.344-0.275-0.619-0.618-0.618
		c-0.342-0.001-0.616,0.276-0.619,0.617c-0.001,0.34,0.276,0.619,0.621,0.617C160.538,26.661,160.815,26.384,160.814,26.045"/>
	<path clip-path="url(#SVGID_2_)" fill="#00B0E3" d="M165.337,26.439c0-0.767-0.621-1.387-1.384-1.386
		c-0.77-0.001-1.389,0.62-1.388,1.386c-0.003,0.765,0.621,1.387,1.384,1.386C164.716,27.824,165.337,27.205,165.337,26.439"/>
	<path clip-path="url(#SVGID_2_)" fill="#00B0E3" d="M169.158,26.834c-0.001-0.804-0.652-1.455-1.454-1.452
		c-0.799-0.002-1.452,0.648-1.452,1.45c0,0.802,0.653,1.454,1.453,1.453C168.505,28.285,169.155,27.634,169.158,26.834"/>
	<path clip-path="url(#SVGID_2_)" fill="#72A85E" d="M172.933,27.228c-0.001-0.815-0.659-1.475-1.473-1.474
		c-0.815,0-1.476,0.66-1.476,1.472c0,0.816,0.66,1.477,1.475,1.477S172.934,28.042,172.933,27.228"/>
	<path clip-path="url(#SVGID_2_)" fill="#4DB6B7" d="M176.686,27.623c0-0.813-0.662-1.474-1.473-1.476
		c-0.815,0-1.475,0.662-1.475,1.476c-0.001,0.812,0.659,1.472,1.474,1.472S176.681,28.436,176.686,27.623"/>
	<path clip-path="url(#SVGID_2_)" fill="#95C11F" d="M180.437,28.016c-0.001-0.811-0.659-1.472-1.474-1.472
		c-0.812,0-1.471,0.66-1.472,1.472c0.001,0.812,0.66,1.472,1.471,1.473C179.777,29.487,180.437,28.828,180.437,28.016"/>
	<path clip-path="url(#SVGID_2_)" fill="#6DB576" d="M184.193,28.412c0-0.815-0.661-1.475-1.477-1.476
		c-0.813,0.002-1.472,0.662-1.472,1.476s0.659,1.473,1.472,1.473C183.532,29.886,184.192,29.227,184.193,28.412"/>
	<path clip-path="url(#SVGID_2_)" fill="#52AE32" d="M187.944,28.807c-0.002-0.814-0.658-1.475-1.474-1.475
		c-0.813,0-1.474,0.66-1.474,1.475c0.002,0.811,0.658,1.47,1.474,1.471C187.286,30.278,187.945,29.618,187.944,28.807"/>
	<path clip-path="url(#SVGID_2_)" fill="#6DB576" d="M191.695,29.202c-0.001-0.816-0.657-1.477-1.468-1.475
		c-0.815-0.001-1.477,0.659-1.477,1.475c0,0.813,0.66,1.473,1.474,1.474C191.038,30.676,191.7,30.014,191.695,29.202"/>
	<path clip-path="url(#SVGID_2_)" fill="#6A9869" d="M195.456,29.593c0-0.816-0.664-1.475-1.478-1.475
		c-0.82,0-1.479,0.659-1.479,1.476c0.001,0.817,0.664,1.477,1.478,1.479C194.794,31.07,195.456,30.41,195.456,29.593"/>
	<path clip-path="url(#SVGID_2_)" fill="#9C88BF" d="M199.197,29.989c0-0.81-0.655-1.465-1.465-1.465
		c-0.81-0.001-1.468,0.656-1.466,1.464c0,0.811,0.656,1.47,1.466,1.47C198.541,31.456,199.196,30.799,199.197,29.989"/>
	<path clip-path="url(#SVGID_2_)" fill="#9C88BF" d="M208.122,34.237c-0.002-0.745-0.603-1.348-1.347-1.349
		c-0.745,0-1.349,0.604-1.349,1.348c-0.001,0.745,0.602,1.35,1.348,1.35C207.52,35.587,208.125,34.981,208.122,34.237"/>
	<path clip-path="url(#SVGID_2_)" fill="#9C88BF" d="M188.872,38.765c0-0.859-0.694-1.554-1.552-1.552
		c-0.858-0.001-1.554,0.691-1.555,1.552c-0.002,0.856,0.693,1.552,1.555,1.553C188.176,40.317,188.872,39.624,188.872,38.765"/>
	<path clip-path="url(#SVGID_2_)" fill="#8491B6" d="M202.866,30.383c0-0.765-0.621-1.383-1.381-1.383
		c-0.766,0.001-1.385,0.619-1.383,1.383c-0.002,0.765,0.617,1.384,1.383,1.385C202.249,31.771,202.868,31.149,202.866,30.383"/>
	<path clip-path="url(#SVGID_2_)" fill="#6A9869" d="M206.313,30.78c0-0.594-0.481-1.08-1.075-1.078
		c-0.592,0.002-1.074,0.483-1.074,1.076c0,0.597,0.481,1.077,1.074,1.076C205.832,31.854,206.313,31.372,206.313,30.78"/>
	<path clip-path="url(#SVGID_2_)" fill="#69A546" d="M209.617,31.174c0.001-0.345-0.279-0.625-0.625-0.627
		c-0.349,0-0.627,0.282-0.627,0.627c0,0.344,0.279,0.626,0.625,0.627C209.337,31.8,209.616,31.519,209.617,31.174"/>
	<path clip-path="url(#SVGID_2_)" fill="#6A9869" d="M162.409,29.497c0-0.374-0.301-0.677-0.677-0.677
		c-0.372,0-0.678,0.304-0.676,0.677c-0.001,0.375,0.302,0.678,0.675,0.678C162.106,30.176,162.409,29.872,162.409,29.497"/>
	<path clip-path="url(#SVGID_2_)" fill="#69A546" d="M160.299,32.824c-0.001-0.375-0.303-0.677-0.675-0.678
		c-0.374,0-0.679,0.305-0.677,0.679c0,0.374,0.303,0.676,0.678,0.676C159.997,33.502,160.303,33.198,160.299,32.824"/>
	<path clip-path="url(#SVGID_2_)" fill="#72A85E" d="M166.847,29.891c0.001-0.75-0.611-1.359-1.361-1.36
		c-0.751-0.001-1.36,0.607-1.36,1.362c0,0.752,0.608,1.361,1.358,1.363C166.237,31.255,166.848,30.646,166.847,29.891"/>
	<path clip-path="url(#SVGID_2_)" fill="#00B0E3" d="M170.722,30.288c0.002-0.82-0.663-1.485-1.483-1.484
		c-0.816-0.001-1.483,0.664-1.483,1.485c0.003,0.816,0.662,1.48,1.482,1.482C170.059,31.771,170.718,31.107,170.722,30.288"/>
	<path clip-path="url(#SVGID_2_)" fill="#929B9E" d="M174.411,30.682c0-0.784-0.634-1.42-1.417-1.422
		c-0.788,0.001-1.423,0.637-1.422,1.421c0.002,0.788,0.637,1.422,1.421,1.421C173.777,32.103,174.411,31.465,174.411,30.682"/>
	<path clip-path="url(#SVGID_2_)" fill="#6DB576" d="M178.219,31.078c0-0.815-0.66-1.476-1.475-1.476
		c-0.812-0.001-1.472,0.659-1.473,1.475c0,0.812,0.66,1.471,1.473,1.472C177.56,32.549,178.219,31.889,178.219,31.078"/>
	<path clip-path="url(#SVGID_2_)" fill="#54AB85" d="M181.973,31.471c0.001-0.815-0.659-1.476-1.474-1.476
		c-0.815,0.001-1.476,0.662-1.474,1.474c0,0.815,0.66,1.477,1.475,1.477C181.311,32.946,181.973,32.284,181.973,31.471"/>
	<path clip-path="url(#SVGID_2_)" fill="#95C11F" d="M185.727,31.864c0-0.811-0.66-1.472-1.474-1.472
		c-0.818,0-1.475,0.66-1.474,1.474c-0.002,0.813,0.66,1.472,1.472,1.472C185.065,33.338,185.727,32.679,185.727,31.864"/>
	<path clip-path="url(#SVGID_2_)" fill="#6DB576" d="M189.479,32.261c-0.002-0.816-0.66-1.476-1.471-1.476
		c-0.815,0-1.477,0.659-1.475,1.474c-0.002,0.814,0.658,1.473,1.472,1.473C188.823,33.732,189.479,33.072,189.479,32.261"/>
	<path clip-path="url(#SVGID_2_)" fill="#95C11F" d="M193.208,32.655c0.001-0.799-0.648-1.449-1.45-1.451
		c-0.799,0-1.445,0.65-1.447,1.451c0.002,0.798,0.647,1.447,1.447,1.448C192.56,34.103,193.208,33.455,193.208,32.655"/>
	<path clip-path="url(#SVGID_2_)" fill="#52AE32" d="M196.998,33.049c0-0.82-0.663-1.485-1.487-1.485
		c-0.817-0.001-1.485,0.664-1.485,1.484s0.667,1.487,1.486,1.486C196.331,34.532,196.998,33.87,196.998,33.049"/>
	<path clip-path="url(#SVGID_2_)" fill="#72A85E" d="M200.758,33.444c-0.001-0.824-0.667-1.493-1.493-1.493
		c-0.823,0-1.494,0.667-1.493,1.493c0,0.826,0.67,1.491,1.493,1.491C200.091,34.935,200.758,34.27,200.758,33.444"/>
	<path clip-path="url(#SVGID_2_)" fill="#6EAAC1" d="M204.37,33.839c0-0.747-0.606-1.346-1.352-1.35
		c-0.743,0-1.348,0.603-1.35,1.349c0.003,0.744,0.605,1.349,1.351,1.349C203.764,35.187,204.37,34.582,204.37,33.839"/>
	<path clip-path="url(#SVGID_2_)" fill="#72A85E" d="M211.091,34.628c0.001-0.313-0.251-0.565-0.565-0.566
		c-0.311,0-0.564,0.254-0.563,0.564c0,0.313,0.25,0.564,0.563,0.563C210.837,35.19,211.087,34.939,211.091,34.628"/>
	<path clip-path="url(#SVGID_2_)" fill="#72A85E" d="M164.302,32.944c0.004-0.697-0.563-1.262-1.255-1.259
		c-0.697-0.003-1.262,0.562-1.266,1.261c0.004,0.694,0.569,1.257,1.261,1.258C163.741,34.203,164.306,33.64,164.302,32.944"/>
	<path clip-path="url(#SVGID_2_)" fill="#9C88BF" d="M168.403,33.345c-0.002-0.765-0.62-1.382-1.384-1.384
		c-0.764,0.001-1.385,0.621-1.382,1.384c-0.003,0.766,0.616,1.385,1.382,1.385C167.787,34.729,168.403,34.109,168.403,33.345"/>
	<path clip-path="url(#SVGID_2_)" fill="#00B0E3" d="M172.233,33.74c-0.001-0.806-0.652-1.459-1.462-1.459
		c-0.806,0-1.459,0.652-1.459,1.458c0.001,0.808,0.654,1.461,1.46,1.461C171.581,35.2,172.235,34.546,172.233,33.74"/>
	<path clip-path="url(#SVGID_2_)" fill="#8CA88A" d="M175.998,34.135c0-0.812-0.658-1.473-1.473-1.472
		c-0.811,0.001-1.476,0.658-1.472,1.473c0,0.813,0.657,1.473,1.476,1.472C175.339,35.607,175.999,34.948,175.998,34.135"/>
	<path clip-path="url(#SVGID_2_)" fill="#72A471" d="M179.753,34.53c0-0.815-0.66-1.475-1.474-1.475
		c-0.811,0-1.472,0.658-1.473,1.475c0.001,0.812,0.661,1.471,1.472,1.471C179.092,36.001,179.753,35.342,179.753,34.53"/>
	<path clip-path="url(#SVGID_2_)" fill="#72A85E" d="M183.508,34.923c-0.001-0.814-0.661-1.473-1.476-1.473
		c-0.813,0-1.472,0.661-1.472,1.473c0,0.813,0.66,1.475,1.471,1.475C182.847,36.396,183.508,35.737,183.508,34.923"/>
	<path clip-path="url(#SVGID_2_)" fill="#929B9E" d="M187.259,35.317c-0.002-0.812-0.661-1.472-1.472-1.473
		c-0.814,0-1.474,0.66-1.474,1.476c0.001,0.812,0.656,1.471,1.474,1.471C186.602,36.791,187.26,36.132,187.259,35.317"/>
	<path clip-path="url(#SVGID_2_)" fill="#9294A9" d="M191.003,35.715c-0.002-0.81-0.655-1.466-1.464-1.468
		c-0.807,0-1.463,0.656-1.462,1.466c-0.001,0.809,0.656,1.465,1.463,1.465C190.349,37.178,191.005,36.521,191.003,35.715"/>
	<path clip-path="url(#SVGID_2_)" fill="#6A9869" d="M194.757,36.107c0-0.809-0.654-1.466-1.464-1.465
		c-0.807-0.001-1.464,0.656-1.465,1.462c0.003,0.81,0.658,1.468,1.466,1.466C194.104,37.57,194.757,36.916,194.757,36.107"/>
	<path clip-path="url(#SVGID_2_)" fill="#6DB576" d="M198.565,36.503c-0.001-0.841-0.679-1.518-1.519-1.523
		c-0.839,0.004-1.52,0.683-1.52,1.522c-0.003,0.843,0.681,1.521,1.52,1.52C197.887,38.022,198.565,37.342,198.565,36.503"/>
	<path clip-path="url(#SVGID_2_)" fill="#72A471" d="M202.331,36.896c0-0.847-0.686-1.53-1.531-1.529
		c-0.844-0.001-1.53,0.683-1.528,1.529c-0.003,0.844,0.683,1.531,1.526,1.53C201.644,38.427,202.332,37.742,202.331,36.896"/>
	<path clip-path="url(#SVGID_2_)" fill="#51B4A6" d="M205.855,37.293c0.001-0.72-0.583-1.304-1.301-1.303
		c-0.718,0-1.302,0.583-1.302,1.303c0.001,0.72,0.584,1.301,1.302,1.301C205.274,38.594,205.855,38.013,205.855,37.293"/>
	<path clip-path="url(#SVGID_2_)" fill="#69A546" d="M209.009,37.688c0-0.389-0.316-0.7-0.7-0.7c-0.387-0.002-0.7,0.312-0.701,0.696
		c0.001,0.388,0.314,0.698,0.701,0.698C208.69,38.383,209.009,38.072,209.009,37.688"/>
	<path clip-path="url(#SVGID_2_)" fill="#72A85E" d="M165.542,36.404c0-0.409-0.332-0.738-0.739-0.742
		c-0.409,0-0.743,0.333-0.742,0.741c-0.001,0.411,0.331,0.741,0.742,0.741C165.211,37.147,165.542,36.814,165.542,36.404"/>
	<path clip-path="url(#SVGID_2_)" fill="#8CA88A" d="M169.917,36.8c0.002-0.755-0.608-1.365-1.363-1.366
		c-0.75,0-1.363,0.611-1.362,1.366c0,0.754,0.61,1.363,1.361,1.363C169.309,38.162,169.915,37.554,169.917,36.8"/>
	<path clip-path="url(#SVGID_2_)" fill="#00B0E3" d="M173.757,37.195c-0.001-0.8-0.65-1.451-1.452-1.452
		c-0.798,0-1.447,0.652-1.444,1.452c-0.001,0.797,0.646,1.447,1.444,1.447C173.106,38.643,173.758,37.992,173.757,37.195"/>
	<path clip-path="url(#SVGID_2_)" fill="#6DB576" d="M177.531,37.588c0.001-0.812-0.659-1.471-1.469-1.471
		c-0.814,0-1.475,0.66-1.475,1.471c0,0.813,0.663,1.471,1.473,1.472C176.874,39.06,177.531,38.402,177.531,37.588"/>
	<path clip-path="url(#SVGID_2_)" fill="#9294A9" d="M181.288,37.983c0.002-0.813-0.658-1.473-1.475-1.474
		c-0.813,0.001-1.471,0.661-1.472,1.474c-0.001,0.813,0.662,1.472,1.472,1.475C180.632,39.455,181.285,38.796,181.288,37.983"/>
	<path clip-path="url(#SVGID_2_)" fill="#9294A9" d="M185.042,38.379c0.002-0.815-0.661-1.473-1.477-1.471
		c-0.811-0.002-1.469,0.657-1.469,1.469s0.66,1.473,1.471,1.473C184.379,39.847,185.038,39.19,185.042,38.379"/>
	<path clip-path="url(#SVGID_2_)" fill="#929B9E" d="M192.529,39.167c0.001-0.804-0.652-1.454-1.456-1.454
		c-0.8-0.002-1.454,0.652-1.454,1.454c0.001,0.804,0.65,1.454,1.454,1.454S192.529,39.968,192.529,39.167"/>
	<path clip-path="url(#SVGID_2_)" fill="#72A471" d="M196.317,39.563c-0.001-0.826-0.666-1.491-1.489-1.491
		c-0.822,0-1.489,0.665-1.488,1.486c-0.001,0.826,0.667,1.492,1.487,1.491C195.65,41.051,196.318,40.383,196.317,39.563"/>
	<path clip-path="url(#SVGID_2_)" fill="#95C11F" d="M200.079,39.954c0-0.825-0.671-1.497-1.499-1.496
		c-0.824,0.001-1.499,0.67-1.499,1.498c0.001,0.826,0.673,1.498,1.502,1.496C199.408,41.452,200.079,40.784,200.079,39.954"/>
	<path clip-path="url(#SVGID_2_)" fill="#4DB6B7" d="M203.513,40.352c0-0.653-0.527-1.182-1.178-1.179
		c-0.648-0.003-1.178,0.525-1.179,1.179c0,0.646,0.527,1.178,1.178,1.177C202.985,41.529,203.513,40.999,203.513,40.352"/>
	<path clip-path="url(#SVGID_2_)" fill="#6A9869" d="M206.864,40.745c0-0.429-0.347-0.777-0.775-0.777
		c-0.431,0-0.778,0.349-0.778,0.775c0,0.431,0.349,0.779,0.775,0.776C206.515,41.522,206.864,41.173,206.864,40.745"/>
	<path clip-path="url(#SVGID_2_)" fill="#6DB576" d="M166.998,39.858c0.002-0.366-0.297-0.659-0.66-0.662
		c-0.368,0-0.664,0.298-0.664,0.663c0.001,0.364,0.295,0.661,0.659,0.66C166.701,40.52,166.996,40.226,166.998,39.858"/>
	<path clip-path="url(#SVGID_2_)" fill="#69A546" d="M161.979,35.99c-0.002-0.366-0.295-0.665-0.66-0.663
		c-0.365-0.002-0.662,0.298-0.661,0.661c0,0.364,0.296,0.663,0.662,0.664C161.686,36.651,161.982,36.354,161.979,35.99"/>
	<path clip-path="url(#SVGID_2_)" fill="#69A546" d="M171.398,40.253c-0.003-0.726-0.589-1.311-1.308-1.309
		c-0.727-0.001-1.312,0.586-1.314,1.308c0.003,0.724,0.59,1.311,1.313,1.311C170.813,41.563,171.399,40.977,171.398,40.253"/>
	<path clip-path="url(#SVGID_2_)" fill="#00B0E3" d="M175.293,40.648c-0.001-0.802-0.647-1.452-1.452-1.452
		c-0.8,0-1.45,0.649-1.45,1.452c-0.001,0.8,0.65,1.449,1.449,1.449C174.646,42.101,175.295,41.449,175.293,40.648"/>
	<path clip-path="url(#SVGID_2_)" fill="#00B0E3" d="M178.948,41.042c-0.001-0.748-0.604-1.354-1.352-1.354
		c-0.75,0.001-1.355,0.605-1.356,1.354c0.001,0.746,0.609,1.354,1.355,1.354C178.347,42.393,178.95,41.79,178.948,41.042"/>
	<path clip-path="url(#SVGID_2_)" fill="#00B0E3" d="M182.575,41.438c-0.001-0.679-0.547-1.228-1.226-1.229
		c-0.677,0-1.229,0.55-1.229,1.228c-0.001,0.677,0.552,1.226,1.228,1.226C182.026,42.662,182.576,42.115,182.575,41.438"/>
	<path clip-path="url(#SVGID_2_)" fill="#00B0E3" d="M186.456,41.83c0.003-0.747-0.606-1.354-1.354-1.353
		c-0.748,0-1.354,0.605-1.354,1.352c-0.002,0.75,0.609,1.355,1.354,1.354C185.852,43.184,186.456,42.579,186.456,41.83"/>
	<path clip-path="url(#SVGID_2_)" fill="#9294A9" d="M190.313,42.223c0.001-0.802-0.654-1.456-1.461-1.456
		c-0.803,0-1.454,0.651-1.455,1.458c-0.001,0.806,0.653,1.457,1.457,1.458C189.659,43.682,190.313,43.031,190.313,42.223"/>
	<path clip-path="url(#SVGID_2_)" fill="#6DB576" d="M194.09,42.618c0-0.817-0.663-1.48-1.478-1.48
		c-0.822,0-1.487,0.663-1.487,1.481c0,0.819,0.667,1.484,1.485,1.483C193.427,44.104,194.093,43.438,194.09,42.618"/>
	<path clip-path="url(#SVGID_2_)" fill="#71B783" d="M197.84,43.015c0-0.815-0.662-1.477-1.478-1.478
		c-0.814,0-1.478,0.662-1.478,1.478c-0.001,0.815,0.66,1.477,1.475,1.478C197.178,44.49,197.84,43.832,197.84,43.015"/>
	<path clip-path="url(#SVGID_2_)" fill="#72A85E" d="M201.494,43.407c-0.002-0.759-0.616-1.377-1.381-1.376
		c-0.758,0-1.376,0.617-1.376,1.377c0.001,0.763,0.617,1.377,1.378,1.377C200.878,44.785,201.495,44.171,201.494,43.407"/>
	<path clip-path="url(#SVGID_2_)" fill="#51B4A6" d="M204.487,43.804c-0.003-0.341-0.279-0.616-0.618-0.619
		c-0.341,0-0.616,0.278-0.615,0.619c0,0.34,0.275,0.618,0.615,0.618C204.207,44.421,204.487,44.144,204.487,43.804"/>
	<path clip-path="url(#SVGID_2_)" fill="#579A32" d="M168.413,43.312c-0.001-0.299-0.242-0.543-0.544-0.543
		c-0.299-0.001-0.543,0.244-0.543,0.544c0,0.299,0.245,0.543,0.546,0.543C168.17,43.854,168.413,43.611,168.413,43.312"/>
	<path clip-path="url(#SVGID_2_)" fill="#69A546" d="M172.992,43.706c0.002-0.756-0.613-1.366-1.367-1.367
		c-0.756,0.001-1.368,0.611-1.368,1.367c0,0.755,0.612,1.366,1.364,1.366C172.379,45.073,172.987,44.461,172.992,43.706"/>
	<path clip-path="url(#SVGID_2_)" fill="#69A546" d="M176.726,44.099c-0.001-0.745-0.604-1.347-1.348-1.347
		c-0.748,0-1.349,0.602-1.349,1.35c-0.001,0.745,0.602,1.348,1.346,1.349C176.122,45.45,176.726,44.845,176.726,44.099"/>
	<path clip-path="url(#SVGID_2_)" fill="#579A32" d="M179.634,44.494c0.001-0.276-0.224-0.501-0.503-0.5
		c-0.276-0.001-0.501,0.224-0.503,0.5c0.001,0.275,0.223,0.506,0.502,0.503C179.41,44.999,179.634,44.772,179.634,44.494"/>
	<path clip-path="url(#SVGID_2_)" fill="#00913C" d="M183.455,44.888c0.002-0.313-0.258-0.569-0.571-0.569
		c-0.314,0.002-0.571,0.254-0.572,0.569c0.002,0.316,0.258,0.573,0.571,0.572C183.199,45.462,183.454,45.204,183.455,44.888"/>
	<path clip-path="url(#SVGID_2_)" fill="#00B0E3" d="M187.99,45.285c0.001-0.749-0.605-1.353-1.354-1.353s-1.352,0.605-1.354,1.352
		c0.002,0.747,0.609,1.354,1.353,1.354C187.382,46.638,187.989,46.033,187.99,45.285"/>
	<path clip-path="url(#SVGID_2_)" fill="#76A47C" d="M191.877,45.678c0-0.82-0.665-1.486-1.488-1.49
		c-0.82,0.004-1.487,0.67-1.487,1.491s0.667,1.488,1.486,1.49C191.213,47.168,191.877,46.501,191.877,45.678"/>
	<path clip-path="url(#SVGID_2_)" fill="#95C11F" d="M195.624,46.071c0.001-0.814-0.661-1.479-1.481-1.479
		c-0.815,0-1.478,0.664-1.478,1.48c0,0.818,0.66,1.48,1.479,1.48C194.96,47.554,195.624,46.893,195.624,46.071"/>
	<path clip-path="url(#SVGID_2_)" fill="#6DB576" d="M199.403,46.467c-0.002-0.832-0.674-1.506-1.506-1.506
		c-0.834,0.001-1.505,0.673-1.504,1.507c-0.004,0.832,0.67,1.505,1.504,1.508C198.727,47.973,199.403,47.3,199.403,46.467"/>
	<path clip-path="url(#SVGID_2_)" fill="#6CB0BD" d="M202.987,46.86c0-0.736-0.597-1.334-1.339-1.334
		c-0.737-0.002-1.337,0.596-1.336,1.334c0.001,0.74,0.599,1.34,1.339,1.34C202.39,48.199,202.987,47.6,202.987,46.86"/>
	<path clip-path="url(#SVGID_2_)" fill="#6A9869" d="M205.963,47.256c-0.002-0.309-0.25-0.56-0.558-0.56
		c-0.313,0-0.562,0.252-0.562,0.56c-0.001,0.312,0.251,0.561,0.561,0.561C205.712,47.817,205.964,47.568,205.963,47.256"/>
	<path clip-path="url(#SVGID_2_)" fill="#579A32" d="M170.07,46.765c0-0.368-0.297-0.665-0.665-0.668
		c-0.368,0.004-0.668,0.302-0.668,0.668c0,0.368,0.297,0.667,0.667,0.668C169.772,47.432,170.07,47.134,170.07,46.765"/>
	<path clip-path="url(#SVGID_2_)" fill="#579A32" d="M173.97,47.161c-0.003-0.448-0.362-0.814-0.813-0.813
		c-0.446-0.001-0.813,0.365-0.812,0.812s0.364,0.813,0.813,0.813S173.971,47.605,173.97,47.161"/>
	<path clip-path="url(#SVGID_2_)" fill="#72A85E" d="M177.5,47.554c0-0.322-0.266-0.589-0.591-0.587
		c-0.321-0.001-0.587,0.265-0.583,0.588c0,0.325,0.259,0.586,0.583,0.587C177.233,48.141,177.5,47.877,177.5,47.554"/>
	<path clip-path="url(#SVGID_2_)" fill="#00B0E3" d="M189.5,48.738c-0.002-0.737-0.594-1.331-1.329-1.332
		c-0.734,0.001-1.327,0.595-1.33,1.332c0.001,0.734,0.596,1.33,1.331,1.331C188.902,50.067,189.501,49.473,189.5,48.738"/>
	<path clip-path="url(#SVGID_2_)" fill="#51B4A6" d="M193.311,49.13c-0.001-0.764-0.622-1.384-1.385-1.383
		c-0.764-0.002-1.389,0.62-1.387,1.385c0,0.763,0.623,1.387,1.384,1.387C192.692,50.517,193.311,49.898,193.311,49.13"/>
	<path clip-path="url(#SVGID_2_)" fill="#72B240" d="M197.054,49.527c0-0.763-0.613-1.378-1.374-1.378
		c-0.763,0-1.379,0.614-1.381,1.378c0.001,0.761,0.619,1.378,1.381,1.379C196.441,50.905,197.054,50.286,197.054,49.527"/>
	<path clip-path="url(#SVGID_2_)" fill="#51B4A6" d="M200.765,49.922c-0.001-0.738-0.599-1.334-1.333-1.334
		c-0.735,0-1.334,0.596-1.331,1.334c-0.002,0.735,0.596,1.332,1.331,1.331C200.167,51.254,200.765,50.655,200.765,49.922"/>
	<path clip-path="url(#SVGID_2_)" fill="#72A85E" d="M204.289,50.316c-0.001-0.61-0.493-1.104-1.106-1.104
		c-0.608,0-1.103,0.494-1.101,1.105c-0.001,0.607,0.492,1.103,1.104,1.103C203.796,51.418,204.289,50.926,204.289,50.316"/>
	<path clip-path="url(#SVGID_2_)" fill="#6A9869" d="M207.503,50.711c0.001-0.314-0.255-0.564-0.567-0.562
		c-0.309-0.003-0.56,0.25-0.56,0.56c0,0.313,0.253,0.564,0.563,0.563C207.248,51.272,207.498,51.022,207.503,50.711"/>
	<path clip-path="url(#SVGID_2_)" fill="#72B240" d="M186.498,51.795c0.003-0.302-0.245-0.545-0.548-0.544
		c-0.298,0-0.544,0.244-0.544,0.544c0,0.304,0.245,0.548,0.547,0.546C186.253,52.343,186.496,52.098,186.498,51.795"/>
	<path clip-path="url(#SVGID_2_)" fill="#00B0E3" d="M190.345,52.19c-0.001-0.354-0.284-0.639-0.639-0.641
		c-0.354,0.001-0.644,0.287-0.643,0.642c-0.001,0.354,0.289,0.641,0.642,0.642C190.06,52.833,190.345,52.544,190.345,52.19"/>
	<path clip-path="url(#SVGID_2_)" fill="#54AB85" d="M194.214,52.585c0.001-0.415-0.336-0.756-0.756-0.757
		c-0.415-0.001-0.756,0.341-0.756,0.759c0,0.416,0.339,0.753,0.758,0.753C193.876,53.339,194.214,53.004,194.214,52.585"/>
	<path clip-path="url(#SVGID_2_)" fill="#51B4A6" d="M197.984,52.981c0-0.427-0.346-0.772-0.774-0.772
		c-0.424,0.002-0.768,0.346-0.768,0.772c0,0.425,0.344,0.769,0.769,0.769C197.638,53.75,197.985,53.406,197.984,52.981"/>
	<path clip-path="url(#SVGID_2_)" fill="#54AB85" d="M201.75,53.374c0-0.433-0.35-0.785-0.785-0.784
		c-0.431-0.002-0.783,0.35-0.783,0.784c0,0.433,0.35,0.783,0.786,0.783C201.399,54.158,201.75,53.807,201.75,53.374"/>
	<path clip-path="url(#SVGID_2_)" fill="#6A9869" d="M205.284,53.768c0.001-0.31-0.255-0.562-0.564-0.563
		c-0.312,0.002-0.563,0.256-0.562,0.565c-0.002,0.309,0.252,0.562,0.562,0.561C205.029,54.331,205.281,54.082,205.284,53.768"/>
	<path clip-path="url(#SVGID_2_)" fill="#00305B" d="M83.695,45.257l-3.319-11.978c-0.205-0.813-0.667-1.261-1.483-1.261H74.63
		c-0.115,0-0.194,0.079-0.194,0.195v1.294c0,0.117,0.079,0.163,0.194,0.174l1.172,0.17l-3.155,11.36
		c-0.03,0.108,0.021,0.194,0.137,0.194h1.778c0.115,0,0.22-0.084,0.251-0.194l0.852-3.057h5.001l0.854,3.057
		c0.039,0.116,0.137,0.194,0.253,0.194h1.785C83.675,45.406,83.71,45.321,83.695,45.257 M76.213,40.16l1.69-6.085h0.528l1.689,6.085
		H76.213z"/>
	<path clip-path="url(#SVGID_2_)" fill="#00305B" d="M95.804,45.257l-3.319-11.978c-0.205-0.813-0.667-1.261-1.483-1.261h-4.262
		c-0.115,0-0.193,0.079-0.193,0.195v1.294c0,0.117,0.078,0.163,0.193,0.174l1.173,0.17l-3.156,11.36
		c-0.029,0.108,0.02,0.194,0.137,0.194h1.778c0.117,0,0.22-0.084,0.252-0.194l0.852-3.057h5.001l0.855,3.057
		c0.039,0.116,0.136,0.194,0.252,0.194h1.785C95.784,45.406,95.82,45.321,95.804,45.257 M88.323,40.16l1.69-6.085h0.528l1.69,6.085
		H88.323z"/>
	<path clip-path="url(#SVGID_2_)" fill="#00305B" d="M128.153,45.257l-3.319-11.978c-0.205-0.813-0.667-1.261-1.484-1.261h-4.262
		c-0.116,0-0.193,0.079-0.193,0.195v1.294c0,0.117,0.078,0.163,0.193,0.174l1.172,0.17l-3.155,11.36
		c-0.029,0.108,0.02,0.194,0.137,0.194h1.778c0.116,0,0.22-0.084,0.252-0.194l0.852-3.057h5.001l0.854,3.057
		c0.04,0.116,0.137,0.194,0.252,0.194h1.786C128.134,45.406,128.168,45.321,128.153,45.257 M120.672,40.16l1.689-6.085h0.528
		l1.69,6.085H120.672z"/>
	<path clip-path="url(#SVGID_2_)" fill="#00305B" d="M116.103,43.311L116.103,43.311h-0.001l-4.619-0.002v-11.12
		c0-0.093-0.075-0.169-0.169-0.171h-1.876c-0.092,0.001-0.167,0.077-0.167,0.17v0.001v0.001v13.047c0,0.092,0.075,0.169,0.167,0.17
		h6.666c0.093,0,0.168-0.076,0.17-0.169V43.48C116.272,43.387,116.197,43.311,116.103,43.311"/>
	<path clip-path="url(#SVGID_2_)" fill="#00305B" d="M146.511,32.018h-4.119c-0.093,0.001-0.168,0.078-0.169,0.169v0v0.001v13.047
		c0,0.093,0.076,0.171,0.171,0.171l0,0l0,0h4.117c3.083,0,5.081-2.201,5.081-5.649v-2.091
		C151.592,34.22,149.594,32.018,146.511,32.018 M149.372,39.757c0,2.018-1.025,3.594-2.861,3.594h-2.07v-9.279h2.07
		c1.836,0,2.861,1.577,2.861,3.595V39.757z"/>
	<path clip-path="url(#SVGID_2_)" fill="#00305B" d="M139.496,32.018h-0.002h-0.001h-1.867c-0.093,0-0.169,0.077-0.171,0.17v0.001
		v0.001v10.22l-4.829-10.248c0,0-0.068-0.144-0.202-0.144h-2.694c-0.093,0-0.169,0.077-0.169,0.17v0.001v0.001v13.046
		c0,0.093,0.075,0.171,0.168,0.171h0h0.001h1.861c0.094,0,0.17-0.077,0.17-0.17v-0.001V35.199l4.857,10.121
		c0,0,0.047,0.086,0.117,0.086h2.757c0.095,0,0.168-0.077,0.17-0.17v-0.001V32.188C139.664,32.095,139.589,32.018,139.496,32.018"/>
	<path clip-path="url(#SVGID_2_)" fill="#00305B" d="M107.606,45.25l-0.208-1.394c0,0-0.014-0.101-0.124-0.101
		c0,0-0.226,0.022-0.372,0.022c-0.518,0-0.87-0.296-1.11-0.666l-1.979-3.123c1.665-0.464,2.737-1.85,2.737-3.996
		c0-2.384-1.627-3.976-3.865-3.976h-5.064l0,0h-1.247c-0.159,0-0.266,0.106-0.266,0.266v1.159c0,0.16,0.107,0.237,0.266,0.237
		l1.247,0.171v11.385c0,0.093,0.075,0.17,0.169,0.17l0,0h0h1.804c0.094,0,0.169-0.077,0.169-0.17l0,0v-0.001v-5.082h1.756
		l2.274,3.79c0.666,1.111,1.424,1.667,2.44,1.667c0.638,0,1.101-0.138,1.292-0.204C107.527,45.406,107.62,45.358,107.606,45.25
		 M102.686,38.212h-2.921v-4.143h2.921c0.961,0,1.739,0.723,1.739,2.017C104.424,37.546,103.61,38.212,102.686,38.212"/>
	<path clip-path="url(#SVGID_2_)" fill="#00305B" d="M64.807,35.373c0-0.983,0.852-1.679,2.291-1.679
		c0.708,0,1.438,0.056,1.927,0.173l0.247,1.644c0.02,0.116,0.059,0.19,0.211,0.19h1.18c0.115,0,0.192-0.074,0.192-0.19l0.116-2.649
		c0.019-0.345-0.154-0.479-0.519-0.594c-1.152-0.366-2.239-0.519-3.468-0.519c-2.956,0-4.639,1.612-4.639,3.61
		c0,4.603,6.831,3.479,6.831,6.661c0,0.588-0.571,1.637-2.319,1.637c-0.998,0-1.888-0.162-2.561-0.584l-0.156-1.606
		c-0.02-0.096-0.02-0.21-0.174-0.21H62.74c-0.133,0-0.21,0.076-0.21,0.229l-0.097,2.724c-0.019,0.269,0.039,0.42,0.287,0.574
		c1,0.615,2.497,0.885,3.976,0.885c3.014,0,4.799-1.555,4.799-4.011C71.495,37.406,64.807,38.082,64.807,35.373"/>
</g>
</svg>
