<?xml version="1.0" encoding="utf-8"?>
<!-- Generator: Adobe Illustrator 23.0.0, SVG Export Plug-In . SVG Version: 6.00 Build 0)  -->
<svg version="1.1" id="Ebene_1" xmlns="http://www.w3.org/2000/svg" xmlns:xlink="http://www.w3.org/1999/xlink" x="0px" y="0px"
	 viewBox="0 0 300 50.099" style="enable-background:new 0 0 300 50.099;" xml:space="preserve">
<style type="text/css">
	.st0{fill:url(#SVGID_1_);}
	.st1{fill:url(#SVGID_2_);}
	.st2{fill:url(#SVGID_3_);}
	.st3{fill:url(#SVGID_4_);}
	.st4{fill:#01383A;}
	.st5{enable-background:new    ;}
	.st6{fill:#1D4B7B;}
</style>
<g id="Logo_x5F_1_3">
	
		<linearGradient id="SVGID_1_" gradientUnits="userSpaceOnUse" x1="0.0852" y1="1003.1574" x2="38.2347" y2="1003.1574" gradientTransform="matrix(1 0 0 1 0 -978)">
		<stop  offset="0" style="stop-color:#349980"/>
		<stop  offset="1" style="stop-color:#45A965"/>
	</linearGradient>
	<path class="st0" d="M31.482,0.216c-3.738,0-6.757,3.019-6.757,6.757v23.432c0,3.091-2.515,5.606-5.606,5.606
		s-5.606-2.515-5.606-5.606V6.973c0-3.738-3.019-6.757-6.757-6.757S0,3.235,0,6.973v24.654c0,0.216,0.072,0.431,0.072,0.647
		c0.647,9.919,8.913,17.825,19.048,17.825c10.566,0,19.119-8.553,19.119-19.048V7.116C38.238,3.235,35.219,0.216,31.482,0.216z"/>
	
		<linearGradient id="SVGID_2_" gradientUnits="userSpaceOnUse" x1="81.2935" y1="1003.0491" x2="119.9461" y2="1003.0491" gradientTransform="matrix(1 0 0 1 0 -978)">
		<stop  offset="0" style="stop-color:#349980"/>
		<stop  offset="1" style="stop-color:#45A965"/>
	</linearGradient>
	<path class="st1" d="M101.059,0.073h-0.431V0H88.553c-4.025,0-7.259,3.234-7.259,7.259v35.794c0,3.881,3.162,7.044,7.044,7.044
		s7.044-3.162,7.044-7.044V37.95h5.75c10.422,0,18.904-8.482,18.904-18.904C119.963,8.553,111.481,0.073,101.059,0.073z
		 M102.281,23.935h-6.972V14.16h6.972c2.731,0,4.887,2.229,4.887,4.887C107.168,21.707,105.012,23.935,102.281,23.935z"/>
	
		<linearGradient id="SVGID_3_" gradientUnits="userSpaceOnUse" x1="38.2353" y1="1003.0494" x2="66.7379" y2="1003.0494" gradientTransform="matrix(1 0 0 1 0 -978)">
		<stop  offset="0" style="stop-color:#75B843"/>
		<stop  offset="1" style="stop-color:#95C11F"/>
	</linearGradient>
	<path class="st2" d="M62.389,49.524c-3.593,1.437-7.69-0.288-9.129-3.881L38.742,9.704c-1.437-3.593,0.288-7.69,3.881-9.129
		c3.593-1.437,7.69,0.288,9.129,3.881L66.27,40.395C67.636,43.989,65.911,48.086,62.389,49.524L62.389,49.524z"/>
	
		<linearGradient id="SVGID_4_" gradientUnits="userSpaceOnUse" x1="52.7258" y1="1003.0853" x2="81.2671" y2="1003.0853" gradientTransform="matrix(1 0 0 1 0 -978)">
		<stop  offset="0" style="stop-color:#75B843"/>
		<stop  offset="1" style="stop-color:#95C11F"/>
	</linearGradient>
	<path class="st3" d="M76.836,0.647c-3.593-1.437-7.69,0.288-9.129,3.881L53.189,40.395c-1.437,3.593,0.288,7.69,3.881,9.129
		c3.593,1.437,7.69-0.288,9.129-3.881L80.717,9.776C82.155,6.181,80.43,2.084,76.836,0.647L76.836,0.647z"/>
	<path class="st4" d="M59.801,50.026c-5.032,0-8.41-5.103-6.469-9.703c1.437-3.45,6.469-15.957,6.469-15.957
		s4.744,11.644,6.469,15.957C68.211,45.498,64.258,50.026,59.801,50.026z M19.191,50.026c-3.881,0-7.044-3.162-7.044-7.044
		s3.162-7.044,7.044-7.044s7.044,3.162,7.044,7.044C26.235,46.864,23.072,50.026,19.191,50.026z M95.309,23.935
		c-3.881,0-7.044,3.162-7.044,7.044s3.162,7.044,7.044,7.044V23.935z"/>
	<g class="st5">
		<path class="st6" d="M145.838,14.52l-2.66,0.431l6.541,18.975l0.647,2.3h0.143l0.647-2.3l6.541-18.975l-2.66-0.431v-2.515h9.2
			v2.515l-2.372,0.288l-9.776,26.379h-3.378l-9.776-26.307l-2.3-0.288v-2.515h9.2L145.838,14.52L145.838,14.52z M174.287,41.546
			c-3.019,0-5.391-1.006-7.188-3.019c-1.797-2.013-2.66-4.6-2.66-7.835v-0.863c0-3.091,0.935-5.679,2.731-7.69
			c1.868-2.084,4.025-3.091,6.541-3.091c2.947,0,5.103,0.863,6.612,2.66s2.229,4.097,2.229,7.044v2.444h-14.016l-0.072,0.072
			c0.072,2.084,0.575,3.809,1.582,5.175s2.444,2.013,4.24,2.013c1.366,0,2.515-0.216,3.522-0.575
			c1.006-0.359,1.868-0.935,2.588-1.582l1.509,2.588c-0.79,0.719-1.797,1.366-3.091,1.868
			C177.522,41.258,176.084,41.546,174.287,41.546L174.287,41.546z M173.712,22.138c-1.294,0-2.444,0.575-3.378,1.653
			c-0.935,1.15-1.509,2.515-1.725,4.169l0.072,0.072h9.919v-0.503c0-1.582-0.431-2.875-1.222-3.881
			C176.587,22.714,175.365,22.138,173.712,22.138L173.712,22.138z M186.506,21.995V19.48h6.828l0.359,3.162
			c0.647-1.078,1.366-2.013,2.3-2.588c0.935-0.647,1.941-0.935,3.091-0.935c0.288,0,0.647,0,0.935,0.072
			c0.359,0.072,0.575,0.072,0.719,0.143l-0.503,3.666l-2.229-0.143c-1.078,0-1.941,0.216-2.66,0.719
			c-0.719,0.503-1.222,1.15-1.653,2.084v12.434l3.234,0.575v2.515h-10.422V38.67l3.234-0.575V22.569L186.506,21.995z
			 M223.307,31.123c0,3.162-0.719,5.679-2.229,7.547c-1.509,1.941-3.593,2.875-6.181,2.875c-1.437,0-2.66-0.288-3.666-0.79
			c-1.078-0.575-1.941-1.366-2.588-2.372l-0.359,2.803h-3.378V12.938l-3.234-0.575V9.847h7.188v12.147
			c0.647-0.935,1.509-1.725,2.515-2.229c1.006-0.503,2.156-0.79,3.522-0.79c2.66,0,4.744,1.078,6.253,3.234s2.229,4.959,2.229,8.41
			v0.503L223.307,31.123z M219.354,30.692c0-2.515-0.431-4.528-1.366-6.11c-0.935-1.582-2.3-2.372-4.169-2.372
			c-1.222,0-2.229,0.288-3.091,0.863c-0.863,0.575-1.509,1.366-2.013,2.372v9.56c0.503,1.006,1.15,1.797,2.013,2.372
			c0.863,0.575,1.868,0.863,3.091,0.863c1.868,0,3.234-0.647,4.169-2.013c0.935-1.366,1.366-3.091,1.366-5.247
			C219.354,30.979,219.354,30.692,219.354,30.692z M242.786,37.951c-0.647,1.15-1.582,2.084-2.66,2.66
			c-1.078,0.647-2.3,0.935-3.738,0.935c-2.372,0-4.169-0.79-5.534-2.3c-1.294-1.509-2.013-3.881-2.013-7.044v-9.703l-2.515-0.575
			v-2.515h6.469v12.866c0,2.3,0.359,3.881,1.006,4.744s1.725,1.294,3.162,1.294s2.588-0.288,3.45-0.863
			c0.935-0.575,1.582-1.366,2.084-2.444V22.499l-2.875-0.575v-2.515h6.828v18.616l2.515,0.575v2.515h-6.038L242.786,37.951
			L242.786,37.951z M251.627,38.598l3.234-0.575V22.498l-3.234-0.575v-2.515h6.828l0.288,3.234c0.719-1.15,1.653-2.013,2.731-2.66
			c1.078-0.647,2.3-0.935,3.738-0.935c2.372,0,4.169,0.719,5.463,2.084c1.294,1.366,1.941,3.522,1.941,6.325v10.638l3.234,0.575
			v2.515h-10.494v-2.515l3.234-0.575V27.529c0-1.941-0.359-3.234-1.15-4.097c-0.79-0.79-1.941-1.222-3.45-1.222
			c-1.15,0-2.156,0.288-3.019,0.79c-0.863,0.575-1.582,1.294-2.084,2.229v12.722l3.234,0.575v2.515h-10.494L251.627,38.598
			L251.627,38.598z M293.028,38.598c-0.719,1.006-1.582,1.725-2.588,2.229c-1.006,0.504-2.229,0.79-3.593,0.79
			c-2.66,0-4.744-0.935-6.181-2.875c-1.509-1.941-2.228-4.456-2.228-7.547v-0.432c0-3.522,0.719-6.325,2.228-8.41
			c1.509-2.156,3.594-3.234,6.253-3.234c1.294,0,2.444,0.216,3.378,0.719c1.006,0.503,1.797,1.15,2.515,2.084v-8.984l-3.234-0.575
			V9.847h7.188v28.176L300,38.598v2.515h-6.684L293.028,38.598L293.028,38.598z M282.39,31.123c0,2.156,0.431,3.954,1.366,5.247
			c0.863,1.294,2.3,2.013,4.169,2.013c1.15,0,2.156-0.288,2.947-0.79c0.79-0.503,1.437-1.294,2.013-2.3V25.229
			c-0.503-0.935-1.15-1.653-2.013-2.156c-0.79-0.503-1.797-0.79-2.947-0.79c-1.868,0-3.307,0.79-4.169,2.372
			c-0.935,1.582-1.366,3.593-1.366,6.11V31.123L282.39,31.123z"/>
	</g>
</g>
</svg>
