<?xml version="1.0" encoding="UTF-8"?>
<!DOCTYPE svg PUBLIC "-//W3C//DTD SVG 1.1//EN" "http://www.w3.org/Graphics/SVG/1.1/DTD/svg11.dtd">
<svg version="1.1" xmlns="http://www.w3.org/2000/svg" xmlns:xlink="http://www.w3.org/1999/xlink" x="0" y="0" width="201" height="104" viewBox="0, 0, 201, 104">
  <g id="Background">
    <rect x="0" y="0" width="201" height="104" fill="#FFFFFF"/>
  </g>
  <g id="Name" transform="scale(1,-1) translate(0,-104)">
    <path d="M 67.7479,80.1166 C 67.7479,79.831 67.7122,79.5811 67.6408,79.3669 C 67.5694,79.1527 67.4722,78.9683 67.3493,78.8136 C 67.2263,78.6589 67.0835,78.5339 66.9209,78.4387 C 66.7582,78.3435 66.5896,78.2721 66.4151,78.2245 L 66.4151,78.2007 C 66.6293,78.161 66.8296,78.0857 67.016,77.9746 C 67.2025,77.8635 67.3651,77.7247 67.504,77.5581 C 67.6428,77.3915 67.7539,77.1952 67.8372,76.9691 C 67.9205,76.7429 67.9621,76.495 67.9621,76.2253 C 67.9621,75.9 67.9066,75.6025 67.7955,75.3328 C 67.6844,75.0631 67.5119,74.829 67.2778,74.6307 C 67.0438,74.4324 66.7483,74.2777 66.3913,74.1666 C 66.0343,74.0555 65.6099,74 65.118,74 L 63.4401,74 L 63.4401,82.211 L 65.0228,82.211 C 65.5067,82.211 65.9213,82.1614 66.2664,82.0623 C 66.6115,81.9631 66.8951,81.8223 67.1172,81.6398 C 67.3393,81.4573 67.5,81.2372 67.5992,80.9794 C 67.6983,80.7215 67.7479,80.4339 67.7479,80.1166 z
M 66.7007,80.0809 C 66.7007,80.4617 66.5658,80.7751 66.2961,81.021 C 66.0264,81.2669 65.6019,81.3899 65.0228,81.3899 L 64.4754,81.3899 L 64.4754,78.5577 L 65.0109,78.5577 C 65.5662,78.5577 65.9867,78.6926 66.2723,78.9623 C 66.5579,79.232 66.7007,79.6049 66.7007,80.0809 z
M 66.8554,76.2967 C 66.8554,76.741 66.7106,77.092 66.4211,77.3499 C 66.1315,77.6077 65.717,77.7366 65.1775,77.7366 L 64.4754,77.7366 L 64.4754,74.8568 L 65.118,74.8568 C 65.7289,74.8568 66.1712,74.9778 66.4449,75.2198 C 66.7186,75.4617 66.8554,75.8207 66.8554,76.2967 z
M 73.2338,74 L 72.3532,74 L 72.3532,74.6426 L 72.3294,74.6426 C 72.3056,74.595 72.254,74.5256 72.1747,74.4344 C 72.0954,74.3431 71.9942,74.2559 71.8713,74.1726 C 71.7483,74.0893 71.5995,74.0159 71.425,73.9524 C 71.2505,73.8889 71.0561,73.8572 70.8419,73.8572 C 70.588,73.8572 70.36,73.8949 70.1577,73.9702 C 69.9554,74.0456 69.7828,74.1666 69.64,74.3332 C 69.4972,74.4998 69.3881,74.716 69.3128,74.9818 C 69.2374,75.2475 69.1997,75.5748 69.1997,75.9635 L 69.1997,79.712 L 70.1636,79.712 L 70.1636,76.0349 C 70.1636,75.5589 70.241,75.2198 70.3957,75.0174 C 70.5504,74.8152 70.7903,74.714 71.1156,74.714 C 71.3933,74.714 71.6273,74.7834 71.8177,74.9223 C 72.0081,75.0611 72.1588,75.1979 72.2699,75.3328 L 72.2699,79.712 L 73.2338,79.712 L 73.2338,74 z
M 77.8272,74 L 77.8272,77.6771 C 77.8272,78.161 77.7459,78.5081 77.5833,78.7184 C 77.4206,78.9286 77.1727,79.0337 76.8395,79.0337 C 76.5539,79.0337 76.3159,78.9623 76.1255,78.8195 C 75.9351,78.6767 75.7844,78.5379 75.6733,78.403 L 75.6733,74 L 74.7094,74 L 74.7094,79.712 L 75.59,79.712 L 75.59,79.0694 L 75.6138,79.0694 C 75.6376,79.117 75.6892,79.1864 75.7685,79.2777 C 75.8478,79.3689 75.951,79.4562 76.0779,79.5395 C 76.2048,79.6228 76.3556,79.6961 76.5301,79.7596 C 76.7046,79.8231 76.903,79.8548 77.1251,79.8548 C 77.379,79.8548 77.609,79.8171 77.8153,79.7418 C 78.0216,79.6664 78.1961,79.5454 78.3389,79.3788 C 78.4817,79.2122 78.5928,78.996 78.6721,78.7303 C 78.7514,78.4645 78.7911,78.1372 78.7911,77.7485 L 78.7911,74 L 77.8272,74 z
M 79.9692,76.7727 C 79.9692,77.3518 80.0446,77.8358 80.1953,78.2245 C 80.346,78.6132 80.5404,78.9266 80.7784,79.1646 C 81.0164,79.4026 81.2861,79.5712 81.5876,79.6704 C 81.8891,79.7695 82.1905,79.8191 82.492,79.8191 C 82.6745,79.8191 82.8331,79.8052 82.968,79.7774 C 83.1029,79.7497 83.2139,79.716 83.3012,79.6763 L 83.3012,82.4133 L 84.2651,82.5204 L 84.2651,74 L 83.3845,74 L 83.3845,74.6069 L 83.3607,74.6069 C 83.3369,74.5593 83.2933,74.4939 83.2298,74.4106 C 83.1663,74.3273 83.0791,74.244 82.968,74.1607 C 82.8569,74.0774 82.7181,74.006 82.5515,73.9464 C 82.3849,73.8869 82.1905,73.8572 81.9684,73.8572 C 81.6987,73.8572 81.4428,73.9107 81.2009,74.0179 C 80.9589,74.125 80.7467,74.2955 80.5642,74.5296 C 80.3817,74.7636 80.237,75.0651 80.1299,75.434 C 80.0228,75.8029 79.9692,76.2491 79.9692,76.7727 z
M 82.2302,74.714 C 82.3809,74.714 82.5158,74.7338 82.6348,74.7735 C 82.7538,74.8132 82.8569,74.8628 82.9442,74.9223 C 83.0315,74.9818 83.1049,75.0432 83.1644,75.1067 C 83.2239,75.1702 83.2695,75.2257 83.3012,75.2733 L 83.3012,78.7957 C 83.2139,78.8512 83.1128,78.8988 82.9978,78.9385 C 82.8827,78.9782 82.7379,78.998 82.5634,78.998 C 82.3413,78.998 82.133,78.9603 81.9387,78.885 C 81.7443,78.8096 81.5757,78.6846 81.4329,78.5101 C 81.2901,78.3356 81.1771,78.1095 81.0938,77.8318 C 81.0105,77.5541 80.9688,77.213 80.9688,76.8084 C 80.9688,76.4117 81.0025,76.0805 81.07,75.8148 C 81.1374,75.549 81.2306,75.3348 81.3496,75.1722 C 81.4686,75.0095 81.6035,74.8925 81.7542,74.8211 C 81.9049,74.7497 82.0636,74.714 82.2302,74.714 z
M 89.4059,77.7842 C 89.4059,77.5383 89.398,77.3261 89.3821,77.1476 C 89.3662,76.9691 89.3504,76.8124 89.3345,76.6775 L 86.419,76.6775 C 86.4507,76.0032 86.5955,75.5073 86.8534,75.19 C 87.1112,74.8727 87.4821,74.714 87.966,74.714 C 88.1326,74.714 88.2833,74.7338 88.4182,74.7735 C 88.5531,74.8132 88.6701,74.8608 88.7693,74.9163 C 88.8684,74.9718 88.9517,75.0274 89.0192,75.0829 C 89.0866,75.1384 89.1362,75.1821 89.1679,75.2138 L 89.5249,74.5355 C 89.4852,74.4958 89.4257,74.4383 89.3464,74.363 C 89.2671,74.2876 89.16,74.2122 89.0251,74.1368 C 88.8902,74.0615 88.7236,73.996 88.5253,73.9405 C 88.327,73.885 88.0929,73.8572 87.8232,73.8572 C 87.4662,73.8572 87.1429,73.9167 86.8534,74.0357 C 86.5638,74.1547 86.3179,74.3392 86.1156,74.5891 C 85.9133,74.839 85.7566,75.1563 85.6455,75.5411 C 85.5344,75.9258 85.4789,76.3879 85.4789,76.9274 C 85.4789,77.4351 85.5364,77.8735 85.6515,78.2424 C 85.7665,78.6113 85.9232,78.9147 86.1215,79.1527 C 86.3198,79.3907 86.5499,79.5672 86.8117,79.6823 C 87.0735,79.7973 87.3551,79.8548 87.6566,79.8548 C 88.204,79.8548 88.6324,79.6823 88.9418,79.3372 C 89.2512,78.9921 89.4059,78.4744 89.4059,77.7842 z
M 87.5971,79.0694 C 87.256,79.0694 86.9823,78.9266 86.776,78.641 C 86.5697,78.3554 86.4507,77.9429 86.419,77.4034 L 88.5015,77.4034 C 88.5094,77.4431 88.5154,77.5006 88.5194,77.576 C 88.5233,77.6513 88.5253,77.7326 88.5253,77.8199 C 88.5253,78.2166 88.446,78.524 88.2873,78.7422 C 88.1286,78.9603 87.8986,79.0694 87.5971,79.0694 z
M 93.1544,78.5577 C 93.0909,78.6291 92.9759,78.7263 92.8093,78.8493 C 92.6427,78.9722 92.4245,79.0337 92.1548,79.0337 C 91.9009,79.0337 91.7066,78.9742 91.5717,78.8552 C 91.4368,78.7362 91.3694,78.5934 91.3694,78.4268 C 91.3694,78.2126 91.4309,78.0361 91.5539,77.8973 C 91.6768,77.7584 91.8652,77.6097 92.1191,77.451 L 92.4761,77.2368 C 92.8648,77.0067 93.1703,76.7588 93.3924,76.4931 C 93.6145,76.2273 93.7256,75.8842 93.7256,75.4637 C 93.7256,75.0115 93.5689,74.6307 93.2556,74.3213 C 92.9422,74.0119 92.492,73.8572 91.9049,73.8572 C 91.6748,73.8572 91.4725,73.881 91.298,73.9286 C 91.1235,73.9762 90.9707,74.0317 90.8399,74.0952 C 90.709,74.1587 90.5999,74.2281 90.5126,74.3034 C 90.4253,74.3788 90.3539,74.4482 90.2984,74.5117 L 90.7625,75.2733 C 90.8101,75.2257 90.8676,75.1702 90.9351,75.1067 C 91.0025,75.0432 91.0838,74.9818 91.179,74.9223 C 91.2742,74.8628 91.3813,74.8132 91.5003,74.7735 C 91.6193,74.7338 91.7581,74.714 91.9168,74.714 C 92.2024,74.714 92.4206,74.7775 92.5713,74.9044 C 92.722,75.0313 92.7974,75.186 92.7974,75.3685 C 92.7974,75.5034 92.7796,75.6204 92.7439,75.7196 C 92.7082,75.8187 92.6546,75.908 92.5832,75.9873 C 92.5118,76.0666 92.4245,76.142 92.3214,76.2134 C 92.2183,76.2848 92.0993,76.3641 91.9644,76.4514 L 91.6074,76.6775 C 91.2504,76.9076 90.9707,77.1495 90.7685,77.4034 C 90.5662,77.6573 90.465,77.9825 90.465,78.3792 C 90.465,78.5934 90.5067,78.7898 90.59,78.9683 C 90.6733,79.1467 90.7903,79.3014 90.941,79.4324 C 91.0917,79.5633 91.2683,79.6664 91.4706,79.7418 C 91.6729,79.8171 91.889,79.8548 92.1191,79.8548 C 92.3412,79.8548 92.5316,79.833 92.6903,79.7894 C 92.849,79.7457 92.9858,79.6902 93.1009,79.6228 C 93.2159,79.5553 93.3111,79.4879 93.3865,79.4205 C 93.4618,79.353 93.5233,79.2955 93.5709,79.2479 L 93.1544,78.5577 z
M 94.5229,75.4518 C 94.5229,75.785 94.5864,76.0627 94.7133,76.2848 C 94.8402,76.5069 95.0108,76.6874 95.225,76.8263 C 95.4392,76.9651 95.6911,77.0643 95.9807,77.1238 C 96.2702,77.1833 96.5776,77.213 96.9029,77.213 L 97.2004,77.213 L 97.2004,77.7604 C 97.2004,78.2443 97.1151,78.5775 96.9446,78.76 C 96.774,78.9425 96.534,79.0337 96.2246,79.0337 C 95.939,79.0337 95.701,78.9722 95.5106,78.8493 C 95.3202,78.7263 95.1695,78.6172 95.0584,78.522 L 94.6538,79.1646 C 94.7173,79.2281 94.7986,79.2995 94.8978,79.3788 C 94.9969,79.4581 95.1179,79.5335 95.2607,79.6049 C 95.4035,79.6763 95.5661,79.7358 95.7486,79.7834 C 95.9311,79.831 96.1373,79.8548 96.3674,79.8548 C 96.9545,79.8548 97.3987,79.6922 97.7002,79.3669 C 98.0017,79.0416 98.1524,78.518 98.1524,77.7961 L 98.1524,75.19 C 98.1524,74.9441 98.1603,74.7041 98.1762,74.4701 C 98.1921,74.236 98.2079,74.0793 98.2238,74 L 97.3075,74 L 97.2718,74.6307 L 97.248,74.6307 C 97.2163,74.5593 97.1687,74.478 97.1052,74.3868 C 97.0417,74.2955 96.9624,74.2122 96.8672,74.1368 C 96.772,74.0615 96.657,73.996 96.5221,73.9405 C 96.3872,73.885 96.2286,73.8572 96.0461,73.8572 C 95.8319,73.8572 95.6316,73.8969 95.4452,73.9762 C 95.2587,74.0555 95.0961,74.1666 94.9573,74.3094 C 94.8184,74.4522 94.7113,74.6208 94.636,74.8152 C 94.5606,75.0095 94.5229,75.2217 94.5229,75.4518 z
M 96.2484,74.6783 C 96.3833,74.6783 96.5023,74.6981 96.6054,74.7378 C 96.7085,74.7775 96.7978,74.8251 96.8732,74.8806 C 96.9485,74.9361 97.012,74.9976 97.0636,75.0651 C 97.1151,75.1325 97.1607,75.19 97.2004,75.2376 L 97.2004,76.499 L 96.891,76.4871 C 96.4309,76.4712 96.0818,76.3919 95.8438,76.2491 C 95.6058,76.1063 95.4868,75.8762 95.4868,75.5589 C 95.4868,75.2654 95.5542,75.0452 95.6891,74.8985 C 95.824,74.7517 96.0104,74.6783 96.2484,74.6783 z
M 102.603,74 L 102.603,77.6771 C 102.603,78.1452 102.5356,78.4823 102.4007,78.6886 C 102.2658,78.8949 102.0477,78.998 101.7462,78.998 C 101.5875,78.998 101.4467,78.9782 101.3238,78.9385 C 101.2008,78.8988 101.0917,78.8493 100.9965,78.7898 C 100.9013,78.7303 100.818,78.6648 100.7466,78.5934 C 100.6752,78.522 100.6157,78.4585 100.5681,78.403 L 100.5681,74 L 99.6042,74 L 99.6042,79.712 L 100.4848,79.712 L 100.4848,79.0694 L 100.5086,79.0694 C 100.5483,79.1329 100.6078,79.2102 100.6871,79.3014 C 100.7664,79.3927 100.8656,79.48 100.9846,79.5633 C 101.1036,79.6466 101.2424,79.716 101.4011,79.7715 C 101.5598,79.827 101.7383,79.8548 101.9366,79.8548 C 102.5871,79.8548 103.0473,79.6009 103.317,79.0932 C 103.3725,79.1725 103.4479,79.2578 103.5431,79.3491 C 103.6383,79.4403 103.7494,79.5236 103.8763,79.599 C 104.0032,79.6743 104.146,79.7358 104.3047,79.7834 C 104.4634,79.831 104.6379,79.8548 104.8283,79.8548 C 105.9866,79.8548 106.5657,79.1805 106.5657,77.8318 L 106.5657,74 L 105.6018,74 L 105.6018,77.6771 C 105.6018,78.1452 105.5185,78.4823 105.3519,78.6886 C 105.1853,78.8949 104.9394,78.998 104.6141,78.998 C 104.3444,78.998 104.1203,78.9325 103.9418,78.8017 C 103.7633,78.6707 103.6224,78.5458 103.5193,78.4268 C 103.5352,78.3395 103.5471,78.2463 103.555,78.1471 C 103.5629,78.048 103.5669,77.9429 103.5669,77.8318 L 103.5669,74 L 102.603,74 z
M 110.4451,78.9266 L 109.1956,78.9266 L 109.1956,75.7612 C 109.1956,75.3566 109.2472,75.0809 109.3503,74.9342 C 109.4534,74.7874 109.628,74.714 109.8739,74.714 C 110.0167,74.714 110.1397,74.7338 110.2428,74.7735 C 110.3459,74.8132 110.4213,74.8489 110.4689,74.8806 L 110.5998,74.1071 C 110.5601,74.0754 110.4649,74.0258 110.3142,73.9583 C 110.1635,73.8909 109.9612,73.8572 109.7073,73.8572 C 109.2154,73.8572 108.8465,73.994 108.6006,74.2678 C 108.3547,74.5414 108.2317,74.9956 108.2317,75.6303 L 108.2317,78.9266 L 107.5415,78.9266 L 107.5415,79.5692 L 108.2317,79.712 L 108.3388,81.3066 L 109.1956,81.3066 L 109.1956,79.712 L 110.5641,79.712 L 110.4451,78.9266 z
M 116.4665,78.9266 L 115.3003,78.9266 L 115.3003,74 L 114.3364,74 L 114.3364,78.9266 L 113.6462,78.9266 L 113.6462,79.5692 L 114.3364,79.7001 L 114.3364,80.8425 C 114.3364,81.1519 114.38,81.4177 114.4673,81.6398 C 114.5546,81.8619 114.6696,82.0444 114.8124,82.1872 C 114.9552,82.33 115.1218,82.4331 115.3122,82.4966 C 115.5026,82.5601 115.7049,82.5918 115.9191,82.5918 C 116.1254,82.5918 116.2999,82.564 116.4427,82.5085 C 116.5855,82.453 116.6807,82.4093 116.7283,82.3776 L 116.526,81.5803 C 116.4784,81.612 116.411,81.6458 116.3237,81.6815 C 116.2364,81.7172 116.1293,81.735 116.0024,81.735 C 115.7723,81.735 115.5978,81.6636 115.4788,81.5208 C 115.3598,81.378 115.3003,81.1162 115.3003,80.7354 L 115.3003,79.712 L 116.5855,79.712 L 116.4665,78.9266 z
M 121.4169,74 L 120.5363,74 L 120.5363,74.6426 L 120.5125,74.6426 C 120.4887,74.595 120.4371,74.5256 120.3578,74.4344 C 120.2785,74.3431 120.1773,74.2559 120.0544,74.1726 C 119.9314,74.0893 119.7826,74.0159 119.6081,73.9524 C 119.4336,73.8889 119.2392,73.8572 119.025,73.8572 C 118.7711,73.8572 118.5431,73.8949 118.3408,73.9702 C 118.1385,74.0456 117.9659,74.1666 117.8231,74.3332 C 117.6803,74.4998 117.5712,74.716 117.4959,74.9818 C 117.4205,75.2475 117.3828,75.5748 117.3828,75.9635 L 117.3828,79.712 L 118.3467,79.712 L 118.3467,76.0349 C 118.3467,75.5589 118.4241,75.2198 118.5788,75.0174 C 118.7335,74.8152 118.9734,74.714 119.2987,74.714 C 119.5764,74.714 119.8104,74.7834 120.0008,74.9223 C 120.1912,75.0611 120.3419,75.1979 120.453,75.3328 L 120.453,79.712 L 121.4169,79.712 L 121.4169,74 z
M 119.0488,81.3542 C 119.0488,81.1717 118.9933,81.025 118.8822,80.9139 C 118.7711,80.8028 118.6363,80.7473 118.4776,80.7473 C 118.3189,80.7473 118.1841,80.8028 118.073,80.9139 C 117.9619,81.025 117.9064,81.1717 117.9064,81.3542 C 117.9064,81.5367 117.9619,81.6834 118.073,81.7945 C 118.1841,81.9056 118.3189,81.9611 118.4776,81.9611 C 118.6363,81.9611 118.7711,81.9056 118.8822,81.7945 C 118.9933,81.6834 119.0488,81.5367 119.0488,81.3542 z
M 120.8814,81.3542 C 120.8814,81.1717 120.8259,81.025 120.7148,80.9139 C 120.6037,80.8028 120.4689,80.7473 120.3102,80.7473 C 120.1515,80.7473 120.0167,80.8028 119.9056,80.9139 C 119.7945,81.025 119.739,81.1717 119.739,81.3542 C 119.739,81.5367 119.7945,81.6834 119.9056,81.7945 C 120.0167,81.9056 120.1515,81.9611 120.3102,81.9611 C 120.4689,81.9611 120.6037,81.9056 120.7148,81.7945 C 120.8259,81.6834 120.8814,81.5367 120.8814,81.3542 z
M 125.4034,78.8671 C 125.3796,78.883 125.328,78.9028 125.2487,78.9266 C 125.1694,78.9504 125.0623,78.9623 124.9274,78.9623 C 124.6259,78.9623 124.3899,78.881 124.2194,78.7184 C 124.0488,78.5557 123.9278,78.3792 123.8564,78.1888 L 123.8564,74 L 122.8925,74 L 122.8925,79.712 L 123.7731,79.712 L 123.7731,78.9385 L 123.7969,78.9385 C 123.8366,79.0496 123.8881,79.1587 123.9516,79.2658 C 124.0151,79.3729 124.0944,79.4681 124.1896,79.5514 C 124.2848,79.6347 124.3978,79.7001 124.5287,79.7477 C 124.6597,79.7953 124.8163,79.8191 124.9988,79.8191 C 125.1337,79.8191 125.2428,79.8072 125.3261,79.7834 C 125.4094,79.7596 125.4748,79.7398 125.5224,79.7239 L 125.4034,78.8671 z
M 65.9629,66.2007 L 68.7475,62 L 67.4742,62 L 65.0942,65.7366 L 64.4754,65.7366 L 64.4754,62 L 63.4401,62 L 63.4401,70.211 L 64.4754,70.211 L 64.4754,66.5577 L 65.1061,66.5577 L 67.4028,70.211 L 68.5571,70.211 L 65.9629,66.2007 z
M 69.164,63.4518 C 69.164,63.785 69.2275,64.0627 69.3544,64.2848 C 69.4813,64.5069 69.6519,64.6874 69.8661,64.8263 C 70.0803,64.9651 70.3322,65.0643 70.6218,65.1238 C 70.9113,65.1833 71.2187,65.213 71.544,65.213 L 71.8415,65.213 L 71.8415,65.7604 C 71.8415,66.2443 71.7562,66.5775 71.5857,66.76 C 71.4151,66.9425 71.1751,67.0337 70.8657,67.0337 C 70.5801,67.0337 70.3421,66.9722 70.1517,66.8493 C 69.9613,66.7263 69.8106,66.6172 69.6995,66.522 L 69.2949,67.1646 C 69.3584,67.2281 69.4397,67.2995 69.5389,67.3788 C 69.638,67.4581 69.759,67.5335 69.9018,67.6049 C 70.0446,67.6763 70.2072,67.7358 70.3897,67.7834 C 70.5722,67.831 70.7784,67.8548 71.0085,67.8548 C 71.5956,67.8548 72.0398,67.6922 72.3413,67.3669 C 72.6428,67.0416 72.7935,66.518 72.7935,65.7961 L 72.7935,63.19 C 72.7935,62.9441 72.8014,62.7041 72.8173,62.4701 C 72.8332,62.236 72.849,62.0793 72.8649,62 L 71.9486,62 L 71.9129,62.6307 L 71.8891,62.6307 C 71.8574,62.5593 71.8098,62.478 71.7463,62.3868 C 71.6828,62.2955 71.6035,62.2122 71.5083,62.1368 C 71.4131,62.0615 71.2981,61.996 71.1632,61.9405 C 71.0283,61.885 70.8697,61.8572 70.6872,61.8572 C 70.473,61.8572 70.2727,61.8969 70.0863,61.9762 C 69.8998,62.0555 69.7372,62.1666 69.5984,62.3094 C 69.4595,62.4522 69.3524,62.6208 69.2771,62.8152 C 69.2017,63.0095 69.164,63.2217 69.164,63.4518 z
M 70.8895,62.6783 C 71.0244,62.6783 71.1434,62.6981 71.2465,62.7378 C 71.3496,62.7775 71.4389,62.8251 71.5143,62.8806 C 71.5896,62.9361 71.6531,62.9976 71.7047,63.0651 C 71.7562,63.1325 71.8018,63.19 71.8415,63.2376 L 71.8415,64.499 L 71.5321,64.4871 C 71.072,64.4712 70.7229,64.3919 70.4849,64.2491 C 70.2469,64.1063 70.1279,63.8762 70.1279,63.5589 C 70.1279,63.2654 70.1953,63.0452 70.3302,62.8985 C 70.4651,62.7517 70.6515,62.6783 70.8895,62.6783 z
M 76.7562,66.8671 C 76.7324,66.883 76.6808,66.9028 76.6015,66.9266 C 76.5222,66.9504 76.4151,66.9623 76.2802,66.9623 C 75.9787,66.9623 75.7427,66.881 75.5722,66.7184 C 75.4016,66.5557 75.2806,66.3792 75.2092,66.1888 L 75.2092,62 L 74.2453,62 L 74.2453,67.712 L 75.1259,67.712 L 75.1259,66.9385 L 75.1497,66.9385 C 75.1894,67.0496 75.2409,67.1587 75.3044,67.2658 C 75.3679,67.3729 75.4472,67.4681 75.5424,67.5514 C 75.6376,67.6347 75.7506,67.7001 75.8815,67.7477 C 76.0125,67.7953 76.1691,67.8191 76.3516,67.8191 C 76.4865,67.8191 76.5956,67.8072 76.6789,67.7834 C 76.7622,67.7596 76.8276,67.7398 76.8752,67.7239 L 76.7562,66.8671 z
M 80.1477,66.9266 L 78.8982,66.9266 L 78.8982,63.7612 C 78.8982,63.3566 78.9498,63.0809 79.0529,62.9342 C 79.156,62.7874 79.3306,62.714 79.5765,62.714 C 79.7193,62.714 79.8423,62.7338 79.9454,62.7735 C 80.0485,62.8132 80.1239,62.8489 80.1715,62.8806 L 80.3024,62.1071 C 80.2627,62.0754 80.1675,62.0258 80.0168,61.9583 C 79.8661,61.8909 79.6638,61.8572 79.4099,61.8572 C 78.918,61.8572 78.5491,61.994 78.3032,62.2678 C 78.0573,62.5414 77.9343,62.9956 77.9343,63.6303 L 77.9343,66.9266 L 77.2441,66.9266 L 77.2441,67.5692 L 77.9343,67.712 L 78.0414,69.3066 L 78.8982,69.3066 L 78.8982,67.712 L 80.2667,67.712 L 80.1477,66.9266 z
M 80.8974,64.856 C 80.8974,65.3796 80.9589,65.8318 81.0819,66.2126 C 81.2048,66.5934 81.3714,66.9048 81.5817,67.1467 C 81.7919,67.3887 82.0339,67.5672 82.3076,67.6823 C 82.5813,67.7973 82.8728,67.8548 83.1822,67.8548 C 83.4995,67.8548 83.7931,67.7973 84.0628,67.6823 C 84.3325,67.5672 84.5666,67.3887 84.7649,67.1467 C 84.9632,66.9048 85.1199,66.5934 85.235,66.2126 C 85.35,65.8318 85.4075,65.3796 85.4075,64.856 C 85.4075,64.3245 85.348,63.8683 85.229,63.4875 C 85.11,63.1067 84.9454,62.7953 84.7352,62.5534 C 84.5249,62.3114 84.281,62.1349 84.0033,62.0238 C 83.7256,61.9127 83.4321,61.8572 83.1227,61.8572 C 82.8054,61.8572 82.5118,61.9127 82.2421,62.0238 C 81.9724,62.1349 81.7383,62.3114 81.54,62.5534 C 81.3417,62.7953 81.185,63.1047 81.07,63.4816 C 80.9549,63.8584 80.8974,64.3165 80.8974,64.856 z
M 84.4079,64.856 C 84.4079,65.6176 84.2968,66.171 84.0747,66.516 C 83.8526,66.8612 83.5432,67.0337 83.1465,67.0337 C 82.7498,67.0337 82.4424,66.8612 82.2243,66.516 C 82.0061,66.171 81.897,65.6176 81.897,64.856 C 81.897,64.0944 82.0081,63.547 82.2302,63.2138 C 82.4523,62.8806 82.7617,62.714 83.1584,62.714 C 83.5551,62.714 83.8625,62.8806 84.0807,63.2138 C 84.2988,63.547 84.4079,64.0944 84.4079,64.856 z
M 90.7149,66.9623 L 90.0009,66.9623 C 90.1834,66.6608 90.2746,66.3197 90.2746,65.9389 C 90.2746,65.6374 90.225,65.3657 90.1259,65.1238 C 90.0267,64.8818 89.8879,64.6775 89.7094,64.5109 C 89.5309,64.3443 89.3206,64.2174 89.0787,64.1301 C 88.8367,64.0428 88.5769,63.9992 88.2992,63.9992 C 88.2437,63.9992 88.1921,63.9992 88.1445,63.9992 C 88.0969,63.9992 88.0453,64.0032 87.9898,64.0111 C 87.8946,63.9714 87.7954,63.908 87.6923,63.8207 C 87.5892,63.7334 87.5376,63.6184 87.5376,63.4756 C 87.5376,63.3566 87.5832,63.2594 87.6745,63.1841 C 87.7657,63.1087 87.9144,63.071 88.1207,63.071 L 88.8466,63.071 C 89.1163,63.071 89.3662,63.0432 89.5963,62.9877 C 89.8264,62.9322 90.0267,62.8429 90.1973,62.72 C 90.3678,62.597 90.5007,62.4403 90.5959,62.2499 C 90.6911,62.0595 90.7387,61.8294 90.7387,61.5597 C 90.7387,61.2503 90.6733,60.9687 90.5424,60.7148 C 90.4115,60.4609 90.227,60.2428 89.989,60.0603 C 89.751,59.8778 89.4614,59.735 89.1203,59.6319 C 88.7792,59.5288 88.3984,59.4772 87.9779,59.4772 C 87.367,59.4772 86.9029,59.6101 86.5856,59.8758 C 86.2683,60.1416 86.1096,60.5244 86.1096,61.0242 C 86.1096,61.2384 86.1473,61.4228 86.2227,61.5775 C 86.298,61.7322 86.3873,61.8671 86.4904,61.9821 C 86.5935,62.0972 86.6987,62.1884 86.8058,62.2559 C 86.9128,62.3233 86.9981,62.3768 87.0616,62.4165 L 87.0616,62.4403 C 86.8157,62.6228 86.6927,62.8885 86.6927,63.2376 C 86.6927,63.3883 86.7225,63.5192 86.782,63.6303 C 86.8415,63.7414 86.9089,63.8326 86.9843,63.904 C 87.0596,63.9754 87.135,64.0329 87.2104,64.0766 C 87.2857,64.1202 87.3432,64.1499 87.3829,64.1658 L 87.3829,64.1896 C 87.0894,64.3245 86.8534,64.5367 86.6749,64.8263 C 86.4964,65.1158 86.4071,65.4867 86.4071,65.9389 C 86.4071,66.2562 86.4587,66.5359 86.5618,66.7778 C 86.6649,67.0198 86.8038,67.2201 86.9783,67.3788 C 87.1528,67.5375 87.3571,67.6565 87.5912,67.7358 C 87.8252,67.8151 88.0771,67.8548 88.3468,67.8548 C 88.6165,67.8548 88.8704,67.8072 89.1084,67.712 L 90.8458,67.712 L 90.7149,66.9623 z
M 88.0612,62.1785 C 87.8946,62.1785 87.7478,62.1904 87.6209,62.2142 C 87.5495,62.1745 87.4801,62.1269 87.4127,62.0714 C 87.3452,62.0159 87.2837,61.9484 87.2282,61.8691 C 87.1727,61.7898 87.1271,61.6966 87.0914,61.5894 C 87.0557,61.4823 87.0378,61.3574 87.0378,61.2146 C 87.0378,60.6037 87.375,60.2983 88.0493,60.2983 C 88.6284,60.2983 89.0568,60.4113 89.3345,60.6374 C 89.6122,60.8635 89.751,61.1234 89.751,61.4169 C 89.751,61.6946 89.6637,61.8909 89.4892,62.006 C 89.3147,62.121 89.0806,62.1785 88.7871,62.1785 L 88.0612,62.1785 z
M 89.3345,65.9389 C 89.3345,66.3514 89.2373,66.645 89.043,66.8195 C 88.8486,66.994 88.6205,67.0813 88.3587,67.0813 C 88.081,67.0813 87.843,66.994 87.6447,66.8195 C 87.4464,66.645 87.3472,66.3514 87.3472,65.9389 C 87.3472,65.5264 87.4464,65.2328 87.6447,65.0583 C 87.843,64.8838 88.0731,64.7965 88.3349,64.7965 C 88.6126,64.7965 88.8486,64.8838 89.043,65.0583 C 89.2373,65.2328 89.3345,65.5264 89.3345,65.9389 z
M 94.3206,66.8671 C 94.2968,66.883 94.2452,66.9028 94.1659,66.9266 C 94.0866,66.9504 93.9795,66.9623 93.8446,66.9623 C 93.5431,66.9623 93.3071,66.881 93.1366,66.7184 C 92.966,66.5557 92.845,66.3792 92.7736,66.1888 L 92.7736,62 L 91.8097,62 L 91.8097,67.712 L 92.6903,67.712 L 92.6903,66.9385 L 92.7141,66.9385 C 92.7538,67.0496 92.8053,67.1587 92.8688,67.2658 C 92.9323,67.3729 93.0116,67.4681 93.1068,67.5514 C 93.202,67.6347 93.315,67.7001 93.4459,67.7477 C 93.5769,67.7953 93.7335,67.8191 93.916,67.8191 C 94.0509,67.8191 94.16,67.8072 94.2433,67.7834 C 94.3266,67.7596 94.392,67.7398 94.4396,67.7239 L 94.3206,66.8671 z
M 94.8799,63.4518 C 94.8799,63.785 94.9434,64.0627 95.0703,64.2848 C 95.1972,64.5069 95.3678,64.6874 95.582,64.8263 C 95.7962,64.9651 96.0481,65.0643 96.3377,65.1238 C 96.6272,65.1833 96.9346,65.213 97.2599,65.213 L 97.5574,65.213 L 97.5574,65.7604 C 97.5574,66.2443 97.4721,66.5775 97.3016,66.76 C 97.131,66.9425 96.891,67.0337 96.5816,67.0337 C 96.296,67.0337 96.058,66.9722 95.8676,66.8493 C 95.6772,66.7263 95.5265,66.6172 95.4154,66.522 L 95.0108,67.1646 C 95.0743,67.2281 95.1556,67.2995 95.2548,67.3788 C 95.3539,67.4581 95.4749,67.5335 95.6177,67.6049 C 95.7605,67.6763 95.9231,67.7358 96.1056,67.7834 C 96.2881,67.831 96.4943,67.8548 96.7244,67.8548 C 97.3115,67.8548 97.7557,67.6922 98.0572,67.3669 C 98.3587,67.0416 98.5094,66.518 98.5094,65.7961 L 98.5094,63.19 C 98.5094,62.9441 98.5173,62.7041 98.5332,62.4701 C 98.5491,62.236 98.5649,62.0793 98.5808,62 L 97.6645,62 L 97.6288,62.6307 L 97.605,62.6307 C 97.5733,62.5593 97.5257,62.478 97.4622,62.3868 C 97.3987,62.2955 97.3194,62.2122 97.2242,62.1368 C 97.129,62.0615 97.014,61.996 96.8791,61.9405 C 96.7442,61.885 96.5856,61.8572 96.4031,61.8572 C 96.1889,61.8572 95.9886,61.8969 95.8022,61.9762 C 95.6157,62.0555 95.4531,62.1666 95.3143,62.3094 C 95.1754,62.4522 95.0683,62.6208 94.993,62.8152 C 94.9176,63.0095 94.8799,63.2217 94.8799,63.4518 z
M 96.6054,62.6783 C 96.7403,62.6783 96.8593,62.6981 96.9624,62.7378 C 97.0655,62.7775 97.1548,62.8251 97.2302,62.8806 C 97.3055,62.9361 97.369,62.9976 97.4206,63.0651 C 97.4721,63.1325 97.5177,63.19 97.5574,63.2376 L 97.5574,64.499 L 97.248,64.4871 C 96.7879,64.4712 96.4388,64.3919 96.2008,64.2491 C 95.9628,64.1063 95.8438,63.8762 95.8438,63.5589 C 95.8438,63.2654 95.9112,63.0452 96.0461,62.8985 C 96.181,62.7517 96.3674,62.6783 96.6054,62.6783 z
M 104.2571,65.0107 C 104.2571,64.4316 104.1897,63.9437 104.0548,63.547 C 103.9199,63.1503 103.7375,62.829 103.5074,62.5831 C 103.2773,62.3372 103.0136,62.1607 102.7161,62.0536 C 102.4186,61.9464 102.1072,61.8929 101.7819,61.8929 C 101.5756,61.8929 101.4031,61.9068 101.2643,61.9345 C 101.1254,61.9623 101.0124,61.996 100.9251,62.0357 L 100.9251,59.62 L 99.9612,59.62 L 99.9612,67.712 L 100.8418,67.712 L 100.8418,67.1051 L 100.8656,67.1051 C 100.8973,67.1686 100.9509,67.2439 101.0263,67.3312 C 101.1016,67.4185 101.1968,67.4998 101.3119,67.5752 C 101.4269,67.6505 101.5657,67.716 101.7284,67.7715 C 101.891,67.827 102.0834,67.8548 102.3055,67.8548 C 102.599,67.8548 102.8668,67.8013 103.1088,67.6942 C 103.3507,67.5871 103.557,67.4185 103.7276,67.1884 C 103.8981,66.9583 104.029,66.6628 104.1203,66.3018 C 104.2115,65.9409 104.2571,65.5105 104.2571,65.0107 z
M 102.0437,67.0337 C 101.7422,67.0337 101.5023,66.9722 101.3238,66.8493 C 101.1453,66.7263 101.0124,66.6132 100.9251,66.5101 L 100.9251,62.9996 C 101.0124,62.9361 101.1254,62.8786 101.2643,62.8271 C 101.4031,62.7755 101.5756,62.7497 101.7819,62.7497 C 102.004,62.7497 102.2044,62.7854 102.3829,62.8568 C 102.5614,62.9282 102.7161,63.0492 102.847,63.2198 C 102.9779,63.3903 103.079,63.6164 103.1504,63.8981 C 103.2218,64.1797 103.2575,64.5268 103.2575,64.9393 C 103.2575,65.3201 103.2278,65.6434 103.1683,65.9092 C 103.1088,66.1749 103.0255,66.3911 102.9184,66.5577 C 102.8113,66.7243 102.6823,66.8453 102.5316,66.9207 C 102.3809,66.996 102.2182,67.0337 102.0437,67.0337 z
M 108.5887,62 L 108.5887,65.6771 C 108.5887,66.161 108.5074,66.5081 108.3448,66.7184 C 108.1821,66.9286 107.9342,67.0337 107.601,67.0337 C 107.3154,67.0337 107.0774,66.9623 106.887,66.8195 C 106.6966,66.6767 106.5459,66.5379 106.4348,66.403 L 106.4348,62 L 105.4709,62 L 105.4709,70.4133 L 106.4348,70.5204 L 106.4348,67.1289 L 106.4586,67.1289 C 106.4903,67.1765 106.5399,67.24 106.6074,67.3193 C 106.6748,67.3986 106.768,67.478 106.887,67.5573 C 107.006,67.6366 107.1508,67.7061 107.3214,67.7656 C 107.4919,67.8251 107.6922,67.8548 107.9223,67.8548 C 108.4221,67.8548 108.8188,67.6922 109.1123,67.3669 C 109.4058,67.0416 109.5526,66.5022 109.5526,65.7485 L 109.5526,62 L 108.5887,62 z
M 111.9564,62 L 110.9925,62 L 110.9925,67.712 L 111.9564,67.712 L 111.9564,62 z
M 111.4804,69.0924 C 111.2821,69.0924 111.1234,69.1559 111.0044,69.2828 C 110.8854,69.4097 110.8259,69.5763 110.8259,69.7826 C 110.8259,69.9809 110.8854,70.1436 111.0044,70.2705 C 111.1234,70.3974 111.2821,70.4609 111.4804,70.4609 C 111.6708,70.4609 111.8255,70.3974 111.9445,70.2705 C 112.0635,70.1436 112.123,69.9809 112.123,69.7826 C 112.123,69.5763 112.0635,69.4097 111.9445,69.2828 C 111.8255,69.1559 111.6708,69.0924 111.4804,69.0924 z
M 117.0972,65.7842 C 117.0972,65.5383 117.0893,65.3261 117.0734,65.1476 C 117.0575,64.9691 117.0417,64.8124 117.0258,64.6775 L 114.1103,64.6775 C 114.142,64.0032 114.2868,63.5073 114.5447,63.19 C 114.8025,62.8727 115.1734,62.714 115.6573,62.714 C 115.8239,62.714 115.9746,62.7338 116.1095,62.7735 C 116.2444,62.8132 116.3614,62.8608 116.4606,62.9163 C 116.5597,62.9718 116.643,63.0274 116.7105,63.0829 C 116.7779,63.1384 116.8275,63.1821 116.8592,63.2138 L 117.2162,62.5355 C 117.1765,62.4958 117.117,62.4383 117.0377,62.363 C 116.9584,62.2876 116.8513,62.2122 116.7164,62.1368 C 116.5815,62.0615 116.4149,61.996 116.2166,61.9405 C 116.0183,61.885 115.7842,61.8572 115.5145,61.8572 C 115.1575,61.8572 114.8342,61.9167 114.5447,62.0357 C 114.2551,62.1547 114.0092,62.3392 113.8069,62.5891 C 113.6046,62.839 113.4479,63.1563 113.3368,63.5411 C 113.2257,63.9258 113.1702,64.3879 113.1702,64.9274 C 113.1702,65.4351 113.2277,65.8735 113.3428,66.2424 C 113.4578,66.6113 113.6145,66.9147 113.8128,67.1527 C 114.0111,67.3907 114.2412,67.5672 114.503,67.6823 C 114.7648,67.7973 115.0464,67.8548 115.3479,67.8548 C 115.8953,67.8548 116.3237,67.6823 116.6331,67.3372 C 116.9425,66.9921 117.0972,66.4744 117.0972,65.7842 z
M 115.2884,67.0694 C 114.9473,67.0694 114.6736,66.9266 114.4673,66.641 C 114.261,66.3554 114.142,65.9429 114.1103,65.4034 L 116.1928,65.4034 C 116.2007,65.4431 116.2067,65.5006 116.2107,65.576 C 116.2146,65.6513 116.2166,65.7326 116.2166,65.8199 C 116.2166,66.2166 116.1373,66.524 115.9786,66.7422 C 115.8199,66.9603 115.5899,67.0694 115.2884,67.0694 z
M 124.9036,62 L 124.023,62 L 124.023,62.6426 L 123.9992,62.6426 C 123.9754,62.595 123.9238,62.5256 123.8445,62.4344 C 123.7652,62.3431 123.664,62.2559 123.5411,62.1726 C 123.4181,62.0893 123.2693,62.0159 123.0948,61.9524 C 122.9203,61.8889 122.7259,61.8572 122.5117,61.8572 C 122.2578,61.8572 122.0298,61.8949 121.8275,61.9702 C 121.6252,62.0456 121.4526,62.1666 121.3098,62.3332 C 121.167,62.4998 121.0579,62.716 120.9826,62.9818 C 120.9072,63.2475 120.8695,63.5748 120.8695,63.9635 L 120.8695,67.712 L 121.8334,67.712 L 121.8334,64.0349 C 121.8334,63.5589 121.9108,63.2198 122.0655,63.0174 C 122.2202,62.8152 122.4601,62.714 122.7854,62.714 C 123.0631,62.714 123.2971,62.7834 123.4875,62.9223 C 123.6779,63.0611 123.8286,63.1979 123.9397,63.3328 L 123.9397,67.712 L 124.9036,67.712 L 124.9036,62 z
M 129.497,62 L 129.497,65.6771 C 129.497,66.161 129.4157,66.5081 129.2531,66.7184 C 129.0904,66.9286 128.8425,67.0337 128.5093,67.0337 C 128.2237,67.0337 127.9857,66.9623 127.7953,66.8195 C 127.6049,66.6767 127.4542,66.5379 127.3431,66.403 L 127.3431,62 L 126.3792,62 L 126.3792,67.712 L 127.2598,67.712 L 127.2598,67.0694 L 127.2836,67.0694 C 127.3074,67.117 127.359,67.1864 127.4383,67.2777 C 127.5176,67.3689 127.6208,67.4562 127.7477,67.5395 C 127.8746,67.6228 128.0254,67.6961 128.1999,67.7596 C 128.3744,67.8231 128.5728,67.8548 128.7949,67.8548 C 129.0488,67.8548 129.2788,67.8171 129.4851,67.7418 C 129.6914,67.6664 129.8659,67.5454 130.0087,67.3788 C 130.1515,67.2122 130.2626,66.996 130.3419,66.7303 C 130.4212,66.4645 130.4609,66.1372 130.4609,65.7485 L 130.4609,62 L 129.497,62 z
M 131.639,64.7727 C 131.639,65.3518 131.7144,65.8358 131.8651,66.2245 C 132.0158,66.6132 132.2102,66.9266 132.4482,67.1646 C 132.6862,67.4026 132.9559,67.5712 133.2574,67.6704 C 133.5589,67.7695 133.8603,67.8191 134.1618,67.8191 C 134.3443,67.8191 134.5029,67.8052 134.6378,67.7774 C 134.7727,67.7497 134.8837,67.716 134.971,67.6763 L 134.971,70.4133 L 135.9349,70.5204 L 135.9349,62 L 135.0543,62 L 135.0543,62.6069 L 135.0305,62.6069 C 135.0067,62.5593 134.9631,62.4939 134.8996,62.4106 C 134.8361,62.3273 134.7489,62.244 134.6378,62.1607 C 134.5267,62.0774 134.3879,62.006 134.2213,61.9464 C 134.0547,61.8869 133.8603,61.8572 133.6382,61.8572 C 133.3685,61.8572 133.1126,61.9107 132.8707,62.0179 C 132.6287,62.125 132.4165,62.2955 132.234,62.5296 C 132.0515,62.7636 131.9068,63.0651 131.7997,63.434 C 131.6926,63.8029 131.639,64.2491 131.639,64.7727 z
M 133.9,62.714 C 134.0507,62.714 134.1856,62.7338 134.3046,62.7735 C 134.4236,62.8132 134.5267,62.8628 134.614,62.9223 C 134.7013,62.9818 134.7747,63.0432 134.8342,63.1067 C 134.8937,63.1702 134.9393,63.2257 134.971,63.2733 L 134.971,66.7957 C 134.8837,66.8512 134.7826,66.8988 134.6676,66.9385 C 134.5525,66.9782 134.4077,66.998 134.2332,66.998 C 134.0111,66.998 133.8028,66.9603 133.6085,66.885 C 133.4141,66.8096 133.2455,66.6846 133.1027,66.5101 C 132.9599,66.3356 132.8469,66.1095 132.7636,65.8318 C 132.6803,65.5541 132.6386,65.213 132.6386,64.8084 C 132.6386,64.4117 132.6723,64.0805 132.7398,63.8148 C 132.8072,63.549 132.9004,63.3348 133.0194,63.1722 C 133.1384,63.0095 133.2733,62.8925 133.424,62.8211 C 133.5747,62.7497 133.7334,62.714 133.9,62.714 z
M 145.1812,62.5474 C 145.1257,62.4998 145.0424,62.4383 144.9313,62.363 C 144.8202,62.2876 144.6755,62.2122 144.4969,62.1368 C 144.3185,62.0615 144.1062,61.996 143.8603,61.9405 C 143.6144,61.885 143.3327,61.8572 143.0154,61.8572 C 142.5473,61.8572 142.113,61.9306 141.7124,62.0774 C 141.3117,62.2241 140.9666,62.4641 140.6771,62.7973 C 140.3875,63.1305 140.1614,63.5728 139.9988,64.1242 C 139.8361,64.6755 139.7548,65.3558 139.7548,66.165 C 139.7548,66.9345 139.856,67.5851 140.0583,68.1166 C 140.2606,68.6481 140.5263,69.0805 140.8556,69.4137 C 141.1848,69.7469 141.5577,69.9869 141.9742,70.1337 C 142.3907,70.2804 142.8171,70.3538 143.2534,70.3538 C 143.5628,70.3538 143.8266,70.326 144.0448,70.2705 C 144.2629,70.215 144.4494,70.1475 144.604,70.0682 C 144.7588,69.9889 144.8837,69.9095 144.9789,69.8302 C 145.0741,69.7509 145.1534,69.6834 145.2169,69.6279 L 144.729,68.902 C 144.6893,68.9417 144.6298,68.9952 144.5505,69.0627 C 144.4712,69.1301 144.37,69.1955 144.2471,69.259 C 144.1241,69.3225 143.9773,69.378 143.8068,69.4256 C 143.6362,69.4732 143.4359,69.497 143.2058,69.497 C 142.8964,69.497 142.6009,69.4415 142.3193,69.3304 C 142.0376,69.2193 141.7897,69.0329 141.5755,68.7711 C 141.3613,68.5093 141.1888,68.1662 141.0579,67.7418 C 140.927,67.3173 140.8615,66.7917 140.8615,66.165 C 140.8615,65.5462 140.9091,65.0206 141.0043,64.5883 C 141.0995,64.1559 141.2423,63.8029 141.4327,63.5292 C 141.6231,63.2555 141.8571,63.0571 142.1348,62.9342 C 142.4125,62.8112 142.7377,62.7497 143.1106,62.7497 C 143.3169,62.7497 143.5112,62.7695 143.6937,62.8092 C 143.8762,62.8489 144.0388,62.8965 144.1816,62.952 L 144.1816,65.3439 L 142.8726,65.3439 L 142.8726,66.165 L 145.1812,66.165 L 145.1812,62.5474 z
M 150.2625,65.7842 C 150.2625,65.5383 150.2546,65.3261 150.2387,65.1476 C 150.2228,64.9691 150.207,64.8124 150.1911,64.6775 L 147.2756,64.6775 C 147.3073,64.0032 147.4521,63.5073 147.71,63.19 C 147.9678,62.8727 148.3387,62.714 148.8226,62.714 C 148.9892,62.714 149.1399,62.7338 149.2748,62.7735 C 149.4097,62.8132 149.5267,62.8608 149.6259,62.9163 C 149.725,62.9718 149.8083,63.0274 149.8758,63.0829 C 149.9432,63.1384 149.9928,63.1821 150.0245,63.2138 L 150.3815,62.5355 C 150.3418,62.4958 150.2823,62.4383 150.203,62.363 C 150.1237,62.2876 150.0166,62.2122 149.8817,62.1368 C 149.7468,62.0615 149.5802,61.996 149.3819,61.9405 C 149.1836,61.885 148.9495,61.8572 148.6798,61.8572 C 148.3228,61.8572 147.9995,61.9167 147.71,62.0357 C 147.4204,62.1547 147.1745,62.3392 146.9722,62.5891 C 146.7699,62.839 146.6132,63.1563 146.5021,63.5411 C 146.391,63.9258 146.3355,64.3879 146.3355,64.9274 C 146.3355,65.4351 146.393,65.8735 146.5081,66.2424 C 146.6231,66.6113 146.7798,66.9147 146.9781,67.1527 C 147.1764,67.3907 147.4065,67.5672 147.6683,67.6823 C 147.9301,67.7973 148.2117,67.8548 148.5132,67.8548 C 149.0606,67.8548 149.489,67.6823 149.7984,67.3372 C 150.1078,66.9921 150.2625,66.4744 150.2625,65.7842 z
M 148.4537,67.0694 C 148.1126,67.0694 147.8389,66.9266 147.6326,66.641 C 147.4263,66.3554 147.3073,65.9429 147.2756,65.4034 L 149.3581,65.4034 C 149.366,65.4431 149.372,65.5006 149.376,65.576 C 149.3799,65.6513 149.3819,65.7326 149.3819,65.8199 C 149.3819,66.2166 149.3026,66.524 149.1439,66.7422 C 148.9852,66.9603 148.7552,67.0694 148.4537,67.0694 z
M 151.2859,64.856 C 151.2859,65.3796 151.3474,65.8318 151.4704,66.2126 C 151.5933,66.5934 151.7599,66.9048 151.9702,67.1467 C 152.1804,67.3887 152.4224,67.5672 152.6961,67.6823 C 152.9698,67.7973 153.2613,67.8548 153.5707,67.8548 C 153.888,67.8548 154.1816,67.7973 154.4513,67.6823 C 154.721,67.5672 154.9551,67.3887 155.1534,67.1467 C 155.3517,66.9048 155.5084,66.5934 155.6235,66.2126 C 155.7385,65.8318 155.796,65.3796 155.796,64.856 C 155.796,64.3245 155.7365,63.8683 155.6175,63.4875 C 155.4985,63.1067 155.3339,62.7953 155.1237,62.5534 C 154.9134,62.3114 154.6695,62.1349 154.3918,62.0238 C 154.1141,61.9127 153.8206,61.8572 153.5112,61.8572 C 153.1939,61.8572 152.9003,61.9127 152.6306,62.0238 C 152.3609,62.1349 152.1268,62.3114 151.9285,62.5534 C 151.7302,62.7953 151.5735,63.1047 151.4585,63.4816 C 151.3434,63.8584 151.2859,64.3165 151.2859,64.856 z
M 154.7964,64.856 C 154.7964,65.6176 154.6853,66.171 154.4632,66.516 C 154.2411,66.8612 153.9317,67.0337 153.535,67.0337 C 153.1383,67.0337 152.8309,66.8612 152.6128,66.516 C 152.3946,66.171 152.2855,65.6176 152.2855,64.856 C 152.2855,64.0944 152.3966,63.547 152.6187,63.2138 C 152.8408,62.8806 153.1502,62.714 153.5469,62.714 C 153.9436,62.714 154.251,62.8806 154.4692,63.2138 C 154.6873,63.547 154.7964,64.0944 154.7964,64.856 z
M 156.748,64.7727 C 156.748,65.3518 156.8234,65.8358 156.9741,66.2245 C 157.1248,66.6132 157.3192,66.9266 157.5572,67.1646 C 157.7952,67.4026 158.0649,67.5712 158.3664,67.6704 C 158.6679,67.7695 158.9693,67.8191 159.2708,67.8191 C 159.4533,67.8191 159.6119,67.8052 159.7468,67.7774 C 159.8817,67.7497 159.9927,67.716 160.08,67.6763 L 160.08,70.4133 L 161.0439,70.5204 L 161.0439,62 L 160.1633,62 L 160.1633,62.6069 L 160.1395,62.6069 C 160.1157,62.5593 160.0721,62.4939 160.0086,62.4106 C 159.9451,62.3273 159.8579,62.244 159.7468,62.1607 C 159.6357,62.0774 159.4969,62.006 159.3303,61.9464 C 159.1637,61.8869 158.9693,61.8572 158.7472,61.8572 C 158.4775,61.8572 158.2216,61.9107 157.9797,62.0179 C 157.7377,62.125 157.5255,62.2955 157.343,62.5296 C 157.1605,62.7636 157.0158,63.0651 156.9087,63.434 C 156.8016,63.8029 156.748,64.2491 156.748,64.7727 z
M 159.009,62.714 C 159.1597,62.714 159.2946,62.7338 159.4136,62.7735 C 159.5326,62.8132 159.6357,62.8628 159.723,62.9223 C 159.8103,62.9818 159.8837,63.0432 159.9432,63.1067 C 160.0027,63.1702 160.0483,63.2257 160.08,63.2733 L 160.08,66.7957 C 159.9927,66.8512 159.8916,66.8988 159.7766,66.9385 C 159.6615,66.9782 159.5167,66.998 159.3422,66.998 C 159.1201,66.998 158.9118,66.9603 158.7175,66.885 C 158.5231,66.8096 158.3545,66.6846 158.2117,66.5101 C 158.0689,66.3356 157.9559,66.1095 157.8726,65.8318 C 157.7893,65.5541 157.7476,65.213 157.7476,64.8084 C 157.7476,64.4117 157.7813,64.0805 157.8488,63.8148 C 157.9162,63.549 158.0094,63.3348 158.1284,63.1722 C 158.2474,63.0095 158.3823,62.8925 158.533,62.8211 C 158.6837,62.7497 158.8424,62.714 159.009,62.714 z
M 162.1863,63.4518 C 162.1863,63.785 162.2498,64.0627 162.3767,64.2848 C 162.5036,64.5069 162.6742,64.6874 162.8884,64.8263 C 163.1026,64.9651 163.3545,65.0643 163.6441,65.1238 C 163.9336,65.1833 164.241,65.213 164.5663,65.213 L 164.8638,65.213 L 164.8638,65.7604 C 164.8638,66.2443 164.7785,66.5775 164.608,66.76 C 164.4374,66.9425 164.1974,67.0337 163.888,67.0337 C 163.6024,67.0337 163.3644,66.9722 163.174,66.8493 C 162.9836,66.7263 162.8329,66.6172 162.7218,66.522 L 162.3172,67.1646 C 162.3807,67.2281 162.462,67.2995 162.5612,67.3788 C 162.6603,67.4581 162.7813,67.5335 162.9241,67.6049 C 163.0669,67.6763 163.2295,67.7358 163.412,67.7834 C 163.5945,67.831 163.8007,67.8548 164.0308,67.8548 C 164.6179,67.8548 165.0621,67.6922 165.3636,67.3669 C 165.6651,67.0416 165.8158,66.518 165.8158,65.7961 L 165.8158,63.19 C 165.8158,62.9441 165.8237,62.7041 165.8396,62.4701 C 165.8555,62.236 165.8713,62.0793 165.8872,62 L 164.9709,62 L 164.9352,62.6307 L 164.9114,62.6307 C 164.8797,62.5593 164.8321,62.478 164.7686,62.3868 C 164.7051,62.2955 164.6258,62.2122 164.5306,62.1368 C 164.4354,62.0615 164.3204,61.996 164.1855,61.9405 C 164.0506,61.885 163.892,61.8572 163.7095,61.8572 C 163.4953,61.8572 163.295,61.8969 163.1086,61.9762 C 162.9221,62.0555 162.7595,62.1666 162.6207,62.3094 C 162.4818,62.4522 162.3747,62.6208 162.2994,62.8152 C 162.224,63.0095 162.1863,63.2217 162.1863,63.4518 z
M 163.9118,62.6783 C 164.0467,62.6783 164.1657,62.6981 164.2688,62.7378 C 164.3719,62.7775 164.4612,62.8251 164.5366,62.8806 C 164.6119,62.9361 164.6754,62.9976 164.727,63.0651 C 164.7785,63.1325 164.8241,63.19 164.8638,63.2376 L 164.8638,64.499 L 164.5544,64.4871 C 164.0943,64.4712 163.7452,64.3919 163.5072,64.2491 C 163.2692,64.1063 163.1502,63.8762 163.1502,63.5589 C 163.1502,63.2654 163.2176,63.0452 163.3525,62.8985 C 163.4874,62.7517 163.6738,62.6783 163.9118,62.6783 z
M 163.6857,69.3542 C 163.6857,69.1717 163.6302,69.025 163.5191,68.9139 C 163.408,68.8028 163.2732,68.7473 163.1145,68.7473 C 162.9558,68.7473 162.821,68.8028 162.7099,68.9139 C 162.5988,69.025 162.5433,69.1717 162.5433,69.3542 C 162.5433,69.5367 162.5988,69.6834 162.7099,69.7945 C 162.821,69.9056 162.9558,69.9611 163.1145,69.9611 C 163.2732,69.9611 163.408,69.9056 163.5191,69.7945 C 163.6302,69.6834 163.6857,69.5367 163.6857,69.3542 z
M 165.5183,69.3542 C 165.5183,69.1717 165.4628,69.025 165.3517,68.9139 C 165.2406,68.8028 165.1058,68.7473 164.9471,68.7473 C 164.7884,68.7473 164.6536,68.8028 164.5425,68.9139 C 164.4314,69.025 164.3759,69.1717 164.3759,69.3542 C 164.3759,69.5367 164.4314,69.6834 164.5425,69.7945 C 164.6536,69.9056 164.7884,69.9611 164.9471,69.9611 C 165.1058,69.9611 165.2406,69.9056 165.3517,69.7945 C 165.4628,69.6834 165.5183,69.5367 165.5183,69.3542 z
M 169.7309,66.5577 C 169.6674,66.6291 169.5524,66.7263 169.3858,66.8493 C 169.2192,66.9722 169.001,67.0337 168.7313,67.0337 C 168.4774,67.0337 168.2831,66.9742 168.1482,66.8552 C 168.0133,66.7362 167.9459,66.5934 167.9459,66.4268 C 167.9459,66.2126 168.0074,66.0361 168.1304,65.8973 C 168.2533,65.7584 168.4417,65.6097 168.6956,65.451 L 169.0526,65.2368 C 169.4413,65.0067 169.7468,64.7588 169.9689,64.4931 C 170.191,64.2273 170.3021,63.8842 170.3021,63.4637 C 170.3021,63.0115 170.1454,62.6307 169.8321,62.3213 C 169.5187,62.0119 169.0685,61.8572 168.4814,61.8572 C 168.2513,61.8572 168.049,61.881 167.8745,61.9286 C 167.7,61.9762 167.5472,62.0317 167.4164,62.0952 C 167.2855,62.1587 167.1764,62.2281 167.0891,62.3034 C 167.0018,62.3788 166.9304,62.4482 166.8749,62.5117 L 167.339,63.2733 C 167.3866,63.2257 167.4441,63.1702 167.5116,63.1067 C 167.579,63.0432 167.6603,62.9818 167.7555,62.9223 C 167.8507,62.8628 167.9578,62.8132 168.0768,62.7735 C 168.1958,62.7338 168.3346,62.714 168.4933,62.714 C 168.7789,62.714 168.9971,62.7775 169.1478,62.9044 C 169.2985,63.0313 169.3739,63.186 169.3739,63.3685 C 169.3739,63.5034 169.3561,63.6204 169.3204,63.7196 C 169.2847,63.8187 169.2311,63.908 169.1597,63.9873 C 169.0883,64.0666 169.001,64.142 168.8979,64.2134 C 168.7948,64.2848 168.6758,64.3641 168.5409,64.4514 L 168.1839,64.6775 C 167.8269,64.9076 167.5472,65.1495 167.345,65.4034 C 167.1427,65.6573 167.0415,65.9825 167.0415,66.3792 C 167.0415,66.5934 167.0832,66.7898 167.1665,66.9683 C 167.2498,67.1467 167.3668,67.3014 167.5175,67.4324 C 167.6682,67.5633 167.8448,67.6664 168.0471,67.7418 C 168.2494,67.8171 168.4655,67.8548 168.6956,67.8548 C 168.9177,67.8548 169.1081,67.833 169.2668,67.7894 C 169.4255,67.7457 169.5623,67.6902 169.6774,67.6228 C 169.7924,67.5553 169.8876,67.4879 169.963,67.4205 C 170.0383,67.353 170.0998,67.2955 170.1474,67.2479 L 169.7309,66.5577 z
M 172.3965,62 L 171.4326,62 L 171.4326,67.712 L 172.3965,67.712 L 172.3965,62 z
M 171.9205,69.0924 C 171.7222,69.0924 171.5635,69.1559 171.4445,69.2828 C 171.3255,69.4097 171.266,69.5763 171.266,69.7826 C 171.266,69.9809 171.3255,70.1436 171.4445,70.2705 C 171.5635,70.3974 171.7222,70.4609 171.9205,70.4609 C 172.1109,70.4609 172.2656,70.3974 172.3846,70.2705 C 172.5036,70.1436 172.5631,69.9809 172.5631,69.7826 C 172.5631,69.5763 172.5036,69.4097 172.3846,69.2828 C 172.2656,69.1559 172.1109,69.0924 171.9205,69.0924 z
M 177.5373,65.7842 C 177.5373,65.5383 177.5294,65.3261 177.5135,65.1476 C 177.4976,64.9691 177.4818,64.8124 177.4659,64.6775 L 174.5504,64.6775 C 174.5821,64.0032 174.7269,63.5073 174.9848,63.19 C 175.2426,62.8727 175.6135,62.714 176.0974,62.714 C 176.264,62.714 176.4147,62.7338 176.5496,62.7735 C 176.6845,62.8132 176.8015,62.8608 176.9007,62.9163 C 176.9998,62.9718 177.0831,63.0274 177.1506,63.0829 C 177.218,63.1384 177.2676,63.1821 177.2993,63.2138 L 177.6563,62.5355 C 177.6166,62.4958 177.5571,62.4383 177.4778,62.363 C 177.3985,62.2876 177.2914,62.2122 177.1565,62.1368 C 177.0216,62.0615 176.855,61.996 176.6567,61.9405 C 176.4584,61.885 176.2243,61.8572 175.9546,61.8572 C 175.5976,61.8572 175.2743,61.9167 174.9848,62.0357 C 174.6952,62.1547 174.4493,62.3392 174.247,62.5891 C 174.0447,62.839 173.888,63.1563 173.7769,63.5411 C 173.6658,63.9258 173.6103,64.3879 173.6103,64.9274 C 173.6103,65.4351 173.6678,65.8735 173.7829,66.2424 C 173.8979,66.6113 174.0546,66.9147 174.2529,67.1527 C 174.4512,67.3907 174.6813,67.5672 174.9431,67.6823 C 175.2049,67.7973 175.4865,67.8548 175.788,67.8548 C 176.3354,67.8548 176.7638,67.6823 177.0732,67.3372 C 177.3826,66.9921 177.5373,66.4744 177.5373,65.7842 z
M 175.7285,67.0694 C 175.3874,67.0694 175.1137,66.9266 174.9074,66.641 C 174.7011,66.3554 174.5821,65.9429 174.5504,65.4034 L 176.6329,65.4034 C 176.6408,65.4431 176.6468,65.5006 176.6508,65.576 C 176.6547,65.6513 176.6567,65.7326 176.6567,65.8199 C 176.6567,66.2166 176.5774,66.524 176.4187,66.7422 C 176.26,66.9603 176.03,67.0694 175.7285,67.0694 z
" fill="#000000"/>
  </g>
  <g id="Adler-und-Saeulenelement">
    <path d="M37.173,29.339 C37.2,29.115 37.216,28.884 37.216,28.648 C37.216,28.519 37.217,28.369 37.201,28.199 C39.194,28.171 40.942,26.735 40.942,25.084 C40.942,24.244 40.394,23.61 40.085,23.231 C40.154,23.216 40.224,23.2 40.295,23.183 C40.587,23.437 41.415,24.339 41.415,25.478 C41.415,27.459 39.435,29.298 37.173,29.339 M35.165,22.44 C35.128,22.219 35.044,22.019 34.916,21.847 C34.923,21.645 35.006,21.452 35.331,21.611 C35.155,21.791 35.291,22.11 35.291,22.11 C35.291,22.11 35.651,21.943 35.576,21.705 C36.11,21.833 35.726,22.55 35.165,22.44 M34.702,23.457 C34.631,23.161 34.479,22.857 34.286,22.628 C34.11,22.42 33.819,22.173 33.427,22.173 C33.248,22.173 32.948,22.257 32.757,22.338 C32.686,22.208 32.547,21.895 32.547,21.754 C32.547,21.609 32.792,21.462 33.261,21.462 C34.293,21.462 34.909,21.928 34.909,22.71 C34.909,22.985 34.8,23.235 34.702,23.457 M37.352,36.757 C37.472,36.757 37.53,36.776 37.6,36.802 C37.897,37.61 39.042,39.135 39.09,39.2 L39.1,39.214 L39.117,39.21 C39.398,39.165 40.115,39.057 40.715,39.057 L40.729,39.057 C40.794,39.057 40.868,39.057 40.915,39.103 C40.954,39.142 40.973,39.21 40.973,39.307 C40.973,39.456 40.91,39.711 40.834,39.82 C40.624,39.591 40.283,39.488 39.737,39.488 C39.573,39.488 39.379,39.537 39.274,39.565 L39.231,39.574 L39.182,39.587 L39.497,39.902 C39.983,40.388 40.403,40.807 40.403,41.086 C40.403,41.254 40.239,41.473 40.089,41.57 C40.056,41.059 39.54,40.375 39.037,39.992 L38.994,39.96 L38.986,40.14 C38.979,40.262 38.968,40.445 38.968,40.641 C38.968,41.614 38.869,41.762 38.532,41.762 C38.48,41.762 38.401,41.747 38.352,41.729 C38.542,41.494 38.617,41.184 38.617,40.64 L38.614,40.389 L38.611,40.187 C38.611,39.964 38.634,39.799 38.652,39.666 L38.662,39.591 L38.609,39.584 C38.451,39.562 38.158,39.522 37.934,39.522 C37.453,39.522 37.127,39.566 36.891,39.788 C36.735,39.662 36.575,39.445 36.575,39.308 C36.575,39.105 36.701,39.089 36.867,39.089 C36.951,39.089 37.029,39.101 37.137,39.114 C37.344,39.145 37.655,39.191 38.296,39.191 L38.336,39.191 L38.323,39.152 C38.161,38.687 37.715,38.011 37,37.142 C37.064,36.909 37.127,36.757 37.352,36.757 M31.178,39.152 L31.165,39.191 L31.205,39.191 C31.845,39.191 32.157,39.145 32.364,39.114 C32.472,39.101 32.55,39.089 32.634,39.089 C32.799,39.089 32.926,39.105 32.926,39.308 C32.926,39.445 32.766,39.662 32.611,39.788 C32.374,39.566 32.048,39.522 31.568,39.522 C31.343,39.522 31.049,39.562 30.892,39.584 L30.867,39.587 L30.839,39.591 L30.848,39.666 C30.867,39.799 30.89,39.964 30.89,40.187 L30.887,40.389 L30.884,40.64 C30.884,41.184 30.959,41.494 31.15,41.729 C31.1,41.747 31.021,41.762 30.969,41.762 C30.631,41.762 30.533,41.614 30.533,40.641 C30.533,40.445 30.523,40.262 30.516,40.14 L30.506,39.959 L30.464,39.992 C29.962,40.375 29.444,41.059 29.413,41.57 C29.262,41.473 29.098,41.254 29.098,41.086 C29.098,40.807 29.518,40.388 30.004,39.902 L30.283,39.623 L30.319,39.587 L30.227,39.565 C30.122,39.537 29.928,39.488 29.763,39.488 C29.218,39.488 28.878,39.591 28.667,39.82 C28.591,39.711 28.528,39.456 28.528,39.307 C28.528,39.21 28.547,39.142 28.586,39.103 C28.633,39.057 28.707,39.057 28.772,39.057 L28.786,39.057 C29.386,39.057 30.104,39.165 30.384,39.21 L30.401,39.214 L30.411,39.2 C30.46,39.135 31.604,37.61 31.902,36.802 C31.97,36.776 32.029,36.757 32.149,36.757 C32.374,36.757 32.437,36.909 32.502,37.142 C31.786,38.011 31.34,38.687 31.178,39.152 M28.086,25.478 C28.086,24.339 28.915,23.437 29.207,23.183 C29.277,23.2 29.347,23.216 29.417,23.231 C29.107,23.61 28.559,24.244 28.559,25.084 C28.559,26.752 30.341,28.2 32.359,28.2 C32.346,28.343 32.339,28.493 32.339,28.648 C32.339,28.894 32.353,29.123 32.377,29.339 C30.095,29.325 28.086,27.473 28.086,25.478 M43.392,28.991 C44.416,30.61 45.217,30.583 46.427,30.583 C45.426,29.816 44.764,28.833 44.448,28.331 L42.578,25.339 C42.396,24.415 41.918,23.551 41.202,22.908 C41.443,22.817 41.643,22.721 41.763,22.63 C40.542,22.63 39.332,22.01 38.666,22.01 C38.238,22.01 37.963,22.266 37.963,22.604 C37.99,22.981 38.378,23.364 39.095,23.364 C39.257,23.364 39.465,23.343 39.693,23.305 C40.081,23.846 40.394,24.335 40.394,25.033 C40.394,26.343 38.828,27.364 37.247,27.364 C37.157,27.364 37.072,27.36 36.983,27.354 C36.84,27.029 36.363,26.484 36.363,25.864 C36.363,24.823 37.042,23.973 37.042,22.942 C37.042,22.301 36.73,21.904 36.61,21.739 C36.804,21.559 37.016,21.338 37.066,21.186 C36.953,21.235 36.819,21.241 36.624,21.241 C35.866,21.241 35.248,21.044 34.646,21.044 C34.302,21.044 34.21,21.15 34.21,21.251 C34.21,21.288 34.215,21.326 34.225,21.344 C34.097,21.294 33.977,21.261 33.834,21.235 C33.656,21.201 33.465,21.184 33.261,21.184 C32.529,21.184 32.269,21.491 32.269,21.754 C32.269,21.976 32.444,22.382 32.643,22.692 C32.928,22.548 33.271,22.451 33.427,22.451 C33.816,22.451 34.161,22.821 34.344,23.259 C34.083,23.291 34.033,23.302 33.769,23.302 C33.056,23.302 32.571,23.047 32.471,23.047 C32.462,23.047 32.443,23.052 32.443,23.068 C32.443,23.168 32.645,23.432 33.043,23.577 C33.568,23.769 34.354,23.849 34.485,23.871 C34.485,23.894 34.352,24.142 34.203,24.19 C34.172,24.2 34.147,24.201 34.11,24.193 C33.562,24.085 33.409,24.039 32.714,23.775 C32.693,23.767 32.68,23.78 32.68,23.802 C32.68,24.077 33.392,24.684 34.03,24.917 C33.497,25.597 32.832,26.293 32.518,27.354 C32.429,27.36 32.343,27.364 32.254,27.364 C30.673,27.364 29.107,26.343 29.107,25.033 C29.107,24.335 29.42,23.846 29.808,23.305 C30.036,23.343 30.243,23.364 30.406,23.364 C31.123,23.364 31.511,22.981 31.539,22.604 C31.539,22.266 31.264,22.01 30.835,22.01 C30.169,22.01 28.96,22.63 27.737,22.63 C27.858,22.721 28.058,22.817 28.298,22.908 C27.583,23.551 27.105,24.415 26.923,25.339 L25.053,28.331 C24.738,28.833 24.074,29.816 23.073,30.583 C24.283,30.583 25.085,30.61 26.109,28.991 L27.068,27.457 C27.139,27.656 27.226,27.85 27.329,28.04 L25.422,31.091 C25.105,31.597 24.447,32.571 23.442,33.343 C24.652,33.343 25.454,33.371 26.478,31.753 L28.119,29.125 C28.242,29.256 28.371,29.384 28.507,29.506 L26.191,33.214 C25.873,33.721 25.219,34.693 24.212,35.464 C25.422,35.464 26.224,35.493 27.247,33.874 L29.505,30.259 C29.654,30.353 29.806,30.444 29.964,30.53 L27.207,34.941 C26.889,35.448 26.235,36.417 25.228,37.191 C26.438,37.191 27.24,37.219 28.264,35.601 L31.102,31.058 C31.27,31.122 31.44,31.184 31.613,31.239 L28.406,36.372 C28.093,36.872 27.424,37.859 26.428,38.622 C27.637,38.622 28.44,38.65 29.463,37.032 L32.881,31.562 C32.916,31.568 32.95,31.573 32.984,31.58 C33.077,31.876 33.142,32.152 33.142,32.427 C33.142,34.146 32.014,35.664 30.66,36.836 C30.747,36.874 30.898,36.887 31.037,36.887 C31.317,36.887 31.497,36.872 31.624,36.85 C31.31,37.563 30.636,38.484 30.296,38.96 C29.853,38.88 29.208,38.818 28.786,38.818 C28.344,38.818 28.294,39.076 28.294,39.307 C28.294,39.708 28.482,40.027 28.7,40.205 C28.782,40 28.947,39.726 29.763,39.726 C29.779,39.726 29.807,39.728 29.845,39.731 C29.607,39.996 28.86,40.6 28.86,41.086 C28.86,41.408 29.213,41.891 29.678,41.891 C29.651,41.787 29.654,41.692 29.654,41.62 C29.654,41.226 30.003,40.765 30.298,40.443 C30.289,40.539 30.294,40.529 30.294,40.641 C30.294,41.572 30.378,42 30.969,42 C31.259,42 31.459,41.841 31.528,41.793 C31.144,41.44 31.124,41.162 31.124,40.64 C31.125,40.504 31.126,40.371 31.128,40.188 C31.129,40.068 31.127,39.91 31.108,39.796 C31.319,39.767 31.405,39.767 31.568,39.767 C31.568,39.767 32.407,39.7 32.61,40.137 C32.838,39.928 33.169,39.633 33.169,39.308 C33.169,39.093 33.067,38.85 32.634,38.85 C32.47,38.85 31.955,38.95 31.524,38.95 C31.64,38.693 32.155,37.939 32.602,37.392 C32.67,37.604 32.775,37.833 33.009,38.021 C33.042,37.669 33.248,36.556 33.798,35.905 C33.862,36.345 33.948,36.796 33.948,37.747 C33.948,40.061 33.392,41.77 32.211,42.096 C32.365,42.363 32.69,42.604 33.027,42.604 C33.459,42.604 33.694,42.115 33.934,41.654 C34.059,41.994 34.404,42.828 34.75,42.828 C35.096,42.828 35.442,41.994 35.567,41.654 C35.806,42.115 36.042,42.604 36.474,42.604 C36.811,42.604 37.136,42.363 37.29,42.096 C36.109,41.77 35.552,40.061 35.552,37.747 C35.552,36.796 35.638,36.345 35.702,35.905 C36.253,36.556 36.46,37.669 36.491,38.021 C36.726,37.833 36.832,37.604 36.899,37.392 C37.345,37.939 37.861,38.693 37.977,38.95 C37.546,38.95 37.03,38.85 36.867,38.85 C36.435,38.85 36.333,39.093 36.333,39.308 C36.333,39.633 36.664,39.928 36.892,40.137 C37.093,39.7 37.934,39.767 37.934,39.767 C38.096,39.767 38.182,39.767 38.394,39.796 C38.374,39.91 38.373,40.068 38.374,40.188 C38.376,40.371 38.376,40.504 38.377,40.64 C38.377,41.162 38.357,41.44 37.973,41.793 C38.042,41.841 38.242,42 38.532,42 C39.123,42 39.208,41.572 39.208,40.641 C39.208,40.529 39.211,40.539 39.203,40.443 C39.498,40.765 39.847,41.226 39.847,41.62 C39.847,41.692 39.851,41.787 39.822,41.891 C40.288,41.891 40.642,41.408 40.642,41.086 C40.642,40.6 39.895,39.996 39.655,39.731 C39.694,39.728 39.722,39.726 39.737,39.726 C40.554,39.726 40.719,40 40.801,40.205 C41.019,40.027 41.207,39.708 41.207,39.307 C41.207,39.076 41.157,38.818 40.715,38.818 C40.293,38.818 39.649,38.88 39.205,38.96 C38.864,38.484 38.192,37.563 37.877,36.85 C38.004,36.872 38.185,36.887 38.464,36.887 C38.604,36.887 38.754,36.874 38.841,36.836 C37.487,35.664 36.359,34.146 36.359,32.427 C36.359,32.152 36.424,31.876 36.517,31.58 C36.55,31.573 36.586,31.568 36.62,31.562 L40.038,37.032 C41.061,38.65 41.864,38.622 43.073,38.622 C42.077,37.859 41.408,36.872 41.095,36.372 L37.887,31.239 C38.061,31.184 38.232,31.122 38.4,31.058 L41.237,35.601 C42.261,37.219 43.063,37.191 44.273,37.191 C43.266,36.417 42.612,35.448 42.294,34.941 L39.538,30.53 C39.694,30.444 39.847,30.353 39.995,30.259 L42.254,33.874 C43.278,35.493 44.079,35.464 45.289,35.464 C44.282,34.693 43.629,33.721 43.31,33.214 L40.994,29.506 C41.13,29.384 41.26,29.256 41.381,29.125 L43.024,31.753 C44.047,33.371 44.849,33.343 46.059,33.343 C45.053,32.571 44.397,31.597 44.079,31.091 L42.173,28.04 C42.275,27.85 42.362,27.656 42.434,27.457 z" fill="#000000"/>
    <path d="M56,42 L52.5,42 L52.5,22 L56,22 z" fill="#000000"/>
    <path d="M56,62 L52.5,62 L52.5,42 L56,42 z" fill="#FF0000"/>
    <path d="M56,82 L52.5,82 L52.5,62 L56,62 z" fill="#FFCC00"/>
  </g>
</svg>
