<?xml version="1.0" encoding="UTF-8" standalone="no"?>
<!DOCTYPE svg PUBLIC "-//W3C//DTD SVG 1.1//EN" "http://www.w3.org/Graphics/SVG/1.1/DTD/svg11.dtd">
<svg width="996px" height="509px" version="1.1" xmlns="http://www.w3.org/2000/svg" xmlns:xlink="http://www.w3.org/1999/xlink" xml:space="preserve" style="fill-rule:evenodd;clip-rule:evenodd;stroke-linejoin:round;stroke-miterlimit:1.41421;">
    <rect id="ArtBoard1" x="0" y="0" width="996" height="510" style="fill:none;"/>
    <clipPath id="_clip1"><rect x="0" y="0" width="996" height="510"/></clipPath>
    <g clip-path="url(#_clip1)"><rect id="ArtBoard11" x="0" y="0" width="997.053" height="513.684" style="fill:none;"/>
        <g>
            <path d="M800.365,109.452c5.239,-23.594 10.007,-45.06 15.302,-68.897c9.183,23.769 17.531,45.374 26.863,69.526c9.276,-24.018 17.593,-45.556 26.836,-69.489c5.306,23.856 10.081,45.327 15.444,69.442c7.14,-12.946 13.006,-23.506 18.799,-34.107c5.741,-10.51 11.301,-21.121 17.205,-31.538c1.095,-1.935 3.425,-4.486 5.216,-4.511c22.479,-0.307 44.963,-0.202 68.667,-0.202c0,19.016 0.194,37.207 -0.281,55.382c-0.05,1.947 -3.686,4.53 -6.179,5.57c-23.669,9.884 -47.452,19.487 -71.191,29.203c-2.541,1.04 -4.998,2.288 -9.181,4.216c29.135,12.85 56.559,24.944 85.6,37.752c-29.896,10.345 -57.998,20.07 -88.331,30.567c28.219,14.626 54.36,28.178 82.732,42.885c-30.555,7.616 -58.919,14.685 -89.388,22.279c26.289,17.333 50.659,33.402 76.652,50.54c-29.897,3.295 -57.755,6.363 -88.098,9.708c21.826,20.422 42.063,39.36 63.977,59.866l-85.415,0c15.867,22.037 30.212,41.959 44.9,62.36c-21.633,16.82 -42.972,33.508 -64.508,49.938c-1.479,1.128 -5.199,1.32 -6.589,0.261c-21.533,-16.407 -42.854,-33.092 -64.858,-50.205c14.659,-20.334 28.919,-40.114 44.232,-61.356l-82.178,0c-0.389,-0.751 -0.777,-1.502 -1.165,-2.252c20.258,-18.983 40.515,-37.966 62.523,-58.588c-30.105,-3.331 -57.726,-6.386 -87.966,-9.731c26.026,-17.19 50.235,-33.178 76.513,-50.534c-30.369,-7.57 -58.712,-14.634 -89.362,-22.273c28.242,-14.634 54.419,-28.198 82.73,-42.868c-30.174,-10.461 -58.41,-20.251 -88.305,-30.617c28.819,-12.692 56.112,-24.713 85.435,-37.628c-4.146,-1.978 -6.662,-3.328 -9.29,-4.406c-23.73,-9.732 -47.535,-19.286 -71.147,-29.292c-2.729,-1.156 -6.212,-4.687 -6.304,-7.226c-0.561,-15.684 -0.287,-31.401 -0.181,-47.107c0.013,-1.928 0.678,-3.853 1.168,-6.46c22.426,0 44.643,-0.188 66.846,0.272c2.395,0.05 5.494,3.427 6.942,6.004c10.192,18.149 20.026,36.5 30.012,54.766c1.296,2.37 2.804,4.625 5.323,8.75" style="fill:#bf0044;fill-rule:nonzero;fill-opacity:1;"/>
            <path d="M407.823,141.459c3.317,5.896 8.991,9.335 16.544,7.251c7.951,-2.193 10.864,-8.434 10.679,-16.819c2.55,1.109 4.526,2.441 6.651,2.75c1.915,0.279 3.992,-0.561 5.999,-0.909c-0.752,-1.859 -0.968,-4.421 -2.339,-5.468c-17.42,-13.297 -32.236,-11.157 -44.847,6.731c-2.086,2.958 -2.267,7.259 -3.328,10.938c3.183,-1.338 6.367,-2.677 10.641,-4.474m38.48,-138.135c-3.972,14.66 -11.403,27.398 -22.722,37.41c-3.243,2.868 -8.608,4.494 -13.063,4.631c-17.117,0.524 -34.28,0.737 -51.386,0.062c-16.818,-0.664 -28.651,7.107 -34.466,21.629c-4.66,11.642 -6.531,24.616 -8.228,37.19c-4.881,36.182 -24.627,54.235 -61.316,54.372c-50.255,0.185 -100.511,-0.069 -150.765,0.154c-9.365,0.042 -18.874,0.649 -28.048,2.401c-13.583,2.595 -20.708,10.66 -22.057,22.756c-1.224,10.98 4.306,22.091 16.151,26.564c11.301,4.267 23.477,7 35.504,8.427c60.895,7.224 121.864,13.815 182.813,20.577c3.68,0.408 7.407,0.497 11.114,0.539c11.668,0.13 16.627,-3.517 19.884,-14.594c1.35,-4.588 2.538,-9.225 3.783,-13.771c-7.135,-0.996 -13.659,-1.387 -19.866,-2.997c-3.009,-0.781 -5.424,-3.848 -7.611,-6.874c15.052,-2.093 27.27,-7.167 36.216,-19.235c-10.755,-2.081 -22.754,0.766 -28.184,-12.34c3.994,-0.248 8.124,0.31 11.676,-0.869c13.655,-4.533 24.795,-10.019 28.819,-27.171c3.561,-15.186 2.554,-29.085 0.167,-43.636c-0.584,-3.557 -0.889,-7.16 -1.377,-11.19c13.955,2.489 25.141,7.181 29.302,19.768c30.359,-6.269 59.32,-9.664 87.111,7.482c6.87,4.239 15.322,6.108 23.241,8.391c5.067,1.46 6.714,3.906 6.447,9.134c-1.647,32.28 -6.602,37.155 -38.519,37.18c-9.137,0.007 -18.289,-0.176 -27.402,0.32c-6.804,0.371 -13.588,1.647 -15.846,11.495c8.045,0 15.34,0.001 22.635,0c12.278,-0.002 24.559,0.179 36.833,-0.055c15.863,-0.304 24.349,-6.753 28.591,-21.899c1.257,-4.483 2.305,-8.895 7.954,-7.685c5.883,1.262 4.799,6.322 3.983,10.507c-3.751,19.227 -18.432,31.21 -38.211,31.287c-19.987,0.081 -39.974,0.081 -59.96,0.14c-0.533,0.001 -1.066,0.283 -2.212,0.607l0,11.286l63.252,0c-4.969,18.251 -19.185,19.541 -33.966,21.3c1.254,1.804 1.856,3.398 3.008,4.22c19.989,14.263 30.32,33.89 34.414,57.894c2.801,16.423 4.909,33.457 17.509,47.976c-10.915,3.056 -20.377,5.707 -30.566,8.56c1.555,1.634 2.691,3.167 4.14,4.298c26.77,20.906 53.482,41.891 80.524,62.44c2.725,2.071 7.818,2.715 11.247,1.83c7.681,-1.983 14.991,-5.383 22.478,-8.14c13.544,-4.987 26.84,-1.09 37.497,11.451c-4.071,0.388 -7.651,0.642 -11.207,1.091c-6.057,0.766 -12.922,0.171 -13.567,9.343c-0.093,1.326 -3.581,3.036 -5.717,3.459c-3.823,0.756 -7.814,0.668 -12.308,2.459c4.681,2.127 9.169,5.078 14.079,6.23c17.688,4.149 21.924,16.925 22.096,33.802c-3.345,-1.473 -6.331,-2.693 -9.233,-4.085c-10.806,-5.182 -10.795,-5.204 -20.446,2.429c-7.322,-6.339 -14.774,-12.792 -24.515,-21.226c2.827,21.241 -0.621,38.504 -18.317,53.155c0,-9.026 -0.061,-15.712 0.019,-22.398c0.068,-5.729 0.009,-11.255 -8.393,-10.66c0.687,-7.738 1.309,-14.746 2.104,-23.695c-6.711,5.048 -12.193,9.173 -18.027,13.563c-1.798,-2.068 -3.44,-3.958 -5.641,-6.49c-6.97,3.711 -13.919,7.411 -20.87,11.11c-0.61,-0.301 -1.223,-0.603 -1.835,-0.905c2.786,-6.208 4.419,-13.41 8.676,-18.35c4.407,-5.114 11.361,-8.036 18.528,-12.799c-7.97,-3.18 -14.755,-5.787 -21.461,-8.58c-35.25,-14.679 -70.483,-29.403 -105.714,-44.127c-1.84,-0.769 -3.601,-1.725 -5.433,-2.516c-10.415,-4.494 -19.275,-9.915 -13.085,-24.691c-4.222,0 -7.256,-0.377 -10.166,0.064c-14.212,2.152 -26.963,-1.534 -39.241,-8.573c-23.753,-13.617 -47.998,-26.395 -71.486,-40.446c-13.615,-8.145 -25.539,-7.965 -37.347,2.466c-28.635,25.293 -57.425,50.414 -85.821,75.971c-16.068,14.463 -31.483,29.649 -48.444,45.693c10.193,3.923 18.865,8.339 28.066,10.567c17.126,4.146 21.849,16.849 24.745,31.675c-10.331,1.354 -18.282,-12.281 -29.88,-3.725c-5.903,-4.098 -12.328,-8.559 -18.754,-13.019c13.801,14.353 19.05,29.641 7.043,49.405c-3.374,-5.277 -5.934,-9.561 -8.776,-13.649c-3.079,-4.43 -4.26,-10.761 -11.759,-10.946c-1.36,-0.033 -2.884,-3.802 -3.885,-6.048c-2.415,-5.426 -4.567,-10.971 -7.76,-18.747c-1.198,11.415 -0.637,20.966 -3.515,29.335c-2.957,8.599 -9.229,16.093 -20.221,19.155c0.41,-5.356 0.337,-9.646 1.149,-13.76c1.17,-5.922 1.313,-11.009 -4.091,-15.354c-1.382,-1.112 -1.476,-5.215 -0.676,-7.4c2.73,-7.457 6.122,-14.671 9.492,-22.513l-33.397,0c-1.213,-8.439 9.064,-21.889 18.861,-23.128c0.849,-0.108 1.746,-0.314 2.557,-0.152c15.627,3.114 22.217,-4.927 27.325,-18.806c8.052,-21.884 18.653,-42.819 27.774,-64.325c3.345,-7.89 8.1,-12.139 16.896,-10.031c6.105,1.463 9.105,-1.108 11.509,-6.694c9.234,-21.468 18.942,-42.732 28.44,-64.086c1.021,-2.294 1.833,-4.682 2.958,-7.582c-17.797,-2.455 -35.069,-4.363 -52.159,-7.33c-17.464,-3.032 -33.623,-9.525 -45.289,-23.676c-20.2,-24.506 -12.705,-60.4 16.091,-73.589c10.372,-4.752 22.276,-6.477 33.67,-8.542c5.429,-0.984 9.195,-2.307 12.307,-7.29c6.94,-11.116 15.024,-21.516 22.059,-32.578c10.005,-15.729 24.308,-18.991 43.531,-15.043c-23.674,11.064 -24.8,33.14 -30.999,52.875c17.535,3.986 20.776,2.688 30.044,-10.391c4.284,-6.047 9.251,-11.61 13.554,-17.645c7.845,-11.004 18.674,-11.018 32.809,-9.006c-15.856,8.867 -19.987,22.477 -23.161,37.535c2.362,0.355 4.216,0.871 6.074,0.878c19.131,0.062 38.268,0.338 57.392,-0.028c25.963,-0.498 37.99,-13.055 38.015,-39.042c0.012,-13.761 -2.938,-26.673 -12.037,-37.47c-6.948,-8.243 -15.596,-12.941 -26.806,-12.765c-17.413,0.275 -34.849,-0.35 -52.246,0.25c-9.019,0.311 -15.929,-2.866 -20.458,-9.921c-6.745,-10.504 -12.503,-21.641 -18.682,-32.51l3.427,0c10.212,2.932 20.292,7.643 30.664,8.405c18.738,1.374 37.716,1.375 56.473,0.119c19.917,-1.334 32.574,7.893 41.656,24.019c3.876,6.884 7.009,14.184 9.997,20.308c6.251,-10.066 12.081,-20.786 19.214,-30.556c6.89,-9.441 16.629,-13.975 28.895,-13.643c19.682,0.532 39.46,1.146 59.058,-0.244c11.256,-0.798 22.238,-5.476 33.342,-8.408l1.714,0Z" style="fill:#bf0044;fill-rule:nonzero;fill-opacity:1;"/>
            <path d="M540.647,111.334c2.662,0.356 5.086,0.681 8.459,1.133l0,26.124c0.729,0.15 1.459,0.301 2.19,0.453c4.043,-9.842 8.074,-19.688 12.132,-29.523c5.922,-14.355 15.163,-20.197 31.961,-19.653c-3.569,5.246 -6.89,10.125 -10.451,15.362c2.407,3.067 4.792,6.104 7.514,9.571c-6.311,7.593 -12.447,14.975 -20.24,24.348c20.433,-2.983 41.128,-9.207 46.338,20.074c-4.465,-0.556 -8.219,-1.155 -11.996,-1.46c-4.607,-0.372 -9.259,-2.241 -13.004,3.27c-1.212,1.784 -6.239,1.12 -9.537,1.305c-3.327,0.188 -6.671,0.041 -10.836,0.041c0.767,6.928 -0.291,14.65 2.773,20.022c2.893,5.074 10.12,7.677 15.696,11.544c-3.846,13.077 -11.278,16.037 -23.274,8.463c-3.349,-2.115 -6.767,-4.123 -11.293,-6.872c-22.674,35.452 -45.151,70.594 -68.666,107.36c-2.17,-9.573 -3.413,-17.805 -5.959,-25.613c-3.414,-10.474 -7.285,-20.889 -12.075,-30.79c-2.128,-4.398 -2.008,-6.798 0.87,-10.429c20.367,-25.702 40.383,-51.683 60.885,-77.276c3.713,-4.634 4.036,-8.095 0.899,-12.811c-2.83,-4.256 -5.042,-8.923 -7.532,-13.407c-7.328,-13.2 -1.576,-31.455 12.635,-39.237c0.824,5.916 1.635,11.729 2.511,18.001" style="fill:#bf0044;fill-rule:nonzero;fill-opacity:1;"/>
            <path d="M431.071,134.453c-4.998,3.611 -7.807,7.199 -10.162,6.923c-2.567,-0.302 -5.953,-3.897 -6.585,-6.614c-0.383,-1.648 3.63,-5.953 5.93,-6.161c2.603,-0.235 5.5,2.779 10.817,5.852" style="fill:#bf0044;fill-rule:nonzero;fill-opacity:1;"/>
        </g>
    </g>
</svg>
