<?xml version="1.0" encoding="UTF-8" standalone="no"?>
<svg
   xmlns:dc="http://purl.org/dc/elements/1.1/"
   xmlns:cc="http://creativecommons.org/ns#"
   xmlns:rdf="http://www.w3.org/1999/02/22-rdf-syntax-ns#"
   xmlns:svg="http://www.w3.org/2000/svg"
   xmlns="http://www.w3.org/2000/svg"
   id="svg8"
   version="1.1"
   viewBox="0 0 63.109856 13.268705"
   height="13.268705mm"
   width="63.109856mm">
  <defs
     id="defs2" />
  <metadata
     id="metadata5">
    <rdf:RDF>
      <cc:Work
         rdf:about="">
        <dc:format>image/svg+xml</dc:format>
        <dc:type
           rdf:resource="http://purl.org/dc/dcmitype/StillImage" />
        <dc:title></dc:title>
      </cc:Work>
    </rdf:RDF>
  </metadata>
  <g
     transform="translate(-49.331978,-33.341837)"
     id="layer1">
    <g
       id="g3721"
       transform="matrix(0.35277777,0,0,-0.35277777,46.881965,49.010673)">
      <g
         id="g3723"
         transform="scale(0.1)">
        <path
           d="m 1858.39,81.3438 v 34.1212 h -7.78 V 84.3242 c 0,-2.1054 -0.07,-4.6562 -0.22,-6.6484 -2.45,-1.1524 -7.05,-1.9219 -10.36,-1.9219 -10.41,0 -11.81,3.5039 -11.81,11.4805 v 28.2306 h -7.8 V 86.1445 c 0,-9.3086 1.58,-16.7109 17.26,-16.7109 8.32,0 15.25,1.5117 20.4,3.8789 0.21,2.625 0.31,5.2227 0.31,8.0313 m -52.08,-8.1133 c 0.2,2.6367 0.3,5.2383 0.3,8.0429 v 20.7816 c 0,11.429 -7.9,14.031 -17.75,14.031 -6.54,0 -12.11,-0.805 -17.16,-1.613 l 0.66,-5.918 c 4.77,0.64 10.13,1.23 15.48,1.23 8.47,0 11.1,-3.109 11.1,-9.9998 v -1.0977 c -6.3,-0.2305 -12.58,-0.4648 -17.89,-1.25 -8.38,-1.2695 -11.77,-6.2695 -11.77,-14.1523 0,-9.625 5.2,-13.8516 17.44,-13.8516 7.81,0 14.35,1.0742 19.59,3.7969 m -7.37,10.7461 c 0,-2.0899 -0.05,-4.6407 -0.2,-6.6641 -3.42,-1.4219 -7.5,-1.8047 -11.01,-1.8047 -7.28,0 -10.7,1.5235 -10.7,7.9258 0,5.8203 1.99,7.6016 6.93,8.6797 4.29,0.914 10.34,1.039 14.98,1.1719 z m -39.86,8.7968 c 0,17.4416 -5.73,23.3126 -19.43,23.3126 -3.77,0 -7.76,-0.594 -11.32,-1.481 v 18.407 h -7.8 V 81.2734 c 0,-2.8046 0.12,-5.4062 0.3,-8.0429 5.05,-2.7227 11.6,-3.7969 17.45,-3.7969 14.63,0 20.8,5.5937 20.8,23.3398 m -7.87,0 c 0,-10.4296 -1.86,-17.1367 -12.93,-17.1367 -3.24,0 -7.17,0.5742 -9.73,1.8047 -0.17,2.0117 -0.22,4.5664 -0.22,6.6641 v 24.1995 c 2.55,0.871 6.25,1.558 9.21,1.558 12.39,0 13.67,-6.019 13.67,-17.0896 m -41.55,16.7346 0.64,6.394 c -1.34,0.121 -2.73,0.184 -4.25,0.184 -5.84,0 -12.38,-1.082 -17.43,-3.801 -0.2,-2.633 -0.3,-5.23 -0.3,-8.031 V 70.0586 h 7.8 v 31.1564 c 0,2.09 0.05,4.64 0.2,6.66 2.58,1.223 6.51,1.809 9.73,1.809 1.34,0 2.54,-0.051 3.61,-0.176 m -33.87,-18.5392 c 0.11,1.25 0.13,2.6757 0.13,3.875 0,12.9292 -3.85,21.2422 -19.68,21.2422 -15,0 -20.02,-6.844 -20.02,-23.3047 0,-13.4727 3.95,-23.3477 18.99,-23.3477 8.68,0 14.24,0.793 19.31,1.582 l -0.69,6.0157 c -4.66,-0.6055 -10.17,-1.2188 -16.17,-1.2188 -9.38,0 -13,3.4961 -13.68,12.5508 l 9.5,0.4101 c 6.32,0.2813 17.11,1.3008 22.31,2.1954 m -7.72,7.3164 c 0,-0.7891 -0.03,-1.9297 -0.1,-2.6993 -3.7,-0.4804 -9.81,-0.9726 -13.49,-1.1523 l -10.67,-0.4805 c 0,10.0899 1.89,16.0309 12.43,16.0309 8.82,0 11.83,-4.359 11.83,-11.6988 m -66.78,5.8908 c 0,5.508 6.85,5.582 11.35,5.582 4.08,0 7.91,-0.535 11.38,-1.172 l 0.73,5.855 c -5.09,1.133 -9.43,1.645 -15.4,1.645 -9.08,0 -15.86,-2.762 -15.86,-12.473 0,-9.5349 7.04,-11.3278 14.22,-13.4958 5.78,-1.7344 10.11,-2.4688 10.11,-7.9844 0,-6.293 -7.42,-6.2422 -11.96,-6.2422 -3.67,0 -8.26,0.5352 -11.87,1.1719 l -0.75,-5.9883 c 4.76,-1.1015 10.14,-1.6406 15.02,-1.6406 9.92,0 17.51,2.832 17.51,13.0625 0,9.1289 -5.68,11.0664 -14.17,13.7969 -5.23,1.6523 -10.31,2.4218 -10.31,7.883 m -42.34,0 c 0,5.508 6.86,5.582 11.35,5.582 4.08,0 7.91,-0.535 11.37,-1.172 l 0.74,5.855 c -5.11,1.133 -9.43,1.645 -15.4,1.645 -9.08,0 -15.86,-2.762 -15.86,-12.473 0,-9.5349 7.04,-11.3278 14.23,-13.4958 5.76,-1.7344 10.1,-2.4688 10.1,-7.9844 0,-6.293 -7.42,-6.2422 -11.96,-6.2422 -3.68,0 -8.28,0.5352 -11.86,1.1719 l -0.77,-5.9883 c 4.76,-1.1015 10.15,-1.6406 15.02,-1.6406 9.92,0 17.52,2.832 17.52,13.0625 0,9.1289 -5.69,11.0664 -14.17,13.7969 -5.23,1.6523 -10.31,2.4218 -10.31,7.883 m -19.88,-30.9455 c 0.2,2.6367 0.3,5.2383 0.3,8.0429 v 20.7816 c 0,11.429 -7.91,14.031 -17.75,14.031 -6.52,0 -12.11,-0.805 -17.16,-1.613 l 0.67,-5.918 c 4.76,0.64 10.11,1.23 15.47,1.23 8.47,0 11.1,-3.109 11.1,-9.9998 v -1.0977 c -6.3,-0.2305 -12.58,-0.4648 -17.88,-1.25 -8.39,-1.2695 -11.78,-6.2695 -11.78,-14.1523 0,-9.625 5.2,-13.8516 17.44,-13.8516 7.81,0 14.36,1.0742 19.59,3.7969 m -7.37,10.7461 c 0,-2.0899 -0.05,-4.6407 -0.21,-6.6641 -3.41,-1.4219 -7.5,-1.8047 -10.99,-1.8047 -7.29,0 -10.71,1.5235 -10.71,7.9258 0,5.8203 1.99,7.6016 6.94,8.6797 4.28,0.914 10.33,1.039 14.97,1.1719 z m -80.93,96.6214 c 24.25,52.925 73.98,207.269 83.02,260.199 h -62.47 c -5.76,-36.535 -30.83,-138.684 -48.5,-187.141 -12.33,34.297 -43.56,160.301 -48.91,187.141 h -60 c -5.35,-26.84 -36.59,-152.844 -48.91,-187.141 -17.68,48.457 -42.74,150.606 -48.51,187.141 h -62.46 c 9.04,-52.93 58.77,-207.274 83.02,-260.199 h 55.08 c 14.38,35.039 46.84,148.367 51.78,174.086 4.93,-25.719 37.4,-139.047 51.79,-174.086 z m -283.91,0 c -16.44,66.343 -73.16,218.445 -93.71,260.199 h -69.04 C 983.551,399.043 926.84,246.941 910.398,180.598 h 62.883 c 4.926,19.379 11.098,39.886 18.086,61.507 h 94.523 c 6.99,-21.621 13.16,-42.128 18.09,-61.507 z m -93.3,105.867 h -69.87 c 9.87,33.551 25.08,76.422 34.94,101.773 9.86,-25.351 25.07,-68.222 34.93,-101.773 M 912.797,116.086 c -15,0 -20.02,-6.844 -20.02,-23.3047 0,-13.4727 3.953,-23.3477 19,-23.3477 8.672,0 14.235,0.793 19.301,1.582 l -0.68,6.0157 c -4.671,-0.6055 -10.179,-1.2188 -16.168,-1.2188 -9.39,0 -13.007,3.4961 -13.671,12.5508 l 9.48,0.4101 c 6.328,0.2813 17.117,1.3008 22.32,2.1954 0.102,1.25 0.129,2.6757 0.129,3.875 0,12.9292 -3.851,21.2422 -19.691,21.2422 m 0,-6.102 c 8.836,0 11.832,-4.359 11.832,-11.6988 0,-0.7891 -0.02,-1.9297 -0.098,-2.6993 -3.691,-0.4804 -9.789,-0.9726 -13.492,-1.1523 l -10.656,-0.4805 c 0,10.0899 1.887,16.0309 12.414,16.0309 m -72.508,210.774 c 23.844,7.09 42.328,27.215 42.328,51.816 0,48.461 -34.105,71.582 -111.789,71.582 -24.66,0 -77.68,-3.359 -87.535,-5.59 V 181.332 c 21.363,-2.227 44.797,-4.098 85.895,-4.098 98.218,0 127.398,30.204 127.398,77.914 0,34.665 -25.887,59.278 -56.297,65.61 m -19.73,47.719 c 0,-19.762 -14.383,-33.551 -52.61,-33.551 h -24.25 v 62.629 c 8.641,1.121 16.86,1.859 27.539,1.859 38.219,0 49.321,-11.176 49.321,-30.937 m 13.562,-110.34 c 0,-20.508 -11.094,-36.164 -50.551,-36.164 -17.261,0 -30.82,0.371 -39.871,1.113 v 70.09 h 35.758 c 40.695,0 54.664,-14.91 54.664,-35.039 M 537.75,69.4414 C 569.906,118.047 581.68,181.016 564.438,238.484 506.156,432.754 92.5,441.332 87.4883,441.426 L 86.6914,425.004 C 245.438,411.895 449.285,355.574 354.898,224.652 306.07,156.914 170.191,104.516 69.4492,73.7227 v -4.1719 c 0,0 455.5898,-0.1094 468.3008,-0.1094 m 164.082,60.6406 c -6.613,0 -13.441,-0.586 -18.539,-1.426 V 70.9453 c 5.855,-1.0039 12.203,-1.5117 19.578,-1.5117 12.445,0 23.207,2.5 23.207,15.6953 0,9.4258 -4.18,13.4844 -9.738,15.3161 5.961,2.219 8.765,7.469 8.765,14.36 0,13.261 -12.058,15.277 -23.273,15.277 M 691.547,97.418 h 10.695 c 8.895,0 15.547,-1.5352 15.547,-10.8399 0,-9.2148 -6.141,-10.5156 -15.269,-10.5156 -3.981,0 -7.348,0.2383 -10.973,0.6953 z m 0,25.43 c 3.672,0.457 7.473,0.66 10.285,0.66 8.895,0 15.164,-1.051 15.164,-9.801 0,-8.723 -5.965,-10.223 -14.754,-10.223 h -10.695 z m 54.953,-7.383 h -7.801 V 86.1445 c 0,-9.3086 1.578,-16.7109 17.258,-16.7109 8.32,0 15.254,1.5117 20.398,3.8789 0.211,2.625 0.317,5.2227 0.317,8.0313 v 34.1212 h -7.785 V 84.3242 c 0,-2.1054 -0.078,-4.6562 -0.231,-6.6484 -2.445,-1.1524 -7.035,-1.9219 -10.343,-1.9219 -10.415,0 -11.813,3.5039 -11.813,11.4805 z m 44.809,-3.258 C 791.098,109.586 791,106.973 791,104.176 V 70.0586 h 7.801 v 31.1294 c 0,2.117 0.047,4.667 0.226,6.66 2.434,1.144 7.071,1.91 10.43,1.91 10.441,0 11.859,-3.492 11.859,-11.4728 V 70.0586 h 7.817 V 99.375 c 0,9.313 -1.594,16.711 -17.324,16.711 -8.371,0 -15.348,-1.512 -20.5,-3.879 m 50.058,-19.4336 c 0,-17.7461 6.145,-23.3398 20.813,-23.3398 5.84,0 12.39,1.0742 17.422,3.7969 0.199,2.6367 0.296,5.2383 0.296,8.0429 v 51.7386 h -7.769 v -18.407 c -3.598,0.887 -7.551,1.481 -11.328,1.481 -13.692,0 -19.434,-5.871 -19.434,-23.3126 m 7.879,0 c 0,11.0706 1.274,17.0896 13.676,17.0896 2.93,0 6.648,-0.687 9.207,-1.558 V 84.1055 c 0,-2.0977 -0.078,-4.6524 -0.231,-6.6641 -2.546,-1.2305 -6.476,-1.8047 -9.718,-1.8047 -11.071,0 -12.934,6.7071 -12.934,17.1367 m 94.516,-15.7109 -0.766,-5.9883 c 4.762,-1.1015 10.145,-1.6406 15.024,-1.6406 9.918,0 17.507,2.832 17.507,13.0625 0,9.1289 -5.679,11.0664 -14.172,13.7969 -5.226,1.6523 -10.304,2.4218 -10.304,7.883 0,5.508 6.859,5.582 11.347,5.582 4.082,0 7.911,-0.535 11.372,-1.172 l 0.738,5.855 c -5.09,1.133 -9.43,1.645 -15.399,1.645 -9.082,0 -15.863,-2.762 -15.863,-12.473 0,-9.5349 7.043,-11.3278 14.234,-13.4958 5.766,-1.7344 10.098,-2.4688 10.098,-7.9844 0,-6.293 -7.418,-6.2422 -11.957,-6.2422 -3.683,0 -8.273,0.5352 -11.859,1.1719 m 41.926,6.2227 c 0,-9.625 5.21,-13.8516 17.452,-13.8516 7.8,0 14.36,1.0742 19.58,3.7969 0.21,2.6367 0.31,5.2383 0.31,8.0429 v 20.7816 c 0,11.429 -7.91,14.031 -17.75,14.031 -6.53,0 -12.12,-0.805 -17.159,-1.613 l 0.656,-5.918 c 4.774,0.64 10.125,1.23 15.483,1.23 8.47,0 11.09,-3.109 11.09,-9.9998 v -1.0977 c -6.3,-0.2305 -12.57,-0.4648 -17.877,-1.25 -8.387,-1.2695 -11.785,-6.2695 -11.785,-14.1523 m 7.75,0.1484 c 0,5.8203 1.992,7.6016 6.942,8.6797 4.29,0.914 10.33,1.039 14.97,1.1719 v -9.3086 c 0,-2.0899 -0.05,-4.6407 -0.2,-6.6641 -3.42,-1.4219 -7.5,-1.8047 -10.99,-1.8047 -7.301,0 -10.722,1.5235 -10.722,7.9258 m 43.972,28.7734 c -0.21,-2.621 -0.31,-5.234 -0.31,-8.031 V 70.0586 h 7.8 v 31.1294 c 0,2.117 0.05,4.667 0.23,6.66 2.42,1.144 7.06,1.91 10.43,1.91 10.43,0 11.86,-3.492 11.86,-11.4728 V 70.0586 h 7.8 V 99.375 c 0,9.313 -1.58,16.711 -17.31,16.711 -8.37,0 -15.36,-1.512 -20.5,-3.879 m 50.29,-35.1445 -0.77,-5.9883 c 4.77,-1.1015 10.15,-1.6406 15.02,-1.6406 9.92,0 17.52,2.832 17.52,13.0625 0,9.1289 -5.68,11.0664 -14.18,13.7969 -5.23,1.6523 -10.3,2.4218 -10.3,7.883 0,5.508 6.86,5.582 11.35,5.582 4.08,0 7.9,-0.535 11.37,-1.172 l 0.74,5.855 c -5.1,1.133 -9.44,1.645 -15.4,1.645 -9.08,0 -15.86,-2.762 -15.86,-12.473 0,-9.5349 7.03,-11.3278 14.23,-13.4958 5.76,-1.7344 10.09,-2.4688 10.09,-7.9844 0,-6.293 -7.42,-6.2422 -11.96,-6.2422 -3.67,0 -8.26,0.5352 -11.85,1.1719 m 48.51,38.4025 h -8.01 v -5.957 h 8.01 V 81.5547 c 0,-8.3242 3.72,-12.1211 12.52,-12.1211 1.76,0 4,0.2617 5.79,0.5547 l -0.61,5.7422 c -0.97,-0.0782 -1.92,-0.125 -2.91,-0.125 -4.92,0 -6.96,1.2812 -6.96,6.789 v 27.1135 h 9.79 v 5.957 h -9.79 v 12.832 l -7.83,-1.27 z m 26.8,-32.1798 c 0,-9.625 5.2,-13.8516 17.45,-13.8516 7.8,0 14.34,1.0742 19.58,3.7969 0.19,2.6367 0.31,5.2383 0.31,8.0429 v 20.7816 c 0,11.429 -7.91,14.031 -17.75,14.031 -6.54,0 -12.12,-0.805 -17.17,-1.613 l 0.67,-5.918 c 4.76,0.64 10.12,1.23 15.48,1.23 8.47,0 11.09,-3.109 11.09,-9.9998 v -1.0977 c -6.3,-0.2305 -12.57,-0.4648 -17.88,-1.25 -8.39,-1.2695 -11.78,-6.2695 -11.78,-14.1523 m 7.75,0.1484 c 0,5.8203 1.98,7.6016 6.94,8.6797 4.28,0.914 10.33,1.039 14.97,1.1719 v -9.3086 c 0,-2.0899 -0.05,-4.6407 -0.2,-6.6641 -3.42,-1.4219 -7.5,-1.8047 -11,-1.8047 -7.29,0 -10.71,1.5235 -10.71,7.9258 m 50.95,49.5784 h -7.8 V 81.8086 c 0,-6.3008 1.6,-10.3828 4.59,-13.7734 l 6.7,3.3125 c -2.4,3.1054 -3.49,6.3281 -3.49,10.8867 z m 18.5,-17.547 h -8 v -5.957 h 8 V 81.5547 c 0,-8.3242 3.73,-12.1211 12.52,-12.1211 1.77,0 4.01,0.2617 5.8,0.5547 l -0.62,5.7422 c -0.97,-0.0782 -1.91,-0.125 -2.9,-0.125 -4.93,0 -6.97,1.2812 -6.97,6.789 v 27.1135 h 9.8 v 5.957 h -9.8 v 12.832 l -7.83,-1.27 z m 53.64,0 h -7.88 v -5.957 h 7.88 V 70.0586 h 7.83 v 39.4494 h 9.91 v 5.957 h -9.91 v 4.902 c 0,5.145 2.8,7.297 7.3,7.297 h 2.72 l 0.58,5.602 c -1.5,0.23 -3.44,0.355 -4.84,0.355 -9.08,0 -13.59,-4.816 -13.59,-13.504 z m 39.5,8.551 c 2.47,0 4.36,1.941 4.36,4.441 0,2.488 -1.89,4.457 -4.36,4.457 -2.5,0 -4.51,-1.969 -4.51,-4.457 0,-2.5 2.01,-4.441 4.51,-4.441 m 19.51,4.441 c 0,2.488 -1.89,4.457 -4.41,4.457 -2.5,0 -4.48,-1.969 -4.48,-4.457 0,-2.5 1.98,-4.441 4.48,-4.441 2.52,0 4.41,1.941 4.41,4.441 m -23.18,-12.992 h -7.83 V 86.1445 c 0,-9.3086 1.58,-16.7109 17.26,-16.7109 8.34,0 15.25,1.5117 20.4,3.8789 0.21,2.625 0.3,5.2227 0.3,8.0313 v 34.1212 h -7.77 V 84.3242 c 0,-2.1054 -0.07,-4.6562 -0.23,-6.6484 -2.43,-1.1524 -7.02,-1.9219 -10.35,-1.9219 -10.39,0 -11.78,3.5039 -11.78,11.4805 z m 44.76,-3.18 c -0.21,-2.633 -0.31,-5.23 -0.31,-8.031 V 70.0586 h 7.8 v 31.1564 c 0,2.09 0.05,4.64 0.2,6.66 2.58,1.223 6.51,1.809 9.75,1.809 1.32,0 2.51,-0.051 3.59,-0.176 l 0.64,6.394 c -1.33,0.121 -2.73,0.184 -4.23,0.184 -5.85,0 -12.4,-1.082 -17.44,-3.801 m 57.91,17.18 h -8.39 l 12.22,-54.1447 c 0.91,-4.0976 3,-5.8867 6.06,-5.8867 3.09,0 5.05,1.8047 6.23,5.8867 l 10.78,37.3677 10.64,-37.3677 c 1.16,-4.082 3.14,-5.8867 6.22,-5.8867 3.06,0 5.15,1.7578 6.07,5.918 l 12.09,54.1134 h -8.14 l -10.35,-49.797 -10.48,37.437 c -1.12,3.969 -2.96,5.61 -5.87,5.61 -2.9,0 -4.72,-1.641 -5.87,-5.59 l -10.84,-37.5078 -10.37,49.8478"
           style="fill:#1a67bb;fill-opacity:1;fill-rule:nonzero;stroke:none"
           id="path3725" />
      </g>
    </g>
  </g>
</svg>
