<?xml version="1.0" encoding="utf-8"?>
<!-- Generator: Adobe Illustrator 24.1.0, SVG Export Plug-In . SVG Version: 6.00 Build 0)  -->
<svg version="1.1" id="Ebene_1" xmlns="http://www.w3.org/2000/svg" xmlns:xlink="http://www.w3.org/1999/xlink" x="0px" y="0px"
	 viewBox="0 0 900 400" style="enable-background:new 0 0 900 400;" xml:space="preserve" width="180" height="80">
<style type="text/css">
	.st0{fill:none;}
	.st1{fill:#003063;}
	.st2{fill:#D60D4C;}
</style>
<rect y="0" class="st0" width="1200" height="572"/>
<g>
	<g>
		<g>
			<g>
				<g>
					<path class="st1" d="M662.6,266.7c-1.8-3.1-12-5.8-12-5.8l8.1-0.6c-0.1-0.3,1.1-3.8,1-4.2l9.2-1c0,0-6.6-5.3-9-5.5
						c-4.3-0.4-16.8,5.2-16.8,5.2l-32.7-25.4l12.8,0c0,0-2.6-2.4-4-4.6c-1.4-2.2-2.8-7.4-2.9-8l-2.9-13.4c-0.6-2.6-1.2-6.5-5-11.7
						c-0.6-1-4.3-4.7-4.3-4.7v-3.9h3.2c3.5,0,3.6-3.4,3.6-3.4v-4.9h-22.2c0,0-0.1-1.5-0.1-4.5h24.1c4.1,0,7.4-1.3,9.8-3.8
						c4.1-4.2,4.7-9.7,4.7-9.9c0-1.3-1.1-2.4-2.4-2.4c-1.3,0.1-2.4,1.1-2.3,2.5c0,0-0.7,3.8-3.4,6.5c-1.5,1.6-3.7,2.3-6.4,2.3h-24
						c0.1-0.7,0.1-0.3,0.3-0.8c0.7-2.5,3.6-3.4,6.5-3.5c5.4,0,11.1,0,18.2-0.3c3.3-0.1,5-5.4,5-5.4s1.5-8.6,1.5-9.8
						c0-1.2-0.5-1.5-2-2c-1.5-0.5-7.5-2-10.7-4c-3.2-2-8-4-10.7-4h-14.7c-2.2,0-6,2.7-6,2.7s-1.7-5.4-5.7-6.8l-6-2.1l2.4,14.4
						l-3.7,13c0,0-7.1,3.8-9.8,4.4c-2.7,0.6-4.3-0.1-4.3-0.1s0.8,0.8,3.2,3.3c1.2,1.1,4.8,1.1,8.4,0.8l-0.9,2.9
						c-0.3,0.2-6.8,4.1-9.4,4.6c-2.7,0.6-4.5-0.2-4.5-0.2s0.9,0.9,3.3,3.4c1.1,1.1,4.6,1.1,8.1,0.8l-1.8,5.9c0,0-0.6,5.4-6.9,5.4
						c-5.7,0-77.1-8.4-77.1-8.4s-8.5-0.1-12.8-4.9c-2.1-2.3-3.1-3.4-3.1-7.4c0,0,0-0.1,0-0.1c0-0.1,0-0.2,0-0.2c0-0.1,0-0.1,0-0.2
						c0-8.7,10.5-9.6,17-9.6l57.7-0.1c7.5,0,13.5-0.9,17.8-5.1c5.9-5.7,6.5-14.3,6.5-17.4c0-0.5,0-4.7,0-4.9v-2c0,0,0.2-1,1.4-4.4
						c1.2-3.8,5.2-11.4,11-11.4c6.3,0,24.4,0,26.7,0c1.6,0,11-14.5,10.1-13.7c0,0-6.4,2.8-8,3.2c0,0-21,0-27.3,0
						s-16.2,8.6-18.6,17.8c-1.7-9-8.9-17.8-14.6-17.8s-31.3,0-31.3,0c-1.6-0.4-8-3.2-8-3.2c-1-0.8,7.4,13.7,9.1,13.7
						c1.6,0,21.6,0,27.7,0c5.8,0,10.2,7,11.5,10.8c1.2,3.4,0.9,5,0.9,5v2.3l0,4.1c0,0.1,0.4,7.3-3.6,11.1c-2.2,2.1-5.1,2.9-9.8,2.9
						l-24.7,0.2c0.8-2.9,2.5-8.7,4-11c2-3,5.2-4.2,5.2-4.2s-2.5,0.2-7.1,0.2c-3.9,0-11,10.7-13.6,14.5l-8.5-0.1
						c1-3.7,3.5-12.7,5.4-15.6c2.5-3.8,6.6-5.1,6.6-5.1s-3.3,0.1-9.2,0.1c-5,0-14.4,15.9-17.6,20.5c-8.6,0.7-26.3,2.1-26.3,19.3
						c0,6.2,1.7,9.6,5.4,13.8c6.6,7.3,15.2,7.9,19,8.3c0.5,0.1,19.4,2.4,19.4,2.4l-21,36.2l-7.1-0.2l-12.7,26.8l-8.5,2.9
						c-1.5,0.6-4.1,3.1-4.8,4.6c-1,2-0.6,4.1-0.6,4.1l5-1.9l2.4,2.1l5.8-1.7l-4.8,11l3,3.2l-1,9c4.8-0.5,8.5-8.1,8.5-8.1l0.5-11.2
						l4.1,10.4c0.6,0.1,0.6,0.1,2.7,0.3l5.4,8.8c0,0,1.6-1.4,2.2-3.5c0.5-1.6,0.5-8,0.5-8c-1.8-2.1-6.6-8.7-6.6-8.7l8.7,6.8
						c0.1-0.3,1.6-1.6,1.9-1.9l9.5,3.7c0,0-2.5-7.5-4-9.2c-0.9-1-15.7-8.3-15.7-8.3l36.7-34.4c10.4-8.2,16.7-13.9,20.7-14.5
						c4.1-0.5,37.2,21.4,41.4,21.2l10.3-1.8c0.3,2.4,0,6.6,0.7,7.8c0.2,3,55.9,24.4,55.9,24.4s-4.4,0-7.5,1.7
						c-2.1,1.1-4.9,5.2-4.9,5.2l9.6,0l1,3.1l8.9-5.1l-1,9.4l3.2,0.4l0.2,11.7c4.5-1.9,7.2-11,7.2-11l-0.1-8.8l9.1,8.1l3.4-3.1l8,3.8
						c0,0,0.5-2.1-0.4-4.3C664.9,270.8,662.6,266.7,662.6,266.7z M586,150.6c-0.5-0.3-0.6-0.9-0.3-1.4c0.8-1.2,4.7-7.2,7.4-7.7
						c3.4-0.6,6,0.5,8.6,1.9l2.5,1.2c0.5,0.3,0.7,0.9,0.4,1.4c-0.2,0.5-0.9,0.7-1.4,0.4l-2.5-1.2c-0.6-0.3-1.2-0.6-1.8-0.8
						c0.4,0.7,0.6,1.5,0.6,2.3c0,2.8-2.2,5-5,5c-2.6,0-4.7-2-4.9-4.6c-0.8,1-1.6,2.1-2.3,3.2C587.2,150.7,586.6,150.9,586,150.6z"/>
					<path class="st1" d="M594.7,149.5c1.6,0,3-1.3,3-3c0-1.6-1.3-3-3-3c-1.6,0-3,1.3-3,3C591.7,148.2,593.1,149.5,594.7,149.5z"/>
					<path class="st1" d="M610.6,189.9c0.1,0.1,0.2,0.2,0.2,0.3c3.7,5.1,4.6,9.2,5.2,11.9c0.1,0.3,0.1,0.5,0.2,0.8l2.3,10.7
						l26.1-40.6c0,0,5.7,2.2,9,2c2.4-0.1,5.8-5,5.8-5l-6.5-2.4l-1.1-9.4l7.6,0.5l1.4-2.4l8.3,1.2c-0.8-6.5-2.3-9.1-7-9.3
						c-4.7-0.1-10.7,1.5-10.7,1.5l7.9-9.3l-3.2-3.3l4.3-6.2c0,0-4.2-0.3-6.5,0.1c-6.3,0.9-11.1,20.6-11.1,20.6l0-12.2
						c-0.3,0.1-3,0-3.4,0.1l-0.8-7.5c0,0-6.9,4.2-7.3,10.3C631,146.7,638,155,638,155L610.6,189.9z"/>
					<path class="st1" d="M569.2,251.5c-5.3-0.9-14.3,6.4-14.3,6.4c-1.8-0.8-23.2-12.6-23.2-12.6s14-13.7,7-21.7
						c-1.1-1.3-2.5-2.8-3.8-4.3c-6-3.3-12.4-6.6-14.1-6.9c-2.5,0.4-7.5,4.4-13.7,9.5c-0.3,0.3-0.7,0.6-1,0.8
						c4.8,3.5,14.6,12,8.2,19.3c-3.1,3.6-7.8,6-7.8,6v6.9c0,0,34.6,11.5,35,12.2c0,0-0.4,0-2.6,2.4c-3.1,3.3-1.4,7.2-1.4,7.2
						l4.4-3.4l1.1,1.5l5.3-4.1l2.1,10l3.1-0.3l1,7.5c5.8-1.9,6.1-10.4,6.1-10.4l-3.9-9.7l13,9.9l1.7-3.8l6.6,2.1
						c0,0-0.3-2.7-1.1-4.9c-3.6-8.9-16.1-8.7-16.1-8.7l9-3l-0.5-2.6l7.2-0.2C576.7,256.7,571.6,251.9,569.2,251.5z"/>
				</g>
				<polygon class="st2" points="811.3,112.4 784.2,112.4 769.7,139 763.9,112.4 753.7,139 743.5,112.4 737.7,139 723.2,112.4 
					696,112.4 695.9,134.6 729,148.1 696.3,162.4 729.9,174 698.4,190.3 732.4,198.6 703.2,217.8 736.8,221.5 712.3,244.3 
					744.8,244.3 727.8,267.7 753.7,287.7 779.5,267.7 762.6,244.3 795.1,244.3 770.6,221.5 804.1,217.8 774.9,198.6 809,190.3 
					777.4,174 811,162.4 778.3,148.1 811.4,134.6 				"/>
			</g>
			<path class="st1" d="M107,264.1c13.1,14,30.4,23.2,54.1,23.7c25.4,0.5,53.9-14.8,53.9-44.9c0-31.5-24.8-40.8-49.1-50.1
				c-15.5-5.9-41.9-14.2-41.9-40.7c0-20,17.8-33.5,40.6-32.9c13.1,0.3,26.1,6.6,38.8,17.1l6.9-8c-15.4-13.5-31.2-19.4-46-19.7
				c-28.4-0.6-51.6,16.1-51.6,43.5c0,33.6,29.2,42.7,47.3,49.9c20.9,8.3,43.5,16.4,43.5,40.9c0,19.8-18.5,34.9-43.6,34.2
				c-17.9-0.5-31.9-6.6-44.8-20.3L107,264.1z"/>
			<polygon class="st1" points="352.8,283.5 364,283.5 364,112.6 352.8,112.6 352.8,189.9 263.3,189.9 263.3,112.6 252.2,112.6
				252.2,283.5 263.3,283.5 263.3,200.4 352.8,200.4 			"/>
		</g>
	</g>
</g>
</svg>
