<svg xmlns="http://www.w3.org/2000/svg" width="21" height="20" viewBox="0 0 21 20"><title>gebaerdensprache</title><path d="M12.6,6.7c1.3,0,1.7.5,1.8.8v.2l-.2,1.4c0,.2.1,1.2.2,1.8a5.5,5.5,0,0,1,.4,1.8,2.7,2.7,0,0,1,.8-.7l1.8-3a3,3,0,0,0,.2-.9L18.5,6l.8-.9s.2-.4-.5-.7-1.7.1-2,1.4-1,1.7-1.8,1.4a2.6,2.6,0,0,1-1.9-2.1l-.8-2.2S10.9.2,10.5.2s-.4-.4-.5-.1-.5.2-.4.6l1.3,2.8a6.4,6.4,0,0,0,.6,1.6.6.6,0,0,1-.2.4s-.2.3-.4-.2S7.9.5,7.8.8,7.3.5,7,.8s-.6.4-.2.8S9.3,5.9,9.5,6s.2.4-.1.3-.2,0-.7-.6l-.9-.9s-2-2.3-2.2-2.2a.6.6,0,0,0-.7.1s-.4.5-.1.8S6.9,5.9,7.1,6,8.7,7.6,8.7,7.7s0,.4-.1.4a3.5,3.5,0,0,1-1.3-.6L5,5.8s-.5-.3-.8.1a.6.6,0,0,0,.2.8S6.5,8.5,7,8.8a10.4,10.4,0,0,0,1.4,1s.3.3.3.5l.2.3a2.4,2.4,0,0,0,1.9.6h.1a2.9,2.9,0,0,0,.2-1.2c-.3-1.3,1.1-2.2,1.4-2.9" style="fill:#156570"/><path d="M13.9,15.5a20.4,20.4,0,0,0,0-3.5,1.7,1.7,0,0,0-.3-.9,13,13,0,0,1-.2-2.3l.2-1.2s-.1-.3-.8-.2-1.3.9-.9,2.1,0,1.9-.9,2a2.4,2.4,0,0,1-2.7-.8L6.5,9.2A18.4,18.4,0,0,0,3.7,7.7s-.6,0-.6.3a.8.8,0,0,0,0,.7l2.5,1.8,1.3,1.1V12s-.1.4-.5.1-5-2.6-4.9-2.4a1.1,1.1,0,0,0-.7.3s-.2.7.3.8,4.3,2.6,4.5,2.6.4.1,0,.2-.2.1-.9-.1l-1.2-.4a26.3,26.3,0,0,0-3-.8.6.6,0,0,0-.6.5s-.1.6.4.7l3.2,1a11.1,11.1,0,0,1,2.2.7s.2.2,0,.3H4.5l-2.9-.2s-.7,0-.6.5a.5.5,0,0,0,.5.5l3.3.5,1.7.2s.5.1.5.3a7.5,7.5,0,0,0,2.4,1.2,3.5,3.5,0,0,1,1,.4c1.1.3,3.1-1.4,3.5-3.5" style="fill:#156570"/></svg>