<?xml version="1.0" encoding="UTF-8" standalone="no"?>
<svg
   xmlns:dc="http://purl.org/dc/elements/1.1/"
   xmlns:cc="http://creativecommons.org/ns#"
   xmlns:rdf="http://www.w3.org/1999/02/22-rdf-syntax-ns#"
   xmlns:svg="http://www.w3.org/2000/svg"
   xmlns="http://www.w3.org/2000/svg"
   xmlns:xlink="http://www.w3.org/1999/xlink"
   xmlns:sodipodi="http://sodipodi.sourceforge.net/DTD/sodipodi-0.dtd"
   xmlns:inkscape="http://www.inkscape.org/namespaces/inkscape"
   sodipodi:docname="logo.svg"
   inkscape:version="1.0 (4035a4fb49, 2020-05-01)"
   width="88px"
   height="44px"
   viewBox="0 0 88 44"
   version="1.1"
   id="SVGRoot">
  <defs
     id="defs172">
    <linearGradient
       gradientTransform="matrix(0.64524741,0,0,0.70524704,-31.547204,-67.764348)"
       inkscape:collect="always"
       xlink:href="#linearGradient950"
       id="linearGradient952"
       x1="184.68324"
       y1="142.32103"
       x2="96.751572"
       y2="142.32103"
       gradientUnits="userSpaceOnUse" />
    <linearGradient
       inkscape:collect="always"
       id="linearGradient950">
      <stop
         style="stop-color:#878787;stop-opacity:1;"
         offset="0"
         id="stop946" />
      <stop
         style="stop-color:#cfcfcf;stop-opacity:1"
         offset="1"
         id="stop948" />
    </linearGradient>
    <linearGradient
       gradientTransform="matrix(0.64524741,0,0,0.70524704,-31.547204,-67.764348)"
       inkscape:collect="always"
       xlink:href="#linearGradient942"
       id="linearGradient944"
       x1="49.311226"
       y1="113.18864"
       x2="137.51018"
       y2="113.32228"
       gradientUnits="userSpaceOnUse" />
    <linearGradient
       inkscape:collect="always"
       id="linearGradient942">
      <stop
         style="stop-color:#878787;stop-opacity:1;"
         offset="0"
         id="stop938" />
      <stop
         style="stop-color:#d0d0d0;stop-opacity:1"
         offset="1"
         id="stop940" />
    </linearGradient>
  </defs>
  <sodipodi:namedview
     inkscape:window-maximized="0"
     inkscape:window-y="0"
     inkscape:window-x="52"
     inkscape:window-height="1040"
     inkscape:window-width="1256"
     showgrid="false"
     inkscape:document-rotation="0"
     inkscape:current-layer="layer1"
     inkscape:document-units="px"
     inkscape:cy="33.740594"
     inkscape:cx="41.996373"
     inkscape:zoom="11.2"
     inkscape:pageshadow="2"
     inkscape:pageopacity="0.0"
     borderopacity="1.0"
     bordercolor="#666666"
     pagecolor="#ffffff"
     id="base" />
  <metadata
     id="metadata175">
    <rdf:RDF>
      <cc:Work
         rdf:about="">
        <dc:format>image/svg+xml</dc:format>
        <dc:type
           rdf:resource="http://purl.org/dc/dcmitype/StillImage" />
        <dc:title></dc:title>
      </cc:Work>
    </rdf:RDF>
  </metadata>
  <g
     id="layer1"
     inkscape:groupmode="layer"
     inkscape:label="Ebene 1">
    <path
       style="fill:#878787;fill-opacity:1;stroke-width:0.129129"
       d="m 53.627399,21.56221 v -6.627245 l 3.551013,0.06031 c 4.348354,0.07383 5.054622,0.268782 6.261692,1.729118 1.885721,2.281356 1.824796,7.721828 -0.110867,9.898655 -1.213671,1.364885 -2.033845,1.566471 -6.373072,1.566471 h -3.328786 v -6.627231 z"
       id="path889" />
    <path
       style="fill:#181715;fill-opacity:1;stroke-width:0.129129"
       d="m 46.957687,17.992291 v -1.287214 l 1.265998,0.03847 1.266008,0.03847 0.03543,1.248743 0.03543,1.248746 h -1.301536 -1.301512 z"
       id="path901" />
    <path
       style="opacity:1;mix-blend-mode:normal;fill:url(#linearGradient944);fill-opacity:1;stroke-width:0.128845;stroke-miterlimit:4;stroke-dasharray:none"
       d="M 0.33826996,20.089523 C 1.0406919,16.098843 2.9061039,11.574315 4.693335,9.5263644 6.3666074,7.6089869 9.4292429,6.1846545 11.878711,6.1846545 c 0.276823,0 0.887413,-0.2155203 1.530299,-0.5401572 5.652727,-2.8544114 12.2759,-3.2951768 20.085667,-1.336678 9.855448,2.471499 23.040325,5.9684037 23.638992,6.2695677 0.352306,0.177224 0.265803,0.187651 -1.035993,0.12501 C 47.35079,10.280909 40.282711,9.5249068 27.133745,7.6043794 20.035295,6.5675712 16.480056,6.1916904 13.7259,6.1868037 l -1.180001,-0.00145 -1.257942,0.8129174 C 6.9394566,9.8083097 3.6708642,13.660218 0.92315536,19.212748 c -0.4804787,0.970951 -0.6446962,1.21733 -0.5848854,0.877497 z"
       id="path899" />
    <path
       style="fill:#e3000b;fill-opacity:1;stroke-width:0.129129"
       d="m 46.957687,21.70951 v -1.21499 h 1.296885 1.296899 v 1.21499 1.214995 h -1.296899 -1.296885 z"
       id="path897" />
    <path
       style="fill:#efbc3d;fill-opacity:1;stroke-width:0.129129"
       d="m 46.957687,25.421974 v -1.291945 l 1.265998,0.03847 1.266008,0.03847 v 1.214989 1.214994 l -1.266008,0.03847 -1.265998,0.03847 z"
       id="path895" />
    <path
       style="fill:#878787;fill-opacity:1;stroke-width:0.129129"
       d="m 69.952974,28.044992 c -2.704532,-0.581711 -4.105288,-3.068008 -3.941222,-6.995609 0.196438,-4.702887 1.787152,-6.151213 6.760266,-6.155197 l 2.655538,-0.0014 v 1.417493 1.417477 l -2.593781,0.06739 c -3.160323,0.08228 -3.414683,0.201379 -3.600921,1.686475 l -0.07629,0.60851 h 3.166389 3.166383 v 1.417493 1.417479 h -3.149588 -3.149599 v 0.402258 c 0,1.638774 0.542095,1.924537 3.798042,2.002114 l 2.501145,0.05965 v 1.400492 1.400492 l -2.501145,-0.01433 c -1.375638,-0.008 -2.741475,-0.06651 -3.03519,-0.129636 z"
       id="path893" />
    <path
       style="fill:#878787;fill-opacity:1;stroke-width:0.129129"
       d="m 40.287951,21.574977 v -6.614954 h 1.358624 1.358648 v 6.614954 6.61494 h -1.358648 -1.358624 z"
       id="path887" />
    <path
       style="fill:#878787;fill-opacity:1;stroke-width:0.129129"
       d="m 27.749302,28.030204 c -0.0343,-0.09774 -0.04789,-3.063386 -0.03023,-6.590231 l 0.03223,-6.412436 3.026076,-0.03896 c 5.641618,-0.07251 7.28022,0.829924 7.970424,4.389967 0.760255,3.92131 -0.409642,7.349587 -2.875897,8.427517 -0.873297,0.3817 -7.9984,0.578282 -8.122605,0.224122 z"
       id="path883" />
    <path
       style="fill:#878787;fill-opacity:1;stroke-width:0.129129"
       d="m 12.620886,21.571449 v -6.618448 l 1.873434,0.03729 1.87342,0.03729 1.502617,4.927444 1.502631,4.927473 1.514064,-4.964665 1.514088,-4.96465 1.872253,0.0372 1.872237,0.03714 v 6.547445 6.54745 l -1.282858,0.03876 -1.282848,0.03877 0.0798,-4.831139 0.0798,-4.831128 -1.457599,4.79245 -1.457599,4.792451 -1.372892,0.03807 -1.372883,0.03807 -1.308598,-4.290505 c -1.386139,-4.544787 -1.848719,-5.928288 -1.750495,-5.235512 0.0315,0.222758 0.09438,2.455283 0.139606,4.961212 l 0.08213,4.556203 h -1.310192 -1.310201 z"
       id="path881" />
    <path
       style="fill:url(#linearGradient952);fill-opacity:1;stroke-width:0.129129"
       d="M 59.864838,40.600628 C 57.445667,40.296509 54.492546,39.580791 40.905499,36.00575 30.706652,33.322204 29.746445,33.006522 32.136048,33.122876 c 8.508241,0.414235 15.111263,1.119414 27.790559,2.967889 8.235343,1.200604 10.035979,1.408446 13.042323,1.505473 l 2.605431,0.08403 1.192961,-0.767376 c 4.304959,-2.769199 8.499615,-7.80568 10.613984,-12.744165 0.510476,-1.192267 0.539029,-0.973528 0.104897,0.803091 -2.066899,8.457658 -5.196586,12.154118 -10.691238,12.627359 -0.800624,0.06908 -1.217709,0.200639 -2.284994,0.721415 -4.194972,2.046906 -9.691807,2.902653 -14.645089,2.279977 z"
       id="path82" />
    <path
       style="fill:#ffffff;fill-opacity:1;stroke-width:0.129129"
       d="m 60.791185,25.419707 c 0.848456,-0.534338 1.04988,-1.272784 1.04988,-3.849009 0,-3.720903 -0.315836,-4.084502 -3.612778,-4.159013 l -2.007089,-0.04538 v 4.207962 4.207947 l 2.068842,-0.04509 c 1.802589,-0.0393 2.124499,-0.0802 2.501145,-0.317376 z"
       id="path891" />
    <path
       style="fill:#ffffff;fill-opacity:1;stroke-width:0.129129"
       d="m 34.508563,25.619374 c 1.153839,-0.350259 1.51817,-1.336967 1.51817,-4.111892 0,-3.58269 -0.499355,-4.115277 -3.859813,-4.116724 l -1.760068,-4.91e-4 v 4.184971 4.184969 l 1.821837,-9.81e-4 c 1.001977,-4.03e-4 2.027951,-0.06331 2.279874,-0.139837 z"
       id="path885" />
  </g>
</svg>
